<?xml version="1.0" encoding="utf-8"?>
<!-- Generator: Adobe Illustrator 16.0.0, SVG Export Plug-In . SVG Version: 6.00 Build 0)  -->
<!DOCTYPE svg PUBLIC "-//W3C//DTD SVG 1.1//EN" "http://www.w3.org/Graphics/SVG/1.1/DTD/svg11.dtd">
<svg version="1.1" id="Black" xmlns="http://www.w3.org/2000/svg" xmlns:xlink="http://www.w3.org/1999/xlink" x="0px" y="0px"
	 width="273.6px" height="273.6px" viewBox="0 0 273.6 273.6" enable-background="new 0 0 273.6 273.6" xml:space="preserve">
<path d="M143.367,140.057c0.108-0.423-0.177-0.759-0.452-1.084c-0.05-0.058-0.098-0.114-0.145-0.172
	c-0.051-0.068-0.087-0.125-0.114-0.182l-0.014-0.038l0.03-0.023c0.014-0.008,0.028-0.016,0.049-0.027
	c0.05-0.017,0.106-0.029,0.171-0.04c0.079-0.01,0.158-0.015,0.237-0.019l0.03-0.002c0.189-0.012,0.388-0.023,0.567-0.078
	c0.081-0.024,0.198-0.065,0.292-0.132c0.099-0.07,0.219-0.167,0.286-0.298c0.076-0.147,0.11-0.283,0.102-0.405
	c-0.011-0.142-0.045-0.266-0.113-0.402c-0.072-0.144-0.178-0.273-0.28-0.399l-0.065-0.082c-0.068-0.091-0.12-0.176-0.162-0.264
	c-0.007-0.021-0.015-0.041-0.021-0.063l-0.01-0.036l0.033-0.018l0.01-0.005c0.157-0.058,0.324-0.084,0.486-0.11
	c0.116-0.019,0.235-0.038,0.349-0.069c0.317-0.085,0.538-0.23,0.657-0.433c0.182-0.31,0.103-0.687-0.032-0.935
	c-0.134-0.246-0.348-0.438-0.54-0.595c-0.039-0.03-0.079-0.063-0.12-0.094c-0.1-0.077-0.203-0.156-0.293-0.248l-0.04-0.041
	l0.047-0.031c0.121-0.081,0.255-0.142,0.382-0.196c0.072-0.029,0.146-0.058,0.22-0.085c0.187-0.071,0.381-0.145,0.553-0.249
	c0.187-0.113,0.311-0.231,0.381-0.36c0.109-0.199,0.113-0.419,0.013-0.62c-0.064-0.126-0.194-0.245-0.357-0.326
	c-0.147-0.073-0.312-0.132-0.49-0.174c-0.255-0.061-0.52-0.095-0.776-0.128l-0.114-0.015c-0.036-0.005-0.071-0.011-0.106-0.018
	c-0.037-0.008-0.068-0.011-0.1-0.011c-0.063,0-0.117,0.014-0.168,0.044c-0.077,0.045-0.135,0.12-0.158,0.205
	c-0.025,0.091-0.008,0.196,0.045,0.282c0.046,0.075,0.114,0.124,0.191,0.139c0.116,0.023,0.235,0.037,0.352,0.051
	c0.044,0.005,0.087,0.012,0.131,0.017c0.266,0.037,0.547,0.08,0.813,0.183c0.016,0.007,0.031,0.015,0.047,0.023l0.069,0.036
	l-0.065,0.045c-0.082,0.055-0.175,0.104-0.302,0.159l-0.068,0.027c-0.045,0.017-0.09,0.034-0.134,0.051
	c-0.1,0.039-0.203,0.077-0.302,0.122l-0.046,0.021c-0.128,0.058-0.263,0.118-0.378,0.198c-0.132,0.093-0.262,0.196-0.319,0.33
	c-0.042,0.098-0.071,0.175-0.068,0.272c0.004,0.106,0.026,0.169,0.071,0.273s0.132,0.196,0.202,0.265
	c0.078,0.075,0.165,0.144,0.248,0.21l0.038,0.03c0.167,0.132,0.338,0.268,0.479,0.438c0.033,0.047,0.063,0.095,0.088,0.148
	c0.011,0.03,0.021,0.062,0.027,0.101c0.002,0.021,0.002,0.042,0,0.072l-0.005,0.018l-0.037,0.046
	c-0.025,0.017-0.052,0.031-0.084,0.046c-0.155,0.059-0.32,0.087-0.48,0.114l-0.051,0.009c-0.084,0.015-0.169,0.028-0.252,0.048
	c-0.098,0.021-0.197,0.055-0.319,0.106c-0.255,0.108-0.425,0.365-0.411,0.625c0.008,0.158,0.053,0.311,0.146,0.493
	c0.071,0.141,0.173,0.268,0.273,0.391l0.065,0.083c0.065,0.086,0.11,0.156,0.147,0.232c0.006,0.018,0.011,0.035,0.017,0.062v0.014
	l-0.006,0.028l-0.016,0.027c-0.012,0.011-0.021,0.021-0.039,0.037c-0.022,0.014-0.044,0.026-0.072,0.04
	c-0.062,0.021-0.127,0.037-0.205,0.05c-0.087,0.009-0.176,0.014-0.265,0.02c-0.181,0.01-0.366,0.02-0.538,0.07
	c-0.296,0.086-0.515,0.28-0.599,0.532c-0.098,0.294,0.078,0.593,0.158,0.707c0.082,0.117,0.175,0.228,0.267,0.335
	c0.051,0.062,0.103,0.124,0.154,0.188c0.056,0.073,0.096,0.137,0.128,0.204c0.004,0.011,0.008,0.021,0.011,0.031l0.007,0.025
	l-0.02,0.02c-0.014,0.016-0.027,0.029-0.049,0.046c-0.063,0.045-0.139,0.086-0.23,0.127c-0.026,0.011-0.055,0.021-0.08,0.03
	c-0.104,0.038-0.165,0.085-0.208,0.159c-0.047,0.079-0.06,0.175-0.035,0.264c0.022,0.086,0.081,0.16,0.158,0.205
	c0.078,0.046,0.188,0.063,0.261,0.036C142.852,140.635,143.266,140.438,143.367,140.057z"/>
<path d="M143.036,142.963c-0.02,0.01-0.037,0.021-0.058,0.031c0.343,0.236,0.757,0.366,1.175,0.366l0,0
	c0.063,0,0.128-0.004,0.19-0.01c0.55-0.053,1.086-0.332,1.366-0.713c0.425-0.578,0.738-1.104,0.958-1.611
	c0.168-0.386,0.296-0.797,0.42-1.193l0.059-0.187c0.1-0.313,0.19-0.626,0.271-0.931c0.162-0.612,0.303-1.254,0.421-1.906
	c0.213-1.18,0.368-2.453,0.474-3.892c0.057-0.761,0.099-1.542,0.128-2.386c0.024-0.669,0.019-1.217-0.017-1.725
	c-0.046-0.657-0.163-1.349-0.369-2.18c-0.142-0.575-0.345-1.118-0.604-1.621c-0.126-0.334-0.327-0.62-0.593-0.847l-0.451-0.292
	c-0.271-0.128-0.574-0.196-0.878-0.196c-0.153,0-0.305,0.017-0.451,0.05c0.001,0.001,0.001,0.002,0.002,0.002
	c0.041,0.063,0.083,0.125,0.124,0.188c0.027,0.042,0.055,0.084,0.083,0.126c0.019,0.028,0.038,0.059,0.057,0.089
	c0.034,0.052,0.068,0.105,0.102,0.159c0.014,0.021,0.026,0.043,0.04,0.064c0.036,0.058,0.071,0.116,0.107,0.175
	c0.011,0.019,0.022,0.036,0.033,0.055c0.038,0.063,0.076,0.128,0.113,0.191c0.007,0.016,0.016,0.028,0.023,0.042
	c0.042,0.076,0.084,0.151,0.125,0.229c0.002,0.004,0.004,0.007,0.006,0.011c0.087,0.163,0.17,0.328,0.248,0.496
	c0.138,0.298,0.266,0.617,0.383,0.953c0.114,0.326,0.221,0.67,0.316,1.027c0.055,0.207,0.102,0.424,0.144,0.644
	c0.022,0.114,0.041,0.229,0.06,0.345c0.029,0.189,0.055,0.381,0.074,0.576c0.05,0.509,0.074,1.003,0.08,1.479
	c0.002,0.241,0.002,0.48-0.008,0.712c-0.031,0.853-0.125,1.746-0.274,2.667c-0.053,0.326-0.113,0.657-0.182,0.99
	c-0.334,1.637-0.703,2.939-1.162,4.102c-0.514,1.296-1.103,2.364-1.805,3.264l-0.088,0.099l-0.275,0.307
	c-0.071,0.06-0.146,0.115-0.222,0.165c-0.004,0.003-0.009,0.005-0.013,0.008c-0.033,0.022-0.066,0.042-0.1,0.063
	C143.059,142.953,143.048,142.959,143.036,142.963z"/>
<path d="M146.586,148.956c-0.351-0.112-0.724-0.208-1.091-0.131c-0.053,0.01-0.114,0.031-0.177,0.063
	c-0.203,0.102-0.424,0.295-0.435,0.486c0.581,0.234,1.375,0.253,1.981,0.304c0.693,0.059,1.379,0.095,2.055,0.268
	c0.186-0.59-0.152-1.178-0.725-1.401c-0.438-0.169-1.189,0.187-1.482,0.552c-0.002,0.006-0.004,0.013-0.006,0.019
	c-0.02,0.052-0.072,0.063-0.112,0.047c-0.046-0.013-0.08-0.06-0.044-0.109c0.006-0.007,0.012-0.014,0.018-0.021
	C146.574,149.008,146.579,148.983,146.586,148.956z"/>
<path d="M135.592,144.866c0.01,0.021,0.021,0.042,0.029,0.062c0.006,0.005,0.013,0.011,0.018,0.018
	c0.051,0.057,0.002,0.133-0.057,0.136c-0.029,0.006-0.061-0.003-0.078-0.038c-0.004-0.006-0.008-0.014-0.012-0.021
	c-0.329-0.324-0.969-0.518-1.405-0.429c-0.661,0.133-0.933,0.965-0.689,1.522c0.597-0.229,1.215-0.352,1.84-0.47
	c0.654-0.125,1.507-0.242,2.104-0.563c-0.054-0.241-0.421-0.431-0.631-0.472C136.339,144.539,135.924,144.716,135.592,144.866z"/>
<path d="M141.213,134.203c-0.205,0.869-0.502,1.707-0.882,2.489c-0.175,0.323-0.33,0.581-0.489,0.813
	c-0.229,0.334-0.483,0.653-0.719,0.945c-0.208,0.303-0.328,0.643-0.356,1.003l0.032,0.556c0.102,0.519,0.41,0.989,0.847,1.291
	c0.072,0.049,0.146,0.094,0.225,0.134c-0.005-0.028-0.006-0.058-0.011-0.087c-0.004-0.034-0.009-0.067-0.012-0.1
	c-0.003-0.04-0.003-0.08-0.004-0.12c-0.001-0.034-0.003-0.066-0.002-0.1c0.001-0.041,0.004-0.082,0.007-0.123
	c0.003-0.031,0.004-0.063,0.008-0.095c0.006-0.042,0.014-0.083,0.021-0.124c0.005-0.03,0.01-0.06,0.016-0.089
	c0.01-0.041,0.021-0.081,0.032-0.122c0.007-0.028,0.013-0.057,0.022-0.084c0.013-0.038,0.026-0.074,0.042-0.111
	c0.011-0.027,0.02-0.057,0.032-0.084c0.014-0.03,0.029-0.059,0.044-0.088c0.018-0.03,0.031-0.063,0.05-0.094
	c0.006-0.009,0.013-0.018,0.019-0.028c0.028-0.046,0.058-0.091,0.09-0.132c0.151-0.194,0.29-0.387,0.421-0.577
	c0.138-0.2,0.263-0.398,0.377-0.598c0.028-0.049,0.061-0.099,0.087-0.149c0.044-0.089,0.087-0.181,0.129-0.274
	c0.085-0.188,0.168-0.384,0.251-0.592c0.131-0.33,0.261-0.687,0.394-1.083c0.063-0.188,0.123-0.38,0.182-0.574
	c0.079-0.262,0.154-0.531,0.225-0.803c0.061-0.231,0.118-0.465,0.171-0.7c0.152-0.76,0.268-1.538,0.346-2.316
	c0.022-0.215,0.04-0.42,0.055-0.618c0.036-0.509,0.051-0.964,0.04-1.396c-0.001-0.045-0.001-0.09-0.003-0.134
	c0-0.003,0-0.006,0-0.008c-0.059-0.682-0.182-1.34-0.366-1.955c-0.001-0.002-0.002-0.004-0.002-0.007
	c-0.028-0.075-0.06-0.151-0.09-0.229c-0.238-0.593-0.547-1.179-0.918-1.747l-0.01-0.016l-0.038-0.059
	c-0.063-0.13-0.111-0.264-0.147-0.4c-0.008-0.035-0.016-0.069-0.023-0.104c-0.002-0.012-0.005-0.022-0.008-0.034
	c-0.004-0.021-0.006-0.041-0.01-0.062c-0.026-0.165-0.035-0.333-0.022-0.505c0-0.006,0.002-0.013,0.002-0.018
	c0.004-0.056,0.012-0.111,0.021-0.167c0.003-0.019,0.006-0.037,0.01-0.055c0.002-0.015,0.004-0.03,0.008-0.045
	c-0.094,0.091-0.179,0.19-0.253,0.298c-0.318,0.462-0.446,1.072-0.325,1.556c0.387,1.534,0.621,2.923,0.72,4.246
	C141.495,131.954,141.419,133.121,141.213,134.203z"/>
<g id="Speech_bubble_copy_2">
	<path d="M136.179,127.568c-0.316,0.029-0.642,0.044-0.965,0.044c-3.024,0-5.484-1.291-5.484-2.879c0-1.587,2.46-2.879,5.484-2.879
		c3.023,0,5.483,1.292,5.483,2.879c0,1.103-1.204,2.111-3.08,2.591l2.03,1.258L136.179,127.568z M129.838,124.733
		c0,1.528,2.41,2.771,5.374,2.771c0.323,0,0.649-0.015,0.965-0.044l0.011-0.001l2.717,0.792l-1.568-0.973l0.128-0.029
		c1.897-0.454,3.123-1.441,3.123-2.516c0-1.526-2.411-2.769-5.374-2.769C132.249,121.964,129.839,123.206,129.838,124.733z"/>
</g>
<path d="M137.682,124.301v-1.129c0.001-0.009,0.017-0.034,0.032-0.052l0.076-0.091h-0.471c-0.507,0-0.774,0.244-0.774,0.706
	c0,0.438,0.261,0.709,0.682,0.709h0.563l-0.076-0.09C137.699,124.337,137.683,124.312,137.682,124.301z M137.262,124.21
	c-0.309,0-0.471-0.164-0.471-0.475c0-0.32,0.166-0.471,0.521-0.471h0.126v0.945H137.262z M135.821,124.475
	c-0.108,0-0.211-0.024-0.309-0.073c-0.021-0.012-0.033-0.016-0.033-0.017c-0.006,0.002-0.014,0.006-0.02,0.01l-0.082,0.045v-0.422
	l0.091,0.081c0.112,0.098,0.217,0.142,0.345,0.142c0.277,0,0.474-0.208,0.478-0.504c-0.004-0.165-0.049-0.281-0.143-0.367
	c-0.096-0.09-0.209-0.135-0.335-0.135c-0.128,0-0.234,0.043-0.345,0.142l-0.091,0.081v-0.422l0.082,0.046
	c0.007,0.004,0.016,0.008,0.014,0.009c0.004,0,0.016-0.004,0.039-0.016c0.098-0.05,0.201-0.073,0.309-0.073
	c0.408,0,0.717,0.318,0.717,0.741C136.537,124.16,136.23,124.475,135.821,124.475z M134.34,124.24c0.068,0,0.12-0.017,0.158-0.05
	c0.115-0.098,0.124-0.284,0.124-0.285l0.006-0.139l0.09,0.104c0.047,0.053,0.071,0.125,0.071,0.209c0,0.259-0.227,0.394-0.449,0.394
	c-0.304,0-0.525-0.217-0.525-0.515c0-0.233,0.146-0.431,0.356-0.5l-0.364-0.427h0.912v0.354l-0.091-0.08
	c-0.018-0.017-0.054-0.039-0.072-0.039h-0.253l0.316,0.376l-0.123-0.003c0,0-0.062-0.002-0.088-0.002
	c-0.174,0-0.351,0.11-0.351,0.32C134.058,124.123,134.173,124.24,134.34,124.24z M133.04,124.177
	c0.035,0.032,0.035,0.032,0.084,0.032h0.28l-0.203-0.272c-0.086-0.117-0.145-0.205-0.182-0.276c-0.04-0.083-0.06-0.161-0.06-0.241
	c0-0.237,0.182-0.416,0.422-0.416c0.117,0,0.216,0.035,0.293,0.104c0.088,0.075,0.132,0.175,0.126,0.286
	c-0.006,0.157-0.146,0.198-0.22,0.198h-0.108l0.064-0.087c0.019-0.026,0.027-0.058,0.027-0.096c0-0.104-0.071-0.172-0.18-0.172
	c-0.107,0-0.182,0.075-0.182,0.183c0,0.128,0.119,0.287,0.201,0.396l0.482,0.631h-0.94v-0.354L133.04,124.177z M136.558,126.445
	h0.28l-0.203-0.271c-0.086-0.117-0.143-0.204-0.18-0.277c-0.04-0.082-0.061-0.16-0.061-0.239c0-0.238,0.182-0.417,0.422-0.417
	c0.116,0,0.216,0.034,0.292,0.104c0.09,0.074,0.133,0.174,0.127,0.286c-0.007,0.156-0.146,0.198-0.22,0.198h-0.107l0.063-0.087
	c0.019-0.026,0.028-0.058,0.028-0.097c0-0.102-0.072-0.17-0.18-0.17c-0.108,0-0.184,0.075-0.184,0.183
	c0,0.128,0.12,0.286,0.201,0.396l0.483,0.631h-0.941v-0.354l0.092,0.085C136.507,126.446,136.507,126.446,136.558,126.445z
	 M135.275,125.975c0,0.202,0.051,0.375,0.152,0.516c0.106,0.147,0.238,0.223,0.392,0.223c0.152,0,0.284-0.076,0.39-0.223
	c0.1-0.141,0.152-0.313,0.152-0.516s-0.052-0.375-0.152-0.515c-0.106-0.148-0.238-0.224-0.39-0.224
	c-0.154,0-0.286,0.076-0.392,0.224C135.326,125.601,135.275,125.773,135.275,125.975z M135.521,125.976
	c0-0.164,0.072-0.502,0.298-0.502c0.222,0,0.296,0.345,0.296,0.502s-0.074,0.502-0.296,0.502
	C135.593,126.478,135.521,126.14,135.521,125.976z M134.575,126.445h0.279l-0.202-0.271c-0.087-0.117-0.145-0.204-0.182-0.277
	c-0.04-0.082-0.06-0.16-0.06-0.239c0-0.238,0.182-0.417,0.422-0.417c0.117,0,0.216,0.034,0.293,0.104
	c0.089,0.074,0.132,0.174,0.126,0.286c-0.006,0.156-0.146,0.198-0.219,0.198h-0.108l0.064-0.087
	c0.018-0.026,0.027-0.058,0.027-0.097c0-0.102-0.072-0.17-0.181-0.17c-0.107,0-0.182,0.075-0.182,0.183
	c0,0.128,0.119,0.286,0.2,0.396l0.483,0.631h-0.941v-0.354l0.093,0.085C134.524,126.446,134.524,126.446,134.575,126.445z
	 M133.385,126.038h0.093l0.017,0.028c0.002,0.004,0.006,0.013,0.035,0.013h0.054v-0.827l0.343,0.068l-0.072,0.072
	c-0.008,0.008-0.024,0.032-0.024,0.045v0.641h0.266v-0.821l0.38,0.075l-0.117,0.074c0,0-0.02,0.013-0.02,0.041v0.863h-0.509v0.23
	c0,0.016,0.005,0.024,0.02,0.034l0.025,0.022v0.085h-0.278l-0.055-0.008v-0.084l0.023-0.016c0.014-0.011,0.02-0.02,0.02-0.035v-0.23
	h-0.176l-0.023-0.213v-0.061V126.038z"/>
<g>
	<g>
		<path d="M137.695,127.436c1.808-0.459,3.053-1.424,3.053-2.54c0-0.345-0.12-0.676-0.338-0.981c0.15,0.259,0.232,0.534,0.232,0.818
			c0,1.141-1.297,2.122-3.165,2.568L137.695,127.436z"/>
		<path d="M130.122,125.716c0.674,1.16,2.745,2.004,5.195,2.004c0.33,0,0.655-0.016,0.971-0.045l3.092,0.902l-0.402-0.249
			l-2.794-0.815c-0.315,0.029-0.64,0.045-0.971,0.045C132.879,127.558,130.889,126.791,130.122,125.716z"/>
	</g>
	<g>
		<path d="M134.887,128.307c0.002-0.007,0.004-0.014,0.006-0.02c0.035-0.009,0.071-0.009,0.107,0
			c-0.004,0.015-0.009,0.029-0.012,0.047C134.973,128.399,134.872,128.372,134.887,128.307z"/>
		<path d="M135.749,128.134c-0.055,0.039-0.108-0.051-0.053-0.09c0.003-0.001,0.004-0.002,0.006-0.003
			c0.033,0.019,0.064,0.04,0.096,0.063C135.783,128.113,135.766,128.123,135.749,128.134z"/>
		<path d="M135.679,129.103c0.03-0.021,0.063-0.035,0.098-0.04c0.001,0.004,0.003,0.006,0.005,0.01
			c0.029,0.059-0.062,0.112-0.091,0.053C135.687,129.118,135.683,129.11,135.679,129.103z"/>
		<path d="M135.777,129.063c0.019-0.003,0.036-0.003,0.058-0.002c0.065,0.005,0.065,0.111,0,0.105
			c-0.056-0.005-0.102,0.013-0.133,0.058c-0.04,0.054-0.131,0.002-0.09-0.052c0.019-0.027,0.042-0.05,0.067-0.069
			c0.004,0.008,0.008,0.016,0.012,0.022c0.029,0.06,0.12,0.006,0.091-0.053C135.78,129.068,135.778,129.066,135.777,129.063z"/>
		<path d="M136.218,129.625c-0.043,0.022-0.085,0.048-0.125,0.075c-0.008-0.034-0.017-0.065-0.026-0.099
			C136.096,129.605,136.152,129.612,136.218,129.625z"/>
		<path d="M134.892,128.288c0.085-0.341,0.405-0.446,0.721-0.295c0.029,0.014,0.062,0.03,0.091,0.05
			c-0.002,0.001-0.003,0.002-0.006,0.003c-0.055,0.039-0.002,0.13,0.053,0.09c0.017-0.012,0.033-0.021,0.049-0.031
			c0.256,0.189,0.478,0.489,0.545,0.781c-0.036-0.003-0.071,0.004-0.103,0.021c-0.064-0.259-0.245-0.475-0.434-0.654
			c-0.241-0.229-0.687-0.363-0.809,0.034C134.963,128.279,134.927,128.279,134.892,128.288z"/>
		<path d="M136.24,128.906c0.032-0.018,0.067-0.024,0.103-0.021c0.002,0.008,0.004,0.014,0.005,0.022
			c0.014,0.065-0.087,0.094-0.101,0.028C136.245,128.926,136.244,128.916,136.24,128.906z"/>
		<path d="M136.24,128.906c0.003,0.01,0.005,0.02,0.007,0.029c0.014,0.065,0.115,0.037,0.101-0.028
			c-0.001-0.009-0.003-0.015-0.005-0.022c0.026,0,0.053,0.008,0.079,0.021c0.06,0.027,0.008,0.117-0.053,0.09
			c-0.049-0.023-0.096,0.003-0.129,0.038c-0.049,0.048-0.121-0.026-0.074-0.074C136.19,128.936,136.213,128.918,136.24,128.906z"/>
		<path d="M136.482,130.72c-0.008,0.013-0.015,0.025-0.021,0.037c-0.032-0.015-0.064-0.031-0.094-0.05
			c0.006-0.015,0.014-0.027,0.022-0.04C136.426,130.61,136.517,130.663,136.482,130.72z"/>
		<path d="M136.658,129.457c-0.154,0.041-0.302,0.093-0.44,0.168c-0.066-0.013-0.122-0.021-0.15-0.023l-0.006-0.007
			c0.176-0.114,0.366-0.186,0.569-0.239C136.698,129.338,136.725,129.439,136.658,129.457z"/>
		<path d="M136.061,129.595l0.005,0.007c0.009,0.033,0.018,0.065,0.026,0.099c0.04-0.028,0.082-0.053,0.125-0.075
			c0.313,0.053,0.91,0.197,0.677,0.463c-0.045,0.051-0.119-0.023-0.074-0.074c0.125-0.141-0.647-0.296-0.754-0.307
			c-0.051-0.007-0.071-0.069-0.025-0.099C136.048,129.605,136.054,129.599,136.061,129.595z"/>
		<path d="M137.246,129.151c0.002-0.002,0.005-0.003,0.008-0.004c-0.023,0.053-0.048,0.102-0.078,0.146
			c-0.474,0.059-0.76-1.536-1.378-1.188c-0.032-0.022-0.063-0.044-0.096-0.063C136.396,127.561,136.931,129.402,137.246,129.151z"/>
		<path d="M137.337,129.2L137.337,129.2c-0.001,0.002-0.001,0.004-0.002,0.005c-0.002,0.004-0.005,0.009-0.006,0.013h-0.001
			c-0.002,0.003-0.004,0.006-0.008,0.008c-0.05,0.039-0.099,0.062-0.145,0.065c0.03-0.044,0.055-0.095,0.078-0.146
			C137.294,129.121,137.345,129.162,137.337,129.2z"/>
		<path d="M137.175,129.29c0.046-0.004,0.095-0.026,0.145-0.065c0.004-0.003,0.006-0.005,0.008-0.008
			c-0.095,0.212-0.212,0.354-0.458,0.349c-0.068-0.001-0.068-0.105,0-0.104C137.02,129.464,137.111,129.393,137.175,129.29z"/>
		<path d="M137.336,129.2c-0.001,0.007-0.003,0.013-0.008,0.018c0.001-0.004,0.004-0.009,0.006-0.013
			C137.335,129.204,137.335,129.201,137.336,129.2z"/>
		<path d="M137.596,130.527c-0.008,0.013-0.017,0.023-0.027,0.034c-0.004-0.018-0.01-0.035-0.015-0.053
			c-0.019-0.057,0.057-0.085,0.088-0.048C137.628,130.482,137.614,130.505,137.596,130.527z"/>
		<path d="M136.461,130.757c-0.132,0.264,0.287,0.359,0.487,0.376c0.353,0.032,0.702-0.209,0.62-0.572
			c0.01-0.011,0.019-0.021,0.027-0.034c0.018-0.021,0.032-0.046,0.046-0.066c0.006,0.006,0.01,0.012,0.014,0.02
			c0.153,0.467-0.266,0.78-0.707,0.76c-0.285-0.015-0.762-0.19-0.581-0.532C136.397,130.726,136.428,130.742,136.461,130.757z"/>
		<path d="M134.718,128.847c-0.096-0.101-0.113-0.265-0.044-0.384c0.063-0.109,0.137-0.163,0.216-0.18
			c-0.002,0.007-0.004,0.014-0.006,0.02c-0.013,0.066,0.087,0.093,0.103,0.028c0.003-0.017,0.008-0.032,0.012-0.047
			c0.315,0.056,0.675,0.58,0.775,0.775c-0.034,0.006-0.067,0.02-0.097,0.04c-0.136-0.267-0.495-0.927-0.878-0.627
			c-0.175,0.138,0.053,0.373,0.18,0.463c0.351,0.249,0.555,0.517,0.75,0.895c0.248,0.475,0.671,0.887,1.228,0.922
			c0.734,0.047,0.688-0.779,0.914-1.208c-0.018,0.05,0.062,0.088,0.098,0.039c-0.163,0.298-0.151,0.596-0.327,0.876
			c-0.032-0.036-0.107-0.009-0.088,0.048c0.005,0.018,0.011,0.035,0.014,0.053c-0.189,0.231-0.471,0.308-0.761,0.289
			c-0.124-0.008-0.24-0.04-0.347-0.092c0.006-0.012,0.013-0.024,0.021-0.037c0.036-0.057-0.055-0.11-0.091-0.053
			c-0.008,0.014-0.016,0.026-0.022,0.04c-0.396-0.238-0.679-0.727-0.866-1.093C135.325,129.266,134.974,129.118,134.718,128.847z"/>
		<path d="M137.879,129.531c0.003-0.005,0.006-0.009,0.009-0.013c0.036-0.039,0.112,0.01,0.081,0.065
			c-0.036,0.049-0.116,0.01-0.098-0.039C137.873,129.541,137.876,129.535,137.879,129.531z"/>
		<path d="M138.253,129.173c0.005,0.013,0.009,0.028,0.013,0.042c0.013,0.053,0.078,0.047,0.098,0.008
			c-0.001,0.021-0.014,0.037-0.038,0.041c-0.172,0.028-0.26,0.192-0.356,0.32c0.031-0.056-0.045-0.104-0.081-0.065
			C137.99,129.382,138.084,129.222,138.253,129.173z"/>
		<path d="M138.299,129.163c0.039-0.005,0.065,0.028,0.065,0.058c0,0.001,0,0.001,0,0.002c-0.02,0.038-0.085,0.045-0.098-0.008
			c-0.004-0.014-0.008-0.029-0.013-0.042C138.269,129.168,138.283,129.165,138.299,129.163z"/>
		<path d="M137.337,129.2c0.009-0.038-0.042-0.078-0.082-0.054c0.098-0.215,0.173-0.464,0.444-0.473
			c0.308-0.01,0.597,0.209,0.669,0.514c0.003,0.013,0.001,0.023-0.004,0.033c0-0.03-0.026-0.063-0.065-0.058
			c-0.016,0.002-0.029,0.006-0.044,0.01c-0.061-0.182-0.214-0.316-0.39-0.383C137.545,128.667,137.428,128.991,137.337,129.2z"/>
	</g>
	<path d="M136.558,131.093c0.004,0.017,0.01,0.035,0.014,0.053c0.12,0.498,0.269,0.986,0.475,1.455
		c0.09,0.207,0.194,0.409,0.318,0.599c0.136,0.206,0.291,0.406,0.472,0.576c0.101,0.095,0.212,0.183,0.325,0.262
		c0.126,0.088,0.259,0.15,0.4,0.21c0.112,0.046,0.229,0.079,0.349,0.096c0.153,0.023,0.307,0.039,0.463,0.029
		c0.285-0.018,0.564-0.079,0.833-0.181c0.28-0.104,0.549-0.234,0.807-0.385c0.063-0.035,0.121-0.074,0.182-0.111
		c0.054-0.356,0.094-0.724,0.119-1.098c-0.396,0.276-0.806,0.543-1.249,0.738c-0.194,0.079-0.397,0.142-0.605,0.176
		c-0.117,0.012-0.236,0.014-0.354,0.003c-0.092-0.016-0.182-0.04-0.27-0.073c-0.096-0.046-0.189-0.103-0.276-0.166
		c-0.13-0.105-0.247-0.226-0.352-0.356c-0.174-0.234-0.313-0.493-0.429-0.76c-0.057-0.139-0.108-0.279-0.155-0.422
		c-0.072-0.221-0.135-0.444-0.192-0.671c-0.087,0.056-0.194,0.096-0.311,0.12C136.996,131.215,136.739,131.185,136.558,131.093z"/>
	<path d="M150.624,133.672c-0.18,0.812-0.767,1.67-0.897,2.521c0.257-0.081,0.638-0.003,0.835,0.19
		c0.029-0.592,0.424-1.23,0.633-1.732c0.271-0.649,0.441-1.363,0.141-2.036c-0.47-1.052-1.728-1.425-2.823-1.269
		c-0.014,0.302-0.03,0.597-0.048,0.887C149.465,132.057,150.903,132.41,150.624,133.672z"/>
	<g id="XMLID_2_">
		<g>
			<path d="M138.802,140.011c0.102,0.519,0.41,0.989,0.848,1.291c0.071,0.049,0.146,0.094,0.224,0.134
				c-0.092-0.565,0.043-1.181,0.354-1.579c0.352-0.449,0.643-0.884,0.886-1.323c0.269-0.563,0.514-1.182,0.771-1.951
				c0.22-0.657,0.414-1.356,0.576-2.077c0.152-0.76,0.268-1.538,0.346-2.316c0.083-0.827,0.113-1.51,0.092-2.147
				c-0.057-0.687-0.182-1.351-0.368-1.971c-0.249-0.67-0.588-1.335-1.008-1.976l-0.048-0.074c-0.168-0.347-0.238-0.719-0.212-1.104
				c0.008-0.096,0.021-0.19,0.04-0.283c-0.093,0.091-0.178,0.192-0.252,0.298c-0.319,0.461-0.446,1.072-0.324,1.556
				c0.386,1.534,0.619,2.923,0.719,4.245c0.051,1.223-0.024,2.391-0.228,3.473c-0.205,0.869-0.503,1.706-0.882,2.488
				c-0.175,0.323-0.33,0.581-0.489,0.813c-0.229,0.334-0.482,0.652-0.718,0.945c-0.209,0.303-0.328,0.643-0.356,1.003
				L138.802,140.011z M139.76,137.448c0.158-0.229,0.311-0.485,0.483-0.803c0.375-0.773,0.669-1.604,0.872-2.464
				c0.201-1.072,0.275-2.23,0.226-3.444c-0.098-1.315-0.333-2.697-0.717-4.227c-0.128-0.513,0.006-1.156,0.342-1.641
				c0.11-0.161,0.244-0.308,0.397-0.434l0.133-0.11l-0.049,0.166c-0.042,0.14-0.069,0.284-0.079,0.43
				c-0.028,0.367,0.04,0.72,0.196,1.046l0.046,0.068c0.423,0.646,0.766,1.318,1.019,2c0.188,0.63,0.314,1.301,0.374,1.996
				c0.02,0.646-0.009,1.333-0.092,2.166c-0.078,0.779-0.196,1.562-0.348,2.326c-0.165,0.726-0.358,1.429-0.579,2.09
				c-0.26,0.773-0.508,1.397-0.779,1.965c-0.248,0.447-0.541,0.886-0.896,1.341c-0.304,0.391-0.43,1.001-0.321,1.556
				c0.002,0.014,0.004,0.024,0.007,0.037l0.021,0.104l-0.094-0.043c-0.117-0.053-0.229-0.117-0.333-0.188
				c-0.459-0.317-0.784-0.812-0.892-1.364l-0.032-0.569c0.03-0.385,0.156-0.742,0.377-1.063
				C139.282,138.095,139.533,137.777,139.76,137.448z"/>
		</g>
	</g>
	<g>
		<path d="M144.357,127.254c-0.232-0.115-0.36-0.33-0.644-0.309c-0.198,0.016-0.34,0.156-0.417,0.327
			c-0.021,0.046,0.047,0.086,0.068,0.04c0.095-0.212,0.356-0.394,0.588-0.247c0.126,0.081,0.229,0.189,0.364,0.256
			C144.364,127.344,144.403,127.276,144.357,127.254z"/>
		<path d="M146.115,127.101c-0.234-0.115-0.362-0.329-0.646-0.308c-0.197,0.015-0.339,0.156-0.416,0.327
			c-0.02,0.046,0.047,0.086,0.068,0.04c0.095-0.212,0.356-0.396,0.588-0.247c0.126,0.08,0.229,0.188,0.365,0.255
			C146.119,127.191,146.16,127.123,146.115,127.101z"/>
		<path d="M144.418,130.493c-0.033,0.038,0.022,0.094,0.056,0.055c0.061-0.068,0.108-0.14,0.149-0.216
			c0.037,0.035,0.1,0.064,0.121,0.09c0.092,0.11,0.121,0.224,0.165,0.354c0.029,0.088,0.118,0.18,0.214,0.19
			c0.15,0.017,0.279-0.09,0.375-0.197c0.087-0.099,0.202-0.216,0.263-0.341c0.031,0.02,0.063,0.037,0.096,0.051
			c0.047,0.021,0.067-0.056,0.021-0.076c-0.193-0.08-0.334-0.277-0.403-0.469c-0.017-0.047-0.094-0.026-0.076,0.021
			c0.02,0.053,0.044,0.104,0.07,0.154c-0.065,0.02-0.189,0.11-0.204,0.116c-0.161,0.078-0.421,0.087-0.568-0.046
			c0.026-0.064,0.052-0.132,0.074-0.202c0.017-0.048-0.06-0.067-0.075-0.021C144.629,130.155,144.558,130.334,144.418,130.493z
			 M145.322,130.773c-0.056,0.028-0.246,0.096-0.25-0.037c-0.002-0.044-0.007-0.087,0.008-0.129c0.043-0.126,0.169-0.028,0.25-0.082
			c0.022-0.015,0.05-0.029,0.064-0.054c0.034-0.054,0.101-0.112,0.146-0.033C145.564,130.581,145.436,130.714,145.322,130.773z
			 M145.081,130.94c-0.021-0.007-0.037-0.016-0.053-0.028C145.046,130.923,145.064,130.932,145.081,130.94z"/>
		<path d="M144.269,129.445c0.045,0.149,0.139,0.199,0.258,0.286c0.041,0.03,0.08-0.039,0.039-0.067
			c-0.104-0.076-0.201-0.123-0.228-0.265c-0.014-0.079-0.004-0.174,0.09-0.194c0.043-0.01,0.078,0.004,0.109,0.036
			c0.088,0.089,0.146,0.238,0.285,0.258c0.05,0.007,0.07-0.069,0.021-0.076c-0.186-0.026-0.229-0.391-0.464-0.283
			C144.255,129.196,144.231,129.323,144.269,129.445z"/>
		<path d="M143.218,128.335c0,0.279,0.059,0.531,0.152,0.716c0.109-0.035,0.235-0.055,0.369-0.055c0.141,0,0.271,0.021,0.386,0.06
			c0.062-0.12,0.109-0.27,0.134-0.437l-0.559-0.325l0.547-0.313c-0.075-0.39-0.27-0.668-0.498-0.668
			C143.456,127.313,143.218,127.771,143.218,128.335z"/>
		<path d="M145.531,128.996c0.136,0,0.264,0.021,0.375,0.057c0.058-0.116,0.101-0.259,0.125-0.418l-0.56-0.325l0.547-0.313
			c-0.074-0.391-0.269-0.668-0.498-0.668c-0.293,0-0.53,0.457-0.53,1.021c0,0.275,0.057,0.525,0.148,0.709
			C145.254,129.019,145.388,128.996,145.531,128.996z"/>
		<path d="M144.614,131.02c-0.011,0.018-0.007,0.045,0.014,0.055c0.188,0.085,0.386,0.16,0.595,0.167
			c0.209,0.006,0.412-0.055,0.608-0.122c0.047-0.018,0.026-0.094-0.021-0.076c-0.186,0.063-0.382,0.125-0.581,0.119
			c-0.196-0.006-0.384-0.076-0.562-0.157C144.647,130.996,144.624,130.999,144.614,131.02z"/>
		<path d="M145.975,129.507c0.122,0.026,0.252,0.063,0.348,0.149c0.097,0.087,0.139,0.208,0.147,0.336
			c0.004,0.05,0.082,0.051,0.079,0c-0.009-0.147-0.057-0.292-0.171-0.393c-0.107-0.093-0.244-0.14-0.381-0.169
			C145.948,129.42,145.927,129.496,145.975,129.507z"/>
		<path d="M143.578,130.201c-0.004,0.05,0.074,0.05,0.079,0c0.021-0.223,0.152-0.404,0.323-0.538c0.018-0.014,0.015-0.041,0-0.056
			c-0.017-0.017-0.039-0.014-0.056,0C143.737,129.755,143.602,129.958,143.578,130.201z"/>
	</g>
	<path d="M142.474,124.76c0.001,0.051,0.08,0.051,0.078,0c-0.011-0.432,0.437-0.458,0.768-0.411
		c-0.131,0.12-0.261,0.257-0.297,0.434c-0.035,0.178,0.108,0.314,0.236,0.409c0.041,0.03,0.08-0.038,0.04-0.067
		c-0.153-0.114-0.266-0.271-0.15-0.457c0.063-0.099,0.142-0.182,0.225-0.26c0.078,0.347,0.422,0.563,0.774,0.522
		c0.051-0.006,0.051-0.085,0-0.079c-0.326,0.038-0.637-0.157-0.702-0.481c0.291-0.03,0.752-0.118,0.682-0.505
		c-0.01-0.051-0.085-0.028-0.076,0.021c0.055,0.301-0.325,0.374-0.563,0.401c0.184-0.306,0.41-0.678-0.044-0.862
		c-0.048-0.02-0.067,0.057-0.021,0.076c0.399,0.162,0.146,0.51-0.012,0.763c-0.082-0.425-0.488-0.593-0.901-0.571
		c-0.051,0.003-0.051,0.081,0,0.079c0.366-0.02,0.75,0.114,0.824,0.501C142.953,124.22,142.462,124.272,142.474,124.76z"/>
	<g>
		<g id="XMLID_1_">
			<g>
				<path d="M135.797,144.024c-0.057,0.02-0.113,0.043-0.165,0.07c0,0,0-0.001-0.002-0.001
					C135.682,144.064,135.74,144.042,135.797,144.024z"/>
				<path d="M135.953,143.978c-0.033,0.008-0.065,0.018-0.098,0.027c-0.021,0.007-0.039,0.012-0.059,0.019
					c-0.059,0.019-0.115,0.041-0.167,0.069c-0.149-0.277-0.342-0.542-0.483-0.791c-0.313-0.56-0.472-1.196-0.548-1.828
					c-0.127-1.056,0.35-2.289,1.329-2.792c0.984-0.506,1.869,0.048,2.757,0.616c-0.008,0.051-0.015,0.103-0.019,0.154l0.032,0.569
					c0.023,0.116,0.059,0.231,0.1,0.343c-0.044-0.025-0.089-0.053-0.135-0.078c-0.589-0.351-1.389-1.027-2.125-0.916
					c-0.435,0.065-0.71,0.475-0.904,0.829c-0.33,0.603-0.204,1.38-0.022,2.003c0.185,0.637,0.599,1.17,0.863,1.746
					c-0.028-0.006-0.062-0.009-0.092-0.01c-0.108-0.006-0.217-0.001-0.318,0.017C136.028,143.96,135.99,143.968,135.953,143.978z"/>
				<path d="M136.383,143.939c0.03,0.001,0.063,0.004,0.092,0.01C136.446,143.944,136.413,143.941,136.383,143.939z"/>
				<path d="M135.661,145.721c-0.714,0.155-1.427,0.261-2.115,0.507c0.513,0.249,1.484-0.11,1.962-0.214
					c0.093-0.02,0.218-0.042,0.361-0.069c0.001-0.002,0.002-0.004,0.004-0.005c0.076-0.071,0.15-0.167,0.253-0.204
					c0.117-0.043,0.229,0.002,0.333,0.061c0.006,0.003,0.008,0.007,0.013,0.01c0.385-0.112,0.749-0.278,0.862-0.547
					C136.837,145.502,136.189,145.607,135.661,145.721z M135.621,144.928c0.006,0.005,0.013,0.011,0.018,0.018
					c0.051,0.057,0.002,0.133-0.057,0.136c-0.029,0.006-0.061-0.003-0.078-0.038c-0.004-0.006-0.008-0.014-0.012-0.021
					c-0.329-0.323-0.969-0.518-1.405-0.429c-0.661,0.133-0.933,0.965-0.689,1.522c0.597-0.229,1.215-0.352,1.84-0.47
					c0.654-0.125,1.507-0.242,2.104-0.563c-0.054-0.241-0.421-0.431-0.631-0.472c-0.371-0.071-0.786,0.105-1.117,0.257
					C135.604,144.889,135.615,144.909,135.621,144.928z M135.505,144.472c-0.025,0.065-0.005,0.158,0.027,0.252
					c0.384-0.175,0.793-0.326,1.22-0.264c0.026,0.003,0.054,0.01,0.082,0.018c0.101-0.419-0.59-0.396-0.84-0.349
					C135.78,144.171,135.59,144.253,135.505,144.472z M134.205,146.427c-0.312,0.03-0.627,0.047-0.874-0.152
					c-0.021-0.004-0.037-0.015-0.049-0.039c-0.265-0.525-0.143-1.216,0.354-1.581c0.484-0.355,1.214-0.281,1.724,0.055
					c-0.024-0.087-0.031-0.176-0.007-0.279c0.041-0.167,0.146-0.269,0.276-0.338c0.002,0,0.002,0.001,0.002,0.001
					c0.052-0.027,0.108-0.05,0.165-0.07c0.021-0.007,0.038-0.012,0.059-0.019c0.033-0.009,0.065-0.019,0.098-0.027
					c0.037-0.009,0.074-0.017,0.111-0.021c0.101-0.018,0.21-0.023,0.318-0.017c0.03,0.002,0.063,0.005,0.092,0.01
					c0.136,0.014,0.268,0.051,0.376,0.109c0.248,0.132,0.22,0.27,0.137,0.476c0.231,0.105,0.47,0.303,0.508,0.516
					c0.021,0.01,0.036,0.032,0.034,0.063c-0.063,0.791-1.204,0.86-1.791,1.009C135.244,146.247,134.712,146.38,134.205,146.427z"/>
				<path d="M141.222,142.506c0.033,0.037-0.022,0.094-0.056,0.055c-0.155-0.177,0.101-0.379,0.255-0.482
					c0.004,0.005,0.009,0.008,0.013,0.012s0.009,0.007,0.015,0.009c-0.001,0.002-0.003,0.004-0.003,0.006
					c-0.005,0.021-0.011,0.041-0.014,0.063C141.313,142.25,141.128,142.4,141.222,142.506z"/>
				<path d="M141.462,142.052L141.462,142.052c-0.012,0.009-0.027,0.017-0.041,0.027c-0.154-0.141-0.366-0.181-0.532-0.03
					c-0.037,0.033-0.093-0.023-0.056-0.057c0.186-0.167,0.427-0.144,0.608,0.003C141.449,142.014,141.454,142.033,141.462,142.052
					L141.462,142.052z"/>
				<path d="M141.431,142.167c0.003-0.022,0.009-0.042,0.014-0.063c0-0.002,0.002-0.004,0.003-0.006
					c0.003,0.002,0.007,0.003,0.012,0.003c-0.012,0.013-0.016,0.031-0.001,0.047C141.45,142.155,141.441,142.16,141.431,142.167z"/>
				<path d="M141.434,142.092c-0.004-0.004-0.009-0.007-0.013-0.012c0.014-0.01,0.028-0.019,0.04-0.026h0.001
					c0.005,0.008,0.008,0.016,0.012,0.025c-0.011,0.001-0.021,0.008-0.025,0.021C141.442,142.098,141.438,142.096,141.434,142.092z"
					/>
				<path d="M141.461,142.102L141.461,142.102c-0.006,0-0.01-0.001-0.013-0.003c0.004-0.012,0.014-0.019,0.025-0.021
					c0.002,0.004,0.004,0.008,0.006,0.012C141.472,142.091,141.465,142.096,141.461,142.102z"/>
				<path d="M141.482,142.095c-0.006,0.005-0.014,0.008-0.021,0.008c0.005-0.007,0.012-0.012,0.02-0.013
					C141.48,142.091,141.481,142.094,141.482,142.095z"/>
				<polygon points="141.483,142.095 141.48,142.09 141.49,142.089 				"/>
				<path d="M141.49,142.089c0.001-0.001,0.001-0.001,0.003-0.001C141.49,142.089,141.49,142.089,141.49,142.089z"/>
				<path d="M141.462,142.053C141.462,142.052,141.462,142.052,141.462,142.053c0.015-0.009,0.027-0.008,0.038-0.001
					c0.003,0.009,0.001,0.019-0.004,0.028c-0.007-0.003-0.016-0.003-0.022-0.002C141.47,142.069,141.467,142.062,141.462,142.053z"
					/>
				<path d="M141.475,142.078c0.006-0.001,0.015-0.001,0.022,0.002c-0.002,0.004-0.003,0.006-0.005,0.008
					c-0.002,0-0.002,0-0.003,0.001c-0.003-0.001-0.007-0.001-0.01,0.001C141.478,142.086,141.476,142.082,141.475,142.078z"/>
				<path d="M141.505,142.118c-0.001,0.001-0.002,0.003-0.003,0.004c-0.012,0.007-0.026,0.016-0.043,0.027
					c-0.015-0.016-0.011-0.034,0.001-0.047h0.001c0.007,0,0.015-0.003,0.021-0.008c0,0.002,0.001,0.003,0.003,0.005
					C141.49,142.109,141.496,142.115,141.505,142.118z"/>
				<path d="M141.442,141.995c0.018,0.012,0.032,0.025,0.048,0.04c0.006,0.006,0.009,0.011,0.011,0.017
					c-0.011-0.007-0.023-0.008-0.038,0C141.454,142.033,141.45,142.014,141.442,141.995z"/>
				<rect x="141.494" y="142.08" width="0.007" height="0.009"/>
				<path d="M141.492,142.089c0.002,0,0.005,0,0.007,0.001c-0.001,0.008,0.003,0.017,0.011,0.025v0.001
					c-0.002,0-0.003,0.002-0.005,0.002c-0.008-0.002-0.016-0.009-0.02-0.019c-0.001-0.002-0.003-0.003-0.003-0.005
					c0.003-0.001,0.006-0.002,0.007-0.006C141.49,142.089,141.49,142.089,141.492,142.089z"/>
				<path d="M141.498,142.089c0-0.002,0-0.004,0.002-0.007c0.005,0.004,0.011,0.007,0.014,0.013
					C141.51,142.093,141.504,142.09,141.498,142.089z"/>
				<path d="M141.512,142.063L141.512,142.063L141.512,142.063c-0.007,0.007-0.011,0.014-0.012,0.02
					c-0.002-0.001-0.003-0.002-0.004-0.002c0.005-0.008,0.007-0.019,0.004-0.028C141.504,142.055,141.509,142.06,141.512,142.063z"
					/>
				<path d="M141.504,142.116c0.002,0.001,0.006,0.003,0.009,0.003c0.002,0.002,0.005,0.004,0.008,0.004c0,0.001,0,0.001,0,0.002
					c-0.005,0.02-0.01,0.041-0.014,0.062c-0.016-0.01-0.031-0.02-0.046-0.034c-0.001-0.001-0.003-0.002-0.003-0.004
					c0.017-0.011,0.031-0.02,0.043-0.027C141.502,142.12,141.503,142.118,141.504,142.116z"/>
				<path d="M141.518,142.097L141.518,142.097c-0.002,0.008-0.005,0.012-0.009,0.018c-0.008-0.008-0.012-0.017-0.011-0.025
					c0.006,0.001,0.012,0.004,0.016,0.006c0.001,0.001,0.002,0.001,0.002,0.002H141.518z"/>
				<polygon points="141.513,142.12 141.504,142.117 141.509,142.115 				"/>
				<path d="M141.402,141.83c-0.037-0.129-0.104-0.195-0.244-0.153c-0.048,0.016-0.07-0.06-0.021-0.076
					c0.12-0.036,0.229-0.015,0.296,0.096c0.063,0.104,0.063,0.232,0.11,0.342c-0.01,0.01-0.021,0.018-0.029,0.025
					c-0.003-0.004-0.008-0.009-0.012-0.012c-0.002-0.006-0.005-0.011-0.011-0.017c-0.016-0.015-0.03-0.028-0.047-0.04
					C141.427,141.939,141.415,141.884,141.402,141.83z"/>
				<path d="M141.519,142.098h-0.003c0-0.001-0.001-0.001-0.002-0.002c-0.003-0.006-0.009-0.009-0.014-0.013
					c0.001-0.006,0.005-0.013,0.011-0.019h0.001C141.519,142.076,141.521,142.087,141.519,142.098L141.519,142.098z"/>
				<path d="M141.509,142.115L141.509,142.115c0.004-0.007,0.007-0.011,0.009-0.018c0.003,0.006,0.004,0.013,0.004,0.021
					c-0.003,0.002-0.007,0.002-0.009,0.002C141.511,142.118,141.51,142.117,141.509,142.115z"/>
				<polygon points="141.513,142.12 141.522,142.118 141.521,142.124 				"/>
				<path d="M141.521,142.118c0-0.008-0.001-0.015-0.004-0.021v-0.001h0.001c0.005,0.006,0.012,0.01,0.019,0.015
					C141.532,142.116,141.527,142.118,141.521,142.118z"/>
				<path d="M141.52,142.124c0.001-0.002,0.001-0.004,0.001-0.006c0.004,0,0.011-0.002,0.016-0.007
					c0.006,0.006,0.013,0.011,0.021,0.015C141.545,142.133,141.532,142.132,141.52,142.124z"/>
				<path d="M141.519,142.097c0.002-0.011,0-0.021-0.007-0.033v-0.001c0.008-0.007,0.019-0.015,0.029-0.025
					c0.004,0.007,0.007,0.015,0.011,0.022c0.011,0.022,0,0.043-0.016,0.052C141.531,142.107,141.524,142.104,141.519,142.097z"/>
				<path d="M141.557,142.126c-0.008-0.004-0.015-0.009-0.021-0.015c0.016-0.009,0.027-0.03,0.016-0.052
					c-0.004-0.007-0.007-0.015-0.011-0.022c0.104-0.099,0.251-0.269,0.103-0.375c-0.041-0.029-0.001-0.098,0.039-0.067
					c0.22,0.156,0.031,0.395-0.116,0.526C141.564,142.123,141.56,142.125,141.557,142.126z"/>
				<path d="M141.517,142.387c0.042,0.096,0.164,0.091,0.251,0.074c0.049-0.009,0.071,0.065,0.021,0.075
					c-0.109,0.02-0.247,0.025-0.319-0.076c-0.059-0.085-0.057-0.193-0.038-0.292c0.008-0.007,0.018-0.012,0.026-0.019
					c0,0.002,0.002,0.003,0.003,0.004c0.015,0.014,0.03,0.024,0.046,0.034C141.495,142.254,141.492,142.325,141.517,142.387z"/>
				<path d="M142.073,142.103c-0.148,0.155-0.385,0.2-0.565,0.085c0.004-0.021,0.009-0.042,0.014-0.062c0-0.001,0-0.001,0-0.002
					c0.012,0.008,0.024,0.009,0.036,0.002c0.147,0.094,0.341,0.045,0.461-0.08C142.053,142.01,142.108,142.066,142.073,142.103z"/>
				<path d="M143.059,142.953c-0.009,0.007-0.019,0.012-0.028,0.016C143.039,142.964,143.049,142.959,143.059,142.953z"/>
				<path d="M143.09,142.935c0.029-0.017,0.058-0.035,0.087-0.054C143.148,142.9,143.119,142.918,143.09,142.935z"/>
				<path d="M144.729,149.409c-0.003-0.008-0.004-0.017-0.004-0.026c0-0.005,0-0.01,0.001-0.016
					c0.028-0.028,0.076-0.032,0.104-0.011C144.785,149.347,144.746,149.374,144.729,149.409z"/>
				<path d="M144.73,149.41c0.017-0.036,0.056-0.063,0.101-0.054c0.011,0.011,0.021,0.023,0.023,0.043
					c0.003,0.012,0.006,0.022,0.009,0.032C144.825,149.473,144.746,149.466,144.73,149.41L144.73,149.41z"/>
				<path d="M144.731,149.411c0.017,0.055,0.096,0.063,0.133,0.021c0.011,0.044,0.027,0.084,0.049,0.121
					c-0.05-0.018-0.101-0.036-0.147-0.056C144.723,149.479,144.717,149.442,144.731,149.411z"/>
				<path d="M143.411,122.922c0.053,0,0.106,0.002,0.167,0.007l0.558,0.119c0.337,0.121,0.628,0.316,0.87,0.585
					c-0.009,0.003-0.019,0.006-0.029,0.008l-0.083,0.022l0.057,0.063c-0.232-0.265-0.518-0.46-0.843-0.579l-0.545-0.114
					c-0.05-0.005-0.101-0.006-0.15-0.006c-0.491,0-0.966,0.177-1.338,0.495c-0.409,0.353-0.667,0.861-0.706,1.399
					c-0.028,0.367,0.04,0.72,0.197,1.046l0.045,0.068c0.423,0.646,0.766,1.318,1.019,2c0.188,0.63,0.314,1.301,0.374,1.996
					c0.02,0.646-0.009,1.333-0.092,2.166c-0.078,0.78-0.196,1.562-0.348,2.326c-0.164,0.726-0.358,1.429-0.579,2.09
					c-0.26,0.773-0.508,1.397-0.779,1.965c-0.248,0.447-0.541,0.886-0.896,1.341c-0.304,0.391-0.43,1.001-0.321,1.556
					c0.101,0.519,0.408,0.989,0.846,1.291c0.445,0.308,1.028,0.429,1.559,0.325c0.163-0.033,0.32-0.085,0.468-0.153l-0.079,0.038
					l0.068,0.053c0.007,0.006,0.016,0.013,0.024,0.018c-0.147,0.066-0.3,0.115-0.461,0.147c-0.135,0.026-0.273,0.039-0.41,0.039
					c-0.438,0-0.874-0.136-1.229-0.38c-0.457-0.317-0.783-0.812-0.89-1.356c-0.113-0.583,0.022-1.229,0.343-1.642
					c0.352-0.45,0.643-0.884,0.886-1.323c0.269-0.563,0.514-1.182,0.771-1.951c0.22-0.657,0.414-1.356,0.576-2.077
					c0.152-0.76,0.268-1.538,0.346-2.316c0.083-0.827,0.113-1.51,0.092-2.147c-0.057-0.687-0.182-1.351-0.368-1.971
					c-0.249-0.67-0.589-1.335-1.008-1.976l-0.048-0.074c-0.168-0.347-0.238-0.719-0.212-1.104c0.043-0.566,0.313-1.102,0.743-1.472
					C142.396,123.108,142.895,122.923,143.411,122.922z"/>
				<path d="M144.843,149.361c0.014,0.006,0.027,0.012,0.04,0.017c-0.001,0.002-0.001,0.003-0.001,0.005
					c-0.001,0.021-0.009,0.037-0.02,0.05c-0.005-0.01-0.007-0.021-0.009-0.032c-0.003-0.02-0.013-0.032-0.023-0.043
					C144.835,149.357,144.839,149.36,144.843,149.361z"/>
				<polygon points="144.994,123.709 144.994,123.711 144.958,123.735 144.95,123.728 				"/>
				<path d="M145.047,123.868c0.027,0.042,0.056,0.085,0.083,0.127C145.101,123.953,145.073,123.911,145.047,123.868z"/>
				<path d="M145.174,148.795c0.011,0.02,0.022,0.042,0.034,0.063c0.022,0.047,0.072,0.048,0.105,0.026l0.004,0.008
					c-0.203,0.102-0.424,0.295-0.435,0.486c-0.014-0.005-0.027-0.011-0.04-0.017c-0.004-0.002-0.009-0.005-0.013-0.005
					c-0.028-0.021-0.076-0.017-0.104,0.011C144.744,149.145,144.967,148.925,145.174,148.795z"/>
				<path d="M145.173,148.794c0.05-0.03,0.098-0.057,0.143-0.075c0.007,0.019,0.016,0.038,0.026,0.059
					c0.023,0.042,0.004,0.084-0.028,0.105c-0.033,0.021-0.082,0.02-0.105-0.026C145.197,148.836,145.185,148.814,145.173,148.794z"
					/>
				<path d="M145.521,142.988c-0.057,0.047-0.116,0.09-0.181,0.131C145.405,143.076,145.464,143.033,145.521,142.988z"/>
				<path d="M145.671,142.849c0.007-0.006,0.015-0.014,0.023-0.022C145.686,142.835,145.678,142.844,145.671,142.849z"/>
				<path d="M145.735,148.13c-0.033,0.004-0.067,0.011-0.101,0.017l0,0C145.667,148.14,145.7,148.134,145.735,148.13z"/>
				<path d="M146.42,148.177c-0.013-0.005-0.026-0.009-0.039-0.014c-0.073-0.024-0.151-0.038-0.231-0.045
					c-0.021-0.002-0.044-0.005-0.065-0.005c-0.012-0.001-0.023-0.001-0.035-0.001c-0.011-0.002-0.021-0.002-0.032-0.002
					c-0.026,0-0.057,0.002-0.088,0.003c-0.015,0-0.031,0.002-0.046,0.003c-0.026,0.002-0.052,0.004-0.078,0.007
					c-0.008,0-0.016,0.001-0.024,0.003c-0.012,0.001-0.021,0.002-0.032,0.003c-0.004,0-0.009,0.002-0.013,0.003
					c-0.034,0.003-0.067,0.009-0.101,0.017c0.502-1.384,0.841-2.896,0.212-4.298c-0.114-0.255-0.293-0.507-0.512-0.728
					c0.002,0,0.004-0.002,0.006-0.004c0.064-0.041,0.124-0.084,0.181-0.13c0.004-0.003,0.006-0.004,0.008-0.007
					c0.001-0.001,0.002-0.002,0.003-0.003c0.04-0.034,0.08-0.068,0.115-0.105c0.009-0.007,0.017-0.016,0.023-0.023
					c0.007-0.005,0.015-0.014,0.023-0.022c0.007-0.008,0.014-0.015,0.019-0.021c0.013-0.015,0.025-0.029,0.037-0.043
					c0.016-0.021,0.031-0.04,0.047-0.061c0.046-0.063,0.091-0.125,0.134-0.188c0.142,0.139,0.27,0.288,0.379,0.443
					c1.1,1.552,0.791,3.569,0.202,5.258C146.482,148.202,146.452,148.188,146.42,148.177z"/>
				<path d="M146.27,150.049v0.002c-0.061,0-0.12,0.041-0.173,0.079c-0.072,0.051-0.14-0.046-0.101-0.109
					C146.091,150.033,146.182,150.042,146.27,150.049z"/>
				<path d="M145.996,150.02c-0.038,0.063,0.03,0.16,0.101,0.109c0.052-0.038,0.111-0.079,0.173-0.079
					c0.023,0,0.047,0.006,0.071,0.02c0.065,0.039,0.121,0.088,0.182,0.133c0.016,0.01,0.029,0.015,0.041,0.015v0.003
					c-0.605-0.062-1.716-0.033-1.86-0.778c-0.007-0.031,0.004-0.058,0.022-0.074c-0.001,0.006-0.001,0.011-0.001,0.016
					c0,0.009,0.001,0.018,0.004,0.026c0,0.001,0,0.001,0,0.001c-0.013,0.031-0.007,0.068,0.035,0.088
					c0.047,0.02,0.098,0.038,0.147,0.056C145.083,149.852,145.549,149.967,145.996,150.02z"/>
				<path d="M146.623,148.837c-0.019,0.038-0.029,0.081-0.038,0.122c-0.351-0.112-0.724-0.208-1.091-0.131
					c-0.054,0.01-0.114,0.031-0.177,0.063l-0.004-0.008c0.031-0.02,0.052-0.062,0.028-0.105c-0.011-0.021-0.02-0.039-0.026-0.059
					c0.005-0.003,0.007-0.004,0.01-0.005c0.409-0.17,0.909-0.035,1.31,0.096C146.631,148.818,146.628,148.827,146.623,148.837z"/>
				<path d="M146.55,149.053c0.006-0.007,0.012-0.014,0.017-0.021c-0.003,0.014-0.008,0.027-0.012,0.043
					c-0.015,0.042,0.007,0.073,0.04,0.088C146.549,149.15,146.515,149.104,146.55,149.053z"/>
				<path d="M146.585,148.957c0.011,0.004,0.021,0.008,0.033,0.012c-0.018,0.021-0.034,0.041-0.05,0.063
					C146.574,149.008,146.579,148.983,146.585,148.957z"/>
				<path d="M146.27,150.049c-0.088-0.007-0.18-0.016-0.273-0.028c0.005-0.009,0.013-0.017,0.022-0.024
					c0.087-0.063,0.194-0.122,0.306-0.097c0.107,0.025,0.19,0.105,0.276,0.168c0.003,0.002,0.005,0.003,0.007,0.008
					C146.508,150.067,146.393,150.06,146.27,150.049z"/>
				<path d="M146.523,150.204c-0.06-0.045-0.116-0.094-0.182-0.132c-0.023-0.015-0.048-0.021-0.071-0.021v-0.002
					c0.123,0.009,0.238,0.017,0.338,0.025c0.058,0.049,0.017,0.143-0.044,0.143C146.552,150.218,146.538,150.213,146.523,150.204z"
					/>
				<path d="M146.586,148.958c0.009-0.041,0.019-0.084,0.038-0.122c0.004-0.008,0.008-0.018,0.011-0.025
					c0.014,0.004,0.028,0.009,0.042,0.014c0.022,0.008,0.038,0.021,0.045,0.037c-0.037,0.032-0.07,0.069-0.104,0.108
					C146.607,148.966,146.596,148.962,146.586,148.958z"/>
				<path d="M146.636,148.974c-0.006-0.002-0.013-0.003-0.018-0.005c0.033-0.039,0.066-0.076,0.104-0.108
					C146.751,148.915,146.71,148.999,146.636,148.974z"/>
				<path d="M146.713,149.098c-0.002,0.006-0.004,0.013-0.006,0.019c-0.02,0.052-0.072,0.063-0.112,0.047
					c0.031,0.01,0.068,0.003,0.091-0.03C146.696,149.122,146.703,149.109,146.713,149.098z"/>
				<path d="M146.678,148.823c-0.014-0.005-0.028-0.01-0.042-0.014c0.131-0.306-0.176-0.47-0.427-0.521
					c-0.3-0.062-1.053,0.002-0.893,0.432c-0.045,0.018-0.094,0.045-0.143,0.075c-0.093-0.16-0.16-0.271,0.005-0.439
					c0.107-0.11,0.28-0.175,0.455-0.208l-0.001,0.001c0.034-0.007,0.068-0.014,0.101-0.018c0.005-0.001,0.01-0.003,0.014-0.003
					c0.011-0.001,0.021-0.002,0.032-0.003c0.008-0.002,0.016-0.003,0.024-0.003c0.026-0.003,0.053-0.005,0.078-0.007
					c0.015-0.001,0.031-0.003,0.046-0.003c0.031-0.001,0.062-0.003,0.088-0.003c0.012,0,0.021,0,0.032,0.002
					c0.012,0,0.023,0,0.035,0.001c0.021,0,0.044,0.003,0.065,0.005c0.08,0.007,0.157,0.021,0.231,0.045
					c0.013,0.005,0.026,0.009,0.039,0.014c0.032,0.012,0.063,0.026,0.092,0.041c0.087,0.048,0.164,0.112,0.228,0.201
					c0.086,0.118,0.096,0.24,0.073,0.36c-0.029,0.025-0.061,0.053-0.09,0.082C146.715,148.845,146.699,148.831,146.678,148.823z"/>
				<path d="M146.714,149.099c-0.009,0.011-0.018,0.023-0.027,0.034c-0.022,0.033-0.06,0.04-0.091,0.03
					c-0.033-0.015-0.055-0.046-0.04-0.088c0.004-0.016,0.009-0.029,0.013-0.043c0.016-0.023,0.031-0.043,0.05-0.063
					c0.006,0.002,0.013,0.003,0.018,0.005c0.074,0.025,0.115-0.059,0.086-0.113c0.028-0.029,0.06-0.057,0.09-0.082
					C146.793,148.886,146.751,148.993,146.714,149.099z"/>
				<path d="M146.738,127.559c-0.192-0.721-0.427-1.381-0.692-1.964c-0.231-0.501-0.512-0.973-0.8-1.421
					c-0.038-0.061-0.076-0.121-0.116-0.18c-0.027-0.043-0.056-0.085-0.083-0.127c-0.028-0.043-0.056-0.085-0.084-0.127
					c-0.002-0.003-0.003-0.004-0.004-0.006l0.036-0.023v-0.002l-0.044,0.019l-0.057-0.063l0.083-0.022
					c0.01-0.003,0.02-0.006,0.029-0.008c0.015,0.014,0.028,0.029,0.04,0.043c0.011,0.016,0.021,0.031,0.032,0.048
					c0.037,0.058,0.074,0.113,0.112,0.171c0.009,0.015,0.019,0.028,0.027,0.043c0.135,0.207,0.272,0.42,0.402,0.64
					c0.034,0.055,0.065,0.109,0.098,0.166c0.151,0.261,0.295,0.529,0.422,0.808c0.271,0.588,0.506,1.254,0.7,1.981
					c0.129,0.486,0.222,1.014,0.276,1.563c0.073,0.767,0.098,1.504,0.071,2.191c-0.044,1.154-0.196,2.385-0.456,3.656
					c-0.334,1.637-0.703,2.939-1.162,4.102c-0.514,1.296-1.103,2.364-1.805,3.264l-0.364,0.403
					c-0.004,0.002-0.007,0.005-0.009,0.007c-0.033,0.028-0.067,0.055-0.103,0.081c-0.037,0.028-0.074,0.055-0.113,0.08
					c-0.029,0.019-0.058,0.037-0.087,0.054c-0.01,0.008-0.019,0.013-0.031,0.02c-0.009,0.006-0.019,0.011-0.028,0.016
					c-0.052,0.029-0.103,0.055-0.156,0.077c-0.008-0.005-0.017-0.012-0.024-0.018l-0.068-0.053l0.078-0.038
					c0.021-0.009,0.043-0.019,0.063-0.029c0.028-0.016,0.057-0.029,0.085-0.046c0.033-0.019,0.066-0.038,0.097-0.06
					c0.011-0.006,0.021-0.013,0.03-0.02c0.029-0.02,0.059-0.039,0.085-0.061c0.003-0.001,0.004-0.003,0.006-0.004
					c0.036-0.026,0.071-0.054,0.104-0.082l0.356-0.396c0.694-0.89,1.278-1.948,1.787-3.234c0.457-1.156,0.824-2.453,1.157-4.083
					c0.259-1.267,0.411-2.492,0.455-3.641c0.025-0.682,0.001-1.414-0.073-2.178C146.959,128.563,146.867,128.043,146.738,127.559z"
					/>
				<path d="M147.45,125.008c-0.125-0.334-0.327-0.62-0.591-0.847l-0.452-0.292c-0.271-0.128-0.574-0.196-0.878-0.196
					c-0.153,0-0.305,0.017-0.451,0.051c-0.011-0.016-0.021-0.032-0.032-0.048c-0.012-0.014-0.025-0.029-0.04-0.043
					c0.478-0.118,1-0.069,1.451,0.146l0.464,0.3c0.284,0.241,0.495,0.543,0.624,0.887c0.262,0.506,0.467,1.056,0.612,1.639
					c0.208,0.836,0.325,1.535,0.372,2.197c0.036,0.512,0.042,1.063,0.018,1.735c-0.031,0.846-0.072,1.627-0.128,2.39
					c-0.106,1.443-0.261,2.719-0.475,3.903c-0.118,0.654-0.26,1.3-0.424,1.915c-0.08,0.305-0.171,0.621-0.271,0.935l-0.058,0.187
					c-0.125,0.399-0.254,0.812-0.424,1.204c-0.198,0.458-0.473,0.932-0.836,1.445c-0.043,0.063-0.088,0.124-0.134,0.188
					c-0.015,0.021-0.03,0.04-0.047,0.061c-0.012,0.014-0.024,0.028-0.037,0.043c-0.006,0.007-0.013,0.014-0.019,0.021
					c-0.008,0.008-0.016,0.016-0.023,0.022c-0.007,0.007-0.015,0.016-0.022,0.023c-0.036,0.037-0.075,0.071-0.116,0.105
					c-0.001,0.001-0.002,0.002-0.003,0.003c-0.003,0.003-0.005,0.004-0.008,0.006c-0.057,0.046-0.116,0.089-0.181,0.131
					c-0.002,0.002-0.004,0.004-0.006,0.004c-0.284,0.181-0.628,0.302-0.977,0.336c-0.067,0.005-0.135,0.009-0.201,0.009
					c-0.461,0-0.915-0.15-1.283-0.421c0.053-0.022,0.104-0.048,0.156-0.077c-0.018,0.01-0.031,0.018-0.048,0.027
					c0.171,0.117,0.358,0.209,0.558,0.271c0.198,0.063,0.407,0.095,0.616,0.095c0.063,0,0.127-0.003,0.19-0.01
					c0.549-0.052,1.085-0.332,1.365-0.713c0.425-0.578,0.739-1.104,0.958-1.611c0.168-0.386,0.296-0.797,0.42-1.193l0.058-0.188
					c0.1-0.313,0.19-0.626,0.271-0.93c0.162-0.613,0.304-1.254,0.421-1.906c0.213-1.179,0.368-2.452,0.474-3.892
					c0.057-0.761,0.098-1.542,0.127-2.385c0.024-0.669,0.019-1.217-0.017-1.725c-0.046-0.657-0.164-1.35-0.37-2.18
					C147.913,126.056,147.71,125.513,147.45,125.008z"/>
				<path d="M148.911,149.972c-0.035,0.041-0.078,0.076-0.125,0.104c-0.77-0.181-1.558-0.199-2.342-0.277
					c-0.485-0.047-1.062-0.084-1.532-0.246c-0.021-0.037-0.038-0.077-0.049-0.121c0.011-0.013,0.019-0.029,0.02-0.05
					c0-0.002,0-0.003,0.001-0.005c0.581,0.234,1.375,0.253,1.981,0.304c0.693,0.06,1.379,0.095,2.055,0.269
					C148.918,149.958,148.914,149.965,148.911,149.972z"/>
				<path d="M148.935,149.951c-0.006,0.003-0.011,0.008-0.015,0.013c-0.002,0.004-0.006,0.007-0.009,0.009
					c0.004-0.008,0.007-0.015,0.009-0.023C148.924,149.949,148.93,149.95,148.935,149.951z"/>
				<path d="M148.91,149.974c0.004-0.002,0.007-0.005,0.009-0.009c0.005-0.005,0.009-0.01,0.015-0.013
					c0.012,0.002,0.021,0.004,0.032,0.008c0.068,0.018,0.068,0.1,0.026,0.137c-0.053,0.011-0.115-0.029-0.091-0.093
					C148.906,149.994,148.909,149.984,148.91,149.974z"/>
				<path d="M148.911,149.973c-0.002,0.01-0.007,0.021-0.01,0.03c-0.024,0.064,0.037,0.104,0.091,0.093
					c-0.017,0.015-0.039,0.023-0.068,0.015c-0.046-0.013-0.092-0.022-0.138-0.033C148.833,150.049,148.876,150.015,148.911,149.973z
					"/>
				<path d="M146.564,150.222v-0.003c0.061,0,0.102-0.094,0.044-0.143c0.072,0.004,0.138,0.01,0.192,0.017
					c0.481,0.056,1.502,0.285,1.986-0.015c0.046,0.011,0.092,0.021,0.138,0.033c0.028,0.008,0.051,0,0.068-0.015
					c0.009-0.001,0.019-0.004,0.026-0.01c-0.181,0.203-0.425,0.232-0.691,0.262c-0.549,0.063-1.172-0.059-1.72-0.122
					C146.594,150.224,146.579,150.223,146.564,150.222z"/>
				<path d="M149.021,150.087L149.021,150.087c-0.008,0.006-0.018,0.009-0.027,0.01c0.042-0.037,0.043-0.119-0.026-0.137
					c-0.011-0.004-0.021-0.006-0.032-0.008c0.065-0.049,0.158,0.054,0.097,0.124C149.028,150.079,149.024,150.084,149.021,150.087z"
					/>
				<path d="M146.714,149.098c0.037-0.104,0.08-0.213,0.099-0.319c0.43-0.353,1.067-0.521,1.565-0.327
					c0.612,0.237,0.892,1.011,0.675,1.595c-0.007,0.02-0.018,0.032-0.032,0.041c0.004-0.003,0.008-0.008,0.011-0.011
					c0.062-0.07-0.031-0.173-0.097-0.124c-0.005-0.002-0.011-0.003-0.015-0.003c0.186-0.591-0.152-1.179-0.725-1.402
					C147.759,148.378,147.006,148.733,146.714,149.098z"/>
			</g>
		</g>
	</g>
	<g>
		<path d="M148.437,137.591c0.019,0.28,0.263,0.599,0.561,0.536c-0.001,0.003-0.002,0.004-0.003,0.007
			c-0.077,0.32-0.013,0.589,0.296,0.743c0.205,0.103,0.387,0.072,0.549-0.023c0.014,0.017,0.028,0.031,0.043,0.046
			c0.002,0.006,0.004,0.01,0.008,0.014c0.012,0.01,0.023,0.019,0.035,0.028c0.007,0.008,0.014,0.014,0.022,0.02
			c0.004,0.003,0.007,0.005,0.011,0.008c0.008,0.006,0.017,0.013,0.026,0.018c0.005,0.004,0.009,0.005,0.014,0.006
			c0.156,0.083,0.365,0.089,0.517,0.019c0.15-0.07,0.221-0.218,0.248-0.376c0.025,0.034,0.058,0.06,0.104,0.068
			c0.133,0.023,0.221-0.021,0.304-0.125c0.188-0.24,0.207-0.533,0.058-0.784c-0.001-0.006-0.004-0.012-0.008-0.019
			c-0.166-0.225-0.078-0.507-0.218-0.741c-0.091-0.152-0.194-0.251-0.332-0.331c0.014-0.009,0.023-0.021,0.023-0.041
			c-0.019-0.576-1.338-0.731-1.227-0.064c-0.077,0.027-0.152,0.058-0.223,0.095c-0.005,0.002-0.008,0.007-0.011,0.01
			c-0.004,0-0.007-0.001-0.01-0.001c-0.034,0-0.067,0.005-0.101,0.011c-0.005,0-0.009,0.001-0.012,0.002
			C148.736,136.792,148.411,137.205,148.437,137.591z M150.594,136.662c-0.02-0.011-0.04-0.02-0.061-0.028
			c-0.307-0.132-0.652-0.151-0.971-0.067C149.49,136.078,150.58,136.222,150.594,136.662L150.594,136.662z M148.583,137.341
			c0.1-0.252,0.283-0.483,0.555-0.529c0.046,0.003,0.089,0.007,0.133-0.006c0.045-0.012,0.094-0.04,0.131-0.065
			c0.006-0.004,0.009-0.009,0.012-0.013c0.503-0.193,1.389-0.152,1.542,0.457c0.062,0.244,0.027,0.399,0.146,0.592
			c0.001,0.004,0.002,0.007,0.004,0.01c0.118,0.163,0.173,0.346,0.092,0.54c-0.021,0.05-0.044,0.099-0.072,0.145
			c-0.051,0.12-0.15,0.148-0.297,0.085c-0.026-0.06-0.036-0.125-0.05-0.188c0-0.007,0-0.014,0-0.02c-0.003-0.063-0.103-0.063-0.1,0
			c0.009,0.172,0.002,0.478-0.182,0.563c-0.143,0.064-0.34,0.068-0.477-0.02c-0.005-0.003-0.009-0.006-0.013-0.009
			c-0.008-0.006-0.016-0.014-0.023-0.021c-0.021-0.021-0.041-0.041-0.061-0.063c0.077-0.057,0.149-0.127,0.217-0.201
			c0.044-0.047-0.026-0.117-0.069-0.069c-0.209,0.227-0.471,0.426-0.782,0.237c-0.231-0.141-0.257-0.354-0.2-0.599
			c0.001-0.001,0.002-0.002,0.002-0.003c0.013-0.035,0.024-0.068,0.052-0.096c0.005-0.004,0.009-0.009,0.011-0.014
			c0.004,0.003,0.007,0.007,0.01,0.011c0.081,0.092,0.179,0.163,0.271,0.242c0.036,0.031,0.083-0.025,0.047-0.057
			c-0.085-0.075-0.179-0.142-0.255-0.226c-0.037-0.041-0.07-0.087-0.092-0.136c-0.02-0.049-0.024-0.096-0.013-0.147
			c0.004-0.021-0.013-0.039-0.031-0.042c-0.021-0.003-0.038,0.011-0.042,0.03c-0.021,0.092,0.006,0.179,0.054,0.254
			c-0.006,0.001-0.011,0.004-0.017,0.007c-0.007,0-0.013,0.002-0.021,0.006c-0.143,0.078-0.4-0.02-0.468-0.163
			C148.521,137.677,148.519,137.502,148.583,137.341z"/>
		<path d="M149.59,137.29c0.137-0.083,0.307-0.167,0.36-0.332c0.005-0.018,0.001-0.034-0.017-0.042
			c-0.014-0.006-0.037-0.001-0.042,0.016c-0.048,0.153-0.211,0.229-0.338,0.306C149.518,137.259,149.556,137.311,149.59,137.29z"/>
		<path d="M150.066,136.947c0.021,0.17,0.025,0.34,0.01,0.51c-0.003,0.04,0.06,0.05,0.063,0.009c0.016-0.175,0.012-0.35-0.009-0.525
			C150.124,136.899,150.061,136.906,150.066,136.947z"/>
		<path d="M150.289,136.992c0.026,0.07,0.058,0.142,0.11,0.196c0.057,0.059,0.13,0.082,0.208,0.084
			c0.018,0.001,0.029-0.019,0.028-0.035c-0.002-0.018-0.017-0.027-0.035-0.027c-0.061-0.001-0.12-0.024-0.161-0.07
			c-0.043-0.049-0.068-0.108-0.092-0.17C150.334,136.932,150.274,136.954,150.289,136.992z"/>
	</g>
	<path d="M142.19,140.806c-0.097-0.057-0.171-0.153-0.2-0.261c-0.03-0.113-0.016-0.236,0.045-0.337
		c0.054-0.093,0.133-0.154,0.257-0.2c0.025-0.008,0.052-0.018,0.075-0.028c0.085-0.038,0.154-0.076,0.211-0.113
		c0.007-0.007,0.013-0.013,0.019-0.019c-0.027-0.055-0.063-0.113-0.113-0.178c-0.049-0.063-0.1-0.123-0.151-0.186
		c-0.092-0.108-0.188-0.222-0.271-0.341c-0.187-0.268-0.248-0.556-0.17-0.791c0.094-0.282,0.334-0.499,0.66-0.594
		c0.183-0.053,0.374-0.064,0.559-0.074c0.089-0.005,0.176-0.01,0.259-0.019c0.07-0.012,0.131-0.026,0.181-0.043
		c0.02-0.011,0.039-0.021,0.051-0.028c0.008-0.007,0.017-0.014,0.023-0.021l0.001-0.004c-0.003-0.013-0.007-0.025-0.009-0.032
		c-0.032-0.065-0.074-0.129-0.136-0.211l-0.064-0.081c-0.103-0.127-0.208-0.259-0.284-0.407c-0.098-0.194-0.148-0.362-0.157-0.532
		c-0.014-0.299,0.178-0.593,0.469-0.717c0.129-0.054,0.232-0.089,0.336-0.112c0.086-0.019,0.172-0.033,0.257-0.048l0.051-0.009
		c0.155-0.026,0.314-0.054,0.459-0.107c0.023-0.012,0.047-0.024,0.063-0.034l0.008-0.007c0-0.016,0-0.031,0-0.042
		c-0.007-0.027-0.015-0.055-0.021-0.076c-0.021-0.044-0.047-0.087-0.076-0.127c-0.133-0.159-0.301-0.293-0.464-0.422l-0.038-0.029
		c-0.085-0.067-0.173-0.138-0.254-0.217c-0.077-0.073-0.172-0.175-0.223-0.294c-0.045-0.104-0.075-0.181-0.079-0.308
		c-0.004-0.118,0.031-0.208,0.076-0.313c0.066-0.155,0.209-0.27,0.352-0.369c0.123-0.087,0.261-0.148,0.395-0.208l0.046-0.021
		c0.101-0.046,0.206-0.086,0.307-0.124c0.044-0.017,0.089-0.034,0.133-0.051l0.065-0.026c0.084-0.037,0.151-0.069,0.212-0.104
		c-0.242-0.087-0.503-0.128-0.75-0.162c-0.043-0.006-0.086-0.011-0.129-0.017c-0.118-0.014-0.24-0.027-0.359-0.052
		c-0.102-0.02-0.191-0.085-0.252-0.182c-0.066-0.108-0.088-0.241-0.056-0.356c0.03-0.108,0.103-0.204,0.201-0.261
		c0.096-0.057,0.199-0.071,0.333-0.045c0.033,0.006,0.067,0.012,0.101,0.016l0.113,0.016c0.259,0.033,0.526,0.067,0.786,0.13
		c0.185,0.044,0.355,0.104,0.51,0.181c0.181,0.09,0.327,0.225,0.398,0.368c0.116,0.229,0.111,0.48-0.013,0.708
		c-0.079,0.144-0.214,0.273-0.415,0.395c-0.18,0.11-0.378,0.185-0.568,0.257c-0.073,0.026-0.146,0.055-0.218,0.084
		c-0.104,0.045-0.214,0.095-0.315,0.156c0.075,0.07,0.159,0.136,0.241,0.198c0.04,0.033,0.081,0.064,0.121,0.096
		c0.199,0.162,0.423,0.362,0.563,0.622c0.188,0.347,0.199,0.74,0.03,1.027c-0.131,0.224-0.371,0.385-0.713,0.477
		c-0.117,0.031-0.239,0.052-0.358,0.07c-0.144,0.024-0.294,0.048-0.43,0.093c0.001,0.003,0.002,0.006,0.003,0.01
		c0.037,0.077,0.087,0.157,0.149,0.242l0.064,0.08c0.104,0.129,0.214,0.265,0.291,0.417c0.074,0.148,0.112,0.283,0.123,0.438
		c0.01,0.14-0.028,0.293-0.111,0.455c-0.077,0.148-0.209,0.256-0.314,0.331c-0.105,0.076-0.232,0.12-0.318,0.146
		c-0.191,0.06-0.395,0.07-0.59,0.082l-0.03,0.002c-0.078,0.005-0.155,0.009-0.229,0.019c-0.058,0.009-0.107,0.021-0.146,0.032
		c0.023,0.039,0.051,0.081,0.085,0.127c0.045,0.057,0.093,0.112,0.141,0.17c0.277,0.326,0.593,0.696,0.473,1.168
		c-0.109,0.427-0.55,0.638-0.921,0.773c-0.035,0.013-0.073,0.021-0.114,0.021l0,0C142.343,140.87,142.261,140.848,142.19,140.806z
		 M143.752,131.596c-0.077,0.045-0.135,0.12-0.158,0.205c-0.024,0.091-0.008,0.196,0.045,0.282c0.046,0.075,0.114,0.124,0.191,0.139
		c0.116,0.023,0.236,0.037,0.352,0.051c0.044,0.005,0.087,0.012,0.131,0.017c0.266,0.037,0.548,0.08,0.813,0.183
		c0.016,0.007,0.031,0.015,0.047,0.023l0.069,0.037l-0.065,0.044c-0.082,0.055-0.175,0.104-0.302,0.159l-0.068,0.027
		c-0.045,0.017-0.09,0.034-0.134,0.051c-0.1,0.039-0.203,0.077-0.302,0.122l-0.046,0.021c-0.128,0.058-0.263,0.118-0.378,0.198
		c-0.131,0.093-0.262,0.196-0.319,0.33c-0.042,0.098-0.071,0.175-0.068,0.272c0.004,0.107,0.026,0.169,0.071,0.274
		c0.045,0.104,0.132,0.195,0.202,0.264c0.078,0.075,0.165,0.144,0.248,0.21l0.038,0.03c0.167,0.132,0.338,0.268,0.479,0.438
		c0.033,0.047,0.063,0.095,0.088,0.148c0.011,0.03,0.021,0.062,0.027,0.101c0.002,0.021,0.002,0.042,0,0.072l-0.005,0.018
		l-0.037,0.046c-0.025,0.017-0.052,0.031-0.084,0.047c-0.155,0.058-0.32,0.086-0.48,0.113l-0.051,0.009
		c-0.084,0.015-0.169,0.028-0.252,0.048c-0.098,0.021-0.197,0.055-0.318,0.106c-0.256,0.108-0.426,0.365-0.412,0.625
		c0.008,0.158,0.053,0.311,0.146,0.493c0.071,0.141,0.173,0.268,0.273,0.391l0.065,0.083c0.065,0.086,0.11,0.156,0.147,0.232
		c0.006,0.018,0.011,0.035,0.017,0.062v0.014l-0.006,0.028l-0.016,0.027c-0.012,0.011-0.021,0.021-0.039,0.037
		c-0.022,0.014-0.044,0.026-0.072,0.04c-0.061,0.021-0.127,0.037-0.205,0.05c-0.087,0.009-0.176,0.014-0.265,0.02
		c-0.181,0.01-0.366,0.02-0.538,0.07c-0.296,0.086-0.514,0.28-0.598,0.532c-0.099,0.294,0.077,0.593,0.157,0.707
		c0.082,0.117,0.176,0.228,0.267,0.335c0.051,0.063,0.103,0.124,0.154,0.188c0.056,0.073,0.096,0.137,0.129,0.204
		c0.004,0.011,0.007,0.021,0.01,0.031l0.007,0.025l-0.02,0.02c-0.014,0.016-0.027,0.029-0.049,0.046
		c-0.063,0.045-0.139,0.086-0.23,0.127c-0.026,0.011-0.055,0.021-0.08,0.03c-0.104,0.038-0.165,0.085-0.208,0.159
		c-0.047,0.079-0.06,0.175-0.035,0.264c0.023,0.086,0.081,0.16,0.158,0.205c0.078,0.046,0.188,0.063,0.261,0.036
		c0.349-0.128,0.763-0.324,0.862-0.71c0.108-0.423-0.178-0.759-0.452-1.084c-0.05-0.058-0.098-0.114-0.145-0.172
		c-0.051-0.068-0.087-0.125-0.114-0.182l-0.014-0.038l0.03-0.023c0.014-0.008,0.028-0.016,0.049-0.027
		c0.05-0.017,0.106-0.029,0.171-0.041c0.079-0.009,0.158-0.014,0.237-0.018l0.03-0.002c0.189-0.012,0.388-0.023,0.567-0.078
		c0.081-0.024,0.198-0.065,0.292-0.132c0.099-0.07,0.219-0.167,0.286-0.298c0.076-0.147,0.11-0.283,0.102-0.405
		c-0.011-0.142-0.045-0.266-0.113-0.402c-0.072-0.144-0.178-0.273-0.28-0.399l-0.065-0.082c-0.068-0.091-0.12-0.176-0.162-0.264
		c-0.007-0.021-0.015-0.041-0.021-0.063l-0.01-0.036l0.033-0.018l0.01-0.005c0.157-0.058,0.324-0.084,0.486-0.11
		c0.116-0.019,0.235-0.038,0.349-0.069c0.317-0.085,0.538-0.23,0.657-0.433c0.182-0.311,0.103-0.687-0.032-0.936
		c-0.134-0.245-0.348-0.438-0.54-0.594c-0.039-0.03-0.079-0.063-0.12-0.094c-0.1-0.077-0.203-0.156-0.293-0.248l-0.04-0.041
		l0.047-0.031c0.121-0.081,0.255-0.142,0.382-0.196c0.072-0.029,0.146-0.058,0.22-0.085c0.187-0.071,0.381-0.145,0.553-0.249
		c0.187-0.113,0.311-0.231,0.381-0.36c0.109-0.199,0.113-0.419,0.013-0.62c-0.064-0.126-0.194-0.245-0.357-0.326
		c-0.147-0.073-0.313-0.132-0.49-0.174c-0.255-0.061-0.52-0.095-0.776-0.128l-0.114-0.015c-0.036-0.006-0.071-0.011-0.106-0.018
		c-0.037-0.008-0.068-0.011-0.1-0.011C143.855,131.548,143.8,131.563,143.752,131.596z"/>
</g>
</svg>
