<?xml version="1.0" encoding="utf-8"?>
<!-- Generator: Adobe Illustrator 16.0.0, SVG Export Plug-In . SVG Version: 6.00 Build 0)  -->
<!DOCTYPE svg PUBLIC "-//W3C//DTD SVG 1.1//EN" "http://www.w3.org/Graphics/SVG/1.1/DTD/svg11.dtd">
<svg version="1.1" id="Jigglebilly_Stamp" xmlns="http://www.w3.org/2000/svg" xmlns:xlink="http://www.w3.org/1999/xlink" x="0px"
	 y="0px" width="283.46px" height="283.46px" viewBox="0 0 283.46 283.46" enable-background="new 0 0 283.46 283.46"
	 xml:space="preserve">
<g id="Silk_Screen_1_">
	<path d="M146.144,150.876l0.252,0.463c0.028,0.055,0.086,0.088,0.147,0.088c0.028,0,0.058-0.006,0.081-0.02
		c0.047-0.025,0.076-0.061,0.089-0.105c0.013-0.043,0.009-0.088-0.013-0.129l-0.252-0.461c-0.041-0.08-0.148-0.111-0.229-0.068
		c-0.047,0.025-0.076,0.061-0.089,0.105C146.119,150.792,146.124,150.837,146.144,150.876z"/>
	<path d="M143.592,147.759c0.031,0.462,0.142,0.887,0.327,1.264c0.032,0.063,0.094,0.102,0.163,0.102h0.013
		c0.083-0.004,0.143-0.065,0.146-0.15c0.002-0.053-0.01-0.109-0.036-0.169c-0.153-0.347-0.244-0.709-0.271-1.075
		c-0.004-0.066-0.05-0.125-0.113-0.145c-0.018-0.006-0.036-0.008-0.055-0.008h-0.018
		C143.652,147.583,143.586,147.66,143.592,147.759z"/>
	<path d="M147.433,148.158c0.137,0.327,0.221,0.655,0.25,0.973c0.014,0.158,0.012,0.32,0.01,0.494c0,0.1-0.002,0.199,0,0.299
		c0.002,0.076,0.053,0.132,0.127,0.141l0.043,0.004c0.074,0,0.133-0.052,0.142-0.127c0.048-0.395,0.039-0.781-0.024-1.154
		c0.023,0.014,0.049,0.021,0.078,0.021c0.096,0,0.155-0.076,0.178-0.223c0.047-0.299-0.072-0.644-0.168-0.918l-0.03-0.088
		c-0.039-0.115-0.097-0.203-0.17-0.259c-0.036-0.028-0.075-0.053-0.122-0.053h-0.061l-0.041,0.054
		c-0.041,0.063-0.012,0.135,0.004,0.17c0.099,0.235,0.172,0.454,0.22,0.651c-0.062-0.067-0.123-0.127-0.185-0.177
		c-0.068-0.055-0.113-0.076-0.16-0.076c-0.041,0-0.082,0.021-0.104,0.056C147.375,148.009,147.402,148.087,147.433,148.158z"/>
	<path d="M148.121,143.998c0.029,0.123,0.109,0.219,0.179,0.305c0.024,0.029,0.05,0.061,0.071,0.09
		c0.083,0.119,0.143,0.271,0.201,0.417c0.017,0.044,0.033,0.088,0.052,0.131c0.047,0.112,0.106,0.187,0.183,0.229
		c0.022,0.015,0.045,0.021,0.068,0.021h0.052l0.039-0.043c0.017-0.02,0.035-0.055,0.024-0.109c-0.092-0.459-0.297-0.856-0.613-1.18
		c-0.039-0.041-0.084-0.078-0.143-0.078h-0.053l-0.043,0.047C148.099,143.876,148.107,143.942,148.121,143.998z"/>
	<path d="M148.136,143.41l0.047,0.104l0.043,0.071c0.28,0.473,0.34,0.473,0.394,0.473l0.048-0.001l0.023-0.022l0.061-0.037
		l0.016-0.045c0.01-0.035,0.028-0.102-0.234-0.545l-0.074-0.123l-0.1-0.005L148.136,143.41z"/>
	<path d="M140.646,144.957c0.035,0.09,0.082,0.164,0.144,0.225c0.073,0.068,0.19,0.068,0.263,0.004l0.523,1.197
		c0.029,0.066,0.094,0.113,0.168,0.119l0.033,0.002c0.072,0,0.133-0.058,0.138-0.129c0.002-0.021-0.002-0.041-0.011-0.062
		c-0.034-0.09-0.067-0.181-0.101-0.272c-0.088-0.242-0.171-0.472-0.29-0.705c-0.091-0.178-0.18-0.362-0.264-0.545
		c-0.049-0.106-0.184-0.158-0.29-0.108c-0.007,0.003-0.015,0.007-0.021,0.011c-0.133-0.456-0.174-0.906-0.123-1.34
		c0.008-0.059-0.016-0.098-0.035-0.121c-0.018-0.023-0.055-0.049-0.116-0.049h-0.019c-0.09,0-0.158,0.059-0.174,0.146
		C140.388,143.876,140.445,144.423,140.646,144.957z"/>
	<path d="M142.601,142.975c0.021,0.06,0.059,0.108,0.109,0.147c0.2,0.151,0.406,0.267,0.611,0.342
		c0.037,0.016,0.078,0.018,0.117,0.007l0.031-0.009c0.092-0.027,0.153-0.047,0.252-0.047h0.018c0.064,0,0.132-0.006,0.197-0.02
		l0.088,0.105c0.035,0.043,0.084,0.066,0.141,0.07c0.076,0.002,0.139,0.028,0.191,0.082c0.033,0.035,0.078,0.057,0.127,0.063
		c0.015,0.002,0.031,0.003,0.047,0.003c0.146,0,0.253-0.082,0.346-0.154c0.008-0.007,0.018-0.013,0.025-0.021
		c0.152,0.064,0.32,0.022,0.477-0.127c0.044-0.043,0.049-0.09,0.047-0.113c-0.002-0.024-0.012-0.069-0.061-0.105
		c-0.057-0.043-0.135-0.044-0.201,0.002c-0.038,0.025-0.076,0.049-0.115,0.071c-0.02-0.008-0.041-0.019-0.061-0.034
		c-0.069-0.056-0.182-0.053-0.248,0.01l-0.033,0.033c-0.04,0.04-0.115,0.114-0.153,0.114c-0.009,0-0.024-0.015-0.04-0.037
		c-0.039-0.055-0.103-0.088-0.17-0.088l-0.109,0.002c-0.068-0.177-0.196-0.204-0.27-0.204c-0.054,0-0.111,0.014-0.176,0.043
		c-0.145-0.025-0.266-0.014-0.383,0.036c-0.187-0.097-0.391-0.219-0.604-0.368l-0.028-0.021l-0.043-0.002
		c-0.033,0-0.065,0.014-0.088,0.037C142.591,142.839,142.574,142.908,142.601,142.975z"/>
	<path d="M145.376,143.16c0.031,0.031,0.072,0.049,0.113,0.049c0.043,0,0.087-0.02,0.117-0.049l0.213-0.223
		c0.063-0.064,0.062-0.166-0.002-0.229c-0.064-0.063-0.17-0.061-0.23,0.002l-0.214,0.221
		C145.312,142.996,145.312,143.098,145.376,143.16z"/>
	<path d="M139.974,143.423c0.034,0.074,0.098,0.117,0.18,0.123l0.031,0.002c0.071,0,0.107-0.039,0.123-0.062s0.037-0.071,0.01-0.142
		c-0.076-0.192-0.099-0.362-0.064-0.506c0.018-0.073-0.029-0.146-0.102-0.164c-0.068-0.016-0.135,0.008-0.182,0.063
		c-0.035,0.042-0.057,0.092-0.063,0.146C139.888,143.102,139.91,143.283,139.974,143.423z"/>
	<path d="M144.54,138.409c-0.001,0.019,0.005,0.037,0.019,0.051c0.012,0.014,0.028,0.023,0.047,0.024l0.5,0.034
		c0.037,0,0.067-0.029,0.069-0.066l0.004-0.062c0.003-0.038-0.026-0.072-0.065-0.075l-0.493-0.034l0,0
		c-0.042,0-0.073,0.028-0.075,0.065L144.54,138.409z"/>
	<path d="M136.804,138.207c0.023,0.034,0.057,0.057,0.096,0.065c0.14,0.021,0.274,0.043,0.414,0.067
		c0.287,0.049,0.521,0.181,0.713,0.402c-0.129,0.065-0.289,0.146-0.293,0.406c-0.006,0.317,0.146,0.6,0.316,0.886
		c0.008,0.013,0.018,0.026,0.03,0.039c0.055,0.056,0.108,0.083,0.166,0.083c0.038,0,0.073-0.013,0.104-0.037
		c0.057-0.046,0.071-0.129,0.033-0.193c-0.102-0.172-0.193-0.381-0.271-0.621c-0.057-0.177,0.008-0.246,0.078-0.29
		c0.022-0.014,0.045-0.019,0.082-0.019c0.015,0,0.027,0.001,0.041,0.001c0.019,0.001,0.037,0.001,0.056,0.001h0.024
		c0.043-0.001,0.082-0.019,0.11-0.05c0.028-0.03,0.044-0.071,0.042-0.113l-0.002-0.024c-0.014-0.072-0.048-0.14-0.104-0.203
		c-0.362-0.407-0.914-0.643-1.518-0.646c-0.066,0-0.121,0.045-0.136,0.109l-0.005,0.022
		C136.773,138.133,136.781,138.173,136.804,138.207z"/>
	<ellipse transform="matrix(-0.8791 0.4767 -0.4767 -0.8791 334.071 190.2527)" cx="142.906" cy="137.497" rx="0.342" ry="0.36"/>
	<ellipse transform="matrix(-0.925 0.3799 -0.3799 -0.925 333.0677 209.3947)" cx="145.874" cy="137.56" rx="0.337" ry="0.368"/>
	<path d="M130.126,132.458c0.072,0.306,0.164,0.585,0.271,0.829c0.551,1.252,1.355,2.36,2.391,3.293
		c0.545,0.491,1.184,0.916,1.898,1.264c0.485,0.236,0.961,0.442,1.412,0.613c0.029,0.011,0.061,0.018,0.09,0.024
		c0.016,0.004,0.039,0.009,0.047,0.013c0,0.001,0.002,0.007,0.004,0.018c0.078,0.591,0.406,1.059,1.005,1.431
		c0.188,0.118,0.343,0.233,0.457,0.34c0.262,0.249,0.39,0.45,0.491,0.77c0.053,0.168,0.101,0.276,0.15,0.341
		c0.121,0.157,0.33,0.255,0.545,0.255c0.021,0.003,0.045-0.001,0.065-0.003c0.014,0.26-0.011,0.524-0.071,0.786l-0.098,0.698
		c-0.079,0.455-0.051,0.896,0.089,1.31l0.009,0.021l0.201,0.344c0.027,0.063,0.126,0.234,0.182,0.295
		c0.088,0.098,0.168,0.216,0.235,0.354l0.006,0.01c0,0.002,0.001,0.002,0.002,0.004l0.002,0.005c0.05,0.091,0.091,0.182,0.126,0.284
		c0.016,0.043,0.029,0.082,0.041,0.123l0.008,0.025l0.019,0.021c0.047,0.062,0.101,0.074,0.138,0.074
		c0.031,0,0.077-0.01,0.123-0.056c0.031,0.082,0.061,0.165,0.085,0.245c0.033,0.109,0.076,0.216,0.13,0.32
		c0.086,0.168,0.176,0.34,0.271,0.519c0.055,0.103,0.118,0.21,0.188,0.313c0.066,0.1,0.133,0.197,0.198,0.295
		c0.002,0.002,0.034,0.041,0.086,0.105c0.19,0.229,0.692,0.838,0.845,1.051c0.102,0.143,0.207,0.285,0.313,0.426
		c0.148,0.199,0.252,0.406,0.359,0.625l0.037,0.074c0.073,0.146,0.24,0.207,0.387,0.14c0.035-0.015,0.062-0.041,0.082-0.073
		c0.055,0.111,0.109,0.211,0.166,0.301c0.031,0.051,0.063,0.103,0.091,0.156c0.03,0.059,0.067,0.116,0.106,0.169
		c0.26,0.351,0.555,0.663,0.875,0.931c0.08,0.065,0.166,0.109,0.25,0.152c0.041,0.02,0.082,0.04,0.121,0.063
		c0.051,0.031,0.112,0.035,0.18,0.015c0.219,0.312,0.453,0.622,0.695,0.921c0.105,0.133,0.217,0.26,0.332,0.378
		c0.037,0.039,0.065,0.084,0.084,0.136l0.221,0.592c0.039,0.101,0.16,0.156,0.263,0.117c0.047-0.018,0.086-0.052,0.108-0.097
		c0.043-0.085,0.086-0.173,0.129-0.264l0.008,0.266c0.009,0.247-0.002,0.581-0.031,0.992c-0.018,0.228,0,0.649,0.296,0.897
		c0.026,0.021,0.06,0.033,0.093,0.033c0.043,0,0.084-0.02,0.112-0.053c0.013-0.016,0.021-0.031,0.026-0.049
		c0.039-0.119,0.109-0.227,0.207-0.322c0.02-0.018,0.043-0.052,0.146-0.203c0.092-0.136,0.219-0.32,0.271-0.38
		c0.199-0.223,0.397-0.448,0.588-0.675c0.154-0.184,0.269-0.355,0.336-0.51c0.133-0.303,0.212-0.656,0.234-1.053v-0.557
		c0.037,0.077,0.135,0.114,0.215,0.078c0.027-0.014,0.053-0.036,0.07-0.063c0.152-0.238,0.229-0.461,0.233-0.68
		c0.002-0.078,0.021-0.156,0.04-0.24c0.027-0.117,0.059-0.252,0.043-0.4c-0.018-0.164-0.025-0.321-0.02-0.469
		c0-0.004,0.006-0.059,0.11-0.26c0.065-0.127,0.104-0.314,0.121-0.572l0.019-0.592c0-0.013-0.008-0.221-0.013-0.313
		c0.024,0.013,0.054,0.023,0.084,0.023c0.035,0,0.149-0.015,0.156-0.203l0.002-0.019c0.042-0.386,0.108-1.088,0.083-1.452
		c-0.014-0.205-0.044-0.408-0.088-0.601l-0.037-0.267c-0.075-0.336-0.16-0.674-0.251-1c-0.027-0.095-0.069-0.186-0.108-0.273
		c-0.039-0.084-0.08-0.172-0.104-0.26l-0.007-0.021l-0.014-0.019c-0.003-0.002-0.004-0.004-0.005-0.004
		c0.013,0.002,0.025,0.004,0.038,0.007c0.02,0.003,0.035,0.003,0.049,0.003c0.045,0,0.083-0.008,0.116-0.025
		c0.033-0.02,0.089-0.066,0.09-0.173v-0.144c-0.022-0.254-0.03-0.504-0.026-0.752c0.006-0.254-0.026-0.475-0.065-0.701l0.679,0.176
		l1.28,0.354c0.215,0.029,0.417,0.1,0.608,0.207l0.016,0.008c0.236,0.091,0.416,0.273,0.55,0.558l0.021,0.028
		c0.226,0.242,0.309,0.371,0.339,0.437c0.079,0.173,0.17,0.345,0.271,0.515l0.008,0.014c0.01,0.01,0.015,0.015,0.018,0.021
		c0.003,0.004,0.006,0.01,0.009,0.016l-0.002,0.004l0.024,0.061l0,0c0.005,0.008,0.022,0.049,0.033,0.075l0.035,0.056l0.047,0.032
		c0.021,0.015,0.045,0.027,0.067,0.04l0.032,0.012l0.027,0.01l0.012-0.004l0.023,0.004l0.025-0.004
		c0.127-0.019,0.205-0.092,0.253-0.146l0.017-0.019l0.008-0.024c0.002-0.009,0.006-0.019,0.01-0.028l0.008-0.017l0.001-0.021
		c0.011-0.109-0.026-0.225-0.108-0.34c-0.256-0.361-0.558-0.727-0.898-1.086c0.128,0.02,0.271,0.028,0.432,0.021
		c0.627,0.046,1.25,0.132,1.856,0.258c0.108,0.023,0.198,0.011,0.269-0.034c0.113-0.073,0.168-0.188,0.146-0.308
		c-0.024-0.127-0.131-0.229-0.274-0.258c-0.315-0.064-0.606-0.125-0.928-0.158c-0.296-0.03-0.597-0.064-0.894-0.1
		c-0.149-0.019-0.306-0.021-0.457-0.025c-0.119-0.002-0.244-0.004-0.365-0.014c-0.063-0.006-0.125,0.006-0.18,0.018
		c-0.07,0.014-0.135,0.023-0.195,0.004c-0.065-0.021-0.129-0.046-0.193-0.07c-0.1-0.039-0.204-0.08-0.316-0.105
		c-0.078-0.02-0.158-0.041-0.238-0.063c-0.112-0.027-0.202-0.058-0.271-0.088l-0.023-0.008c-0.145-0.027-0.284-0.066-0.418-0.119
		l-0.029-0.008c-0.014-0.002-0.043-0.008-0.096-0.021c-0.442-0.113-0.879-0.208-1.297-0.283c-0.067-0.361-0.24-0.758-0.545-1.249
		c-0.061-0.1-0.203-0.34-0.283-0.477c-0.035-0.062-0.062-0.104-0.063-0.106l-0.158-0.229l-0.086-0.113
		c-0.326-0.392-0.582-0.781-0.764-1.159c-0.059-0.12-0.088-0.256-0.091-0.406c1.672-0.22,3.177-0.884,4.474-1.973
		c0.198-0.166,0.415-0.355,0.645-0.562c0.804-0.722,1.479-1.558,2.008-2.484c0.322-0.567,0.555-1.171,0.693-1.795
		c0.022-0.098,0.037-0.236,0.045-0.42c0.021-0.489-0.125-0.908-0.449-1.28c-0.658-0.757-1.454-1.323-2.364-1.681
		c-0.888-0.351-1.883-0.561-3.042-0.644c-0.639-0.046-1.391-0.062-2.24-0.049c-0.422,0.006-0.861,0.057-1.269,0.145
		c-0.093,0.02-0.185,0.038-0.278,0.056c-0.177,0.035-0.361,0.07-0.531,0.12c-0.561,0.167-1.129,0.389-1.689,0.661
		c-0.295-0.518-0.823-1.109-1.373-1.109c-0.038,0-0.077,0.003-0.115,0.008c-0.16,0.024-0.332,0.088-0.51,0.191
		c-0.223,0.129-0.484,0.303-0.778,0.518c-0.198,0.144-0.407,0.258-0.623,0.339c-0.142,0.063-0.19,0.076-0.206,0.078
		c-0.332,0.051-0.566,0.074-0.689,0.065c-0.527-0.037-0.967-0.128-1.313-0.27c-0.047-0.02-0.096-0.041-0.146-0.062
		c-0.237-0.102-0.508-0.219-0.756-0.225h-0.033c-0.436,0-0.766,0.208-0.985,0.619c-0.181,0.341-0.231,0.677-0.264,1.043
		l-0.159-0.056c-0.434-0.137-0.756-0.213-0.986-0.234c-0.102-0.009-0.203-0.02-0.305-0.03c-0.359-0.036-0.73-0.074-1.082-0.061
		c-0.7,0.026-1.508,0.099-2.197,0.446c-0.404,0.204-0.689,0.552-0.843,1.032C129.997,131.319,129.982,131.885,130.126,132.458z
		 M136.213,138.078c-0.036-0.013-0.071-0.026-0.106-0.039c-0.373-0.135-0.756-0.274-1.104-0.455l-0.135-0.069
		c-0.313-0.163-0.638-0.331-0.904-0.506c-1.349-0.889-2.383-2.081-3.078-3.541c-0.184-0.39-0.323-0.818-0.399-1.237
		c-0.107-0.579-0.051-1.38,0.314-1.865c0.162-0.214,0.451-0.339,0.609-0.394c0.333-0.116,0.729-0.197,1.175-0.241
		c0.085-0.009,0.168-0.018,0.251-0.028c0.217-0.025,0.421-0.049,0.628-0.05h0.086c0.431,0,0.784,0.019,1.05,0.058
		c0.35,0.049,0.731,0.141,1.139,0.271c0.029,0.808,0.068,1.625,0.113,2.43c0.02,0.353,0.092,1.143,0.213,2.346
		c0.004,0.035,0.011,0.067,0.018,0.097c0.016,0.069,0.016,0.076-0.01,0.102c-0.442,0.461-0.936,0.763-1.461,0.899
		c-0.08,0.021-0.131,0.086-0.129,0.169v0.02c0,0.07,0.061,0.129,0.133,0.129l0.021-0.002c0.42-0.084,0.793-0.246,1.106-0.482
		c0.427-0.32,0.711-0.569,0.87-0.763c0.727-0.882,1.209-1.449,1.436-1.685c0.321-0.336,0.663-0.693,1.026-1.073
		c0.22-0.23,0.599-0.588,1.127-1.062c0.373-0.335,0.839-0.7,1.384-1.085c0.848-0.599,1.77-1.097,2.734-1.479
		c0.668-0.264,1.365-0.448,2.072-0.547c0.266-0.037,0.563-0.051,0.879-0.066c0.135-0.006,0.271-0.012,0.408-0.021
		c0.272-0.016,0.547-0.025,0.815-0.025c0.644,0,1.254,0.047,1.815,0.14c0.183,0.03,0.359,0.06,0.531,0.089
		c0.537,0.092,1.1,0.25,1.674,0.472c0.557,0.216,1.061,0.522,1.498,0.911c0.107,0.096,0.209,0.184,0.303,0.263
		c0.293,0.246,0.494,0.537,0.634,0.916c0.163,0.442,0.002,0.998-0.161,1.484c-0.08,0.238-0.182,0.475-0.301,0.705
		c-0.36,0.698-0.741,1.278-1.131,1.723c-0.478,0.546-0.871,0.947-1.17,1.19c-0.094,0.076-0.188,0.155-0.283,0.234
		c-0.229,0.192-0.467,0.39-0.682,0.543c-0.834,0.597-1.76,1.03-2.75,1.289c-0.207,0.053-0.445,0.093-0.676,0.132
		c-0.091,0.015-0.181,0.03-0.27,0.046c0.018-0.577,0.082-1.137,0.188-1.665c0.02-0.096-0.021-0.193-0.104-0.245
		c0.117,0.024,0.232,0.052,0.352,0.08c0.057,0.015,0.115,0.028,0.174,0.042c0.159,0.036,0.313,0.083,0.455,0.139
		c0.161,0.062,0.313,0.123,0.457,0.182c0.088,0.035,0.189-0.009,0.225-0.094l0.008-0.027c0.048-0.207-0.088-0.399-0.383-0.54
		c-0.004-0.006-0.027-0.052-0.041-0.079c-0.025-0.049-0.051-0.099-0.088-0.137c-0.021-0.023-0.043-0.045-0.064-0.066
		c0.018-0.018,0.031-0.039,0.041-0.063c0.018-0.045,0.018-0.093,0-0.137c-0.021-0.056-0.063-0.108-0.117-0.154
		c-0.252-0.214-0.537-0.374-0.85-0.478c0.029-0.032,0.045-0.074,0.045-0.118c0-0.047-0.02-0.091-0.053-0.124
		c-0.008-0.008-0.018-0.016-0.028-0.023c-0.296-0.186-0.626-0.259-0.987-0.215l0.086-0.242c0.016-0.04,0.014-0.083-0.006-0.123
		c-0.018-0.039-0.05-0.069-0.091-0.084c-0.14-0.045-0.274-0.059-0.412-0.045c-0.61,0.06-1.177,0.406-1.444,0.884
		c-0.084-0.302-0.242-0.6-0.471-0.884c-0.057-0.07-0.169-0.083-0.24-0.026l-0.021,0.021l-0.141,0.16
		c-0.147-0.102-0.291-0.205-0.429-0.307c-0.282-0.21-0.597-0.256-0.924-0.135c-0.045,0.016-0.08,0.049-0.101,0.092
		s-0.022,0.091-0.006,0.135c0.016,0.039,0.043,0.072,0.079,0.093c0.009,0.005,0.017,0.01,0.025,0.014
		c-0.24,0.063-0.722,0.227-0.875,0.472c-0.035,0.055-0.044,0.114-0.027,0.169c-0.196,0.034-0.442,0.092-0.661,0.199
		c-0.121,0.059-0.242,0.121-0.365,0.184c-0.102,0.052-0.182,0.12-0.258,0.186c-0.027,0.022-0.054,0.044-0.08,0.066
		c-0.076,0.06-0.088,0.172-0.027,0.248c0.018,0.024,0.043,0.042,0.07,0.054l0,0c-0.301,0.123-0.646,0.224-1.031,0.303
		c-0.071,0.015-0.107,0.055-0.125,0.085c-0.018,0.03-0.031,0.081-0.008,0.151l0.024,0.068c-0.036,0.015-0.067,0.039-0.09,0.07
		c-0.034,0.048-0.047,0.105-0.038,0.162c0.01,0.057,0.04,0.107,0.087,0.141l0.011,0.007c0.086,0.055,0.178,0.092,0.27,0.11
		c0.05,0.01,0.102,0.017,0.152,0.022c-0.422,0.164-0.83,0.344-1.227,0.52c-0.125,0.056-0.25,0.111-0.376,0.166
		c-0.035,0.015-0.065,0.018-0.099,0.008c-0.043-0.013-0.084-0.026-0.125-0.039c-0.178-0.056-0.346-0.109-0.539-0.109
		c-0.071,0-0.141,0.007-0.215,0.021C136.605,137.213,136.271,137.579,136.213,138.078z M138.59,140.977
		c-0.135-0.299-0.264-0.526-0.383-0.676c-0.222-0.279-0.498-0.479-0.767-0.673c-0.121-0.09-0.239-0.174-0.346-0.263
		c-0.322-0.268-0.488-0.631-0.509-1.11c-0.005-0.127,0.019-0.244,0.073-0.354c0.141-0.283,0.377-0.432,0.685-0.432
		c0.114,0,0.234,0.021,0.358,0.063c0.311,0.104,0.711,0.447,0.918,0.718c0.004,0.005,0.004,0.007,0.002,0.013l-0.006,0.024
		c-0.038,0.144-0.076,0.292-0.063,0.452c0.037,0.429,0.217,0.831,0.391,1.22c0.029,0.064,0.059,0.128,0.086,0.191
		c0.072,0.165,0.143,0.432,0.207,0.793c0.015,0.077-0.006,0.117-0.022,0.139c-0.106,0.145-0.271,0.225-0.396,0.183
		C138.709,141.226,138.644,141.096,138.59,140.977z M139.896,145.46c-0.094-0.228-0.213-0.438-0.356-0.635
		c-0.216-0.295-0.339-0.568-0.368-0.811c-0.038-0.32-0.031-0.689,0.021-1.102c0.031-0.256,0.065-0.514,0.102-0.77
		c0.021,0.016,0.053,0.032,0.098,0.032h0.022c0.103-0.002,0.173-0.067,0.183-0.167c0.069-0.641-0.008-1.28-0.228-1.9
		c-0.091-0.252-0.195-0.523-0.312-0.806c-0.125-0.299-0.193-0.729-0.065-1.02c0.013-0.029,0.019-0.061,0.017-0.092
		c0.012,0.003,0.023,0.004,0.036,0.004l0,0c0.024,0,0.046-0.004,0.067-0.012c0.004-0.001,0.008-0.003,0.012-0.004
		c-0.063,0.362,0.006,0.729,0.199,1.094c0.051,0.097,0.18,0.137,0.277,0.086c0.021-0.01,0.037-0.023,0.055-0.04l0.029-0.03
		c0.037,0.187,0.127,0.37,0.416,0.355c-0.016,0.204-0.004,0.413,0.032,0.623c0.019,0.114,0.069,0.213,0.117,0.308
		c0.009,0.019,0.019,0.039,0.028,0.059l-0.016,0.017c-0.033,0.036-0.05,0.08-0.051,0.127c-0.001,0.052-0.016,0.131-0.133,0.213
		c-0.061,0.042-0.086,0.12-0.061,0.189c0.028,0.082,0.112,0.123,0.215,0.094c0.045-0.013,0.088-0.036,0.125-0.069
		c0.051-0.046,0.097-0.093,0.14-0.142c0,0.029,0.006,0.058,0.017,0.083c0.03,0.069,0.116,0.103,0.186,0.073l0.018-0.009
		c0.139-0.078,0.284-0.132,0.428-0.156c0.049,0.117,0.108,0.2,0.195,0.283c0.26,0.247,0.553,0.456,0.868,0.622
		c0.086,0.045,0.159,0.087,0.218,0.127c0.03,0.021,0.061,0.042,0.092,0.063c0.133,0.095,0.274,0.192,0.438,0.244
		c0.064,0.022,0.132,0.041,0.197,0.062c0.162,0.049,0.33,0.1,0.49,0.162c0.141,0.055,0.311,0.1,0.504,0.129
		c0.586,0.092,1.063-0.084,1.401-0.517c0.009-0.013,0.022-0.033,0.065-0.118c0.244-0.02,0.615-0.019,1.104,0.002
		c0.373,0.017,0.811,0.09,1.162,0.149c0.141,0.024,0.27,0.045,0.381,0.062c0.284,0.041,0.564,0.08,0.84,0.118
		c0.037,0.005,0.08,0.019,0.127,0.039c0.065,0.457,0.09,0.917,0.075,1.372c-0.093-0.023-0.176-0.021-0.247,0.007
		c-0.088,0.035-0.145,0.089-0.168,0.157c-0.039,0.115,0.029,0.229,0.073,0.304c0.163,0.276,0.285,0.556,0.36,0.829
		c0.102,0.361,0.187,0.764,0.252,1.197c0.053,0.335,0.072,0.82,0.059,1.441c-0.037-0.039-0.083-0.07-0.141-0.086l-0.036-0.004
		c-0.065,0-0.124,0.045-0.14,0.107c-0.006,0.018-0.006,0.035-0.004,0.054c0.017,0.124,0.029,0.253,0.041,0.384
		c0.031,0.385,0.016,0.778-0.045,1.172c-0.01,0.063-0.027,0.123-0.05,0.187l-0.067-0.272c-0.01-0.039-0.024-0.076-0.043-0.111
		c-0.066-0.119-0.149-0.145-0.207-0.145c-0.017,0-0.033,0.002-0.051,0.006l-0.051,0.014l-0.029,0.052
		c-0.015,0.032-0.016,0.067-0.002,0.101c0.086,0.209,0.146,0.42,0.182,0.627c0.076,0.463,0.082,0.933,0.021,1.396
		c-0.003,0.021-0.006,0.04-0.01,0.061c-0.146-0.222-0.285-0.414-0.416-0.457l-0.017-0.006l-0.028-0.002
		c-0.063,0-0.12,0.041-0.14,0.104c-0.006,0.021-0.008,0.044-0.004,0.066c0.055,0.338,0.086,0.693,0.096,1.055
		c0.021,0.781-0.163,1.373-0.582,1.861c-0.059,0.067-0.116,0.133-0.174,0.197c-0.156,0.178-0.305,0.346-0.441,0.541
		c-0.119,0.172-0.238,0.344-0.357,0.518c-0.015-0.057-0.023-0.111-0.023-0.166c-0.003-0.25,0.023-0.649,0.081-1.189
		c0.024-0.24-0.052-0.532-0.112-0.766c-0.009-0.037-0.02-0.071-0.027-0.104c-0.031-0.125-0.09-0.188-0.174-0.188
		c-0.101,0-0.16,0.1-0.182,0.137c-0.075,0.127-0.146,0.256-0.213,0.384c-0.145-0.425-0.208-0.87-0.189-1.325
		c0-0.039-0.013-0.074-0.037-0.1s-0.059-0.04-0.096-0.04l-0.013-0.001l0,0c-0.083,0-0.149,0.059-0.158,0.135
		c-0.022,0.195-0.03,0.375-0.021,0.535c-0.129-0.156-0.262-0.322-0.392-0.493c-0.276-0.362-0.481-0.713-0.665-1.134
		c-0.035-0.078-0.129-0.115-0.207-0.082c-0.045,0.02-0.078,0.059-0.09,0.107c-0.023,0.094-0.025,0.207-0.02,0.303
		c-0.024-0.02-0.049-0.041-0.073-0.063c-0.021-0.017-0.039-0.033-0.06-0.051c-0.574-0.479-0.973-1.094-1.188-1.822
		c-0.03-0.101-0.115-0.152-0.219-0.13c-0.061,0.015-0.106,0.063-0.116,0.126l-0.041,0.266c-0.236-0.416-0.416-0.698-0.548-0.86
		c-0.301-0.371-0.582-0.716-0.84-1.031c-0.234-0.286-0.494-0.713-0.773-1.271c-0.128-0.252-0.229-0.531-0.301-0.826
		c-0.026-0.107-0.141-0.178-0.25-0.151c-0.026,0.007-0.053,0.019-0.074,0.035C139.911,145.446,139.902,145.453,139.896,145.46z
		 M148.474,135.95c0.002,0.006,0.004,0.013,0.006,0.019c-0.569-0.147-1.127-0.275-1.682-0.276c-0.414-0.001-0.833-0.047-1.245-0.138
		c-0.081-0.018-0.149-0.058-0.208-0.121c-0.343-0.371-0.1-0.7,0.075-0.863c0.297-0.276,0.62-0.418,0.987-0.434
		c-0.057,0.104-0.081,0.218-0.071,0.338c0.008,0.094,0.088,0.167,0.183,0.167h0.014c0.006,0,0.011-0.001,0.017-0.002
		c0.236-0.042,0.479-0.029,0.729,0.039c-0.014,0.013-0.026,0.028-0.037,0.047c-0.039,0.066-0.033,0.12-0.02,0.153
		c0.012,0.033,0.043,0.079,0.116,0.106c0.338,0.123,0.625,0.253,0.854,0.389c-0.026,0.013-0.051,0.033-0.068,0.058
		c-0.029,0.039-0.04,0.086-0.032,0.134c0.009,0.048,0.033,0.089,0.072,0.117c0.013,0.009,0.026,0.017,0.043,0.022
		C148.314,135.746,148.445,135.849,148.474,135.95z M143.181,133.973c-0.003-0.039-0.019-0.077-0.046-0.107l-0.05-0.057
		c0.137,0.021,0.244,0.073,0.406,0.19c0.185,0.134,0.383,0.247,0.588,0.335c0.072,0.032,0.175-0.004,0.21-0.082l0.007-0.018
		c0.219,0.31,0.361,0.749,0.135,1.119c-0.113,0.185-0.283,0.304-0.52,0.366c-0.188,0.05-0.348,0.088-0.534,0.099
		c-0.289,0.016-0.58,0.041-0.866,0.076c-0.102,0.013-0.203,0.016-0.309,0.02c-0.131,0.005-0.266,0.01-0.406,0.033
		c-0.359,0.058-0.719,0.117-1.078,0.177c-0.422,0.07-0.732,0.091-1.078,0.074c0.021-0.052,0.028-0.108,0.024-0.166
		c0.146-0.054,0.292-0.099,0.435-0.143c0.245-0.075,0.5-0.154,0.764-0.279c0.051-0.025,0.091-0.057,0.113-0.096
		c0.043-0.069,0.043-0.145,0.004-0.211c-0.031-0.05-0.084-0.084-0.158-0.104c0.421-0.235,0.863-0.378,1.313-0.424
		c0.04-0.004,0.076-0.024,0.101-0.055c0.025-0.031,0.037-0.07,0.033-0.11c-0.004-0.029-0.014-0.056-0.033-0.079l-0.069-0.086
		c0.256-0.164,0.541-0.258,0.849-0.28c0.047-0.003,0.09-0.025,0.121-0.061C143.168,134.068,143.185,134.021,143.181,133.973z
		 M143.426,136.064v0.11c0.08,0,0.169,0.167,0.212,0.248c0.26,0.485,0.278,0.936,0.057,1.378c-0.158,0.314-0.457,0.39-0.859,0.463
		c-0.055,0.01-0.068,0.005-0.133-0.046c-0.018-0.014-0.034-0.028-0.055-0.042c-0.367-0.265-0.506-0.621-0.422-1.088
		c0.055-0.309,0.279-0.899,0.467-0.899c0.231,0.002,0.471-0.002,0.729-0.014L143.426,136.064L143.426,136.064z M146.941,137.321
		c-0.004,0.453-0.25,0.755-0.75,0.923c-0.051,0.018-0.099,0.02-0.145,0.005c-0.295-0.095-0.625-0.312-0.666-0.642
		c-0.053-0.424-0.039-1.17,0.658-1.406c0.061-0.021,0.117-0.031,0.168-0.031c0.093,0,0.171,0.034,0.24,0.105
		C146.763,136.604,146.943,136.985,146.941,137.321z M147.361,136.377c0,0.001,0,0.006-0.002,0.012
		c-0.039,0.196-0.073,0.39-0.1,0.583c-0.061-0.268-0.182-0.516-0.363-0.741c0.145,0.045,0.293,0.091,0.442,0.136
		C147.353,136.372,147.359,136.375,147.361,136.377z M147.351,139.491c0.01,0.042,0.01,0.082,0.002,0.122
		c-0.007,0.002-0.016,0.002-0.024,0.002c-0.091,0-0.233-0.074-0.333-0.147l-0.118-0.087c-0.253-0.188-0.515-0.383-0.795-0.514
		c-0.25-0.117-0.511-0.169-0.763-0.221c-0.076-0.015-0.154-0.031-0.232-0.049c-0.011-0.003-0.023-0.004-0.036-0.004
		c-0.073,0-0.137,0.05-0.155,0.121l-0.006,0.022c-0.009,0.036-0.004,0.075,0.016,0.108c0.019,0.033,0.05,0.056,0.087,0.066
		l0.022,0.004c0.661,0.058,1.318,0.397,1.955,1.006c0.325,0.312,0.549,0.69,0.668,1.125c0.021,0.085,0.006,0.168-0.05,0.247
		c-0.106,0.152-0.315,0.244-0.469,0.258c-0.347,0.03-0.623-0.009-0.813-0.117l-0.06-0.034c-0.161-0.09-0.329-0.185-0.479-0.297
		c-0.076-0.056-0.152-0.113-0.227-0.17c-0.303-0.229-0.616-0.465-0.957-0.669c-0.053-0.031-0.114-0.047-0.182-0.047
		c-0.143,0-0.287,0.067-0.383,0.111c-0.111,0.051-0.279,0.112-0.442,0.112c-0.19,0-0.319-0.082-0.396-0.251
		c-0.033-0.074-0.033-0.128,0.065-0.186c0.157-0.092,0.313-0.158,0.464-0.196c0.098-0.025,0.154-0.101,0.152-0.2
		c-0.002-0.077-0.064-0.138-0.144-0.138l-0.021,0.001c-0.188,0.023-0.413,0.114-0.668,0.271c-0.258-0.065-0.51-0.156-0.743-0.272
		c-0.028-0.015-0.056-0.022-0.084-0.022c-0.067,0-0.14,0.048-0.146,0.153c-0.002,0.011-0.004,0.021-0.006,0.031l-0.547,0.046
		c-0.095,0.009-0.166,0.093-0.158,0.188l0.014,0.078c-0.162,0.023-0.322,0.072-0.473,0.143c-0.017,0.008-0.037,0.013-0.062,0.018
		c-0.036,0.008-0.082,0.018-0.128,0.044c-0.064,0.038-0.094,0.104-0.074,0.174c0.005,0.026,0.016,0.05,0.029,0.072
		c-0.028,0.011-0.057,0.021-0.088,0.029c-0.147-0.208-0.125-0.645-0.109-0.935l0.003-0.057c0.005-0.097-0.069-0.178-0.165-0.183
		c-0.018,0-0.027,0-0.038,0.002l-0.224,0.038c-0.039-0.135-0.057-0.255-0.055-0.359c0-0.048-0.018-0.094-0.052-0.129
		c-0.032-0.035-0.077-0.055-0.127-0.056h-0.001c-0.035,0-0.068,0.008-0.095,0.024c-0.062,0.037-0.116,0.083-0.16,0.137
		c-0.08-0.204-0.112-0.415-0.095-0.627c0.005-0.065,0.033-0.13,0.062-0.199c0.013-0.027,0.022-0.055,0.033-0.083
		c0.037-0.096-0.013-0.204-0.108-0.24c-0.039-0.014-0.08-0.016-0.119-0.004l-0.082,0.025c0.015-0.224,0.056-0.446,0.119-0.66
		c0.008-0.029,0.008-0.033,0.06-0.054c0.659-0.28,1.297-0.503,1.894-0.663c0.274-0.073,0.551-0.123,0.842-0.175
		c-0.059,0.114-0.112,0.224-0.16,0.33c-0.315,0.709-0.199,1.311,0.346,1.791l-0.034,0.012c-0.086,0.031-0.104,0.088-0.106,0.12
		c-0.004,0.032,0.004,0.092,0.082,0.138c0.031,0.018,0.063,0.027,0.095,0.027l0.015-0.001c0.35-0.035,0.672-0.086,0.956-0.153
		c0.249-0.06,0.451-0.199,0.599-0.416c0.258-0.375,0.338-0.796,0.238-1.253c-0.056-0.257-0.146-0.505-0.27-0.735
		c0.023-0.007,0.046-0.015,0.068-0.022c0.174-0.056,0.34-0.109,0.518-0.109c0.354,0,0.724,0.017,1.107,0.051
		c-0.203,0.112-0.359,0.288-0.468,0.525c-0.166,0.367-0.207,0.764-0.122,1.183c0.1,0.492,0.684,0.81,1.051,0.903
		c0.166,0.042,0.33,0.071,0.494,0.087l0.014,0.001c0.039,0,0.076-0.016,0.103-0.043c0.048-0.049,0.052-0.098,0.047-0.13
		c-0.004-0.022-0.016-0.059-0.056-0.089c0.188-0.095,0.4-0.245,0.525-0.47C147.189,138.49,147.242,139,147.351,139.491z
		 M145.035,141.914l0.002-0.001c0.001,0,0.004,0,0.006,0.003c0.007,0.031,0.003,0.053-0.014,0.074
		c-0.057,0.07-0.223,0.112-0.354,0.114l-0.006-0.115C144.798,142.003,144.919,141.977,145.035,141.914z M143.736,141.942
		c-0.06,0.144-0.17,0.202-0.34,0.188c-0.17-0.014-0.33-0.05-0.475-0.107c0.016-0.027,0.03-0.057,0.045-0.087
		c0.045-0.087,0.088-0.171,0.143-0.241l0.328,0.116C143.527,141.889,143.626,141.933,143.736,141.942z M141.498,140.942
		l-0.072-0.109c-0.063-0.093-0.184-0.138-0.291-0.107l-0.283,0.081c0.053-0.03,0.086-0.082,0.09-0.144
		c0-0.014-0.002-0.028-0.004-0.042l0.086-0.023c0.098-0.026,0.154-0.125,0.129-0.222c-0.004-0.017-0.012-0.034-0.021-0.049
		c0.08-0.015,0.16-0.035,0.238-0.061c0.113-0.038,0.214-0.039,0.332-0.037l0,0c0.115,0,0.156-0.048,0.174-0.089
		c0.02-0.046,0.01-0.093-0.023-0.141c0.107-0.004,0.211-0.011,0.312-0.019c0.075-0.007,0.133-0.02,0.18-0.041
		c0.026-0.011,0.05-0.029,0.068-0.051l0.387,0.141c-0.028,0.159,0.021,0.318,0.146,0.475c0.123,0.153,0.346,0.333,0.569,0.333
		c0.027,0,0.054-0.003,0.079-0.008c0.133-0.025,0.26-0.058,0.383-0.097c0.084-0.027,0.161-0.063,0.237-0.099
		c0.067-0.031,0.132-0.061,0.196-0.083c0.057,0.024,0.109,0.053,0.156,0.087c0.33,0.234,0.655,0.477,0.969,0.722
		c-0.12,0.08-0.203,0.188-0.247,0.323l-0.079-0.052c-0.073-0.047-0.167-0.058-0.249-0.026c-0.081,0.032-0.202,0.066-0.278,0.066
		c-0.021,0-0.031-0.003-0.031-0.003c-0.095-0.034-0.188-0.051-0.285-0.051c-0.088,0-0.176,0.014-0.25,0.027
		c-0.062,0.011-0.119-0.001-0.186-0.014c-0.051-0.009-0.104-0.02-0.162-0.022c-0.154-0.098-0.324-0.168-0.504-0.209
		c-0.101-0.09-0.218-0.177-0.388-0.198c-0.088-0.011-0.185-0.039-0.286-0.081c-0.061-0.025-0.124-0.034-0.189-0.025
		c-0.109,0.013-0.211-0.013-0.303-0.082C141.908,140.871,141.702,140.847,141.498,140.942z M146.152,141.746
		c-0.035-0.001-0.069-0.001-0.104-0.001c-0.102,0-0.203,0.003-0.301,0.01c0.018-0.068,0.041-0.133,0.072-0.196
		c0.029,0.016,0.057,0.032,0.084,0.049C145.984,141.655,146.066,141.703,146.152,141.746z M140.726,140.843
		c-0.027,0.007-0.056,0.018-0.082,0.031c0.008-0.012,0.014-0.024,0.022-0.036c0.022-0.005,0.048-0.008,0.075-0.008h0.018
		c0.002,0.001,0.008,0,0.012,0L140.726,140.843z M138.952,137.264c-0.058,0.21-0.089,0.438-0.095,0.682
		c-0.141-0.163-0.293-0.31-0.453-0.438L138.952,137.264z M144.849,135.386c0.002,0.007,0.004,0.015,0.008,0.023
		c0.026,0.074,0.076,0.134,0.125,0.187l-0.252-0.008C144.773,135.527,144.814,135.461,144.849,135.386z M147.661,139.871
		c0.047-0.063,0.065-0.149,0.065-0.232c0.164,0.262,0.328,0.513,0.493,0.75c0.337,0.481,0.563,0.944,0.788,1.415
		c0.041,0.086,0.076,0.173,0.105,0.261c-0.278-0.045-0.562-0.083-0.842-0.112c-0.147-0.016-0.367-0.047-0.651-0.092
		c-0.041-0.007-0.082-0.014-0.123-0.02c0.141-0.063,0.267-0.163,0.374-0.297c0.16-0.201,0.199-0.428,0.117-0.674
		c-0.111-0.337-0.274-0.641-0.485-0.906C147.566,139.956,147.622,139.923,147.661,139.871z M143.163,128.662
		c-1.058,0.525-2.032,1.168-2.894,1.911c-0.824,0.711-1.48,1.334-1.955,1.851c-0.092,0.103-0.187,0.205-0.28,0.306
		c-0.53,0.575-1.03,1.118-1.487,1.748c-0.044,0.061-0.092,0.115-0.143,0.165c-0.016-0.233-0.037-0.465-0.063-0.693
		c-0.159-1.388-0.211-2.804-0.237-3.884c-0.011-0.42,0.055-0.81,0.193-1.158c0.088-0.22,0.309-0.476,0.51-0.504
		c0.162-0.023,0.348,0.002,0.543,0.074c0.315,0.116,0.644,0.219,0.978,0.308c0.274,0.073,0.536,0.113,0.78,0.12
		c0.064,0.001,0.129,0.002,0.191,0.002c0.344,0,0.791-0.027,1.204-0.24c0.271-0.139,0.592-0.35,0.959-0.628
		c0.241-0.184,0.502-0.289,0.715-0.289c0.127,0,0.241,0.037,0.341,0.109C142.806,128.074,143.023,128.344,143.163,128.662z"/>
	<path d="M149.881,131.891c0.651,0.516,1.218,1.083,1.683,1.686c0.021,0.03,0.057,0.047,0.094,0.047
		c0.027,0,0.052-0.008,0.072-0.024c0.051-0.044,0.06-0.098,0.031-0.153c-0.017-0.034-0.037-0.067-0.063-0.099
		c-0.143-0.187-0.288-0.359-0.434-0.512l0.305-0.176c0.009-0.005,0.014-0.005,0.014-0.005s0.004,0.002,0.009,0.01
		c0.056,0.085,0.132,0.176,0.228,0.271c-0.012,0.025-0.024,0.049-0.039,0.072c-0.022,0.039-0.045,0.084-0.022,0.124
		c0.022,0.039,0.065,0.049,0.146,0.014c0.07-0.03,0.098-0.009,0.146,0.055c0.041,0.054,0.093,0.125,0.196,0.104
		c0.037-0.006,0.054-0.026,0.063-0.042c0.01-0.016,0.016-0.042,0-0.077l-0.05-0.118c0.068-0.005,0.142-0.026,0.216-0.057
		c0.067-0.028,0.096-0.081,0.076-0.141c-0.013-0.043-0.047-0.068-0.092-0.068c-0.114,0-0.223,0.022-0.322,0.064
		c-0.023,0.01-0.039,0.025-0.076-0.018l-0.229-0.269c-0.001-0.001-0.002-0.002-0.002-0.002c0.001-0.001,0.002-0.001,0.003-0.001
		l0.315-0.096c0.053-0.016,0.084-0.07,0.071-0.123c-0.001-0.008-0.005-0.019-0.01-0.029c-0.024-0.054-0.071-0.084-0.138-0.075
		c-0.127,0.016-0.248,0.052-0.358,0.107c-0.045,0.022-0.101,0.007-0.13-0.034c-0.09-0.129-0.197-0.225-0.322-0.286
		c-0.039-0.02-0.091-0.002-0.111,0.038c-0.008,0.014-0.01,0.03-0.008,0.047c0.014,0.125,0.137,0.23,0.227,0.307l0.035,0.03
		c0.004,0.004,0.007,0.007,0.009,0.009c-0.002,0.001-0.007,0.004-0.011,0.006l-0.264,0.151c-0.011,0.007-0.021,0.01-0.029,0.01
		c-0.004,0-0.017,0-0.035-0.021c-0.051-0.063-0.131-0.141-0.239-0.238c-0.237-0.212-0.472-0.409-0.692-0.585
		c-0.035-0.029-0.076-0.055-0.119-0.078c-0.074-0.04-0.142-0.017-0.17,0.053C149.835,131.811,149.849,131.861,149.881,131.891z"/>
</g>
</svg>
