<?xml version="1.0" encoding="utf-8"?>
<!-- Generator: Adobe Illustrator 16.0.0, SVG Export Plug-In . SVG Version: 6.00 Build 0)  -->
<!DOCTYPE svg PUBLIC "-//W3C//DTD SVG 1.1//EN" "http://www.w3.org/Graphics/SVG/1.1/DTD/svg11.dtd">
<svg version="1.1" id="SAO" xmlns="http://www.w3.org/2000/svg" xmlns:xlink="http://www.w3.org/1999/xlink" x="0px" y="0px"
	 width="288px" height="288px" viewBox="0 0 288 288" enable-background="new 0 0 288 288" xml:space="preserve">
<g id="Silver">
	<g>
		<path d="M139.188,157.531c-0.094,0.494-0.142,0.777-0.142,0.777l0.037,0.008c0,0,0.041-0.123,0.113-0.352
			c-0.001,0.003-0.002,0.006-0.003,0.01l0.02,0.024l2.277-1.854l1.997,4.174l0.097-0.047l0.067,0.032l1.998-4.175l2.277,1.855
			l0.021-0.025c0.069,0.223,0.11,0.343,0.11,0.343l0.037-0.008c0,0-0.048-0.283-0.142-0.778c-0.024-0.123-0.049-0.261-0.081-0.408
			c-0.034-0.148-0.072-0.309-0.111-0.479c-0.041-0.171-0.086-0.354-0.132-0.543c-0.048-0.191-0.104-0.391-0.161-0.598
			c-0.059-0.207-0.119-0.424-0.183-0.647c-0.067-0.222-0.14-0.452-0.212-0.688c-0.037-0.117-0.074-0.236-0.111-0.357
			c-0.04-0.12-0.08-0.242-0.121-0.363c-0.08-0.248-0.166-0.496-0.254-0.752c-0.178-0.507-0.369-1.029-0.566-1.558
			c-0.197-0.527-0.39-1.067-0.582-1.606c-0.094-0.266-0.176-0.541-0.264-0.811c-0.037-0.133-0.076-0.264-0.115-0.395
			c-0.09,0.017-0.18,0.032-0.271,0.047c0.037,0.142,0.075,0.283,0.112,0.427c0.082,0.276,0.158,0.552,0.248,0.829
			c0.086,0.263,0.172,0.523,0.258,0.785l-0.934-2c-0.027,0.004-0.054,0.006-0.081,0.009l0.957,2.047l-0.021,0.003l-1.6-0.497
			l-0.008-0.011l-0.001,0.001l0.58-1.536c-0.028,0.003-0.056,0.005-0.084,0.007l-0.51,1.351c-0.003-0.444-0.005-0.888-0.008-1.326
			c-0.041,0.002-0.082,0.004-0.124,0.004c-0.041,0-0.082-0.001-0.123-0.002c-0.003,0.443-0.006,0.89-0.009,1.339l-0.514-1.362
			c-0.028-0.002-0.056-0.005-0.084-0.008l0.585,1.55l-0.001-0.001l-0.008,0.012l-1.6,0.496l-0.021-0.002l0.962-2.063
			c-0.027-0.002-0.055-0.004-0.082-0.008l-0.939,2.014c0.085-0.262,0.171-0.521,0.258-0.784c0.089-0.278,0.164-0.554,0.247-0.83
			c0.037-0.147,0.076-0.294,0.114-0.44c-0.09-0.014-0.18-0.027-0.271-0.043c-0.038,0.134-0.079,0.269-0.116,0.404
			c-0.088,0.27-0.17,0.545-0.265,0.811c-0.192,0.539-0.386,1.08-0.583,1.607c-0.195,0.528-0.387,1.051-0.566,1.557
			c-0.086,0.256-0.174,0.506-0.254,0.75c-0.041,0.123-0.082,0.246-0.121,0.365c-0.037,0.121-0.074,0.24-0.11,0.358
			c-0.073,0.237-0.144,0.466-0.214,0.688c-0.063,0.223-0.122,0.439-0.182,0.646c-0.058,0.208-0.113,0.407-0.162,0.598
			c-0.047,0.19-0.09,0.373-0.131,0.543c-0.039,0.17-0.076,0.332-0.111,0.479C139.239,157.271,139.217,157.409,139.188,157.531z
			 M144.07,150.673l-0.358,0.062c-0.001-0.115-0.002-0.229-0.003-0.344c0-0.066-0.001-0.135-0.001-0.201L144.07,150.673z
			 M146.021,153.91l-2.29,0.417c0.001-0.035,0.001-0.069,0.001-0.103l0.012,0.006l0.262-0.535L146.021,153.91z M144.043,153.622
			l0.883-1.808l1.51,2.02l-0.147,0.027L144.043,153.622z M143.735,153.904c-0.001-0.079-0.001-0.158-0.001-0.238l0.112,0.012
			L143.735,153.904z M143.725,152.232c-0.004-0.444-0.008-0.893-0.012-1.342l0.46-0.078l0.649,0.867l-0.941,1.926l-0.148-0.017
			C143.73,153.145,143.728,152.689,143.725,152.232z M145.161,150.486l-0.922,0.158l-0.433-0.578L145.161,150.486z M145.344,150.611
			l-0.445,0.912l-0.555-0.74L145.344,150.611z M146.521,153.691l-1.521-2.029l0.491-1.005c0.064,0.196,0.129,0.392,0.191,0.586
			c0.178,0.536,0.354,1.062,0.529,1.569C146.314,153.111,146.419,153.404,146.521,153.691z M145.756,155.917l0.893-1.865
			c-0.002-0.007-0.006-0.014-0.008-0.021c0.028,0.08,0.058,0.162,0.084,0.242c0.164,0.463,0.317,0.901,0.453,1.308
			c0.07,0.203,0.137,0.397,0.2,0.582c0.06,0.187,0.116,0.362,0.171,0.528s0.105,0.32,0.152,0.463
			c0.047,0.144,0.085,0.277,0.122,0.396c0.007,0.023,0.014,0.047,0.021,0.069L145.756,155.917z M145.572,155.768l-1.546-1.262
			l-0.292,0.055l2.646-0.483L145.572,155.768z M143.622,159.84c0.005-0.117,0.01-0.258,0.017-0.418
			c0.005-0.134,0.011-0.283,0.017-0.445c0.004-0.164,0.009-0.338,0.014-0.526c0.009-0.376,0.024-0.8,0.031-1.263
			c0.005-0.232,0.009-0.473,0.013-0.722c0.003-0.25,0.006-0.507,0.009-0.772c0.004-0.252,0.005-0.512,0.005-0.777
			c0.001-0.117,0.002-0.234,0.003-0.354l1.74,1.418L143.622,159.84z M142.146,151.676l-1.52,2.029
			c0.102-0.286,0.204-0.578,0.307-0.878c0.176-0.507,0.353-1.033,0.529-1.57c0.063-0.194,0.129-0.391,0.192-0.586L142.146,151.676z
			 M143.265,153.62l-0.94-1.927l0.648-0.866l0.46,0.079c-0.004,0.449-0.008,0.898-0.012,1.341c-0.002,0.459-0.005,0.913-0.007,1.356
			L143.265,153.62z M143.413,153.682c0,0.079-0.001,0.158-0.001,0.237l-0.111-0.228L143.413,153.682z M143.413,154.342l-2.289-0.417
			l2.015-0.215l0.262,0.535l0.012-0.006C143.413,154.273,143.413,154.309,143.413,154.342z M140.857,153.876l-0.147-0.026
			l1.513-2.02l0.881,1.807L140.857,153.876z M142.804,150.797l-0.555,0.741l-0.444-0.912L142.804,150.797z M143.341,150.081
			l-0.434,0.579l-0.922-0.158L143.341,150.081z M143.439,150.205c0,0.066-0.001,0.134-0.001,0.201
			c-0.001,0.115-0.002,0.229-0.003,0.344l-0.358-0.061L143.439,150.205z M141.678,155.995l1.739-1.417
			c0,0.126,0.001,0.25,0.002,0.374c0.001,0.248,0.002,0.491,0.005,0.728c0.003,0.264,0.006,0.522,0.008,0.771
			c0.005,0.249,0.009,0.49,0.013,0.722c0.007,0.462,0.022,0.886,0.031,1.263c0.005,0.188,0.01,0.363,0.014,0.525
			c0.006,0.163,0.012,0.313,0.017,0.447c0.007,0.175,0.013,0.326,0.018,0.449L141.678,155.995z M140.766,154.092l2.355,0.43
			l-1.546,1.261L140.766,154.092z M139.303,157.635c0.008-0.021,0.014-0.045,0.021-0.068c0.037-0.121,0.074-0.252,0.122-0.396
			c0.047-0.145,0.098-0.299,0.153-0.465c0.053-0.165,0.108-0.341,0.17-0.527c0.063-0.186,0.129-0.38,0.199-0.582
			c0.137-0.408,0.289-0.846,0.452-1.309c0.028-0.08,0.058-0.161,0.085-0.242c-0.003,0.007-0.005,0.014-0.008,0.021l0.895,1.865
			L139.303,157.635z"/>
		<path d="M142.703,145.785c0.068,0.01,0.138,0.018,0.207,0.027c0.014-0.082,0.029-0.164,0.043-0.244
			c0.02-0.113,0.04-0.226,0.059-0.336l0.13,0.487l-0.041,0.11c0.051,0.004,0.102,0.009,0.153,0.012l-0.031-0.119l0.237-0.634
			l0.014,0.004c-0.002,0.246-0.004,0.498-0.006,0.757c0.035,0,0.07,0.002,0.105,0.002c0.035,0,0.07-0.002,0.105-0.002
			c-0.002-0.264-0.004-0.521-0.006-0.771l0.013-0.004l0.238,0.634l-0.036,0.134c0.027-0.001,0.054-0.004,0.081-0.006l0.001-0.004
			l0.001,0.004c0.027-0.002,0.053-0.004,0.08-0.007l-0.047-0.124l0.13-0.488c0.019,0.111,0.039,0.223,0.059,0.336
			c0.015,0.086,0.03,0.172,0.045,0.258c0.069-0.006,0.139-0.016,0.207-0.026c-0.018-0.089-0.036-0.181-0.054-0.269
			c-0.052-0.252-0.1-0.5-0.145-0.742c-0.073-0.361-0.128-0.71-0.19-1.042c-0.048,0.007-0.097,0.011-0.146,0.016
			c0.034,0.215,0.065,0.441,0.099,0.673l-0.208-0.603l0.011-0.062c-0.037,0.002-0.075,0.003-0.112,0.004l0.021,0.063l-0.056,0.311
			c-0.001-0.127-0.002-0.251-0.003-0.373c-0.029,0.001-0.059,0.003-0.088,0.003c-0.03,0-0.059-0.002-0.088-0.002
			c-0.001,0.126-0.002,0.255-0.003,0.386l-0.056-0.31l0.026-0.077c-0.04-0.001-0.079-0.003-0.119-0.006l0.014,0.077l-0.208,0.603
			c0.035-0.238,0.066-0.467,0.101-0.687c-0.049-0.004-0.098-0.01-0.146-0.017c-0.063,0.335-0.119,0.689-0.193,1.056
			c-0.045,0.242-0.093,0.49-0.145,0.742C142.739,145.613,142.723,145.699,142.703,145.785z M143.758,145.049l0.331-0.107
			c0.005,0.029,0.009,0.06,0.014,0.09l-0.146,0.549L143.758,145.049z M143.67,144.781l0.337,0.107l-0.275,0.09l-0.062-0.166
			C143.67,144.802,143.67,144.79,143.67,144.781z M143.668,144.543l0.104-0.572l0.295,0.857l-0.398-0.129
			C143.669,144.646,143.668,144.596,143.668,144.543z M143.478,144.714l-0.398,0.129l0.295-0.857l0.104,0.573
			C143.478,144.609,143.478,144.661,143.478,144.714z M143.415,144.993l-0.274-0.091l0.336-0.107c0,0.012,0,0.021,0,0.032
			L143.415,144.993z M143.043,145.047c0.005-0.029,0.009-0.061,0.014-0.089l0.331,0.106l-0.198,0.531L143.043,145.047z"/>
		<path d="M143.63,140.527c0,0-0.001-0.005-0.001-0.011c0.164-0.026,0.289-0.168,0.289-0.339c0-0.191-0.155-0.345-0.345-0.345
			c-0.191,0-0.345,0.154-0.345,0.345c0,0.172,0.126,0.313,0.291,0.339c-0.002,0.015-0.003,0.025-0.003,0.025
			s-0.002,0.206-0.005,0.575c-0.005,0.059-0.009,0.124-0.014,0.192c0.026,0.002,0.051,0.004,0.077,0.004s0.052-0.003,0.077-0.005
			c-0.005-0.074-0.01-0.144-0.014-0.207C143.633,140.731,143.63,140.527,143.63,140.527z M143.617,140.023
			c0,0.067-0.06,0.122-0.134,0.122c-0.073,0-0.133-0.054-0.133-0.122s0.06-0.122,0.133-0.122
			C143.556,139.901,143.617,139.956,143.617,140.023z"/>
		<path d="M143.132,143.544c0.046,0.007,0.093,0.012,0.139,0.016c0.005-0.024,0.009-0.049,0.013-0.073l0.014,0.075
			c0.026,0.003,0.052,0.005,0.078,0.006l-0.041-0.228l0.154,0.02c0,0.021,0,0.043,0,0.064l-0.051,0.146
			c0.045,0.002,0.09,0.003,0.135,0.003c0.047,0,0.094-0.003,0.14-0.005l-0.055-0.16c0-0.022,0-0.043,0-0.065l0.154-0.02
			l-0.043,0.242c0.026-0.001,0.052-0.002,0.078-0.004l0.017-0.09c0.005,0.028,0.009,0.057,0.014,0.086
			c0.047-0.005,0.094-0.01,0.14-0.016c-0.009-0.045-0.018-0.09-0.027-0.134c-0.084-0.421-0.162-0.807-0.217-1.151
			c-0.03-0.171-0.05-0.333-0.072-0.482c-0.015-0.122-0.027-0.234-0.039-0.339c-0.029,0.002-0.059,0.005-0.089,0.005
			c-0.029,0-0.059-0.003-0.088-0.005c-0.013,0.11-0.026,0.227-0.04,0.354c-0.023,0.149-0.042,0.311-0.072,0.482
			c-0.055,0.344-0.133,0.73-0.217,1.151C143.148,143.461,143.14,143.502,143.132,143.544z M143.646,142.023
			c0.008,0.08,0.018,0.163,0.03,0.248c0.037,0.296,0.09,0.623,0.149,0.974l-0.168,0.021
			C143.653,142.802,143.648,142.385,143.646,142.023z M143.322,143.259c0.058-0.351,0.111-0.678,0.149-0.973
			c0.012-0.086,0.022-0.169,0.031-0.249c-0.004,0.362-0.008,0.78-0.012,1.243L143.322,143.259z"/>
		<path d="M142.176,148.004c0.088,0.016,0.176,0.029,0.265,0.042c0.007-0.024,0.014-0.051,0.02-0.075
			c0.028-0.119,0.056-0.238,0.083-0.354l0.176,0.465c0.028,0.003,0.057,0.006,0.084,0.008l-0.229-0.606
			c0.006-0.033,0.014-0.065,0.021-0.098l0.522,0.078l-0.293,0.628c0.027,0.003,0.054,0.005,0.081,0.009l0.292-0.625l0.26,0.039
			c-0.001,0.202-0.002,0.406-0.003,0.612c0.04,0,0.081,0.002,0.121,0.002s0.08-0.003,0.121-0.003
			c-0.002-0.211-0.003-0.419-0.004-0.626l0.26-0.039l0.297,0.638c0.028-0.003,0.055-0.005,0.082-0.008l-0.3-0.642l0.522-0.078
			c0.008,0.032,0.015,0.065,0.021,0.097l-0.235,0.623c0.028-0.003,0.056-0.005,0.084-0.008l0.182-0.48
			c0.027,0.119,0.055,0.235,0.082,0.354c0.008,0.028,0.016,0.06,0.022,0.088c0.089-0.013,0.177-0.026,0.265-0.043
			c-0.01-0.037-0.021-0.074-0.031-0.11c-0.145-0.543-0.278-1.082-0.391-1.604c-0.019-0.085-0.037-0.169-0.056-0.253
			c-0.071,0.01-0.142,0.019-0.214,0.027c0.017,0.09,0.034,0.18,0.052,0.271c0.035,0.187,0.074,0.376,0.114,0.565l-0.307-0.819
			c-0.026,0.003-0.053,0.004-0.079,0.007l0.376,1.007l-0.723-0.315l0.181-0.678c-0.027,0-0.054,0.002-0.08,0.002l-0.134,0.504
			c-0.002-0.17-0.003-0.336-0.004-0.5c-0.035,0-0.071,0.002-0.107,0.002s-0.071-0.002-0.107-0.002
			c-0.001,0.17-0.003,0.34-0.004,0.515l-0.138-0.519c-0.026-0.002-0.053-0.002-0.08-0.002l0.185,0.692l-0.723,0.315l0.382-1.021
			c-0.026-0.003-0.053-0.004-0.079-0.007l-0.313,0.835c0.04-0.189,0.079-0.379,0.115-0.566c0.018-0.096,0.036-0.188,0.054-0.283
			c-0.071-0.008-0.144-0.018-0.213-0.029c-0.021,0.089-0.039,0.178-0.06,0.269c-0.113,0.524-0.244,1.063-0.391,1.604
			C142.194,147.939,142.184,147.973,142.176,148.004z M144.496,147.115L144.496,147.115L144.496,147.115
			C144.496,147.116,144.496,147.116,144.496,147.115z M143.764,146.881l0.753,0.328c0.006,0.029,0.013,0.059,0.02,0.088
			l-0.541,0.081L143.764,146.881z M143.687,146.896l0.23,0.494l-0.227,0.033C143.689,147.246,143.688,147.07,143.687,146.896z
			 M142.651,147.13L142.651,147.13C142.65,147.131,142.65,147.13,142.651,147.13L142.651,147.13z M143.229,147.404l0.23-0.493
			c-0.001,0.174-0.002,0.349-0.003,0.526L143.229,147.404z M142.61,147.313c0.007-0.029,0.014-0.06,0.021-0.088l0.752-0.328
			l-0.232,0.496L142.61,147.313z"/>
	</g>
	<g id="Lighning">
		<polygon points="147.245,143.521 149.354,145.494 147.693,141.926 146.701,142.987 144.592,141.015 146.253,144.583 		"/>
		<polygon points="149.044,139.869 151.92,139.604 148.148,138.474 148.283,139.921 145.407,140.186 149.178,141.315 		"/>
		<polygon points="146.796,136.825 148.813,134.756 145.21,136.344 146.251,137.358 144.235,139.426 147.837,137.839 		"/>
		<polygon points="141.283,135.862 139.785,133.394 140.422,137.278 141.664,136.523 143.162,138.992 142.525,135.108 		"/>
		<polygon points="138.588,140.017 135.7,140.036 139.36,141.483 139.352,140.03 142.239,140.011 138.579,138.564 		"/>
		<polygon points="139.617,145.264 138.192,147.775 141.273,145.325 140.01,144.609 141.434,142.096 138.352,144.547 		"/>
	</g>
</g>
<g id="Black">
	<g>
		<g id="Outer">
			<path d="M139.588,132.982c-2.46,1.364-4.152,3.947-4.256,6.927l0.32-0.002c0.104-2.818,1.684-5.264,3.99-6.587L139.588,132.982z"
				/>
			<path d="M149.635,145.791c1.356-1.471,2.188-3.434,2.188-5.589c0-0.154-0.005-0.306-0.013-0.458l-0.32,0.029
				c0.008,0.142,0.012,0.285,0.012,0.429c0,2.023-0.763,3.871-2.015,5.272L149.635,145.791z"/>
			<path d="M151.786,139.43c-0.392-4.188-3.924-7.478-8.212-7.478c-1.416,0-2.749,0.359-3.914,0.989l0.167,0.275
				c1.118-0.601,2.394-0.943,3.747-0.943c2.135,0,4.074,0.85,5.501,2.227l0.292-0.128l-0.206,0.21
				c1.25,1.244,2.089,2.902,2.292,4.748L151.786,139.43z"/>
			<path d="M135.329,140.025c-0.002,0.058-0.005,0.116-0.005,0.175c0,2.686,1.29,5.075,3.283,6.582l0.16-0.282
				c-1.896-1.449-3.123-3.733-3.123-6.299c0-0.016,0.002-0.033,0.002-0.049L135.329,140.025z"/>
			<path d="M139.163,147.169c1.278,0.81,2.789,1.282,4.411,1.282c2.357,0,4.484-0.995,5.988-2.585l-0.233-0.22
				c-1.446,1.527-3.489,2.483-5.755,2.483c-1.52,0-2.938-0.43-4.145-1.173L139.163,147.169z"/>
		</g>
		<g id="_x33_rd_ring">
			<path d="M147.018,135.407c-0.971-0.699-2.16-1.112-3.443-1.112c-0.971,0-1.887,0.236-2.695,0.653l0.135,0.22
				c0.769-0.393,1.64-0.616,2.561-0.616c1.174,0,2.266,0.361,3.17,0.976L147.018,135.407z"/>
			<path d="M140,135.503c-1.34,1.021-2.232,2.602-2.324,4.391l0.258-0.001c0.09-1.657,0.896-3.125,2.115-4.101L140,135.503z"/>
			<path d="M137.721,140.971c0.144,1.097,0.588,2.099,1.248,2.922l0.2-0.16c-0.604-0.751-1.021-1.659-1.176-2.653L137.721,140.971z"
				/>
			<path d="M141.153,145.586c0.739,0.333,1.559,0.521,2.421,0.521c1.684,0,3.202-0.709,4.279-1.842l-0.188-0.175
				c-1.029,1.083-2.482,1.76-4.092,1.76c-0.779,0-1.521-0.158-2.196-0.443L141.153,145.586z"/>
			<path d="M148.398,143.137l0.127,0.275c0.603-0.924,0.953-2.027,0.953-3.21c0-0.082-0.002-0.162-0.006-0.243l-0.256,0.023
				c0.004,0.073,0.006,0.146,0.006,0.22c0,0.055-0.004,0.109-0.004,0.163l0.104,1.128l-0.234-0.07
				C148.952,142.038,148.717,142.615,148.398,143.137z"/>
			<path d="M149.279,138.678c-0.271-1.016-0.807-1.925-1.529-2.648l-0.179,0.184c0.653,0.654,1.146,1.468,1.417,2.377
				L149.279,138.678z"/>
		</g>
		<g id="Second_ring">
			<path d="M140.951,142.316c-0.467-0.579-0.748-1.314-0.748-2.114c0-0.017,0.001-0.033,0.001-0.049l-0.192,0.001
				c0,0.016,0,0.032,0,0.048c0,0.845,0.295,1.622,0.789,2.234L140.951,142.316z"/>
			<path d="M141.953,137.249l-0.1-0.165c-0.772,0.427-1.371,1.134-1.656,1.982l0.18,0.071
				C140.646,138.327,141.217,137.653,141.953,137.249z"/>
			<path d="M145.914,137.518c-0.627-0.547-1.445-0.88-2.341-0.88c-0.224,0-0.444,0.022-0.657,0.062l0.031,0.19
				c0.203-0.038,0.412-0.059,0.626-0.059c0.844,0,1.614,0.312,2.207,0.826L145.914,137.518z"/>
			<path d="M146.693,138.483l-0.178,0.078c0.229,0.407,0.373,0.866,0.416,1.355l0.19-0.018
				C147.079,139.389,146.93,138.91,146.693,138.483z"/>
			<path d="M141.167,142.825c0.636,0.582,1.479,0.938,2.407,0.938c0.698,0,1.35-0.203,1.9-0.551l-0.082-0.176
				c-0.525,0.338-1.149,0.535-1.818,0.535c-0.893,0-1.705-0.349-2.309-0.918L141.167,142.825z"/>
			<path d="M146.895,140.766c-0.099,0.586-0.349,1.121-0.709,1.563l0.141,0.132c0.38-0.464,0.646-1.025,0.755-1.64L146.895,140.766z
				"/>
		</g>
		<g id="Center">
			<path d="M144.281,139.195c-0.2-0.145-0.444-0.231-0.708-0.231c-0.097,0-0.191,0.012-0.281,0.034l0.021,0.126
				c0.084-0.02,0.17-0.032,0.26-0.032c0.229,0,0.442,0.072,0.618,0.196L144.281,139.195z"/>
			<path d="M143.131,139.188l-0.067-0.111c-0.339,0.161-0.595,0.475-0.679,0.854l0.121,0.047
				C142.576,139.624,142.814,139.332,143.131,139.188z"/>
			<g>
				<path d="M144.607,140.855c0.117-0.19,0.186-0.413,0.186-0.653c0-0.289-0.098-0.554-0.262-0.765l-0.121,0.053
					c0.159,0.193,0.255,0.441,0.255,0.712c0,0.206-0.056,0.397-0.153,0.563L144.607,140.855z"/>
				<path d="M142.354,140.202c0,0.682,0.548,1.238,1.22,1.238c0.352,0,0.668-0.153,0.891-0.395l-0.059-0.126
					c-0.201,0.24-0.499,0.393-0.832,0.393c-0.602,0-1.091-0.498-1.091-1.11c0-0.022,0.002-0.043,0.003-0.064h-0.13
					C142.355,140.159,142.354,140.18,142.354,140.202z"/>
			</g>
		</g>
	</g>
</g>
</svg>
