<?xml version="1.0" encoding="utf-8"?>
<!-- Generator: Adobe Illustrator 16.0.0, SVG Export Plug-In . SVG Version: 6.00 Build 0)  -->
<!DOCTYPE svg PUBLIC "-//W3C//DTD SVG 1.1//EN" "http://www.w3.org/Graphics/SVG/1.1/DTD/svg11.dtd">
<svg version="1.1" id="Shenanigans_R_US_Circle" xmlns="http://www.w3.org/2000/svg" xmlns:xlink="http://www.w3.org/1999/xlink"
	 x="0px" y="0px" width="216px" height="216px" viewBox="0 0 216 216" enable-background="new 0 0 216 216" xml:space="preserve">
<g id="US">
	<path d="M108.309,115.138c0.396,0.561,0.617,1.144,0.666,1.747c-0.014,0.733-0.335,1.126-0.964,1.177
		c-0.212,0.018-0.454-0.041-0.724-0.176c-0.636-0.402-1.015-1.04-1.137-1.912l-0.06-0.517c-0.003-0.144,0.063-0.219,0.2-0.226
		c0.315-0.04,0.478,0.013,0.488,0.157c0.076,0.683,0.212,1.151,0.407,1.408c0.196,0.256,0.371,0.375,0.524,0.357
		c0.21-0.016,0.308-0.154,0.293-0.415c0.006-0.229-0.158-0.641-0.493-1.236c-0.033-0.095-0.008-0.17,0.077-0.225
		c0.136-0.081,0.292-0.146,0.468-0.194C108.161,115.042,108.246,115.061,108.309,115.138z M104.556,116.139
		c0.052-0.017,0.098-0.046,0.137-0.087c0.039-0.04,0.06-0.082,0.064-0.126c0.003-0.041-0.011-0.082-0.042-0.119
		s-0.068-0.068-0.113-0.094c-0.045-0.026-0.092-0.041-0.142-0.045c-0.051-0.004-0.103,0.003-0.157,0.02s-0.102,0.032-0.145,0.046
		c-0.042,0.013-0.083,0.022-0.121,0.026c-0.039,0.005-0.078-0.011-0.118-0.049s-0.071-0.093-0.092-0.167
		c-0.021-0.072-0.002-0.142,0.058-0.207c0.07-0.046,0.16-0.088,0.27-0.127c0.109-0.039,0.216-0.064,0.321-0.076
		c0.104-0.013,0.2-0.016,0.286-0.01c0.086,0.005,0.183,0.025,0.291,0.059c0.107,0.033,0.213,0.077,0.317,0.131
		c0.104,0.055,0.189,0.112,0.254,0.175c0.066,0.063,0.124,0.136,0.173,0.219c0.05,0.084,0.077,0.162,0.082,0.234
		c0.004,0.074,0.006,0.146,0.005,0.218c-0.001,0.072-0.042,0.166-0.122,0.281c-0.08,0.116-0.267,0.255-0.561,0.416
		c-0.167,0.092-0.272,0.154-0.314,0.189c-0.042,0.035-0.069,0.072-0.08,0.111c-0.011,0.04-0.008,0.078,0.007,0.114
		c0.016,0.037,0.038,0.066,0.066,0.087c0.027,0.021,0.067,0.036,0.119,0.044c0.051,0.008,0.112,0.007,0.183-0.003
		c0.071-0.01,0.179-0.049,0.326-0.118c0.116-0.075,0.198-0.127,0.245-0.152c0.048-0.025,0.094-0.028,0.139-0.009
		c0.044,0.02,0.069,0.066,0.074,0.143c0.005,0.075,0.004,0.149-0.003,0.223c-0.008,0.072-0.038,0.126-0.09,0.16
		c-0.084,0.075-0.167,0.133-0.248,0.174c-0.081,0.04-0.189,0.079-0.326,0.116c-0.136,0.038-0.267,0.058-0.392,0.062
		s-0.261-0.004-0.408-0.021c-0.147-0.018-0.283-0.053-0.409-0.105c-0.125-0.053-0.226-0.119-0.304-0.198
		c-0.079-0.079-0.138-0.158-0.178-0.237c-0.04-0.08-0.065-0.17-0.077-0.271c-0.011-0.1-0.006-0.192,0.016-0.276
		c0.021-0.085,0.066-0.165,0.135-0.242c0.069-0.076,0.145-0.146,0.229-0.21c0.083-0.063,0.206-0.129,0.369-0.197
		C104.412,116.188,104.504,116.154,104.556,116.139z"/>
</g>
<path d="M98.776,95.313c0.602-0.398,1.617-0.763,3.046-1.094s2.657-0.504,3.683-0.519c1.027-0.015,1.861,0.056,2.504,0.214
	c0.643,0.158,1.21,0.371,1.703,0.637c0.492,0.267,0.923,0.564,1.292,0.892c0.369,0.328,0.698,0.739,0.987,1.235
	c0.29,0.497,0.491,1.032,0.604,1.607c0.113,0.575,0.109,1.132-0.011,1.669c-0.12,0.539-0.324,1.029-0.608,1.473
	c-0.287,0.444-0.922,1.071-1.908,1.884c0.143,0.248,0.368,0.59,0.677,1.026c0.31,0.437,0.662,0.818,1.062,1.146
	c0.398,0.327,0.833,0.615,1.303,0.863s0.889,0.515,1.258,0.801c0.443,0.384,0.492,0.82,0.146,1.309
	c-0.64,0.813-1.295,1.408-1.968,1.788c-0.674,0.38-1.26,0.463-1.761,0.248c-0.5-0.214-0.933-0.456-1.298-0.727
	c-0.364-0.271-0.763-0.631-1.195-1.078c-0.433-0.448-0.886-0.918-1.359-1.411c-0.474-0.492-0.805-0.883-0.993-1.173
	c-0.188-0.289-0.387-0.462-0.598-0.519c-0.211-0.056-0.421-0.063-0.632-0.022c-0.21,0.041-0.336,0.152-0.377,0.333
	c-0.042,0.181-0.04,0.532,0.005,1.055c0.045,0.523,0.1,1.032,0.164,1.528c0.064,0.497,0.043,0.907-0.062,1.23
	s-0.304,0.535-0.598,0.638c-0.293,0.102-0.679,0.139-1.156,0.112c-0.478-0.026-0.937-0.067-1.376-0.124s-0.799-0.169-1.077-0.339
	c-0.278-0.169-0.489-0.441-0.632-0.817c-0.143-0.376-0.387-1.228-0.733-2.555c-0.346-1.327-0.594-2.845-0.745-4.552
	c-0.151-1.707-0.264-3.316-0.338-4.828C97.844,96.355,98.175,95.712,98.776,95.313z M102.883,97.852
	c0,1.053,0.041,2.015,0.125,2.888c1.361,0.09,2.293,0.081,2.797-0.028c0.504-0.109,0.914-0.267,1.229-0.474
	c0.316-0.207,0.545-0.481,0.688-0.823s0.045-0.688-0.293-1.038c-0.339-0.35-0.793-0.549-1.365-0.598
	C105.493,97.729,104.432,97.754,102.883,97.852z"/>
<path id="Circle" d="M93.857,102.477c0,6.921,5.63,12.551,12.551,12.551s12.551-5.63,12.551-12.551s-5.63-12.551-12.551-12.551
	S93.857,95.556,93.857,102.477z M94.557,102.477c0-6.534,5.317-11.851,11.851-11.851c6.535,0,11.851,5.317,11.851,11.851
	c0,6.535-5.315,11.851-11.851,11.851C99.874,114.327,94.557,109.012,94.557,102.477z"/>
<g id="Shenanigans_1_">
	<path d="M118.53,94.322c0.046,0.03,0.098,0.046,0.154,0.051c0.056,0.004,0.102-0.006,0.137-0.03
		c0.034-0.024,0.057-0.06,0.065-0.107c0.01-0.047,0.01-0.097,0.001-0.147c-0.008-0.051-0.027-0.097-0.057-0.138
		s-0.067-0.078-0.114-0.109c-0.048-0.031-0.09-0.059-0.127-0.083c-0.038-0.024-0.07-0.049-0.099-0.076
		c-0.027-0.026-0.04-0.067-0.036-0.123c0.003-0.055,0.026-0.114,0.069-0.177s0.108-0.092,0.196-0.087
		c0.079,0.025,0.17,0.067,0.27,0.127c0.1,0.06,0.188,0.126,0.264,0.199c0.076,0.073,0.139,0.145,0.189,0.215
		c0.051,0.07,0.097,0.157,0.14,0.261c0.042,0.104,0.075,0.214,0.101,0.329c0.023,0.114,0.033,0.217,0.026,0.307
		c-0.006,0.091-0.025,0.182-0.059,0.273c-0.033,0.092-0.076,0.162-0.129,0.212c-0.053,0.05-0.107,0.098-0.164,0.143
		s-0.154,0.073-0.295,0.085c-0.14,0.011-0.365-0.044-0.678-0.168c-0.177-0.071-0.292-0.112-0.346-0.122
		c-0.055-0.011-0.1-0.008-0.137,0.009c-0.037,0.017-0.065,0.043-0.084,0.079c-0.019,0.036-0.026,0.071-0.025,0.106
		c0.002,0.035,0.016,0.075,0.042,0.119c0.026,0.045,0.066,0.091,0.118,0.14c0.054,0.048,0.152,0.107,0.299,0.177
		c0.133,0.042,0.224,0.072,0.273,0.093c0.05,0.02,0.081,0.054,0.095,0.101c0.014,0.046-0.008,0.096-0.063,0.148
		s-0.112,0.098-0.174,0.139c-0.061,0.041-0.121,0.051-0.181,0.033c-0.112-0.017-0.209-0.044-0.291-0.081
		c-0.083-0.037-0.183-0.096-0.298-0.178s-0.214-0.169-0.297-0.264c-0.082-0.094-0.163-0.204-0.243-0.329
		c-0.081-0.125-0.14-0.252-0.179-0.382c-0.039-0.129-0.053-0.25-0.041-0.361c0.011-0.111,0.034-0.207,0.071-0.288
		c0.035-0.081,0.089-0.158,0.159-0.23c0.07-0.073,0.145-0.127,0.223-0.165c0.079-0.037,0.17-0.054,0.272-0.049
		c0.104,0.004,0.206,0.018,0.308,0.042c0.103,0.024,0.231,0.077,0.387,0.159C118.399,94.243,118.484,94.292,118.53,94.322z
		 M116.216,92.825c-0.107-0.123-0.193-0.239-0.257-0.349c-0.198,0.167-0.364,0.288-0.497,0.361c-0.094,0.055-0.18,0.089-0.258,0.104
		c-0.056,0.015-0.107,0.011-0.154-0.011c-0.056-0.024-0.108-0.062-0.16-0.112c-0.053-0.051-0.097-0.1-0.132-0.147
		c-0.051-0.067-0.08-0.13-0.087-0.19s0.033-0.12,0.12-0.18c0.301-0.205,0.604-0.459,0.911-0.763
		c0.307-0.304,0.546-0.605,0.719-0.905c0.019-0.031,0.038-0.063,0.058-0.098c0.019-0.034,0.041-0.064,0.066-0.091
		c0.047-0.045,0.104-0.054,0.169-0.026c0.065,0.028,0.129,0.073,0.191,0.134c0.062,0.062,0.116,0.128,0.162,0.2
		c0.047,0.071,0.075,0.126,0.084,0.165c0.018,0.071,0.011,0.143-0.018,0.214c-0.03,0.071-0.063,0.136-0.098,0.194
		c-0.058,0.095-0.138,0.202-0.239,0.321c-0.101,0.119-0.212,0.24-0.332,0.363c0.077,0.084,0.172,0.193,0.282,0.325
		s0.214,0.257,0.312,0.374c0.292-0.254,0.549-0.52,0.771-0.794c0.066-0.083,0.128-0.119,0.188-0.107
		c0.058,0.012,0.12,0.046,0.186,0.102c0.045,0.039,0.089,0.086,0.136,0.143c0.046,0.057,0.078,0.112,0.099,0.167
		c0.018,0.053,0.018,0.105,0.002,0.157c-0.023,0.078-0.066,0.16-0.128,0.248c-0.066,0.105-0.168,0.229-0.303,0.37
		c-0.135,0.142-0.28,0.283-0.437,0.423c-0.156,0.141-0.313,0.271-0.472,0.39c-0.159,0.12-0.298,0.208-0.417,0.267
		c-0.061,0.033-0.128,0.061-0.202,0.084c-0.075,0.024-0.146,0.023-0.216-0.001c-0.039-0.011-0.092-0.042-0.16-0.095
		c-0.067-0.052-0.129-0.112-0.185-0.178s-0.096-0.133-0.119-0.201s-0.011-0.124,0.04-0.168c0.027-0.023,0.059-0.042,0.096-0.058
		c0.036-0.016,0.07-0.032,0.103-0.048c0.146-0.069,0.301-0.159,0.467-0.271C116.419,93.053,116.322,92.949,116.216,92.825z
		 M113.953,89.549c0.036-0.1,0.088-0.184,0.154-0.252s0.135-0.114,0.206-0.138c0.071-0.023,0.147-0.022,0.227,0.004
		c0.08,0.026,0.189,0.084,0.327,0.174c0.138,0.09,0.268,0.187,0.391,0.29c0.123,0.103,0.216,0.19,0.278,0.262
		c0.063,0.072,0.11,0.146,0.142,0.223c0.031,0.078,0.027,0.175-0.012,0.292c-0.04,0.118-0.147,0.32-0.324,0.605
		c-0.176,0.286-0.338,0.521-0.484,0.706c-0.146,0.184-0.254,0.297-0.322,0.339c-0.067,0.042-0.142,0.064-0.222,0.065
		c-0.081,0.001-0.186-0.019-0.313-0.06c-0.128-0.042-0.305-0.134-0.529-0.275c-0.226-0.141-0.364-0.24-0.415-0.297
		c-0.052-0.057-0.068-0.137-0.051-0.241c0.018-0.104,0.049-0.198,0.094-0.285c0.044-0.086,0.084-0.141,0.12-0.165
		c0.036-0.023,0.095-0.002,0.177,0.065l0.448,0.286c0.063,0.055,0.121,0.066,0.173,0.033s0.087-0.076,0.105-0.129
		c0.019-0.053,0.02-0.092,0.001-0.118c-0.018-0.025-0.073-0.067-0.167-0.125l-0.337-0.255c-0.086-0.075-0.104-0.155-0.054-0.24
		l0.084-0.146c0.06-0.073,0.125-0.097,0.194-0.071c0.176,0.08,0.359,0.166,0.55,0.261c0.073-0.018,0.14-0.076,0.198-0.173
		c-0.003-0.075-0.057-0.139-0.159-0.192l-0.306-0.185C113.974,89.734,113.916,89.648,113.953,89.549z M113.122,88.413
		c0.053,0.017,0.108,0.039,0.17,0.067c0.061,0.028,0.11,0.062,0.15,0.102c0.034,0.034,0.058,0.078,0.068,0.132
		c0.016,0.075,0.018,0.162,0.006,0.262c-0.01,0.116-0.037,0.262-0.083,0.437c-0.045,0.175-0.101,0.354-0.164,0.537
		s-0.133,0.358-0.207,0.525c-0.075,0.167-0.146,0.299-0.214,0.398c-0.034,0.051-0.075,0.102-0.124,0.151
		c-0.048,0.05-0.104,0.079-0.169,0.087c-0.073,0.011-0.203-0.019-0.391-0.09s-0.26-0.166-0.219-0.284
		c0.014-0.03,0.03-0.059,0.052-0.087c0.021-0.028,0.041-0.056,0.061-0.083c0.127-0.18,0.246-0.392,0.354-0.636
		c0.107-0.243,0.199-0.492,0.274-0.746c-0.27,0.143-0.517,0.29-0.74,0.442s-0.449,0.336-0.676,0.552
		c-0.034,0.049-0.075,0.096-0.121,0.141s-0.099,0.072-0.159,0.08c-0.036,0.005-0.092-0.001-0.167-0.019
		c-0.076-0.017-0.149-0.042-0.222-0.077c-0.071-0.034-0.132-0.075-0.18-0.122s-0.062-0.1-0.039-0.158
		c0.011-0.03,0.027-0.06,0.049-0.088c0.021-0.028,0.041-0.055,0.06-0.082c0.183-0.256,0.344-0.57,0.482-0.941
		c0.138-0.371,0.235-0.724,0.293-1.059c0.018-0.095,0.052-0.15,0.104-0.164c0.051-0.014,0.114-0.011,0.188,0.011
		c0.051,0.016,0.107,0.039,0.168,0.068c0.061,0.029,0.111,0.063,0.152,0.101c0.031,0.033,0.054,0.078,0.065,0.133
		c0.015,0.07,0.018,0.157,0.009,0.26c-0.007,0.081-0.022,0.177-0.047,0.288s-0.056,0.229-0.093,0.353
		c0.28-0.164,0.547-0.3,0.801-0.408c0.047-0.02,0.096-0.039,0.146-0.056s0.1-0.031,0.147-0.041c0.023-0.004,0.048-0.007,0.07-0.008
		C113.01,88.39,113.057,88.397,113.122,88.413z M109.507,87.025c0.143,0.026,0.277,0.21,0.402,0.552
		c0.229,0.777,0.365,1.546,0.408,2.308l-0.007,0.039c-0.239,0.142-0.525,0.182-0.858,0.12l-0.04-0.007
		c-0.057-0.01-0.084-0.148-0.083-0.414c-0.208-0.014-0.55-0.104-1.025-0.271c-0.107,0.3-0.2,0.442-0.278,0.428l-0.039-0.007
		c-0.207-0.039-0.427-0.212-0.66-0.521c-0.025-0.025-0.015-0.077,0.029-0.155c0.83-1.521,1.391-2.253,1.683-2.199
		C109.206,86.924,109.362,86.967,109.507,87.025z M109.046,88.15l-0.456,0.737c0.278,0.078,0.483,0.116,0.617,0.114L109.046,88.15z
		 M106.378,86.893c0.055-0.008,0.115-0.012,0.183-0.013c0.066,0,0.126,0.009,0.179,0.027c0.045,0.016,0.085,0.045,0.119,0.09
		c0.046,0.061,0.085,0.138,0.118,0.233c0.041,0.109,0.079,0.252,0.113,0.43c0.035,0.177,0.063,0.362,0.084,0.555
		c0.021,0.193,0.034,0.38,0.039,0.563c0.004,0.183-0.003,0.333-0.021,0.452c-0.009,0.061-0.024,0.124-0.046,0.189
		s-0.06,0.116-0.115,0.151c-0.061,0.042-0.192,0.071-0.392,0.087s-0.307-0.038-0.319-0.162c-0.001-0.033,0.001-0.066,0.008-0.101
		c0.007-0.034,0.013-0.068,0.019-0.101c0.038-0.218,0.053-0.46,0.046-0.727s-0.032-0.53-0.074-0.792
		c-0.182,0.246-0.341,0.485-0.478,0.718c-0.136,0.233-0.26,0.497-0.372,0.79c-0.01,0.059-0.026,0.119-0.048,0.18
		c-0.022,0.06-0.059,0.107-0.109,0.141c-0.03,0.021-0.084,0.039-0.159,0.056c-0.075,0.017-0.152,0.025-0.232,0.025
		s-0.151-0.01-0.215-0.033c-0.063-0.022-0.099-0.063-0.104-0.125c-0.003-0.033,0-0.066,0.006-0.101
		c0.007-0.034,0.013-0.067,0.019-0.099c0.055-0.31,0.064-0.662,0.028-1.056s-0.1-0.755-0.192-1.083
		c-0.025-0.093-0.018-0.157,0.022-0.192s0.099-0.059,0.175-0.072c0.053-0.007,0.113-0.011,0.181-0.011
		c0.067,0,0.127,0.008,0.18,0.026c0.043,0.016,0.082,0.046,0.117,0.091c0.043,0.057,0.083,0.134,0.12,0.231
		c0.029,0.076,0.057,0.169,0.082,0.28c0.026,0.112,0.049,0.231,0.069,0.359c0.182-0.269,0.364-0.507,0.546-0.713
		c0.034-0.039,0.07-0.077,0.108-0.114c0.038-0.038,0.077-0.071,0.115-0.1c0.02-0.015,0.04-0.027,0.06-0.037
		C106.267,86.92,106.313,86.906,106.378,86.893z M103.766,87.878c0.209-0.041,0.392,0.333,0.546,1.12l0.062,0.496
		c0.05,0.254-0.053,0.407-0.31,0.458l-0.208,0.041c-0.24,0.047-0.406-0.004-0.5-0.154l-0.084-0.782l-0.156-0.795
		c-0.024-0.126,0.042-0.221,0.198-0.285C103.471,87.914,103.622,87.88,103.766,87.878z M103.554,87.128
		c0.077,0.016,0.142,0.047,0.193,0.095c0.051,0.047,0.083,0.102,0.094,0.162c0.012,0.061,0.004,0.122-0.025,0.185
		c-0.029,0.063-0.076,0.116-0.141,0.16c-0.065,0.044-0.137,0.074-0.215,0.089c-0.078,0.015-0.155,0.015-0.231-0.001
		c-0.078-0.017-0.141-0.048-0.192-0.095c-0.05-0.047-0.082-0.101-0.093-0.162c-0.012-0.061-0.003-0.123,0.027-0.186
		s0.078-0.117,0.143-0.161c0.065-0.044,0.136-0.073,0.211-0.088C103.399,87.112,103.476,87.113,103.554,87.128z M100.701,87.895
		c0.146-0.038,0.293-0.064,0.441-0.078c0.179-0.016,0.37-0.014,0.571,0.006c0.202,0.021,0.396,0.078,0.584,0.174
		c0.374,0.189,0.583,0.492,0.629,0.908c0.031,0.268,0.001,0.526-0.088,0.775c-0.049,0.137-0.117,0.259-0.205,0.366
		c-0.087,0.107-0.185,0.199-0.292,0.278c-0.138,0.1-0.29,0.18-0.454,0.238c-0.125,0.045-0.253,0.079-0.385,0.102
		c-0.133,0.022-0.275,0.017-0.427-0.017c-0.054-0.011-0.109-0.026-0.167-0.046c-0.083-0.03-0.207-0.099-0.369-0.206
		c-0.162-0.106-0.204-0.203-0.126-0.288c0.031-0.034,0.098-0.098,0.199-0.193c0.101-0.096,0.211-0.187,0.329-0.273
		s0.231-0.154,0.34-0.201s0.186-0.038,0.229,0.027c0.054,0.08,0.087,0.16,0.098,0.244c0.007,0.032,0.006,0.062-0.005,0.087
		c-0.011,0.033-0.031,0.066-0.059,0.098c-0.02,0.023-0.063,0.067-0.129,0.13c0.188-0.031,0.357-0.104,0.507-0.217
		c0.151-0.114,0.227-0.258,0.229-0.43c0.007-0.236-0.05-0.408-0.171-0.517s-0.263-0.176-0.426-0.201
		c-0.163-0.025-0.326-0.02-0.49,0.016c-0.164,0.036-0.288,0.081-0.371,0.135c-0.041,0.027-0.083,0.054-0.124,0.083
		c-0.041,0.028-0.087,0.048-0.136,0.061c-0.053,0.014-0.125-0.021-0.215-0.105c-0.063-0.058-0.115-0.124-0.155-0.197
		c-0.04-0.074-0.073-0.148-0.1-0.225c-0.021-0.066,0.001-0.134,0.068-0.204c0.057-0.059,0.141-0.117,0.252-0.175
		C100.416,87.983,100.554,87.932,100.701,87.895z M98.029,89.13c0.122-0.079,0.345-0.038,0.672,0.124
		c0.7,0.406,1.329,0.871,1.885,1.393l0.021,0.033c-0.076,0.268-0.256,0.494-0.54,0.679l-0.035,0.022
		c-0.048,0.031-0.163-0.05-0.344-0.245c-0.162,0.134-0.472,0.304-0.932,0.51c0.129,0.292,0.16,0.458,0.093,0.502l-0.033,0.021
		c-0.177,0.115-0.456,0.14-0.838,0.077c-0.035-0.001-0.064-0.045-0.086-0.132c-0.444-1.674-0.542-2.592-0.293-2.754
		C97.741,89.263,97.883,89.187,98.029,89.13z M98.468,90.263l0.177,0.849c0.255-0.135,0.43-0.249,0.526-0.342L98.468,90.263z
		 M95.662,91.189c0.034-0.043,0.076-0.088,0.124-0.134c0.048-0.047,0.099-0.082,0.149-0.104c0.044-0.02,0.093-0.025,0.148-0.017
		c0.076,0.013,0.157,0.042,0.246,0.088c0.105,0.051,0.231,0.128,0.378,0.233c0.147,0.105,0.294,0.22,0.443,0.346
		c0.148,0.125,0.287,0.252,0.416,0.381s0.227,0.244,0.295,0.342c0.035,0.05,0.068,0.106,0.097,0.169s0.036,0.126,0.021,0.189
		c-0.015,0.073-0.09,0.184-0.224,0.333c-0.134,0.149-0.248,0.183-0.343,0.103c-0.023-0.023-0.045-0.049-0.063-0.079
		s-0.037-0.059-0.056-0.086c-0.123-0.184-0.278-0.37-0.467-0.559c-0.188-0.188-0.388-0.363-0.598-0.523
		c0.037,0.303,0.086,0.586,0.147,0.85s0.153,0.539,0.273,0.829c0.034,0.05,0.063,0.104,0.089,0.164
		c0.026,0.059,0.032,0.118,0.018,0.177c-0.008,0.036-0.033,0.086-0.077,0.149c-0.043,0.064-0.093,0.124-0.151,0.179
		c-0.057,0.055-0.116,0.096-0.178,0.124c-0.062,0.028-0.115,0.021-0.161-0.02c-0.025-0.022-0.047-0.048-0.065-0.078
		c-0.019-0.029-0.037-0.058-0.055-0.084c-0.173-0.263-0.409-0.525-0.706-0.786c-0.297-0.261-0.592-0.479-0.885-0.653
		c-0.083-0.05-0.122-0.102-0.116-0.155c0.005-0.053,0.031-0.111,0.077-0.172c0.033-0.042,0.074-0.086,0.124-0.133
		c0.049-0.046,0.099-0.082,0.149-0.105c0.042-0.018,0.091-0.023,0.147-0.014c0.071,0.012,0.153,0.04,0.246,0.085
		c0.074,0.035,0.158,0.083,0.253,0.146s0.194,0.134,0.296,0.213c-0.053-0.32-0.084-0.618-0.095-0.894
		c-0.002-0.051-0.002-0.104,0-0.157s0.006-0.104,0.015-0.152c0.004-0.024,0.01-0.047,0.018-0.069
		C95.602,91.285,95.625,91.243,95.662,91.189z M93.928,94.875c0.007-0.054,0.002-0.108-0.018-0.161
		c-0.02-0.053-0.048-0.09-0.084-0.112c-0.037-0.021-0.078-0.027-0.125-0.015c-0.047,0.011-0.092,0.031-0.134,0.06
		c-0.043,0.029-0.077,0.065-0.103,0.109c-0.025,0.044-0.042,0.093-0.051,0.149c-0.009,0.056-0.017,0.106-0.022,0.15
		s-0.016,0.084-0.028,0.121c-0.013,0.037-0.045,0.065-0.097,0.084c-0.051,0.02-0.115,0.023-0.189,0.011
		c-0.075-0.013-0.129-0.061-0.161-0.143c-0.011-0.083-0.009-0.183,0.003-0.298s0.037-0.223,0.072-0.322
		c0.035-0.1,0.074-0.187,0.116-0.262c0.043-0.075,0.103-0.153,0.18-0.235c0.078-0.082,0.163-0.158,0.257-0.228
		c0.094-0.07,0.184-0.121,0.269-0.152c0.084-0.032,0.176-0.052,0.272-0.06c0.097-0.008,0.179,0.001,0.247,0.029
		c0.067,0.027,0.133,0.058,0.197,0.09c0.064,0.033,0.131,0.11,0.2,0.233s0.111,0.351,0.128,0.686
		c0.009,0.19,0.019,0.312,0.032,0.366c0.013,0.053,0.035,0.094,0.065,0.121s0.066,0.041,0.106,0.043
		c0.04,0.002,0.076-0.005,0.107-0.021s0.062-0.045,0.091-0.087c0.03-0.043,0.056-0.098,0.078-0.166s0.035-0.183,0.038-0.345
		c-0.018-0.138-0.028-0.233-0.03-0.288c-0.002-0.054,0.016-0.097,0.053-0.128c0.037-0.032,0.091-0.033,0.161-0.004
		c0.07,0.028,0.136,0.062,0.198,0.1c0.062,0.039,0.098,0.089,0.105,0.151c0.031,0.109,0.047,0.208,0.048,0.299
		c0.001,0.091-0.012,0.205-0.038,0.344s-0.065,0.266-0.116,0.379c-0.052,0.114-0.117,0.233-0.198,0.358
		c-0.08,0.125-0.172,0.232-0.273,0.321c-0.103,0.089-0.206,0.151-0.312,0.187c-0.105,0.036-0.202,0.054-0.292,0.055
		c-0.089,0.001-0.181-0.016-0.275-0.049c-0.096-0.034-0.176-0.079-0.243-0.135c-0.066-0.056-0.119-0.132-0.158-0.227
		c-0.04-0.095-0.069-0.195-0.089-0.298c-0.02-0.103-0.025-0.242-0.016-0.417C93.91,95.027,93.919,94.93,93.928,94.875z"/>
</g>
</svg>
