<?xml version="1.0" encoding="utf-8"?>
<!-- Generator: Adobe Illustrator 16.0.0, SVG Export Plug-In . SVG Version: 6.00 Build 0)  -->
<!DOCTYPE svg PUBLIC "-//W3C//DTD SVG 1.1//EN" "http://www.w3.org/Graphics/SVG/1.1/DTD/svg11.dtd">
<svg version="1.1" id="_x32__Color" xmlns="http://www.w3.org/2000/svg" xmlns:xlink="http://www.w3.org/1999/xlink" x="0px"
	 y="0px" width="252px" height="252px" viewBox="0 0 252 252" enable-background="new 0 0 252 252" xml:space="preserve">
<ellipse id="Inner_circle_2_" cx="124.594" cy="115.656" rx="4.227" ry="1.242"/>
<g id="Second_Ring_2_">
	<path d="M119.486,115.695c0,0.168,0.053,0.33,0.15,0.486c0.002,0.001,0.004,0.002,0.006,0.002c0.234,0.069,0.486,0.134,0.75,0.194
		c-0.236-0.211-0.368-0.443-0.368-0.687c0-0.98,2.123-1.774,4.742-1.774s4.741,0.794,4.741,1.774c0,0.276-0.17,0.539-0.471,0.772
		c0.322-0.076,0.635-0.217,0.885-0.31c0.108-0.164,0.144-0.28,0.144-0.458c0-1.131-2.368-2.048-5.29-2.048
		C121.854,113.646,119.486,114.563,119.486,115.695z"/>
</g>
<g id="Third_ring_2_">
	<path d="M118.957,115.946c-0.069-0.127-0.106-0.257-0.106-0.391c0-1.15,2.678-2.083,5.981-2.083s5.981,0.932,5.981,2.083
		c0,0.172-0.009,0.166-0.031,0.306c0.258-0.074,0.395-0.174,0.605-0.259c0.01-0.03-0.004-0.128-0.004-0.188
		c0-1.264-2.924-2.16-6.543-2.16c-3.619,0-6.554,1.025-6.554,2.289c0,0.067,0.01,0.134,0.027,0.2
		C118.513,115.814,118.729,115.882,118.957,115.946z"/>
</g>
<g id="forth_ring_2_">
	<path d="M117.767,115.357c-0.001-0.009-0.003-0.018-0.003-0.028c0-1.214,3.142-2.199,7.018-2.199s6.998,0.98,6.998,2.195
		c0,0.037-0.001,0.058,0.001,0.096c0.216-0.141,0.494-0.415,0.472-0.459c-0.355-1.072-3.457-2.086-7.2-2.086
		c-3.669,0-6.771,0.849-7.796,2.017C117.375,115.05,117.547,115.206,117.767,115.357z"/>
</g>
<path d="M116.858,138.18c0,0,2.058,2.551,7.974,2.365c0,0,6.152-0.093,7.521-2.161c0,0,0.563-0.596,0.164-1.202
	c-0.219,0.241-0.487,0.493-0.702,0.686c-0.076,0.074-0.175,0.164-0.301,0.263c-0.048,0.041-0.076,0.063-0.076,0.063h-0.006
	c-0.854,0.639-2.757,1.594-6.497,1.58c0,0-4.834,0.19-7.352-1.943l-0.002,0.002c0,0-0.008-0.009-0.021-0.021
	c-0.09-0.076-0.177-0.156-0.26-0.238c0,0-0.005-0.004-0.009-0.01c-0.123-0.112-0.268-0.246-0.402-0.369
	c-0.018,0.025-0.033,0.053-0.053,0.08C116.838,137.273,116.375,137.695,116.858,138.18z"/>
<circle cx="124.675" cy="128.99" r="2.294"/>
<g>
	<path d="M116.838,137.273c0.02-0.027,0.037-0.053,0.057-0.076c-0.002-0.002-0.003-0.002-0.004-0.004
		C116.875,137.221,116.857,137.246,116.838,137.273z"/>
	<path d="M117.293,137.563L117.293,137.563L117.293,137.563z"/>
	<path d="M116.895,137.197c0.09,0.084,0.186,0.171,0.275,0.254c-0.016-0.014-0.028-0.027-0.045-0.041v-0.449
		C117.062,137.011,116.979,137.087,116.895,137.197z"/>
</g>
<g>
	<path d="M132.391,137.318v-0.313c0.063,0.075,0.107,0.146,0.107,0.146c0.008,0.012,0.013,0.021,0.02,0.033L132.391,137.318z"/>
</g>
<path d="M117.133,116.136l0.002,0.195h-0.002v0.316h0.004l-0.004,2.114c-0.002,0.002-0.004,0.003-0.006,0.004v3.903l-0.006,4.216
	h0.006v10.526c0.058,0.052,0.113,0.105,0.166,0.152c0.006,0.006,0.01,0.01,0.01,0.01c0.02,0.021,0.042,0.037,0.063,0.059v-0.693
	c1.831,1.267,4.465,2.064,7.398,2.064c2.929,0,5.556-0.796,7.387-2.061v0.615c0.081-0.078,0.162-0.158,0.24-0.238v-10.293h0.002
	v-10.167l0,0l0.012-0.623h0.001l0.003-0.206c0.383-0.326,0.58-0.69,0.58-1.084c0-1.599-3.459-2.759-8.227-2.759
	c-4.717,0-8.271,1.221-8.271,2.839C116.49,115.451,116.724,115.819,117.133,116.136z M117.367,136.598L117.367,136.598v-9.449
	c1.115,0.762,2.524,1.351,4.113,1.695c0.044-1.728,1.457-3.116,3.195-3.116c1.744,0,3.161,1.398,3.196,3.133
	c1.662-0.348,3.131-0.961,4.279-1.764v9.506c-1.831,1.263-4.459,2.059-7.387,2.059C121.83,138.662,119.196,137.864,117.367,136.598z
	 M117.254,117.219l0.002-0.352c1.935,1.772,7.567,1.687,7.567,1.687c5.292-0.157,6.815-1.092,7.232-1.506
	c0.081-0.073,0.156-0.154,0.212-0.237l0.005,0.003v0.349c-0.111,0.098-0.559,0.465-1.316,0.763c-1.588,0.565-3.785,0.914-6.21,0.914
	c-2.315,0-4.42-0.317-5.991-0.837l0.007-0.006C118.761,117.997,117.776,117.656,117.254,117.219z M117.012,114.821
	c0-0.877,3.592-2.275,7.847-2.275c4.313,0,7.56,1.365,7.56,2.248c0,0.909-3.405,2.303-7.601,2.303
	C120.584,117.097,117.012,115.698,117.012,114.821z"/>
</svg>
