<?xml version="1.0" encoding="UTF-8" standalone="no"?>
<!-- Generator: Adobe Illustrator 16.0.0, SVG Export Plug-In . SVG Version: 6.00 Build 0)  -->

<svg
   version="1.1"
   id="Layer_1"
   x="0px"
   y="0px"
   width="144px"
   height="36px"
   viewBox="0 0 144 36"
   enable-background="new 0 0 144 36"
   xml:space="preserve"
   sodipodi:docname="art by only.svg"
   inkscape:version="1.2.2 (732a01da63, 2022-12-09)"
   xmlns:inkscape="http://www.inkscape.org/namespaces/inkscape"
   xmlns:sodipodi="http://sodipodi.sourceforge.net/DTD/sodipodi-0.dtd"
   xmlns="http://www.w3.org/2000/svg"
   xmlns:svg="http://www.w3.org/2000/svg"><defs
   id="defs50" /><sodipodi:namedview
   id="namedview48"
   pagecolor="#ffffff"
   bordercolor="#000000"
   borderopacity="0.25"
   inkscape:showpageshadow="2"
   inkscape:pageopacity="0.0"
   inkscape:pagecheckerboard="0"
   inkscape:deskcolor="#d1d1d1"
   showgrid="false"
   inkscape:zoom="9.0972222"
   inkscape:cx="72"
   inkscape:cy="18.082443"
   inkscape:window-width="1920"
   inkscape:window-height="1001"
   inkscape:window-x="-9"
   inkscape:window-y="379"
   inkscape:window-maximized="1"
   inkscape:current-layer="Layer_1" />
<g
   id="g45"
   transform="matrix(-1,0,0,1,145.93898,0)">
	<path
   fill="#010101"
   d="m 58.769,13.112 1.56,-7.243 C 60.39,5.629 60.1,5.293 60.1,5.293 h 2.051 c 0,0 -0.274,0.348 -0.227,0.576 l 1.559,7.243 c 0.049,0.229 0.371,0.576 0.371,0.576 h -1.438 c 0,0 0.276,-0.348 0.229,-0.576 l -0.252,-1.271 h -2.518 l -0.265,1.271 c -0.061,0.24 0.228,0.576 0.228,0.576 h -1.439 c -0.003,0 0.321,-0.372 0.37,-0.576 z M 62.222,11.123 61.13,6.108 h -0.012 l -1.091,5.015 z"
   id="path27" />
	<path
   fill="#010101"
   d="m 64.349,7.775 h 1.15 v 0.24 c 0.301,-0.156 0.623,-0.24 0.983,-0.24 0.433,0 0.898,0.181 1.271,0.385 0.143,0.084 0.227,0.119 0.238,0.119 0.071,0 0.217,-0.084 0.217,-0.084 v 1.309 c 0,0 -1.043,-0.924 -1.654,-0.924 -0.516,0 -1.008,0.275 -1.057,0.828 v 3.706 c 0,0.216 0.289,0.563 0.289,0.563 h -1.439 c 0,0 0.287,-0.348 0.287,-0.563 V 9.588 c 0,-0.108 0,-0.229 0,-0.336 V 8.34 C 64.636,8.111 64.349,7.775 64.349,7.775 Z"
   id="path29" />
	<path
   fill="#010101"
   d="m 68.57,7.523 c 0,0 0.361,0.252 0.564,0.252 h 0.803 V 6.396 c 0,-0.228 -0.287,-0.563 -0.287,-0.563 h 1.152 v 1.942 h 0.803 c 0.203,0 0.564,-0.252 0.564,-0.252 v 1.308 c 0,0 -0.361,-0.252 -0.564,-0.252 h -0.803 v 4.534 c 0,0.216 0.287,0.563 0.287,0.563 H 69.65 c 0,0 0.287,-0.348 0.287,-0.563 V 8.58 h -0.803 c -0.203,0 -0.564,0.252 -0.564,0.252 V 7.523 Z"
   id="path31" />
	<path
   fill="#010101"
   d="m 77.476,5.282 v 2.771 c 0,0 2.566,0.899 3.178,1.427 0.552,0.467 0.769,1.031 0.769,1.775 0,1.655 -1.271,2.422 -2.807,2.422 h -2.291 c 0,0 0.286,-0.348 0.286,-0.563 V 5.846 c 0,-0.228 -0.286,-0.563 -0.286,-0.563 l 1.151,-0.001 z m 0,7.592 h 1.127 c 1.104,0 1.943,-0.444 1.943,-1.644 0,-0.527 -0.121,-1.008 -0.492,-1.199 C 79.011,9.514 77.476,8.855 77.476,8.855 v 4.019 z"
   id="path33" />
	<path
   fill="#010101"
   d="m 82.097,7.775 h 1.451 c 0,0 -0.289,0.335 -0.289,0.563 v 2.507 c 0,1.079 0.385,2.027 1.607,2.027 0.862,0 1.354,-0.492 1.522,-1.295 V 8.34 c 0,-0.229 0,-0.563 0,-0.563 h 1.152 c 0,0 -0.289,0.335 -0.289,0.563 v 5.181 c 0,1.655 -0.527,2.999 -2.41,2.999 -0.539,0 -0.996,-0.155 -1.32,-0.504 -0.405,-0.468 -0.442,-1.02 -0.442,-1.02 0.457,0.384 0.959,0.792 1.584,0.792 1.438,0 1.727,-1.056 1.727,-2.268 v -1.198 c -0.229,0.862 -0.875,1.354 -1.522,1.354 -1.75,0 -2.482,-1.187 -2.482,-2.818 V 8.34 C 82.384,8.111 82.097,7.775 82.097,7.775 Z"
   id="path35" />
	
	
	
	
</g>
</svg>
