<?xml version="1.0" encoding="utf-8"?>
<!-- Generator: Adobe Illustrator 16.0.0, SVG Export Plug-In . SVG Version: 6.00 Build 0)  -->
<!DOCTYPE svg PUBLIC "-//W3C//DTD SVG 1.1//EN" "http://www.w3.org/Graphics/SVG/1.1/DTD/svg11.dtd">
<svg version="1.1" id="Layer_1" xmlns="http://www.w3.org/2000/svg" xmlns:xlink="http://www.w3.org/1999/xlink" x="0px" y="0px"
	 width="144px" height="36px" viewBox="0 0 144 36" enable-background="new 0 0 144 36" xml:space="preserve">
<g>
	<path fill="#010101" d="M39.635,14.586V7.318c0-0.265-0.288-0.564-0.288-0.564h3.814l0.192,1.067c0,0-0.324-0.265-0.576-0.265
		h-2.279v1.848h1.439c0.203,0,0.563-0.252,0.563-0.252v1.307c0,0-0.36-0.252-0.563-0.252h-1.439v4.138h2.626
		c0.252,0,0.564-0.264,0.564-0.264l-0.204,1.067h-4.139C39.347,15.149,39.635,14.885,39.635,14.586z"/>
	<path fill="#010101" d="M45.442,6.742v7.832c0,0.216,0.288,0.563,0.288,0.563h-1.439c0,0,0.288-0.348,0.288-0.563V7.306
		c0-0.228-0.288-0.563-0.288-0.563L45.442,6.742L45.442,6.742z"/>
	<path fill="#010101" d="M49.233,9.237c0.336,0,0.636,0.036,0.972,0.107c1.224,0.276,1.605,1.848,0.779,2.626
		c-0.553,0.528-1.151,0.863-1.932,0.875c-0.624,0-1.14-0.132-1.511-0.491c-0.06-0.049-0.108-0.108-0.156-0.168
		c0.024,1.271,0.804,2.171,2.1,2.171c0.358,0,0.672-0.061,0.936-0.192c0.479-0.216,0.84-0.54,0.84-0.54s-0.036,0.563-0.504,1.019
		c-0.358,0.36-0.888,0.505-1.512,0.505c-1.655,0-2.734-1.403-2.734-2.986C46.51,10.615,47.638,9.237,49.233,9.237z M48.801,12.055
		c0.601-0.012,1.127-0.191,1.535-0.636c0.348-0.396,0.168-1.02-0.324-1.199c-0.252-0.096-0.42-0.155-0.707-0.155
		c-0.96,0-1.679,0.658-1.858,1.583C47.926,11.935,48.214,12.055,48.801,12.055z"/>
	<path fill="#010101" d="M52.186,12.295c0-1.535,1.128-2.915,2.724-2.915c0.336,0,0.66,0.072,0.972,0.192
		c0.313,0.132,0.479,0.191,0.503,0.191c0.072,0,0.229-0.096,0.229-0.096v1.319c-0.492-0.48-0.912-0.78-1.631-0.78
		c-1.177,0-1.919,0.972-1.919,2.087c0,1.283,0.792,2.207,2.099,2.207c0.359,0,0.672-0.06,0.936-0.192
		c0.479-0.216,0.841-0.54,0.841-0.54s-0.036,0.564-0.505,1.021c-0.358,0.36-0.888,0.504-1.512,0.504
		C53.266,15.293,52.186,13.89,52.186,12.295z"/>
	<path fill="#010101" d="M57.384,8.985c0,0,0.359,0.252,0.563,0.252h0.805V7.858c0-0.229-0.289-0.563-0.289-0.563h1.152v1.943h0.803
		c0.205,0,0.564-0.252,0.564-0.252v1.307c0,0-0.359-0.252-0.564-0.252h-0.803v4.534c0,0.216,0.287,0.563,0.287,0.563h-1.439
		c0,0,0.289-0.348,0.289-0.563v-4.534h-0.805c-0.203,0-0.563,0.252-0.563,0.252V8.985z"/>
	<path fill="#010101" d="M61.547,9.237h1.151v0.239c0.3-0.155,0.623-0.239,0.982-0.239c0.433,0,0.899,0.18,1.271,0.384
		c0.145,0.084,0.229,0.12,0.24,0.12c0.071,0,0.217-0.084,0.217-0.084v1.308c0,0-1.044-0.924-1.656-0.924
		c-0.516,0-1.007,0.276-1.055,0.828v3.706c0,0.216,0.287,0.563,0.287,0.563h-1.438c0,0,0.288-0.348,0.288-0.563v-3.526
		c0-0.107,0-0.228,0-0.336V9.801C61.835,9.572,61.547,9.237,61.547,9.237z"/>
	<path fill="#010101" d="M68.865,9.26c1.655,0,2.878,1.283,2.878,2.927c0,1.654-1.223,2.926-2.878,2.926
		c-1.667,0-2.878-1.271-2.878-2.926C65.987,10.544,67.198,9.26,68.865,9.26z M66.826,12.188c0,1.211,0.792,2.135,2.039,2.135
		c1.224,0,2.051-0.923,2.051-2.135c0-1.213-0.815-2.136-2.051-2.136C67.629,10.052,66.826,10.988,66.826,12.188z"/>
	<path fill="#010101" d="M72.826,14.573V9.8c0-0.228-0.288-0.563-0.288-0.563h1.152v0.526c0.299-0.335,0.694-0.526,1.091-0.526
		c1.751,0,2.481,1.187,2.481,2.817v2.52c0,0.228,0.288,0.563,0.288,0.563H76.1c0,0,0.288-0.335,0.288-0.563v-2.507
		c0-1.079-0.384-2.027-1.606-2.027c-0.456,0-0.827,0.144-1.091,0.42v4.114c0,0.216,0.286,0.563,0.286,0.563h-1.438
		C72.538,15.137,72.826,14.789,72.826,14.573z"/>
	<path fill="#010101" d="M78.322,15.137c0,0,0.288-0.348,0.288-0.563V9.801c0-0.216-0.288-0.563-0.288-0.563h1.15v5.337
		c0,0.216,0.288,0.563,0.288,0.563L78.322,15.137L78.322,15.137z M79.042,6.885c0.371,0,0.659,0.288,0.659,0.66
		c0,0.36-0.288,0.66-0.659,0.66c-0.36,0-0.66-0.3-0.66-0.66C78.382,7.174,78.681,6.885,79.042,6.885z"/>
	<path fill="#010101" d="M80.543,12.295c0-1.535,1.127-2.915,2.723-2.915c0.335,0,0.659,0.072,0.972,0.192
		c0.313,0.132,0.479,0.191,0.504,0.191c0.072,0,0.228-0.096,0.228-0.096v1.319c-0.491-0.48-0.911-0.78-1.631-0.78
		c-1.175,0-1.919,0.972-1.919,2.087c0,1.283,0.792,2.207,2.099,2.207c0.36,0,0.673-0.06,0.937-0.192
		c0.479-0.216,0.84-0.54,0.84-0.54s-0.036,0.564-0.504,1.021c-0.359,0.36-0.888,0.504-1.511,0.504
		C81.622,15.293,80.543,13.89,80.543,12.295z"/>
	<path fill="#010101" d="M86.998,12.691c0.275,0,0.659,0.144,0.659,0.468l0.013,0.167l-0.145-0.072
		c-0.061-0.023-0.217-0.084-0.313-0.084c-0.12-0.012-0.216,0.036-0.312,0.145c-0.084,0.107-0.133,0.228-0.133,0.372
		c0,0.468,0.42,0.707,0.84,0.707c0.479,0,0.852-0.287,0.852-0.792c0-0.407-0.252-0.792-0.563-1.043
		c-0.372-0.287-0.743-0.587-1.104-0.898c-0.348-0.288-0.623-0.719-0.623-1.188c0-0.792,0.659-1.211,1.391-1.211
		c0.313,0,0.66,0.12,0.937,0.265c0.072,0.036,0.108,0.06,0.132,0.06c0.024,0,0.062-0.023,0.096-0.036l0.146-0.071v1.234
		l-0.168-0.144c-0.192-0.156-0.769-0.587-1.092-0.587c-0.301,0-0.637,0.155-0.637,0.503c0,0.264,0.252,0.6,0.769,0.996
		c0.696,0.479,1.522,1.127,1.535,2.063c0,0.947-0.731,1.571-1.667,1.571c-0.791,0-1.619-0.492-1.619-1.367
		C85.99,13.194,86.434,12.691,86.998,12.691z"/>
	<path fill="#010101" d="M94.809,6.742v2.771c0,0,2.566,0.899,3.179,1.428c0.552,0.467,0.768,1.03,0.768,1.774
		c0,1.655-1.271,2.422-2.807,2.422h-2.29c0,0,0.287-0.348,0.287-0.563V7.306c0-0.228-0.287-0.563-0.287-0.563L94.809,6.742
		L94.809,6.742z M94.809,14.334h1.127c1.104,0,1.943-0.444,1.943-1.643c0-0.528-0.12-1.009-0.492-1.2
		c-1.043-0.517-2.578-1.175-2.578-1.175V14.334L94.809,14.334z"/>
	<path fill="#010101" d="M99.43,9.237h1.451c0,0-0.288,0.335-0.288,0.563v2.507c0,1.079,0.384,2.027,1.607,2.027
		c0.863,0,1.354-0.492,1.522-1.295V9.801c0-0.228,0-0.563,0-0.563h1.151c0,0-0.288,0.335-0.288,0.563v5.182
		c0,1.654-0.528,2.999-2.411,2.999c-0.539,0-0.995-0.156-1.318-0.505c-0.407-0.468-0.443-1.02-0.443-1.02
		c0.456,0.384,0.959,0.792,1.583,0.792c1.438,0,1.728-1.055,1.728-2.267v-1.2c-0.229,0.863-0.876,1.354-1.522,1.354
		c-1.751,0-2.482-1.187-2.482-2.817V9.8C99.718,9.572,99.43,9.237,99.43,9.237z"/>
	<path fill="#010101" d="M65.327,29.549h-1.5v-4.5h-1.5v4.5h-1.5v-5.25h3.75v0.75h0.75V29.549z"/>
	<path fill="#010101" d="M72.077,28.799h-0.75v0.75h-3v-0.75h-0.75v-5.25h0.75v-0.75h3v0.75h0.75V28.799z M70.577,28.799v-3h-0.75
		v-1.5h0.75v-0.75h-1.5v3h0.75v1.5h-0.75v0.75H70.577z"/>
	<path fill="#010101" d="M77.327,25.799h-2.25v0.75h-0.75v3h-1.5v-5.25h1.5v1.5h0.75v-0.75h0.75v-0.75h1.5V25.799z"/>
	<path fill="#010101" d="M83.327,28.799h-0.75v0.75h-3v-0.75h-0.75v-3.75h0.75v-0.75h3v0.75h0.75v0.75h-1.5v-0.75h-1.5v3.75h1.5
		v-0.75h1.5V28.799z"/>
</g>
</svg>
