<?xml version="1.0" encoding="UTF-8" standalone="no"?>
<!-- Generator: Adobe Illustrator 16.0.0, SVG Export Plug-In . SVG Version: 6.00 Build 0)  -->

<svg
   version="1.1"
   id="Layer_1"
   x="0px"
   y="0px"
   width="144px"
   height="36px"
   viewBox="0 0 144 36"
   enable-background="new 0 0 144 36"
   xml:space="preserve"
   sodipodi:docname="n0rc.svg"
   inkscape:version="1.2.2 (732a01da63, 2022-12-09)"
   xmlns:inkscape="http://www.inkscape.org/namespaces/inkscape"
   xmlns:sodipodi="http://sodipodi.sourceforge.net/DTD/sodipodi-0.dtd"
   xmlns="http://www.w3.org/2000/svg"
   xmlns:svg="http://www.w3.org/2000/svg"><defs
   id="defs89" /><sodipodi:namedview
   id="namedview87"
   pagecolor="#ffffff"
   bordercolor="#000000"
   borderopacity="0.25"
   inkscape:showpageshadow="2"
   inkscape:pageopacity="0.0"
   inkscape:pagecheckerboard="0"
   inkscape:deskcolor="#d1d1d1"
   showgrid="false"
   inkscape:zoom="10.638889"
   inkscape:cx="72"
   inkscape:cy="18"
   inkscape:window-width="1920"
   inkscape:window-height="1001"
   inkscape:window-x="-9"
   inkscape:window-y="-9"
   inkscape:window-maximized="1"
   inkscape:current-layer="Layer_1" />
<g
   id="g84">
	
	
	
	
	
	
	
	
	
	
	
	
	
	<path
   fill="#010101"
   d="M65.327,29.549h-1.5v-4.5h-1.5v4.5h-1.5v-5.25h3.75v0.75h0.75V29.549z"
   id="path76" />
	<path
   fill="#010101"
   d="M72.077,28.799h-0.75v0.75h-3v-0.75h-0.75v-5.25h0.75v-0.75h3v0.75h0.75V28.799z M70.577,28.799v-3h-0.75   v-1.5h0.75v-0.75h-1.5v3h0.75v1.5h-0.75v0.75H70.577z"
   id="path78" />
	<path
   fill="#010101"
   d="M77.327,25.799h-2.25v0.75h-0.75v3h-1.5v-5.25h1.5v1.5h0.75v-0.75h0.75v-0.75h1.5V25.799z"
   id="path80" />
	<path
   fill="#010101"
   d="M83.327,28.799h-0.75v0.75h-3v-0.75h-0.75v-3.75h0.75v-0.75h3v0.75h0.75v0.75h-1.5v-0.75h-1.5v3.75h1.5   v-0.75h1.5V28.799z"
   id="path82" />
</g>
</svg>
