<?xml version="1.0" encoding="utf-8"?>
<!-- Generator: Adobe Illustrator 16.0.0, SVG Export Plug-In . SVG Version: 6.00 Build 0)  -->
<!DOCTYPE svg PUBLIC "-//W3C//DTD SVG 1.1//EN" "http://www.w3.org/Graphics/SVG/1.1/DTD/svg11.dtd">
<svg version="1.1" id="Layer_1" xmlns="http://www.w3.org/2000/svg" xmlns:xlink="http://www.w3.org/1999/xlink" x="0px" y="0px"
	 width="36px" height="36px" viewBox="0 0 36 36" enable-background="new 0 0 36 36" xml:space="preserve">
<g>
	<path d="M22.168,32.173c-0.04-0.173-0.082-0.357-0.129-0.557c-0.048-0.198-0.099-0.409-0.152-0.63
		c-0.055-0.224-0.121-0.451-0.188-0.696c-0.068-0.24-0.14-0.491-0.212-0.75c-0.08-0.258-0.162-0.525-0.247-0.799
		c-0.042-0.138-0.085-0.276-0.129-0.416c-0.046-0.14-0.095-0.281-0.141-0.425c-0.093-0.287-0.196-0.575-0.295-0.874
		c-0.207-0.588-0.431-1.192-0.658-1.809c-0.229-0.613-0.453-1.239-0.679-1.865c-0.107-0.31-0.202-0.631-0.306-0.941
		c-0.044-0.159-0.091-0.314-0.137-0.472c-0.104,0.02-0.208,0.035-0.314,0.051c0.044,0.171,0.091,0.34,0.135,0.514
		c0.096,0.319,0.182,0.64,0.288,0.964c0.099,0.303,0.199,0.607,0.298,0.911l-1.092-2.338c-0.032,0.002-0.064,0.004-0.095,0.009
		l1.118,2.394l-0.021,0.004l-1.86-0.577l-0.01-0.012l0,0l0.679-1.801c-0.032,0.002-0.065,0.008-0.098,0.009l-0.597,1.583
		c-0.003-0.522-0.006-1.041-0.011-1.554c1.828-0.028,3.534-0.569,4.98-1.488l-0.307-0.246c-0.963,0.592-2.041,1.014-3.192,1.22
		c-0.012-0.04-0.021-0.078-0.031-0.114c-0.169-0.632-0.323-1.257-0.454-1.864c-0.023-0.106-0.046-0.209-0.068-0.313
		c-0.035,0.007-0.073,0.011-0.108,0.016c0.649-0.093,1.273-0.273,1.851-0.536l-0.262-0.208c-0.487,0.207-1.004,0.354-1.543,0.44
		c-0.019-0.101-0.04-0.199-0.059-0.297c-0.061-0.292-0.116-0.581-0.169-0.863c-0.086-0.426-0.153-0.837-0.226-1.226
		c0.858-0.115,1.633-0.494,2.242-1.051l-0.114-0.202c-0.622,0.586-1.434,0.97-2.332,1.05c0.054-0.003,0.108-0.011,0.16-0.018
		c-0.009-0.046-0.018-0.093-0.026-0.139c-0.098-0.49-0.188-0.938-0.251-1.336c-0.036-0.2-0.058-0.388-0.084-0.56
		c-0.016-0.149-0.032-0.285-0.045-0.413c-0.034,0.001-0.068,0.005-0.102,0.005c-0.036,0-0.07-0.003-0.105-0.005
		c-0.013,0.123-0.028,0.254-0.044,0.396c-0.025,0.172-0.048,0.36-0.083,0.56c-0.063,0.398-0.154,0.847-0.252,1.336
		c-0.011,0.049-0.021,0.104-0.031,0.155c-0.582-0.075-1.125-0.28-1.596-0.585l-0.096,0.203c0.49,0.311,1.048,0.521,1.648,0.603
		c-0.071,0.384-0.136,0.791-0.222,1.211c-0.052,0.28-0.108,0.568-0.168,0.861c-0.022,0.104-0.043,0.208-0.063,0.313
		c0.08,0.012,0.16,0.022,0.24,0.033c0.018-0.102,0.036-0.202,0.052-0.3c0.024-0.133,0.046-0.263,0.069-0.391l0.15,0.567
		l-0.054,0.145c-1.647-0.14-3.124-0.888-4.2-2.021l-0.218,0.206c1.17,1.229,2.789,2.029,4.594,2.127l0.21,0.79l-0.841,0.364
		l0.438-1.169c-0.031-0.004-0.062-0.006-0.092-0.009l-0.357,0.952c0.046-0.22,0.091-0.44,0.133-0.657
		c0.021-0.106,0.041-0.208,0.061-0.313c-0.083-0.011-0.167-0.021-0.248-0.032c-0.021,0.096-0.042,0.194-0.064,0.293
		c-0.132,0.608-0.286,1.232-0.454,1.864c-0.011,0.042-0.024,0.087-0.036,0.129c-1.974-0.354-3.732-1.339-5.058-2.738l-0.272,0.254
		c1.372,1.449,3.191,2.472,5.233,2.845c-0.001,0-0.002,0-0.003,0c-0.044,0.152-0.089,0.304-0.133,0.458
		c-0.102,0.313-0.197,0.632-0.306,0.939c-0.225,0.627-0.449,1.255-0.678,1.868c-0.228,0.613-0.45,1.221-0.658,1.809
		c-0.101,0.296-0.202,0.587-0.294,0.873c-0.048,0.144-0.094,0.285-0.14,0.425c-0.044,0.14-0.088,0.279-0.13,0.415
		c-0.085,0.274-0.167,0.542-0.247,0.8c-0.073,0.26-0.144,0.511-0.213,0.751c-0.067,0.242-0.132,0.474-0.188,0.695
		c-0.054,0.222-0.104,0.433-0.152,0.631c-0.046,0.198-0.089,0.382-0.13,0.555c-0.038,0.173-0.066,0.332-0.094,0.477
		c-0.109,0.574-0.164,0.903-0.164,0.903l0.043,0.012c0,0,0.048-0.143,0.128-0.4l0.024,0.028l2.645-2.156l2.32,4.852l0.077-0.038
		l0.113,0.055l2.321-4.849l2.644,2.154l0.024-0.028c-0.002-0.004-0.004-0.008-0.004-0.012c0.082,0.264,0.13,0.41,0.13,0.41
		l0.045-0.012c0,0-0.055-0.328-0.165-0.902C22.233,32.504,22.206,32.344,22.168,32.173z M19.4,24.675
		c0.073,0.228,0.149,0.456,0.223,0.682c0.205,0.625,0.411,1.236,0.614,1.824c0.119,0.348,0.24,0.688,0.358,1.021l-1.767-2.358
		L19.4,24.675z M17.356,28.084c-0.002-0.518-0.005-1.045-0.009-1.577c-0.004-0.518-0.009-1.037-0.014-1.559l0.535-0.092l0.753,1.007
		l-1.094,2.238L17.356,28.084z M17.487,28.187l-0.128,0.264c0-0.092-0.001-0.185-0.001-0.277L17.487,28.187z M17.358,28.823
		l0.014,0.006l0.304-0.622l2.34,0.25l-2.659,0.484C17.356,28.902,17.358,28.862,17.358,28.823z M17.718,28.122l1.024-2.098
		l1.756,2.345L20.325,28.4L17.718,28.122z M19.228,24.623l-0.517,1.061l-0.646-0.859L19.228,24.623z M19.017,24.481l-1.071,0.182
		l-0.503-0.672L19.017,24.481z M17.748,24.697l-0.416,0.07c0-0.135-0.002-0.268-0.003-0.399c0-0.078-0.001-0.158-0.001-0.234
		L17.748,24.697z M16.334,22.058c-0.001-0.001-0.004-0.001-0.006-0.001l0.674,1.785H17l-0.01,0.011l-1.858,0.577l-0.023-0.004
		l1.11-2.379C16.258,22.052,16.297,22.055,16.334,22.058z M16.9,23.975l-0.503,0.672l-1.072-0.184L16.9,23.975z M16.277,24.807
		l-0.645,0.86l-0.517-1.059L16.277,24.807z M16.625,28.106l-2.608,0.276l-0.174-0.03l1.757-2.345L16.625,28.106z M16.667,28.189
		l0.305,0.623l0.014-0.008c0,0.04,0.001,0.079,0.001,0.119l-2.66-0.484L16.667,28.189z M16.854,28.168l0.13-0.014
		c0,0.093,0,0.186,0,0.278L16.854,28.168z M16.985,28.066l-0.172,0.018l-1.093-2.237l0.753-1.007l0.535,0.091
		c-0.004,0.521-0.009,1.043-0.014,1.559C16.991,27.022,16.988,27.55,16.985,28.066z M16.593,24.681l0.422-0.563
		c-0.001,0.078-0.001,0.157-0.002,0.235c0,0.133-0.002,0.267-0.004,0.399L16.593,24.681z M16.426,22.065
		c0.2,0.016,0.399,0.024,0.603,0.026c-0.003,0.51-0.006,1.024-0.009,1.541L16.426,22.065z M16.387,21.687l0.345-0.74l0.301,0.045
		c-0.001,0.242-0.003,0.482-0.004,0.729c0.046,0,0.093,0.002,0.14,0.002C16.908,21.725,16.645,21.71,16.387,21.687z M17.302,20.309
		l0.268,0.571l-0.265,0.039C17.306,20.715,17.303,20.511,17.302,20.309z M17.307,21.01l0.302-0.046l0.338,0.725
		c-0.209,0.02-0.422,0.03-0.636,0.032C17.312,21.482,17.309,21.246,17.307,21.01z M18.076,21.679c0.03-0.003,0.061-0.005,0.09-0.009
		C18.137,21.674,18.105,21.676,18.076,21.679z M18.795,21.581c-0.095,0.018-0.189,0.031-0.283,0.045
		C18.605,21.612,18.7,21.596,18.795,21.581z M18.466,21.541c0.008,0.028,0.017,0.06,0.023,0.089
		c-0.108,0.016-0.215,0.028-0.323,0.04l0.203-0.54C18.401,21.268,18.435,21.404,18.466,21.541z M18.333,20.973l-0.266,0.706
		c-0.018,0.002-0.038,0.004-0.055,0.004c0.011,0,0.021,0,0.03,0l-0.341-0.731l0.608-0.093
		C18.317,20.897,18.327,20.936,18.333,20.973z M18.29,20.773l-0.629,0.093l-0.269-0.577l0.874,0.383
		C18.274,20.704,18.283,20.738,18.29,20.773z M18.243,20.563L18.243,20.563L18.243,20.563L18.243,20.563z M18.057,19.652
		c0.042,0.218,0.086,0.438,0.133,0.659l-0.363-0.971c-0.03,0.003-0.061,0.004-0.092,0.009l0.444,1.186L17.34,20.17l0.215-0.808
		c-0.001,0-0.001,0-0.001,0c0.149-0.006,0.296-0.022,0.442-0.04C18.015,19.432,18.036,19.543,18.057,19.652z M18.179,19
		c-0.078,0.01-0.157,0.021-0.236,0.028C18.023,19.021,18.103,19.01,18.179,19z M17.89,18.747c0.016,0.093,0.034,0.188,0.049,0.283
		c-0.253,0.028-0.508,0.045-0.769,0.045c0.042,0,0.082-0.002,0.123-0.002c-0.002-0.3-0.005-0.593-0.007-0.878l0.016-0.005
		l0.276,0.736l-0.037,0.138c0.06-0.003,0.119-0.009,0.178-0.014l-0.046-0.128l0.149-0.568C17.844,18.486,17.867,18.614,17.89,18.747
		z M16.765,18.911l0.277-0.738l0.015,0.004c-0.002,0.292-0.005,0.589-0.007,0.895c-0.094-0.001-0.188-0.005-0.28-0.01
		c0.013,0,0.026,0.001,0.039,0.001L16.765,18.911z M16.901,16.642c0.056,0.003,0.113,0.004,0.167,0.006
		c-0.001,0.142-0.001,0.284-0.003,0.434L17,16.721l0.025-0.074C16.984,16.646,16.942,16.644,16.901,16.642z M17.342,16.738
		l-0.066,0.358c-0.001-0.152-0.002-0.301-0.004-0.448c-0.033,0.001-0.068,0.003-0.102,0.003c0.048,0,0.095-0.001,0.142-0.003
		c-0.001,0-0.001,0-0.001,0L17.342,16.738z M17.059,17.87l-0.073,0.193l-0.32-0.103l0.393-0.127
		C17.059,17.843,17.059,17.858,17.059,17.87z M17.283,17.849l0.392,0.125l-0.319,0.104l-0.072-0.191
		C17.283,17.875,17.283,17.861,17.283,17.849z M17.787,18.141l-0.17,0.638l-0.23-0.615l0.384-0.125
		C17.777,18.072,17.782,18.106,17.787,18.141z M17.282,17.756c-0.001-0.063-0.001-0.122-0.002-0.183l0.121-0.664l0.343,0.994
		L17.282,17.756z M17.675,17.431l-0.241-0.701l0.017-0.088c-0.001,0-0.001,0-0.002,0c0.037-0.002,0.073-0.005,0.11-0.008l0,0
		C17.597,16.888,17.635,17.156,17.675,17.431z M17.29,14.933c0.044,0.343,0.106,0.724,0.174,1.131l-0.196,0.024
		c-0.004-0.537-0.01-1.022-0.014-1.443C17.264,14.738,17.275,14.835,17.29,14.933z M17.327,16.424l-0.058-0.17
		c0-0.026,0-0.05,0-0.076l0.179-0.022l-0.047,0.266c0.03-0.002,0.06-0.005,0.091-0.006l0.016-0.088
		c0.004,0.029,0.01,0.057,0.014,0.084c-0.115,0.011-0.232,0.018-0.351,0.018c-0.106,0-0.212-0.006-0.316-0.014
		c0.03,0.001,0.061,0.003,0.09,0.004l-0.05-0.281l0.179,0.024c-0.001,0.023-0.001,0.049-0.001,0.074l-0.064,0.185
		c0.054,0.003,0.108,0.006,0.162,0.006C17.224,16.429,17.275,16.426,17.327,16.424z M17.052,14.916
		c0.014-0.098,0.025-0.195,0.037-0.288c-0.004,0.421-0.01,0.906-0.015,1.446l-0.195-0.026C16.946,15.638,17.009,15.26,17.052,14.916
		z M16.819,16.412c0.004-0.035,0.01-0.067,0.017-0.101l0.019,0.104c-0.063-0.005-0.123-0.012-0.185-0.021
		C16.718,16.4,16.769,16.406,16.819,16.412z M16.895,16.642l0.013,0.072l-0.242,0.699c0.04-0.269,0.076-0.529,0.115-0.781
		c-0.004,0-0.01-0.001-0.015-0.001C16.809,16.635,16.851,16.639,16.895,16.642z M16.941,16.892l0.121,0.664
		c0,0.06-0.001,0.121-0.001,0.183l-0.462,0.148L16.941,16.892z M16.556,18.124c0.004-0.035,0.011-0.069,0.016-0.104l0.383,0.126
		l-0.23,0.617L16.556,18.124z M16.71,19.054l0.001,0.003c0,0-0.001,0-0.003,0L16.71,19.054z M16.887,19.366
		c-0.002,0-0.005,0-0.006,0c0.096,0.005,0.194,0.01,0.292,0.01c0.097,0,0.193-0.006,0.289-0.01l-0.16,0.603
		c-0.001-0.202-0.003-0.401-0.005-0.598c-0.041,0-0.083,0.003-0.124,0.003c-0.042,0-0.083-0.003-0.125-0.003
		c-0.001,0.192-0.003,0.384-0.005,0.582L16.887,19.366z M17.04,20.291c0,0.203-0.002,0.407-0.004,0.61l-0.264-0.037L17.04,20.291z
		 M16.099,20.546h0.002H16.099L16.099,20.546z M16.075,20.653l0.875-0.381l-0.269,0.576l-0.629-0.094
		C16.059,20.723,16.067,20.688,16.075,20.653z M16.033,20.845l0.608,0.09l-0.349,0.746c0.021,0.002,0.041,0.002,0.063,0.004
		c-0.024-0.002-0.049-0.002-0.074-0.006l-0.273-0.724C16.016,20.917,16.025,20.88,16.033,20.845z M15.849,21.628
		c0.008-0.034,0.018-0.068,0.027-0.104c0.032-0.138,0.065-0.274,0.096-0.41l0.21,0.557c0.033,0.004,0.065,0.006,0.098,0.009
		c-0.247-0.023-0.492-0.059-0.734-0.102C15.646,21.594,15.746,21.612,15.849,21.628z M15.339,23.451
		c0.104-0.324,0.191-0.643,0.288-0.966c0.043-0.165,0.087-0.332,0.132-0.495c0.122,0.018,0.243,0.034,0.368,0.049l-1.084,2.322
		C15.138,24.059,15.239,23.755,15.339,23.451z M14.103,27.164c0.205-0.591,0.409-1.2,0.615-1.824
		c0.074-0.224,0.149-0.451,0.225-0.681l0.57,1.169l-1.765,2.357C13.865,27.852,13.986,27.514,14.103,27.164z M12.21,32.751
		c0.007-0.027,0.016-0.055,0.024-0.081c0.043-0.139,0.088-0.292,0.141-0.461c0.055-0.166,0.114-0.347,0.178-0.538
		c0.063-0.193,0.128-0.398,0.199-0.614c0.073-0.215,0.151-0.44,0.23-0.677c0.159-0.471,0.338-0.981,0.527-1.52
		c0.032-0.093,0.066-0.188,0.098-0.281c-0.002,0.009-0.006,0.016-0.009,0.024l1.036,2.168L12.21,32.751z M13.909,28.635l3.076,0.562
		l-0.34-0.063l-1.797,1.466L13.909,28.635z M14.967,30.845l2.021-1.646c0,0.142,0.001,0.275,0.002,0.411
		c0,0.308,0.001,0.609,0.006,0.903c0.003,0.309,0.006,0.608,0.01,0.897c0.005,0.291,0.011,0.569,0.016,0.837
		c0.007,0.537,0.025,1.03,0.035,1.467c0.006,0.218,0.011,0.424,0.017,0.609c0.007,0.191,0.014,0.362,0.02,0.521
		c0.007,0.188,0.014,0.35,0.021,0.485L14.967,30.845z M17.228,35.351c0.005-0.145,0.013-0.318,0.021-0.521
		c0.005-0.158,0.013-0.331,0.02-0.519c0.005-0.189,0.011-0.394,0.018-0.611c0.009-0.437,0.027-0.93,0.035-1.466
		c0.004-0.27,0.01-0.55,0.015-0.838c0.003-0.291,0.005-0.589,0.011-0.898c0.003-0.274,0.004-0.557,0.004-0.844
		c0.001-0.146,0.002-0.288,0.003-0.435l2.021,1.647L17.228,35.351z M19.493,30.616l-1.798-1.467l2.737-0.497L19.493,30.616z
		 M19.704,30.788l1.039-2.167c-0.002-0.009-0.007-0.018-0.009-0.023c0.03,0.093,0.065,0.188,0.097,0.28
		c0.191,0.537,0.369,1.049,0.527,1.52c0.081,0.236,0.157,0.462,0.232,0.677c0.068,0.216,0.135,0.422,0.198,0.611
		c0.063,0.194,0.122,0.376,0.179,0.54c0.053,0.167,0.097,0.322,0.142,0.461c0.008,0.027,0.015,0.054,0.022,0.081L19.704,30.788z"/>
	<path d="M17.244,13.575c-0.004-0.431-0.006-0.669-0.006-0.669s-0.002-0.011-0.005-0.027c0.191-0.031,0.338-0.195,0.338-0.397
		c0-0.221-0.179-0.4-0.401-0.4s-0.401,0.179-0.401,0.4c0,0.201,0.146,0.364,0.337,0.397c-0.001,0.006-0.001,0.01-0.001,0.01
		s-0.002,0.24-0.007,0.669c-0.005,0.072-0.01,0.155-0.017,0.239c0.029,0.002,0.06,0.006,0.089,0.006c0.031,0,0.06-0.003,0.089-0.006
		C17.254,13.718,17.25,13.644,17.244,13.575z M17.121,12.305c0-0.08,0.069-0.141,0.155-0.141s0.155,0.063,0.155,0.141
		c0,0.078-0.069,0.141-0.155,0.141S17.121,12.383,17.121,12.305z"/>
	<polygon points="14.058,17.603 15.988,13.457 13.538,15.749 12.385,14.516 10.455,18.662 12.905,16.37 	"/>
	<polygon points="10.66,13.808 15.042,12.496 11.699,12.187 11.854,10.505 7.475,11.82 10.815,12.126 	"/>
	<polygon points="14.06,9.208 15.269,8.031 11.085,6.186 13.426,8.59 12.217,9.768 16.401,11.612 	"/>
	<polygon points="20.834,9.115 21.573,4.603 19.832,7.471 18.388,6.595 17.649,11.109 19.39,8.239 	"/>
	<polygon points="22.963,12.299 22.974,10.608 18.721,12.292 22.077,12.313 22.064,14.002 26.319,12.319 	"/>
	<polygon points="23.237,17.561 19.657,14.714 21.313,17.633 19.843,18.466 23.423,21.313 21.768,18.394 	"/>
	<path d="M26.374,12.17l0.373,0.003c-0.122-3.464-2.087-6.465-4.944-8.05l-0.064,0.393C24.418,6.053,26.254,8.896,26.374,12.17z"/>
	<path d="M7.96,12.512c0-0.167,0.005-0.332,0.014-0.498l-0.373-0.033c-0.01,0.176-0.016,0.352-0.016,0.531
		c0,2.503,0.966,4.785,2.543,6.494l0.17-0.366C8.845,17.009,7.96,14.862,7.96,12.512z"/>
	<path d="M10.681,5.984l-0.239-0.245l0.339,0.15c1.657-1.601,3.911-2.588,6.392-2.588c1.573,0,3.055,0.398,4.352,1.095l0.194-0.319
		c-1.354-0.732-2.901-1.148-4.545-1.148c-4.983,0-9.088,3.821-9.542,8.688L8.019,11.5C8.252,9.355,9.226,7.429,10.681,5.984z"/>
	<path d="M26.749,12.308l-0.369,0.147c0,0.02,0.003,0.037,0.003,0.057c0,2.981-1.426,5.636-3.629,7.32l0.186,0.326
		c2.316-1.751,3.816-4.525,3.816-7.646C26.756,12.443,26.751,12.377,26.749,12.308z"/>
	<path d="M20.146,6.665l0.156-0.254c-0.939-0.485-2.003-0.76-3.13-0.76c-1.493,0-2.874,0.481-4,1.292l0.317,0.139
		c1.051-0.715,2.318-1.133,3.683-1.133C18.242,5.949,19.253,6.208,20.146,6.665z"/>
	<path d="M23.724,12.154l0.3,0.001c-0.108-2.078-1.146-3.916-2.701-5.102L21.266,7.39C22.683,8.523,23.621,10.229,23.724,12.154z"/>
	<path d="M22.522,16.802c0.768-0.957,1.284-2.121,1.45-3.396l-0.318,0.126c-0.182,1.155-0.664,2.21-1.366,3.083L22.522,16.802z"/>
	<path d="M10.316,12.23c-0.003,0.093-0.007,0.188-0.007,0.282c0,1.377,0.408,2.655,1.107,3.731l0.149-0.32
		c-0.37-0.606-0.643-1.278-0.802-1.992l-0.271,0.081l0.121-1.31c-0.001-0.063-0.005-0.126-0.005-0.19
		c0-0.086,0.003-0.169,0.006-0.254L10.316,12.23z"/>
	<path d="M10.542,10.744l0.339-0.102c0.315-1.057,0.887-2.001,1.646-2.762l-0.208-0.212C11.479,8.506,10.857,9.562,10.542,10.744z"
		/>
	<path d="M20.392,15.107c0.575-0.71,0.921-1.613,0.921-2.595c0-0.02-0.004-0.037-0.004-0.055l-0.224-0.001
		c0,0.02,0.002,0.038,0.002,0.057c0,0.93-0.326,1.784-0.87,2.456L20.392,15.107z"/>
	<path d="M19.17,8.89l-0.115,0.191c0.855,0.471,1.517,1.253,1.832,2.193l0.206-0.083C20.761,10.207,20.068,9.386,19.17,8.89z"/>
	<path d="M17.934,8.444c-0.248-0.046-0.501-0.071-0.763-0.071c-1.04,0-1.991,0.386-2.719,1.021l0.156,0.162
		c0.688-0.597,1.584-0.961,2.563-0.961c0.249,0,0.491,0.024,0.727,0.069L17.934,8.444z"/>
	<path d="M13.27,12.181c0.047-0.569,0.217-1.102,0.481-1.574l-0.205-0.09c-0.274,0.496-0.449,1.051-0.499,1.645L13.27,12.181z"/>
	<path d="M14.137,14.985c-0.419-0.514-0.71-1.136-0.826-1.818l-0.216,0.066c0.126,0.713,0.436,1.366,0.878,1.903L14.137,14.985z"/>
	<path d="M17.17,11.223c0.105,0,0.206,0.014,0.302,0.038l0.023-0.148c-0.106-0.023-0.214-0.038-0.326-0.038
		c-0.307,0-0.589,0.1-0.822,0.269l0.106,0.107C16.658,11.307,16.904,11.223,17.17,11.223z"/>
	<path d="M17.686,11.335c0.368,0.167,0.643,0.506,0.728,0.918l0.139-0.057c-0.097-0.439-0.395-0.805-0.789-0.991L17.686,11.335z"/>
	<path d="M16.058,11.623c-0.19,0.245-0.306,0.555-0.306,0.889c0,0.28,0.08,0.539,0.216,0.759l0.111-0.104
		c-0.112-0.193-0.178-0.417-0.178-0.655c0-0.314,0.112-0.603,0.297-0.828L16.058,11.623z"/>
	<path d="M18.588,12.512c0-0.023-0.002-0.047-0.004-0.072l-0.149-0.002c0.002,0.024,0.004,0.049,0.004,0.074
		c0,0.71-0.569,1.291-1.268,1.291c-0.387,0-0.733-0.178-0.966-0.457l-0.069,0.147c0.258,0.283,0.627,0.458,1.034,0.458
		C17.952,13.95,18.588,13.306,18.588,12.512z"/>
</g>
<g id="White_3_">
	<path fill="#FFFFFF" d="M5.991,17.188l0.286,0.606l-0.101,0.048l-0.287-0.607L5.991,17.188z"/>
	<path fill="#FFFFFF" d="M6.086,16.208l0.118,0.315L5.995,16.6l-0.118-0.314L6.086,16.208z"/>
	<path fill="#FFFFFF" d="M5.804,15.287l0.09,0.324L5.68,15.671l-0.092-0.323L5.804,15.287z"/>
	<path fill="#FFFFFF" d="M5.601,14.349l0.064,0.332l-0.22,0.041L5.38,14.393L5.601,14.349z"/>
	<path fill="#FFFFFF" d="M5.43,12.439l0.009,0.337l-0.225,0.005l-0.008-0.337L5.43,12.439z"/>
	<path fill="#FFFFFF" d="M5.465,11.483l-0.02,0.334l-0.224-0.014l0.02-0.334L5.465,11.483z"/>
	<path fill="#FFFFFF" d="M5.593,8.517l-0.404,1.514l-0.108-0.029l0.404-1.515L5.593,8.517z"/>
	<path fill="#FFFFFF" d="M6.343,7.863L6.218,8.175L6.011,8.091l0.125-0.312L6.343,7.863z"/>
	<path fill="#FFFFFF" d="M6.622,5.659L6.563,5.753l0.191,0.115L6.697,5.965l0.192,0.116L6.832,6.177l0.19,0.116L6.964,6.388
		l0.19,0.117L7.04,6.696L6.849,6.579l0.057-0.095L6.715,6.367l0.058-0.095L6.581,6.156l0.058-0.096L6.448,5.944l0.057-0.095
		l-0.19-0.116l0.116-0.191L6.622,5.659z"/>
	<path fill="#FFFFFF" d="M8.735,3.601L7.669,4.75L7.586,4.673l1.067-1.147L8.735,3.601z"/>
	<path fill="#FFFFFF" d="M11.061,1.887L9.751,2.746L9.689,2.652l1.31-0.858L11.061,1.887z"/>
	<path fill="#FFFFFF" d="M11.958,1.452l-0.604,0.294l-0.048-0.101l0.603-0.293L11.958,1.452z"/>
	<path fill="#FFFFFF" d="M13.828,0.762l-0.643,0.196l-0.032-0.108l0.642-0.196L13.828,0.762z"/>
	<path fill="#FFFFFF" d="M14.783,0.997l-0.328,0.071L14.408,0.85l0.328-0.071L14.783,0.997z"/>
	<path fill="#FFFFFF" d="M16.691,0.787l-0.334,0.015l-0.011-0.225l0.336-0.016L16.691,0.787z"/>
	<path fill="#FFFFFF" d="M18.771,0.463l-0.666-0.08l0.013-0.111l0.667,0.08L18.771,0.463z"/>
	<path fill="#FFFFFF" d="M19.554,1.066l-0.329-0.068l0.045-0.219l0.329,0.068L19.554,1.066z"/>
	<path fill="#FFFFFF" d="M21.561,1.204l-1.486-0.495l0.034-0.105l1.486,0.496L21.561,1.204z"/>
	<path fill="#FFFFFF" d="M23.496,1.833l-0.097-0.055l-0.113,0.193l-0.097-0.056l-0.112,0.194l-0.098-0.057l-0.111,0.195L22.771,2.19
		l-0.11,0.193l-0.194-0.111l0.112-0.194l0.097,0.057l0.112-0.195l0.097,0.057l0.113-0.195l0.097,0.057l0.112-0.194l0.098,0.056
		l0.111-0.193l0.194,0.111L23.496,1.833z"/>
	<path fill="#FFFFFF" d="M24.935,3.306l-0.52-0.427l0.072-0.085l0.519,0.427L24.935,3.306z"/>
	<path fill="#FFFFFF" d="M25.265,4.234L25.024,4l0.156-0.16l0.238,0.234L25.265,4.234z"/>
	<path fill="#FFFFFF" d="M27.415,6.279L26.541,4.98l0.093-0.063l0.874,1.299L27.415,6.279z"/>
	<path fill="#FFFFFF" d="M28.24,7.984l-0.664-1.418l0.102-0.047l0.663,1.417L28.24,7.984z"/>
	<path fill="#FFFFFF" d="M28.546,8.93l-0.211-0.636l0.108-0.035l0.208,0.637L28.546,8.93z"/>
	<path fill="#FFFFFF" d="M28.495,10.839l-0.049-0.333l0.22-0.032l0.05,0.331L28.495,10.839z"/>
	<path fill="#FFFFFF" d="M29.037,11.875l-0.045-0.669l0.11-0.008l0.046,0.671L29.037,11.875z"/>
	<path fill="#FFFFFF" d="M28.59,12.754l0.004-0.335l0.224,0.003l-0.004,0.334L28.59,12.754z"/>
	<path fill="#FFFFFF" d="M28.784,14.855l0.12-0.662l0.111,0.021l-0.122,0.66L28.784,14.855z"/>
	<path fill="#FFFFFF" d="M28.135,15.596l0.086-0.324l0.217,0.059l-0.088,0.324L28.135,15.596z"/>
	<path fill="#FFFFFF" d="M28.21,16.762l0.228-0.631l0.105,0.039l-0.228,0.631L28.21,16.762z"/>
	<path fill="#FFFFFF" d="M27.449,17.386l0.139-0.303l0.203,0.093l-0.14,0.303L27.449,17.386z"/>
</g>
<g id="Black_2_">
	<path d="M5.991,17.188l0.286,0.606l-0.101,0.048l-0.287-0.607L5.991,17.188z"/>
	<path d="M6.086,16.208l0.118,0.315L5.995,16.6l-0.118-0.314L6.086,16.208z"/>
	<path d="M5.804,15.287l0.09,0.324L5.68,15.671l-0.092-0.323L5.804,15.287z"/>
	<path d="M5.601,14.349l0.064,0.332l-0.22,0.041L5.38,14.393L5.601,14.349z"/>
	<path d="M5.43,12.439l0.009,0.337l-0.225,0.005l-0.008-0.337L5.43,12.439z"/>
	<path d="M5.465,11.483l-0.02,0.334l-0.224-0.014l0.02-0.334L5.465,11.483z"/>
	<path d="M5.593,8.517l-0.404,1.514l-0.108-0.029l0.404-1.515L5.593,8.517z"/>
	<path d="M6.343,7.863L6.218,8.175L6.011,8.091l0.125-0.312L6.343,7.863z"/>
	<path d="M6.622,5.659L6.563,5.753l0.191,0.115L6.697,5.965l0.192,0.116L6.832,6.177l0.19,0.116L6.964,6.388l0.19,0.117L7.04,6.696
		L6.849,6.579l0.057-0.095L6.715,6.367l0.058-0.095L6.581,6.156l0.058-0.096L6.448,5.944l0.057-0.095l-0.19-0.116l0.116-0.191
		L6.622,5.659z"/>
	<path d="M8.735,3.601L7.669,4.75L7.586,4.673l1.067-1.147L8.735,3.601z"/>
	<path d="M11.061,1.887L9.751,2.746L9.689,2.652l1.31-0.858L11.061,1.887z"/>
	<path d="M11.958,1.452l-0.604,0.294l-0.048-0.101l0.603-0.293L11.958,1.452z"/>
	<path d="M13.828,0.762l-0.643,0.196l-0.032-0.108l0.642-0.196L13.828,0.762z"/>
	<path d="M14.783,0.997l-0.328,0.071L14.408,0.85l0.328-0.071L14.783,0.997z"/>
	<path d="M16.691,0.787l-0.334,0.015l-0.011-0.225l0.336-0.016L16.691,0.787z"/>
	<path d="M18.771,0.463l-0.666-0.08l0.013-0.111l0.667,0.08L18.771,0.463z"/>
	<path d="M19.554,1.066l-0.329-0.068l0.045-0.219l0.329,0.068L19.554,1.066z"/>
	<path d="M21.561,1.204l-1.486-0.495l0.034-0.105l1.486,0.496L21.561,1.204z"/>
	<path d="M23.496,1.833l-0.097-0.055l-0.113,0.193l-0.097-0.056l-0.112,0.194l-0.098-0.057l-0.111,0.195L22.771,2.19l-0.11,0.193
		l-0.194-0.111l0.112-0.194l0.097,0.057l0.112-0.195l0.097,0.057l0.113-0.195l0.097,0.057l0.112-0.194l0.098,0.056l0.111-0.193
		l0.194,0.111L23.496,1.833z"/>
	<path d="M24.935,3.306l-0.52-0.427l0.072-0.085l0.519,0.427L24.935,3.306z"/>
	<path d="M25.265,4.234L25.024,4l0.156-0.16l0.238,0.234L25.265,4.234z"/>
	<path d="M27.415,6.279L26.541,4.98l0.093-0.063l0.874,1.299L27.415,6.279z"/>
	<path d="M28.24,7.984l-0.664-1.418l0.102-0.047l0.663,1.417L28.24,7.984z"/>
	<path d="M28.546,8.93l-0.211-0.636l0.108-0.035l0.208,0.637L28.546,8.93z"/>
	<path d="M28.495,10.839l-0.049-0.333l0.22-0.032l0.05,0.331L28.495,10.839z"/>
	<path d="M29.037,11.875l-0.045-0.669l0.11-0.008l0.046,0.671L29.037,11.875z"/>
	<path d="M28.59,12.754l0.004-0.335l0.224,0.003l-0.004,0.334L28.59,12.754z"/>
	<path d="M28.784,14.855l0.12-0.662l0.111,0.021l-0.122,0.66L28.784,14.855z"/>
	<path d="M28.135,15.596l0.086-0.324l0.217,0.059l-0.088,0.324L28.135,15.596z"/>
	<path d="M28.21,16.762l0.228-0.631l0.105,0.039l-0.228,0.631L28.21,16.762z"/>
	<path d="M27.449,17.386l0.139-0.303l0.203,0.093l-0.14,0.303L27.449,17.386z"/>
</g>
</svg>
