<?xml version="1.0" encoding="utf-8"?>
<!-- Generator: Adobe Illustrator 16.0.0, SVG Export Plug-In . SVG Version: 6.00 Build 0)  -->
<!DOCTYPE svg PUBLIC "-//W3C//DTD SVG 1.1//EN" "http://www.w3.org/Graphics/SVG/1.1/DTD/svg11.dtd">
<svg version="1.1" id="Layer_1" xmlns="http://www.w3.org/2000/svg" xmlns:xlink="http://www.w3.org/1999/xlink" x="0px" y="0px"
	 width="36px" height="36px" viewBox="0 0 36 36" enable-background="new 0 0 36 36" xml:space="preserve">
<path fill="#010101" d="M17.677,0.513c-5.964,0-10.292,1.451-10.292,3.452c0,1.012,1.034,1.869,2.993,2.477
	c1.835,0.57,4.404,0.885,7.23,0.885c5.183,0,10.416-1.01,10.416-3.262C28.024,2.04,23.576,0.513,17.677,0.513z M8.098,3.773
	c0-1.104,4.061-2.812,9.458-2.812c5.323,0,9.815,1.749,9.815,2.847c0,1.097-4.471,2.846-9.765,2.846
	C12.358,6.654,8.098,4.912,8.098,3.773z"/>
<ellipse id="Inner_circle_2_" fill="#010101" cx="17.887" cy="4.852" rx="5.287" ry="1.553"/>
<g id="Second_Ring_2_">
	<path fill="#010101" d="M17.658,2.338c-3.655,0-6.618,1.147-6.618,2.562c0,0.223,0.043,0.368,0.18,0.573
		c0.312,0.116,0.703,0.293,1.108,0.388c-0.379-0.292-0.591-0.62-0.591-0.967c0-1.225,2.655-2.219,5.932-2.219
		c3.276,0,5.932,0.994,5.932,2.219c0,0.305-0.164,0.595-0.46,0.86c0.329-0.075,0.643-0.156,0.938-0.243
		c0.003-0.001,0.005-0.002,0.008-0.002c0.122-0.195,0.188-0.398,0.188-0.608C24.275,3.485,21.313,2.338,17.658,2.338z"/>
</g>
<g id="Third_ring_2_">
	<path fill="#010101" d="M25.744,4.961c0.021-0.083,0.033-0.166,0.033-0.25c0-1.582-3.671-2.863-8.198-2.863
		c-4.528,0-8.186,1.12-8.186,2.702c0,0.076-0.018,0.198-0.005,0.235c0.264,0.106,0.435,0.23,0.757,0.324
		c-0.028-0.175-0.039-0.168-0.039-0.382c0-1.438,3.35-2.606,7.482-2.606c4.132,0,7.482,1.167,7.482,2.606
		c0,0.167-0.046,0.331-0.134,0.49C25.223,5.135,25.493,5.05,25.744,4.961z"/>
</g>
<g id="forth_ring_2_">
	<path fill="#010101" d="M27.063,3.897c-1.282-1.46-5.162-2.522-9.75-2.522c-4.684,0-8.563,1.268-9.006,2.609
		C8.278,4.039,8.626,4.382,8.896,4.559c0.002-0.047,0-0.074,0-0.121c0-1.519,3.906-2.745,8.753-2.745
		c4.849,0,8.779,1.232,8.779,2.751c0,0.012-0.002,0.023-0.004,0.035C26.701,4.289,26.914,4.095,27.063,3.897z"/>
</g>
<path fill="#010101" d="M27.587,31.896c-0.024-0.036-0.043-0.068-0.064-0.101c-0.169,0.155-0.35,0.32-0.503,0.463
	c-0.007,0.006-0.012,0.011-0.012,0.011c-0.104,0.104-0.213,0.203-0.324,0.299c-0.018,0.015-0.027,0.025-0.027,0.025v-0.002
	c-3.15,2.67-9.199,2.433-9.199,2.433c-4.677,0.017-7.058-1.179-8.126-1.979l-0.008,0.001c0,0-0.036-0.028-0.095-0.08
	c-0.158-0.123-0.281-0.233-0.377-0.328c-0.269-0.241-0.605-0.556-0.877-0.855c-0.5,0.758,0.205,1.504,0.205,1.504
	c1.711,2.586,9.408,2.702,9.408,2.702c7.4,0.231,9.974-2.961,9.974-2.961C28.166,32.423,27.587,31.896,27.587,31.896z"/>
<circle fill="#010101" cx="17.785" cy="21.532" r="2.871"/>
<g>
	<path fill="#010101" d="M27.522,31.795c-0.002,0.002-0.003,0.003-0.004,0.004c0.022,0.031,0.046,0.062,0.068,0.097
		C27.563,31.859,27.544,31.827,27.522,31.795z"/>
	<polygon fill="#010101" points="27.02,32.258 27.02,32.258 27.02,32.258 	"/>
	<path fill="#010101" d="M27.229,31.505v0.561c-0.02,0.018-0.037,0.034-0.057,0.053c0.112-0.104,0.231-0.215,0.347-0.319
		C27.411,31.661,27.309,31.566,27.229,31.505z"/>
</g>
<g>
	<path fill="#010101" d="M7.974,31.782C7.983,31.768,7.99,31.755,8,31.741c0,0,0.056-0.089,0.134-0.184v0.393L7.974,31.782z"/>
</g>
<path fill="#010101" d="M27.228,13.624V8.74c-0.004-0.001-0.006-0.003-0.007-0.004l-0.004-2.644l0.002-0.001V5.696l-0.001,0
	l0.001-0.245c-1.66,1.284-5.646,1.874-9.609,1.874c-2.828,0-5.396-0.314-7.23-0.883C9.374,6.129,8.614,5.751,8.111,5.321
	l0.003,0.258h0.001l0.015,0.779h0v12.717h0.002V31.95c0.098,0.102,0.198,0.201,0.3,0.3v-0.769c2.289,1.581,5.577,2.575,9.24,2.575
	c3.669,0,6.964-0.998,9.256-2.583v0.868c0.025-0.025,0.053-0.049,0.078-0.073c0,0,0.005-0.005,0.012-0.011
	c0.066-0.062,0.136-0.126,0.209-0.192V18.897h0.006L27.228,13.624z M8.281,8.7V8.481l0.001,0.217C8.282,8.699,8.282,8.699,8.281,8.7
	z M26.93,31.049c-2.292,1.586-5.587,2.583-9.256,2.583c-3.663,0-6.951-0.995-9.241-2.575V19.165c1.615,1.129,3.737,1.96,6.141,2.355
	c0.006-1.769,1.441-3.2,3.21-3.2c1.764,0,3.195,1.422,3.211,3.182c2.312-0.394,4.356-1.196,5.935-2.273V31.049L26.93,31.049z
	 M25.183,7.781l0.007,0.008c-1.964,0.65-4.596,1.047-7.492,1.047c-3.035,0-5.781-0.437-7.77-1.143
	C8.98,7.321,8.421,6.862,8.281,6.738V6.302l0.006-0.004c0.069,0.104,0.164,0.205,0.266,0.296C9.076,7.113,10.979,8.282,17.6,8.48
	c0,0,7.046,0.105,9.466-2.111l0.001,0.44C26.414,7.354,25.183,7.781,25.183,7.781z"/>
</svg>
