<?xml version="1.0" encoding="UTF-8" standalone="no"?>
<!-- Generator: Adobe Illustrator 16.0.0, SVG Export Plug-In . SVG Version: 6.00 Build 0)  -->

<svg
   version="1.1"
   id="Layer_1"
   x="0px"
   y="0px"
   width="144px"
   height="36px"
   viewBox="0 0 144 36"
   enable-background="new 0 0 144 36"
   xml:space="preserve"
   sodipodi:docname="SOUP.svg"
   inkscape:version="1.2.2 (732a01da63, 2022-12-09)"
   xmlns:inkscape="http://www.inkscape.org/namespaces/inkscape"
   xmlns:sodipodi="http://sodipodi.sourceforge.net/DTD/sodipodi-0.dtd"
   xmlns="http://www.w3.org/2000/svg"
   xmlns:svg="http://www.w3.org/2000/svg"><defs
   id="defs50" /><sodipodi:namedview
   id="namedview48"
   pagecolor="#ffffff"
   bordercolor="#000000"
   borderopacity="0.25"
   inkscape:showpageshadow="2"
   inkscape:pageopacity="0.0"
   inkscape:pagecheckerboard="0"
   inkscape:deskcolor="#d1d1d1"
   showgrid="false"
   inkscape:zoom="9.0972222"
   inkscape:cx="72"
   inkscape:cy="18.082443"
   inkscape:window-width="1920"
   inkscape:window-height="1001"
   inkscape:window-x="-9"
   inkscape:window-y="379"
   inkscape:window-maximized="1"
   inkscape:current-layer="Layer_1" />
<g
   id="g45">
	
	
	
	
	
	<path
   fill="#010101"
   d="M61.888,26.17c0-0.731,0.541-1.451,1.309-1.451c0.203,0,0.384,0.036,0.527,0.132   c0.264,0.181,0.275,0.433,0.275,0.433s-0.301-0.145-0.492-0.156c-0.516,0-0.791,0.504-0.791,0.959c0,0.755,0.623,1.211,1.344,1.211   c0.814,0,1.367-0.54,1.367-1.355c0-0.646-0.373-1.271-0.852-1.69c-0.24-0.216-0.505-0.433-0.793-0.685   c-0.287-0.239-0.552-0.468-0.791-0.684c-0.479-0.432-0.853-1.032-0.853-1.691c0-1.066,0.84-1.69,1.859-1.69   c0.42,0,0.899,0.18,1.271,0.384c0.146,0.084,0.229,0.12,0.24,0.12c0.059,0,0.215-0.084,0.215-0.084v1.307   c0,0-1.043-0.936-1.654-0.936c-0.553,0-1.067,0.324-1.067,0.924c0,0.444,0.385,0.983,1.164,1.619   c0.996,0.73,2.135,1.679,2.135,3.01c0,1.319-0.912,2.243-2.23,2.243C62.943,28.089,61.888,27.369,61.888,26.17z"
   id="path37" />
	<path
   fill="#010101"
   d="M69.878,22.2c1.656,0,2.879,1.282,2.879,2.926c0,1.655-1.223,2.926-2.879,2.926   c-1.666,0-2.879-1.271-2.879-2.926C66.999,23.482,68.212,22.2,69.878,22.2z M67.839,25.126c0,1.211,0.793,2.135,2.039,2.135   c1.225,0,2.051-0.923,2.051-2.135s-0.813-2.135-2.051-2.135C68.644,22.992,67.839,23.927,67.839,25.126z"
   id="path39" />
	<path
   fill="#010101"
   d="M73.468,22.176h1.451c0,0-0.287,0.335-0.287,0.563v2.507c0,1.079,0.383,2.026,1.606,2.026   c0.468,0,0.826-0.144,1.091-0.42v-4.113c0-0.229-0.287-0.563-0.287-0.563h1.438c0,0-0.287,0.335-0.287,0.563v4.772   c0,0.216,0.287,0.563,0.287,0.563h-1.151v-0.527c-0.3,0.335-0.695,0.527-1.091,0.527c-1.752,0-2.481-1.188-2.481-2.818v-2.52   C73.757,22.512,73.468,22.176,73.468,22.176z"
   id="path41" />
	<path
   fill="#010101"
   d="M79.325,30.57c0,0,0.286-0.335,0.286-0.563V22.74c0-0.229-0.286-0.563-0.286-0.563h2.288   c1.535,0,2.808,0.768,2.808,2.422c0,0.744-0.215,1.309-0.769,1.775c-0.61,0.526-3.178,1.427-3.178,1.427v2.207   c0,0.228,0.287,0.563,0.287,0.563H79.325z M80.476,26.998c0,0,1.535-0.66,2.578-1.175c0.373-0.192,0.492-0.673,0.492-1.2   c0-1.199-0.84-1.644-1.943-1.644h-1.127V26.998L80.476,26.998z"
   id="path43" />
</g>
</svg>
