<?xml version="1.0" encoding="UTF-8" standalone="no"?>
<!-- Generator: Adobe Illustrator 16.0.0, SVG Export Plug-In . SVG Version: 6.00 Build 0)  -->

<svg
   version="1.1"
   id="Layer_1"
   x="0px"
   y="0px"
   width="36px"
   height="36px"
   viewBox="0 0 36 36"
   enable-background="new 0 0 36 36"
   xml:space="preserve"
   sodipodi:docname="Weiner ship it - reverse.svg"
   inkscape:version="1.2.2 (732a01da63, 2022-12-09)"
   xmlns:inkscape="http://www.inkscape.org/namespaces/inkscape"
   xmlns:sodipodi="http://sodipodi.sourceforge.net/DTD/sodipodi-0.dtd"
   xmlns="http://www.w3.org/2000/svg"
   xmlns:svg="http://www.w3.org/2000/svg"><defs
   id="defs722" /><sodipodi:namedview
   id="namedview720"
   pagecolor="#ffffff"
   bordercolor="#000000"
   borderopacity="0.25"
   inkscape:showpageshadow="2"
   inkscape:pageopacity="0.0"
   inkscape:pagecheckerboard="0"
   inkscape:deskcolor="#d1d1d1"
   showgrid="false"
   inkscape:zoom="22.611111"
   inkscape:cx="18"
   inkscape:cy="18.022113"
   inkscape:window-width="1920"
   inkscape:window-height="1001"
   inkscape:window-x="-9"
   inkscape:window-y="379"
   inkscape:window-maximized="1"
   inkscape:current-layer="Layer_1" />
<g
   id="Speech_bubble_copy_2"
   transform="matrix(-1,0,0,1,36.917822,0)">
	<path
   fill="#231f20"
   d="M 19.808,8.747 22.261,7.226 C 19.903,6.635 18.386,5.375 18.386,3.998 c 0,-1.972 3.065,-3.576 6.832,-3.576 3.766,0 6.829,1.604 6.829,3.576 0,1.973 -3.063,3.578 -6.829,3.578 -0.397,0 -0.803,-0.019 -1.208,-0.056 z m 5.409,-8.226 c -3.713,0 -6.733,1.56 -6.733,3.478 0,1.351 1.537,2.592 3.915,3.16 l 0.114,0.028 -2.038,1.263 3.524,-1.028 0.01,0.001 c 0.404,0.037 0.811,0.057 1.208,0.057 3.711,0 6.73,-1.562 6.73,-3.48 0,-1.919 -3.019,-3.479 -6.73,-3.479 z"
   id="path457" />
</g>
<g
   id="Black_copy"
   transform="matrix(-1,0,0,1,36.917822,0)">
	<g
   id="g698">
		<g
   id="g464">
			<path
   fill="#010101"
   d="M 22.382,7.182 C 20.049,6.623 18.429,5.397 18.429,3.974 c 0,-0.356 0.103,-0.701 0.291,-1.023 -0.273,0.381 -0.423,0.795 -0.423,1.226 0,1.395 1.557,2.6 3.815,3.173 z"
   id="path460" />
			<path
   fill="#010101"
   d="m 25.212,7.502 c -0.415,0 -0.819,-0.02 -1.213,-0.058 l -3.493,1.021 -0.501,0.311 3.861,-1.129 c 0.393,0.038 0.801,0.057 1.214,0.057 3.062,0 5.648,-1.055 6.49,-2.504 -0.958,1.344 -3.444,2.302 -6.358,2.302 z"
   id="path462" />
		</g>
		<g
   id="g510">
			<path
   fill="#010101"
   d="m 25.493,8.471 c -0.006,-0.021 -0.012,-0.04 -0.016,-0.06 0.046,-0.008 0.091,-0.008 0.134,0 0.003,0.009 0.007,0.018 0.009,0.025 0.017,0.083 -0.109,0.118 -0.127,0.035 z"
   id="path466" />
			<path
   fill="#010101"
   d="m 24.479,8.185 c 0.036,-0.029 0.079,-0.055 0.119,-0.079 0.004,10e-4 0.006,0.004 0.008,0.005 0.067,0.048 0,0.161 -0.067,0.11 -0.021,-0.013 -0.041,-0.024 -0.06,-0.036 z"
   id="path468" />
			<path
   fill="#010101"
   d="M 24.615,9.46 C 24.578,9.534 24.466,9.469 24.502,9.395 24.503,9.39 24.506,9.387 24.508,9.384 24.553,9.39 24.593,9.406 24.629,9.433 24.624,9.442 24.618,9.451 24.615,9.46 Z"
   id="path470" />
			<path
   fill="#010101"
   d="m 24.502,9.395 c -0.037,0.074 0.076,0.14 0.113,0.065 0.003,-0.009 0.01,-0.019 0.014,-0.028 0.032,0.024 0.062,0.051 0.088,0.086 0.05,0.068 -0.064,0.132 -0.114,0.065 -0.042,-0.055 -0.099,-0.078 -0.166,-0.072 -0.085,0.007 -0.085,-0.124 0,-0.13 0.023,-0.003 0.049,-0.003 0.069,0.003 0,0.003 -0.003,0.006 -0.004,0.011 z"
   id="path472" />
			<path
   fill="#010101"
   d="m 24.144,10.057 c -0.011,0.04 -0.021,0.08 -0.03,0.121 -0.053,-0.035 -0.104,-0.064 -0.158,-0.091 0.085,-0.017 0.149,-0.027 0.188,-0.03 z"
   id="path474" />
			<path
   fill="#010101"
   d="M 25.478,8.412 C 25.326,7.918 24.767,8.083 24.468,8.37 24.235,8.593 24.006,8.865 23.926,9.186 23.888,9.165 23.843,9.155 23.799,9.16 c 0.086,-0.367 0.36,-0.74 0.683,-0.977 0.018,0.012 0.038,0.023 0.06,0.038 0.065,0.05 0.135,-0.063 0.065,-0.11 C 24.605,8.11 24.603,8.108 24.599,8.106 24.638,8.083 24.674,8.062 24.713,8.043 25.106,7.855 25.507,7.986 25.611,8.411 25.568,8.404 25.523,8.404 25.478,8.412 Z"
   id="path476" />
			<path
   fill="#010101"
   d="M 23.918,9.223 C 23.901,9.305 23.775,9.271 23.792,9.187 23.793,9.179 23.797,9.17 23.799,9.161 23.843,9.156 23.886,9.166 23.926,9.186 23.924,9.201 23.921,9.212 23.918,9.223 Z"
   id="path478" />
			<path
   fill="#010101"
   d="M 24.019,9.253 C 24.08,9.313 23.988,9.405 23.926,9.346 23.885,9.303 23.827,9.269 23.768,9.297 23.69,9.334 23.623,9.221 23.7,9.186 c 0.033,-0.014 0.067,-0.023 0.1,-0.023 -0.002,0.01 -0.006,0.019 -0.007,0.026 -0.018,0.083 0.11,0.119 0.126,0.036 0.003,-0.012 0.006,-0.022 0.008,-0.037 0.034,0.015 0.064,0.035 0.092,0.065 z"
   id="path480" />
			<path
   fill="#010101"
   d="m 23.741,11.388 c 0.011,0.016 0.02,0.033 0.026,0.048 -0.036,0.023 -0.077,0.045 -0.115,0.063 -0.008,-0.014 -0.018,-0.029 -0.026,-0.046 -0.044,-0.071 0.068,-0.136 0.115,-0.065 z"
   id="path482" />
			<path
   fill="#010101"
   d="m 23.44,9.749 c 0.25,0.064 0.489,0.155 0.711,0.298 l -0.008,0.01 c -0.036,0.002 -0.102,0.013 -0.188,0.03 C 23.78,9.992 23.599,9.926 23.404,9.875 23.32,9.853 23.357,9.727 23.44,9.749 Z"
   id="path484" />
			<path
   fill="#010101"
   d="m 24.179,10.066 c 0.058,0.035 0.029,0.113 -0.035,0.122 -0.132,0.013 -1.096,0.206 -0.94,0.383 0.054,0.063 -0.036,0.156 -0.093,0.092 -0.294,-0.332 0.453,-0.513 0.844,-0.576 0.054,0.027 0.104,0.057 0.157,0.091 0.011,-0.041 0.021,-0.08 0.03,-0.121 l 0.006,-0.009 c 0.011,0.006 0.019,0.012 0.031,0.018 z"
   id="path486" />
			<path
   fill="#010101"
   d="M 24.599,8.106 C 24.559,8.13 24.518,8.157 24.48,8.185 23.707,7.75 23.349,9.743 22.758,9.668 22.721,9.612 22.69,9.551 22.659,9.486 c 0.004,0.002 0.008,0.003 0.01,0.006 0.396,0.313 1.064,-1.986 1.93,-1.386 z"
   id="path488" />
			<path
   fill="#010101"
   d="m 22.659,9.487 c 0.03,0.064 0.063,0.126 0.1,0.182 C 22.7,9.662 22.642,9.636 22.579,9.587 22.575,9.583 22.571,9.58 22.567,9.577 v 0 c -0.002,-0.006 -0.004,-0.01 -0.008,-0.016 0,-0.002 0,-0.005 -0.002,-0.006 V 9.553 C 22.546,9.506 22.609,9.457 22.659,9.487 Z"
   id="path490" />
			<path
   fill="#010101"
   d="m 23.142,9.88 c 0.085,-0.001 0.085,0.128 0,0.131 -0.309,0.007 -0.455,-0.171 -0.574,-0.436 0.004,0.003 0.008,0.006 0.012,0.01 0.063,0.049 0.121,0.076 0.18,0.082 0.081,0.129 0.194,0.218 0.382,0.213 z"
   id="path492" />
			<path
   fill="#010101"
   d="m 22.56,9.56 c 0.004,0.006 0.006,0.01 0.008,0.016 C 22.562,9.569 22.56,9.563 22.558,9.555 22.56,9.556 22.56,9.559 22.56,9.56 Z"
   id="path494" />
			<path
   fill="#010101"
   d="m 22.174,11.128 c 0.042,-0.045 0.135,-0.011 0.111,0.061 -0.008,0.021 -0.013,0.043 -0.018,0.065 -0.015,-0.013 -0.025,-0.027 -0.037,-0.042 -0.017,-0.027 -0.037,-0.056 -0.056,-0.084 z"
   id="path496" />
			<path
   fill="#010101"
   d="m 23.77,11.437 c 0.226,0.428 -0.368,0.646 -0.724,0.665 -0.555,0.026 -1.078,-0.364 -0.885,-0.947 0.005,-0.011 0.009,-0.017 0.015,-0.024 0.019,0.027 0.037,0.057 0.058,0.083 0.011,0.015 0.023,0.03 0.037,0.042 -0.104,0.453 0.332,0.755 0.775,0.715 0.248,-0.021 0.772,-0.141 0.606,-0.47 0.038,-0.019 0.081,-0.041 0.118,-0.064 z"
   id="path498" />
			<path
   fill="#010101"
   d="m 24.852,10.071 c -0.234,0.46 -0.586,1.069 -1.084,1.367 -0.009,-0.017 -0.018,-0.033 -0.028,-0.049 -0.047,-0.071 -0.159,-0.005 -0.113,0.065 0.01,0.017 0.019,0.032 0.026,0.047 -0.136,0.065 -0.277,0.105 -0.434,0.114 -0.362,0.024 -0.715,-0.071 -0.95,-0.359 0.005,-0.021 0.011,-0.043 0.018,-0.065 0.022,-0.072 -0.07,-0.105 -0.11,-0.061 -0.22,-0.35 -0.204,-0.723 -0.408,-1.094 0.045,0.061 0.145,0.013 0.123,-0.048 0.279,0.536 0.223,1.567 1.141,1.51 0.693,-0.044 1.224,-0.559 1.533,-1.153 0.244,-0.473 0.5,-0.805 0.937,-1.114 0.16,-0.114 0.442,-0.406 0.225,-0.578 C 25.249,8.276 24.801,9.101 24.631,9.436 24.595,9.411 24.555,9.394 24.51,9.387 c 0.126,-0.246 0.575,-0.9 0.97,-0.972 0.005,0.019 0.011,0.04 0.016,0.06 0.018,0.082 0.145,0.048 0.127,-0.036 -0.002,-0.007 -0.006,-0.016 -0.008,-0.025 0.099,0.022 0.193,0.091 0.271,0.225 0.086,0.149 0.063,0.354 -0.057,0.479 -0.322,0.333 -0.758,0.519 -0.977,0.953 z"
   id="path500" />
			<path
   fill="#010101"
   d="m 21.889,9.987 c 0.022,0.062 -0.077,0.108 -0.121,0.048 -0.039,-0.068 0.056,-0.13 0.1,-0.081 0.005,0.005 0.007,0.01 0.012,0.014 0.005,0.005 0.005,0.013 0.009,0.019 z"
   id="path502" />
			<path
   fill="#010101"
   d="m 21.867,9.953 c -0.044,-0.049 -0.139,0.012 -0.1,0.081 -0.124,-0.161 -0.229,-0.365 -0.446,-0.4 -0.032,-0.006 -0.046,-0.027 -0.048,-0.052 0.022,0.047 0.105,0.057 0.122,-0.008 0.006,-0.018 0.009,-0.038 0.016,-0.055 0.212,0.062 0.33,0.263 0.456,0.434 z"
   id="path504" />
			<path
   fill="#010101"
   d="m 21.411,9.519 c -0.006,0.017 -0.01,0.037 -0.016,0.056 -0.015,0.064 -0.1,0.056 -0.122,0.007 0,-0.001 0,-0.001 0,-0.003 0,-0.037 0.033,-0.079 0.081,-0.072 0.023,0.003 0.04,0.007 0.057,0.012 z"
   id="path506" />
			<path
   fill="#010101"
   d="M 21.896,9.042 C 21.678,9.125 21.486,9.292 21.411,9.52 21.393,9.515 21.376,9.51 21.354,9.508 21.306,9.502 21.273,9.544 21.273,9.58 21.267,9.569 21.263,9.556 21.267,9.54 21.359,9.16 21.72,8.885 22.105,8.899 c 0.337,0.01 0.433,0.321 0.554,0.589 -0.05,-0.031 -0.111,0.02 -0.102,0.065 -0.116,-0.261 -0.26,-0.665 -0.661,-0.511 z"
   id="path508" />
		</g>
		<path
   fill="#010101"
   d="m 22.827,12.038 c -0.145,-0.032 -0.277,-0.082 -0.388,-0.15 -0.071,0.281 -0.15,0.563 -0.24,0.838 -0.06,0.179 -0.125,0.354 -0.193,0.527 -0.146,0.333 -0.319,0.656 -0.535,0.949 -0.133,0.164 -0.28,0.313 -0.439,0.446 -0.109,0.08 -0.224,0.151 -0.348,0.208 -0.107,0.042 -0.222,0.072 -0.335,0.091 -0.148,0.015 -0.296,0.012 -0.443,-0.004 -0.262,-0.042 -0.514,-0.121 -0.759,-0.22 -0.554,-0.242 -1.064,-0.576 -1.559,-0.922 0.033,0.468 0.083,0.926 0.149,1.372 0.076,0.046 0.15,0.095 0.226,0.139 0.324,0.188 0.659,0.349 1.009,0.48 0.333,0.125 0.683,0.202 1.04,0.226 0.195,0.012 0.388,-0.009 0.58,-0.038 0.149,-0.021 0.295,-0.063 0.433,-0.121 0.179,-0.073 0.346,-0.153 0.503,-0.263 0.142,-0.098 0.279,-0.207 0.404,-0.326 0.227,-0.213 0.422,-0.463 0.591,-0.722 0.154,-0.236 0.284,-0.488 0.398,-0.746 0.256,-0.586 0.443,-1.195 0.594,-1.819 0.006,-0.021 0.012,-0.043 0.016,-0.065 -0.224,0.116 -0.55,0.154 -0.704,0.12 z"
   id="path512" />
		<path
   fill="#010101"
   d="M 8.655,13.343 C 8.632,12.98 8.613,12.612 8.596,12.235 7.226,12.04 5.656,12.506 5.069,13.819 4.694,14.66 4.907,15.552 5.246,16.364 5.508,16.989 5.999,17.788 6.034,18.528 6.283,18.288 6.757,18.189 7.079,18.291 6.914,17.228 6.182,16.155 5.957,15.139 5.608,13.564 7.404,13.124 8.655,13.343 Z"
   id="path514" />
		<g
   id="XMLID_4_">
			<g
   id="g518">
				<path
   fill="#010101"
   d="M 20.767,22.366 C 20.731,21.917 20.581,21.491 20.32,21.114 20.025,20.748 19.71,20.348 19.422,19.933 19.225,19.641 19.03,19.32 18.813,18.915 18.338,17.937 17.967,16.891 17.711,15.805 17.459,14.454 17.364,12.994 17.428,11.467 17.552,9.814 17.845,8.08 18.325,6.162 18.476,5.558 18.319,4.795 17.92,4.219 17.827,4.086 17.72,3.961 17.604,3.846 17.629,3.963 17.646,4.081 17.654,4.2 17.69,4.682 17.599,5.146 17.39,5.582 l -0.062,0.091 c -0.524,0.802 -0.947,1.632 -1.258,2.469 -0.233,0.774 -0.389,1.604 -0.462,2.461 -0.026,0.798 0.012,1.651 0.115,2.683 0.097,0.972 0.243,1.944 0.433,2.895 0.202,0.9 0.446,1.773 0.721,2.595 0.321,0.964 0.628,1.736 0.964,2.438 0.304,0.55 0.667,1.091 1.105,1.653 0.389,0.5 0.558,1.267 0.441,1.975 0.097,-0.049 0.189,-0.105 0.278,-0.168 0.546,-0.378 0.932,-0.964 1.056,-1.613 z m -0.342,-1.331 c 0.274,0.402 0.433,0.848 0.471,1.331 l -0.038,0.709 c -0.137,0.69 -0.542,1.31 -1.114,1.707 -0.131,0.09 -0.27,0.169 -0.416,0.235 L 19.21,25.07 19.238,24.938 C 19.24,24.923 19.245,24.911 19.247,24.894 19.384,24.2 19.225,23.438 18.844,22.95 18.403,22.381 18.036,21.834 17.727,21.274 17.387,20.566 17.079,19.785 16.756,18.82 16.48,17.994 16.235,17.115 16.031,16.21 15.841,15.254 15.695,14.275 15.598,13.301 15.494,12.262 15.457,11.404 15.483,10.595 15.557,9.727 15.714,8.888 15.949,8.103 16.264,7.25 16.692,6.411 17.221,5.602 L 17.277,5.518 C 17.471,5.111 17.557,4.67 17.523,4.211 17.51,4.029 17.477,3.849 17.424,3.674 l -0.061,-0.207 0.166,0.138 c 0.19,0.158 0.359,0.339 0.498,0.54 0.418,0.607 0.585,1.411 0.425,2.05 -0.479,1.911 -0.773,3.638 -0.895,5.282 -0.062,1.515 0.031,2.965 0.281,4.304 0.256,1.072 0.623,2.11 1.091,3.078 0.215,0.396 0.405,0.716 0.604,1.001 0.28,0.411 0.596,0.808 0.892,1.175 z"
   id="path516" />
			</g>
		</g>
		<g
   id="g539">
			<path
   fill="#010101"
   d="m 13.835,7.209 c 0.168,-0.084 0.297,-0.22 0.457,-0.321 0.288,-0.185 0.616,0.044 0.734,0.308 0.026,0.059 0.11,0.009 0.084,-0.048 -0.096,-0.216 -0.274,-0.391 -0.52,-0.41 -0.353,-0.027 -0.513,0.243 -0.805,0.385 -0.057,0.027 -0.006,0.112 0.05,0.086 z"
   id="path521" />
			<path
   fill="#010101"
   d="m 11.64,7.016 c 0.169,-0.082 0.299,-0.219 0.457,-0.319 0.289,-0.185 0.616,0.044 0.734,0.309 0.025,0.058 0.111,0.008 0.085,-0.05 -0.097,-0.213 -0.274,-0.39 -0.52,-0.407 -0.355,-0.029 -0.513,0.24 -0.805,0.383 -0.057,0.027 -0.008,0.112 0.049,0.084 z"
   id="path523" />
			<path
   fill="#010101"
   d="m 13.362,10.5 c -0.019,-0.059 -0.114,-0.034 -0.093,0.026 0.028,0.085 0.059,0.17 0.092,0.251 -0.183,0.169 -0.508,0.156 -0.71,0.058 -0.017,-0.007 -0.172,-0.12 -0.255,-0.144 0.035,-0.062 0.065,-0.125 0.087,-0.193 0.022,-0.06 -0.073,-0.084 -0.094,-0.026 -0.087,0.239 -0.264,0.486 -0.503,0.586 -0.057,0.025 -0.033,0.12 0.027,0.095 0.042,-0.017 0.081,-0.04 0.119,-0.064 0.078,0.157 0.22,0.303 0.33,0.428 0.119,0.133 0.279,0.267 0.468,0.246 0.12,-0.012 0.23,-0.128 0.268,-0.237 0.055,-0.162 0.092,-0.305 0.205,-0.441 0.026,-0.032 0.104,-0.069 0.151,-0.112 0.05,0.093 0.111,0.184 0.187,0.269 0.041,0.049 0.109,-0.021 0.069,-0.067 -0.175,-0.203 -0.265,-0.426 -0.348,-0.675 z m -1.053,0.602 c 0.056,-0.1 0.139,-0.025 0.181,0.041 0.019,0.03 0.055,0.048 0.082,0.067 0.101,0.067 0.259,-0.054 0.312,0.103 0.018,0.055 0.012,0.107 0.011,0.162 -0.006,0.165 -0.244,0.082 -0.312,0.046 -0.146,-0.076 -0.306,-0.242 -0.274,-0.419 z m 0.638,0.591 c -0.02,0.015 -0.042,0.026 -0.066,0.035 0.021,-0.009 0.043,-0.02 0.066,-0.035 z"
   id="path525" />
			<path
   fill="#010101"
   d="M 13.76,9.478 C 13.468,9.344 13.413,9.8 13.18,9.831 c -0.062,0.009 -0.036,0.104 0.027,0.095 0.172,-0.023 0.247,-0.211 0.355,-0.324 0.04,-0.039 0.083,-0.057 0.137,-0.043 0.119,0.027 0.131,0.145 0.112,0.243 -0.032,0.177 -0.153,0.234 -0.284,0.331 -0.052,0.038 -0.002,0.124 0.049,0.086 0.149,-0.109 0.265,-0.171 0.322,-0.357 C 13.944,9.708 13.913,9.55 13.76,9.478 Z"
   id="path527" />
			<path
   fill="#010101"
   d="m 14.545,7.196 c -0.285,0 -0.53,0.349 -0.622,0.836 l 0.683,0.391 -0.699,0.404 c 0.031,0.21 0.089,0.397 0.167,0.547 0.141,-0.047 0.306,-0.075 0.481,-0.075 0.167,0 0.324,0.025 0.46,0.068 0.119,-0.23 0.19,-0.547 0.19,-0.894 0.003,-0.704 -0.293,-1.277 -0.66,-1.277 z"
   id="path529" />
			<path
   fill="#010101"
   d="m 12.809,9.377 c 0.115,-0.229 0.186,-0.541 0.186,-0.885 0,-0.705 -0.297,-1.275 -0.664,-1.275 -0.286,0 -0.528,0.346 -0.622,0.835 l 0.683,0.391 -0.698,0.407 c 0.03,0.197 0.083,0.376 0.156,0.522 0.139,-0.044 0.298,-0.07 0.469,-0.07 0.18,-0.002 0.347,0.026 0.49,0.075 z"
   id="path531" />
			<path
   fill="#010101"
   d="m 13.398,11.81 c -0.222,0.101 -0.456,0.188 -0.702,0.196 -0.249,0.006 -0.493,-0.069 -0.725,-0.15 -0.06,-0.021 -0.085,0.074 -0.026,0.094 0.245,0.085 0.498,0.161 0.761,0.153 0.261,-0.008 0.508,-0.104 0.742,-0.21 0.024,-0.011 0.03,-0.046 0.019,-0.068 -0.015,-0.023 -0.043,-0.026 -0.069,-0.015 z"
   id="path533" />
			<path
   fill="#010101"
   d="m 11.738,9.842 c -0.172,0.038 -0.343,0.096 -0.477,0.212 -0.142,0.123 -0.201,0.308 -0.214,0.489 -0.005,0.063 0.095,0.063 0.098,0 0.01,-0.16 0.064,-0.311 0.186,-0.419 0.119,-0.107 0.281,-0.155 0.433,-0.187 0.061,-0.013 0.034,-0.108 -0.026,-0.095 z"
   id="path535" />
			<path
   fill="#010101"
   d="m 14.324,10.063 c -0.021,-0.015 -0.048,-0.02 -0.069,0 -0.017,0.017 -0.021,0.055 0,0.069 0.213,0.168 0.378,0.396 0.405,0.672 0.006,0.063 0.104,0.063 0.098,0 -0.029,-0.302 -0.196,-0.556 -0.434,-0.741 z"
   id="path537" />
		</g>
		<path
   fill="#010101"
   d="m 15.063,3.398 c 0.093,-0.483 0.571,-0.651 1.029,-0.626 0.063,0.003 0.063,-0.096 0,-0.099 C 15.576,2.647 15.069,2.856 14.967,3.387 14.77,3.071 14.454,2.637 14.951,2.435 15.009,2.412 14.984,2.315 14.924,2.34 14.356,2.57 14.64,3.035 14.869,3.416 14.571,3.382 14.096,3.291 14.166,2.916 14.176,2.854 14.082,2.827 14.07,2.89 c -0.087,0.483 0.49,0.592 0.851,0.63 -0.081,0.407 -0.468,0.649 -0.878,0.603 -0.062,-0.007 -0.062,0.091 0,0.099 0.44,0.051 0.87,-0.22 0.967,-0.654 0.104,0.098 0.204,0.201 0.281,0.325 0.145,0.234 0.003,0.428 -0.188,0.57 -0.05,0.037 -10e-4,0.123 0.05,0.084 0.161,-0.119 0.34,-0.289 0.296,-0.511 -0.044,-0.221 -0.208,-0.391 -0.37,-0.542 0.413,-0.059 0.974,-0.026 0.957,0.514 -0.001,0.063 0.097,0.063 0.099,0 0.018,-0.61 -0.596,-0.677 -1.072,-0.61 z"
   id="path541" />
		<g
   id="g684">
			<g
   id="XMLID_3_">
				<g
   id="g681">
					<path
   fill="#010101"
   d="m 24.689,28.162 c -0.002,0 -0.002,0.002 -0.002,0.002 -0.065,-0.036 -0.137,-0.063 -0.206,-0.088 0.074,0.023 0.144,0.05 0.208,0.086 z"
   id="path543" />
					<path
   fill="#010101"
   d="m 24.146,27.99 c -0.125,-0.021 -0.262,-0.028 -0.396,-0.02 -0.039,0.001 -0.079,0.006 -0.115,0.011 0.33,-0.719 0.848,-1.386 1.081,-2.182 0.225,-0.778 0.383,-1.749 -0.029,-2.502 -0.243,-0.442 -0.588,-0.954 -1.131,-1.035 -0.92,-0.142 -1.919,0.705 -2.655,1.143 -0.057,0.033 -0.111,0.065 -0.165,0.099 0.051,-0.139 0.094,-0.281 0.123,-0.429 l 0.04,-0.711 c -0.006,-0.064 -0.013,-0.129 -0.021,-0.191 1.108,-0.711 2.215,-1.402 3.445,-0.771 1.224,0.63 1.818,2.168 1.658,3.487 -0.094,0.791 -0.292,1.585 -0.685,2.285 -0.174,0.31 -0.417,0.641 -0.603,0.988 -0.063,-0.036 -0.136,-0.063 -0.207,-0.086 -0.024,-0.009 -0.049,-0.017 -0.072,-0.025 -0.043,-0.012 -0.083,-0.022 -0.125,-0.032 -0.048,-0.012 -0.095,-0.022 -0.143,-0.029 z"
   id="path545" />
					<path
   fill="#010101"
   d="m 23.634,27.98 c 0.036,-0.005 0.077,-0.01 0.115,-0.011 -0.038,0.003 -0.076,0.008 -0.115,0.011 z"
   id="path547" />
					<path
   fill="#010101"
   d="m 22.56,29.618 c 0.143,0.336 0.596,0.545 1.078,0.684 0.005,-0.004 0.009,-0.009 0.017,-0.013 0.127,-0.071 0.269,-0.126 0.416,-0.075 0.128,0.048 0.22,0.165 0.316,0.256 0.002,0.002 0.002,0.004 0.004,0.006 0.179,0.035 0.335,0.062 0.453,0.088 0.595,0.128 1.81,0.579 2.45,0.266 -0.86,-0.307 -1.751,-0.438 -2.644,-0.634 -0.659,-0.142 -1.468,-0.274 -2.09,-0.578 z m 2.175,-0.489 c -0.412,-0.188 -0.931,-0.41 -1.397,-0.318 -0.262,0.05 -0.719,0.286 -0.788,0.588 0.747,0.401 1.812,0.549 2.629,0.703 0.781,0.149 1.554,0.302 2.298,0.587 0.308,-0.694 -0.034,-1.735 -0.861,-1.901 -0.547,-0.111 -1.345,0.132 -1.755,0.534 -0.007,0.013 -0.011,0.019 -0.015,0.027 -0.023,0.044 -0.062,0.058 -0.099,0.048 -0.073,-0.004 -0.137,-0.101 -0.071,-0.17 0.008,-0.008 0.016,-0.015 0.022,-0.021 0.012,-0.023 0.024,-0.051 0.037,-0.077 z m -0.503,-0.922 c -0.311,-0.061 -1.174,-0.087 -1.049,0.436 0.037,-0.01 0.07,-0.018 0.103,-0.021 0.534,-0.077 1.046,0.11 1.524,0.33 0.041,-0.117 0.064,-0.233 0.035,-0.315 -0.106,-0.276 -0.341,-0.378 -0.613,-0.43 z m 0.323,2.489 c -0.73,-0.186 -2.159,-0.269 -2.236,-1.26 -0.004,-0.04 0.016,-0.065 0.041,-0.079 0.049,-0.266 0.345,-0.513 0.634,-0.644 -0.103,-0.259 -0.139,-0.43 0.172,-0.594 0.137,-0.073 0.301,-0.119 0.47,-0.139 0.039,-0.005 0.077,-0.009 0.115,-0.011 0.136,-0.009 0.271,-0.003 0.397,0.02 0.047,0.007 0.095,0.017 0.139,0.028 0.041,0.01 0.082,0.021 0.124,0.032 0.024,0.01 0.047,0.018 0.071,0.025 0.071,0.023 0.142,0.052 0.206,0.086 0,0 0,0 0.003,0 0.163,0.087 0.294,0.213 0.344,0.423 0.033,0.128 0.023,0.238 -0.006,0.349 0.637,-0.419 1.548,-0.513 2.153,-0.065 0.621,0.455 0.772,1.318 0.443,1.974 -0.014,0.031 -0.036,0.044 -0.062,0.051 -0.309,0.248 -0.704,0.225 -1.092,0.188 -0.637,-0.059 -1.298,-0.226 -1.916,-0.384 z"
   id="path549" />
					<path
   fill="#010101"
   d="m 17.441,25.756 c -0.004,-0.026 -0.011,-0.053 -0.017,-0.077 0,-0.004 -0.002,-0.007 -0.003,-0.008 0.008,-0.003 0.013,-0.007 0.017,-0.011 0.006,-0.006 0.011,-0.009 0.017,-0.016 0.191,0.13 0.513,0.384 0.318,0.604 -0.042,0.049 -0.11,-0.02 -0.069,-0.068 0.115,-0.133 -0.114,-0.321 -0.263,-0.424 z"
   id="path551" />
					<path
   fill="#010101"
   d="m 17.402,25.612 c 0.011,-0.022 0.017,-0.048 0.025,-0.071 0.227,-0.184 0.528,-0.212 0.761,-0.004 0.048,0.042 -0.021,0.112 -0.068,0.069 -0.207,-0.187 -0.474,-0.137 -0.665,0.039 -0.018,-0.011 -0.037,-0.023 -0.05,-0.033 h -0.003 z"
   id="path553" />
					<path
   fill="#010101"
   d="m 17.408,25.733 c 0.018,-0.02 0.014,-0.044 -0.001,-0.06 0.006,0 0.011,-10e-4 0.015,-0.002 10e-4,0.001 0.003,0.004 0.003,0.007 0.005,0.024 0.013,0.053 0.017,0.078 -0.013,-0.009 -0.024,-0.017 -0.034,-0.023 z"
   id="path555" />
					<path
   fill="#010101"
   d="m 17.421,25.672 c -0.005,-0.018 -0.02,-0.024 -0.033,-0.026 0.004,-0.011 0.007,-0.021 0.013,-0.033 h 0.001 c 0.015,0.01 0.034,0.022 0.05,0.033 -0.005,0.007 -0.011,0.011 -0.017,0.017 0,0.001 -0.007,0.005 -0.014,0.009 z"
   id="path557" />
					<path
   fill="#010101"
   d="m 17.381,25.66 c 0.002,-0.008 0.005,-0.012 0.009,-0.016 0.012,0.002 0.027,0.01 0.032,0.026 -0.004,10e-4 -0.009,0.002 -0.015,0.002 v 0 C 17.4,25.664 17.39,25.66 17.381,25.66 Z"
   id="path559" />
					<path
   fill="#010101"
   d="m 17.381,25.66 c 0.009,0 0.02,0.004 0.025,0.014 -0.011,0 -0.02,-0.003 -0.028,-0.01 z"
   id="path561" />
					<path
   fill="#010101"
   d="m 17.369,25.658 c 0.003,-0.002 0.008,-0.002 0.011,0.002 0,0 -0.002,0.004 -0.003,0.004 -0.002,0 -0.005,-0.002 -0.008,-0.006 z"
   id="path563" />
					<path
   fill="#010101"
   d="m 17.366,25.658 c 0.001,0 0.001,0 0.003,0 -0.001,0 -0.001,0 -0.003,0 z"
   id="path565" />
					<path
   fill="#010101"
   d="m 17.389,25.646 c -0.012,-0.002 -0.02,-0.002 -0.029,0.002 -0.005,-0.011 -0.008,-0.023 -0.004,-0.035 0.013,-0.009 0.028,-0.011 0.046,0 0,0 0,0 0,0.002 -0.006,0.009 -0.009,0.02 -0.013,0.031 z"
   id="path567" />
					<path
   fill="#010101"
   d="m 17.381,25.66 c -0.003,-0.004 -0.008,-0.004 -0.011,-0.002 -0.001,-0.002 -0.001,-0.002 -0.003,-0.002 -0.001,-0.004 -0.003,-0.005 -0.007,-0.01 0.01,-0.005 0.019,-0.005 0.029,-0.003 -0.003,0.006 -0.006,0.011 -0.008,0.017 z"
   id="path569" />
					<path
   fill="#010101"
   d="m 17.375,25.672 c 0.001,-0.004 0.002,-0.004 0.002,-0.008 0.009,0.008 0.018,0.01 0.029,0.01 v 0 c 0.015,0.016 0.019,0.04 0.001,0.06 -0.02,-0.015 -0.04,-0.024 -0.053,-0.034 0,-0.002 -0.002,-0.004 -0.004,-0.006 0.01,-0.003 0.019,-0.009 0.025,-0.022 z"
   id="path571" />
					<path
   fill="#010101"
   d="m 17.402,25.612 c -0.018,-0.011 -0.034,-0.01 -0.046,0 10e-4,-0.008 0.006,-0.015 0.013,-0.021 0.02,-0.018 0.039,-0.036 0.06,-0.053 -0.011,0.026 -0.016,0.051 -0.027,0.074 z"
   id="path573" />
					<path
   fill="#010101"
   d="m 17.36,25.647 c 0.003,0.005 0.005,0.007 0.007,0.011 -0.001,0 -0.007,0 -0.01,0 0,-0.002 0,-0.006 -10e-4,-0.009 0,0 0.002,-0.002 0.004,-0.002 z"
   id="path575" />
					<path
   fill="#010101"
   d="m 17.369,25.658 c 0.001,0.004 0.005,0.006 0.008,0.006 0,0.004 -10e-4,0.004 -0.003,0.008 -0.005,0.013 -0.016,0.02 -0.025,0.021 -0.004,0 -0.004,-0.004 -0.006,-0.004 v -0.001 c 0.01,-0.009 0.014,-0.021 0.012,-0.03 0.003,-0.002 0.008,-0.002 0.01,-0.002 0.003,0.002 0.003,0.002 0.004,0.002 z"
   id="path577" />
					<path
   fill="#010101"
   d="m 17.338,25.664 c 0.004,-0.006 0.011,-0.012 0.018,-0.016 10e-4,0.003 10e-4,0.006 10e-4,0.01 -0.007,0.002 -0.015,0.004 -0.019,0.006 z"
   id="path579" />
					<path
   fill="#010101"
   d="m 17.355,25.612 c -0.003,0.012 -0.001,0.024 0.004,0.035 -0.001,0 -0.003,0.001 -0.004,0.002 -0.001,-0.008 -0.007,-0.014 -0.013,-0.021 h -10e-4 v -0.002 c 0.003,-0.006 0.009,-0.01 0.014,-0.014 z"
   id="path581" />
					<path
   fill="#010101"
   d="m 17.354,25.697 c 0.014,0.012 0.033,0.021 0.053,0.036 0,0.002 -0.002,0.004 -0.004,0.004 -0.018,0.019 -0.038,0.031 -0.059,0.045 -0.003,-0.026 -0.011,-0.054 -0.017,-0.077 0,-0.002 0,-0.002 0,-0.004 0.003,0 0.008,-0.002 0.011,-0.006 0.003,0 0.007,0 0.011,-0.002 0.003,0.002 0.005,0.004 0.005,0.004 z"
   id="path583" />
					<path
   fill="#010101"
   d="m 17.335,25.668 c 0,-0.004 0.002,-0.004 0.003,-0.004 0.005,-0.002 0.012,-0.004 0.019,-0.006 0.002,0.01 -0.002,0.021 -0.012,0.03 -0.005,-0.004 -0.01,-0.01 -0.01,-0.02 v 0 z"
   id="path585" />
					<path
   fill="#010101"
   d="m 17.344,25.691 c 0,0 0.002,0.002 0.006,0.002 -0.004,0.002 -0.007,0.004 -0.011,0.004 0.002,-0.002 0.003,-0.004 0.005,-0.006 z"
   id="path587" />
					<path
   fill="#010101"
   d="m 17.427,25.539 c -0.021,0.016 -0.041,0.035 -0.06,0.053 -0.007,0.006 -0.012,0.013 -0.012,0.021 -0.005,0.004 -0.011,0.01 -0.015,0.015 -0.012,-0.011 -0.023,-0.021 -0.038,-0.033 0.062,-0.138 0.062,-0.298 0.139,-0.425 0.085,-0.141 0.219,-0.164 0.37,-0.119 0.06,0.018 0.035,0.111 -0.026,0.094 -0.175,-0.052 -0.259,0.029 -0.306,0.193 -0.018,0.063 -0.034,0.135 -0.052,0.201 z"
   id="path589" />
					<path
   fill="#010101"
   d="m 17.333,25.668 c -0.003,-0.014 0,-0.026 0.008,-0.039 h 10e-4 c 0.006,0.007 0.012,0.014 0.013,0.021 -0.007,0.005 -0.013,0.009 -0.017,0.017 -0.001,0 -0.003,0 -0.003,0.003 l -0.002,-0.002 z"
   id="path591" />
					<path
   fill="#010101"
   d="m 17.34,25.697 c -0.003,0 -0.007,0 -0.012,-0.002 0,-0.01 0.001,-0.019 0.005,-0.024 0.001,0.009 0.006,0.015 0.011,0.021 v 0 c -0.002,0.001 -0.003,0.003 -0.004,0.005 z"
   id="path593" />
					<path
   fill="#010101"
   d="m 17.33,25.701 c -10e-4,-0.004 -10e-4,-0.006 -10e-4,-0.008 0.004,0.002 0.009,0.002 0.012,0.002 -0.004,0.004 -0.008,0.006 -0.011,0.006 z"
   id="path595" />
					<path
   fill="#010101"
   d="m 17.31,25.688 c 0.009,-0.006 0.017,-0.013 0.023,-0.02 v 0 0.002 c -0.003,0.008 -0.005,0.016 -0.005,0.025 -0.005,0 -0.011,-0.002 -0.018,-0.007 z"
   id="path597" />
					<path
   fill="#010101"
   d="m 17.283,25.705 c 0.011,-0.008 0.02,-0.012 0.026,-0.019 0.007,0.005 0.013,0.009 0.019,0.009 0,0.002 0,0.004 0.001,0.006 -0.012,0.011 -0.03,0.012 -0.046,0.004 z"
   id="path599" />
					<path
   fill="#010101"
   d="m 17.31,25.688 c -0.02,-0.013 -0.033,-0.038 -0.02,-0.065 0.006,-0.01 0.009,-0.019 0.013,-0.027 0.014,0.012 0.025,0.023 0.038,0.033 v 0.002 c -0.008,0.013 -0.012,0.026 -0.008,0.039 -0.007,0.005 -0.014,0.012 -0.023,0.018 z"
   id="path601" />
					<path
   fill="#010101"
   d="m 17.271,25.697 c -0.184,-0.164 -0.417,-0.461 -0.144,-0.655 0.05,-0.037 0.101,0.046 0.049,0.083 -0.187,0.136 0,0.349 0.126,0.47 -0.004,0.01 -0.008,0.02 -0.013,0.027 -0.014,0.027 0,0.055 0.019,0.065 -0.007,0.006 -0.015,0.012 -0.026,0.018 -0.003,-0.002 -0.006,-0.006 -0.011,-0.008 z"
   id="path603" />
					<path
   fill="#010101"
   d="m 17.345,25.782 c 0.021,-0.015 0.041,-0.026 0.059,-0.045 0.002,0 0.004,-0.002 0.004,-0.004 0.011,0.006 0.021,0.014 0.034,0.021 0.023,0.122 0.025,0.259 -0.047,0.362 -0.09,0.128 -0.263,0.122 -0.399,0.098 -0.063,-0.011 -0.035,-0.105 0.025,-0.095 0.108,0.021 0.26,0.028 0.313,-0.092 0.032,-0.076 0.027,-0.164 0.011,-0.245 z"
   id="path605" />
					<path
   fill="#010101"
   d="m 16.709,25.604 c 0.15,0.155 0.392,0.216 0.574,0.101 0.017,0.009 0.034,0.008 0.047,-0.002 0,0 0,0 0,0.002 0.005,0.024 0.012,0.052 0.016,0.077 -0.225,0.145 -0.52,0.089 -0.705,-0.107 -0.044,-0.046 0.024,-0.115 0.068,-0.071 z"
   id="path607" />
					<path
   fill="#010101"
   d="m 15.445,26.757 c -0.012,-0.006 -0.025,-0.011 -0.037,-0.019 0.012,0.008 0.024,0.013 0.037,0.019 z"
   id="path609" />
					<path
   fill="#010101"
   d="m 15.26,26.647 c 0.037,0.023 0.072,0.046 0.108,0.065 -0.036,-0.019 -0.071,-0.038 -0.108,-0.065 z"
   id="path611" />
					<path
   fill="#010101"
   d="m 13.194,34.739 c 0.036,-0.027 0.095,-0.021 0.13,0.014 0.002,0.007 0.002,0.011 0.002,0.019 0,0.014 -0.002,0.023 -0.006,0.033 -0.02,-0.044 -0.07,-0.08 -0.126,-0.066 z"
   id="path613" />
					<path
   fill="#010101"
   d="m 13.321,34.806 c -0.021,0.068 -0.119,0.08 -0.166,0.028 0.005,-0.014 0.007,-0.026 0.01,-0.041 0.003,-0.024 0.016,-0.04 0.029,-0.054 0.057,-0.013 0.107,0.022 0.127,0.067 z"
   id="path615" />
					<path
   fill="#010101"
   d="m 13.277,34.915 c -0.059,0.024 -0.122,0.048 -0.185,0.071 0.026,-0.049 0.047,-0.1 0.062,-0.152 0.047,0.052 0.146,0.04 0.166,-0.028 0.015,0.04 0.009,0.087 -0.043,0.109 z"
   id="path617" />
					<path
   fill="#010101"
   d="m 16.724,2.363 c 0.537,0.462 0.876,1.13 0.929,1.837 0.036,0.482 -0.056,0.946 -0.264,1.382 l -0.061,0.091 c -0.524,0.802 -0.947,1.632 -1.258,2.469 -0.233,0.774 -0.389,1.604 -0.462,2.461 -0.026,0.798 0.012,1.651 0.115,2.683 0.097,0.972 0.243,1.944 0.433,2.895 0.202,0.9 0.445,1.773 0.72,2.595 0.322,0.964 0.628,1.736 0.964,2.438 0.304,0.55 0.668,1.091 1.106,1.653 0.4,0.517 0.57,1.323 0.429,2.051 -0.134,0.68 -0.54,1.298 -1.112,1.695 -0.444,0.306 -0.987,0.476 -1.535,0.476 -0.171,0 -0.344,-0.017 -0.513,-0.05 -0.201,-0.04 -0.394,-0.101 -0.575,-0.186 0.011,-0.008 0.021,-0.016 0.031,-0.021 l 0.085,-0.063 -0.099,-0.048 c 0.184,0.085 0.379,0.148 0.584,0.19 0.662,0.13 1.391,-0.021 1.946,-0.404 0.545,-0.379 0.93,-0.968 1.058,-1.614 0.135,-0.694 -0.023,-1.456 -0.405,-1.944 -0.441,-0.568 -0.807,-1.116 -1.117,-1.675 -0.34,-0.709 -0.647,-1.49 -0.972,-2.455 -0.276,-0.826 -0.52,-1.705 -0.725,-2.61 -0.189,-0.955 -0.335,-1.932 -0.433,-2.908 -0.104,-1.039 -0.141,-1.897 -0.114,-2.705 0.074,-0.868 0.231,-1.707 0.465,-2.493 0.318,-0.851 0.745,-1.69 1.274,-2.499 L 17.274,5.52 C 17.469,5.114 17.554,4.672 17.52,4.213 17.472,3.54 17.15,2.903 16.64,2.463 16.174,2.065 15.582,1.845 14.969,1.845 c -0.063,0 -0.126,0.001 -0.189,0.006 L 14.1,1.995 C 13.693,2.141 13.337,2.386 13.046,2.718 L 13.117,2.638 13.013,2.612 C 13.001,2.609 12.989,2.605 12.975,2.602 13.279,2.267 13.641,2.022 14.061,1.87 l 0.697,-0.147 c 0.075,-0.007 0.144,-0.011 0.209,-0.011 0.646,-0.003 1.269,0.231 1.757,0.651 z"
   id="path619" />
					<path
   fill="#010101"
   d="m 13.194,34.739 c -0.015,0.014 -0.025,0.028 -0.029,0.054 -0.003,0.015 -0.005,0.027 -0.01,0.041 -0.014,-0.017 -0.023,-0.036 -0.024,-0.063 0,-0.004 0,-0.004 -10e-4,-0.008 0.017,-0.005 0.034,-0.013 0.049,-0.019 0.006,-0.003 0.01,-0.005 0.015,-0.005 z"
   id="path621" />
					<path
   fill="#010101"
   d="M 13.043,2.717 C 13.041,2.72 13.039,2.723 13.034,2.727 L 12.989,2.697 V 2.693 Z"
   id="path623" />
					<path
   fill="#010101"
   d="M 12.82,3.051 C 12.854,2.996 12.889,2.944 12.924,2.892 12.893,2.946 12.856,2.998 12.82,3.051 Z"
   id="path625" />
					<path
   fill="#010101"
   d="m 13.325,34.751 c -0.036,-0.034 -0.095,-0.04 -0.13,-0.012 -0.005,0 -0.01,0.002 -0.017,0.006 -0.017,0.008 -0.034,0.015 -0.049,0.019 -0.013,-0.237 -0.288,-0.478 -0.541,-0.606 l 0.004,-0.009 c 0.042,0.024 0.102,0.024 0.133,-0.033 0.014,-0.027 0.029,-0.055 0.042,-0.079 0.258,0.161 0.535,0.438 0.558,0.714 z"
   id="path627" />
					<path
   fill="#010101"
   d="m 12.723,34.115 c -0.03,0.06 -0.091,0.06 -0.132,0.034 -0.041,-0.025 -0.065,-0.08 -0.037,-0.132 0.014,-0.027 0.025,-0.053 0.034,-0.074 0.056,0.021 0.115,0.058 0.178,0.094 -0.014,0.024 -0.029,0.051 -0.043,0.078 z"
   id="path629" />
					<path
   fill="#010101"
   d="m 12.557,26.944 c -0.08,-0.052 -0.155,-0.105 -0.226,-0.162 0.072,0.056 0.146,0.111 0.226,0.162 z"
   id="path631" />
					<path
   fill="#010101"
   d="m 12.115,26.58 c 0.012,0.01 0.02,0.021 0.03,0.029 -0.01,-0.007 -0.02,-0.019 -0.03,-0.029 z"
   id="path633" />
					<path
   fill="#010101"
   d="m 12.19,33.229 v 0 c -0.042,-0.008 -0.084,-0.018 -0.125,-0.022 0.043,0.004 0.084,0.012 0.125,0.022 z"
   id="path635" />
					<path
   fill="#010101"
   d="m 11.093,33.314 c -0.735,-2.108 -1.12,-4.633 0.252,-6.568 0.137,-0.194 0.296,-0.382 0.473,-0.556 0.056,0.077 0.109,0.154 0.168,0.232 0.018,0.026 0.037,0.051 0.058,0.076 0.016,0.018 0.029,0.036 0.046,0.054 0.008,0.01 0.016,0.018 0.022,0.027 0.012,0.009 0.02,0.021 0.03,0.027 0.009,0.012 0.019,0.021 0.029,0.028 0.044,0.048 0.093,0.091 0.145,0.135 10e-4,0.002 0.003,0.002 0.004,0.004 0.003,0.002 0.005,0.004 0.008,0.008 0.071,0.057 0.146,0.11 0.226,0.162 0.002,0.003 0.006,0.005 0.008,0.005 -0.274,0.274 -0.497,0.591 -0.64,0.908 -0.786,1.751 -0.361,3.642 0.264,5.371 C 12.144,33.215 12.104,33.208 12.061,33.205 12.056,33.204 12.05,33.203 12.046,33.203 12.031,33.201 12.02,33.2 12.005,33.198 11.994,33.196 11.984,33.195 11.973,33.195 11.941,33.19 11.907,33.188 11.876,33.184 c -0.019,0 -0.04,-0.002 -0.058,-0.002 -0.039,-0.002 -0.076,-0.004 -0.109,-0.004 -0.013,0 -0.025,0 -0.04,0.002 -0.015,0 -0.028,0 -0.044,0.002 -0.026,0 -0.053,0.002 -0.082,0.006 -0.101,0.008 -0.197,0.027 -0.289,0.057 -0.018,0.006 -0.033,0.011 -0.049,0.017 -0.037,0.016 -0.074,0.034 -0.112,0.052 z"
   id="path637" />
					<path
   fill="#010101"
   d="m 11.738,35.568 c 0.047,0.081 -0.037,0.2 -0.125,0.138 -0.067,-0.047 -0.14,-0.1 -0.217,-0.1 v -0.002 c 0.108,-0.009 0.225,-0.02 0.342,-0.036 z"
   id="path639" />
					<path
   fill="#010101"
   d="m 13.093,34.986 c 0.062,-0.022 0.125,-0.046 0.185,-0.071 0.051,-0.021 0.059,-0.068 0.043,-0.108 0,0 0,0 0,-0.001 0.004,-0.011 0.006,-0.021 0.006,-0.033 0,-0.008 0,-0.012 -0.002,-0.02 0.023,0.021 0.037,0.054 0.029,0.094 -0.181,0.93 -1.568,0.894 -2.324,0.972 v -0.003 c 0.015,0 0.034,-0.006 0.05,-0.019 0.075,-0.057 0.146,-0.116 0.227,-0.165 0.03,-0.02 0.061,-0.025 0.09,-0.025 0.076,0 0.15,0.053 0.217,0.1 0.088,0.064 0.172,-0.057 0.125,-0.138 0.557,-0.069 1.14,-0.213 1.354,-0.583 z"
   id="path641" />
					<path
   fill="#010101"
   d="m 10.94,34.055 c 0.502,-0.162 1.126,-0.331 1.636,-0.117 0.005,0 0.006,10e-4 0.012,0.006 -0.009,0.021 -0.02,0.047 -0.034,0.073 -0.028,0.053 -0.004,0.105 0.037,0.132 l -0.004,0.009 c -0.08,-0.039 -0.156,-0.067 -0.222,-0.08 -0.458,-0.096 -0.924,0.023 -1.363,0.167 -0.011,-0.055 -0.023,-0.106 -0.047,-0.154 -0.007,-0.015 -0.011,-0.025 -0.015,-0.036 z"
   id="path643" />
					<path
   fill="#010101"
   d="m 10.99,34.498 c 0.041,-0.018 0.069,-0.059 0.049,-0.111 -0.005,-0.018 -0.011,-0.035 -0.015,-0.054 0.005,0.008 0.014,0.018 0.02,0.028 0.045,0.06 0.004,0.119 -0.054,0.137 z"
   id="path645" />
					<path
   fill="#010101"
   d="m 11.024,34.333 c -0.022,-0.026 -0.042,-0.054 -0.063,-0.077 0.012,-0.006 0.026,-0.012 0.041,-0.014 0.006,0.03 0.013,0.062 0.022,0.091 z"
   id="path647" />
					<path
   fill="#010101"
   d="m 10.973,35.635 c 0.002,-0.003 0.006,-0.004 0.009,-0.008 0.107,-0.079 0.21,-0.179 0.347,-0.209 0.139,-0.035 0.273,0.041 0.38,0.119 0.013,0.009 0.022,0.02 0.03,0.031 -0.117,0.016 -0.233,0.025 -0.342,0.036 -0.156,0.012 -0.299,0.023 -0.424,0.031 z"
   id="path649" />
					<path
   fill="#010101"
   d="m 11.028,35.815 c -0.076,0 -0.125,-0.116 -0.056,-0.18 0.125,-0.009 0.269,-0.02 0.424,-0.031 v 0.002 c -0.029,0 -0.06,0.008 -0.09,0.025 -0.081,0.049 -0.152,0.108 -0.227,0.165 -0.017,0.014 -0.037,0.019 -0.051,0.019 z"
   id="path651" />
					<path
   fill="#010101"
   d="m 10.961,34.256 c -0.042,-0.051 -0.084,-0.096 -0.132,-0.138 0.011,-0.02 0.029,-0.036 0.057,-0.046 0.018,-0.006 0.036,-0.013 0.053,-0.018 0.004,0.011 0.008,0.021 0.014,0.033 0.025,0.048 0.038,0.102 0.048,0.153 -0.013,0.004 -0.026,0.01 -0.04,0.016 z"
   id="path653" />
					<path
   fill="#010101"
   d="m 10.83,34.119 c 0.047,0.042 0.09,0.088 0.132,0.137 -0.008,0.002 -0.016,0.004 -0.023,0.007 -0.093,0.029 -0.144,-0.075 -0.109,-0.144 z"
   id="path655" />
					<path
   fill="#010101"
   d="m 10.875,34.458 c 0.028,0.042 0.076,0.048 0.114,0.038 -0.049,0.021 -0.116,0.006 -0.14,-0.06 -10e-4,-0.006 -0.005,-0.016 -0.008,-0.021 0.013,0.015 0.024,0.029 0.034,0.043 z"
   id="path657" />
					<path
   fill="#010101"
   d="m 10.83,34.119 c -0.035,-0.037 -0.074,-0.07 -0.112,-0.101 -0.026,-0.152 -0.015,-0.305 0.093,-0.453 0.08,-0.11 0.176,-0.191 0.282,-0.251 0.038,-0.02 0.076,-0.036 0.116,-0.052 0.017,-0.006 0.032,-0.012 0.049,-0.017 0.092,-0.029 0.188,-0.049 0.288,-0.057 0.029,-0.004 0.055,-0.006 0.082,-0.006 0.017,-0.002 0.03,-0.002 0.044,-0.002 0.014,-0.002 0.026,-0.002 0.04,-0.002 0.034,0 0.071,0.002 0.11,0.004 0.019,0 0.04,0 0.057,0.002 0.032,0.004 0.065,0.006 0.098,0.01 0.011,0 0.021,10e-4 0.032,0.003 0.014,0.002 0.025,0.003 0.041,0.006 0.004,0 0.011,10e-4 0.016,0.002 0.042,0.005 0.083,0.015 0.126,0.022 v -0.002 c 0.219,0.042 0.434,0.121 0.569,0.261 0.205,0.211 0.12,0.35 0.006,0.549 -0.063,-0.037 -0.124,-0.071 -0.178,-0.094 0.201,-0.539 -0.741,-0.616 -1.114,-0.54 -0.314,0.064 -0.698,0.27 -0.534,0.652 -0.018,0.007 -0.037,0.013 -0.053,0.018 -0.029,0.011 -0.046,0.028 -0.058,0.048 z"
   id="path659" />
					<path
   fill="#010101"
   d="m 10.718,34.019 c 0.039,0.03 0.077,0.062 0.112,0.101 -0.035,0.068 0.016,0.173 0.109,0.144 0.007,-0.003 0.015,-0.005 0.023,-0.007 0.021,0.023 0.041,0.051 0.063,0.079 0.003,0.017 0.01,0.034 0.015,0.053 0.02,0.054 -0.009,0.094 -0.049,0.11 -0.039,0.011 -0.085,0.002 -0.114,-0.038 -0.01,-0.015 -0.022,-0.028 -0.034,-0.043 -0.048,-0.134 -0.101,-0.268 -0.125,-0.399 z"
   id="path661" />
					<path
   fill="#010101"
   d="m 10.469,9.438 c -0.092,0.953 -0.122,1.87 -0.09,2.719 0.056,1.436 0.246,2.967 0.57,4.55 0.414,2.035 0.874,3.657 1.445,5.102 0.636,1.607 1.367,2.929 2.232,4.042 l 0.447,0.494 c 0.042,0.036 0.086,0.069 0.129,0.103 0.002,0.003 0.003,0.005 0.006,0.007 0.035,0.027 0.07,0.053 0.107,0.074 0.012,0.009 0.025,0.016 0.037,0.024 0.04,0.025 0.081,0.051 0.121,0.073 0.035,0.02 0.07,0.038 0.105,0.057 0.027,0.015 0.054,0.025 0.08,0.04 l 0.099,0.046 -0.085,0.063 c -0.01,0.008 -0.02,0.016 -0.031,0.023 -0.067,-0.029 -0.133,-0.061 -0.195,-0.099 -0.012,-0.007 -0.025,-0.012 -0.038,-0.019 -0.014,-0.008 -0.025,-0.014 -0.039,-0.024 -0.038,-0.021 -0.073,-0.042 -0.108,-0.064 -0.05,-0.033 -0.096,-0.065 -0.143,-0.104 -0.043,-0.033 -0.086,-0.064 -0.126,-0.101 -0.002,-0.004 -0.007,-0.006 -0.01,-0.008 L 14.526,25.93 c -0.877,-1.125 -1.612,-2.457 -2.254,-4.078 -0.574,-1.451 -1.035,-3.08 -1.453,-5.123 -0.323,-1.589 -0.515,-3.125 -0.568,-4.569 -0.035,-0.858 -0.003,-1.778 0.09,-2.738 0.067,-0.686 0.183,-1.344 0.345,-1.954 0.242,-0.907 0.537,-1.739 0.874,-2.473 0.16,-0.349 0.339,-0.685 0.529,-1.01 0.039,-0.07 0.081,-0.139 0.122,-0.207 0.164,-0.273 0.334,-0.54 0.504,-0.798 0.011,-0.018 0.022,-0.036 0.032,-0.055 0.05,-0.073 0.096,-0.142 0.145,-0.214 0.013,-0.021 0.025,-0.04 0.038,-0.059 0.016,-0.018 0.032,-0.037 0.05,-0.054 0.012,0.003 0.025,0.007 0.038,0.01 l 0.104,0.026 -0.071,0.08 -0.054,-0.022 v 0.002 l 0.044,0.03 c 0,0.003 -0.001,0.004 -0.005,0.006 C 13,2.784 12.966,2.836 12.931,2.89 12.897,2.942 12.861,2.994 12.827,3.049 12.778,3.123 12.729,3.198 12.681,3.275 12.323,3.833 11.97,4.423 11.682,5.049 11.348,5.778 11.057,6.602 10.818,7.504 10.65,8.109 10.535,8.757 10.469,9.438 Z"
   id="path663" />
					<path
   fill="#010101"
   d="M 9.166,6.344 C 8.909,7.381 8.762,8.246 8.704,9.068 c -0.042,0.635 -0.05,1.319 -0.02,2.155 0.036,1.053 0.09,2.028 0.16,2.979 0.132,1.799 0.326,3.39 0.592,4.861 0.146,0.816 0.322,1.618 0.525,2.384 0.102,0.379 0.215,0.77 0.338,1.16 l 0.072,0.232 c 0.155,0.496 0.315,1.009 0.525,1.494 0.273,0.631 0.665,1.29 1.197,2.011 0.349,0.476 1.019,0.829 1.707,0.891 0.08,0.01 0.159,0.013 0.239,0.013 0.262,0 0.522,-0.041 0.769,-0.117 0.249,-0.077 0.484,-0.192 0.698,-0.341 -0.021,-0.011 -0.04,-0.021 -0.06,-0.034 0.063,0.037 0.129,0.068 0.196,0.098 -0.46,0.339 -1.028,0.524 -1.603,0.524 -0.084,0 -0.167,-0.005 -0.25,-0.012 -0.435,-0.042 -0.868,-0.192 -1.221,-0.418 -0.002,0 -0.005,-0.003 -0.008,-0.006 C 12.48,26.888 12.405,26.836 12.333,26.779 12.33,26.776 12.327,26.774 12.325,26.772 12.324,26.77 12.323,26.77 12.321,26.768 12.27,26.726 12.22,26.682 12.176,26.635 c -0.01,-0.01 -0.02,-0.021 -0.029,-0.028 -0.009,-0.01 -0.019,-0.021 -0.029,-0.029 -0.007,-0.012 -0.016,-0.018 -0.022,-0.027 -0.017,-0.017 -0.031,-0.036 -0.046,-0.054 -0.021,-0.025 -0.041,-0.05 -0.058,-0.076 -0.059,-0.079 -0.114,-0.155 -0.168,-0.232 -0.454,-0.64 -0.795,-1.233 -1.045,-1.806 -0.214,-0.49 -0.374,-1.005 -0.53,-1.504 L 10.178,22.646 C 10.053,22.253 9.939,21.86 9.838,21.479 9.634,20.711 9.457,19.906 9.308,19.088 9.04,17.608 8.848,16.012 8.714,14.209 8.645,13.257 8.59,12.279 8.553,11.224 8.523,10.384 8.529,9.695 8.575,9.056 8.632,8.227 8.78,7.355 9.039,6.31 9.22,5.583 9.477,4.895 9.803,4.262 9.965,3.832 10.228,3.457 10.583,3.153 l 0.581,-0.374 c 0.563,-0.268 1.216,-0.33 1.813,-0.182 -0.019,0.017 -0.036,0.036 -0.051,0.054 -0.012,0.021 -0.025,0.041 -0.039,0.06 -0.184,-0.042 -0.373,-0.062 -0.564,-0.062 -0.379,0 -0.758,0.084 -1.098,0.247 L 10.662,3.26 C 10.331,3.542 10.079,3.9 9.923,4.317 9.597,4.948 9.342,5.627 9.166,6.344 Z"
   id="path665" />
					<path
   fill="#010101"
   d="m 8.085,35.478 c 0.845,-0.215 1.701,-0.261 2.567,-0.333 0.759,-0.064 1.75,-0.087 2.476,-0.381 10e-4,0.004 10e-4,0.005 10e-4,0.008 0,0.026 0.011,0.047 0.024,0.063 -0.014,0.054 -0.036,0.104 -0.062,0.152 -0.588,0.2 -1.309,0.246 -1.915,0.307 -0.98,0.097 -1.965,0.121 -2.927,0.346 C 8.191,35.606 8.136,35.562 8.093,35.513 8.091,35.499 8.088,35.489 8.085,35.478 Z"
   id="path667" />
					<path
   fill="#010101"
   d="m 8.085,35.478 c 0.003,0.012 0.006,0.021 0.01,0.033 C 8.092,35.508 8.088,35.502 8.085,35.499 8.079,35.491 8.074,35.487 8.066,35.483 8.072,35.481 8.079,35.478 8.085,35.478 Z"
   id="path669" />
					<path
   fill="#010101"
   d="m 8.109,35.546 c 0.029,0.081 -0.049,0.131 -0.113,0.117 -0.053,-0.047 -0.055,-0.148 0.032,-0.172 0.014,-0.004 0.025,-0.006 0.04,-0.01 0.008,0.006 0.012,0.01 0.019,0.017 0.003,0.004 0.006,0.009 0.011,0.013 0,0.01 0.006,0.022 0.011,0.035 z"
   id="path671" />
					<path
   fill="#010101"
   d="m 8.252,35.638 c -0.057,0.014 -0.115,0.029 -0.172,0.043 -0.035,0.011 -0.064,0 -0.084,-0.018 0.064,0.014 0.144,-0.035 0.113,-0.117 -0.005,-0.013 -0.01,-0.024 -0.013,-0.035 0.043,0.05 0.098,0.093 0.156,0.127 z"
   id="path673" />
					<path
   fill="#010101"
   d="M 10.973,35.822 C 10.289,35.903 9.512,36.055 8.825,35.978 8.492,35.94 8.187,35.903 7.961,35.651 c 0.009,0.006 0.021,0.011 0.035,0.011 0.02,0.019 0.049,0.027 0.084,0.019 0.059,-0.015 0.116,-0.029 0.172,-0.043 0.606,0.374 1.882,0.091 2.481,0.018 0.069,-0.006 0.149,-0.014 0.239,-0.021 -0.071,0.063 -0.021,0.179 0.056,0.179 v 0.005 c -0.02,10e-4 -0.037,0.003 -0.055,0.003 z"
   id="path675" />
					<path
   fill="#010101"
   d="M 7.947,35.637 C 7.869,35.55 7.985,35.423 8.067,35.484 8.053,35.486 8.042,35.49 8.027,35.494 7.94,35.515 7.942,35.619 7.994,35.665 7.981,35.665 7.969,35.66 7.96,35.654 H 7.959 C 7.955,35.647 7.951,35.642 7.947,35.637 Z"
   id="path677" />
					<path
   fill="#010101"
   d="m 8.99,33.728 c -0.716,0.279 -1.138,1.014 -0.905,1.75 -0.006,0 -0.013,0.004 -0.019,0.006 -0.081,-0.062 -0.197,0.065 -0.121,0.153 0.004,0.004 0.009,0.011 0.013,0.015 -0.02,-0.013 -0.032,-0.027 -0.041,-0.051 -0.271,-0.73 0.079,-1.697 0.844,-1.994 0.623,-0.242 1.419,-0.031 1.955,0.411 0.023,0.132 0.077,0.266 0.124,0.398 -0.363,-0.455 -1.304,-0.9 -1.85,-0.688 z"
   id="path679" />
				</g>
			</g>
		</g>
		<g
   id="g694">
			<path
   fill="#010101"
   d="M 7.844,18.943 C 7.84,18.941 7.835,18.94 7.83,18.94 7.788,18.931 7.747,18.926 7.703,18.925 7.7,18.925 7.697,18.927 7.692,18.927 7.688,18.924 7.684,18.919 7.679,18.915 7.59,18.87 7.496,18.831 7.4,18.799 c 0.14,-0.833 -1.509,-0.64 -1.532,0.08 0,0.024 0.012,0.041 0.028,0.051 -0.172,0.1 -0.301,0.224 -0.414,0.413 -0.173,0.293 -0.065,0.645 -0.272,0.927 -0.005,0.007 -0.008,0.016 -0.01,0.022 -0.187,0.313 -0.163,0.679 0.072,0.979 0.104,0.133 0.214,0.186 0.38,0.157 0.058,-0.01 0.098,-0.045 0.128,-0.085 0.036,0.196 0.124,0.381 0.31,0.469 0.189,0.088 0.452,0.081 0.645,-0.021 0.007,-0.002 0.012,-0.004 0.019,-0.006 0.011,-0.008 0.022,-0.016 0.032,-0.023 0.005,-0.004 0.01,-0.006 0.014,-0.01 0.01,-0.007 0.019,-0.015 0.029,-0.022 0.012,-0.012 0.029,-0.023 0.043,-0.035 0.004,-0.007 0.006,-0.012 0.009,-0.018 0.019,-0.019 0.037,-0.038 0.054,-0.058 0.203,0.119 0.431,0.158 0.686,0.03 C 8.006,21.457 8.087,21.12 7.992,20.718 7.99,20.717 7.988,20.715 7.988,20.711 8.36,20.79 8.666,20.391 8.687,20.041 8.72,19.556 8.316,19.039 7.844,18.943 Z M 5.993,18.877 C 6.011,18.327 7.372,18.148 7.282,18.758 6.885,18.654 6.452,18.677 6.07,18.842 6.043,18.854 6.018,18.866 5.993,18.877 Z M 8.49,20.345 C 8.407,20.526 8.084,20.647 7.905,20.548 7.897,20.544 7.889,20.541 7.88,20.54 7.873,20.537 7.866,20.533 7.859,20.533 7.92,20.436 7.952,20.329 7.927,20.216 7.921,20.191 7.902,20.174 7.875,20.178 c -0.024,0.003 -0.044,0.026 -0.04,0.053 0.015,0.064 0.009,0.123 -0.016,0.186 -0.024,0.062 -0.069,0.118 -0.115,0.169 -0.094,0.104 -0.212,0.19 -0.319,0.281 -0.044,0.04 0.013,0.11 0.059,0.073 0.115,-0.103 0.237,-0.19 0.339,-0.306 0.005,-0.004 0.008,-0.009 0.012,-0.013 0.002,0.006 0.005,0.013 0.011,0.019 0.035,0.032 0.05,0.073 0.065,0.117 0,0.002 0.002,0.004 0.003,0.004 0.071,0.309 0.04,0.57 -0.25,0.746 -0.389,0.237 -0.716,-0.013 -0.976,-0.295 -0.055,-0.061 -0.141,0.027 -0.089,0.087 0.085,0.093 0.175,0.178 0.271,0.25 -0.024,0.027 -0.048,0.053 -0.074,0.077 -0.01,0.01 -0.021,0.019 -0.031,0.026 -0.005,0.004 -0.009,0.007 -0.015,0.013 -0.17,0.107 -0.418,0.103 -0.595,0.021 -0.23,-0.105 -0.24,-0.487 -0.227,-0.703 0.004,-0.08 -0.12,-0.08 -0.124,0 0,0.009 0,0.017 0,0.023 -0.018,0.078 -0.03,0.157 -0.063,0.232 C 5.517,21.318 5.392,21.282 5.33,21.134 5.295,21.074 5.266,21.014 5.242,20.95 5.141,20.71 5.207,20.478 5.356,20.275 5.358,20.272 5.359,20.268 5.36,20.266 c 0.149,-0.243 0.104,-0.435 0.183,-0.74 0.191,-0.764 1.297,-0.815 1.925,-0.571 0.005,0.006 0.01,0.013 0.016,0.016 0.045,0.031 0.107,0.065 0.162,0.082 0.056,0.015 0.109,0.011 0.166,0.007 0.339,0.058 0.568,0.345 0.693,0.661 0.08,0.206 0.078,0.425 -0.015,0.624 z"
   id="path686" />
			<path
   fill="#010101"
   d="M 7.293,19.598 C 7.134,19.498 6.932,19.406 6.87,19.215 6.864,19.194 6.835,19.187 6.817,19.195 c -0.021,0.01 -0.026,0.031 -0.021,0.052 0.066,0.205 0.278,0.311 0.45,0.415 0.045,0.026 0.091,-0.038 0.047,-0.064 z"
   id="path688" />
			<path
   fill="#010101"
   d="m 6.574,19.225 c -0.026,0.22 -0.03,0.438 -0.011,0.656 0.004,0.053 0.082,0.038 0.079,-0.013 -0.02,-0.212 -0.015,-0.424 0.011,-0.636 0.005,-0.05 -0.071,-0.057 -0.079,-0.007 z"
   id="path690" />
			<path
   fill="#010101"
   d="m 6.3,19.262 c -0.028,0.076 -0.061,0.151 -0.114,0.212 -0.051,0.06 -0.125,0.087 -0.201,0.088 -0.021,0 -0.042,0.014 -0.043,0.036 -0.002,0.02 0.014,0.044 0.035,0.044 0.099,-0.004 0.191,-0.031 0.26,-0.104 C 6.303,19.469 6.341,19.381 6.375,19.291 6.392,19.244 6.319,19.215 6.3,19.262 Z"
   id="path692" />
		</g>
		<path
   fill="#010101"
   d="m 16.206,24.134 v 0 c -0.051,0 -0.1,-0.008 -0.143,-0.022 -0.464,-0.169 -1.015,-0.433 -1.152,-0.966 -0.15,-0.588 0.242,-1.051 0.59,-1.461 0.061,-0.071 0.119,-0.142 0.175,-0.211 0.042,-0.058 0.078,-0.109 0.105,-0.16 -0.047,-0.013 -0.11,-0.028 -0.183,-0.04 -0.093,-0.012 -0.189,-0.016 -0.288,-0.021 l -0.038,-0.002 c -0.246,-0.015 -0.499,-0.03 -0.738,-0.103 -0.108,-0.033 -0.267,-0.088 -0.399,-0.183 -0.132,-0.095 -0.297,-0.227 -0.393,-0.412 -0.104,-0.204 -0.15,-0.396 -0.139,-0.569 0.015,-0.193 0.062,-0.364 0.154,-0.547 0.095,-0.191 0.231,-0.358 0.363,-0.521 l 0.081,-0.102 c 0.079,-0.105 0.139,-0.207 0.187,-0.305 0,-0.002 0,-0.006 0.004,-0.01 -0.171,-0.057 -0.357,-0.085 -0.538,-0.116 -0.147,-0.023 -0.301,-0.049 -0.448,-0.088 -0.427,-0.117 -0.728,-0.316 -0.893,-0.596 -0.211,-0.358 -0.196,-0.849 0.039,-1.282 0.176,-0.326 0.454,-0.576 0.703,-0.778 0.051,-0.041 0.101,-0.079 0.153,-0.121 0.103,-0.078 0.207,-0.158 0.301,-0.247 -0.127,-0.077 -0.263,-0.14 -0.395,-0.196 -0.089,-0.037 -0.181,-0.071 -0.271,-0.105 -0.239,-0.089 -0.487,-0.184 -0.711,-0.32 -0.25,-0.152 -0.421,-0.315 -0.518,-0.494 -0.155,-0.284 -0.161,-0.597 -0.017,-0.884 0.091,-0.18 0.272,-0.347 0.5,-0.46 0.192,-0.095 0.408,-0.171 0.638,-0.226 0.325,-0.077 0.658,-0.121 0.982,-0.162 l 0.142,-0.019 c 0.042,-0.005 0.084,-0.011 0.125,-0.02 0.167,-0.034 0.296,-0.015 0.417,0.055 0.123,0.072 0.214,0.191 0.25,0.328 0.04,0.144 0.014,0.311 -0.07,0.445 -0.075,0.121 -0.186,0.202 -0.315,0.226 -0.149,0.03 -0.3,0.048 -0.448,0.065 -0.054,0.008 -0.108,0.014 -0.163,0.021 -0.308,0.042 -0.633,0.093 -0.936,0.203 0.074,0.043 0.16,0.085 0.264,0.132 l 0.082,0.033 c 0.055,0.021 0.11,0.042 0.167,0.063 0.125,0.048 0.257,0.098 0.384,0.154 l 0.058,0.026 c 0.169,0.074 0.341,0.15 0.494,0.259 0.18,0.125 0.356,0.267 0.44,0.462 0.058,0.131 0.1,0.244 0.096,0.391 -0.006,0.158 -0.043,0.256 -0.099,0.385 -0.065,0.15 -0.184,0.275 -0.278,0.368 -0.102,0.099 -0.211,0.186 -0.318,0.27 l -0.047,0.039 c -0.202,0.161 -0.413,0.328 -0.578,0.527 -0.036,0.05 -0.069,0.104 -0.095,0.159 -0.01,0.026 -0.02,0.061 -0.027,0.095 0,0.012 0,0.034 0,0.055 l 0.01,0.007 c 0.02,0.012 0.048,0.028 0.08,0.042 0.177,0.066 0.38,0.1 0.575,0.134 l 0.063,0.011 c 0.106,0.019 0.214,0.038 0.319,0.06 0.132,0.03 0.262,0.073 0.421,0.141 0.362,0.154 0.604,0.523 0.586,0.896 -0.011,0.212 -0.073,0.423 -0.196,0.664 -0.096,0.187 -0.227,0.351 -0.356,0.511 l -0.082,0.102 c -0.076,0.103 -0.128,0.184 -0.168,0.265 -0.002,0.009 -0.007,0.023 -0.012,0.04 l 0.002,0.004 c 0.008,0.01 0.02,0.019 0.027,0.028 0.016,0.008 0.04,0.021 0.064,0.034 0.063,0.021 0.139,0.04 0.225,0.055 0.105,0.012 0.215,0.018 0.323,0.022 0.229,0.014 0.47,0.026 0.699,0.093 0.408,0.118 0.706,0.39 0.824,0.743 0.099,0.295 0.021,0.653 -0.212,0.988 -0.105,0.148 -0.223,0.288 -0.338,0.426 -0.065,0.075 -0.128,0.151 -0.19,0.229 -0.061,0.082 -0.106,0.153 -0.143,0.222 0.009,0.009 0.016,0.016 0.025,0.022 0.068,0.048 0.157,0.096 0.263,0.144 0.03,0.013 0.063,0.023 0.094,0.035 0.155,0.059 0.255,0.133 0.322,0.25 0.074,0.126 0.095,0.279 0.056,0.422 -0.037,0.136 -0.128,0.254 -0.251,0.324 -0.087,0.047 -0.19,0.074 -0.286,0.074 z M 14.337,12.488 c -0.039,0 -0.081,0.004 -0.125,0.012 -0.043,0.01 -0.087,0.017 -0.131,0.022 l -0.145,0.019 c -0.32,0.042 -0.651,0.084 -0.969,0.16 -0.223,0.051 -0.429,0.126 -0.611,0.218 -0.206,0.102 -0.367,0.249 -0.447,0.407 -0.126,0.25 -0.123,0.525 0.013,0.775 0.089,0.162 0.245,0.309 0.477,0.449 0.216,0.132 0.457,0.223 0.691,0.311 0.093,0.036 0.184,0.069 0.275,0.106 0.158,0.068 0.324,0.145 0.476,0.247 l 0.061,0.038 -0.05,0.051 c -0.111,0.115 -0.241,0.214 -0.366,0.31 -0.05,0.041 -0.101,0.079 -0.15,0.118 -0.239,0.195 -0.507,0.435 -0.674,0.741 -0.167,0.31 -0.267,0.781 -0.04,1.168 0.149,0.252 0.424,0.433 0.821,0.542 0.142,0.038 0.292,0.063 0.437,0.085 0.204,0.033 0.412,0.065 0.608,0.138 l 0.012,0.005 0.04,0.023 -0.012,0.044 c -0.008,0.025 -0.016,0.052 -0.025,0.078 -0.052,0.109 -0.117,0.215 -0.202,0.329 l -0.082,0.103 c -0.128,0.157 -0.259,0.32 -0.35,0.501 -0.084,0.17 -0.128,0.324 -0.142,0.501 -0.01,0.152 0.033,0.324 0.126,0.508 0.084,0.165 0.235,0.286 0.356,0.371 0.116,0.085 0.264,0.136 0.364,0.166 0.225,0.067 0.473,0.084 0.709,0.097 l 0.038,0.004 c 0.1,0.006 0.2,0.012 0.298,0.022 0.082,0.012 0.151,0.03 0.214,0.053 0.025,0.012 0.043,0.021 0.061,0.032 l 0.036,0.031 -0.014,0.047 c -0.037,0.07 -0.082,0.144 -0.145,0.227 -0.057,0.07 -0.118,0.143 -0.18,0.214 -0.345,0.407 -0.701,0.826 -0.564,1.354 0.124,0.483 0.641,0.727 1.078,0.888 0.089,0.032 0.227,0.013 0.326,-0.044 0.094,-0.058 0.167,-0.149 0.196,-0.258 0.031,-0.109 0.015,-0.229 -0.043,-0.33 -0.053,-0.092 -0.131,-0.15 -0.261,-0.198 -0.032,-0.012 -0.066,-0.024 -0.099,-0.037 -0.115,-0.052 -0.208,-0.104 -0.29,-0.157 -0.024,-0.021 -0.042,-0.041 -0.061,-0.059 l -0.022,-0.024 0.009,-0.031 c 0.002,-0.015 0.008,-0.026 0.012,-0.04 0.042,-0.085 0.093,-0.164 0.162,-0.257 0.063,-0.081 0.127,-0.155 0.194,-0.232 0.112,-0.136 0.229,-0.273 0.332,-0.419 0.101,-0.145 0.32,-0.517 0.197,-0.885 -0.105,-0.313 -0.377,-0.559 -0.746,-0.666 -0.216,-0.063 -0.447,-0.075 -0.671,-0.088 -0.112,-0.007 -0.222,-0.011 -0.332,-0.024 -0.098,-0.016 -0.179,-0.036 -0.254,-0.062 -0.037,-0.018 -0.063,-0.035 -0.09,-0.051 -0.022,-0.02 -0.037,-0.034 -0.049,-0.048 l -0.02,-0.033 -0.007,-0.036 v -0.017 c 0.007,-0.033 0.013,-0.057 0.021,-0.078 0.046,-0.094 0.103,-0.181 0.184,-0.29 l 0.083,-0.103 c 0.125,-0.153 0.252,-0.312 0.342,-0.488 0.116,-0.229 0.172,-0.42 0.184,-0.616 0.017,-0.326 -0.195,-0.647 -0.514,-0.783 -0.152,-0.063 -0.275,-0.106 -0.399,-0.133 -0.104,-0.022 -0.209,-0.042 -0.314,-0.059 L 14.11,17.446 c -0.199,-0.036 -0.407,-0.069 -0.6,-0.143 -0.04,-0.019 -0.073,-0.038 -0.104,-0.058 l -0.047,-0.057 -0.005,-0.023 c -0.003,-0.038 -10e-4,-0.063 0,-0.089 0.008,-0.049 0.021,-0.087 0.034,-0.126 0.032,-0.066 0.068,-0.126 0.109,-0.186 0.177,-0.212 0.392,-0.38 0.6,-0.546 l 0.047,-0.038 c 0.104,-0.082 0.212,-0.168 0.309,-0.264 0.089,-0.084 0.196,-0.199 0.253,-0.331 0.057,-0.131 0.084,-0.208 0.089,-0.342 0.003,-0.123 -0.034,-0.218 -0.085,-0.339 -0.072,-0.167 -0.234,-0.297 -0.4,-0.413 -0.144,-0.1 -0.311,-0.177 -0.471,-0.249 l -0.06,-0.025 C 13.655,14.16 13.527,14.113 13.402,14.067 13.346,14.045 13.291,14.025 13.235,14.002 L 13.15,13.968 c -0.159,-0.069 -0.273,-0.13 -0.376,-0.2 l -0.082,-0.056 0.085,-0.045 c 0.019,-0.011 0.04,-0.021 0.059,-0.03 0.333,-0.127 0.684,-0.184 1.017,-0.229 0.055,-0.007 0.108,-0.013 0.163,-0.02 0.145,-0.018 0.295,-0.036 0.44,-0.064 0.095,-0.018 0.18,-0.081 0.237,-0.173 0.066,-0.107 0.088,-0.24 0.058,-0.353 -0.031,-0.106 -0.102,-0.2 -0.197,-0.255 -0.072,-0.037 -0.14,-0.055 -0.217,-0.055 z"
   id="path696" />
	</g>
</g>
<g
   id="g717"
   transform="matrix(-1,0,0,1,36.917822,0)">
	<path
   fill="#010101"
   d="m 21.929,3.253 v -1.67 c 0,-0.052 -0.065,-0.129 -0.065,-0.129 h 0.521 c 0.629,0 1.064,0.268 1.064,0.962 0,0.575 -0.328,0.967 -0.927,0.967 h -0.658 c -0.001,0 0.065,-0.076 0.065,-0.13 z M 22.128,1.639 V 3.2 h 0.343 c 0.493,0 0.776,-0.268 0.776,-0.783 0,-0.518 -0.283,-0.778 -0.852,-0.778 h -0.267 z"
   id="path701" />
	<path
   fill="#010101"
   d="m 24.599,1.41 c 0.147,0 0.287,0.033 0.42,0.1 0.045,0.022 0.073,0.033 0.094,0.033 0.017,0 0.061,-0.025 0.061,-0.025 V 1.824 C 25.009,1.678 24.835,1.595 24.612,1.595 c -0.208,0 -0.394,0.075 -0.551,0.221 -0.172,0.16 -0.229,0.373 -0.233,0.602 0.004,0.458 0.308,0.827 0.784,0.827 0.224,0 0.396,-0.082 0.562,-0.229 v 0.307 c 0,0 -0.044,-0.026 -0.061,-0.026 -0.021,0 -0.049,0.011 -0.094,0.034 C 24.886,3.396 24.748,3.43 24.599,3.43 24.029,3.43 23.62,2.989 23.62,2.427 23.619,1.855 24.021,1.41 24.599,1.41 Z"
   id="path703" />
	<path
   fill="#010101"
   d="m 26.291,2.666 c 0,0 0.012,0.311 0.213,0.482 0.076,0.066 0.177,0.091 0.285,0.091 0.291,0 0.497,-0.207 0.497,-0.496 0,-0.336 -0.276,-0.555 -0.598,-0.555 -0.041,0 -0.132,0.003 -0.132,0.003 l 0.463,-0.552 h -0.55 c -0.07,0 -0.16,0.078 -0.16,0.078 V 1.454 h 1.092 l -0.509,0.598 c 0.349,0.049 0.592,0.342 0.592,0.692 0,0.402 -0.295,0.681 -0.695,0.681 -0.298,0 -0.583,-0.18 -0.583,-0.502 0,-0.102 0.027,-0.191 0.085,-0.257 z"
   id="path705" />
	<path
   fill="#010101"
   d="m 27.994,1.434 v 1.82 c 0,0.053 0.064,0.129 0.064,0.129 h -0.333 c 0,0 0.066,-0.077 0.066,-0.129 V 1.708 c 0,-0.057 -0.153,-0.08 -0.153,-0.08 z"
   id="path707" />
	<path
   fill="#010101"
   d="m 22.205,6.688 0.614,-0.802 c 0.126,-0.165 0.314,-0.417 0.314,-0.633 0,-0.204 -0.145,-0.351 -0.349,-0.351 -0.199,0 -0.348,0.132 -0.348,0.333 0,0.074 0.02,0.137 0.057,0.19 0,0 -0.233,0 -0.241,-0.215 -0.01,-0.151 0.052,-0.27 0.156,-0.358 0.102,-0.091 0.229,-0.135 0.382,-0.135 0.306,0 0.542,0.223 0.542,0.536 0,0.106 -0.026,0.212 -0.08,0.319 -0.056,0.106 -0.145,0.24 -0.26,0.397 L 22.596,6.5 h 0.574 c 0.092,0 0.111,-0.004 0.18,-0.069 v 0.256 h -1.145 z"
   id="path709" />
	<path
   fill="#010101"
   d="m 23.544,5.725 c 0,-0.279 0.069,-0.519 0.21,-0.714 0.142,-0.196 0.311,-0.295 0.51,-0.295 0.201,0 0.372,0.1 0.514,0.295 0.142,0.195 0.209,0.435 0.209,0.714 0,0.278 -0.067,0.517 -0.209,0.714 -0.142,0.195 -0.312,0.295 -0.514,0.295 -0.199,0 -0.368,-0.1 -0.51,-0.295 -0.141,-0.196 -0.21,-0.436 -0.21,-0.714 z m 0.72,0.824 c 0.383,0 0.521,-0.523 0.521,-0.824 0,-0.301 -0.139,-0.824 -0.521,-0.824 -0.381,0 -0.518,0.523 -0.518,0.824 -10e-4,0.299 0.137,0.824 0.518,0.824 z"
   id="path711" />
	<path
   fill="#010101"
   d="m 25.135,6.688 0.614,-0.802 c 0.126,-0.165 0.315,-0.417 0.315,-0.633 0,-0.204 -0.146,-0.351 -0.35,-0.351 -0.197,0 -0.349,0.132 -0.349,0.333 0,0.074 0.021,0.137 0.06,0.19 0,0 -0.234,0 -0.243,-0.215 -0.01,-0.151 0.053,-0.27 0.158,-0.358 0.103,-0.091 0.228,-0.135 0.38,-0.135 0.306,0 0.543,0.223 0.543,0.536 0,0.106 -0.028,0.212 -0.079,0.319 -0.058,0.106 -0.144,0.24 -0.26,0.397 L 25.527,6.5 h 0.577 c 0.09,0 0.108,-0.004 0.179,-0.069 v 0.256 h -1.148 z"
   id="path713" />
	<path
   fill="#010101"
   d="m 26.545,5.973 c 0,0 0.012,0.312 0.213,0.481 0.076,0.067 0.177,0.092 0.286,0.092 0.29,0 0.495,-0.208 0.495,-0.497 0,-0.335 -0.274,-0.554 -0.599,-0.554 -0.04,0 -0.131,0.002 -0.131,0.002 l 0.463,-0.551 h -0.549 c -0.07,0 -0.161,0.077 -0.161,0.077 V 4.76 h 1.093 l -0.51,0.598 c 0.35,0.049 0.593,0.342 0.593,0.691 0,0.403 -0.296,0.681 -0.695,0.681 -0.299,0 -0.583,-0.179 -0.583,-0.502 0,-0.101 0.027,-0.188 0.085,-0.255 z"
   id="path715" />
</g>
</svg>
