<?xml version="1.0" encoding="utf-8"?>
<!-- Generator: Adobe Illustrator 16.0.0, SVG Export Plug-In . SVG Version: 6.00 Build 0)  -->
<!DOCTYPE svg PUBLIC "-//W3C//DTD SVG 1.1//EN" "http://www.w3.org/Graphics/SVG/1.1/DTD/svg11.dtd">
<svg version="1.1" id="Layer_1" xmlns="http://www.w3.org/2000/svg" xmlns:xlink="http://www.w3.org/1999/xlink" x="0px" y="0px"
	 width="36px" height="36px" viewBox="0 0 36 36" enable-background="new 0 0 36 36" xml:space="preserve">
<g id="Speech_bubble_copy_2">
	<path fill="#231F20" d="M19.808,8.747l2.453-1.521c-2.358-0.591-3.875-1.851-3.875-3.228c0-1.972,3.065-3.576,6.832-3.576
		c3.766,0,6.829,1.604,6.829,3.576c0,1.973-3.063,3.578-6.829,3.578c-0.397,0-0.803-0.019-1.208-0.056L19.808,8.747z M25.217,0.521
		c-3.713,0-6.733,1.56-6.733,3.478c0,1.351,1.537,2.592,3.915,3.16l0.114,0.028l-2.038,1.263l3.524-1.028l0.01,0.001
		c0.404,0.037,0.811,0.057,1.208,0.057c3.711,0,6.73-1.562,6.73-3.48C31.947,2.081,28.928,0.521,25.217,0.521z"/>
</g>
<g id="Black_copy">
	<g>
		<g>
			<path fill="#010101" d="M22.382,7.182c-2.333-0.559-3.953-1.785-3.953-3.208c0-0.356,0.103-0.701,0.291-1.023
				c-0.273,0.381-0.423,0.795-0.423,1.226c0,1.395,1.557,2.6,3.815,3.173L22.382,7.182z"/>
			<path fill="#010101" d="M25.212,7.502c-0.415,0-0.819-0.02-1.213-0.058l-3.493,1.021l-0.501,0.311l3.861-1.129
				c0.393,0.038,0.801,0.057,1.214,0.057c3.062,0,5.648-1.055,6.49-2.504C30.612,6.544,28.126,7.502,25.212,7.502z"/>
		</g>
		<g>
			<path fill="#010101" d="M25.493,8.471c-0.006-0.021-0.012-0.04-0.016-0.06c0.046-0.008,0.091-0.008,0.134,0
				c0.003,0.009,0.007,0.018,0.009,0.025C25.637,8.519,25.511,8.554,25.493,8.471z"/>
			<path fill="#010101" d="M24.479,8.185c0.036-0.029,0.079-0.055,0.119-0.079c0.004,0.001,0.006,0.004,0.008,0.005
				c0.067,0.048,0,0.161-0.067,0.11C24.518,8.208,24.498,8.197,24.479,8.185z"/>
			<path fill="#010101" d="M24.615,9.46c-0.037,0.074-0.149,0.009-0.113-0.065c0.001-0.005,0.004-0.008,0.006-0.011
				c0.045,0.006,0.085,0.022,0.121,0.049C24.624,9.442,24.618,9.451,24.615,9.46z"/>
			<path fill="#010101" d="M24.502,9.395c-0.037,0.074,0.076,0.14,0.113,0.065c0.003-0.009,0.01-0.019,0.014-0.028
				c0.032,0.024,0.062,0.051,0.088,0.086c0.05,0.068-0.064,0.132-0.114,0.065c-0.042-0.055-0.099-0.078-0.166-0.072
				c-0.085,0.007-0.085-0.124,0-0.13c0.023-0.003,0.049-0.003,0.069,0.003C24.506,9.387,24.503,9.39,24.502,9.395z"/>
			<path fill="#010101" d="M24.144,10.057c-0.011,0.04-0.021,0.08-0.03,0.121c-0.053-0.035-0.104-0.064-0.158-0.091
				C24.041,10.07,24.105,10.06,24.144,10.057z"/>
			<path fill="#010101" d="M25.478,8.412c-0.152-0.494-0.711-0.329-1.01-0.042c-0.233,0.223-0.462,0.495-0.542,0.816
				c-0.038-0.021-0.083-0.031-0.127-0.026c0.086-0.367,0.36-0.74,0.683-0.977c0.018,0.012,0.038,0.023,0.06,0.038
				c0.065,0.05,0.135-0.063,0.065-0.11c-0.002-0.001-0.004-0.003-0.008-0.005c0.039-0.023,0.075-0.044,0.114-0.063
				c0.393-0.188,0.794-0.057,0.898,0.368C25.568,8.404,25.523,8.404,25.478,8.412z"/>
			<path fill="#010101" d="M23.918,9.223c-0.017,0.082-0.143,0.048-0.126-0.036c0.001-0.008,0.005-0.017,0.007-0.026
				c0.044-0.005,0.087,0.005,0.127,0.025C23.924,9.201,23.921,9.212,23.918,9.223z"/>
			<path fill="#010101" d="M24.019,9.253c0.061,0.06-0.031,0.152-0.093,0.093c-0.041-0.043-0.099-0.077-0.158-0.049
				C23.69,9.334,23.623,9.221,23.7,9.186c0.033-0.014,0.067-0.023,0.1-0.023c-0.002,0.01-0.006,0.019-0.007,0.026
				c-0.018,0.083,0.11,0.119,0.126,0.036c0.003-0.012,0.006-0.022,0.008-0.037C23.961,9.203,23.991,9.223,24.019,9.253z"/>
			<path fill="#010101" d="M23.741,11.388c0.011,0.016,0.02,0.033,0.026,0.048c-0.036,0.023-0.077,0.045-0.115,0.063
				c-0.008-0.014-0.018-0.029-0.026-0.046C23.582,11.382,23.694,11.317,23.741,11.388z"/>
			<path fill="#010101" d="M23.44,9.749c0.25,0.064,0.489,0.155,0.711,0.298l-0.008,0.01c-0.036,0.002-0.102,0.013-0.188,0.03
				c-0.175-0.095-0.356-0.161-0.551-0.212C23.32,9.853,23.357,9.727,23.44,9.749z"/>
			<path fill="#010101" d="M24.179,10.066c0.058,0.035,0.029,0.113-0.035,0.122c-0.132,0.013-1.096,0.206-0.94,0.383
				c0.054,0.063-0.036,0.156-0.093,0.092c-0.294-0.332,0.453-0.513,0.844-0.576c0.054,0.027,0.104,0.057,0.157,0.091
				c0.011-0.041,0.021-0.08,0.03-0.121l0.006-0.009C24.159,10.054,24.167,10.06,24.179,10.066z"/>
			<path fill="#010101" d="M24.599,8.106c-0.04,0.024-0.081,0.051-0.119,0.079c-0.773-0.435-1.131,1.558-1.722,1.483
				c-0.037-0.056-0.068-0.117-0.099-0.182c0.004,0.002,0.008,0.003,0.01,0.006C23.065,9.805,23.733,7.506,24.599,8.106z"/>
			<path fill="#010101" d="M22.659,9.487c0.03,0.064,0.063,0.126,0.1,0.182c-0.059-0.007-0.117-0.033-0.18-0.082
				c-0.004-0.004-0.008-0.007-0.012-0.01l0,0c-0.002-0.006-0.004-0.01-0.008-0.016c0-0.002,0-0.005-0.002-0.006V9.553
				C22.546,9.506,22.609,9.457,22.659,9.487z"/>
			<path fill="#010101" d="M23.142,9.88c0.085-0.001,0.085,0.128,0,0.131c-0.309,0.007-0.455-0.171-0.574-0.436
				c0.004,0.003,0.008,0.006,0.012,0.01c0.063,0.049,0.121,0.076,0.18,0.082C22.841,9.796,22.954,9.885,23.142,9.88z"/>
			<path fill="#010101" d="M22.56,9.56c0.004,0.006,0.006,0.01,0.008,0.016c-0.006-0.007-0.008-0.013-0.01-0.021
				C22.56,9.556,22.56,9.559,22.56,9.56z"/>
			<path fill="#010101" d="M22.174,11.128c0.042-0.045,0.135-0.011,0.111,0.061c-0.008,0.021-0.013,0.043-0.018,0.065
				c-0.015-0.013-0.025-0.027-0.037-0.042C22.213,11.185,22.193,11.156,22.174,11.128z"/>
			<path fill="#010101" d="M23.77,11.437c0.226,0.428-0.368,0.646-0.724,0.665c-0.555,0.026-1.078-0.364-0.885-0.947
				c0.005-0.011,0.009-0.017,0.015-0.024c0.019,0.027,0.037,0.057,0.058,0.083c0.011,0.015,0.023,0.03,0.037,0.042
				c-0.104,0.453,0.332,0.755,0.775,0.715c0.248-0.021,0.772-0.141,0.606-0.47C23.69,11.482,23.733,11.46,23.77,11.437z"/>
			<path fill="#010101" d="M24.852,10.071c-0.234,0.46-0.586,1.069-1.084,1.367c-0.009-0.017-0.018-0.033-0.028-0.049
				c-0.047-0.071-0.159-0.005-0.113,0.065c0.01,0.017,0.019,0.032,0.026,0.047c-0.136,0.065-0.277,0.105-0.434,0.114
				c-0.362,0.024-0.715-0.071-0.95-0.359c0.005-0.021,0.011-0.043,0.018-0.065c0.022-0.072-0.07-0.105-0.11-0.061
				c-0.22-0.35-0.204-0.723-0.408-1.094c0.045,0.061,0.145,0.013,0.123-0.048c0.279,0.536,0.223,1.567,1.141,1.51
				c0.693-0.044,1.224-0.559,1.533-1.153c0.244-0.473,0.5-0.805,0.937-1.114c0.16-0.114,0.442-0.406,0.225-0.578
				c-0.479-0.377-0.927,0.448-1.097,0.783c-0.036-0.025-0.076-0.042-0.121-0.049c0.126-0.246,0.575-0.9,0.97-0.972
				c0.005,0.019,0.011,0.04,0.016,0.06c0.018,0.082,0.145,0.048,0.127-0.036c-0.002-0.007-0.006-0.016-0.008-0.025
				c0.099,0.022,0.193,0.091,0.271,0.225c0.086,0.149,0.063,0.354-0.057,0.479C25.507,9.451,25.071,9.637,24.852,10.071z"/>
			<path fill="#010101" d="M21.889,9.987c0.022,0.062-0.077,0.108-0.121,0.048c-0.039-0.068,0.056-0.13,0.1-0.081
				c0.005,0.005,0.007,0.01,0.012,0.014C21.885,9.973,21.885,9.981,21.889,9.987z"/>
			<path fill="#010101" d="M21.867,9.953c-0.044-0.049-0.139,0.012-0.1,0.081c-0.124-0.161-0.229-0.365-0.446-0.4
				c-0.032-0.006-0.046-0.027-0.048-0.052c0.022,0.047,0.105,0.057,0.122-0.008c0.006-0.018,0.009-0.038,0.016-0.055
				C21.623,9.581,21.741,9.782,21.867,9.953z"/>
			<path fill="#010101" d="M21.411,9.519c-0.006,0.017-0.01,0.037-0.016,0.056c-0.015,0.064-0.1,0.056-0.122,0.007
				c0-0.001,0-0.001,0-0.003c0-0.037,0.033-0.079,0.081-0.072C21.377,9.51,21.394,9.514,21.411,9.519z"/>
			<path fill="#010101" d="M21.896,9.042c-0.218,0.083-0.41,0.25-0.485,0.478c-0.018-0.005-0.035-0.01-0.057-0.012
				c-0.048-0.006-0.081,0.036-0.081,0.072c-0.006-0.011-0.01-0.024-0.006-0.04c0.092-0.38,0.453-0.655,0.838-0.641
				c0.337,0.01,0.433,0.321,0.554,0.589c-0.05-0.031-0.111,0.02-0.102,0.065C22.441,9.292,22.297,8.888,21.896,9.042z"/>
		</g>
		<path fill="#010101" d="M22.827,12.038c-0.145-0.032-0.277-0.082-0.388-0.15c-0.071,0.281-0.15,0.563-0.24,0.838
			c-0.06,0.179-0.125,0.354-0.193,0.527c-0.146,0.333-0.319,0.656-0.535,0.949c-0.133,0.164-0.28,0.313-0.439,0.446
			c-0.109,0.08-0.224,0.151-0.348,0.208c-0.107,0.042-0.222,0.072-0.335,0.091c-0.148,0.015-0.296,0.012-0.443-0.004
			c-0.262-0.042-0.514-0.121-0.759-0.22c-0.554-0.242-1.064-0.576-1.559-0.922c0.033,0.468,0.083,0.926,0.149,1.372
			c0.076,0.046,0.15,0.095,0.226,0.139c0.324,0.188,0.659,0.349,1.009,0.48c0.333,0.125,0.683,0.202,1.04,0.226
			c0.195,0.012,0.388-0.009,0.58-0.038c0.149-0.021,0.295-0.063,0.433-0.121c0.179-0.073,0.346-0.153,0.503-0.263
			c0.142-0.098,0.279-0.207,0.404-0.326c0.227-0.213,0.422-0.463,0.591-0.722c0.154-0.236,0.284-0.488,0.398-0.746
			c0.256-0.586,0.443-1.195,0.594-1.819c0.006-0.021,0.012-0.043,0.016-0.065C23.307,12.034,22.981,12.072,22.827,12.038z"/>
		<path fill="#010101" d="M8.655,13.343c-0.023-0.363-0.042-0.731-0.059-1.108c-1.37-0.195-2.94,0.271-3.527,1.584
			c-0.375,0.841-0.162,1.733,0.177,2.545c0.262,0.625,0.753,1.424,0.788,2.164c0.249-0.24,0.723-0.339,1.045-0.237
			c-0.165-1.063-0.897-2.136-1.122-3.152C5.608,13.564,7.404,13.124,8.655,13.343z"/>
		<g id="XMLID_4_">
			<g>
				<path fill="#010101" d="M20.767,22.366c-0.036-0.449-0.186-0.875-0.447-1.252c-0.295-0.366-0.61-0.766-0.898-1.181
					c-0.197-0.292-0.392-0.613-0.609-1.018c-0.475-0.978-0.846-2.024-1.102-3.11c-0.252-1.351-0.347-2.811-0.283-4.338
					c0.124-1.653,0.417-3.387,0.897-5.305c0.151-0.604-0.006-1.367-0.405-1.943c-0.093-0.133-0.2-0.258-0.316-0.373
					c0.025,0.117,0.042,0.235,0.05,0.354c0.036,0.482-0.055,0.946-0.264,1.382l-0.062,0.091c-0.524,0.802-0.947,1.632-1.258,2.469
					c-0.233,0.774-0.389,1.604-0.462,2.461c-0.026,0.798,0.012,1.651,0.115,2.683c0.097,0.972,0.243,1.944,0.433,2.895
					c0.202,0.9,0.446,1.773,0.721,2.595c0.321,0.964,0.628,1.736,0.964,2.438c0.304,0.55,0.667,1.091,1.105,1.653
					c0.389,0.5,0.558,1.267,0.441,1.975c0.097-0.049,0.189-0.105,0.278-0.168c0.546-0.378,0.932-0.964,1.056-1.613L20.767,22.366z
					 M20.425,21.035c0.274,0.402,0.433,0.848,0.471,1.331l-0.038,0.709c-0.137,0.69-0.542,1.31-1.114,1.707
					c-0.131,0.09-0.27,0.169-0.416,0.235l-0.118,0.053l0.028-0.132c0.002-0.015,0.007-0.027,0.009-0.044
					c0.137-0.694-0.022-1.456-0.403-1.944c-0.441-0.569-0.808-1.116-1.117-1.676c-0.34-0.708-0.648-1.489-0.971-2.454
					c-0.276-0.826-0.521-1.705-0.725-2.61c-0.19-0.956-0.336-1.935-0.433-2.909c-0.104-1.039-0.141-1.897-0.115-2.706
					c0.074-0.868,0.231-1.707,0.466-2.492c0.315-0.853,0.743-1.692,1.272-2.501l0.056-0.084c0.194-0.407,0.28-0.848,0.246-1.307
					c-0.013-0.182-0.046-0.362-0.099-0.537l-0.061-0.207l0.166,0.138c0.19,0.158,0.359,0.339,0.498,0.54
					c0.418,0.607,0.585,1.411,0.425,2.05c-0.479,1.911-0.773,3.638-0.895,5.282c-0.062,1.515,0.031,2.965,0.281,4.304
					c0.256,1.072,0.623,2.11,1.091,3.078c0.215,0.396,0.405,0.716,0.604,1.001C19.813,20.271,20.129,20.668,20.425,21.035z"/>
			</g>
		</g>
		<g>
			<path fill="#010101" d="M13.835,7.209c0.168-0.084,0.297-0.22,0.457-0.321c0.288-0.185,0.616,0.044,0.734,0.308
				c0.026,0.059,0.11,0.009,0.084-0.048c-0.096-0.216-0.274-0.391-0.52-0.41c-0.353-0.027-0.513,0.243-0.805,0.385
				C13.728,7.15,13.779,7.235,13.835,7.209z"/>
			<path fill="#010101" d="M11.64,7.016c0.169-0.082,0.299-0.219,0.457-0.319c0.289-0.185,0.616,0.044,0.734,0.309
				c0.025,0.058,0.111,0.008,0.085-0.05c-0.097-0.213-0.274-0.39-0.52-0.407c-0.355-0.029-0.513,0.24-0.805,0.383
				C11.534,6.959,11.583,7.044,11.64,7.016z"/>
			<path fill="#010101" d="M13.362,10.5c-0.019-0.059-0.114-0.034-0.093,0.026c0.028,0.085,0.059,0.17,0.092,0.251
				c-0.183,0.169-0.508,0.156-0.71,0.058c-0.017-0.007-0.172-0.12-0.255-0.144c0.035-0.062,0.065-0.125,0.087-0.193
				c0.022-0.06-0.073-0.084-0.094-0.026c-0.087,0.239-0.264,0.486-0.503,0.586c-0.057,0.025-0.033,0.12,0.027,0.095
				c0.042-0.017,0.081-0.04,0.119-0.064c0.078,0.157,0.22,0.303,0.33,0.428c0.119,0.133,0.279,0.267,0.468,0.246
				c0.12-0.012,0.23-0.128,0.268-0.237c0.055-0.162,0.092-0.305,0.205-0.441c0.026-0.032,0.104-0.069,0.151-0.112
				c0.05,0.093,0.111,0.184,0.187,0.269c0.041,0.049,0.109-0.021,0.069-0.067C13.535,10.972,13.445,10.749,13.362,10.5z
				 M12.309,11.102c0.056-0.1,0.139-0.025,0.181,0.041c0.019,0.03,0.055,0.048,0.082,0.067c0.101,0.067,0.259-0.054,0.312,0.103
				c0.018,0.055,0.012,0.107,0.011,0.162c-0.006,0.165-0.244,0.082-0.312,0.046C12.437,11.445,12.277,11.279,12.309,11.102z
				 M12.947,11.693c-0.02,0.015-0.042,0.026-0.066,0.035C12.902,11.719,12.924,11.708,12.947,11.693z"/>
			<path fill="#010101" d="M13.76,9.478C13.468,9.344,13.413,9.8,13.18,9.831c-0.062,0.009-0.036,0.104,0.027,0.095
				c0.172-0.023,0.247-0.211,0.355-0.324c0.04-0.039,0.083-0.057,0.137-0.043c0.119,0.027,0.131,0.145,0.112,0.243
				c-0.032,0.177-0.153,0.234-0.284,0.331c-0.052,0.038-0.002,0.124,0.049,0.086c0.149-0.109,0.265-0.171,0.322-0.357
				C13.944,9.708,13.913,9.55,13.76,9.478z"/>
			<path fill="#010101" d="M14.545,7.196c-0.285,0-0.53,0.349-0.622,0.836l0.683,0.391l-0.699,0.404
				c0.031,0.21,0.089,0.397,0.167,0.547c0.141-0.047,0.306-0.075,0.481-0.075c0.167,0,0.324,0.025,0.46,0.068
				c0.119-0.23,0.19-0.547,0.19-0.894C15.208,7.769,14.912,7.196,14.545,7.196z"/>
			<path fill="#010101" d="M12.809,9.377c0.115-0.229,0.186-0.541,0.186-0.885c0-0.705-0.297-1.275-0.664-1.275
				c-0.286,0-0.528,0.346-0.622,0.835l0.683,0.391l-0.698,0.407c0.03,0.197,0.083,0.376,0.156,0.522
				c0.139-0.044,0.298-0.07,0.469-0.07C12.499,9.3,12.666,9.328,12.809,9.377z"/>
			<path fill="#010101" d="M13.398,11.81c-0.222,0.101-0.456,0.188-0.702,0.196c-0.249,0.006-0.493-0.069-0.725-0.15
				c-0.06-0.021-0.085,0.074-0.026,0.094c0.245,0.085,0.498,0.161,0.761,0.153c0.261-0.008,0.508-0.104,0.742-0.21
				c0.024-0.011,0.03-0.046,0.019-0.068C13.452,11.802,13.424,11.799,13.398,11.81z"/>
			<path fill="#010101" d="M11.738,9.842c-0.172,0.038-0.343,0.096-0.477,0.212c-0.142,0.123-0.201,0.308-0.214,0.489
				c-0.005,0.063,0.095,0.063,0.098,0c0.01-0.16,0.064-0.311,0.186-0.419c0.119-0.107,0.281-0.155,0.433-0.187
				C11.825,9.924,11.798,9.829,11.738,9.842z"/>
			<path fill="#010101" d="M14.324,10.063c-0.021-0.015-0.048-0.02-0.069,0c-0.017,0.017-0.021,0.055,0,0.069
				c0.213,0.168,0.378,0.396,0.405,0.672c0.006,0.063,0.104,0.063,0.098,0C14.729,10.502,14.562,10.248,14.324,10.063z"/>
		</g>
		<path fill="#010101" d="M15.063,3.398c0.093-0.483,0.571-0.651,1.029-0.626c0.063,0.003,0.063-0.096,0-0.099
			c-0.516-0.026-1.023,0.183-1.125,0.714c-0.197-0.316-0.513-0.75-0.016-0.952c0.058-0.023,0.033-0.12-0.027-0.095
			c-0.568,0.23-0.284,0.695-0.055,1.076c-0.298-0.034-0.773-0.125-0.703-0.5c0.01-0.062-0.084-0.089-0.096-0.026
			c-0.087,0.483,0.49,0.592,0.851,0.63c-0.081,0.407-0.468,0.649-0.878,0.603c-0.062-0.007-0.062,0.091,0,0.099
			c0.44,0.051,0.87-0.22,0.967-0.654c0.104,0.098,0.204,0.201,0.281,0.325c0.145,0.234,0.003,0.428-0.188,0.57
			c-0.05,0.037-0.001,0.123,0.05,0.084c0.161-0.119,0.34-0.289,0.296-0.511c-0.044-0.221-0.208-0.391-0.37-0.542
			c0.413-0.059,0.974-0.026,0.957,0.514c-0.001,0.063,0.097,0.063,0.099,0C16.153,3.398,15.539,3.331,15.063,3.398z"/>
		<g>
			<g id="XMLID_3_">
				<g>
					<path fill="#010101" d="M24.689,28.162c-0.002,0-0.002,0.002-0.002,0.002c-0.065-0.036-0.137-0.063-0.206-0.088
						C24.555,28.099,24.625,28.126,24.689,28.162z"/>
					<path fill="#010101" d="M24.146,27.99c-0.125-0.021-0.262-0.028-0.396-0.02c-0.039,0.001-0.079,0.006-0.115,0.011
						c0.33-0.719,0.848-1.386,1.081-2.182c0.225-0.778,0.383-1.749-0.029-2.502c-0.243-0.442-0.588-0.954-1.131-1.035
						c-0.92-0.142-1.919,0.705-2.655,1.143c-0.057,0.033-0.111,0.065-0.165,0.099c0.051-0.139,0.094-0.281,0.123-0.429l0.04-0.711
						c-0.006-0.064-0.013-0.129-0.021-0.191c1.108-0.711,2.215-1.402,3.445-0.771c1.224,0.63,1.818,2.168,1.658,3.487
						c-0.094,0.791-0.292,1.585-0.685,2.285c-0.174,0.31-0.417,0.641-0.603,0.988c-0.063-0.036-0.136-0.063-0.207-0.086
						c-0.024-0.009-0.049-0.017-0.072-0.025c-0.043-0.012-0.083-0.022-0.125-0.032C24.241,28.007,24.194,27.997,24.146,27.99z"/>
					<path fill="#010101" d="M23.634,27.98c0.036-0.005,0.077-0.01,0.115-0.011C23.711,27.972,23.673,27.977,23.634,27.98z"/>
					<path fill="#010101" d="M22.56,29.618c0.143,0.336,0.596,0.545,1.078,0.684c0.005-0.004,0.009-0.009,0.017-0.013
						c0.127-0.071,0.269-0.126,0.416-0.075c0.128,0.048,0.22,0.165,0.316,0.256c0.002,0.002,0.002,0.004,0.004,0.006
						c0.179,0.035,0.335,0.062,0.453,0.088c0.595,0.128,1.81,0.579,2.45,0.266c-0.86-0.307-1.751-0.438-2.644-0.634
						C23.991,30.054,23.182,29.922,22.56,29.618z M24.735,29.129c-0.412-0.188-0.931-0.41-1.397-0.318
						c-0.262,0.05-0.719,0.286-0.788,0.588c0.747,0.401,1.812,0.549,2.629,0.703c0.781,0.149,1.554,0.302,2.298,0.587
						c0.308-0.694-0.034-1.735-0.861-1.901c-0.547-0.111-1.345,0.132-1.755,0.534c-0.007,0.013-0.011,0.019-0.015,0.027
						c-0.023,0.044-0.062,0.058-0.099,0.048c-0.073-0.004-0.137-0.101-0.071-0.17c0.008-0.008,0.016-0.015,0.022-0.021
						C24.71,29.183,24.722,29.155,24.735,29.129z M24.232,28.207c-0.311-0.061-1.174-0.087-1.049,0.436
						c0.037-0.01,0.07-0.018,0.103-0.021c0.534-0.077,1.046,0.11,1.524,0.33c0.041-0.117,0.064-0.233,0.035-0.315
						C24.739,28.361,24.504,28.259,24.232,28.207z M24.555,30.696c-0.73-0.186-2.159-0.269-2.236-1.26
						c-0.004-0.04,0.016-0.065,0.041-0.079c0.049-0.266,0.345-0.513,0.634-0.644c-0.103-0.259-0.139-0.43,0.172-0.594
						c0.137-0.073,0.301-0.119,0.47-0.139c0.039-0.005,0.077-0.009,0.115-0.011c0.136-0.009,0.271-0.003,0.397,0.02
						c0.047,0.007,0.095,0.017,0.139,0.028c0.041,0.01,0.082,0.021,0.124,0.032c0.024,0.01,0.047,0.018,0.071,0.025
						c0.071,0.023,0.142,0.052,0.206,0.086c0,0,0,0,0.003,0c0.163,0.087,0.294,0.213,0.344,0.423
						c0.033,0.128,0.023,0.238-0.006,0.349c0.637-0.419,1.548-0.513,2.153-0.065c0.621,0.455,0.772,1.318,0.443,1.974
						c-0.014,0.031-0.036,0.044-0.062,0.051c-0.309,0.248-0.704,0.225-1.092,0.188C25.834,31.021,25.173,30.854,24.555,30.696z"/>
					<path fill="#010101" d="M17.441,25.756c-0.004-0.026-0.011-0.053-0.017-0.077c0-0.004-0.002-0.007-0.003-0.008
						c0.008-0.003,0.013-0.007,0.017-0.011c0.006-0.006,0.011-0.009,0.017-0.016c0.191,0.13,0.513,0.384,0.318,0.604
						c-0.042,0.049-0.11-0.02-0.069-0.068C17.819,26.047,17.59,25.859,17.441,25.756z"/>
					<path fill="#010101" d="M17.402,25.612c0.011-0.022,0.017-0.048,0.025-0.071c0.227-0.184,0.528-0.212,0.761-0.004
						c0.048,0.042-0.021,0.112-0.068,0.069c-0.207-0.187-0.474-0.137-0.665,0.039c-0.018-0.011-0.037-0.023-0.05-0.033H17.402
						L17.402,25.612z"/>
					<path fill="#010101" d="M17.408,25.733c0.018-0.02,0.014-0.044-0.001-0.06c0.006,0,0.011-0.001,0.015-0.002
						c0.001,0.001,0.003,0.004,0.003,0.007c0.005,0.024,0.013,0.053,0.017,0.078C17.429,25.747,17.418,25.739,17.408,25.733z"/>
					<path fill="#010101" d="M17.421,25.672c-0.005-0.018-0.02-0.024-0.033-0.026c0.004-0.011,0.007-0.021,0.013-0.033h0.001
						c0.015,0.01,0.034,0.022,0.05,0.033c-0.005,0.007-0.011,0.011-0.017,0.017C17.435,25.664,17.428,25.668,17.421,25.672z"/>
					<path fill="#010101" d="M17.381,25.66c0.002-0.008,0.005-0.012,0.009-0.016c0.012,0.002,0.027,0.01,0.032,0.026
						c-0.004,0.001-0.009,0.002-0.015,0.002l0,0C17.4,25.664,17.39,25.66,17.381,25.66z"/>
					<path fill="#010101" d="M17.381,25.66c0.009,0,0.02,0.004,0.025,0.014c-0.011,0-0.02-0.003-0.028-0.01L17.381,25.66z"/>
					<path fill="#010101" d="M17.369,25.658c0.003-0.002,0.008-0.002,0.011,0.002c0,0-0.002,0.004-0.003,0.004
						C17.375,25.664,17.372,25.662,17.369,25.658z"/>
					<path fill="#010101" d="M17.366,25.658c0.001,0,0.001,0,0.003,0C17.368,25.658,17.368,25.658,17.366,25.658z"/>
					<path fill="#010101" d="M17.389,25.646c-0.012-0.002-0.02-0.002-0.029,0.002c-0.005-0.011-0.008-0.023-0.004-0.035
						c0.013-0.009,0.028-0.011,0.046,0c0,0,0,0,0,0.002C17.396,25.624,17.393,25.635,17.389,25.646z"/>
					<path fill="#010101" d="M17.381,25.66c-0.003-0.004-0.008-0.004-0.011-0.002c-0.001-0.002-0.001-0.002-0.003-0.002
						c-0.001-0.004-0.003-0.005-0.007-0.01c0.01-0.005,0.019-0.005,0.029-0.003C17.386,25.649,17.383,25.654,17.381,25.66z"/>
					<path fill="#010101" d="M17.375,25.672c0.001-0.004,0.002-0.004,0.002-0.008c0.009,0.008,0.018,0.01,0.029,0.01l0,0
						c0.015,0.016,0.019,0.04,0.001,0.06c-0.02-0.015-0.04-0.024-0.053-0.034c0-0.002-0.002-0.004-0.004-0.006
						C17.36,25.691,17.369,25.685,17.375,25.672z"/>
					<path fill="#010101" d="M17.402,25.612c-0.018-0.011-0.034-0.01-0.046,0c0.001-0.008,0.006-0.015,0.013-0.021
						c0.02-0.018,0.039-0.036,0.06-0.053C17.418,25.564,17.413,25.589,17.402,25.612z"/>
					<path fill="#010101" d="M17.36,25.647c0.003,0.005,0.005,0.007,0.007,0.011c-0.001,0-0.007,0-0.01,0
						c0-0.002,0-0.006-0.001-0.009C17.356,25.649,17.358,25.647,17.36,25.647z"/>
					<path fill="#010101" d="M17.369,25.658c0.001,0.004,0.005,0.006,0.008,0.006c0,0.004-0.001,0.004-0.003,0.008
						c-0.005,0.013-0.016,0.02-0.025,0.021c-0.004,0-0.004-0.004-0.006-0.004v-0.001c0.01-0.009,0.014-0.021,0.012-0.03
						c0.003-0.002,0.008-0.002,0.01-0.002C17.368,25.658,17.368,25.658,17.369,25.658z"/>
					<path fill="#010101" d="M17.338,25.664c0.004-0.006,0.011-0.012,0.018-0.016c0.001,0.003,0.001,0.006,0.001,0.01
						C17.35,25.66,17.342,25.662,17.338,25.664z"/>
					<path fill="#010101" d="M17.355,25.612c-0.003,0.012-0.001,0.024,0.004,0.035c-0.001,0-0.003,0.001-0.004,0.002
						c-0.001-0.008-0.007-0.014-0.013-0.021h-0.001v-0.002C17.344,25.62,17.35,25.616,17.355,25.612z"/>
					<path fill="#010101" d="M17.354,25.697c0.014,0.012,0.033,0.021,0.053,0.036c0,0.002-0.002,0.004-0.004,0.004
						c-0.018,0.019-0.038,0.031-0.059,0.045c-0.003-0.026-0.011-0.054-0.017-0.077c0-0.002,0-0.002,0-0.004
						c0.003,0,0.008-0.002,0.011-0.006c0.003,0,0.007,0,0.011-0.002C17.352,25.695,17.354,25.697,17.354,25.697z"/>
					<path fill="#010101" d="M17.335,25.668c0-0.004,0.002-0.004,0.003-0.004c0.005-0.002,0.012-0.004,0.019-0.006
						c0.002,0.01-0.002,0.021-0.012,0.03C17.34,25.684,17.335,25.678,17.335,25.668L17.335,25.668L17.335,25.668z"/>
					<path fill="#010101" d="M17.344,25.691c0,0,0.002,0.002,0.006,0.002c-0.004,0.002-0.007,0.004-0.011,0.004
						C17.341,25.695,17.342,25.693,17.344,25.691z"/>
					<path fill="#010101" d="M17.427,25.539c-0.021,0.016-0.041,0.035-0.06,0.053c-0.007,0.006-0.012,0.013-0.012,0.021
						c-0.005,0.004-0.011,0.01-0.015,0.015c-0.012-0.011-0.023-0.021-0.038-0.033c0.062-0.138,0.062-0.298,0.139-0.425
						c0.085-0.141,0.219-0.164,0.37-0.119c0.06,0.018,0.035,0.111-0.026,0.094c-0.175-0.052-0.259,0.029-0.306,0.193
						C17.461,25.401,17.445,25.473,17.427,25.539z"/>
					<path fill="#010101" d="M17.333,25.668c-0.003-0.014,0-0.026,0.008-0.039h0.001c0.006,0.007,0.012,0.014,0.013,0.021
						c-0.007,0.005-0.013,0.009-0.017,0.017c-0.001,0-0.003,0-0.003,0.003L17.333,25.668L17.333,25.668z"/>
					<path fill="#010101" d="M17.34,25.697c-0.003,0-0.007,0-0.012-0.002c0-0.01,0.001-0.019,0.005-0.024
						c0.001,0.009,0.006,0.015,0.011,0.021l0,0C17.342,25.693,17.341,25.695,17.34,25.697z"/>
					<path fill="#010101" d="M17.33,25.701c-0.001-0.004-0.001-0.006-0.001-0.008c0.004,0.002,0.009,0.002,0.012,0.002
						C17.337,25.699,17.333,25.701,17.33,25.701z"/>
					<path fill="#010101" d="M17.31,25.688c0.009-0.006,0.017-0.013,0.023-0.02l0,0v0.002c-0.003,0.008-0.005,0.016-0.005,0.025
						C17.323,25.695,17.317,25.693,17.31,25.688z"/>
					<path fill="#010101" d="M17.283,25.705c0.011-0.008,0.02-0.012,0.026-0.019c0.007,0.005,0.013,0.009,0.019,0.009
						c0,0.002,0,0.004,0.001,0.006C17.317,25.712,17.299,25.713,17.283,25.705z"/>
					<path fill="#010101" d="M17.31,25.688c-0.02-0.013-0.033-0.038-0.02-0.065c0.006-0.01,0.009-0.019,0.013-0.027
						c0.014,0.012,0.025,0.023,0.038,0.033v0.002c-0.008,0.013-0.012,0.026-0.008,0.039C17.326,25.675,17.319,25.682,17.31,25.688z"
						/>
					<path fill="#010101" d="M17.271,25.697c-0.184-0.164-0.417-0.461-0.144-0.655c0.05-0.037,0.101,0.046,0.049,0.083
						c-0.187,0.136,0,0.349,0.126,0.47c-0.004,0.01-0.008,0.02-0.013,0.027c-0.014,0.027,0,0.055,0.019,0.065
						c-0.007,0.006-0.015,0.012-0.026,0.018C17.279,25.703,17.276,25.699,17.271,25.697z"/>
					<path fill="#010101" d="M17.345,25.782c0.021-0.015,0.041-0.026,0.059-0.045c0.002,0,0.004-0.002,0.004-0.004
						c0.011,0.006,0.021,0.014,0.034,0.021c0.023,0.122,0.025,0.259-0.047,0.362c-0.09,0.128-0.263,0.122-0.399,0.098
						c-0.063-0.011-0.035-0.105,0.025-0.095c0.108,0.021,0.26,0.028,0.313-0.092C17.366,25.951,17.361,25.863,17.345,25.782z"/>
					<path fill="#010101" d="M16.709,25.604c0.15,0.155,0.392,0.216,0.574,0.101c0.017,0.009,0.034,0.008,0.047-0.002
						c0,0,0,0,0,0.002c0.005,0.024,0.012,0.052,0.016,0.077c-0.225,0.145-0.52,0.089-0.705-0.107
						C16.597,25.629,16.665,25.56,16.709,25.604z"/>
					<path fill="#010101" d="M15.445,26.757c-0.012-0.006-0.025-0.011-0.037-0.019C15.42,26.746,15.432,26.751,15.445,26.757z"/>
					<path fill="#010101" d="M15.26,26.647c0.037,0.023,0.072,0.046,0.108,0.065C15.332,26.693,15.297,26.674,15.26,26.647z"/>
					<path fill="#010101" d="M13.194,34.739c0.036-0.027,0.095-0.021,0.13,0.014c0.002,0.007,0.002,0.011,0.002,0.019
						c0,0.014-0.002,0.023-0.006,0.033C13.3,34.761,13.25,34.725,13.194,34.739z"/>
					<path fill="#010101" d="M13.321,34.806c-0.021,0.068-0.119,0.08-0.166,0.028c0.005-0.014,0.007-0.026,0.01-0.041
						c0.003-0.024,0.016-0.04,0.029-0.054C13.251,34.726,13.301,34.761,13.321,34.806L13.321,34.806z"/>
					<path fill="#010101" d="M13.277,34.915c-0.059,0.024-0.122,0.048-0.185,0.071c0.026-0.049,0.047-0.1,0.062-0.152
						c0.047,0.052,0.146,0.04,0.166-0.028C13.335,34.846,13.329,34.893,13.277,34.915z"/>
					<path fill="#010101" d="M16.724,2.363c0.537,0.462,0.876,1.13,0.929,1.837c0.036,0.482-0.056,0.946-0.264,1.382l-0.061,0.091
						c-0.524,0.802-0.947,1.632-1.258,2.469c-0.233,0.774-0.389,1.604-0.462,2.461c-0.026,0.798,0.012,1.651,0.115,2.683
						c0.097,0.972,0.243,1.944,0.433,2.895c0.202,0.9,0.445,1.773,0.72,2.595c0.322,0.964,0.628,1.736,0.964,2.438
						c0.304,0.55,0.668,1.091,1.106,1.653c0.4,0.517,0.57,1.323,0.429,2.051c-0.134,0.68-0.54,1.298-1.112,1.695
						c-0.444,0.306-0.987,0.476-1.535,0.476c-0.171,0-0.344-0.017-0.513-0.05c-0.201-0.04-0.394-0.101-0.575-0.186
						c0.011-0.008,0.021-0.016,0.031-0.021l0.085-0.063l-0.099-0.048c0.184,0.085,0.379,0.148,0.584,0.19
						c0.662,0.13,1.391-0.021,1.946-0.404c0.545-0.379,0.93-0.968,1.058-1.614c0.135-0.694-0.023-1.456-0.405-1.944
						c-0.441-0.568-0.807-1.116-1.117-1.675c-0.34-0.709-0.647-1.49-0.972-2.455c-0.276-0.826-0.52-1.705-0.725-2.61
						c-0.189-0.955-0.335-1.932-0.433-2.908c-0.104-1.039-0.141-1.897-0.114-2.705c0.074-0.868,0.231-1.707,0.465-2.493
						c0.318-0.851,0.745-1.69,1.274-2.499l0.056-0.084c0.195-0.406,0.28-0.848,0.246-1.307C17.472,3.54,17.15,2.903,16.64,2.463
						c-0.466-0.398-1.058-0.618-1.671-0.618c-0.063,0-0.126,0.001-0.189,0.006l-0.68,0.144c-0.407,0.146-0.763,0.391-1.054,0.723
						l0.071-0.08l-0.104-0.026c-0.012-0.003-0.024-0.007-0.038-0.01c0.304-0.335,0.666-0.58,1.086-0.732l0.697-0.147
						c0.075-0.007,0.144-0.011,0.209-0.011C15.613,1.709,16.236,1.943,16.724,2.363z"/>
					<path fill="#010101" d="M13.194,34.739c-0.015,0.014-0.025,0.028-0.029,0.054c-0.003,0.015-0.005,0.027-0.01,0.041
						c-0.014-0.017-0.023-0.036-0.024-0.063c0-0.004,0-0.004-0.001-0.008c0.017-0.005,0.034-0.013,0.049-0.019
						C13.185,34.741,13.189,34.739,13.194,34.739z"/>
					<path fill="#010101" d="M13.043,2.717c-0.002,0.003-0.004,0.006-0.009,0.01l-0.045-0.03V2.693L13.043,2.717z"/>
					<path fill="#010101" d="M12.82,3.051c0.034-0.055,0.069-0.107,0.104-0.159C12.893,2.946,12.856,2.998,12.82,3.051z"/>
					<path fill="#010101" d="M13.325,34.751c-0.036-0.034-0.095-0.04-0.13-0.012c-0.005,0-0.01,0.002-0.017,0.006
						c-0.017,0.008-0.034,0.015-0.049,0.019c-0.013-0.237-0.288-0.478-0.541-0.606l0.004-0.009c0.042,0.024,0.102,0.024,0.133-0.033
						c0.014-0.027,0.029-0.055,0.042-0.079C13.025,34.198,13.302,34.475,13.325,34.751z"/>
					<path fill="#010101" d="M12.723,34.115c-0.03,0.06-0.091,0.06-0.132,0.034c-0.041-0.025-0.065-0.08-0.037-0.132
						c0.014-0.027,0.025-0.053,0.034-0.074c0.056,0.021,0.115,0.058,0.178,0.094C12.752,34.061,12.737,34.088,12.723,34.115z"/>
					<path fill="#010101" d="M12.557,26.944c-0.08-0.052-0.155-0.105-0.226-0.162C12.403,26.838,12.477,26.893,12.557,26.944z"/>
					<path fill="#010101" d="M12.115,26.58c0.012,0.01,0.02,0.021,0.03,0.029C12.135,26.602,12.125,26.59,12.115,26.58z"/>
					<path fill="#010101" d="M12.19,33.229L12.19,33.229c-0.042-0.008-0.084-0.018-0.125-0.022
						C12.108,33.211,12.149,33.219,12.19,33.229z"/>
					<path fill="#010101" d="M11.093,33.314c-0.735-2.108-1.12-4.633,0.252-6.568c0.137-0.194,0.296-0.382,0.473-0.556
						c0.056,0.077,0.109,0.154,0.168,0.232c0.018,0.026,0.037,0.051,0.058,0.076c0.016,0.018,0.029,0.036,0.046,0.054
						c0.008,0.01,0.016,0.018,0.022,0.027c0.012,0.009,0.02,0.021,0.03,0.027c0.009,0.012,0.019,0.021,0.029,0.028
						c0.044,0.048,0.093,0.091,0.145,0.135c0.001,0.002,0.003,0.002,0.004,0.004c0.003,0.002,0.005,0.004,0.008,0.008
						c0.071,0.057,0.146,0.11,0.226,0.162c0.002,0.003,0.006,0.005,0.008,0.005c-0.274,0.274-0.497,0.591-0.64,0.908
						c-0.786,1.751-0.361,3.642,0.264,5.371c-0.042-0.012-0.082-0.019-0.125-0.022c-0.005-0.001-0.011-0.002-0.015-0.002
						c-0.015-0.002-0.026-0.003-0.041-0.005c-0.011-0.002-0.021-0.003-0.032-0.003c-0.032-0.005-0.066-0.007-0.097-0.011
						c-0.019,0-0.04-0.002-0.058-0.002c-0.039-0.002-0.076-0.004-0.109-0.004c-0.013,0-0.025,0-0.04,0.002
						c-0.015,0-0.028,0-0.044,0.002c-0.026,0-0.053,0.002-0.082,0.006c-0.101,0.008-0.197,0.027-0.289,0.057
						c-0.018,0.006-0.033,0.011-0.049,0.017C11.168,33.278,11.131,33.296,11.093,33.314z"/>
					<path fill="#010101" d="M11.738,35.568c0.047,0.081-0.037,0.2-0.125,0.138c-0.067-0.047-0.14-0.1-0.217-0.1v-0.002
						C11.504,35.595,11.621,35.584,11.738,35.568z"/>
					<path fill="#010101" d="M13.093,34.986c0.062-0.022,0.125-0.046,0.185-0.071c0.051-0.021,0.059-0.068,0.043-0.108
						c0,0,0,0,0-0.001c0.004-0.011,0.006-0.021,0.006-0.033c0-0.008,0-0.012-0.002-0.02c0.023,0.021,0.037,0.054,0.029,0.094
						c-0.181,0.93-1.568,0.894-2.324,0.972v-0.003c0.015,0,0.034-0.006,0.05-0.019c0.075-0.057,0.146-0.116,0.227-0.165
						c0.03-0.02,0.061-0.025,0.09-0.025c0.076,0,0.15,0.053,0.217,0.1c0.088,0.064,0.172-0.057,0.125-0.138
						C12.296,35.5,12.879,35.356,13.093,34.986z"/>
					<path fill="#010101" d="M10.94,34.055c0.502-0.162,1.126-0.331,1.636-0.117c0.005,0,0.006,0.001,0.012,0.006
						c-0.009,0.021-0.02,0.047-0.034,0.073c-0.028,0.053-0.004,0.105,0.037,0.132l-0.004,0.009c-0.08-0.039-0.156-0.067-0.222-0.08
						c-0.458-0.096-0.924,0.023-1.363,0.167c-0.011-0.055-0.023-0.106-0.047-0.154C10.948,34.076,10.944,34.066,10.94,34.055z"/>
					<path fill="#010101" d="M10.99,34.498c0.041-0.018,0.069-0.059,0.049-0.111c-0.005-0.018-0.011-0.035-0.015-0.054
						c0.005,0.008,0.014,0.018,0.02,0.028C11.089,34.421,11.048,34.48,10.99,34.498z"/>
					<path fill="#010101" d="M11.024,34.333c-0.022-0.026-0.042-0.054-0.063-0.077c0.012-0.006,0.026-0.012,0.041-0.014
						C11.008,34.272,11.015,34.304,11.024,34.333z"/>
					<path fill="#010101" d="M10.973,35.635c0.002-0.003,0.006-0.004,0.009-0.008c0.107-0.079,0.21-0.179,0.347-0.209
						c0.139-0.035,0.273,0.041,0.38,0.119c0.013,0.009,0.022,0.02,0.03,0.031c-0.117,0.016-0.233,0.025-0.342,0.036
						C11.241,35.616,11.098,35.627,10.973,35.635z"/>
					<path fill="#010101" d="M11.028,35.815c-0.076,0-0.125-0.116-0.056-0.18c0.125-0.009,0.269-0.02,0.424-0.031v0.002
						c-0.029,0-0.06,0.008-0.09,0.025c-0.081,0.049-0.152,0.108-0.227,0.165C11.062,35.81,11.042,35.815,11.028,35.815z"/>
					<path fill="#010101" d="M10.961,34.256c-0.042-0.051-0.084-0.096-0.132-0.138c0.011-0.02,0.029-0.036,0.057-0.046
						c0.018-0.006,0.036-0.013,0.053-0.018c0.004,0.011,0.008,0.021,0.014,0.033c0.025,0.048,0.038,0.102,0.048,0.153
						C10.988,34.244,10.975,34.25,10.961,34.256z"/>
					<path fill="#010101" d="M10.83,34.119c0.047,0.042,0.09,0.088,0.132,0.137c-0.008,0.002-0.016,0.004-0.023,0.007
						C10.846,34.292,10.795,34.188,10.83,34.119z"/>
					<path fill="#010101" d="M10.875,34.458c0.028,0.042,0.076,0.048,0.114,0.038c-0.049,0.021-0.116,0.006-0.14-0.06
						c-0.001-0.006-0.005-0.016-0.008-0.021C10.854,34.43,10.865,34.444,10.875,34.458z"/>
					<path fill="#010101" d="M10.83,34.119c-0.035-0.037-0.074-0.07-0.112-0.101c-0.026-0.152-0.015-0.305,0.093-0.453
						c0.08-0.11,0.176-0.191,0.282-0.251c0.038-0.02,0.076-0.036,0.116-0.052c0.017-0.006,0.032-0.012,0.049-0.017
						c0.092-0.029,0.188-0.049,0.288-0.057c0.029-0.004,0.055-0.006,0.082-0.006c0.017-0.002,0.03-0.002,0.044-0.002
						c0.014-0.002,0.026-0.002,0.04-0.002c0.034,0,0.071,0.002,0.11,0.004c0.019,0,0.04,0,0.057,0.002
						c0.032,0.004,0.065,0.006,0.098,0.01c0.011,0,0.021,0.001,0.032,0.003c0.014,0.002,0.025,0.003,0.041,0.006
						c0.004,0,0.011,0.001,0.016,0.002c0.042,0.005,0.083,0.015,0.126,0.022v-0.002c0.219,0.042,0.434,0.121,0.569,0.261
						c0.205,0.211,0.12,0.35,0.006,0.549c-0.063-0.037-0.124-0.071-0.178-0.094c0.201-0.539-0.741-0.616-1.114-0.54
						c-0.314,0.064-0.698,0.27-0.534,0.652c-0.018,0.007-0.037,0.013-0.053,0.018C10.859,34.082,10.842,34.099,10.83,34.119z"/>
					<path fill="#010101" d="M10.718,34.019c0.039,0.03,0.077,0.062,0.112,0.101c-0.035,0.068,0.016,0.173,0.109,0.144
						c0.007-0.003,0.015-0.005,0.023-0.007c0.021,0.023,0.041,0.051,0.063,0.079c0.003,0.017,0.01,0.034,0.015,0.053
						c0.02,0.054-0.009,0.094-0.049,0.11c-0.039,0.011-0.085,0.002-0.114-0.038c-0.01-0.015-0.022-0.028-0.034-0.043
						C10.795,34.284,10.742,34.15,10.718,34.019z"/>
					<path fill="#010101" d="M10.469,9.438c-0.092,0.953-0.122,1.87-0.09,2.719c0.056,1.436,0.246,2.967,0.57,4.55
						c0.414,2.035,0.874,3.657,1.445,5.102c0.636,1.607,1.367,2.929,2.232,4.042l0.447,0.494c0.042,0.036,0.086,0.069,0.129,0.103
						c0.002,0.003,0.003,0.005,0.006,0.007c0.035,0.027,0.07,0.053,0.107,0.074c0.012,0.009,0.025,0.016,0.037,0.024
						c0.04,0.025,0.081,0.051,0.121,0.073c0.035,0.02,0.07,0.038,0.105,0.057c0.027,0.015,0.054,0.025,0.08,0.04l0.099,0.046
						l-0.085,0.063c-0.01,0.008-0.02,0.016-0.031,0.023c-0.067-0.029-0.133-0.061-0.195-0.099c-0.012-0.007-0.025-0.012-0.038-0.019
						c-0.014-0.008-0.025-0.014-0.039-0.024c-0.038-0.021-0.073-0.042-0.108-0.064c-0.05-0.033-0.096-0.065-0.143-0.104
						c-0.043-0.033-0.086-0.064-0.126-0.101c-0.002-0.004-0.007-0.006-0.01-0.008l-0.456-0.506
						c-0.877-1.125-1.612-2.457-2.254-4.078c-0.574-1.451-1.035-3.08-1.453-5.123c-0.323-1.589-0.515-3.125-0.568-4.569
						c-0.035-0.858-0.003-1.778,0.09-2.738c0.067-0.686,0.183-1.344,0.345-1.954c0.242-0.907,0.537-1.739,0.874-2.473
						c0.16-0.349,0.339-0.685,0.529-1.01c0.039-0.07,0.081-0.139,0.122-0.207c0.164-0.273,0.334-0.54,0.504-0.798
						c0.011-0.018,0.022-0.036,0.032-0.055c0.05-0.073,0.096-0.142,0.145-0.214c0.013-0.021,0.025-0.04,0.038-0.059
						c0.016-0.018,0.032-0.037,0.05-0.054c0.012,0.003,0.025,0.007,0.038,0.01l0.104,0.026l-0.071,0.08l-0.054-0.022v0.002
						l0.044,0.03c0,0.003-0.001,0.004-0.005,0.006c-0.036,0.054-0.07,0.106-0.105,0.16c-0.034,0.052-0.07,0.104-0.104,0.159
						c-0.049,0.074-0.098,0.149-0.146,0.226c-0.358,0.558-0.711,1.148-0.999,1.774c-0.334,0.729-0.625,1.553-0.864,2.455
						C10.65,8.109,10.535,8.757,10.469,9.438z"/>
					<path fill="#010101" d="M9.166,6.344C8.909,7.381,8.762,8.246,8.704,9.068c-0.042,0.635-0.05,1.319-0.02,2.155
						c0.036,1.053,0.09,2.028,0.16,2.979c0.132,1.799,0.326,3.39,0.592,4.861c0.146,0.816,0.322,1.618,0.525,2.384
						c0.102,0.379,0.215,0.77,0.338,1.16l0.072,0.232c0.155,0.496,0.315,1.009,0.525,1.494c0.273,0.631,0.665,1.29,1.197,2.011
						c0.349,0.476,1.019,0.829,1.707,0.891c0.08,0.01,0.159,0.013,0.239,0.013c0.262,0,0.522-0.041,0.769-0.117
						c0.249-0.077,0.484-0.192,0.698-0.341c-0.021-0.011-0.04-0.021-0.06-0.034c0.063,0.037,0.129,0.068,0.196,0.098
						c-0.46,0.339-1.028,0.524-1.603,0.524c-0.084,0-0.167-0.005-0.25-0.012c-0.435-0.042-0.868-0.192-1.221-0.418
						c-0.002,0-0.005-0.003-0.008-0.006c-0.08-0.054-0.155-0.106-0.227-0.163c-0.003-0.003-0.006-0.005-0.008-0.007
						c-0.001-0.002-0.002-0.002-0.004-0.004c-0.051-0.042-0.101-0.086-0.145-0.133c-0.01-0.01-0.02-0.021-0.029-0.028
						c-0.009-0.01-0.019-0.021-0.029-0.029c-0.007-0.012-0.016-0.018-0.022-0.027c-0.017-0.017-0.031-0.036-0.046-0.054
						c-0.021-0.025-0.041-0.05-0.058-0.076c-0.059-0.079-0.114-0.155-0.168-0.232c-0.454-0.64-0.795-1.233-1.045-1.806
						c-0.214-0.49-0.374-1.005-0.53-1.504l-0.071-0.233c-0.125-0.393-0.239-0.786-0.34-1.167c-0.204-0.768-0.381-1.573-0.53-2.391
						c-0.268-1.48-0.46-3.076-0.594-4.879c-0.069-0.952-0.124-1.93-0.161-2.985c-0.03-0.84-0.024-1.529,0.022-2.168
						C8.632,8.227,8.78,7.355,9.039,6.31C9.22,5.583,9.477,4.895,9.803,4.262c0.162-0.43,0.425-0.805,0.78-1.109l0.581-0.374
						c0.563-0.268,1.216-0.33,1.813-0.182c-0.019,0.017-0.036,0.036-0.051,0.054c-0.012,0.021-0.025,0.041-0.039,0.06
						c-0.184-0.042-0.373-0.062-0.564-0.062c-0.379,0-0.758,0.084-1.098,0.247l-0.563,0.364C10.331,3.542,10.079,3.9,9.923,4.317
						C9.597,4.948,9.342,5.627,9.166,6.344z"/>
					<path fill="#010101" d="M8.085,35.478c0.845-0.215,1.701-0.261,2.567-0.333c0.759-0.064,1.75-0.087,2.476-0.381
						c0.001,0.004,0.001,0.005,0.001,0.008c0,0.026,0.011,0.047,0.024,0.063c-0.014,0.054-0.036,0.104-0.062,0.152
						c-0.588,0.2-1.309,0.246-1.915,0.307c-0.98,0.097-1.965,0.121-2.927,0.346c-0.058-0.034-0.113-0.078-0.156-0.127
						C8.091,35.499,8.088,35.489,8.085,35.478z"/>
					<path fill="#010101" d="M8.085,35.478c0.003,0.012,0.006,0.021,0.01,0.033c-0.003-0.003-0.007-0.009-0.01-0.012
						c-0.006-0.008-0.011-0.012-0.019-0.016C8.072,35.481,8.079,35.478,8.085,35.478z"/>
					<path fill="#010101" d="M8.109,35.546c0.029,0.081-0.049,0.131-0.113,0.117c-0.053-0.047-0.055-0.148,0.032-0.172
						c0.014-0.004,0.025-0.006,0.04-0.01c0.008,0.006,0.012,0.01,0.019,0.017c0.003,0.004,0.006,0.009,0.011,0.013
						C8.098,35.521,8.104,35.533,8.109,35.546z"/>
					<path fill="#010101" d="M8.252,35.638c-0.057,0.014-0.115,0.029-0.172,0.043c-0.035,0.011-0.064,0-0.084-0.018
						c0.064,0.014,0.144-0.035,0.113-0.117c-0.005-0.013-0.01-0.024-0.013-0.035C8.139,35.561,8.194,35.604,8.252,35.638z"/>
					<path fill="#010101" d="M10.973,35.822c-0.684,0.081-1.461,0.233-2.148,0.156c-0.333-0.038-0.638-0.075-0.864-0.327
						c0.009,0.006,0.021,0.011,0.035,0.011c0.02,0.019,0.049,0.027,0.084,0.019c0.059-0.015,0.116-0.029,0.172-0.043
						c0.606,0.374,1.882,0.091,2.481,0.018c0.069-0.006,0.149-0.014,0.239-0.021c-0.071,0.063-0.021,0.179,0.056,0.179v0.005
						C11.008,35.82,10.991,35.822,10.973,35.822z"/>
					<path fill="#010101" d="M7.947,35.637c-0.078-0.087,0.038-0.214,0.12-0.153c-0.014,0.002-0.025,0.006-0.04,0.01
						c-0.087,0.021-0.085,0.125-0.033,0.171c-0.013,0-0.025-0.005-0.034-0.011H7.959C7.955,35.647,7.951,35.642,7.947,35.637z"/>
					<path fill="#010101" d="M8.99,33.728c-0.716,0.279-1.138,1.014-0.905,1.75c-0.006,0-0.013,0.004-0.019,0.006
						c-0.081-0.062-0.197,0.065-0.121,0.153c0.004,0.004,0.009,0.011,0.013,0.015c-0.02-0.013-0.032-0.027-0.041-0.051
						c-0.271-0.73,0.079-1.697,0.844-1.994c0.623-0.242,1.419-0.031,1.955,0.411c0.023,0.132,0.077,0.266,0.124,0.398
						C10.477,33.961,9.536,33.516,8.99,33.728z"/>
				</g>
			</g>
		</g>
		<g>
			<path fill="#010101" d="M7.844,18.943C7.84,18.941,7.835,18.94,7.83,18.94c-0.042-0.009-0.083-0.014-0.127-0.015
				c-0.003,0-0.006,0.002-0.011,0.002c-0.004-0.003-0.008-0.008-0.013-0.012C7.59,18.87,7.496,18.831,7.4,18.799
				c0.14-0.833-1.509-0.64-1.532,0.08c0,0.024,0.012,0.041,0.028,0.051c-0.172,0.1-0.301,0.224-0.414,0.413
				c-0.173,0.293-0.065,0.645-0.272,0.927c-0.005,0.007-0.008,0.016-0.01,0.022c-0.187,0.313-0.163,0.679,0.072,0.979
				c0.104,0.133,0.214,0.186,0.38,0.157c0.058-0.01,0.098-0.045,0.128-0.085c0.036,0.196,0.124,0.381,0.31,0.469
				c0.189,0.088,0.452,0.081,0.645-0.021c0.007-0.002,0.012-0.004,0.019-0.006c0.011-0.008,0.022-0.016,0.032-0.023
				c0.005-0.004,0.01-0.006,0.014-0.01c0.01-0.007,0.019-0.015,0.029-0.022c0.012-0.012,0.029-0.023,0.043-0.035
				c0.004-0.007,0.006-0.012,0.009-0.018c0.019-0.019,0.037-0.038,0.054-0.058c0.203,0.119,0.431,0.158,0.686,0.03
				c0.385-0.192,0.466-0.529,0.371-0.931c-0.002-0.001-0.004-0.003-0.004-0.007c0.372,0.079,0.678-0.32,0.699-0.67
				C8.72,19.556,8.316,19.039,7.844,18.943z M5.993,18.877c0.018-0.55,1.379-0.729,1.289-0.119c-0.397-0.104-0.83-0.081-1.212,0.084
				C6.043,18.854,6.018,18.866,5.993,18.877L5.993,18.877z M8.49,20.345c-0.083,0.181-0.406,0.302-0.585,0.203
				c-0.008-0.004-0.016-0.007-0.025-0.008c-0.007-0.003-0.014-0.007-0.021-0.007c0.061-0.097,0.093-0.204,0.068-0.317
				c-0.006-0.025-0.025-0.042-0.052-0.038c-0.024,0.003-0.044,0.026-0.04,0.053c0.015,0.064,0.009,0.123-0.016,0.186
				c-0.024,0.062-0.069,0.118-0.115,0.169c-0.094,0.104-0.212,0.19-0.319,0.281c-0.044,0.04,0.013,0.11,0.059,0.073
				c0.115-0.103,0.237-0.19,0.339-0.306c0.005-0.004,0.008-0.009,0.012-0.013c0.002,0.006,0.005,0.013,0.011,0.019
				c0.035,0.032,0.05,0.073,0.065,0.117c0,0.002,0.002,0.004,0.003,0.004c0.071,0.309,0.04,0.57-0.25,0.746
				c-0.389,0.237-0.716-0.013-0.976-0.295c-0.055-0.061-0.141,0.027-0.089,0.087c0.085,0.093,0.175,0.178,0.271,0.25
				c-0.024,0.027-0.048,0.053-0.074,0.077c-0.01,0.01-0.021,0.019-0.031,0.026c-0.005,0.004-0.009,0.007-0.015,0.013
				c-0.17,0.107-0.418,0.103-0.595,0.021c-0.23-0.105-0.24-0.487-0.227-0.703c0.004-0.08-0.12-0.08-0.124,0c0,0.009,0,0.017,0,0.023
				c-0.018,0.078-0.03,0.157-0.063,0.232c-0.184,0.08-0.309,0.044-0.371-0.104c-0.035-0.06-0.064-0.12-0.088-0.184
				c-0.101-0.24-0.035-0.472,0.114-0.675c0.002-0.003,0.003-0.007,0.004-0.009c0.149-0.243,0.104-0.435,0.183-0.74
				c0.191-0.764,1.297-0.815,1.925-0.571c0.005,0.006,0.01,0.013,0.016,0.016c0.045,0.031,0.107,0.065,0.162,0.082
				c0.056,0.015,0.109,0.011,0.166,0.007c0.339,0.058,0.568,0.345,0.693,0.661C8.585,19.927,8.583,20.146,8.49,20.345z"/>
			<path fill="#010101" d="M7.293,19.598c-0.159-0.1-0.361-0.192-0.423-0.383c-0.006-0.021-0.035-0.028-0.053-0.02
				c-0.021,0.01-0.026,0.031-0.021,0.052c0.066,0.205,0.278,0.311,0.45,0.415C7.291,19.688,7.337,19.624,7.293,19.598z"/>
			<path fill="#010101" d="M6.574,19.225c-0.026,0.22-0.03,0.438-0.011,0.656c0.004,0.053,0.082,0.038,0.079-0.013
				c-0.02-0.212-0.015-0.424,0.011-0.636C6.658,19.182,6.582,19.175,6.574,19.225z"/>
			<path fill="#010101" d="M6.3,19.262c-0.028,0.076-0.061,0.151-0.114,0.212c-0.051,0.06-0.125,0.087-0.201,0.088
				c-0.021,0-0.042,0.014-0.043,0.036c-0.002,0.02,0.014,0.044,0.035,0.044c0.099-0.004,0.191-0.031,0.26-0.104
				c0.066-0.069,0.104-0.157,0.138-0.247C6.392,19.244,6.319,19.215,6.3,19.262z"/>
		</g>
		<path fill="#010101" d="M16.206,24.134L16.206,24.134c-0.051,0-0.1-0.008-0.143-0.022c-0.464-0.169-1.015-0.433-1.152-0.966
			c-0.15-0.588,0.242-1.051,0.59-1.461c0.061-0.071,0.119-0.142,0.175-0.211c0.042-0.058,0.078-0.109,0.105-0.16
			c-0.047-0.013-0.11-0.028-0.183-0.04c-0.093-0.012-0.189-0.016-0.288-0.021l-0.038-0.002c-0.246-0.015-0.499-0.03-0.738-0.103
			c-0.108-0.033-0.267-0.088-0.399-0.183c-0.132-0.095-0.297-0.227-0.393-0.412c-0.104-0.204-0.15-0.396-0.139-0.569
			c0.015-0.193,0.062-0.364,0.154-0.547c0.095-0.191,0.231-0.358,0.363-0.521l0.081-0.102c0.079-0.105,0.139-0.207,0.187-0.305
			c0-0.002,0-0.006,0.004-0.01c-0.171-0.057-0.357-0.085-0.538-0.116c-0.147-0.023-0.301-0.049-0.448-0.088
			c-0.427-0.117-0.728-0.316-0.893-0.596c-0.211-0.358-0.196-0.849,0.039-1.282c0.176-0.326,0.454-0.576,0.703-0.778
			c0.051-0.041,0.101-0.079,0.153-0.121c0.103-0.078,0.207-0.158,0.301-0.247c-0.127-0.077-0.263-0.14-0.395-0.196
			c-0.089-0.037-0.181-0.071-0.271-0.105c-0.239-0.089-0.487-0.184-0.711-0.32c-0.25-0.152-0.421-0.315-0.518-0.494
			c-0.155-0.284-0.161-0.597-0.017-0.884c0.091-0.18,0.272-0.347,0.5-0.46c0.192-0.095,0.408-0.171,0.638-0.226
			c0.325-0.077,0.658-0.121,0.982-0.162l0.142-0.019c0.042-0.005,0.084-0.011,0.125-0.02c0.167-0.034,0.296-0.015,0.417,0.055
			c0.123,0.072,0.214,0.191,0.25,0.328c0.04,0.144,0.014,0.311-0.07,0.445c-0.075,0.121-0.186,0.202-0.315,0.226
			c-0.149,0.03-0.3,0.048-0.448,0.065c-0.054,0.008-0.108,0.014-0.163,0.021c-0.308,0.042-0.633,0.093-0.936,0.203
			c0.074,0.043,0.16,0.085,0.264,0.132l0.082,0.033c0.055,0.021,0.11,0.042,0.167,0.063c0.125,0.048,0.257,0.098,0.384,0.154
			l0.058,0.026c0.169,0.074,0.341,0.15,0.494,0.259c0.18,0.125,0.356,0.267,0.44,0.462c0.058,0.131,0.1,0.244,0.096,0.391
			c-0.006,0.158-0.043,0.256-0.099,0.385c-0.065,0.15-0.184,0.275-0.278,0.368c-0.102,0.099-0.211,0.186-0.318,0.27l-0.047,0.039
			c-0.202,0.161-0.413,0.328-0.578,0.527c-0.036,0.05-0.069,0.104-0.095,0.159c-0.01,0.026-0.02,0.061-0.027,0.095
			c0,0.012,0,0.034,0,0.055l0.01,0.007c0.02,0.012,0.048,0.028,0.08,0.042c0.177,0.066,0.38,0.1,0.575,0.134l0.063,0.011
			c0.106,0.019,0.214,0.038,0.319,0.06c0.132,0.03,0.262,0.073,0.421,0.141c0.362,0.154,0.604,0.523,0.586,0.896
			c-0.011,0.212-0.073,0.423-0.196,0.664c-0.096,0.187-0.227,0.351-0.356,0.511l-0.082,0.102c-0.076,0.103-0.128,0.184-0.168,0.265
			c-0.002,0.009-0.007,0.023-0.012,0.04l0.002,0.004c0.008,0.01,0.02,0.019,0.027,0.028c0.016,0.008,0.04,0.021,0.064,0.034
			c0.063,0.021,0.139,0.04,0.225,0.055c0.105,0.012,0.215,0.018,0.323,0.022c0.229,0.014,0.47,0.026,0.699,0.093
			c0.408,0.118,0.706,0.39,0.824,0.743c0.099,0.295,0.021,0.653-0.212,0.988c-0.105,0.148-0.223,0.288-0.338,0.426
			c-0.065,0.075-0.128,0.151-0.19,0.229c-0.061,0.082-0.106,0.153-0.143,0.222c0.009,0.009,0.016,0.016,0.025,0.022
			c0.068,0.048,0.157,0.096,0.263,0.144c0.03,0.013,0.063,0.023,0.094,0.035c0.155,0.059,0.255,0.133,0.322,0.25
			c0.074,0.126,0.095,0.279,0.056,0.422c-0.037,0.136-0.128,0.254-0.251,0.324C16.405,24.107,16.302,24.134,16.206,24.134z
			 M14.337,12.488c-0.039,0-0.081,0.004-0.125,0.012c-0.043,0.01-0.087,0.017-0.131,0.022l-0.145,0.019
			c-0.32,0.042-0.651,0.084-0.969,0.16c-0.223,0.051-0.429,0.126-0.611,0.218c-0.206,0.102-0.367,0.249-0.447,0.407
			c-0.126,0.25-0.123,0.525,0.013,0.775c0.089,0.162,0.245,0.309,0.477,0.449c0.216,0.132,0.457,0.223,0.691,0.311
			c0.093,0.036,0.184,0.069,0.275,0.106c0.158,0.068,0.324,0.145,0.476,0.247l0.061,0.038l-0.05,0.051
			c-0.111,0.115-0.241,0.214-0.366,0.31c-0.05,0.041-0.101,0.079-0.15,0.118c-0.239,0.195-0.507,0.435-0.674,0.741
			c-0.167,0.31-0.267,0.781-0.04,1.168c0.149,0.252,0.424,0.433,0.821,0.542c0.142,0.038,0.292,0.063,0.437,0.085
			c0.204,0.033,0.412,0.065,0.608,0.138L14.5,18.41l0.04,0.023l-0.012,0.044c-0.008,0.025-0.016,0.052-0.025,0.078
			c-0.052,0.109-0.117,0.215-0.202,0.329l-0.082,0.103c-0.128,0.157-0.259,0.32-0.35,0.501c-0.084,0.17-0.128,0.324-0.142,0.501
			c-0.01,0.152,0.033,0.324,0.126,0.508c0.084,0.165,0.235,0.286,0.356,0.371c0.116,0.085,0.264,0.136,0.364,0.166
			c0.225,0.067,0.473,0.084,0.709,0.097l0.038,0.004c0.1,0.006,0.2,0.012,0.298,0.022c0.082,0.012,0.151,0.03,0.214,0.053
			c0.025,0.012,0.043,0.021,0.061,0.032l0.036,0.031l-0.014,0.047c-0.037,0.07-0.082,0.144-0.145,0.227
			c-0.057,0.07-0.118,0.143-0.18,0.214c-0.345,0.407-0.701,0.826-0.564,1.354c0.124,0.483,0.641,0.727,1.078,0.888
			c0.089,0.032,0.227,0.013,0.326-0.044c0.094-0.058,0.167-0.149,0.196-0.258c0.031-0.109,0.015-0.229-0.043-0.33
			c-0.053-0.092-0.131-0.15-0.261-0.198c-0.032-0.012-0.066-0.024-0.099-0.037c-0.115-0.052-0.208-0.104-0.29-0.157
			c-0.024-0.021-0.042-0.041-0.061-0.059l-0.022-0.024l0.009-0.031c0.002-0.015,0.008-0.026,0.012-0.04
			c0.042-0.085,0.093-0.164,0.162-0.257c0.063-0.081,0.127-0.155,0.194-0.232c0.112-0.136,0.229-0.273,0.332-0.419
			c0.101-0.145,0.32-0.517,0.197-0.885c-0.105-0.313-0.377-0.559-0.746-0.666c-0.216-0.063-0.447-0.075-0.671-0.088
			c-0.112-0.007-0.222-0.011-0.332-0.024c-0.098-0.016-0.179-0.036-0.254-0.062c-0.037-0.018-0.063-0.035-0.09-0.051
			c-0.022-0.02-0.037-0.034-0.049-0.048l-0.02-0.033l-0.007-0.036v-0.017c0.007-0.033,0.013-0.057,0.021-0.078
			c0.046-0.094,0.103-0.181,0.184-0.29l0.083-0.103c0.125-0.153,0.252-0.312,0.342-0.488c0.116-0.229,0.172-0.42,0.184-0.616
			c0.017-0.326-0.195-0.647-0.514-0.783c-0.152-0.063-0.275-0.106-0.399-0.133c-0.104-0.022-0.209-0.042-0.314-0.059l-0.064-0.011
			c-0.199-0.036-0.407-0.069-0.6-0.143c-0.04-0.019-0.073-0.038-0.104-0.058l-0.047-0.057l-0.005-0.023
			c-0.003-0.038-0.001-0.063,0-0.089c0.008-0.049,0.021-0.087,0.034-0.126c0.032-0.066,0.068-0.126,0.109-0.186
			c0.177-0.212,0.392-0.38,0.6-0.546l0.047-0.038c0.104-0.082,0.212-0.168,0.309-0.264c0.089-0.084,0.196-0.199,0.253-0.331
			c0.057-0.131,0.084-0.208,0.089-0.342c0.003-0.123-0.034-0.218-0.085-0.339c-0.072-0.167-0.234-0.297-0.4-0.413
			c-0.144-0.1-0.311-0.177-0.471-0.249l-0.06-0.025c-0.124-0.057-0.252-0.104-0.377-0.15c-0.056-0.022-0.111-0.042-0.167-0.065
			l-0.085-0.034c-0.159-0.069-0.273-0.13-0.376-0.2l-0.082-0.056l0.085-0.045c0.019-0.011,0.04-0.021,0.059-0.03
			c0.333-0.127,0.684-0.184,1.017-0.229c0.055-0.007,0.108-0.013,0.163-0.02c0.145-0.018,0.295-0.036,0.44-0.064
			c0.095-0.018,0.18-0.081,0.237-0.173c0.066-0.107,0.088-0.24,0.058-0.353c-0.031-0.106-0.102-0.2-0.197-0.255
			C14.482,12.506,14.414,12.488,14.337,12.488z"/>
	</g>
</g>
<g>
	<path fill="#010101" d="M21.929,3.253v-1.67c0-0.052-0.065-0.129-0.065-0.129h0.521c0.629,0,1.064,0.268,1.064,0.962
		c0,0.575-0.328,0.967-0.927,0.967h-0.658C21.863,3.383,21.929,3.307,21.929,3.253z M22.128,1.639v1.561h0.343
		c0.493,0,0.776-0.268,0.776-0.783c0-0.518-0.283-0.778-0.852-0.778H22.128z"/>
	<path fill="#010101" d="M24.599,1.41c0.147,0,0.287,0.033,0.42,0.1c0.045,0.022,0.073,0.033,0.094,0.033
		c0.017,0,0.061-0.025,0.061-0.025v0.306c-0.165-0.146-0.339-0.229-0.562-0.229c-0.208,0-0.394,0.075-0.551,0.221
		c-0.172,0.16-0.229,0.373-0.233,0.602c0.004,0.458,0.308,0.827,0.784,0.827c0.224,0,0.396-0.082,0.562-0.229v0.307
		c0,0-0.044-0.026-0.061-0.026c-0.021,0-0.049,0.011-0.094,0.034c-0.133,0.065-0.271,0.099-0.42,0.099
		c-0.57,0-0.979-0.441-0.979-1.003C23.619,1.855,24.021,1.41,24.599,1.41z"/>
	<path fill="#010101" d="M26.291,2.666c0,0,0.012,0.311,0.213,0.482c0.076,0.066,0.177,0.091,0.285,0.091
		c0.291,0,0.497-0.207,0.497-0.496c0-0.336-0.276-0.555-0.598-0.555c-0.041,0-0.132,0.003-0.132,0.003l0.463-0.552h-0.55
		c-0.07,0-0.16,0.078-0.16,0.078V1.454h1.092l-0.509,0.598c0.349,0.049,0.592,0.342,0.592,0.692c0,0.402-0.295,0.681-0.695,0.681
		c-0.298,0-0.583-0.18-0.583-0.502C26.206,2.821,26.233,2.732,26.291,2.666z"/>
	<path fill="#010101" d="M27.994,1.434v1.82c0,0.053,0.064,0.129,0.064,0.129h-0.333c0,0,0.066-0.077,0.066-0.129V1.708
		c0-0.057-0.153-0.08-0.153-0.08L27.994,1.434z"/>
	<path fill="#010101" d="M22.205,6.688l0.614-0.802c0.126-0.165,0.314-0.417,0.314-0.633c0-0.204-0.145-0.351-0.349-0.351
		c-0.199,0-0.348,0.132-0.348,0.333c0,0.074,0.02,0.137,0.057,0.19c0,0-0.233,0-0.241-0.215c-0.01-0.151,0.052-0.27,0.156-0.358
		c0.102-0.091,0.229-0.135,0.382-0.135c0.306,0,0.542,0.223,0.542,0.536c0,0.106-0.026,0.212-0.08,0.319
		c-0.056,0.106-0.145,0.24-0.26,0.397l-0.396,0.531h0.574c0.092,0,0.111-0.004,0.18-0.069v0.256H22.205L22.205,6.688z"/>
	<path fill="#010101" d="M23.544,5.725c0-0.279,0.069-0.519,0.21-0.714c0.142-0.196,0.311-0.295,0.51-0.295
		c0.201,0,0.372,0.1,0.514,0.295c0.142,0.195,0.209,0.435,0.209,0.714c0,0.278-0.067,0.517-0.209,0.714
		c-0.142,0.195-0.312,0.295-0.514,0.295c-0.199,0-0.368-0.1-0.51-0.295C23.613,6.243,23.544,6.003,23.544,5.725z M24.264,6.549
		c0.383,0,0.521-0.523,0.521-0.824c0-0.301-0.139-0.824-0.521-0.824c-0.381,0-0.518,0.523-0.518,0.824
		C23.745,6.024,23.883,6.549,24.264,6.549z"/>
	<path fill="#010101" d="M25.135,6.688l0.614-0.802c0.126-0.165,0.315-0.417,0.315-0.633c0-0.204-0.146-0.351-0.35-0.351
		c-0.197,0-0.349,0.132-0.349,0.333c0,0.074,0.021,0.137,0.06,0.19c0,0-0.234,0-0.243-0.215c-0.01-0.151,0.053-0.27,0.158-0.358
		c0.103-0.091,0.228-0.135,0.38-0.135c0.306,0,0.543,0.223,0.543,0.536c0,0.106-0.028,0.212-0.079,0.319
		c-0.058,0.106-0.144,0.24-0.26,0.397l-0.397,0.531h0.577c0.09,0,0.108-0.004,0.179-0.069v0.256H25.135L25.135,6.688z"/>
	<path fill="#010101" d="M26.545,5.973c0,0,0.012,0.312,0.213,0.481c0.076,0.067,0.177,0.092,0.286,0.092
		c0.29,0,0.495-0.208,0.495-0.497c0-0.335-0.274-0.554-0.599-0.554c-0.04,0-0.131,0.002-0.131,0.002l0.463-0.551h-0.549
		c-0.07,0-0.161,0.077-0.161,0.077V4.76h1.093l-0.51,0.598c0.35,0.049,0.593,0.342,0.593,0.691c0,0.403-0.296,0.681-0.695,0.681
		c-0.299,0-0.583-0.179-0.583-0.502C26.46,6.127,26.487,6.04,26.545,5.973z"/>
</g>
</svg>
