<?xml version="1.0" encoding="utf-8"?>
<!-- Generator: Adobe Illustrator 16.0.0, SVG Export Plug-In . SVG Version: 6.00 Build 0)  -->
<!DOCTYPE svg PUBLIC "-//W3C//DTD SVG 1.1//EN" "http://www.w3.org/Graphics/SVG/1.1/DTD/svg11.dtd">
<svg version="1.1" id="Black" xmlns="http://www.w3.org/2000/svg" xmlns:xlink="http://www.w3.org/1999/xlink" x="0px" y="0px"
	 width="273.6px" height="273.6px" viewBox="0 0 273.6 273.6" enable-background="new 0 0 273.6 273.6" xml:space="preserve">
<path d="M138.721,140.763c0.072,0.026,0.183,0.01,0.261-0.036c0.077-0.045,0.135-0.119,0.158-0.205
	c0.024-0.089,0.012-0.185-0.035-0.264c-0.043-0.074-0.105-0.121-0.208-0.159c-0.026-0.01-0.054-0.02-0.08-0.03
	c-0.092-0.041-0.167-0.082-0.231-0.127c-0.021-0.017-0.035-0.031-0.049-0.046l-0.019-0.02l0.007-0.025
	c0.003-0.011,0.006-0.021,0.01-0.031c0.033-0.068,0.073-0.131,0.128-0.205c0.052-0.064,0.104-0.126,0.155-0.188
	c0.091-0.107,0.184-0.218,0.266-0.335c0.08-0.114,0.256-0.413,0.158-0.707c-0.084-0.252-0.302-0.446-0.598-0.532
	c-0.172-0.051-0.358-0.061-0.538-0.071c-0.089-0.005-0.178-0.01-0.265-0.019c-0.078-0.013-0.144-0.029-0.205-0.05
	c-0.028-0.014-0.05-0.026-0.072-0.04c-0.018-0.016-0.028-0.026-0.039-0.037l-0.016-0.027l-0.006-0.029v-0.013
	c0.006-0.027,0.011-0.044,0.017-0.062c0.037-0.076,0.082-0.146,0.147-0.232l0.066-0.083c0.1-0.123,0.202-0.25,0.273-0.391
	c0.094-0.183,0.139-0.335,0.147-0.493c0.013-0.26-0.157-0.517-0.412-0.625c-0.122-0.052-0.221-0.085-0.319-0.107
	c-0.083-0.019-0.168-0.033-0.252-0.047l-0.051-0.009c-0.16-0.028-0.325-0.056-0.48-0.114c-0.032-0.015-0.059-0.03-0.084-0.046
	l-0.037-0.046l-0.005-0.018c-0.002-0.03-0.002-0.051,0-0.072c0.007-0.039,0.017-0.07,0.027-0.101
	c0.026-0.053,0.055-0.101,0.088-0.148c0.142-0.17,0.313-0.306,0.48-0.438l0.038-0.03c0.083-0.066,0.17-0.135,0.248-0.21
	c0.07-0.068,0.157-0.16,0.202-0.264c0.045-0.105,0.067-0.167,0.071-0.274c0.003-0.098-0.026-0.175-0.068-0.272
	c-0.058-0.134-0.188-0.238-0.319-0.33c-0.116-0.081-0.25-0.141-0.378-0.199l-0.046-0.021c-0.099-0.045-0.202-0.083-0.302-0.122
	c-0.044-0.017-0.089-0.034-0.134-0.051l-0.068-0.027c-0.127-0.056-0.22-0.105-0.302-0.16l-0.065-0.044l0.069-0.037
	c0.016-0.008,0.031-0.016,0.047-0.023c0.266-0.103,0.548-0.146,0.813-0.183c0.044-0.005,0.087-0.011,0.131-0.016
	c0.116-0.014,0.236-0.028,0.352-0.051c0.077-0.015,0.145-0.064,0.191-0.139c0.053-0.086,0.07-0.191,0.045-0.282
	c-0.023-0.085-0.081-0.16-0.158-0.205c-0.051-0.03-0.106-0.044-0.168-0.044c-0.031,0-0.063,0.003-0.1,0.011
	c-0.035,0.007-0.07,0.012-0.106,0.017l-0.114,0.015c-0.257,0.033-0.522,0.067-0.777,0.128c-0.178,0.042-0.343,0.101-0.49,0.174
	c-0.163,0.081-0.293,0.2-0.357,0.326c-0.101,0.201-0.097,0.421,0.012,0.62c0.071,0.129,0.195,0.247,0.381,0.36
	c0.172,0.105,0.366,0.178,0.553,0.249c0.074,0.028,0.147,0.056,0.22,0.085c0.127,0.055,0.26,0.116,0.381,0.197l0.047,0.031
	l-0.04,0.041c-0.09,0.092-0.193,0.171-0.293,0.248c-0.041,0.031-0.081,0.063-0.12,0.094c-0.192,0.156-0.406,0.348-0.54,0.594
	c-0.135,0.249-0.214,0.625-0.032,0.935c0.119,0.202,0.34,0.348,0.657,0.433c0.113,0.031,0.233,0.05,0.349,0.069
	c0.162,0.026,0.329,0.053,0.486,0.11l0.01,0.005l0.033,0.018l-0.01,0.036c-0.006,0.021-0.013,0.042-0.02,0.062
	c-0.042,0.088-0.094,0.173-0.162,0.264l-0.066,0.082c-0.102,0.126-0.208,0.256-0.28,0.4c-0.068,0.136-0.103,0.26-0.113,0.402
	c-0.009,0.122,0.025,0.258,0.101,0.405c0.068,0.131,0.188,0.228,0.286,0.298c0.094,0.066,0.211,0.107,0.292,0.132
	c0.18,0.055,0.378,0.066,0.568,0.078l0.03,0.002c0.079,0.004,0.158,0.009,0.237,0.018c0.065,0.011,0.121,0.024,0.171,0.041
	c0.021,0.011,0.035,0.019,0.049,0.027l0.03,0.023l-0.013,0.038c-0.028,0.057-0.064,0.114-0.115,0.182
	c-0.046,0.058-0.094,0.114-0.144,0.172c-0.275,0.325-0.561,0.661-0.452,1.084C137.957,140.438,138.371,140.635,138.721,140.763z"/>
<path d="M138.155,142.948c-0.034-0.02-0.067-0.04-0.1-0.062c-0.004-0.003-0.009-0.005-0.013-0.008
	c-0.076-0.05-0.15-0.105-0.221-0.165l-0.276-0.307l-0.088-0.098c-0.702-0.9-1.291-1.968-1.804-3.264
	c-0.459-1.162-0.829-2.465-1.163-4.101c-0.068-0.333-0.128-0.664-0.181-0.991c-0.15-0.921-0.243-1.814-0.275-2.667
	c-0.009-0.231-0.009-0.47-0.007-0.712c0.005-0.476,0.03-0.97,0.08-1.479c0.019-0.195,0.045-0.387,0.074-0.576
	c0.018-0.116,0.037-0.231,0.059-0.345c0.042-0.22,0.089-0.436,0.144-0.643c0.096-0.358,0.202-0.702,0.316-1.028
	c0.118-0.336,0.246-0.655,0.383-0.953c0.078-0.168,0.161-0.333,0.248-0.496c0.002-0.004,0.004-0.007,0.006-0.011
	c0.041-0.077,0.083-0.152,0.125-0.228c0.008-0.014,0.017-0.027,0.024-0.042c0.037-0.064,0.075-0.129,0.113-0.192
	c0.011-0.018,0.022-0.036,0.033-0.054c0.036-0.059,0.071-0.118,0.107-0.175c0.014-0.022,0.027-0.043,0.041-0.065
	c0.033-0.053,0.067-0.107,0.101-0.159c0.019-0.03,0.038-0.06,0.057-0.089c0.028-0.042,0.055-0.084,0.083-0.126
	c0.041-0.063,0.083-0.126,0.124-0.188c0.001,0,0.001-0.001,0.002-0.002c-0.147-0.033-0.298-0.05-0.451-0.05
	c-0.304,0-0.607,0.068-0.878,0.196l-0.452,0.292c-0.265,0.227-0.466,0.513-0.592,0.847c-0.26,0.503-0.463,1.046-0.605,1.621
	c-0.206,0.831-0.323,1.523-0.369,2.18c-0.035,0.508-0.041,1.056-0.017,1.724c0.03,0.844,0.072,1.625,0.128,2.386
	c0.106,1.439,0.261,2.712,0.474,3.892c0.118,0.652,0.259,1.294,0.421,1.906c0.08,0.305,0.171,0.617,0.27,0.931l0.059,0.186
	c0.124,0.397,0.252,0.808,0.42,1.194c0.22,0.506,0.533,1.033,0.958,1.611c0.28,0.381,0.816,0.66,1.366,0.713
	c0.063,0.006,0.127,0.01,0.191,0.01l0,0c0.418,0,0.832-0.13,1.174-0.367c-0.02-0.01-0.038-0.021-0.057-0.031
	C138.175,142.959,138.164,142.953,138.155,142.948z"/>
<path d="M134.655,149.032c0.005,0.007,0.011,0.014,0.017,0.021c0.036,0.05,0.002,0.097-0.044,0.109
	c-0.04,0.016-0.093,0.005-0.112-0.047c-0.002-0.005-0.004-0.012-0.006-0.018c-0.293-0.365-1.045-0.721-1.482-0.552
	c-0.573,0.224-0.911,0.812-0.725,1.402c0.676-0.173,1.361-0.209,2.055-0.268c0.606-0.051,1.4-0.069,1.981-0.304
	c-0.011-0.191-0.231-0.385-0.434-0.486c-0.063-0.032-0.124-0.054-0.177-0.064c-0.367-0.077-0.74,0.019-1.091,0.131
	C134.644,148.983,134.649,149.008,134.655,149.032z"/>
<path d="M144.513,144.611c-0.21,0.041-0.577,0.23-0.631,0.471c0.597,0.322,1.449,0.439,2.104,0.564
	c0.625,0.118,1.243,0.24,1.839,0.469c0.244-0.557-0.028-1.389-0.689-1.522c-0.437-0.089-1.076,0.105-1.405,0.429
	c-0.004,0.008-0.008,0.015-0.012,0.021c-0.018,0.035-0.049,0.044-0.078,0.038c-0.059-0.003-0.108-0.079-0.057-0.135
	c0.005-0.007,0.012-0.013,0.018-0.018c0.008-0.02,0.019-0.04,0.029-0.062C145.299,144.716,144.884,144.539,144.513,144.611z"/>
<path d="M139.779,130.731c0.098-1.324,0.333-2.712,0.719-4.246c0.121-0.484-0.007-1.094-0.325-1.556
	c-0.074-0.107-0.159-0.207-0.253-0.298c0.004,0.015,0.006,0.03,0.008,0.045c0.004,0.018,0.007,0.036,0.01,0.055
	c0.01,0.055,0.017,0.111,0.021,0.167c0,0.005,0.002,0.011,0.002,0.017c0.013,0.172,0.004,0.34-0.022,0.505
	c-0.004,0.021-0.006,0.041-0.01,0.062c-0.003,0.011-0.006,0.022-0.008,0.034c-0.008,0.035-0.015,0.069-0.023,0.104
	c-0.036,0.137-0.085,0.271-0.148,0.401l-0.038,0.058l-0.01,0.016c-0.371,0.568-0.679,1.154-0.918,1.747
	c-0.03,0.077-0.061,0.153-0.089,0.229c0,0.002-0.001,0.004-0.002,0.006c-0.185,0.616-0.308,1.274-0.367,1.955
	c0,0.002,0,0.005,0,0.008c-0.002,0.044-0.002,0.089-0.003,0.134c-0.01,0.432,0.004,0.887,0.041,1.396
	c0.014,0.198,0.032,0.403,0.054,0.618c0.078,0.778,0.194,1.556,0.346,2.316c0.053,0.236,0.11,0.469,0.171,0.7
	c0.07,0.272,0.145,0.541,0.224,0.803c0.059,0.194,0.119,0.386,0.182,0.574c0.133,0.397,0.263,0.753,0.394,1.083
	c0.083,0.208,0.166,0.404,0.251,0.592c0.042,0.094,0.085,0.186,0.128,0.275c0.027,0.05,0.059,0.1,0.087,0.149
	c0.115,0.199,0.24,0.397,0.377,0.598c0.131,0.19,0.27,0.382,0.421,0.577c0.032,0.041,0.062,0.086,0.09,0.132
	c0.006,0.01,0.013,0.019,0.019,0.028c0.018,0.03,0.032,0.063,0.049,0.094c0.015,0.029,0.031,0.057,0.044,0.088
	c0.013,0.027,0.022,0.056,0.033,0.084c0.015,0.037,0.029,0.073,0.042,0.111c0.009,0.027,0.015,0.056,0.022,0.084
	c0.012,0.041,0.023,0.081,0.032,0.122c0.006,0.029,0.011,0.059,0.016,0.089c0.007,0.041,0.015,0.082,0.02,0.124
	c0.004,0.031,0.005,0.063,0.008,0.095c0.003,0.041,0.006,0.082,0.007,0.123c0.001,0.033-0.001,0.065-0.002,0.099
	c-0.001,0.04-0.001,0.08-0.004,0.12c-0.003,0.033-0.008,0.066-0.012,0.1c-0.004,0.029-0.005,0.059-0.01,0.087
	c0.078-0.04,0.152-0.085,0.224-0.134c0.437-0.302,0.745-0.772,0.847-1.291l0.032-0.556c-0.028-0.36-0.148-0.7-0.356-1.003
	c-0.236-0.292-0.489-0.611-0.719-0.945c-0.159-0.232-0.314-0.49-0.489-0.813c-0.38-0.783-0.677-1.62-0.882-2.49
	C139.804,133.121,139.728,131.954,139.779,130.731z"/>
<g id="Speech_bubble_copy_2">
	<path d="M141.575,128.581l2.031-1.258c-1.876-0.479-3.08-1.488-3.08-2.59c0-1.587,2.46-2.879,5.483-2.879
		c3.024,0,5.484,1.292,5.484,2.879c0,1.588-2.46,2.879-5.484,2.879c-0.323,0-0.648-0.015-0.965-0.044L141.575,128.581z
		 M146.01,121.964c-2.963,0-5.374,1.242-5.374,2.769c0,1.074,1.226,2.061,3.123,2.515l0.128,0.03l-1.568,0.972l2.716-0.792
		l0.011,0.001c0.316,0.03,0.642,0.044,0.965,0.044c2.964,0,5.374-1.242,5.374-2.77C151.384,123.206,148.974,121.964,146.01,121.964z
		"/>
</g>
<path d="M143.509,124.355l-0.076,0.09h0.563c0.421,0,0.682-0.272,0.682-0.709c0-0.462-0.268-0.706-0.774-0.706h-0.471l0.076,0.09
	c0.016,0.018,0.031,0.043,0.032,0.052v1.129C143.54,124.312,143.524,124.337,143.509,124.355z M143.785,124.21v-0.945h0.126
	c0.355,0,0.521,0.15,0.521,0.471c0,0.31-0.162,0.474-0.471,0.474H143.785z M144.686,123.742c0-0.422,0.308-0.741,0.717-0.741
	c0.107,0,0.211,0.024,0.308,0.073c0.024,0.012,0.035,0.016,0.039,0.016c-0.002-0.001,0.007-0.005,0.014-0.009l0.082-0.046v0.422
	l-0.091-0.081c-0.11-0.098-0.217-0.141-0.345-0.141c-0.126,0-0.239,0.045-0.335,0.134c-0.093,0.086-0.138,0.203-0.142,0.368
	c0.004,0.295,0.2,0.503,0.477,0.503c0.128,0,0.233-0.043,0.345-0.141l0.091-0.081v0.422l-0.082-0.045
	c-0.006-0.004-0.014-0.008-0.02-0.01c0,0.001-0.012,0.005-0.033,0.017c-0.097,0.048-0.2,0.073-0.308,0.073
	C144.993,124.475,144.686,124.16,144.686,123.742z M147.165,123.958c0-0.21-0.176-0.32-0.35-0.32c-0.027,0-0.088,0.002-0.088,0.002
	l-0.123,0.003l0.316-0.376h-0.253c-0.018,0-0.054,0.022-0.072,0.039l-0.091,0.08v-0.354h0.912l-0.364,0.427
	c0.211,0.07,0.356,0.267,0.356,0.5c0,0.298-0.221,0.515-0.525,0.515c-0.223,0-0.449-0.135-0.449-0.394
	c0-0.084,0.024-0.156,0.071-0.209l0.09-0.104l0.006,0.138c0,0.001,0.009,0.188,0.124,0.286c0.038,0.033,0.09,0.049,0.158,0.049
	C147.05,124.239,147.165,124.123,147.165,123.958z M148.277,124.092v0.354h-0.941l0.483-0.631c0.082-0.109,0.201-0.268,0.201-0.396
	c0-0.107-0.074-0.182-0.182-0.182s-0.18,0.068-0.18,0.171c0,0.039,0.009,0.07,0.028,0.096l0.064,0.087h-0.108
	c-0.073,0-0.214-0.041-0.22-0.198c-0.006-0.112,0.038-0.211,0.126-0.286c0.077-0.069,0.176-0.104,0.293-0.104
	c0.24,0,0.422,0.179,0.422,0.416c0,0.08-0.02,0.158-0.06,0.241c-0.037,0.072-0.095,0.16-0.181,0.277l-0.203,0.272h0.28
	c0.049,0,0.049,0,0.084-0.032L148.277,124.092z M144.751,126.414l0.092-0.085v0.354h-0.941l0.483-0.631
	c0.081-0.109,0.201-0.268,0.201-0.396c0-0.107-0.075-0.182-0.183-0.182s-0.18,0.068-0.18,0.17c0,0.039,0.01,0.07,0.028,0.096
	l0.064,0.087h-0.108c-0.073,0-0.213-0.042-0.219-0.198c-0.006-0.112,0.037-0.212,0.126-0.286c0.077-0.069,0.176-0.104,0.292-0.104
	c0.241,0,0.422,0.179,0.422,0.417c0,0.08-0.02,0.158-0.06,0.24c-0.037,0.073-0.094,0.16-0.18,0.277l-0.203,0.272h0.28
	C144.716,126.446,144.716,126.446,144.751,126.414z M145.796,125.46c-0.105-0.147-0.237-0.223-0.391-0.223
	c-0.152,0-0.284,0.075-0.39,0.223c-0.101,0.14-0.152,0.313-0.152,0.515s0.052,0.375,0.152,0.515c0.105,0.147,0.237,0.223,0.39,0.223
	c0.153,0,0.285-0.075,0.391-0.223c0.102-0.14,0.152-0.313,0.152-0.515S145.897,125.601,145.796,125.46z M145.405,126.478
	c-0.222,0-0.296-0.345-0.296-0.502c0-0.157,0.074-0.502,0.296-0.502c0.225,0,0.297,0.338,0.297,0.502
	S145.63,126.478,145.405,126.478z M146.734,126.414l0.092-0.085v0.354h-0.941l0.483-0.631c0.081-0.109,0.201-0.268,0.201-0.396
	c0-0.107-0.075-0.182-0.182-0.182c-0.108,0-0.181,0.068-0.181,0.17c0,0.039,0.01,0.07,0.028,0.096l0.064,0.087h-0.108
	c-0.073,0-0.213-0.042-0.219-0.198c-0.006-0.112,0.037-0.212,0.126-0.286c0.077-0.069,0.176-0.104,0.293-0.104
	c0.24,0,0.422,0.179,0.422,0.417c0,0.08-0.02,0.158-0.06,0.24c-0.037,0.073-0.095,0.16-0.181,0.277l-0.203,0.272h0.28
	C146.699,126.446,146.699,126.446,146.734,126.414z M147.838,126.036v0.061l-0.023,0.213h-0.176v0.23
	c0,0.016,0.006,0.025,0.019,0.035l0.024,0.016v0.084l-0.055,0.008h-0.278v-0.085l0.025-0.023c0.015-0.009,0.02-0.018,0.02-0.034
	v-0.23h-0.509v-0.864c0-0.028-0.02-0.041-0.02-0.041l-0.117-0.074l0.38-0.075v0.821h0.266v-0.64c0-0.013-0.017-0.037-0.025-0.045
	l-0.072-0.072l0.343-0.069v0.827h0.054c0.029,0,0.033-0.008,0.035-0.012l0.016-0.029H147.838z"/>
<g>
	<g>
		<path d="M143.746,127.301c-1.868-0.446-3.165-1.428-3.165-2.568c0-0.285,0.082-0.56,0.233-0.819
			c-0.218,0.306-0.338,0.637-0.338,0.982c0,1.116,1.245,2.081,3.053,2.54L143.746,127.301z"/>
		<path d="M146.01,127.558c-0.331,0-0.655-0.016-0.971-0.045l-2.794,0.815l-0.402,0.249l3.092-0.902
			c0.315,0.029,0.64,0.045,0.971,0.045c2.45,0,4.521-0.844,5.195-2.004C150.334,126.791,148.344,127.558,146.01,127.558z"/>
	</g>
	<g>
		<path d="M146.235,128.334c-0.003-0.017-0.008-0.032-0.012-0.047c0.036-0.008,0.072-0.008,0.107,0
			c0.002,0.006,0.004,0.013,0.006,0.02C146.351,128.372,146.25,128.399,146.235,128.334z"/>
		<path d="M145.425,128.104c0.031-0.023,0.063-0.044,0.096-0.063c0.002,0.001,0.003,0.002,0.006,0.003
			c0.055,0.039,0.002,0.129-0.053,0.09C145.457,128.123,145.44,128.113,145.425,128.104z"/>
		<path d="M145.532,129.125c-0.029,0.06-0.12,0.006-0.09-0.053c0.002-0.003,0.004-0.005,0.005-0.009
			c0.035,0.005,0.067,0.019,0.097,0.04C145.54,129.11,145.536,129.118,145.532,129.125z"/>
		<path d="M145.442,129.072c-0.03,0.059,0.061,0.113,0.09,0.053c0.004-0.007,0.008-0.014,0.012-0.022
			c0.026,0.019,0.049,0.042,0.068,0.069c0.041,0.054-0.05,0.106-0.09,0.052c-0.032-0.045-0.077-0.063-0.133-0.058
			c-0.066,0.006-0.066-0.1,0-0.105c0.021-0.001,0.039-0.001,0.058,0.002C145.446,129.066,145.444,129.068,145.442,129.072z"/>
		<path d="M145.156,129.602c-0.009,0.033-0.018,0.064-0.026,0.098c-0.04-0.027-0.082-0.052-0.125-0.075
			C145.072,129.612,145.127,129.605,145.156,129.602z"/>
		<path d="M146.224,128.287c-0.122-0.397-0.568-0.263-0.809-0.034c-0.188,0.18-0.369,0.396-0.433,0.654
			c-0.032-0.017-0.067-0.024-0.103-0.021c0.068-0.292,0.289-0.592,0.545-0.781c0.016,0.009,0.032,0.019,0.049,0.031
			c0.055,0.04,0.107-0.051,0.053-0.09c-0.003-0.001-0.004-0.002-0.006-0.003c0.029-0.019,0.061-0.036,0.091-0.05
			c0.315-0.151,0.635-0.046,0.72,0.295C146.296,128.279,146.26,128.279,146.224,128.287z"/>
		<path d="M144.976,128.936c-0.014,0.065-0.114,0.037-0.101-0.029c0.001-0.008,0.003-0.014,0.005-0.022
			c0.035-0.003,0.07,0.004,0.103,0.021C144.979,128.916,144.978,128.926,144.976,128.936z"/>
		<path d="M145.057,128.959c0.047,0.048-0.026,0.122-0.074,0.074c-0.034-0.035-0.08-0.061-0.129-0.038
			c-0.061,0.028-0.113-0.062-0.053-0.09c0.026-0.012,0.053-0.02,0.079-0.02c-0.002,0.008-0.004,0.014-0.005,0.022
			c-0.014,0.066,0.087,0.094,0.101,0.029c0.002-0.01,0.004-0.02,0.007-0.03C145.01,128.918,145.033,128.936,145.057,128.959z"/>
		<path d="M144.833,130.667c0.009,0.013,0.017,0.026,0.023,0.04c-0.03,0.019-0.062,0.035-0.094,0.05
			c-0.006-0.012-0.013-0.024-0.021-0.037C144.706,130.663,144.797,130.61,144.833,130.667z"/>
		<path d="M144.592,129.356c0.203,0.053,0.394,0.125,0.569,0.239l-0.005,0.007c-0.029,0.003-0.084,0.011-0.151,0.023
			c-0.139-0.075-0.286-0.127-0.44-0.168C144.498,129.439,144.526,129.338,144.592,129.356z"/>
		<path d="M145.183,129.609c0.046,0.029,0.025,0.091-0.026,0.098c-0.106,0.011-0.878,0.166-0.753,0.307
			c0.044,0.051-0.03,0.125-0.075,0.074c-0.233-0.266,0.364-0.41,0.677-0.463c0.043,0.023,0.085,0.047,0.125,0.075
			c0.009-0.033,0.018-0.065,0.026-0.098l0.005-0.007C145.169,129.599,145.175,129.605,145.183,129.609z"/>
		<path d="M145.521,128.042c-0.033,0.019-0.064,0.04-0.096,0.063c-0.618-0.349-0.904,1.246-1.378,1.187
			c-0.03-0.044-0.055-0.093-0.078-0.145c0.003,0.001,0.006,0.002,0.008,0.004C144.292,129.402,144.827,127.561,145.521,128.042z"/>
		<path d="M143.969,129.146c0.023,0.051,0.048,0.101,0.078,0.145c-0.046-0.004-0.095-0.026-0.144-0.065
			c-0.004-0.002-0.006-0.005-0.008-0.008h-0.001c-0.001-0.004-0.004-0.009-0.006-0.013c-0.001-0.001-0.001-0.003-0.002-0.004v-0.001
			C143.878,129.162,143.929,129.121,143.969,129.146z"/>
		<path d="M144.354,129.461c0.068-0.001,0.068,0.104,0,0.105c-0.246,0.005-0.364-0.137-0.458-0.349
			c0.002,0.003,0.004,0.005,0.008,0.008c0.049,0.039,0.098,0.061,0.144,0.065C144.113,129.393,144.203,129.464,144.354,129.461z"/>
		<path d="M143.889,129.205c0.002,0.004,0.005,0.009,0.006,0.013c-0.005-0.005-0.007-0.011-0.008-0.018
			C143.888,129.201,143.888,129.204,143.889,129.205z"/>
		<path d="M143.581,130.46c0.032-0.037,0.107-0.009,0.088,0.048c-0.005,0.018-0.011,0.035-0.014,0.053
			c-0.011-0.011-0.02-0.022-0.028-0.034C143.61,130.505,143.595,130.482,143.581,130.46z"/>
		<path d="M144.856,130.707c0.18,0.342-0.296,0.518-0.581,0.532c-0.442,0.021-0.861-0.292-0.707-0.759
			c0.004-0.008,0.007-0.014,0.013-0.02c0.014,0.021,0.029,0.045,0.046,0.067c0.009,0.012,0.018,0.023,0.028,0.034
			c-0.083,0.363,0.267,0.604,0.62,0.572c0.2-0.017,0.619-0.112,0.487-0.376C144.795,130.742,144.826,130.726,144.856,130.707z"/>
		<path d="M145.723,129.614c-0.188,0.367-0.47,0.855-0.866,1.093c-0.007-0.013-0.015-0.026-0.023-0.04
			c-0.036-0.057-0.127-0.004-0.091,0.053c0.008,0.013,0.015,0.025,0.021,0.037c-0.107,0.052-0.223,0.084-0.347,0.092
			c-0.29,0.018-0.571-0.058-0.761-0.289c0.003-0.018,0.009-0.035,0.014-0.053c0.02-0.057-0.056-0.084-0.088-0.048
			c-0.176-0.28-0.164-0.578-0.327-0.876c0.036,0.049,0.115,0.011,0.098-0.039c0.225,0.429,0.179,1.255,0.914,1.208
			c0.556-0.035,0.979-0.447,1.227-0.922c0.196-0.378,0.4-0.645,0.75-0.894c0.127-0.09,0.355-0.325,0.18-0.463
			c-0.383-0.3-0.742,0.36-0.878,0.627c-0.029-0.021-0.062-0.034-0.097-0.04c0.101-0.196,0.46-0.72,0.776-0.776
			c0.004,0.015,0.009,0.031,0.012,0.047c0.015,0.065,0.115,0.038,0.102-0.028c-0.002-0.006-0.004-0.013-0.006-0.02
			c0.079,0.017,0.153,0.071,0.216,0.18c0.069,0.119,0.052,0.283-0.044,0.384C146.249,129.118,145.898,129.266,145.723,129.614z"/>
		<path d="M143.352,129.545c0.018,0.049-0.062,0.088-0.098,0.039c-0.031-0.055,0.045-0.104,0.081-0.065
			c0.003,0.004,0.006,0.008,0.009,0.012S143.35,129.541,143.352,129.545z"/>
		<path d="M143.335,129.519c-0.036-0.039-0.112,0.01-0.081,0.065c-0.097-0.128-0.184-0.292-0.356-0.32
			c-0.025-0.004-0.037-0.021-0.038-0.041c0.019,0.039,0.085,0.045,0.097-0.008c0.004-0.014,0.008-0.029,0.013-0.042
			C143.139,129.222,143.234,129.382,143.335,129.519z"/>
		<path d="M142.969,129.173c-0.005,0.013-0.009,0.028-0.013,0.042c-0.012,0.053-0.078,0.046-0.097,0.008c0-0.001,0-0.001,0-0.002
			c0-0.029,0.026-0.063,0.065-0.058C142.94,129.165,142.954,129.168,142.969,129.173z"/>
		<path d="M143.358,128.79c-0.176,0.067-0.329,0.201-0.39,0.383c-0.015-0.004-0.028-0.008-0.044-0.01
			c-0.039-0.006-0.065,0.028-0.065,0.058c-0.005-0.01-0.007-0.021-0.004-0.033c0.072-0.305,0.361-0.524,0.669-0.514
			c0.271,0.009,0.346,0.258,0.444,0.473c-0.04-0.025-0.091,0.015-0.082,0.053C143.795,128.991,143.678,128.667,143.358,128.79z"/>
	</g>
	<path d="M144.103,131.187c-0.116-0.025-0.224-0.065-0.311-0.12c-0.057,0.226-0.12,0.45-0.192,0.671
		c-0.047,0.142-0.099,0.283-0.155,0.421c-0.116,0.267-0.255,0.526-0.429,0.76c-0.105,0.131-0.222,0.251-0.352,0.357
		c-0.087,0.063-0.18,0.12-0.276,0.166c-0.088,0.033-0.178,0.057-0.27,0.073c-0.118,0.011-0.237,0.009-0.354-0.003
		c-0.208-0.034-0.411-0.097-0.606-0.176c-0.443-0.195-0.852-0.462-1.249-0.738c0.026,0.374,0.066,0.741,0.12,1.098
		c0.06,0.037,0.119,0.076,0.181,0.111c0.258,0.15,0.527,0.28,0.807,0.385c0.268,0.101,0.548,0.163,0.833,0.18
		c0.156,0.01,0.309-0.006,0.463-0.029c0.119-0.017,0.236-0.05,0.348-0.096c0.142-0.059,0.275-0.122,0.401-0.21
		c0.113-0.079,0.224-0.167,0.325-0.261c0.181-0.17,0.336-0.37,0.472-0.577c0.124-0.189,0.228-0.391,0.318-0.598
		c0.206-0.469,0.355-0.957,0.475-1.455c0.004-0.018,0.009-0.036,0.013-0.053C144.485,131.185,144.227,131.215,144.103,131.187z"/>
	<path d="M132.759,132.233c-0.018-0.29-0.034-0.585-0.048-0.887c-1.096-0.156-2.353,0.217-2.823,1.268
		c-0.301,0.673-0.13,1.387,0.141,2.037c0.209,0.502,0.603,1.14,0.632,1.732c0.198-0.193,0.578-0.271,0.835-0.19
		c-0.131-0.851-0.717-1.709-0.897-2.521C130.321,132.41,131.758,132.057,132.759,132.233z"/>
	<g id="XMLID_2_">
		<g>
			<path d="M142.451,139.454c-0.028-0.36-0.147-0.7-0.356-1.003c-0.235-0.293-0.488-0.611-0.718-0.945
				c-0.159-0.232-0.314-0.49-0.489-0.813c-0.379-0.783-0.677-1.62-0.882-2.489c-0.203-1.082-0.278-2.25-0.227-3.472
				c0.099-1.323,0.333-2.711,0.718-4.245c0.122-0.484-0.005-1.095-0.324-1.556c-0.074-0.106-0.159-0.207-0.252-0.298
				c0.02,0.093,0.032,0.188,0.04,0.283c0.027,0.386-0.044,0.758-0.212,1.105l-0.048,0.074c-0.419,0.641-0.758,1.306-1.007,1.976
				c-0.187,0.62-0.312,1.284-0.369,1.97c-0.021,0.638,0.009,1.321,0.092,2.148c0.078,0.778,0.194,1.556,0.346,2.316
				c0.162,0.721,0.356,1.42,0.576,2.077c0.258,0.77,0.503,1.389,0.772,1.951c0.243,0.44,0.534,0.874,0.885,1.324
				c0.311,0.398,0.446,1.013,0.354,1.579c0.078-0.04,0.152-0.085,0.224-0.134c0.437-0.302,0.746-0.772,0.847-1.291L142.451,139.454z
				 M142.18,138.389c0.221,0.321,0.347,0.679,0.377,1.063l-0.032,0.57c-0.108,0.552-0.433,1.047-0.892,1.364
				c-0.104,0.071-0.216,0.136-0.333,0.188l-0.094,0.043l0.022-0.104c0.003-0.013,0.005-0.024,0.007-0.037
				c0.108-0.555-0.018-1.165-0.322-1.556c-0.354-0.455-0.647-0.893-0.895-1.341c-0.272-0.567-0.52-1.191-0.779-1.965
				c-0.221-0.661-0.415-1.364-0.58-2.089c-0.151-0.765-0.269-1.547-0.347-2.327c-0.083-0.833-0.112-1.52-0.092-2.166
				c0.06-0.695,0.186-1.366,0.374-1.996c0.253-0.681,0.596-1.353,1.019-2l0.045-0.068c0.157-0.326,0.225-0.679,0.197-1.046
				c-0.01-0.145-0.037-0.29-0.079-0.43l-0.049-0.166l0.133,0.111c0.153,0.126,0.287,0.272,0.397,0.433
				c0.336,0.485,0.47,1.128,0.342,1.641c-0.384,1.529-0.619,2.911-0.717,4.227c-0.05,1.213,0.024,2.372,0.226,3.444
				c0.203,0.86,0.497,1.69,0.872,2.464c0.173,0.317,0.325,0.573,0.483,0.802C141.69,137.777,141.941,138.095,142.18,138.389z"/>
		</g>
	</g>
	<g>
		<path d="M136.906,127.322c0.135-0.067,0.239-0.175,0.365-0.256c0.231-0.147,0.493,0.035,0.588,0.247
			c0.021,0.046,0.089,0.006,0.068-0.04c-0.077-0.171-0.219-0.312-0.417-0.327c-0.283-0.022-0.411,0.193-0.644,0.308
			C136.821,127.276,136.86,127.344,136.906,127.322z"/>
		<path d="M135.149,127.168c0.135-0.066,0.239-0.175,0.365-0.255c0.231-0.148,0.493,0.035,0.588,0.247
			c0.021,0.046,0.088,0.006,0.068-0.04c-0.077-0.171-0.219-0.312-0.416-0.327c-0.283-0.021-0.411,0.193-0.645,0.308
			C135.063,127.123,135.104,127.191,135.149,127.168z"/>
		<path d="M136.528,129.957c-0.016-0.047-0.092-0.027-0.076,0.021c0.023,0.07,0.048,0.137,0.075,0.202
			c-0.148,0.133-0.408,0.124-0.569,0.046c-0.014-0.006-0.138-0.097-0.204-0.116c0.027-0.05,0.051-0.102,0.07-0.155
			c0.018-0.048-0.059-0.068-0.076-0.021c-0.069,0.191-0.21,0.388-0.403,0.469c-0.046,0.02-0.025,0.096,0.021,0.076
			c0.034-0.014,0.065-0.032,0.096-0.051c0.061,0.125,0.176,0.242,0.263,0.341c0.096,0.107,0.224,0.214,0.375,0.197
			c0.096-0.011,0.184-0.103,0.214-0.19c0.044-0.13,0.073-0.244,0.165-0.354c0.021-0.025,0.084-0.055,0.121-0.09
			c0.041,0.076,0.089,0.148,0.149,0.216c0.033,0.039,0.089-0.017,0.056-0.055C136.665,130.334,136.594,130.155,136.528,129.957z
			 M135.684,130.438c0.045-0.079,0.111-0.021,0.145,0.033c0.015,0.024,0.042,0.039,0.065,0.054c0.081,0.053,0.207-0.044,0.25,0.082
			c0.014,0.042,0.01,0.085,0.008,0.129c-0.004,0.132-0.195,0.065-0.25,0.037C135.787,130.714,135.659,130.581,135.684,130.438z
			 M136.195,130.911c-0.016,0.013-0.033,0.022-0.053,0.029C136.159,130.932,136.177,130.923,136.195,130.911z"/>
		<path d="M136.844,129.139c-0.234-0.108-0.278,0.257-0.464,0.283c-0.05,0.007-0.029,0.083,0.021,0.076
			c0.138-0.019,0.197-0.169,0.285-0.258c0.031-0.032,0.066-0.045,0.109-0.036c0.094,0.021,0.104,0.116,0.09,0.195
			c-0.026,0.141-0.123,0.188-0.228,0.264c-0.041,0.029-0.001,0.098,0.04,0.068c0.119-0.087,0.212-0.137,0.257-0.286
			C136.992,129.323,136.968,129.196,136.844,129.139z"/>
		<path d="M137.474,127.313c-0.229,0-0.423,0.278-0.498,0.668l0.547,0.313l-0.559,0.325c0.025,0.167,0.072,0.317,0.134,0.437
			c0.114-0.038,0.245-0.06,0.386-0.06c0.133,0,0.259,0.02,0.369,0.055c0.094-0.185,0.152-0.437,0.152-0.716
			C138.005,127.771,137.767,127.313,137.474,127.313z"/>
		<path d="M136.084,129.059c0.092-0.184,0.149-0.434,0.149-0.709c0-0.564-0.238-1.021-0.531-1.021c-0.229,0-0.423,0.278-0.498,0.668
			l0.547,0.313l-0.559,0.325c0.024,0.159,0.067,0.302,0.125,0.418c0.111-0.036,0.239-0.057,0.375-0.057
			C135.835,128.996,135.969,129.019,136.084,129.059z"/>
		<path d="M136.557,131.005c-0.178,0.081-0.365,0.151-0.562,0.157c-0.199,0.006-0.395-0.055-0.581-0.119
			c-0.048-0.017-0.068,0.059-0.021,0.076c0.196,0.068,0.399,0.128,0.608,0.122c0.209-0.006,0.407-0.082,0.595-0.167
			c0.02-0.009,0.024-0.037,0.014-0.054C136.599,130.999,136.576,130.996,136.557,131.005z"/>
		<path d="M135.226,129.431c-0.137,0.029-0.274,0.076-0.381,0.169c-0.114,0.1-0.162,0.245-0.171,0.392
			c-0.003,0.051,0.075,0.05,0.079,0c0.009-0.128,0.051-0.249,0.148-0.336c0.095-0.085,0.225-0.123,0.347-0.149
			C135.296,129.496,135.275,129.42,135.226,129.431z"/>
		<path d="M137.298,129.608c-0.017-0.014-0.039-0.017-0.056,0c-0.014,0.014-0.017,0.042,0,0.055
			c0.171,0.134,0.302,0.316,0.324,0.538c0.005,0.05,0.083,0.05,0.079,0C137.621,129.958,137.487,129.755,137.298,129.608z"/>
	</g>
	<path d="M137.889,124.272c0.074-0.387,0.458-0.521,0.824-0.501c0.051,0.002,0.051-0.076,0-0.079
		c-0.413-0.022-0.819,0.146-0.901,0.571c-0.158-0.253-0.411-0.601-0.012-0.763c0.046-0.019,0.026-0.095-0.021-0.076
		c-0.455,0.185-0.228,0.557-0.044,0.862c-0.238-0.027-0.618-0.1-0.563-0.401c0.009-0.049-0.066-0.071-0.076-0.021
		c-0.07,0.387,0.391,0.475,0.682,0.505c-0.066,0.325-0.376,0.52-0.703,0.482c-0.05-0.006-0.05,0.073,0,0.079
		c0.353,0.041,0.697-0.176,0.775-0.523c0.083,0.079,0.162,0.162,0.224,0.26c0.116,0.187,0.003,0.343-0.15,0.457
		c-0.04,0.03-0.001,0.098,0.04,0.068c0.128-0.095,0.272-0.232,0.236-0.41c-0.036-0.176-0.166-0.313-0.296-0.433
		c0.331-0.047,0.778-0.021,0.767,0.411c-0.002,0.051,0.077,0.051,0.078,0C138.761,124.272,138.27,124.22,137.889,124.272z"/>
	<g>
		<g id="XMLID_1_">
			<g>
				<path d="M145.593,144.093c-0.002,0-0.002,0.001-0.002,0.001c-0.052-0.027-0.108-0.051-0.165-0.07
					C145.484,144.042,145.541,144.064,145.593,144.093z"/>
				<path d="M145.158,143.955c-0.101-0.017-0.21-0.022-0.318-0.016c-0.03,0.001-0.063,0.004-0.092,0.009
					c0.265-0.576,0.679-1.109,0.864-1.746c0.181-0.623,0.307-1.4-0.023-2.003c-0.194-0.354-0.47-0.763-0.904-0.829
					c-0.737-0.111-1.536,0.566-2.125,0.916c-0.046,0.026-0.091,0.053-0.135,0.078c0.041-0.111,0.076-0.226,0.1-0.342l0.032-0.57
					c-0.004-0.051-0.011-0.103-0.019-0.154c0.888-0.568,1.773-1.122,2.757-0.616c0.98,0.503,1.456,1.736,1.329,2.792
					c-0.076,0.632-0.234,1.268-0.548,1.828c-0.141,0.249-0.334,0.514-0.483,0.791c-0.052-0.028-0.108-0.051-0.167-0.069
					c-0.02-0.007-0.038-0.012-0.059-0.019c-0.032-0.01-0.064-0.019-0.097-0.027C145.233,143.968,145.196,143.96,145.158,143.955z"/>
				<path d="M144.748,143.948c0.029-0.005,0.062-0.008,0.092-0.009C144.81,143.941,144.778,143.944,144.748,143.948z"/>
				<path d="M143.889,145.259c0.113,0.269,0.477,0.435,0.862,0.547c0.005-0.003,0.007-0.007,0.013-0.01
					c0.103-0.058,0.216-0.103,0.333-0.06c0.102,0.037,0.177,0.132,0.253,0.204c0.002,0.001,0.003,0.003,0.004,0.005
					c0.143,0.027,0.268,0.049,0.361,0.069c0.478,0.103,1.449,0.463,1.962,0.214c-0.688-0.246-1.401-0.352-2.115-0.507
					C145.034,145.607,144.386,145.502,143.889,145.259z M145.63,144.867c-0.331-0.151-0.746-0.328-1.117-0.256
					c-0.21,0.041-0.577,0.23-0.631,0.471c0.597,0.322,1.449,0.439,2.104,0.564c0.625,0.118,1.243,0.24,1.839,0.469
					c0.244-0.557-0.028-1.389-0.689-1.522c-0.437-0.089-1.076,0.105-1.405,0.429c-0.004,0.008-0.008,0.015-0.012,0.021
					c-0.018,0.035-0.049,0.044-0.078,0.038c-0.059-0.003-0.108-0.079-0.057-0.135c0.005-0.007,0.012-0.013,0.018-0.018
					C145.608,144.909,145.619,144.889,145.63,144.867z M145.229,144.129c-0.25-0.048-0.941-0.07-0.84,0.349
					c0.028-0.008,0.056-0.015,0.082-0.018c0.427-0.062,0.836,0.089,1.22,0.264c0.032-0.094,0.052-0.187,0.027-0.252
					C145.633,144.253,145.444,144.171,145.229,144.129z M145.485,146.121c-0.587-0.148-1.729-0.217-1.791-1.008
					c-0.002-0.032,0.013-0.054,0.034-0.064c0.038-0.213,0.276-0.41,0.508-0.516c-0.083-0.206-0.112-0.343,0.136-0.475
					c0.109-0.059,0.241-0.096,0.376-0.11c0.03-0.004,0.062-0.007,0.092-0.009c0.108-0.007,0.218-0.001,0.318,0.016
					c0.038,0.005,0.075,0.013,0.112,0.022c0.032,0.009,0.064,0.018,0.097,0.027c0.021,0.007,0.039,0.012,0.059,0.019
					c0.057,0.02,0.113,0.043,0.165,0.07c0,0,0-0.001,0.002-0.001c0.131,0.069,0.235,0.171,0.276,0.338
					c0.025,0.103,0.018,0.192-0.006,0.279c0.509-0.336,1.239-0.41,1.723-0.054c0.497,0.365,0.619,1.055,0.355,1.581
					c-0.012,0.024-0.029,0.035-0.049,0.039c-0.247,0.199-0.563,0.182-0.874,0.152C146.511,146.38,145.979,146.247,145.485,146.121z"
					/>
				<path d="M139.791,142.167c-0.003-0.021-0.009-0.042-0.013-0.062c0-0.002-0.002-0.004-0.003-0.006
					c0.006-0.002,0.01-0.005,0.014-0.009s0.009-0.007,0.013-0.012c0.154,0.104,0.41,0.306,0.255,0.483
					c-0.033,0.039-0.089-0.018-0.056-0.055C140.095,142.4,139.91,142.25,139.791,142.167z"/>
				<path d="M139.761,142.052c0.008-0.019,0.013-0.038,0.02-0.057c0.182-0.146,0.423-0.17,0.609-0.003
					c0.037,0.034-0.019,0.09-0.056,0.057c-0.166-0.15-0.378-0.11-0.532,0.03C139.788,142.069,139.773,142.061,139.761,142.052
					L139.761,142.052C139.761,142.052,139.761,142.052,139.761,142.052z"/>
				<path d="M139.765,142.149c0.015-0.016,0.011-0.035-0.001-0.047c0.005,0,0.009-0.001,0.012-0.003
					c0.001,0.002,0.003,0.004,0.003,0.006c0.004,0.02,0.01,0.04,0.013,0.062C139.782,142.16,139.773,142.155,139.765,142.149z"/>
				<path d="M139.775,142.1c-0.004-0.013-0.015-0.02-0.026-0.021c0.004-0.009,0.007-0.017,0.012-0.025h0.001
					c0.012,0.008,0.026,0.017,0.04,0.026c-0.004,0.005-0.009,0.008-0.013,0.012S139.781,142.098,139.775,142.1z"/>
				<path d="M139.743,142.09c0.002-0.004,0.004-0.008,0.006-0.012c0.012,0.002,0.022,0.009,0.026,0.021
					c-0.003,0.002-0.007,0.003-0.012,0.003h-0.001C139.758,142.096,139.751,142.091,139.743,142.09z"/>
				<path d="M139.743,142.09c0.008,0.001,0.015,0.006,0.02,0.013c-0.008,0-0.016-0.003-0.022-0.008
					C139.742,142.094,139.743,142.091,139.743,142.09z"/>
				<polygon points="139.734,142.089 139.743,142.09 139.74,142.095 				"/>
				<path d="M139.731,142.088c0.002,0,0.002,0,0.003,0.001C139.733,142.089,139.733,142.089,139.731,142.088z"/>
				<path d="M139.749,142.078c-0.007-0.001-0.015-0.001-0.022,0.002c-0.005-0.009-0.007-0.019-0.004-0.028
					c0.011-0.007,0.023-0.008,0.038,0c0,0,0,0,0,0.001C139.756,142.062,139.753,142.069,139.749,142.078z"/>
				<path d="M139.743,142.09c-0.003-0.002-0.006-0.002-0.009-0.001c-0.001-0.001-0.001-0.001-0.003-0.001
					c-0.002-0.002-0.003-0.004-0.005-0.008c0.008-0.003,0.016-0.003,0.022-0.002C139.747,142.082,139.745,142.086,139.743,142.09z"
					/>
				<path d="M139.738,142.1c0.001-0.002,0.002-0.003,0.002-0.005c0.007,0.005,0.015,0.008,0.022,0.008h0.001
					c0.012,0.012,0.016,0.031,0.001,0.047c-0.017-0.012-0.031-0.021-0.043-0.028c-0.001-0.001-0.002-0.003-0.003-0.004
					C139.727,142.115,139.734,142.109,139.738,142.1z"/>
				<path d="M139.761,142.052c-0.015-0.008-0.027-0.007-0.038,0c0.002-0.006,0.005-0.011,0.011-0.017
					c0.015-0.014,0.03-0.028,0.047-0.04C139.773,142.014,139.769,142.033,139.761,142.052z"/>
				<rect x="139.722" y="142.08" width="0.007" height="0.009"/>
				<path d="M139.734,142.089c0.001,0.004,0.004,0.005,0.006,0.006c0,0.002-0.001,0.003-0.002,0.005
					c-0.004,0.01-0.012,0.016-0.02,0.018c-0.002,0-0.003-0.002-0.005-0.002v-0.001c0.008-0.008,0.012-0.017,0.011-0.025
					c0.002-0.001,0.005-0.001,0.007-0.001C139.733,142.089,139.733,142.089,139.734,142.089z"/>
				<path d="M139.709,142.095c0.003-0.006,0.009-0.009,0.014-0.013c0.002,0.003,0.002,0.005,0.002,0.007
					C139.719,142.09,139.713,142.093,139.709,142.095z"/>
				<path d="M139.723,142.052c-0.003,0.01-0.001,0.02,0.004,0.028c-0.001,0-0.002,0.001-0.004,0.002
					c-0.001-0.006-0.005-0.012-0.011-0.018h-0.001v-0.001C139.714,142.06,139.719,142.055,139.723,142.052z"/>
				<path d="M139.722,142.121c0.012,0.008,0.026,0.017,0.043,0.028c0,0.002-0.002,0.003-0.003,0.004
					c-0.015,0.014-0.03,0.024-0.046,0.034c-0.004-0.021-0.009-0.042-0.014-0.062c0-0.001,0-0.001,0-0.002
					c0.003,0,0.006-0.002,0.008-0.004c0.003,0,0.007-0.002,0.009-0.003C139.72,142.118,139.721,142.12,139.722,142.121z"/>
				<path d="M139.707,142.097c0-0.001,0.001-0.001,0.002-0.002c0.004-0.002,0.01-0.005,0.016-0.006
					c0.001,0.009-0.003,0.018-0.011,0.025c-0.004-0.005-0.007-0.009-0.009-0.016v-0.001L139.707,142.097z"/>
				<polygon points="139.714,142.115 139.719,142.117 139.71,142.12 				"/>
				<path d="M139.78,141.995c-0.017,0.012-0.032,0.026-0.047,0.04c-0.006,0.006-0.009,0.011-0.011,0.017
					c-0.004,0.003-0.009,0.008-0.012,0.012c-0.009-0.008-0.019-0.016-0.029-0.026c0.048-0.109,0.048-0.237,0.11-0.341
					c0.068-0.111,0.176-0.132,0.296-0.096c0.049,0.016,0.027,0.092-0.021,0.076c-0.14-0.042-0.207,0.024-0.244,0.153
					C139.808,141.884,139.796,141.939,139.78,141.995z"/>
				<path d="M139.704,142.098c-0.002-0.011,0-0.022,0.007-0.033h0.001c0.006,0.006,0.01,0.012,0.011,0.018
					c-0.005,0.004-0.011,0.007-0.014,0.013c-0.001,0.001-0.002,0.001-0.002,0.002L139.704,142.098L139.704,142.098z"/>
				<path d="M139.71,142.12c-0.002,0-0.006,0-0.009-0.002c0-0.007,0.001-0.014,0.004-0.02c0.002,0.007,0.005,0.011,0.009,0.016
					v0.001C139.713,142.117,139.712,142.118,139.71,142.12z"/>
				<polygon points="139.702,142.124 139.701,142.118 139.71,142.12 				"/>
				<path d="M139.687,142.112c0.007-0.005,0.013-0.009,0.018-0.015h0.001v0.001c-0.003,0.006-0.004,0.013-0.004,0.02
					C139.697,142.118,139.691,142.116,139.687,142.112z"/>
				<path d="M139.666,142.126c0.008-0.004,0.015-0.009,0.021-0.014c0.005,0.004,0.011,0.006,0.015,0.006
					c0,0.002,0,0.004,0.001,0.006C139.691,142.132,139.678,142.133,139.666,142.126z"/>
				<path d="M139.687,142.112c-0.016-0.009-0.027-0.03-0.016-0.052c0.004-0.008,0.007-0.016,0.011-0.023
					c0.011,0.011,0.021,0.019,0.029,0.026v0.001c-0.007,0.011-0.009,0.022-0.007,0.033
					C139.699,142.104,139.693,142.107,139.687,142.112z"/>
				<path d="M139.656,142.121c-0.147-0.132-0.335-0.37-0.116-0.526c0.04-0.03,0.08,0.038,0.039,0.067
					c-0.148,0.107-0.001,0.277,0.103,0.375c-0.004,0.008-0.007,0.016-0.011,0.023c-0.012,0.021,0,0.043,0.016,0.052
					c-0.006,0.005-0.013,0.01-0.021,0.014C139.663,142.125,139.659,142.123,139.656,142.121z"/>
				<path d="M139.716,142.188c0.016-0.01,0.031-0.021,0.046-0.034c0.001-0.001,0.003-0.002,0.003-0.004
					c0.009,0.006,0.018,0.011,0.026,0.018c0.019,0.099,0.021,0.207-0.038,0.292c-0.072,0.102-0.21,0.096-0.319,0.076
					c-0.05-0.009-0.028-0.084,0.021-0.075c0.087,0.017,0.209,0.022,0.251-0.074C139.731,142.325,139.728,142.254,139.716,142.188z"
					/>
				<path d="M139.205,142.046c0.12,0.125,0.314,0.174,0.461,0.08c0.012,0.007,0.025,0.006,0.036-0.002c0,0.001,0,0.001,0,0.002
					c0.005,0.02,0.01,0.041,0.014,0.062c-0.181,0.115-0.417,0.07-0.565-0.085C139.115,142.066,139.17,142.01,139.205,142.046z"/>
				<path d="M138.193,142.969c-0.01-0.004-0.02-0.009-0.029-0.016C138.174,142.959,138.184,142.964,138.193,142.969z"/>
				<path d="M138.046,142.881c0.029,0.019,0.058,0.037,0.087,0.054C138.104,142.918,138.075,142.9,138.046,142.881z"/>
				<path d="M136.393,149.357c0.028-0.022,0.076-0.018,0.104,0.01c0.001,0.006,0.001,0.011,0.001,0.016
					c0,0.01-0.001,0.019-0.004,0.026C136.477,149.374,136.438,149.347,136.393,149.357z"/>
				<path d="M136.493,149.41c-0.016,0.056-0.095,0.063-0.132,0.022c0.003-0.01,0.005-0.021,0.008-0.032
					c0.003-0.02,0.013-0.033,0.024-0.043C136.438,149.347,136.477,149.374,136.493,149.41
					C136.493,149.41,136.493,149.41,136.493,149.41z"/>
				<path d="M136.458,149.498c-0.047,0.02-0.097,0.038-0.147,0.056c0.021-0.037,0.038-0.077,0.049-0.121
					c0.037,0.041,0.116,0.033,0.132-0.022C136.506,149.442,136.5,149.479,136.458,149.498z"/>
				<path d="M139.218,123.443c0.43,0.37,0.7,0.905,0.743,1.471c0.027,0.386-0.044,0.758-0.212,1.105l-0.048,0.074
					c-0.419,0.641-0.758,1.306-1.007,1.976c-0.187,0.62-0.312,1.284-0.369,1.97c-0.021,0.638,0.009,1.321,0.092,2.148
					c0.078,0.778,0.194,1.556,0.346,2.316c0.162,0.721,0.356,1.42,0.576,2.077c0.258,0.77,0.503,1.389,0.772,1.951
					c0.243,0.44,0.534,0.874,0.885,1.324c0.321,0.413,0.456,1.058,0.343,1.641c-0.106,0.545-0.432,1.039-0.89,1.357
					c-0.355,0.244-0.791,0.38-1.229,0.38c-0.137,0-0.275-0.013-0.41-0.039c-0.161-0.033-0.314-0.081-0.461-0.148
					c0.009-0.005,0.017-0.012,0.024-0.017l0.069-0.053l-0.079-0.038c0.147,0.068,0.304,0.12,0.467,0.153
					c0.531,0.104,1.114-0.018,1.559-0.325c0.437-0.302,0.745-0.773,0.846-1.291c0.108-0.555-0.018-1.165-0.322-1.556
					c-0.354-0.455-0.647-0.893-0.895-1.341c-0.272-0.567-0.52-1.191-0.779-1.965c-0.221-0.661-0.415-1.364-0.58-2.089
					c-0.151-0.765-0.269-1.546-0.347-2.327c-0.083-0.833-0.112-1.52-0.092-2.166c0.06-0.695,0.186-1.366,0.374-1.996
					c0.253-0.681,0.596-1.353,1.019-2l0.045-0.068c0.157-0.326,0.225-0.679,0.197-1.046c-0.039-0.538-0.297-1.047-0.706-1.399
					c-0.372-0.319-0.847-0.495-1.338-0.495c-0.05,0-0.101,0.001-0.151,0.005l-0.544,0.115c-0.326,0.119-0.611,0.314-0.843,0.579
					l0.056-0.063l-0.083-0.022c-0.01-0.002-0.02-0.005-0.029-0.008c0.242-0.269,0.533-0.464,0.87-0.585l0.558-0.119
					c0.06-0.005,0.114-0.007,0.167-0.007C138.328,122.923,138.827,123.108,139.218,123.443z"/>
				<path d="M136.393,149.357c-0.011,0.01-0.021,0.023-0.024,0.043c-0.002,0.011-0.004,0.022-0.008,0.032
					c-0.011-0.013-0.019-0.029-0.02-0.05c0-0.002,0-0.003-0.001-0.005c0.013-0.005,0.026-0.011,0.04-0.016
					C136.384,149.36,136.388,149.357,136.393,149.357z"/>
				<polygon points="136.273,123.728 136.265,123.735 136.229,123.711 136.229,123.709 				"/>
				<path d="M136.093,123.995c0.027-0.042,0.056-0.085,0.083-0.127C136.15,123.911,136.122,123.953,136.093,123.995z"/>
				<path d="M136.497,149.367c-0.028-0.027-0.076-0.032-0.104-0.01c-0.004,0-0.009,0.003-0.013,0.005
					c-0.013,0.005-0.026,0.011-0.04,0.016c-0.011-0.191-0.231-0.385-0.434-0.486l0.003-0.008c0.034,0.021,0.083,0.02,0.106-0.026
					c0.012-0.021,0.023-0.043,0.034-0.063C136.256,148.925,136.479,149.145,136.497,149.367z"/>
				<path d="M136.015,148.857c-0.024,0.046-0.072,0.048-0.106,0.026c-0.032-0.021-0.051-0.063-0.028-0.105
					c0.011-0.021,0.02-0.04,0.026-0.059c0.045,0.019,0.093,0.045,0.143,0.075C136.038,148.814,136.027,148.836,136.015,148.857z"/>
				<path d="M135.883,143.118c-0.064-0.041-0.124-0.084-0.181-0.13C135.759,143.033,135.819,143.076,135.883,143.118z"/>
				<path d="M135.529,142.826c0.008,0.009,0.016,0.017,0.023,0.023C135.545,142.844,135.537,142.835,135.529,142.826z"/>
				<path d="M135.589,148.147L135.589,148.147c-0.033-0.006-0.067-0.013-0.1-0.017C135.523,148.134,135.556,148.14,135.589,148.147z
					"/>
				<path d="M134.711,148.217c-0.589-1.688-0.897-3.706,0.202-5.258c0.11-0.155,0.238-0.304,0.379-0.443
					c0.043,0.062,0.088,0.124,0.134,0.187c0.016,0.021,0.031,0.04,0.047,0.061c0.012,0.014,0.024,0.028,0.037,0.043
					c0.005,0.007,0.012,0.014,0.019,0.021c0.008,0.009,0.016,0.018,0.023,0.023c0.007,0.008,0.015,0.016,0.023,0.023
					c0.036,0.037,0.076,0.072,0.116,0.106c0.001,0.001,0.002,0.002,0.003,0.003c0.002,0.003,0.004,0.004,0.007,0.006
					c0.057,0.046,0.117,0.089,0.181,0.13c0.002,0.002,0.004,0.004,0.006,0.004c-0.219,0.221-0.398,0.473-0.512,0.728
					c-0.629,1.401-0.29,2.914,0.212,4.298c-0.033-0.008-0.066-0.014-0.1-0.017c-0.004-0.001-0.009-0.003-0.013-0.003
					c-0.011-0.001-0.021-0.002-0.032-0.003c-0.009-0.002-0.017-0.003-0.025-0.003c-0.026-0.003-0.052-0.005-0.078-0.007
					c-0.015-0.001-0.031-0.002-0.046-0.002c-0.031-0.001-0.061-0.003-0.088-0.003c-0.011,0-0.021,0-0.032,0.002
					c-0.012,0-0.023,0-0.035,0.001c-0.022,0-0.044,0.002-0.066,0.004c-0.08,0.007-0.158,0.021-0.231,0.045
					c-0.013,0.005-0.026,0.009-0.039,0.014C134.771,148.188,134.741,148.202,134.711,148.217z"/>
				<path d="M135.227,150.021c0.039,0.063-0.029,0.16-0.101,0.109c-0.053-0.038-0.112-0.079-0.173-0.079v-0.002
					C135.041,150.042,135.132,150.033,135.227,150.021z"/>
				<path d="M136.312,149.554c0.05-0.018,0.1-0.036,0.147-0.056c0.042-0.019,0.048-0.056,0.035-0.088c0,0,0,0,0-0.001
					c0.003-0.008,0.004-0.017,0.004-0.026c0-0.005,0-0.01-0.001-0.016c0.019,0.017,0.03,0.043,0.023,0.075
					c-0.145,0.745-1.255,0.716-1.861,0.778v-0.003c0.012,0,0.026-0.005,0.041-0.015c0.061-0.045,0.117-0.093,0.182-0.132
					c0.024-0.014,0.048-0.02,0.071-0.02c0.062,0,0.121,0.041,0.173,0.079c0.071,0.051,0.139-0.046,0.101-0.109
					C135.674,149.967,136.14,149.852,136.312,149.554z"/>
				<path d="M134.588,148.811c0.401-0.131,0.901-0.266,1.31-0.096c0.003,0.001,0.005,0.002,0.009,0.005
					c-0.006,0.019-0.015,0.038-0.026,0.059c-0.023,0.043-0.003,0.085,0.028,0.105l-0.003,0.008
					c-0.063-0.032-0.124-0.054-0.177-0.064c-0.367-0.077-0.74,0.019-1.091,0.131c-0.009-0.041-0.02-0.084-0.038-0.122
					C134.595,148.827,134.592,148.818,134.588,148.811z"/>
				<path d="M134.628,149.163c0.033-0.014,0.055-0.046,0.04-0.088c-0.004-0.015-0.009-0.029-0.012-0.043
					c0.005,0.007,0.011,0.014,0.017,0.021C134.708,149.104,134.674,149.15,134.628,149.163z"/>
				<path d="M134.655,149.032c-0.016-0.022-0.033-0.043-0.05-0.063c0.011-0.004,0.022-0.008,0.033-0.012
					C134.644,148.983,134.649,149.008,134.655,149.032z"/>
				<path d="M134.615,150.075c0.002-0.004,0.004-0.005,0.007-0.007c0.086-0.063,0.169-0.143,0.277-0.168
					c0.111-0.026,0.218,0.033,0.305,0.096c0.01,0.008,0.018,0.016,0.023,0.025c-0.094,0.012-0.186,0.021-0.274,0.028
					C134.83,150.06,134.715,150.067,134.615,150.075z"/>
				<path d="M134.659,150.218c-0.06,0-0.101-0.094-0.044-0.143c0.1-0.008,0.215-0.016,0.338-0.025v0.002
					c-0.023,0-0.047,0.006-0.071,0.02c-0.065,0.039-0.122,0.087-0.182,0.132C134.685,150.213,134.671,150.218,134.659,150.218z"/>
				<path d="M134.605,148.97c-0.033-0.039-0.067-0.076-0.104-0.108c0.007-0.017,0.023-0.03,0.045-0.038
					c0.014-0.004,0.028-0.009,0.042-0.013c0.003,0.008,0.007,0.017,0.011,0.025c0.019,0.038,0.029,0.081,0.038,0.122
					C134.627,148.962,134.616,148.966,134.605,148.97z"/>
				<path d="M134.501,148.861c0.037,0.032,0.071,0.069,0.104,0.108c-0.005,0.002-0.012,0.003-0.018,0.005
					C134.513,148.999,134.472,148.915,134.501,148.861z"/>
				<path d="M134.537,149.133c0.023,0.033,0.06,0.04,0.091,0.03c-0.04,0.016-0.093,0.005-0.112-0.047
					c-0.002-0.005-0.004-0.012-0.006-0.018C134.52,149.109,134.528,149.122,134.537,149.133z"/>
				<path d="M134.501,148.861c-0.029-0.03-0.06-0.057-0.09-0.082c-0.022-0.121-0.012-0.243,0.074-0.361
					c0.063-0.089,0.14-0.153,0.227-0.201c0.029-0.015,0.06-0.029,0.092-0.041c0.013-0.005,0.026-0.009,0.039-0.014
					c0.074-0.023,0.151-0.038,0.231-0.045c0.022-0.002,0.044-0.004,0.066-0.004c0.012-0.001,0.023-0.001,0.035-0.001
					c0.011-0.002,0.021-0.002,0.032-0.002c0.027,0,0.057,0.002,0.088,0.003c0.015,0,0.031,0.001,0.046,0.002
					c0.025,0.002,0.052,0.004,0.078,0.007c0.009,0,0.017,0.001,0.025,0.003c0.011,0.001,0.021,0.002,0.032,0.003
					c0.004,0,0.009,0.002,0.013,0.003c0.033,0.004,0.067,0.011,0.101,0.018l-0.001-0.001c0.175,0.033,0.348,0.097,0.455,0.208
					c0.165,0.169,0.098,0.279,0.005,0.439c-0.049-0.03-0.098-0.057-0.143-0.075c0.161-0.43-0.592-0.493-0.892-0.432
					c-0.251,0.052-0.558,0.216-0.427,0.522c-0.014,0.004-0.028,0.009-0.042,0.013C134.524,148.831,134.508,148.845,134.501,148.861z
					"/>
				<path d="M134.411,148.779c0.031,0.025,0.062,0.052,0.09,0.082c-0.029,0.054,0.012,0.138,0.086,0.113
					c0.005-0.002,0.012-0.003,0.018-0.005c0.018,0.02,0.034,0.04,0.05,0.063c0.003,0.014,0.008,0.028,0.012,0.043
					c0.015,0.042-0.007,0.074-0.04,0.088c-0.031,0.01-0.068,0.003-0.091-0.03c-0.009-0.011-0.018-0.023-0.027-0.034
					C134.472,148.993,134.43,148.886,134.411,148.779z"/>
				<path d="M134.211,129.107c-0.074,0.763-0.098,1.496-0.073,2.177c0.044,1.149,0.196,2.374,0.455,3.641
					c0.333,1.63,0.7,2.927,1.157,4.083c0.509,1.286,1.093,2.345,1.787,3.234l0.357,0.396c0.033,0.028,0.068,0.056,0.104,0.082
					c0.002,0.001,0.003,0.003,0.006,0.004c0.027,0.021,0.056,0.041,0.085,0.06c0.01,0.007,0.02,0.014,0.03,0.02
					c0.031,0.021,0.064,0.041,0.097,0.06c0.028,0.016,0.057,0.03,0.085,0.045c0.021,0.011,0.043,0.021,0.063,0.03l0.079,0.038
					l-0.069,0.053c-0.008,0.005-0.016,0.012-0.024,0.017c-0.054-0.022-0.105-0.048-0.156-0.077c-0.01-0.005-0.02-0.01-0.029-0.016
					c-0.012-0.006-0.021-0.011-0.031-0.019c-0.029-0.017-0.058-0.035-0.087-0.054c-0.039-0.025-0.076-0.052-0.113-0.08
					c-0.035-0.026-0.069-0.053-0.103-0.081c-0.002-0.002-0.005-0.005-0.008-0.007l-0.365-0.403c-0.702-0.9-1.291-1.968-1.804-3.264
					c-0.459-1.162-0.829-2.465-1.163-4.101c-0.259-1.272-0.412-2.502-0.456-3.657c-0.026-0.687-0.002-1.424,0.072-2.191
					c0.054-0.549,0.147-1.076,0.276-1.563c0.194-0.727,0.43-1.393,0.7-1.981c0.127-0.278,0.271-0.547,0.422-0.808
					c0.032-0.056,0.064-0.111,0.098-0.166c0.13-0.219,0.267-0.432,0.402-0.639c0.009-0.015,0.019-0.029,0.027-0.043
					c0.039-0.058,0.076-0.114,0.113-0.171c0.011-0.017,0.021-0.032,0.032-0.048c0.012-0.014,0.025-0.029,0.04-0.043
					c0.01,0.002,0.02,0.005,0.029,0.008l0.083,0.022l-0.056,0.063l-0.044-0.019v0.002l0.036,0.024
					c-0.001,0.002-0.002,0.003-0.004,0.005c-0.028,0.042-0.056,0.084-0.084,0.127c-0.027,0.042-0.056,0.084-0.083,0.127
					c-0.04,0.059-0.078,0.12-0.116,0.18c-0.288,0.448-0.569,0.92-0.8,1.421c-0.266,0.583-0.5,1.243-0.692,1.964
					C134.356,128.043,134.264,128.563,134.211,129.107z"/>
				<path d="M133.168,126.63c-0.206,0.83-0.324,1.523-0.37,2.18c-0.035,0.508-0.041,1.055-0.017,1.724
					c0.03,0.843,0.071,1.624,0.127,2.385c0.106,1.44,0.261,2.713,0.474,3.892c0.117,0.652,0.259,1.293,0.421,1.906
					c0.08,0.304,0.171,0.617,0.27,0.93l0.058,0.187c0.124,0.397,0.252,0.808,0.42,1.194c0.219,0.506,0.533,1.033,0.958,1.611
					c0.28,0.381,0.816,0.661,1.365,0.713c0.064,0.007,0.127,0.01,0.191,0.01c0.209,0,0.418-0.033,0.616-0.095
					c0.199-0.062,0.387-0.153,0.558-0.271c-0.017-0.009-0.031-0.017-0.048-0.027c0.051,0.029,0.103,0.055,0.156,0.077
					c-0.368,0.271-0.822,0.421-1.283,0.421c-0.067,0-0.134-0.004-0.201-0.009c-0.349-0.034-0.693-0.155-0.977-0.336
					c-0.002,0-0.004-0.002-0.006-0.004c-0.064-0.042-0.124-0.085-0.181-0.13c-0.002-0.002-0.004-0.003-0.007-0.006
					c-0.001-0.001-0.002-0.002-0.003-0.003c-0.041-0.034-0.08-0.069-0.116-0.106c-0.008-0.008-0.016-0.016-0.023-0.023
					c-0.008-0.007-0.016-0.015-0.023-0.023c-0.006-0.007-0.013-0.014-0.019-0.021c-0.013-0.015-0.025-0.029-0.037-0.043
					c-0.017-0.021-0.032-0.04-0.047-0.061c-0.046-0.063-0.091-0.125-0.134-0.187c-0.363-0.514-0.637-0.987-0.836-1.445
					c-0.17-0.393-0.298-0.805-0.423-1.205l-0.058-0.186c-0.1-0.314-0.191-0.63-0.271-0.935c-0.164-0.615-0.305-1.26-0.423-1.915
					c-0.214-1.184-0.369-2.46-0.475-3.903c-0.056-0.763-0.097-1.544-0.128-2.39c-0.024-0.672-0.019-1.223,0.018-1.735
					c0.046-0.662,0.164-1.361,0.372-2.197c0.145-0.583,0.35-1.133,0.612-1.639c0.129-0.344,0.34-0.645,0.624-0.887l0.464-0.299
					c0.451-0.215,0.974-0.264,1.451-0.146c-0.015,0.014-0.028,0.029-0.04,0.043c-0.011,0.016-0.021,0.032-0.032,0.048
					c-0.147-0.034-0.298-0.051-0.451-0.051c-0.304,0-0.607,0.068-0.878,0.196l-0.452,0.292c-0.264,0.227-0.466,0.513-0.591,0.847
					C133.513,125.513,133.31,126.056,133.168,126.63z"/>
				<path d="M132.303,149.949c0.676-0.173,1.361-0.209,2.055-0.268c0.606-0.051,1.4-0.069,1.981-0.304
					c0.001,0.002,0.001,0.003,0.001,0.005c0.001,0.021,0.009,0.037,0.02,0.05c-0.011,0.044-0.029,0.084-0.049,0.121
					c-0.471,0.162-1.047,0.199-1.532,0.246c-0.785,0.078-1.573,0.097-2.342,0.277c-0.047-0.028-0.09-0.063-0.125-0.104
					C132.309,149.965,132.305,149.958,132.303,149.949z"/>
				<path d="M132.303,149.949c0.002,0.009,0.005,0.016,0.009,0.024c-0.003-0.002-0.007-0.005-0.009-0.009
					c-0.004-0.005-0.009-0.01-0.015-0.013C132.293,149.95,132.299,149.949,132.303,149.949z"/>
				<path d="M132.322,150.004c0.024,0.064-0.039,0.104-0.091,0.093c-0.042-0.037-0.042-0.119,0.026-0.137
					c0.011-0.004,0.021-0.006,0.032-0.008c0.006,0.003,0.01,0.008,0.015,0.013c0.002,0.004,0.005,0.007,0.009,0.009
					C132.314,149.984,132.318,149.994,132.322,150.004z"/>
				<path d="M132.437,150.077c-0.046,0.011-0.092,0.021-0.138,0.034c-0.029,0.008-0.052,0-0.068-0.015
					c0.053,0.011,0.115-0.028,0.091-0.093c-0.003-0.01-0.008-0.02-0.01-0.03C132.347,150.015,132.39,150.049,132.437,150.077z"/>
				<path d="M134.615,150.227c-0.547,0.063-1.17,0.184-1.719,0.122c-0.267-0.029-0.511-0.059-0.692-0.262
					c0.008,0.006,0.018,0.009,0.027,0.01c0.017,0.015,0.04,0.022,0.068,0.015c0.046-0.013,0.092-0.023,0.138-0.034
					c0.484,0.3,1.505,0.071,1.986,0.015c0.055-0.007,0.12-0.013,0.192-0.017c-0.057,0.049-0.016,0.143,0.044,0.143v0.003
					C134.644,150.223,134.629,150.224,134.615,150.227z"/>
				<path d="M132.192,150.076c-0.062-0.07,0.031-0.172,0.096-0.124c-0.011,0.002-0.021,0.004-0.032,0.008
					c-0.069,0.018-0.068,0.1-0.026,0.137c-0.01-0.001-0.02-0.004-0.027-0.01h-0.001
					C132.199,150.084,132.196,150.079,132.192,150.076z"/>
				<path d="M133.028,148.547c-0.573,0.224-0.911,0.812-0.725,1.402c-0.004,0-0.01,0.001-0.015,0.003
					c-0.065-0.048-0.158,0.054-0.096,0.124c0.003,0.003,0.006,0.008,0.01,0.011c-0.014-0.009-0.025-0.021-0.032-0.041
					c-0.217-0.584,0.063-1.357,0.675-1.595c0.498-0.194,1.136-0.025,1.565,0.328c0.019,0.106,0.062,0.214,0.099,0.319
					C134.217,148.733,133.464,148.378,133.028,148.547z"/>
			</g>
		</g>
	</g>
	<g>
		<path d="M132.111,136.714c-0.003-0.001-0.007-0.002-0.012-0.002c-0.033-0.006-0.067-0.011-0.101-0.011
			c-0.003,0-0.006,0.001-0.009,0.001c-0.003-0.003-0.006-0.007-0.011-0.009c-0.071-0.038-0.146-0.068-0.223-0.095
			c0.111-0.667-1.208-0.512-1.226,0.064c0,0.02,0.009,0.033,0.023,0.041c-0.138,0.08-0.241,0.179-0.332,0.331
			c-0.14,0.235-0.052,0.517-0.218,0.742c-0.004,0.006-0.007,0.012-0.008,0.018c-0.149,0.251-0.13,0.544,0.058,0.784
			c0.083,0.105,0.171,0.149,0.304,0.125c0.047-0.008,0.079-0.034,0.104-0.068c0.028,0.158,0.098,0.306,0.248,0.376
			c0.152,0.07,0.361,0.064,0.517-0.019c0.005-0.001,0.009-0.002,0.014-0.005c0.009-0.005,0.018-0.012,0.026-0.018
			c0.004-0.003,0.007-0.005,0.011-0.008c0.008-0.006,0.015-0.012,0.022-0.019c0.012-0.01,0.024-0.019,0.035-0.029
			c0.004-0.004,0.006-0.008,0.008-0.013c0.015-0.015,0.029-0.03,0.043-0.046c0.162,0.095,0.344,0.126,0.549,0.023
			c0.308-0.154,0.373-0.423,0.296-0.743c-0.001-0.003-0.002-0.004-0.003-0.007c0.298,0.063,0.542-0.256,0.56-0.536
			C132.812,137.205,132.488,136.792,132.111,136.714z M130.629,136.662c0.014-0.44,1.105-0.584,1.031-0.095
			c-0.318-0.084-0.664-0.065-0.97,0.067C130.669,136.643,130.649,136.652,130.629,136.662L130.629,136.662z M132.627,137.836
			c-0.067,0.144-0.325,0.241-0.468,0.163c-0.007-0.004-0.013-0.006-0.02-0.006c-0.006-0.003-0.011-0.005-0.017-0.006
			c0.048-0.076,0.075-0.163,0.054-0.254c-0.004-0.02-0.021-0.034-0.042-0.031c-0.019,0.003-0.035,0.022-0.031,0.042
			c0.012,0.052,0.007,0.099-0.013,0.148c-0.021,0.049-0.055,0.095-0.092,0.136c-0.076,0.084-0.17,0.15-0.255,0.225
			c-0.036,0.031,0.011,0.088,0.047,0.057c0.092-0.079,0.19-0.151,0.271-0.242c0.003-0.004,0.006-0.008,0.01-0.011
			c0.002,0.005,0.005,0.01,0.01,0.014c0.028,0.027,0.039,0.06,0.052,0.095c0,0.001,0.001,0.002,0.002,0.003
			c0.057,0.245,0.031,0.458-0.2,0.599c-0.312,0.188-0.573-0.011-0.782-0.238c-0.043-0.047-0.114,0.023-0.07,0.07
			c0.068,0.074,0.14,0.144,0.217,0.201c-0.019,0.021-0.039,0.042-0.06,0.062c-0.008,0.007-0.016,0.015-0.024,0.021
			c-0.004,0.003-0.008,0.006-0.013,0.009c-0.136,0.088-0.334,0.084-0.476,0.019c-0.184-0.086-0.191-0.391-0.182-0.563
			c0.003-0.063-0.096-0.063-0.099,0c0,0.006,0,0.013,0,0.019c-0.014,0.063-0.024,0.128-0.05,0.188
			c-0.147,0.063-0.246,0.035-0.297-0.085c-0.028-0.046-0.052-0.095-0.072-0.145c-0.081-0.194-0.027-0.377,0.091-0.54
			c0.002-0.003,0.003-0.006,0.004-0.009c0.119-0.193,0.084-0.348,0.146-0.592c0.153-0.61,1.039-0.651,1.542-0.457
			c0.003,0.004,0.006,0.009,0.012,0.012c0.037,0.026,0.086,0.054,0.13,0.066c0.044,0.013,0.087,0.009,0.133,0.006
			c0.272,0.046,0.455,0.277,0.555,0.529C132.704,137.502,132.702,137.677,132.627,137.836z"/>
		<path d="M131.669,137.238c-0.127-0.077-0.29-0.153-0.338-0.306c-0.005-0.017-0.028-0.022-0.042-0.016
			c-0.017,0.008-0.021,0.025-0.016,0.042c0.053,0.165,0.223,0.249,0.36,0.332C131.667,137.311,131.705,137.259,131.669,137.238z"/>
		<path d="M131.094,136.94c-0.021,0.175-0.024,0.35-0.009,0.525c0.003,0.041,0.066,0.031,0.063-0.009
			c-0.016-0.17-0.012-0.34,0.009-0.509C131.162,136.906,131.099,136.899,131.094,136.94z"/>
		<path d="M130.875,136.97c-0.023,0.061-0.049,0.121-0.092,0.17c-0.041,0.046-0.1,0.069-0.161,0.07c-0.018,0-0.033,0.01-0.035,0.028
			c-0.001,0.016,0.011,0.036,0.028,0.035c0.079-0.002,0.152-0.026,0.208-0.084c0.053-0.055,0.084-0.126,0.111-0.197
			C130.949,136.954,130.889,136.932,130.875,136.97z"/>
	</g>
	<path d="M138.803,140.87L138.803,140.87c-0.041,0-0.079-0.007-0.114-0.02c-0.371-0.136-0.812-0.347-0.921-0.774
		c-0.12-0.471,0.195-0.841,0.472-1.168c0.048-0.057,0.096-0.113,0.141-0.169c0.034-0.046,0.062-0.088,0.085-0.127
		c-0.039-0.012-0.089-0.024-0.146-0.033c-0.075-0.009-0.152-0.013-0.23-0.018l-0.03-0.002c-0.196-0.012-0.399-0.023-0.59-0.082
		c-0.086-0.026-0.213-0.07-0.318-0.146c-0.106-0.075-0.238-0.182-0.315-0.331c-0.083-0.162-0.121-0.315-0.111-0.455
		c0.011-0.155,0.049-0.29,0.123-0.438c0.077-0.153,0.186-0.288,0.291-0.417l0.064-0.08c0.063-0.085,0.113-0.165,0.15-0.243
		c0.001-0.003,0.002-0.006,0.003-0.009c-0.136-0.045-0.286-0.069-0.43-0.093c-0.119-0.019-0.241-0.039-0.358-0.07
		c-0.342-0.092-0.582-0.253-0.713-0.477c-0.169-0.287-0.158-0.681,0.03-1.027c0.141-0.26,0.364-0.46,0.563-0.622
		c0.04-0.032,0.081-0.063,0.122-0.096c0.082-0.063,0.166-0.128,0.241-0.198c-0.102-0.062-0.211-0.112-0.316-0.157
		c-0.071-0.029-0.144-0.057-0.217-0.084c-0.191-0.072-0.389-0.146-0.569-0.256c-0.201-0.122-0.336-0.251-0.415-0.395
		c-0.124-0.227-0.129-0.479-0.013-0.708c0.072-0.144,0.218-0.278,0.399-0.368c0.154-0.076,0.325-0.137,0.51-0.181
		c0.259-0.062,0.527-0.096,0.786-0.13l0.113-0.015c0.033-0.004,0.067-0.01,0.101-0.016c0.133-0.026,0.237-0.012,0.333,0.045
		c0.098,0.057,0.171,0.152,0.201,0.261c0.032,0.115,0.011,0.248-0.056,0.356c-0.06,0.097-0.15,0.162-0.252,0.182
		c-0.119,0.024-0.241,0.038-0.359,0.052c-0.043,0.005-0.086,0.01-0.129,0.016c-0.247,0.034-0.508,0.075-0.75,0.162
		c0.06,0.035,0.128,0.068,0.212,0.105l0.065,0.026c0.044,0.017,0.089,0.034,0.133,0.051c0.101,0.038,0.206,0.078,0.307,0.124
		l0.046,0.021c0.133,0.06,0.271,0.122,0.394,0.208c0.143,0.1,0.285,0.214,0.352,0.37c0.045,0.105,0.08,0.195,0.076,0.313
		c-0.004,0.127-0.034,0.204-0.079,0.308c-0.051,0.119-0.146,0.22-0.223,0.294c-0.081,0.079-0.169,0.149-0.254,0.216l-0.038,0.03
		c-0.163,0.129-0.331,0.262-0.464,0.422c-0.029,0.04-0.055,0.083-0.076,0.127c-0.007,0.021-0.015,0.048-0.021,0.076
		c0,0.01,0,0.026,0,0.042l0.007,0.007c0.016,0.009,0.039,0.022,0.063,0.034c0.144,0.053,0.304,0.081,0.459,0.107l0.051,0.009
		c0.085,0.015,0.171,0.029,0.256,0.048c0.104,0.023,0.208,0.058,0.336,0.112c0.291,0.124,0.483,0.418,0.469,0.717
		c-0.009,0.17-0.059,0.338-0.157,0.532c-0.076,0.149-0.182,0.28-0.284,0.407l-0.065,0.081c-0.061,0.082-0.103,0.146-0.135,0.211
		c-0.002,0.007-0.006,0.02-0.009,0.033l0.001,0.003c0.007,0.008,0.015,0.015,0.023,0.022c0.012,0.007,0.031,0.018,0.051,0.028
		c0.05,0.017,0.11,0.032,0.181,0.043c0.083,0.009,0.17,0.014,0.258,0.019c0.185,0.01,0.376,0.021,0.559,0.074
		c0.326,0.095,0.566,0.312,0.66,0.594c0.078,0.235,0.017,0.523-0.17,0.791c-0.084,0.119-0.179,0.232-0.271,0.341
		c-0.052,0.062-0.103,0.122-0.152,0.185c-0.049,0.065-0.086,0.123-0.113,0.178c0.006,0.006,0.012,0.012,0.019,0.018
		c0.056,0.038,0.126,0.076,0.211,0.114c0.023,0.01,0.049,0.02,0.075,0.028c0.124,0.046,0.203,0.107,0.257,0.2
		c0.06,0.101,0.075,0.224,0.045,0.337c-0.03,0.108-0.104,0.204-0.201,0.261C138.962,140.848,138.88,140.87,138.803,140.87z
		 M137.306,131.548c-0.031,0-0.063,0.003-0.1,0.011c-0.035,0.007-0.07,0.012-0.106,0.017l-0.114,0.015
		c-0.257,0.033-0.522,0.067-0.777,0.128c-0.178,0.042-0.343,0.101-0.49,0.174c-0.163,0.081-0.293,0.2-0.357,0.326
		c-0.101,0.201-0.097,0.421,0.012,0.62c0.071,0.129,0.195,0.247,0.381,0.36c0.172,0.105,0.366,0.178,0.553,0.249
		c0.074,0.028,0.147,0.056,0.22,0.085c0.127,0.055,0.26,0.116,0.381,0.197l0.047,0.031l-0.04,0.041
		c-0.09,0.092-0.193,0.171-0.293,0.248c-0.041,0.031-0.081,0.063-0.12,0.094c-0.192,0.156-0.406,0.348-0.54,0.594
		c-0.135,0.249-0.214,0.625-0.032,0.935c0.119,0.202,0.34,0.348,0.657,0.433c0.113,0.031,0.233,0.05,0.349,0.069
		c0.162,0.026,0.329,0.053,0.486,0.11l0.01,0.005l0.033,0.018l-0.01,0.036c-0.006,0.021-0.013,0.042-0.02,0.062
		c-0.042,0.088-0.094,0.173-0.162,0.264l-0.066,0.082c-0.102,0.126-0.208,0.256-0.28,0.4c-0.068,0.136-0.103,0.26-0.113,0.402
		c-0.009,0.122,0.025,0.258,0.101,0.405c0.068,0.131,0.188,0.228,0.286,0.298c0.094,0.066,0.211,0.107,0.292,0.132
		c0.18,0.055,0.378,0.066,0.568,0.078l0.03,0.002c0.079,0.004,0.158,0.009,0.237,0.018c0.065,0.011,0.121,0.024,0.171,0.041
		c0.021,0.011,0.035,0.019,0.049,0.027l0.03,0.023l-0.013,0.038c-0.028,0.057-0.064,0.114-0.115,0.182
		c-0.046,0.058-0.094,0.114-0.144,0.172c-0.275,0.325-0.561,0.661-0.452,1.084c0.099,0.386,0.513,0.582,0.862,0.71
		c0.072,0.026,0.183,0.01,0.261-0.036c0.077-0.045,0.135-0.119,0.158-0.205c0.024-0.089,0.012-0.185-0.035-0.264
		c-0.043-0.074-0.105-0.121-0.208-0.159c-0.026-0.01-0.054-0.02-0.08-0.03c-0.092-0.041-0.167-0.082-0.231-0.127
		c-0.021-0.017-0.035-0.031-0.049-0.046l-0.019-0.02l0.007-0.025c0.003-0.011,0.006-0.021,0.01-0.031
		c0.033-0.068,0.073-0.131,0.128-0.205c0.052-0.064,0.104-0.126,0.155-0.188c0.091-0.107,0.184-0.218,0.266-0.335
		c0.08-0.114,0.256-0.413,0.158-0.707c-0.084-0.252-0.302-0.446-0.598-0.532c-0.172-0.051-0.358-0.061-0.538-0.071
		c-0.089-0.005-0.178-0.01-0.265-0.019c-0.078-0.013-0.144-0.029-0.205-0.05c-0.028-0.014-0.05-0.026-0.072-0.04
		c-0.018-0.016-0.028-0.026-0.039-0.037l-0.016-0.027l-0.006-0.029v-0.013c0.006-0.027,0.011-0.044,0.017-0.062
		c0.037-0.076,0.082-0.146,0.147-0.232l0.066-0.083c0.1-0.123,0.202-0.25,0.273-0.391c0.094-0.183,0.139-0.335,0.147-0.493
		c0.013-0.26-0.157-0.517-0.412-0.625c-0.122-0.052-0.221-0.085-0.319-0.107c-0.083-0.019-0.168-0.033-0.252-0.047l-0.051-0.009
		c-0.16-0.028-0.325-0.056-0.48-0.114c-0.032-0.015-0.059-0.03-0.084-0.046l-0.037-0.046l-0.005-0.018
		c-0.002-0.03-0.002-0.051,0-0.072c0.007-0.039,0.017-0.07,0.027-0.101c0.026-0.053,0.055-0.101,0.088-0.148
		c0.142-0.17,0.313-0.306,0.48-0.438l0.038-0.03c0.083-0.066,0.17-0.135,0.248-0.21c0.07-0.068,0.157-0.16,0.202-0.264
		c0.045-0.105,0.067-0.167,0.071-0.274c0.003-0.098-0.026-0.175-0.068-0.272c-0.058-0.134-0.188-0.238-0.319-0.33
		c-0.116-0.081-0.25-0.141-0.378-0.199l-0.046-0.021c-0.099-0.045-0.202-0.083-0.302-0.122c-0.044-0.017-0.089-0.034-0.134-0.051
		l-0.068-0.027c-0.127-0.056-0.22-0.105-0.302-0.16l-0.065-0.044l0.069-0.037c0.016-0.008,0.031-0.016,0.047-0.023
		c0.266-0.103,0.548-0.146,0.813-0.183c0.044-0.005,0.087-0.011,0.131-0.016c0.116-0.014,0.236-0.028,0.352-0.051
		c0.077-0.015,0.145-0.064,0.191-0.139c0.053-0.086,0.07-0.191,0.045-0.282c-0.023-0.085-0.081-0.16-0.158-0.205
		C137.423,131.563,137.368,131.548,137.306,131.548z"/>
</g>
</svg>
