<?xml version="1.0" encoding="utf-8"?>
<!-- Generator: Adobe Illustrator 16.0.0, SVG Export Plug-In . SVG Version: 6.00 Build 0)  -->
<!DOCTYPE svg PUBLIC "-//W3C//DTD SVG 1.1//EN" "http://www.w3.org/Graphics/SVG/1.1/DTD/svg11.dtd">
<svg version="1.1" id="Jigglebilly_Stamp" xmlns="http://www.w3.org/2000/svg" xmlns:xlink="http://www.w3.org/1999/xlink" x="0px"
	 y="0px" width="283.46px" height="283.46px" viewBox="0 0 283.46 283.46" enable-background="new 0 0 283.46 283.46"
	 xml:space="preserve">
<g id="Silk_Screen_1_">
	<path d="M139.6,150.748c-0.013-0.043-0.042-0.079-0.089-0.104c-0.08-0.043-0.187-0.012-0.229,0.067l-0.251,0.463
		c-0.021,0.039-0.026,0.085-0.014,0.129c0.013,0.043,0.042,0.079,0.09,0.104c0.024,0.014,0.052,0.021,0.08,0.021
		c0.063,0,0.12-0.034,0.149-0.089l0.251-0.462C139.607,150.836,139.612,150.792,139.6,150.748z"/>
	<path d="M141.981,147.577l-0.016-0.001c-0.019,0-0.038,0.003-0.055,0.009c-0.064,0.02-0.11,0.078-0.114,0.145
		c-0.026,0.366-0.117,0.728-0.27,1.075c-0.026,0.059-0.038,0.115-0.036,0.169c0.003,0.085,0.063,0.145,0.146,0.149l0.012,0.001
		c0.069,0,0.132-0.039,0.163-0.102c0.186-0.376,0.296-0.801,0.327-1.263C142.145,147.659,142.08,147.584,141.981,147.577z"/>
	<path d="M138.313,147.946c-0.023-0.035-0.063-0.057-0.105-0.057c-0.046,0-0.092,0.022-0.16,0.077
		c-0.061,0.05-0.123,0.108-0.184,0.177c0.047-0.198,0.121-0.417,0.22-0.652c0.015-0.034,0.045-0.106,0.003-0.169l-0.042-0.054h-0.06
		c-0.047,0-0.086,0.024-0.122,0.052c-0.074,0.057-0.131,0.144-0.17,0.259l-0.03,0.087c-0.096,0.276-0.215,0.619-0.169,0.919
		c0.022,0.147,0.083,0.222,0.178,0.222c0.029,0,0.055-0.008,0.079-0.021c-0.064,0.372-0.073,0.76-0.025,1.154
		c0.009,0.074,0.067,0.127,0.141,0.127l0.043-0.004c0.075-0.009,0.126-0.065,0.128-0.142c0.002-0.099,0-0.199-0.001-0.299
		c-0.002-0.173-0.004-0.336,0.01-0.493c0.029-0.317,0.113-0.645,0.251-0.973C138.329,148.088,138.356,148.01,138.313,147.946z"/>
	<path d="M137.594,143.827l-0.043-0.047h-0.054c-0.058,0-0.103,0.038-0.142,0.078c-0.316,0.324-0.522,0.72-0.614,1.18
		c-0.01,0.054,0.008,0.09,0.025,0.11l0.039,0.042h0.052c0.023,0,0.046-0.007,0.069-0.02c0.075-0.043,0.135-0.118,0.182-0.23
		c0.018-0.044,0.035-0.087,0.052-0.131c0.058-0.146,0.117-0.298,0.201-0.417c0.021-0.03,0.046-0.06,0.072-0.091
		c0.07-0.085,0.15-0.181,0.178-0.303C137.625,143.942,137.633,143.876,137.594,143.827z"/>
	<path d="M137.372,143.279l-0.1,0.004l-0.074,0.124c-0.263,0.443-0.245,0.509-0.234,0.544l0.015,0.046l0.061,0.037l0.023,0.023
		h0.048c0.053,0,0.113,0,0.394-0.472l0.042-0.072l0.047-0.104L137.372,143.279z"/>
	<path d="M145.259,143.329c-0.015-0.089-0.083-0.146-0.174-0.147h-0.018c-0.061,0-0.098,0.026-0.117,0.049s-0.042,0.063-0.034,0.121
		c0.051,0.434,0.01,0.885-0.123,1.34c-0.007-0.004-0.014-0.007-0.021-0.011c-0.107-0.049-0.241,0.002-0.29,0.108
		c-0.084,0.184-0.173,0.367-0.264,0.546c-0.119,0.233-0.202,0.463-0.29,0.706c-0.033,0.09-0.066,0.182-0.101,0.272
		c-0.008,0.019-0.012,0.04-0.01,0.061c0.005,0.072,0.065,0.129,0.138,0.129l0.033-0.003c0.074-0.005,0.139-0.051,0.167-0.118
		l0.524-1.198c0.071,0.065,0.189,0.065,0.262-0.003c0.062-0.06,0.11-0.135,0.144-0.224
		C145.287,144.424,145.344,143.876,145.259,143.329z"/>
	<path d="M143.09,142.792c-0.023-0.024-0.055-0.037-0.089-0.037l-0.043,0.002l-0.028,0.021c-0.214,0.149-0.418,0.273-0.604,0.368
		c-0.118-0.049-0.239-0.06-0.383-0.035c-0.064-0.029-0.122-0.044-0.176-0.044c-0.073,0-0.201,0.027-0.269,0.204l-0.11-0.001
		c-0.068,0-0.131,0.033-0.169,0.088c-0.016,0.022-0.032,0.036-0.041,0.036c-0.038,0-0.113-0.073-0.153-0.113l-0.034-0.033
		c-0.066-0.063-0.178-0.066-0.248-0.011c-0.019,0.016-0.041,0.027-0.061,0.034c-0.039-0.021-0.077-0.046-0.115-0.071
		c-0.067-0.046-0.144-0.045-0.201-0.002c-0.049,0.037-0.059,0.082-0.061,0.106c-0.001,0.023,0.002,0.07,0.047,0.112
		c0.156,0.15,0.324,0.193,0.477,0.129c0.008,0.006,0.016,0.012,0.024,0.019c0.094,0.072,0.2,0.155,0.347,0.155
		c0.016,0,0.032-0.001,0.046-0.003c0.048-0.006,0.094-0.027,0.128-0.063c0.052-0.053,0.115-0.08,0.191-0.083
		c0.056-0.002,0.105-0.026,0.141-0.069l0.088-0.106c0.065,0.014,0.132,0.021,0.197,0.021h0.018c0.098,0,0.159,0.018,0.251,0.045
		l0.031,0.01c0.039,0.01,0.081,0.008,0.117-0.006c0.206-0.077,0.412-0.192,0.612-0.343c0.051-0.038,0.088-0.088,0.109-0.148
		C143.157,142.908,143.14,142.838,143.09,142.792z"/>
	<path d="M140.358,142.931l-0.214-0.221c-0.06-0.062-0.166-0.064-0.23-0.002c-0.064,0.062-0.065,0.164-0.003,0.229l0.214,0.221
		c0.03,0.031,0.073,0.049,0.116,0.049c0.042,0,0.082-0.016,0.114-0.047C140.419,143.098,140.42,142.996,140.358,142.931z"/>
	<path d="M145.823,142.885c-0.005-0.056-0.026-0.106-0.062-0.147c-0.047-0.056-0.113-0.079-0.182-0.063
		c-0.073,0.018-0.118,0.091-0.101,0.164c0.033,0.143,0.012,0.313-0.064,0.505c-0.028,0.07-0.007,0.119,0.009,0.143
		c0.016,0.022,0.052,0.061,0.124,0.061l0.03-0.001c0.082-0.006,0.146-0.05,0.18-0.124
		C145.822,143.283,145.844,143.102,145.823,142.885z"/>
	<path d="M148.949,138.092l-0.005-0.022c-0.015-0.064-0.07-0.109-0.137-0.109c-0.603,0.003-1.154,0.239-1.516,0.646
		c-0.056,0.063-0.091,0.131-0.104,0.203l-0.002,0.024c-0.002,0.042,0.014,0.083,0.042,0.113c0.029,0.031,0.068,0.049,0.11,0.05
		l0.024,0c0.02,0,0.037-0.001,0.056-0.001c0.014-0.001,0.027-0.001,0.041-0.001c0.037,0,0.06,0.005,0.082,0.02
		c0.071,0.044,0.136,0.113,0.078,0.289c-0.078,0.24-0.17,0.449-0.272,0.621c-0.037,0.064-0.022,0.147,0.035,0.193
		c0.03,0.024,0.065,0.037,0.104,0.037c0.057,0,0.111-0.027,0.166-0.083c0.012-0.012,0.022-0.026,0.029-0.039
		c0.171-0.286,0.323-0.569,0.317-0.886c-0.004-0.26-0.164-0.341-0.293-0.406c0.192-0.221,0.426-0.353,0.713-0.402
		c0.14-0.024,0.275-0.046,0.414-0.067c0.04-0.008,0.073-0.031,0.096-0.065C148.95,138.173,148.958,138.132,148.949,138.092z"/>
	<path d="M135.878,131.769c-0.027-0.069-0.094-0.093-0.169-0.053c-0.044,0.023-0.084,0.049-0.12,0.078
		c-0.221,0.176-0.454,0.373-0.692,0.585c-0.109,0.097-0.188,0.175-0.24,0.238c-0.018,0.021-0.03,0.021-0.034,0.021
		c-0.009,0-0.019-0.003-0.03-0.01l-0.264-0.151c-0.004-0.002-0.008-0.005-0.01-0.006c0.002-0.002,0.004-0.005,0.008-0.009
		l0.036-0.03c0.089-0.077,0.212-0.182,0.226-0.306c0.002-0.017,0-0.033-0.008-0.048c-0.02-0.04-0.072-0.057-0.111-0.038
		c-0.125,0.061-0.232,0.157-0.322,0.286c-0.029,0.041-0.085,0.056-0.13,0.034c-0.11-0.055-0.231-0.09-0.36-0.107
		c-0.064-0.009-0.112,0.021-0.137,0.075c-0.005,0.01-0.009,0.021-0.01,0.029c-0.013,0.054,0.019,0.107,0.071,0.123l0.316,0.096
		c0.001,0,0.002,0,0.003,0.001c0,0-0.001,0.001-0.002,0.002l-0.229,0.27c-0.037,0.042-0.052,0.027-0.076,0.017
		c-0.099-0.042-0.208-0.064-0.322-0.064c-0.045,0-0.08,0.025-0.092,0.068c-0.019,0.06,0.009,0.113,0.076,0.141
		c0.074,0.031,0.148,0.052,0.216,0.058l-0.05,0.118c-0.016,0.035-0.009,0.062,0,0.077c0.008,0.016,0.026,0.036,0.063,0.042
		c0.104,0.021,0.156-0.05,0.196-0.104c0.048-0.064,0.075-0.085,0.146-0.055c0.08,0.035,0.123,0.025,0.145-0.014
		c0.022-0.039,0-0.084-0.023-0.124c-0.014-0.023-0.027-0.047-0.038-0.072c0.095-0.095,0.171-0.186,0.227-0.271
		c0.005-0.008,0.009-0.01,0.009-0.01c0,0,0.005,0,0.013,0.005l0.306,0.176c-0.146,0.153-0.292,0.325-0.435,0.512
		c-0.024,0.032-0.045,0.065-0.062,0.099c-0.028,0.055-0.019,0.109,0.031,0.153c0.021,0.016,0.046,0.024,0.072,0.024
		c0.038,0,0.073-0.017,0.095-0.047c0.465-0.603,1.031-1.17,1.682-1.686C135.882,131.86,135.896,131.811,135.878,131.769z"/>
	<path d="M135.036,136.564c-0.031,0.049-0.062,0.104-0.091,0.164c-0.029,0.06-0.052,0.125-0.067,0.194
		c-0.031,0.139-0.044,0.298-0.037,0.475c0.005,0.141,0.042,0.289,0.107,0.441c0.194,0.45,0.544,0.75,1.035,0.892l0.15,0.052
		l0.151,0.031l0.014,0.002c0.082,0.005,0.165,0.008,0.246,0.008l0,0c0.108,0,0.218-0.005,0.331-0.016l0.208-0.03l0.188-0.048
		c0.205-0.063,0.399-0.175,0.576-0.332c0.204-0.181,0.364-0.386,0.477-0.611c0.02-0.039,0.044-0.104,0.078-0.213
		c0.047-0.195,0.059-0.391,0.036-0.58c-0.024-0.2-0.123-0.418-0.3-0.668c-0.1-0.14-0.238-0.267-0.411-0.377l-0.012-0.007
		c-0.026-0.013-0.08-0.042-0.163-0.09c-0.173-0.099-0.38-0.154-0.61-0.165c-0.284-0.019-0.566,0.006-0.842,0.072
		c-0.166,0.04-0.316,0.105-0.448,0.192C135.393,136.123,135.186,136.329,135.036,136.564z M137.91,137.78
		c-0.019,0.031-0.039,0.062-0.058,0.092c-0.018,0.026-0.037,0.051-0.059,0.075c-0.092,0.1-0.201,0.198-0.324,0.292
		c-0.019,0.015-0.039,0.027-0.06,0.04c-0.008,0.004-0.032,0.018-0.076,0.041c-0.086,0.046-0.182,0.07-0.291,0.072
		c-0.234,0.017-0.47-0.023-0.739-0.124c-0.139-0.052-0.247-0.107-0.321-0.165c-0.22-0.169-0.365-0.417-0.377-0.645
		c-0.013-0.243,0.016-0.417,0.089-0.547c0.054-0.096,0.127-0.199,0.217-0.307c0.084-0.101,0.188-0.165,0.316-0.231
		c0.029-0.015,0.334-0.166,0.348-0.173c0.101-0.033,0.205-0.054,0.318-0.064c0.083-0.009,0.154-0.017,0.22-0.017
		c0.092,0,0.164,0.016,0.231,0.051c0.025,0.013,0.051,0.025,0.077,0.038c0.04,0.018,0.077,0.036,0.109,0.056
		c0.275,0.178,0.426,0.472,0.505,0.688c0.021,0.057,0.033,0.124,0.036,0.198C138.084,137.376,138.029,137.588,137.91,137.78z"/>
	<path d="M140.09,138.292c0.108,0.112,0.229,0.203,0.36,0.27c0.204,0.096,0.412,0.169,0.616,0.217
		c0.05,0.012,0.109,0.02,0.175,0.023h0.003l0.489-0.005l0.228-0.033c0.276-0.062,0.527-0.196,0.746-0.398l0.092-0.104
		c0.253-0.273,0.403-0.557,0.474-0.904c0.019-0.16,0.016-0.303-0.01-0.425c-0.063-0.31-0.206-0.576-0.423-0.792
		c-0.082-0.083-0.188-0.167-0.322-0.255l-0.118-0.064l-0.076-0.036c-0.284-0.107-0.583-0.155-0.888-0.143
		c-0.732,0.031-1.363,0.434-1.646,1.05c-0.052,0.112-0.088,0.239-0.107,0.381c-0.04,0.336,0.022,0.646,0.184,0.924
		C139.917,138.088,139.99,138.184,140.09,138.292z M142.8,137.626c-0.021,0.044-0.041,0.083-0.062,0.116
		c-0.151,0.238-0.343,0.426-0.569,0.56c-0.097,0.057-0.204,0.084-0.328,0.084c-0.011,0-0.022,0-0.028,0c0,0-0.001,0-0.001,0
		c-0.265-0.031-0.523-0.101-0.768-0.207c-0.04-0.017-0.08-0.04-0.121-0.066l-0.021-0.014c-0.046-0.031-0.095-0.062-0.13-0.096
		c-0.101-0.098-0.183-0.212-0.244-0.34c-0.003-0.006-0.019-0.044-0.052-0.218l-0.003-0.012c-0.029-0.094-0.028-0.189,0.001-0.287
		c0.195-0.536,0.566-0.766,0.64-0.807l0.011-0.007c0.063-0.042,0.289-0.181,0.558-0.184l0.077,0.002h0.019
		c0.12,0,0.241,0.006,0.359,0.02c0.07,0.008,0.128,0.023,0.171,0.045c0.072,0.037,0.132,0.077,0.18,0.119
		c0.124,0.111,0.229,0.257,0.309,0.432c0.057,0.123,0.092,0.252,0.105,0.385C142.917,137.289,142.885,137.435,142.8,137.626z"/>
	<path d="M147.199,136.391c-0.065-0.583-0.149-1.174-0.248-1.752l-0.011-0.087c-0.031-0.223-0.055-0.38-0.07-0.469l-0.036-0.119
		c-0.008-0.017-0.017-0.034-0.026-0.05c-0.023-0.049-0.067-0.087-0.122-0.105c-0.027-0.009-0.068-0.011-0.07-0.011
		c-0.225-0.004-0.453-0.015-0.678-0.031c-0.164-0.012-0.317-0.022-0.457-0.031c-0.156-0.01-0.315-0.021-0.471-0.036l-0.463-0.04
		c-0.503-0.009-1.012-0.01-1.517-0.002l-0.016,0c-0.03,0-0.063-0.001-0.095-0.002c-0.033-0.001-0.065-0.002-0.096-0.002h-0.022
		c-0.214,0.004-0.519,0.014-0.915,0.028l-0.012,0.001c-0.023,0.003-0.215,0.018-0.234,0.019c-0.341,0.01-0.673,0.026-0.988,0.048
		c-0.152,0.011-0.306,0.029-0.454,0.047c-0.124,0.015-0.246,0.029-0.368,0.04c-0.31,0.026-0.636,0.068-0.968,0.125l-0.021,0.002
		c-0.172,0.025-0.179,0.026-0.188,0.028l-0.07,0.017c-0.143,0.028-0.285,0.055-0.428,0.083c-0.089,0.017-0.18,0.032-0.271,0.044
		l-0.281,0.039l-1.945,0.328l-0.161,0.023c-0.087,0.013-0.151,0.085-0.152,0.173c-0.005,0.285-0.008,0.567-0.011,0.849
		c0,0.039-0.005,0.078-0.016,0.115c0,0-0.001,0.003-0.007,0.009c-0.012,0.012-0.024,0.025-0.036,0.039
		c-0.036,0.019-0.063,0.042-0.086,0.061c-0.01,0.008-0.02,0.017-0.031,0.025c-0.036,0.025-0.057,0.042-0.064,0.048
		c-0.125,0.11-0.24,0.229-0.34,0.354c-0.197,0.227-0.321,0.488-0.369,0.776c-0.015,0.086-0.022,0.184-0.024,0.291
		c-0.002,0.132,0,0.226,0.005,0.287c0.021,0.254,0.1,0.492,0.231,0.706c0.215,0.35,0.496,0.618,0.814,0.776
		c0.042,0.021,0.085,0.038,0.132,0.053c0.011,0.003,0.021,0.008,0.03,0.016c0.025,0.02,0.055,0.037,0.087,0.051
		c0.063,0.028,0.128,0.054,0.193,0.078c0.029,0.011,0.055,0.044,0.075,0.099c0.011,0.03,0.017,0.064,0.024,0.101
		c0.008,0.045,0.018,0.097,0.038,0.15l0.114,0.298c0.044,0.115,0.108,0.249,0.192,0.397c0.082,0.146,0.167,0.252,0.258,0.324
		c0.148,0.116,0.298,0.191,0.446,0.223c0.137,0.029,0.28,0.043,0.424,0.043c0.091,0,0.184-0.006,0.278-0.017
		c0.284-0.035,0.554-0.097,0.802-0.186c0.083-0.03,0.165-0.08,0.249-0.154c0.102-0.102,0.131-0.138,0.145-0.157
		c0.206-0.288,0.548-0.684,1.011-0.939c0.107-0.059,0.217-0.081,0.333-0.068c0.38,0.042,0.782,0.203,1.131,0.454
		c0.179,0.128,0.907,0.531,1.149,0.652l0.002,0.001c0.133,0.088,0.301,0.133,0.448,0.173l0.036,0.01
		c0.146,0.04,0.284,0.066,0.408,0.077l0.09,0.018c0.041,0.001,0.082,0.004,0.123,0.007c0.064,0.004,0.129,0.009,0.201,0.009
		c0.001,0,0.001,0,0.001,0c0.061,0,0.12,0,0.181,0h0.118c0.043-0.003,0.085-0.008,0.128-0.012c0.045-0.004,0.09-0.009,0.135-0.012
		l0.013-0.002c0.025-0.004,0.05-0.01,0.077-0.015c0.09-0.02,0.181-0.042,0.272-0.069c0.045-0.013,0.09-0.025,0.135-0.037
		c0.093-0.024,0.188-0.048,0.282-0.086c0.163-0.066,0.328-0.138,0.492-0.212c0.131-0.059,0.244-0.12,0.337-0.181
		c0.058-0.037,0.125-0.091,0.202-0.162c0.059-0.055,0.116-0.117,0.176-0.19l-0.006-0.004c0.184-0.163,0.513-0.71,0.526-0.748
		c0.113-0.315,0.193-0.611,0.246-0.906c0.057-0.317,0.095-0.589,0.093-0.89C147.243,136.916,147.228,136.653,147.199,136.391z
		 M146.535,138.788c-0.018,0.041-0.11,0.224-0.132,0.255c-0.147,0.224-0.294,0.417-0.434,0.575
		c-0.081,0.091-0.171,0.172-0.269,0.242c0.027-0.03,0.053-0.063,0.077-0.097c0.109-0.158,0.2-0.338,0.271-0.536
		c0.112-0.314,0.192-0.611,0.245-0.906c0.058-0.317,0.095-0.59,0.093-0.89c-0.002-0.302-0.016-0.564-0.046-0.827
		c-0.082-0.74-0.194-1.487-0.332-2.221c-0.002-0.014-0.004-0.029-0.005-0.044c0.008-0.001,0.016-0.002,0.021-0.002l0.025-0.003
		c0.078-0.009,0.153-0.023,0.21-0.035c0.099-0.02,0.185-0.038,0.264-0.057c0.01,0.063,0.02,0.126,0.028,0.188l0.002,0
		c0.002,0.049,0.012,0.118,0.025,0.218c0.019,0.135,0.044,0.32,0.073,0.525c0.079,0.569,0.188,1.349,0.199,1.492
		c0.034,0.458,0.021,0.889-0.037,1.279c-0.028,0.19-0.2,0.632-0.257,0.777C146.545,138.757,146.538,138.776,146.535,138.788z
		 M142.408,139.979c0.01,0,0.018,0.002,0.027,0.002c0.104,0,0.208-0.051,0.275-0.136c0.119-0.15,0.101-0.363-0.041-0.475
		c-0.138-0.109-0.358-0.076-0.473,0.068c-0.104,0.131-0.103,0.311-0.006,0.429c-0.018-0.01-0.036-0.021-0.05-0.031
		c-0.291-0.209-0.533-0.376-0.721-0.496c-0.106-0.068-0.219-0.127-0.338-0.178c0.152,0.02,0.28,0.028,0.379,0.025
		c0.145-0.005,0.29-0.009,0.435-0.012l0.014,0c0.007,0,0.015,0,0.023-0.001c0.071-0.002,0.211,0,0.417,0.004
		c0.211,0.005,0.572-0.005,1.104-0.032c0.153-0.007,0.307-0.017,0.461-0.029c0.022-0.002,0.047-0.01,0.088-0.027
		c0.003-0.001,0.005-0.002,0.008-0.003c0.085,0.008,0.157-0.008,0.218-0.045c0.163-0.102,0.311-0.213,0.438-0.331
		c0.082-0.076,0.184-0.179,0.306-0.311l0.046-0.056c0.09-0.109,0.192-0.232,0.243-0.366c0.027-0.07,0.057-0.142,0.088-0.214
		c0.045-0.104,0.077-0.326,0.104-0.547c0.044,0.087,0.123,0.151,0.221,0.163c0.011,0.001,0.021,0.002,0.032,0.002
		c0.151,0,0.279-0.124,0.3-0.289c0.001-0.013,0.001-0.026,0.001-0.039c0.02,0.393,0.006,0.766-0.045,1.107
		c-0.036,0.24-0.095,0.494-0.173,0.754c-0.017,0.056-0.036,0.115-0.059,0.179c-0.122,0.339-0.364,0.641-0.683,0.849
		c-0.24,0.155-0.493,0.253-0.753,0.292c-0.475,0.071-0.96,0.042-1.444-0.085c-0.029-0.015-0.061-0.028-0.095-0.038
		c-0.044-0.012-0.09-0.026-0.139-0.042c-0.04-0.012-0.081-0.028-0.12-0.047C142.467,140.008,142.439,139.994,142.408,139.979z
		 M139.263,139.401c-0.005-0.017-0.01-0.033-0.018-0.049c-0.035-0.072-0.093-0.126-0.166-0.151c-0.03-0.01-0.062-0.016-0.093-0.016
		c-0.136,0-0.262,0.095-0.312,0.237c-0.061,0.173,0.012,0.356,0.162,0.42c-0.021,0.026-0.042,0.053-0.061,0.078l-0.015,0.02
		c-0.075,0.102-0.16,0.218-0.238,0.283c-0.157,0.132-0.446,0.18-0.682,0.208c-0.131,0.017-0.272,0.025-0.42,0.025h-0.031
		c-0.286-0.002-0.488-0.083-0.619-0.248c-0.103-0.128-0.19-0.285-0.262-0.464c-0.07-0.175-0.131-0.341-0.184-0.494
		c0.045,0.001,0.09,0.005,0.135,0.013l0.01,0.002h0.01c0.067-0.002,0.13,0,0.197-0.004c0.193-0.014,0.377-0.025,0.552-0.034
		c0.055-0.003,0.11-0.008,0.164-0.016c0.146-0.021,0.309-0.022,0.467-0.022c0.071,0,0.143-0.001,0.212-0.003l0.769-0.023
		c0.152-0.005,0.261-0.018,0.33-0.04c0.048-0.015,0.099-0.033,0.149-0.055c0.079-0.033,0.144-0.077,0.206-0.119
		c0.021-0.014,0.042-0.028,0.063-0.042c0.082-0.051,0.151-0.112,0.218-0.171l0.049-0.042c0.014-0.012,0.027-0.025,0.039-0.039
		c0.148,0.131,0.303,0.237,0.462,0.315c-0.027-0.003-0.054-0.004-0.079-0.005l-0.028,0c-0.191,0-0.377,0.049-0.549,0.143
		C139.552,139.183,139.404,139.281,139.263,139.401z M145.75,136.734c-0.104-0.013-0.2,0.035-0.263,0.116
		c0.002-0.124-0.016-0.246-0.055-0.359c-0.012-0.036-0.023-0.071-0.034-0.107c-0.032-0.101-0.066-0.206-0.118-0.309
		c-0.146-0.286-0.3-0.481-0.497-0.635c-0.025-0.02-0.076-0.063-0.155-0.133c-0.04-0.035-0.101-0.077-0.181-0.125
		c0.037-0.022,0.071-0.049,0.099-0.084c0.057-0.071,0.084-0.159,0.077-0.248c-0.007-0.092-0.049-0.173-0.119-0.228
		c-0.137-0.108-0.357-0.076-0.472,0.068c-0.051,0.064-0.077,0.142-0.077,0.221c-0.002-0.001-0.003-0.002-0.005-0.002
		c-0.062-0.028-0.121-0.042-0.179-0.055c-0.03-0.007-0.061-0.014-0.091-0.023c-0.06-0.019-0.127-0.028-0.198-0.029
		c0.005-0.019,0.009-0.04,0.012-0.06c0.01-0.091-0.013-0.181-0.063-0.252c-0.053-0.075-0.133-0.124-0.221-0.133
		c-0.178-0.019-0.336,0.125-0.356,0.318c-0.007,0.057,0.002,0.112,0.02,0.164c-0.095,0.012-0.189,0.025-0.283,0.038
		c-0.104,0.015-0.204,0.036-0.302,0.057c0.021-0.063,0.026-0.134,0.01-0.205c-0.043-0.187-0.226-0.312-0.399-0.272
		c-0.176,0.041-0.284,0.229-0.24,0.419c0.015,0.065,0.047,0.123,0.09,0.169c-0.294,0.064-0.726,0.162-0.961,0.229
		c0-0.001,0.001-0.003,0.001-0.004c0.013-0.18-0.108-0.335-0.269-0.347l-0.019-0.001c-0.154,0-0.284,0.135-0.296,0.307
		c-0.006,0.083,0.017,0.165,0.063,0.229c0.009,0.013,0.021,0.024,0.031,0.035c-0.066,0.042-0.132,0.085-0.194,0.13
		c-0.128-0.122-0.264-0.241-0.404-0.357c-0.023-0.019-0.048-0.037-0.074-0.056c0.099-0.042,0.176-0.135,0.2-0.25
		c0.038-0.185-0.072-0.364-0.246-0.4c-0.171-0.035-0.347,0.089-0.385,0.271c-0.01,0.049-0.009,0.097,0,0.142
		c-0.027-0.009-0.053-0.019-0.082-0.025c-0.091-0.021-0.189-0.025-0.292-0.01c-0.046,0.006-0.094,0.009-0.142,0.011
		c0.006-0.02,0.01-0.04,0.013-0.061c0.01-0.083-0.009-0.165-0.054-0.231c-0.037-0.055-0.089-0.094-0.148-0.113
		c0.105-0.012,0.206-0.022,0.298-0.03c0.358-0.029,0.674-0.058,0.938-0.086c0.185-0.02,0.34-0.033,0.461-0.039
		c0.497-0.023,0.973-0.042,1.413-0.056c0.152-0.005,0.308-0.007,0.468-0.007h0.037c0.344,0.001,0.701,0.002,1.07,0.005h0.04
		c0.057,0,0.118,0,0.185-0.002c0.069-0.001,0.14,0,0.21,0.003c0.23,0.011,0.509,0.022,0.834,0.033
		c0.183,0.007,0.38,0.023,0.571,0.04l0.069,0.006c0.076,0.007,0.158,0.016,0.248,0.027c0.039,0.005,0.081,0.009,0.123,0.012
		c0.059,0.005,0.118,0.01,0.174,0.02c0.002,0.006,0.005,0.013,0.006,0.02c0.033,0.137,0.063,0.277,0.087,0.416
		c0.058,0.338,0.116,0.689,0.172,1.045c0.038,0.243,0.072,0.556,0.101,0.931c0.003,0.043,0.004,0.085,0.006,0.127
		c-0.006-0.053-0.022-0.104-0.052-0.147C145.903,136.79,145.831,136.744,145.75,136.734z M138.146,135.703
		c-0.167-0.126-0.348-0.227-0.541-0.297c0.039-0.006,0.079-0.012,0.117-0.019c0.052-0.008,0.096-0.016,0.108-0.017
		c0.023,0,0.142-0.008,0.383-0.024l0.108-0.007c0.25-0.017,0.463-0.028,0.634-0.035h0.014c0.072,0,0.153,0.022,0.242,0.065
		c0.1,0.049,0.188,0.105,0.261,0.167c0.118,0.099,0.241,0.208,0.368,0.323c-0.208,0.224-0.371,0.488-0.483,0.787
		c-0.142,0.376-0.092,0.799-0.025,1.087c0.057,0.246,0.185,0.468,0.313,0.659c-0.157,0.146-0.334,0.277-0.528,0.393
		c-0.073,0.043-0.172,0.048-0.267,0.049c-0.238,0.002-0.477,0.007-0.714,0.012l-0.113,0.002c0-0.001,0.001-0.002,0.001-0.002
		c0.027-0.02,0.055-0.042,0.083-0.064c0.186-0.155,0.348-0.335,0.481-0.534c0.065-0.097,0.116-0.197,0.152-0.299
		c0.049-0.14,0.09-0.278,0.122-0.409c0.028-0.119,0.042-0.243,0.039-0.358C138.884,136.57,138.631,136.073,138.146,135.703z
		 M139.631,137.053c0.014-0.19,0.072-0.375,0.173-0.551c0.146-0.254,0.343-0.473,0.587-0.652c0.161-0.126,0.363-0.207,0.557-0.278
		c0.21-0.078,0.437-0.118,0.675-0.121h0.018c0.12,0,0.229,0.013,0.325,0.037c0.304,0.078,0.587,0.208,0.832,0.382l0.145,0.125
		l0.229,0.259c0.11,0.176,0.193,0.375,0.246,0.597c0.051,0.167,0.06,0.341,0.025,0.517c-0.064,0.336-0.229,0.627-0.486,0.864
		c-0.201,0.186-0.436,0.349-0.694,0.487c-0.076,0.041-0.148,0.071-0.212,0.091c-0.04,0.012-0.081,0.015-0.127,0.019
		c-0.031,0.002-0.062,0.005-0.093,0.01c-0.022,0.003-0.044,0.004-0.067,0.002c-0.062-0.005-0.251-0.005-0.273-0.005h-0.003h-0.003
		c-0.382,0.021-0.771-0.07-1.062-0.248c-0.328-0.202-0.571-0.482-0.723-0.835C139.634,137.601,139.61,137.353,139.631,137.053z
		 M142.954,138.728c0.285-0.255,0.601-0.562,0.727-0.969c0.06-0.189,0.117-0.391,0.123-0.6c0.003-0.14-0.009-0.286-0.036-0.433
		c-0.049-0.264-0.165-0.508-0.343-0.726c-0.121-0.147-0.248-0.272-0.378-0.371c-0.196-0.149-0.412-0.266-0.646-0.349
		c0.005-0.001,0.008-0.001,0.011-0.001c0.266-0.048,0.541-0.099,0.825-0.153c0.02-0.004,0.037-0.005,0.058-0.003
		c0.247,0.021,0.496,0.096,0.761,0.229c0.072,0.037,0.14,0.076,0.2,0.119c0.274,0.192,0.499,0.435,0.668,0.721
		c0.152,0.258,0.221,0.536,0.203,0.825c-0.005,0.077-0.012,0.162-0.022,0.253c-0.009,0.084-0.025,0.165-0.049,0.239
		c-0.066,0.208-0.163,0.395-0.286,0.553c-0.162,0.209-0.361,0.404-0.593,0.581c-0.053,0.041-0.09,0.062-0.151,0.07
		c-0.096,0.013-0.183,0.021-0.259,0.023c-0.28,0.008-0.57,0.021-0.864,0.038C142.919,138.758,142.937,138.743,142.954,138.728z
		 M138.083,134.59c0.061-0.008,0.122-0.015,0.181-0.022c-0.082,0.05-0.142,0.14-0.155,0.248c-0.008,0.069,0.005,0.136,0.033,0.193
		c-0.157,0.021-0.313,0.042-0.463,0.064c0.028-0.074,0.035-0.153,0.015-0.227c-0.022-0.085-0.078-0.153-0.152-0.191
		c0.019-0.002,0.037-0.004,0.055-0.006C137.754,134.631,137.92,134.611,138.083,134.59z M137.041,134.716
		c0.06-0.008,0.119-0.014,0.178-0.021c-0.046,0.036-0.085,0.083-0.112,0.14c-0.038,0.081-0.047,0.171-0.025,0.253
		c0.005,0.019,0.013,0.037,0.021,0.054c-0.275,0.034-0.572,0.073-0.703,0.098c-0.004,0-0.007,0.001-0.011,0.002l-0.249-0.011
		l0.137,0.039c-0.037,0.011-0.075,0.023-0.114,0.039c-0.02,0.007-0.254,0.084-0.408,0.135c-0.001-0.185-0.002-0.37-0.004-0.553
		L137.041,134.716z M135.94,135.716c0.049-0.01,0.09-0.026,0.127-0.04c0.022-0.009,0.045-0.017,0.069-0.024
		c0.201-0.059,0.413-0.088,0.629-0.088c0.061,0,0.122,0.002,0.184,0.007c0.076,0.005,0.151,0.02,0.224,0.042
		c0.328,0.101,0.586,0.235,0.814,0.423c0.113,0.093,0.212,0.203,0.295,0.325c0.115,0.169,0.194,0.357,0.235,0.557
		c0.026,0.128,0.033,0.285,0.021,0.467c-0.019,0.277-0.114,0.521-0.292,0.744c-0.183,0.23-0.361,0.392-0.598,0.542
		c-0.136,0.086-0.263,0.16-0.378,0.219c-0.035,0.018-0.068,0.028-0.105,0.031c-0.058,0.004-0.115,0.01-0.172,0.016
		c-0.102,0.01-0.198,0.021-0.296,0.022c-0.084,0.001-0.168,0.002-0.253,0.002h-0.111c-0.028,0-0.057-0.005-0.084-0.014l-0.349-0.121
		c-0.21-0.072-0.379-0.157-0.503-0.252c-0.28-0.215-0.475-0.515-0.578-0.887c-0.051-0.22-0.059-0.448-0.023-0.677
		c0.028-0.181,0.093-0.353,0.19-0.507c0.19-0.285,0.439-0.519,0.743-0.699C135.794,135.762,135.865,135.732,135.94,135.716z"/>
	<path d="M137.151,139.406c-0.192,0-0.348,0.156-0.348,0.348c0,0.191,0.156,0.348,0.348,0.348c0.191,0,0.348-0.156,0.348-0.348
		C137.499,139.562,137.342,139.406,137.151,139.406z"/>
	<path d="M145.556,138.486c0.01,0.001,0.021,0.002,0.03,0.002c0.167,0,0.308-0.137,0.326-0.319c0.01-0.091-0.013-0.181-0.063-0.252
		c-0.054-0.075-0.134-0.124-0.221-0.133c-0.179-0.018-0.337,0.124-0.357,0.317S145.379,138.467,145.556,138.486z"/>
	<path d="M144.959,139.631c0.023,0,0.046-0.002,0.069-0.008c0.176-0.041,0.283-0.229,0.239-0.42
		c-0.043-0.186-0.227-0.311-0.399-0.271c-0.081,0.019-0.15,0.069-0.195,0.142c-0.051,0.081-0.066,0.182-0.045,0.278
		C144.667,139.513,144.805,139.631,144.959,139.631z"/>
	<path d="M143.763,140.081c0.013,0.001,0.025,0.002,0.038,0.002c0.182,0,0.333-0.137,0.353-0.318c0.021-0.195-0.122-0.37-0.316-0.39
		c-0.196-0.021-0.37,0.122-0.391,0.316c-0.01,0.094,0.018,0.187,0.077,0.26C143.584,140.024,143.669,140.07,143.763,140.081z"/>
	<path d="M145.534,135.219c-0.037-0.018-0.078-0.026-0.12-0.026c-0.128,0-0.249,0.083-0.309,0.21
		c-0.038,0.081-0.047,0.171-0.025,0.252c0.023,0.088,0.081,0.159,0.158,0.195c0.038,0.018,0.078,0.026,0.12,0.026
		c0.128,0,0.249-0.083,0.31-0.21C145.749,135.493,145.689,135.292,145.534,135.219z"/>
	<path d="M138.301,139.543c-0.137-0.108-0.358-0.076-0.473,0.068c-0.057,0.071-0.084,0.159-0.078,0.248
		c0.007,0.091,0.049,0.172,0.119,0.228c0.056,0.044,0.124,0.068,0.197,0.068c0.105,0,0.208-0.051,0.275-0.136
		C138.461,139.869,138.442,139.656,138.301,139.543z"/>
	<path d="M155.561,130.776c-0.154-0.481-0.438-0.827-0.843-1.032c-0.689-0.347-1.497-0.421-2.197-0.446
		c-0.351-0.012-0.723,0.024-1.082,0.061c-0.102,0.01-0.203,0.02-0.305,0.029c-0.231,0.021-0.553,0.098-0.987,0.235l-0.159,0.056
		c-0.031-0.367-0.082-0.703-0.264-1.043c-0.218-0.41-0.549-0.618-0.984-0.618h-0.034c-0.247,0.005-0.518,0.122-0.756,0.225
		c-0.049,0.021-0.099,0.042-0.146,0.062c-0.344,0.142-0.785,0.232-1.312,0.271c-0.123,0.009-0.355-0.014-0.69-0.066
		c-0.014-0.002-0.063-0.014-0.206-0.078c-0.215-0.082-0.424-0.195-0.623-0.34c-0.294-0.215-0.556-0.389-0.777-0.518
		c-0.178-0.103-0.35-0.167-0.51-0.19c-0.039-0.006-0.077-0.009-0.115-0.009c-0.551,0-1.079,0.592-1.374,1.11
		c-0.561-0.273-1.13-0.494-1.691-0.661c-0.169-0.05-0.353-0.086-0.531-0.119c-0.092-0.018-0.186-0.036-0.277-0.056
		c-0.409-0.089-0.849-0.139-1.271-0.146c-0.85-0.012-1.601,0.004-2.24,0.05c-1.158,0.083-2.153,0.294-3.042,0.644
		c-0.911,0.359-1.706,0.924-2.365,1.682c-0.324,0.373-0.471,0.792-0.448,1.28c0.008,0.184,0.022,0.322,0.044,0.419
		c0.138,0.624,0.372,1.228,0.693,1.795c0.529,0.926,1.204,1.762,2.008,2.485c0.23,0.206,0.446,0.396,0.645,0.562
		c0.219,0.184,0.444,0.354,0.674,0.514c0.025-0.129,0.065-0.253,0.121-0.37c-0.002-0.002-0.005-0.003-0.007-0.005
		c-0.215-0.154-0.452-0.352-0.682-0.543c-0.096-0.079-0.19-0.158-0.283-0.234c-0.298-0.243-0.692-0.644-1.17-1.19
		c-0.389-0.446-0.77-1.026-1.131-1.724c-0.119-0.23-0.22-0.468-0.299-0.704c-0.164-0.487-0.324-1.043-0.162-1.485
		c0.139-0.378,0.341-0.67,0.633-0.915c0.094-0.079,0.195-0.167,0.303-0.263c0.438-0.388,0.942-0.696,1.499-0.911
		c0.573-0.221,1.136-0.381,1.672-0.472c0.172-0.029,0.35-0.058,0.532-0.089c0.561-0.092,1.171-0.139,1.814-0.139
		c0.27,0,0.543,0.008,0.816,0.024c0.137,0.009,0.274,0.015,0.409,0.021c0.315,0.015,0.614,0.029,0.878,0.065
		c0.707,0.099,1.404,0.284,2.072,0.548c0.965,0.382,1.886,0.879,2.735,1.479c0.545,0.384,1.01,0.75,1.383,1.084
		c0.529,0.475,0.908,0.832,1.128,1.061c0.363,0.38,0.705,0.738,1.026,1.073c0.227,0.236,0.708,0.803,1.435,1.686
		c0.159,0.192,0.444,0.443,0.87,0.762c0.315,0.235,0.688,0.397,1.106,0.481l0.023,0.002c0.073,0,0.132-0.059,0.132-0.129
		l0.001-0.019c0.001-0.083-0.049-0.148-0.129-0.169c-0.526-0.136-1.019-0.438-1.462-0.899c-0.024-0.026-0.025-0.032-0.009-0.102
		c0.007-0.031,0.014-0.062,0.018-0.097c0.121-1.204,0.192-1.993,0.213-2.346c0.044-0.805,0.083-1.623,0.113-2.43
		c0.406-0.13,0.789-0.221,1.137-0.271c0.267-0.039,0.619-0.058,1.051-0.058h0.086c0.207,0.001,0.411,0.024,0.627,0.05
		c0.084,0.009,0.167,0.019,0.252,0.027c0.446,0.044,0.842,0.125,1.175,0.241c0.157,0.055,0.447,0.18,0.609,0.395
		c0.365,0.484,0.421,1.286,0.315,1.865c-0.077,0.419-0.216,0.847-0.401,1.238c-0.694,1.46-1.729,2.651-3.078,3.541
		c-0.265,0.175-0.59,0.343-0.904,0.506l-0.134,0.069c-0.348,0.18-0.731,0.319-1.104,0.454c-0.037,0.014-0.072,0.027-0.108,0.039
		c-0.058-0.502-0.392-0.867-0.896-0.965c-0.073-0.014-0.144-0.021-0.215-0.021c-0.192,0-0.36,0.053-0.539,0.109
		c-0.041,0.014-0.082,0.027-0.125,0.039c-0.033,0.01-0.063,0.007-0.099-0.008c-0.126-0.056-0.25-0.111-0.375-0.166
		c-0.009-0.004-0.019-0.008-0.028-0.012c0.001,0.053,0.003,0.105,0.003,0.161c0.001,0.085-0.003,0.167-0.008,0.25l0.091,0.041
		c-0.034,0.027-0.068,0.056-0.102,0.086c-0.017,0.166-0.042,0.332-0.074,0.514c-0.007,0.041-0.017,0.082-0.025,0.123
		c0.211-0.269,0.599-0.599,0.902-0.7c0.124-0.041,0.245-0.062,0.359-0.062c0.308,0,0.544,0.149,0.685,0.432
		c0.054,0.11,0.077,0.226,0.073,0.354c-0.021,0.479-0.188,0.841-0.509,1.111c-0.107,0.089-0.224,0.173-0.347,0.263
		c-0.267,0.194-0.543,0.393-0.766,0.672c-0.119,0.15-0.247,0.377-0.382,0.677c-0.054,0.119-0.12,0.25-0.23,0.286
		c-0.125,0.042-0.289-0.037-0.396-0.183c-0.017-0.022-0.037-0.061-0.022-0.138c0.065-0.362,0.135-0.629,0.207-0.794
		c0.028-0.063,0.057-0.128,0.086-0.191c0.174-0.389,0.354-0.791,0.391-1.219c0.014-0.16-0.024-0.308-0.061-0.453l-0.001-0.001
		c-0.051,0.237-0.119,0.478-0.21,0.729c-0.009,0.025-0.157,0.275-0.311,0.488c-0.085,0.211-0.163,0.415-0.23,0.607
		c-0.221,0.62-0.297,1.259-0.229,1.901c0.011,0.099,0.081,0.165,0.183,0.166h0.023c0.046,0,0.077-0.016,0.097-0.031
		c0.037,0.257,0.07,0.515,0.103,0.77c0.051,0.411,0.059,0.781,0.021,1.102c-0.029,0.242-0.152,0.515-0.369,0.811
		c-0.144,0.197-0.263,0.407-0.357,0.633c-0.006-0.007-0.014-0.012-0.021-0.018c-0.022-0.017-0.048-0.029-0.075-0.035
		c-0.109-0.027-0.223,0.042-0.249,0.151c-0.072,0.295-0.174,0.573-0.301,0.827c-0.279,0.557-0.54,0.982-0.773,1.269
		c-0.259,0.317-0.539,0.66-0.841,1.031c-0.132,0.163-0.311,0.445-0.547,0.862l-0.041-0.266c-0.01-0.064-0.056-0.112-0.116-0.126
		c-0.104-0.024-0.189,0.028-0.219,0.128c-0.215,0.73-0.615,1.345-1.187,1.823c-0.02,0.018-0.04,0.034-0.06,0.052
		c-0.024,0.021-0.049,0.043-0.073,0.063c0.005-0.097,0.004-0.21-0.019-0.304c-0.012-0.048-0.046-0.088-0.091-0.108
		c-0.077-0.033-0.171,0.005-0.206,0.083c-0.183,0.421-0.387,0.771-0.666,1.133c-0.129,0.172-0.262,0.337-0.392,0.493
		c0.011-0.16,0.003-0.339-0.02-0.535c-0.009-0.077-0.075-0.135-0.158-0.135l-0.013,0.001c-0.037,0-0.071,0.015-0.096,0.04
		c-0.023,0.025-0.037,0.061-0.036,0.1c0.018,0.455-0.046,0.9-0.19,1.326c-0.066-0.129-0.137-0.258-0.213-0.385
		c-0.022-0.036-0.081-0.136-0.181-0.136c-0.085,0-0.144,0.063-0.175,0.189c-0.008,0.032-0.017,0.066-0.027,0.104
		c-0.061,0.235-0.137,0.526-0.111,0.766c0.057,0.54,0.083,0.94,0.08,1.19c0,0.054-0.009,0.109-0.024,0.166
		c-0.119-0.174-0.238-0.346-0.357-0.517c-0.137-0.196-0.285-0.364-0.442-0.542c-0.058-0.064-0.115-0.13-0.173-0.197
		c-0.419-0.488-0.604-1.08-0.583-1.861c0.01-0.362,0.042-0.718,0.097-1.056c0.003-0.022,0.002-0.045-0.004-0.065
		c-0.019-0.062-0.075-0.103-0.139-0.103l-0.028,0.001l-0.017,0.006c-0.131,0.043-0.272,0.235-0.416,0.457
		c-0.004-0.021-0.008-0.04-0.01-0.06c-0.063-0.465-0.055-0.935,0.021-1.396c0.035-0.207,0.096-0.42,0.182-0.629
		c0.013-0.033,0.012-0.068-0.002-0.1l-0.029-0.051l-0.051-0.014c-0.017-0.003-0.034-0.006-0.05-0.006
		c-0.058,0-0.141,0.025-0.206,0.146c-0.019,0.033-0.033,0.069-0.043,0.108l-0.069,0.274c-0.022-0.063-0.039-0.124-0.049-0.187
		c-0.062-0.393-0.077-0.787-0.046-1.171c0.011-0.13,0.024-0.26,0.042-0.384c0.002-0.019,0.001-0.036-0.003-0.054
		c-0.017-0.063-0.075-0.108-0.141-0.108l-0.036,0.005c-0.058,0.015-0.104,0.047-0.141,0.086c-0.012-0.621,0.007-1.106,0.058-1.442
		c0.066-0.434,0.15-0.836,0.251-1.196c0.077-0.275,0.198-0.554,0.362-0.83c0.044-0.074,0.111-0.188,0.072-0.304
		c-0.023-0.068-0.079-0.122-0.166-0.157c-0.072-0.028-0.156-0.03-0.248-0.007c-0.015-0.455,0.01-0.914,0.075-1.371
		c0.048-0.022,0.09-0.035,0.127-0.04c0.276-0.038,0.555-0.077,0.84-0.118c0.111-0.016,0.241-0.038,0.381-0.062
		c0.351-0.059,0.788-0.132,1.161-0.149c0.489-0.022,0.861-0.023,1.104-0.002c0.042,0.084,0.056,0.104,0.066,0.118
		c0.338,0.433,0.816,0.608,1.4,0.516c0.194-0.03,0.364-0.073,0.504-0.129c0.16-0.063,0.328-0.113,0.49-0.163
		c0.066-0.02,0.132-0.04,0.198-0.06c0.163-0.053,0.303-0.15,0.438-0.244c0.03-0.022,0.06-0.043,0.091-0.063
		c0.059-0.04,0.132-0.082,0.218-0.127c0.317-0.166,0.608-0.375,0.868-0.623c0.087-0.082,0.145-0.166,0.194-0.283
		c0.144,0.024,0.29,0.078,0.428,0.156l0.018,0.01c0.069,0.03,0.155-0.004,0.186-0.073c0.011-0.024,0.017-0.053,0.017-0.083
		c0.042,0.048,0.089,0.096,0.14,0.142c0.036,0.033,0.078,0.057,0.125,0.069c0.102,0.029,0.185-0.011,0.214-0.093
		c0.025-0.069,0.001-0.147-0.059-0.19c-0.118-0.082-0.133-0.161-0.134-0.213c-0.001-0.047-0.018-0.09-0.051-0.127l-0.017-0.017
		c0.011-0.02,0.021-0.039,0.03-0.059c0.038-0.075,0.076-0.152,0.101-0.238c-0.136,0.061-0.271,0.119-0.405,0.173
		c-0.094,0.038-0.189,0.063-0.281,0.087c-0.034,0.009-0.068,0.018-0.103,0.027c-0.002,0.013-0.003,0.025-0.003,0.038
		c0.002,0.061,0.037,0.114,0.088,0.144l-0.282-0.081c-0.109-0.031-0.229,0.013-0.291,0.107l-0.072,0.11
		c-0.202-0.096-0.408-0.071-0.597,0.069c-0.093,0.07-0.193,0.096-0.302,0.083c-0.065-0.009-0.13-0.001-0.19,0.024
		c-0.103,0.042-0.198,0.07-0.286,0.08c-0.17,0.022-0.287,0.109-0.388,0.198c-0.18,0.041-0.349,0.111-0.504,0.209
		c-0.058,0.002-0.111,0.012-0.163,0.022c-0.066,0.013-0.124,0.026-0.184,0.015c-0.075-0.014-0.162-0.027-0.25-0.027
		c-0.098,0-0.191,0.017-0.285,0.05c-0.001,0.001-0.01,0.003-0.032,0.003c-0.076,0-0.197-0.033-0.278-0.065
		c-0.082-0.032-0.176-0.022-0.249,0.025l-0.079,0.053c-0.043-0.135-0.127-0.243-0.246-0.323c0.313-0.245,0.638-0.488,0.968-0.721
		c0.047-0.035,0.099-0.063,0.155-0.087c0.066,0.022,0.13,0.051,0.198,0.083c0.076,0.034,0.154,0.071,0.238,0.098
		c0.122,0.039,0.25,0.073,0.382,0.098c0.026,0.004,0.051,0.008,0.079,0.008c0.199,0,0.396-0.143,0.523-0.282
		c-0.076-0.027-0.15-0.06-0.216-0.103l-0.002-0.001c-0.035-0.018-0.083-0.042-0.137-0.071c-0.064,0.04-0.143,0.06-0.234,0.06
		c-0.164,0-0.331-0.061-0.442-0.112c-0.096-0.045-0.241-0.111-0.383-0.111c-0.068,0-0.129,0.016-0.182,0.047
		c-0.342,0.205-0.654,0.44-0.956,0.669c-0.076,0.057-0.151,0.113-0.228,0.17c-0.15,0.112-0.318,0.206-0.479,0.297l-0.061,0.033
		c-0.19,0.108-0.466,0.147-0.813,0.117c-0.154-0.013-0.363-0.105-0.469-0.257c-0.056-0.079-0.071-0.162-0.049-0.246
		c0.027-0.1,0.06-0.196,0.098-0.29c-0.142,0.036-0.288,0.064-0.439,0.084c-0.003,0.01-0.007,0.019-0.011,0.028
		c-0.083,0.246-0.042,0.473,0.118,0.675c0.107,0.135,0.232,0.234,0.374,0.297c-0.041,0.005-0.083,0.012-0.124,0.019
		c-0.285,0.044-0.504,0.076-0.652,0.091c-0.28,0.03-0.563,0.067-0.842,0.112c0.03-0.088,0.065-0.176,0.107-0.262
		c0.15-0.317,0.303-0.63,0.489-0.948c-0.071-0.007-0.141-0.019-0.209-0.033c-0.061-0.013-0.121-0.035-0.182-0.062
		c-0.029,0.048-0.055,0.092-0.073,0.122c-0.303,0.49-0.477,0.887-0.543,1.248c-0.418,0.075-0.855,0.17-1.298,0.284
		c-0.053,0.014-0.081,0.018-0.096,0.021l-0.029,0.008c-0.133,0.051-0.274,0.092-0.417,0.119l-0.024,0.008
		c-0.069,0.03-0.159,0.059-0.271,0.088c-0.081,0.022-0.16,0.042-0.24,0.062c-0.111,0.025-0.216,0.066-0.316,0.105
		c-0.063,0.024-0.128,0.05-0.194,0.071c-0.06,0.019-0.125,0.01-0.194-0.005c-0.057-0.011-0.118-0.023-0.18-0.018
		c-0.12,0.01-0.246,0.013-0.366,0.016c-0.151,0.002-0.308,0.006-0.457,0.023c-0.296,0.037-0.597,0.071-0.893,0.102
		c-0.321,0.033-0.611,0.094-0.927,0.158c-0.144,0.028-0.25,0.13-0.275,0.257c-0.021,0.12,0.033,0.235,0.146,0.308
		c0.07,0.044,0.161,0.056,0.27,0.034c0.605-0.126,1.23-0.213,1.857-0.258c0.161,0.007,0.303-0.001,0.431-0.021
		c-0.341,0.359-0.643,0.724-0.897,1.086c-0.083,0.115-0.119,0.23-0.11,0.341l0.002,0.019l0.008,0.017
		c0.003,0.009,0.006,0.019,0.01,0.028l0.007,0.024l0.018,0.019c0.048,0.054,0.126,0.127,0.252,0.146l0.026,0.003l0.024-0.004
		l0.012,0.004l0.026-0.008l0.033-0.014c0.023-0.012,0.045-0.025,0.068-0.039l0.047-0.032l0.033-0.056
		c0.012-0.026,0.03-0.066,0.033-0.077l0.026-0.059l-0.001-0.003c0.002-0.006,0.005-0.012,0.008-0.017
		c0.003-0.006,0.008-0.011,0.017-0.021l0.009-0.014c0.1-0.169,0.191-0.343,0.27-0.514c0.03-0.066,0.113-0.195,0.339-0.437
		l0.02-0.028c0.134-0.283,0.313-0.467,0.549-0.558l0.016-0.007c0.191-0.107,0.393-0.178,0.608-0.208l1.28-0.353l0.679-0.177
		c-0.039,0.227-0.072,0.448-0.067,0.702c0.006,0.248-0.003,0.498-0.025,0.754v0.143c0.001,0.106,0.057,0.152,0.09,0.171
		c0.032,0.018,0.072,0.026,0.116,0.026c0.014,0,0.029-0.001,0.049-0.003c0.014-0.002,0.026-0.005,0.039-0.008
		c-0.002,0.002-0.003,0.003-0.004,0.006l-0.015,0.017l-0.006,0.023c-0.025,0.087-0.065,0.175-0.104,0.258
		c-0.04,0.088-0.081,0.179-0.108,0.274c-0.091,0.325-0.177,0.663-0.252,0.999l-0.036,0.267c-0.044,0.193-0.075,0.396-0.089,0.599
		c-0.025,0.365,0.042,1.068,0.083,1.453l0.002,0.02c0.005,0.188,0.12,0.202,0.156,0.202c0.031,0,0.06-0.01,0.084-0.024
		c-0.005,0.092-0.012,0.301-0.012,0.314l0.018,0.592c0.016,0.257,0.055,0.444,0.12,0.571c0.104,0.202,0.111,0.255,0.111,0.261
		c0.006,0.146-0.001,0.304-0.02,0.468c-0.016,0.148,0.016,0.282,0.043,0.4c0.02,0.084,0.038,0.162,0.04,0.24
		c0.003,0.22,0.08,0.442,0.234,0.681c0.017,0.026,0.041,0.048,0.07,0.061c0.079,0.036,0.178-0.001,0.215-0.077v0.557
		c0.022,0.396,0.101,0.749,0.235,1.052c0.067,0.153,0.18,0.325,0.336,0.51c0.19,0.226,0.388,0.452,0.587,0.675
		c0.054,0.06,0.18,0.244,0.273,0.379c0.104,0.151,0.127,0.186,0.146,0.203c0.099,0.095,0.168,0.203,0.208,0.323
		c0.005,0.018,0.014,0.033,0.026,0.049c0.028,0.033,0.069,0.053,0.113,0.053c0.033,0,0.066-0.013,0.093-0.033
		c0.296-0.25,0.313-0.671,0.296-0.898c-0.03-0.411-0.041-0.745-0.033-0.992l0.009-0.266c0.042,0.091,0.084,0.179,0.128,0.263
		c0.023,0.046,0.061,0.079,0.109,0.098c0.102,0.038,0.223-0.018,0.262-0.118l0.221-0.592c0.019-0.051,0.048-0.096,0.085-0.135
		c0.115-0.12,0.226-0.247,0.333-0.378c0.242-0.3,0.476-0.609,0.695-0.921c0.067,0.02,0.128,0.016,0.179-0.014
		c0.04-0.023,0.08-0.043,0.12-0.064c0.084-0.042,0.171-0.086,0.25-0.151c0.321-0.268,0.615-0.581,0.875-0.931
		c0.039-0.054,0.076-0.11,0.107-0.17c0.028-0.053,0.059-0.105,0.091-0.156c0.056-0.089,0.111-0.189,0.166-0.301
		c0.019,0.033,0.047,0.058,0.081,0.073c0.147,0.068,0.313,0.007,0.387-0.138l0.037-0.074c0.108-0.22,0.211-0.426,0.36-0.626
		c0.105-0.141,0.21-0.283,0.313-0.427c0.153-0.212,0.655-0.82,0.843-1.05c0.053-0.063,0.085-0.104,0.086-0.105
		c0.066-0.099,0.132-0.196,0.198-0.294c0.071-0.104,0.135-0.211,0.19-0.315c0.094-0.178,0.184-0.351,0.27-0.518
		c0.054-0.104,0.097-0.212,0.13-0.32c0.025-0.08,0.054-0.163,0.085-0.245c0.046,0.046,0.092,0.056,0.122,0.056
		c0.037,0,0.092-0.014,0.139-0.076l0.018-0.02l0.008-0.025c0.011-0.04,0.025-0.082,0.04-0.123c0.037-0.103,0.078-0.195,0.127-0.285
		l0.002-0.004c0-0.003,0.001-0.004,0.001-0.004l0.007-0.012c0.068-0.136,0.147-0.254,0.236-0.353
		c0.054-0.059,0.152-0.233,0.181-0.295l0.2-0.343l0.01-0.021c0.139-0.414,0.167-0.855,0.088-1.309l-0.097-0.699
		c-0.061-0.263-0.084-0.526-0.072-0.786c0.022,0.001,0.046,0.006,0.067,0.002c0.215,0,0.423-0.098,0.544-0.255
		c0.05-0.065,0.098-0.174,0.15-0.342c0.102-0.32,0.229-0.521,0.492-0.77c0.113-0.107,0.268-0.222,0.457-0.339
		c0.598-0.372,0.927-0.841,1.005-1.431c0.002-0.012,0.003-0.017,0.003-0.018c0.008-0.004,0.033-0.01,0.048-0.013
		c0.029-0.006,0.06-0.014,0.09-0.024c0.452-0.17,0.926-0.376,1.411-0.612c0.715-0.349,1.354-0.773,1.898-1.264
		c1.036-0.933,1.841-2.041,2.392-3.293c0.106-0.244,0.198-0.523,0.27-0.83C155.749,131.885,155.734,131.319,155.561,130.776z
		 M149.628,130.066c-0.026,1.079-0.078,2.497-0.237,3.884c-0.026,0.227-0.048,0.459-0.063,0.693c-0.05-0.05-0.098-0.104-0.142-0.165
		c-0.457-0.63-0.958-1.174-1.488-1.748c-0.093-0.1-0.188-0.203-0.28-0.305c-0.474-0.518-1.132-1.14-1.957-1.852
		c-0.86-0.743-1.833-1.386-2.891-1.912c0.139-0.319,0.356-0.589,0.646-0.803c0.098-0.072,0.213-0.109,0.34-0.109
		c0.212,0,0.474,0.104,0.716,0.288c0.366,0.278,0.688,0.49,0.958,0.629c0.413,0.212,0.861,0.239,1.204,0.239
		c0.063,0,0.127,0,0.191-0.002c0.244-0.007,0.507-0.047,0.781-0.12c0.335-0.088,0.662-0.191,0.976-0.307
		c0.196-0.071,0.382-0.097,0.545-0.074c0.201,0.028,0.421,0.283,0.509,0.503C149.574,129.256,149.638,129.646,149.628,130.066z
		 M144.99,140.83c0.027,0,0.053,0.002,0.075,0.008c0.008,0.012,0.016,0.024,0.023,0.037c-0.027-0.013-0.055-0.024-0.081-0.032
		l-0.047-0.012H144.99L144.99,140.83z M142.295,141.811l0.327-0.116c0.054,0.07,0.098,0.154,0.142,0.24
		c0.016,0.03,0.031,0.06,0.046,0.088c-0.145,0.057-0.305,0.094-0.476,0.107c-0.17,0.013-0.279-0.044-0.338-0.188
		C142.105,141.933,142.206,141.888,142.295,141.811z M140.69,141.916c0.001-0.003,0.004-0.003,0.005-0.003h0.002
		c0.113,0.063,0.235,0.089,0.364,0.076l-0.005,0.116c-0.131-0.002-0.297-0.044-0.353-0.115
		C140.687,141.968,140.683,141.947,140.69,141.916z M139.828,141.608c0.027-0.017,0.056-0.034,0.084-0.049
		c0.031,0.063,0.055,0.128,0.071,0.196c-0.097-0.007-0.198-0.01-0.3-0.01c-0.034,0-0.069,0-0.104,0.001
		C139.665,141.703,139.746,141.655,139.828,141.608z"/>
	<path d="M138.988,133.851c-0.04,0.016-0.072,0.044-0.091,0.084c-0.003,0.007-0.003,0.014-0.005,0.021
		c0.268-0.045,0.529-0.079,0.782-0.104c-0.09-0.021-0.181-0.038-0.274-0.047C139.263,133.792,139.128,133.805,138.988,133.851z"/>
	<path d="M143.07,133.518c-0.326-0.12-0.642-0.075-0.923,0.135c-0.009,0.007-0.019,0.013-0.028,0.02
		c0.284-0.01,0.513-0.016,0.683-0.02h0.022c0.03,0,0.063,0.001,0.096,0.002c0.032,0.001,0.064,0.002,0.095,0.002l0.016,0
		c0.052,0,0.103,0,0.153-0.001c-0.002-0.016-0.007-0.032-0.014-0.047C143.15,133.567,143.114,133.535,143.07,133.518z"/>
</g>
</svg>
