<?xml version="1.0" encoding="utf-8"?>
<!-- Generator: Adobe Illustrator 16.0.0, SVG Export Plug-In . SVG Version: 6.00 Build 0)  -->
<!DOCTYPE svg PUBLIC "-//W3C//DTD SVG 1.1//EN" "http://www.w3.org/Graphics/SVG/1.1/DTD/svg11.dtd">
<svg version="1.1" id="Jigglebilly_Stamp" xmlns="http://www.w3.org/2000/svg" xmlns:xlink="http://www.w3.org/1999/xlink" x="0px"
	 y="0px" width="283.46px" height="283.46px" viewBox="0 0 283.46 283.46" enable-background="new 0 0 283.46 283.46"
	 xml:space="preserve">
<g id="Silk_Screen_1_">
	<path d="M139.6,150.749c-0.013-0.044-0.042-0.079-0.089-0.105c-0.08-0.043-0.187-0.011-0.229,0.068l-0.251,0.462
		c-0.021,0.04-0.026,0.086-0.013,0.129c0.013,0.044,0.042,0.079,0.089,0.104c0.024,0.014,0.052,0.021,0.081,0.021
		c0.062,0,0.119-0.034,0.148-0.089l0.251-0.463C139.608,150.837,139.613,150.792,139.6,150.749z"/>
	<path d="M141.982,147.577h-0.017c-0.019,0-0.038,0.003-0.055,0.008c-0.064,0.02-0.11,0.078-0.114,0.145
		c-0.026,0.366-0.117,0.729-0.27,1.075c-0.026,0.06-0.038,0.116-0.036,0.169c0.003,0.085,0.063,0.146,0.146,0.15h0.013
		c0.069,0,0.131-0.038,0.163-0.101c0.186-0.377,0.296-0.802,0.327-1.264C142.145,147.66,142.08,147.584,141.982,147.577z"/>
	<path d="M138.313,147.946c-0.023-0.035-0.063-0.056-0.105-0.056c-0.046,0-0.092,0.022-0.16,0.076
		c-0.061,0.05-0.123,0.109-0.184,0.177c0.047-0.197,0.121-0.416,0.22-0.652c0.015-0.034,0.045-0.106,0.004-0.169l-0.042-0.054h-0.06
		c-0.047,0-0.086,0.025-0.122,0.053c-0.074,0.056-0.131,0.143-0.17,0.258l-0.03,0.088c-0.096,0.275-0.215,0.619-0.169,0.919
		c0.023,0.146,0.083,0.222,0.178,0.222c0.029,0,0.055-0.008,0.079-0.021c-0.064,0.373-0.073,0.76-0.025,1.154
		c0.009,0.075,0.067,0.127,0.141,0.127l0.043-0.004c0.075-0.009,0.126-0.065,0.128-0.141c0.002-0.1,0-0.199-0.001-0.299
		c-0.002-0.173-0.004-0.336,0.01-0.494c0.029-0.317,0.114-0.645,0.251-0.973C138.329,148.088,138.356,148.01,138.313,147.946z"/>
	<path d="M137.594,143.828l-0.043-0.047h-0.054c-0.058,0-0.103,0.037-0.142,0.078c-0.316,0.323-0.522,0.72-0.614,1.18
		c-0.01,0.054,0.008,0.089,0.025,0.109l0.039,0.043h0.052c0.023,0,0.046-0.007,0.069-0.021c0.076-0.043,0.135-0.118,0.182-0.23
		c0.018-0.043,0.035-0.087,0.052-0.131c0.058-0.146,0.118-0.298,0.201-0.417c0.021-0.029,0.046-0.06,0.071-0.09
		c0.07-0.085,0.15-0.182,0.179-0.304C137.625,143.942,137.633,143.877,137.594,143.828z"/>
	<path d="M137.372,143.28l-0.099,0.004l-0.074,0.123c-0.263,0.444-0.245,0.51-0.234,0.545l0.015,0.046l0.061,0.036l0.023,0.023
		l0.048,0.001c0.053,0,0.113,0,0.394-0.472l0.043-0.072l0.046-0.104L137.372,143.28z"/>
	<path d="M145.259,143.33c-0.015-0.089-0.083-0.147-0.174-0.147h-0.018c-0.061,0-0.098,0.026-0.117,0.049s-0.042,0.062-0.034,0.121
		c0.051,0.434,0.01,0.884-0.123,1.34c-0.007-0.004-0.014-0.008-0.021-0.011c-0.107-0.049-0.241,0.002-0.29,0.108
		c-0.084,0.183-0.173,0.367-0.264,0.546c-0.119,0.233-0.202,0.462-0.29,0.705c-0.033,0.091-0.066,0.182-0.101,0.272
		c-0.008,0.02-0.012,0.04-0.01,0.061c0.005,0.072,0.065,0.129,0.138,0.129l0.033-0.002c0.074-0.006,0.139-0.052,0.167-0.118
		l0.524-1.198c0.072,0.064,0.189,0.064,0.263-0.004c0.062-0.06,0.109-0.135,0.143-0.224
		C145.287,144.424,145.344,143.877,145.259,143.33z"/>
	<path d="M143.09,142.792c-0.023-0.023-0.055-0.037-0.089-0.037l-0.043,0.003l-0.028,0.021c-0.214,0.149-0.418,0.272-0.604,0.368
		c-0.118-0.05-0.239-0.061-0.383-0.036c-0.064-0.029-0.122-0.043-0.176-0.043c-0.073,0-0.201,0.027-0.269,0.204l-0.11-0.002
		c-0.067,0-0.131,0.033-0.169,0.088c-0.016,0.022-0.032,0.037-0.041,0.037c-0.038,0-0.113-0.074-0.153-0.114l-0.034-0.033
		c-0.066-0.063-0.178-0.066-0.248-0.01c-0.019,0.016-0.041,0.026-0.06,0.034c-0.039-0.022-0.077-0.046-0.115-0.072
		c-0.067-0.045-0.144-0.044-0.201-0.002c-0.049,0.037-0.059,0.082-0.061,0.106s0.003,0.07,0.047,0.113
		c0.156,0.15,0.324,0.192,0.477,0.128c0.008,0.007,0.017,0.013,0.025,0.02c0.093,0.072,0.199,0.154,0.346,0.154
		c0.016,0,0.032-0.001,0.047-0.003c0.048-0.005,0.094-0.027,0.127-0.062c0.053-0.054,0.115-0.08,0.191-0.083
		c0.056-0.003,0.105-0.027,0.141-0.07l0.088-0.105c0.065,0.013,0.132,0.02,0.197,0.02h0.018c0.098,0,0.159,0.019,0.251,0.046
		l0.031,0.009c0.039,0.011,0.081,0.009,0.117-0.006c0.206-0.076,0.412-0.191,0.612-0.343c0.051-0.038,0.088-0.088,0.11-0.147
		C143.158,142.908,143.14,142.839,143.09,142.792z"/>
	<path d="M140.358,142.931l-0.214-0.221c-0.06-0.062-0.166-0.064-0.23-0.002c-0.064,0.063-0.065,0.165-0.003,0.229l0.214,0.222
		c0.03,0.03,0.073,0.049,0.116,0.049c0.042,0,0.082-0.017,0.114-0.048C140.419,143.098,140.42,142.996,140.358,142.931z"/>
	<path d="M145.824,142.885c-0.006-0.056-0.027-0.105-0.063-0.147c-0.047-0.055-0.113-0.078-0.182-0.063
		c-0.072,0.018-0.118,0.091-0.101,0.165c0.034,0.143,0.012,0.313-0.064,0.505c-0.028,0.07-0.006,0.119,0.009,0.142
		c0.016,0.022,0.052,0.061,0.124,0.061l0.03-0.001c0.082-0.006,0.146-0.049,0.18-0.123
		C145.822,143.283,145.844,143.102,145.824,142.885z"/>
	<path d="M141.187,138.346c-0.002-0.037-0.033-0.065-0.075-0.065h0l-0.494,0.034c-0.039,0.003-0.068,0.037-0.065,0.075l0.004,0.062
		c0.002,0.037,0.033,0.066,0.07,0.066l0.499-0.034c0.019-0.001,0.036-0.01,0.048-0.024c0.013-0.014,0.019-0.032,0.018-0.051
		L141.187,138.346z"/>
	<path d="M148.949,138.092l-0.005-0.022c-0.015-0.064-0.07-0.109-0.136-0.109c-0.604,0.003-1.155,0.239-1.517,0.646
		c-0.056,0.063-0.09,0.131-0.104,0.203l-0.002,0.024c-0.002,0.042,0.014,0.083,0.042,0.113c0.029,0.031,0.068,0.049,0.11,0.05h0.025
		c0.019,0,0.037,0,0.055-0.001c0.014,0,0.027-0.001,0.041-0.001c0.038,0,0.06,0.005,0.082,0.019c0.071,0.044,0.136,0.113,0.078,0.29
		c-0.078,0.24-0.17,0.449-0.271,0.621c-0.038,0.064-0.023,0.147,0.034,0.193c0.03,0.024,0.066,0.037,0.104,0.037
		c0.057,0,0.111-0.027,0.166-0.083c0.012-0.013,0.022-0.026,0.03-0.039c0.17-0.286,0.322-0.569,0.316-0.886
		c-0.004-0.26-0.163-0.341-0.293-0.406c0.192-0.221,0.426-0.353,0.713-0.402c0.14-0.024,0.275-0.046,0.414-0.067
		c0.04-0.008,0.073-0.031,0.096-0.065C148.95,138.173,148.958,138.133,148.949,138.092z"/>
	<ellipse transform="matrix(-0.8791 -0.4767 0.4767 -0.8791 202.8406 326.4617)" cx="142.83" cy="137.502" rx="0.342" ry="0.36"/>
	<ellipse transform="matrix(-0.925 -0.3799 0.3799 -0.925 216.9599 317.9307)" cx="139.849" cy="137.559" rx="0.337" ry="0.368"/>
	<path d="M155.561,130.776c-0.153-0.48-0.438-0.828-0.843-1.032c-0.689-0.347-1.497-0.42-2.197-0.446
		c-0.351-0.013-0.723,0.025-1.082,0.061c-0.102,0.01-0.203,0.021-0.304,0.03c-0.231,0.021-0.554,0.097-0.987,0.234l-0.159,0.056
		c-0.032-0.366-0.083-0.702-0.264-1.043c-0.219-0.411-0.55-0.619-0.985-0.619l-0.033,0c-0.248,0.006-0.519,0.123-0.757,0.225
		c-0.05,0.021-0.099,0.042-0.146,0.062c-0.345,0.142-0.785,0.233-1.312,0.27c-0.124,0.009-0.357-0.014-0.69-0.065
		c-0.015-0.002-0.064-0.015-0.206-0.078c-0.215-0.081-0.425-0.195-0.623-0.339c-0.294-0.215-0.556-0.389-0.778-0.518
		c-0.178-0.103-0.35-0.167-0.51-0.191c-0.038-0.005-0.077-0.008-0.115-0.008c-0.55,0-1.079,0.591-1.373,1.109
		c-0.561-0.272-1.129-0.494-1.69-0.661c-0.17-0.05-0.354-0.085-0.531-0.12c-0.093-0.018-0.186-0.036-0.278-0.056
		c-0.408-0.088-0.847-0.139-1.269-0.145c-0.85-0.013-1.602,0.003-2.24,0.049c-1.159,0.083-2.154,0.293-3.042,0.644
		c-0.91,0.358-1.706,0.924-2.364,1.681c-0.324,0.372-0.471,0.791-0.45,1.28c0.008,0.184,0.023,0.322,0.045,0.42
		c0.139,0.624,0.372,1.228,0.694,1.795c0.528,0.926,1.204,1.762,2.007,2.484c0.23,0.207,0.447,0.396,0.645,0.562
		c1.297,1.089,2.802,1.753,4.474,1.973c-0.003,0.15-0.033,0.286-0.091,0.406c-0.181,0.378-0.437,0.767-0.763,1.159l-0.086,0.113
		l-0.159,0.229c-0.001,0.002-0.027,0.044-0.063,0.106c-0.08,0.137-0.222,0.377-0.283,0.477c-0.304,0.491-0.477,0.888-0.544,1.249
		c-0.419,0.075-0.855,0.17-1.298,0.283c-0.052,0.014-0.081,0.019-0.095,0.021l-0.029,0.008c-0.134,0.052-0.274,0.092-0.418,0.119
		l-0.024,0.008c-0.069,0.03-0.159,0.06-0.271,0.088c-0.08,0.022-0.16,0.043-0.239,0.062c-0.112,0.026-0.216,0.066-0.316,0.105
		c-0.064,0.025-0.128,0.05-0.194,0.071c-0.06,0.02-0.125,0.01-0.194-0.004c-0.056-0.012-0.117-0.023-0.18-0.018
		c-0.121,0.01-0.246,0.013-0.366,0.015c-0.151,0.003-0.307,0.006-0.457,0.024c-0.296,0.036-0.597,0.07-0.893,0.101
		c-0.321,0.033-0.612,0.093-0.928,0.158c-0.143,0.029-0.25,0.13-0.274,0.258c-0.022,0.119,0.033,0.234,0.146,0.307
		c0.07,0.045,0.16,0.057,0.269,0.034c0.606-0.126,1.23-0.212,1.856-0.258c0.161,0.007,0.304-0.001,0.432-0.021
		c-0.341,0.359-0.643,0.724-0.898,1.086c-0.082,0.115-0.119,0.23-0.109,0.34l0.001,0.02l0.008,0.017
		c0.004,0.01,0.008,0.019,0.01,0.028l0.007,0.024l0.017,0.019c0.048,0.054,0.126,0.127,0.253,0.146l0.025,0.003l0.024-0.003
		l0.012,0.003l0.027-0.009l0.032-0.012c0.023-0.013,0.046-0.025,0.068-0.04l0.046-0.032l0.035-0.056
		c0.011-0.026,0.029-0.067,0.033-0.076l0,0l0.025-0.06l-0.002-0.003c0.003-0.006,0.006-0.012,0.009-0.017
		c0.003-0.006,0.007-0.011,0.017-0.021l0.009-0.013c0.1-0.17,0.191-0.343,0.27-0.515c0.03-0.066,0.113-0.195,0.339-0.437l0.02-0.028
		c0.134-0.284,0.313-0.467,0.55-0.557l0.015-0.008c0.192-0.108,0.394-0.178,0.609-0.208l1.28-0.353l0.679-0.176
		c-0.039,0.227-0.072,0.447-0.066,0.701c0.005,0.249-0.003,0.499-0.026,0.753v0.143c0.001,0.107,0.057,0.153,0.09,0.172
		c0.033,0.018,0.072,0.026,0.116,0.026c0.014,0,0.029,0,0.049-0.003c0.013-0.002,0.025-0.005,0.038-0.007
		c-0.001,0.001-0.002,0.003-0.004,0.004l-0.015,0.019l-0.006,0.021c-0.025,0.088-0.065,0.175-0.104,0.259
		c-0.04,0.088-0.082,0.179-0.109,0.274c-0.091,0.325-0.176,0.663-0.251,0.999l-0.037,0.267c-0.044,0.193-0.074,0.396-0.088,0.6
		c-0.026,0.365,0.041,1.067,0.083,1.453l0.002,0.019c0.006,0.188,0.121,0.202,0.156,0.202c0.031,0,0.06-0.01,0.084-0.023
		c-0.005,0.092-0.013,0.3-0.012,0.313l0.018,0.592c0.016,0.258,0.055,0.444,0.121,0.571c0.105,0.202,0.111,0.256,0.111,0.261
		c0.005,0.147-0.002,0.304-0.02,0.468c-0.016,0.148,0.016,0.283,0.043,0.401c0.02,0.083,0.038,0.162,0.04,0.24
		c0.004,0.219,0.081,0.441,0.234,0.68c0.017,0.026,0.042,0.049,0.07,0.062c0.079,0.036,0.178-0.001,0.214-0.078v0.557
		c0.023,0.396,0.102,0.749,0.235,1.052c0.067,0.154,0.181,0.326,0.336,0.51c0.19,0.226,0.388,0.452,0.587,0.675
		c0.053,0.06,0.18,0.244,0.272,0.38c0.104,0.151,0.127,0.186,0.146,0.203c0.099,0.095,0.168,0.203,0.207,0.322
		c0.006,0.018,0.015,0.034,0.027,0.049c0.028,0.033,0.069,0.053,0.112,0.053c0.034,0,0.067-0.012,0.093-0.034
		c0.296-0.248,0.313-0.669,0.296-0.897c-0.029-0.411-0.04-0.745-0.032-0.992l0.009-0.266c0.042,0.091,0.085,0.179,0.128,0.264
		c0.023,0.045,0.062,0.079,0.109,0.097c0.103,0.038,0.224-0.017,0.262-0.118l0.221-0.592c0.019-0.051,0.047-0.096,0.084-0.135
		c0.115-0.119,0.227-0.246,0.333-0.378c0.242-0.299,0.476-0.609,0.695-0.921c0.067,0.021,0.128,0.016,0.18-0.014
		c0.039-0.023,0.08-0.044,0.12-0.063c0.084-0.043,0.171-0.087,0.25-0.152c0.321-0.268,0.616-0.581,0.875-0.931
		c0.04-0.053,0.076-0.11,0.107-0.169c0.028-0.054,0.059-0.106,0.091-0.157c0.056-0.089,0.111-0.189,0.166-0.3
		c0.02,0.032,0.047,0.058,0.082,0.073c0.146,0.067,0.313,0.007,0.386-0.139l0.037-0.074c0.108-0.219,0.211-0.426,0.36-0.626
		c0.106-0.141,0.211-0.283,0.313-0.426c0.152-0.212,0.654-0.821,0.844-1.051c0.052-0.063,0.084-0.103,0.086-0.105
		c0.065-0.098,0.132-0.195,0.198-0.294c0.07-0.104,0.134-0.211,0.189-0.314c0.094-0.179,0.184-0.351,0.27-0.519
		c0.054-0.104,0.097-0.211,0.13-0.32c0.025-0.08,0.054-0.163,0.085-0.245c0.046,0.046,0.092,0.056,0.123,0.056
		c0.037,0,0.091-0.013,0.138-0.075l0.019-0.021l0.007-0.025c0.012-0.041,0.025-0.081,0.041-0.123
		c0.036-0.103,0.077-0.194,0.126-0.285l0.002-0.005c0.001-0.001,0.002-0.002,0.002-0.003l0.006-0.011
		c0.068-0.137,0.147-0.255,0.236-0.353c0.055-0.06,0.153-0.233,0.181-0.295l0.201-0.343l0.009-0.021
		c0.139-0.414,0.168-0.855,0.089-1.309l-0.098-0.699c-0.061-0.262-0.085-0.526-0.071-0.786c0.021,0.002,0.045,0.006,0.066,0.003
		c0.214,0,0.423-0.098,0.544-0.255c0.05-0.065,0.098-0.173,0.151-0.341c0.101-0.32,0.229-0.521,0.491-0.77
		c0.114-0.107,0.268-0.222,0.457-0.34c0.598-0.372,0.927-0.84,1.005-1.431c0.002-0.011,0.004-0.017,0.003-0.018
		c0.009-0.004,0.032-0.009,0.048-0.013c0.029-0.006,0.06-0.013,0.089-0.024c0.452-0.171,0.927-0.377,1.412-0.613
		c0.715-0.348,1.354-0.773,1.899-1.264c1.035-0.933,1.839-2.041,2.391-3.293c0.107-0.244,0.198-0.523,0.271-0.829
		C155.749,131.885,155.735,131.319,155.561,130.776z M148.622,137.116c-0.073-0.014-0.143-0.021-0.214-0.021
		c-0.193,0-0.362,0.053-0.54,0.109c-0.04,0.013-0.082,0.026-0.125,0.039c-0.032,0.01-0.063,0.007-0.098-0.008
		c-0.126-0.055-0.251-0.11-0.376-0.166c-0.396-0.176-0.804-0.356-1.227-0.52c0.052-0.005,0.103-0.012,0.153-0.022
		c0.092-0.018,0.183-0.055,0.269-0.11l0.011-0.007c0.047-0.034,0.077-0.084,0.087-0.141c0.009-0.057-0.004-0.114-0.038-0.162
		c-0.023-0.031-0.054-0.055-0.09-0.07l0.024-0.068c0.024-0.07,0.01-0.121-0.008-0.151c-0.017-0.03-0.053-0.07-0.125-0.085
		c-0.385-0.079-0.73-0.18-1.031-0.303l0,0c0.028-0.012,0.053-0.03,0.071-0.054c0.061-0.076,0.048-0.188-0.027-0.248
		c-0.027-0.022-0.054-0.044-0.08-0.066c-0.077-0.066-0.157-0.134-0.258-0.186c-0.123-0.063-0.244-0.125-0.365-0.184
		c-0.22-0.107-0.465-0.165-0.662-0.199c0.017-0.055,0.008-0.114-0.027-0.169c-0.153-0.245-0.635-0.409-0.875-0.472
		c0.009-0.004,0.017-0.009,0.025-0.014c0.036-0.021,0.064-0.054,0.079-0.093c0.017-0.044,0.015-0.092-0.006-0.135
		c-0.02-0.043-0.055-0.076-0.1-0.092c-0.327-0.121-0.642-0.075-0.924,0.135c-0.137,0.102-0.281,0.205-0.429,0.307l-0.141-0.16
		l-0.021-0.021c-0.071-0.057-0.184-0.044-0.24,0.026c-0.228,0.284-0.386,0.582-0.471,0.884c-0.268-0.478-0.834-0.824-1.444-0.884
		c-0.138-0.014-0.272,0-0.412,0.045c-0.041,0.015-0.073,0.045-0.091,0.084c-0.019,0.04-0.021,0.083-0.006,0.123l0.086,0.242
		c-0.361-0.044-0.691,0.029-0.987,0.215c-0.011,0.007-0.02,0.015-0.029,0.023c-0.033,0.033-0.052,0.077-0.052,0.124
		c0,0.044,0.016,0.086,0.044,0.118c-0.312,0.104-0.597,0.264-0.849,0.478c-0.055,0.046-0.095,0.098-0.117,0.154
		c-0.018,0.044-0.018,0.092,0,0.137c0.009,0.024,0.023,0.045,0.041,0.063c-0.022,0.021-0.044,0.043-0.065,0.066
		c-0.036,0.038-0.062,0.088-0.087,0.137c-0.014,0.027-0.038,0.073-0.042,0.079c-0.294,0.141-0.43,0.333-0.382,0.54l0.008,0.027
		c0.035,0.085,0.137,0.129,0.224,0.094c0.144-0.059,0.296-0.12,0.457-0.182c0.143-0.056,0.296-0.103,0.455-0.139
		c0.059-0.014,0.117-0.027,0.174-0.042c0.119-0.028,0.235-0.056,0.351-0.08c-0.081,0.052-0.123,0.149-0.103,0.245
		c0.106,0.528,0.17,1.088,0.188,1.665c-0.089-0.016-0.179-0.031-0.27-0.046c-0.23-0.039-0.469-0.079-0.675-0.132
		c-0.991-0.259-1.917-0.692-2.751-1.289c-0.214-0.153-0.452-0.351-0.682-0.543c-0.095-0.079-0.189-0.158-0.283-0.234
		c-0.298-0.243-0.692-0.644-1.17-1.19c-0.389-0.445-0.77-1.025-1.131-1.723c-0.119-0.23-0.22-0.467-0.3-0.705
		c-0.163-0.486-0.324-1.042-0.161-1.484c0.139-0.379,0.341-0.67,0.634-0.916c0.094-0.079,0.195-0.167,0.303-0.263
		c0.437-0.389,0.941-0.695,1.498-0.911c0.573-0.222,1.136-0.38,1.673-0.472c0.172-0.029,0.349-0.059,0.532-0.089
		c0.561-0.093,1.171-0.14,1.815-0.14c0.269,0,0.543,0.009,0.815,0.025c0.137,0.009,0.274,0.015,0.408,0.021
		c0.316,0.015,0.614,0.029,0.879,0.066c0.708,0.099,1.404,0.283,2.072,0.547c0.966,0.382,1.887,0.88,2.735,1.479
		c0.545,0.385,1.011,0.75,1.384,1.085c0.528,0.474,0.907,0.832,1.127,1.062c0.363,0.38,0.705,0.737,1.026,1.073
		c0.227,0.236,0.709,0.803,1.435,1.685c0.16,0.194,0.444,0.443,0.871,0.763c0.314,0.236,0.687,0.398,1.106,0.482l0.022,0.002
		c0.072,0,0.132-0.059,0.133-0.129v-0.02c0.001-0.083-0.049-0.148-0.129-0.169c-0.526-0.136-1.019-0.438-1.462-0.899
		c-0.024-0.026-0.025-0.033-0.009-0.102c0.007-0.03,0.014-0.062,0.018-0.097c0.121-1.203,0.193-1.993,0.213-2.346
		c0.045-0.805,0.083-1.622,0.113-2.43c0.407-0.13,0.789-0.222,1.138-0.271c0.266-0.039,0.619-0.058,1.05-0.058h0.086
		c0.207,0.001,0.411,0.025,0.628,0.05c0.083,0.01,0.166,0.019,0.251,0.028c0.446,0.044,0.842,0.125,1.175,0.241
		c0.158,0.055,0.447,0.18,0.609,0.394c0.365,0.485,0.422,1.286,0.315,1.865c-0.077,0.419-0.216,0.847-0.4,1.237
		c-0.695,1.46-1.73,2.652-3.078,3.541c-0.266,0.175-0.591,0.343-0.904,0.506l-0.135,0.069c-0.348,0.181-0.732,0.32-1.104,0.455
		c-0.036,0.013-0.071,0.026-0.107,0.039C149.46,137.579,149.126,137.213,148.622,137.116z M146.912,141.264
		c-0.125,0.042-0.289-0.038-0.396-0.183c-0.017-0.022-0.037-0.062-0.023-0.139c0.065-0.361,0.136-0.628,0.208-0.793
		c0.027-0.063,0.056-0.127,0.085-0.191c0.174-0.389,0.354-0.791,0.391-1.22c0.014-0.16-0.024-0.308-0.062-0.452l-0.006-0.024
		c-0.002-0.006-0.002-0.008,0.002-0.013c0.207-0.271,0.607-0.614,0.918-0.718c0.124-0.042,0.244-0.062,0.358-0.062
		c0.308,0,0.544,0.149,0.685,0.432c0.055,0.11,0.078,0.227,0.073,0.354c-0.021,0.479-0.187,0.842-0.509,1.11
		c-0.106,0.089-0.224,0.173-0.346,0.263c-0.268,0.194-0.544,0.394-0.766,0.673c-0.119,0.15-0.248,0.377-0.383,0.676
		C147.088,141.096,147.022,141.226,146.912,141.264z M145.814,145.44c-0.022-0.017-0.048-0.028-0.074-0.035
		c-0.11-0.026-0.224,0.043-0.25,0.151c-0.072,0.295-0.173,0.574-0.301,0.827c-0.279,0.557-0.539,0.983-0.773,1.27
		c-0.259,0.316-0.539,0.66-0.84,1.031c-0.132,0.162-0.312,0.444-0.548,0.861l-0.041-0.266c-0.01-0.063-0.056-0.112-0.117-0.126
		c-0.103-0.023-0.188,0.029-0.218,0.129c-0.215,0.73-0.614,1.344-1.187,1.823c-0.021,0.017-0.04,0.034-0.06,0.051
		c-0.025,0.021-0.049,0.043-0.073,0.063c0.005-0.096,0.004-0.21-0.02-0.304c-0.012-0.048-0.045-0.088-0.09-0.107
		c-0.078-0.033-0.172,0.004-0.207,0.082c-0.183,0.421-0.388,0.771-0.665,1.134c-0.13,0.171-0.262,0.337-0.392,0.493
		c0.01-0.16,0.003-0.34-0.02-0.535c-0.009-0.076-0.075-0.135-0.158-0.135l0,0l-0.013,0.001c-0.037,0-0.071,0.015-0.096,0.04
		c-0.024,0.025-0.037,0.061-0.036,0.1c0.018,0.455-0.046,0.9-0.19,1.325c-0.066-0.128-0.138-0.257-0.213-0.384
		c-0.022-0.037-0.081-0.136-0.181-0.136c-0.085,0-0.144,0.063-0.175,0.188c-0.008,0.033-0.018,0.067-0.027,0.104
		c-0.061,0.234-0.137,0.526-0.112,0.766c0.057,0.54,0.084,0.939,0.081,1.19c0,0.054-0.009,0.109-0.024,0.166
		c-0.119-0.174-0.238-0.346-0.357-0.518c-0.137-0.195-0.285-0.363-0.442-0.541c-0.057-0.064-0.115-0.13-0.173-0.197
		c-0.419-0.488-0.604-1.08-0.583-1.862c0.01-0.361,0.042-0.717,0.097-1.055c0.003-0.022,0.002-0.045-0.005-0.066
		c-0.019-0.062-0.075-0.103-0.139-0.103l-0.028,0.002l-0.017,0.006c-0.131,0.043-0.271,0.235-0.416,0.456
		c-0.004-0.02-0.007-0.039-0.01-0.06c-0.062-0.464-0.055-0.934,0.021-1.396c0.035-0.207,0.095-0.419,0.181-0.628
		c0.014-0.033,0.013-0.068-0.002-0.1l-0.029-0.052l-0.051-0.013c-0.017-0.004-0.034-0.006-0.05-0.006
		c-0.058,0-0.141,0.025-0.207,0.145c-0.019,0.034-0.033,0.071-0.043,0.11l-0.068,0.273c-0.022-0.063-0.04-0.124-0.049-0.187
		c-0.061-0.393-0.077-0.786-0.045-1.171c0.011-0.131,0.024-0.26,0.041-0.384c0.002-0.018,0.001-0.036-0.004-0.054
		c-0.016-0.063-0.074-0.108-0.14-0.108l-0.036,0.005c-0.058,0.015-0.104,0.047-0.141,0.086c-0.013-0.622,0.006-1.107,0.058-1.442
		c0.066-0.434,0.151-0.836,0.252-1.197c0.076-0.274,0.198-0.553,0.361-0.829c0.044-0.075,0.112-0.188,0.073-0.304
		c-0.023-0.069-0.08-0.122-0.167-0.157c-0.072-0.029-0.155-0.031-0.248-0.007c-0.015-0.455,0.01-0.915,0.075-1.372
		c0.048-0.021,0.09-0.034,0.127-0.039c0.276-0.038,0.556-0.077,0.84-0.118c0.111-0.017,0.241-0.038,0.381-0.062
		c0.351-0.059,0.789-0.132,1.162-0.149c0.488-0.021,0.86-0.022,1.104-0.002c0.042,0.085,0.056,0.105,0.065,0.118
		c0.338,0.433,0.816,0.609,1.401,0.517c0.194-0.03,0.364-0.074,0.504-0.129c0.16-0.063,0.328-0.113,0.49-0.163
		c0.066-0.02,0.133-0.039,0.198-0.061c0.163-0.051,0.304-0.149,0.438-0.244c0.03-0.021,0.061-0.042,0.091-0.063
		c0.059-0.04,0.132-0.082,0.218-0.127c0.316-0.166,0.608-0.375,0.868-0.622c0.087-0.083,0.146-0.166,0.195-0.283
		c0.144,0.024,0.289,0.078,0.428,0.156l0.018,0.009c0.069,0.03,0.155-0.004,0.185-0.073c0.011-0.025,0.017-0.054,0.017-0.083
		c0.043,0.049,0.089,0.096,0.14,0.142c0.036,0.033,0.079,0.056,0.125,0.069c0.102,0.029,0.186-0.012,0.215-0.094
		c0.025-0.069,0-0.147-0.061-0.189c-0.117-0.082-0.132-0.161-0.133-0.213c-0.001-0.047-0.018-0.091-0.05-0.127l-0.017-0.017
		c0.01-0.02,0.02-0.04,0.029-0.059c0.048-0.095,0.098-0.194,0.117-0.308c0.036-0.21,0.048-0.419,0.033-0.623
		c0.289,0.015,0.378-0.168,0.416-0.355l0.029,0.03c0.017,0.017,0.034,0.03,0.054,0.04c0.098,0.051,0.227,0.011,0.277-0.086
		c0.194-0.365,0.262-0.732,0.2-1.094c0.004,0.001,0.008,0.003,0.012,0.004c0.021,0.008,0.043,0.012,0.067,0.012l0,0
		c0.013,0,0.024-0.001,0.036-0.004c-0.002,0.031,0.004,0.063,0.017,0.092c0.127,0.291,0.059,0.721-0.065,1.02
		c-0.117,0.283-0.222,0.554-0.312,0.806c-0.22,0.62-0.297,1.259-0.228,1.9c0.01,0.1,0.081,0.165,0.183,0.167h0.023
		c0.045,0,0.076-0.016,0.097-0.032c0.036,0.256,0.07,0.514,0.102,0.77c0.052,0.411,0.059,0.781,0.021,1.101
		c-0.029,0.243-0.152,0.516-0.368,0.811c-0.144,0.197-0.263,0.407-0.357,0.634C145.829,145.452,145.821,145.446,145.814,145.44z
		 M137.524,135.705c0.016-0.005,0.03-0.013,0.043-0.022c0.039-0.028,0.064-0.069,0.072-0.117s-0.003-0.095-0.032-0.134
		c-0.018-0.025-0.042-0.045-0.069-0.058c0.23-0.136,0.517-0.266,0.855-0.389c0.074-0.027,0.104-0.073,0.117-0.106
		s0.019-0.087-0.02-0.153c-0.011-0.019-0.023-0.034-0.037-0.047c0.25-0.068,0.493-0.081,0.729-0.039
		c0.006,0.001,0.011,0.002,0.016,0.002l0.015,0c0.094,0,0.174-0.073,0.182-0.167c0.01-0.12-0.014-0.234-0.071-0.338
		c0.367,0.016,0.69,0.158,0.987,0.434c0.175,0.163,0.418,0.492,0.075,0.863c-0.059,0.063-0.127,0.103-0.208,0.121
		c-0.412,0.091-0.831,0.137-1.245,0.138c-0.554,0.001-1.112,0.129-1.682,0.276c0.002-0.006,0.004-0.013,0.006-0.019
		C137.286,135.849,137.417,135.746,137.524,135.705z M142.595,134.104c0.031,0.036,0.075,0.058,0.122,0.061
		c0.307,0.022,0.592,0.116,0.848,0.28l-0.069,0.086c-0.02,0.023-0.03,0.05-0.033,0.079c-0.005,0.04,0.007,0.079,0.032,0.11
		c0.025,0.031,0.061,0.051,0.101,0.055c0.451,0.046,0.893,0.189,1.314,0.424c-0.075,0.02-0.127,0.054-0.158,0.104
		c-0.039,0.066-0.039,0.142,0.003,0.211c0.023,0.039,0.063,0.071,0.114,0.096c0.263,0.125,0.518,0.204,0.764,0.279
		c0.142,0.044,0.289,0.089,0.434,0.143c-0.004,0.058,0.004,0.114,0.024,0.166c-0.345,0.017-0.656-0.004-1.078-0.074
		c-0.359-0.06-0.719-0.119-1.078-0.177c-0.14-0.023-0.275-0.028-0.406-0.033c-0.106-0.004-0.207-0.007-0.309-0.02
		c-0.286-0.035-0.577-0.06-0.866-0.076c-0.187-0.011-0.346-0.049-0.534-0.099c-0.237-0.062-0.406-0.181-0.519-0.366
		c-0.227-0.37-0.084-0.809,0.134-1.119l0.007,0.018c0.035,0.078,0.137,0.114,0.21,0.082c0.205-0.088,0.403-0.201,0.588-0.335
		c0.162-0.117,0.27-0.169,0.406-0.19l-0.05,0.057c-0.027,0.03-0.043,0.068-0.046,0.107
		C142.547,134.021,142.563,134.068,142.595,134.104z M142.306,136.064l0.003,0.11c0.259,0.012,0.498,0.016,0.729,0.014
		c0.188,0,0.413,0.59,0.468,0.899c0.083,0.467-0.056,0.823-0.423,1.088c-0.02,0.014-0.037,0.028-0.054,0.042
		c-0.064,0.051-0.079,0.056-0.133,0.046c-0.403-0.073-0.701-0.149-0.859-0.463c-0.222-0.442-0.204-0.893,0.056-1.378
		c0.043-0.081,0.132-0.248,0.212-0.248V136.064L142.306,136.064z M139.285,136.275c0.069-0.071,0.147-0.105,0.24-0.105
		c0.051,0,0.107,0.01,0.168,0.031c0.697,0.236,0.711,0.982,0.658,1.406c-0.041,0.33-0.371,0.547-0.666,0.642
		c-0.046,0.015-0.093,0.013-0.145-0.005c-0.5-0.168-0.745-0.47-0.749-0.923C138.789,136.985,138.968,136.604,139.285,136.275z
		 M138.393,136.367c0.15-0.045,0.298-0.091,0.442-0.136c-0.181,0.225-0.302,0.473-0.363,0.741c-0.026-0.193-0.06-0.387-0.1-0.583
		c-0.001-0.006-0.001-0.011-0.002-0.012C138.373,136.375,138.379,136.372,138.393,136.367z M138.542,137.97
		c0.125,0.225,0.338,0.375,0.526,0.47c-0.04,0.03-0.052,0.067-0.056,0.089c-0.005,0.032-0.001,0.081,0.047,0.13
		c0.027,0.027,0.064,0.043,0.103,0.043l0.014-0.001c0.163-0.016,0.328-0.045,0.493-0.087c0.368-0.093,0.951-0.411,1.051-0.903
		c0.085-0.419,0.044-0.816-0.122-1.183c-0.108-0.237-0.264-0.413-0.467-0.525c0.383-0.034,0.754-0.051,1.107-0.051
		c0.178,0,0.343,0.053,0.518,0.109c0.022,0.007,0.045,0.015,0.068,0.022c-0.124,0.23-0.214,0.478-0.27,0.735
		c-0.099,0.457-0.019,0.878,0.238,1.253c0.148,0.217,0.35,0.356,0.599,0.416c0.285,0.067,0.606,0.118,0.956,0.153l0.015,0.001
		c0.031,0,0.063-0.009,0.094-0.027c0.079-0.046,0.086-0.106,0.083-0.138s-0.021-0.089-0.107-0.12l-0.034-0.012
		c0.545-0.48,0.661-1.082,0.346-1.791c-0.048-0.106-0.102-0.216-0.161-0.33c0.292,0.052,0.568,0.102,0.843,0.175
		c0.596,0.16,1.233,0.383,1.893,0.663c0.051,0.021,0.052,0.025,0.06,0.054c0.063,0.214,0.104,0.436,0.118,0.66l-0.081-0.025
		c-0.039-0.012-0.081-0.01-0.119,0.004c-0.097,0.036-0.146,0.144-0.109,0.24c0.011,0.028,0.021,0.056,0.033,0.083
		c0.029,0.069,0.057,0.134,0.062,0.199c0.018,0.212-0.015,0.423-0.095,0.627c-0.044-0.054-0.098-0.1-0.16-0.137
		c-0.027-0.016-0.06-0.024-0.095-0.024h-0.001c-0.049,0.001-0.094,0.021-0.127,0.056c-0.034,0.035-0.052,0.081-0.051,0.129
		c0.002,0.104-0.016,0.224-0.056,0.359l-0.223-0.038c-0.01-0.002-0.02-0.002-0.038-0.002c-0.096,0.005-0.17,0.086-0.165,0.183
		l0.003,0.057c0.015,0.29,0.038,0.727-0.11,0.935c-0.03-0.008-0.059-0.018-0.088-0.029c0.015-0.022,0.025-0.046,0.03-0.072
		c0.019-0.07-0.01-0.136-0.074-0.174c-0.046-0.026-0.092-0.036-0.128-0.044c-0.024-0.005-0.045-0.01-0.062-0.018
		c-0.15-0.071-0.31-0.12-0.472-0.143l0.013-0.078c0.008-0.095-0.063-0.179-0.158-0.188l-0.547-0.046
		c-0.002-0.01-0.004-0.02-0.005-0.031c-0.007-0.105-0.079-0.153-0.146-0.153c-0.028,0-0.056,0.007-0.084,0.022
		c-0.233,0.116-0.486,0.207-0.743,0.272c-0.255-0.156-0.481-0.247-0.668-0.27l-0.021-0.001c-0.079,0-0.142,0.061-0.143,0.138
		c-0.003,0.099,0.055,0.175,0.152,0.2c0.151,0.038,0.307,0.104,0.464,0.196c0.098,0.058,0.098,0.112,0.065,0.186
		c-0.076,0.169-0.205,0.251-0.395,0.251c-0.164,0-0.331-0.061-0.442-0.112c-0.096-0.044-0.241-0.111-0.383-0.111
		c-0.068,0-0.129,0.016-0.182,0.047c-0.341,0.204-0.654,0.44-0.957,0.669c-0.075,0.057-0.15,0.114-0.227,0.17
		c-0.15,0.112-0.318,0.207-0.479,0.297l-0.06,0.034c-0.19,0.108-0.466,0.147-0.813,0.117c-0.153-0.014-0.363-0.106-0.469-0.258
		c-0.055-0.079-0.071-0.162-0.049-0.247c0.118-0.435,0.342-0.813,0.667-1.125c0.637-0.609,1.294-0.948,1.955-1.006l0.023-0.004
		c0.037-0.01,0.068-0.033,0.087-0.066s0.024-0.072,0.015-0.108l-0.006-0.022c-0.018-0.071-0.082-0.121-0.155-0.121
		c-0.012,0-0.025,0.001-0.036,0.004c-0.078,0.018-0.156,0.034-0.233,0.049c-0.252,0.052-0.512,0.104-0.762,0.221
		c-0.281,0.131-0.542,0.326-0.795,0.514l-0.118,0.087c-0.1,0.073-0.242,0.147-0.333,0.147c-0.009,0-0.018,0-0.025-0.002
		c-0.008-0.04-0.007-0.08,0.002-0.122C138.49,139,138.543,138.49,138.542,137.97z M141.062,141.989l-0.006,0.115
		c-0.131-0.002-0.296-0.044-0.353-0.114c-0.017-0.021-0.021-0.043-0.014-0.074c0.002-0.003,0.005-0.003,0.006-0.003l0.002,0.001
		C140.812,141.977,140.933,142.003,141.062,141.989z M142.295,141.811l0.328-0.116c0.054,0.07,0.097,0.154,0.142,0.241
		c0.015,0.03,0.03,0.06,0.045,0.087c-0.145,0.057-0.305,0.093-0.475,0.107c-0.17,0.014-0.28-0.044-0.339-0.188
		C142.105,141.933,142.205,141.889,142.295,141.811z M143.636,141.012c-0.092,0.069-0.193,0.095-0.302,0.082
		c-0.066-0.009-0.13,0-0.19,0.025c-0.102,0.042-0.198,0.07-0.286,0.081c-0.17,0.021-0.287,0.108-0.388,0.198
		c-0.18,0.041-0.35,0.111-0.503,0.209c-0.059,0.002-0.112,0.013-0.163,0.022c-0.066,0.013-0.124,0.025-0.185,0.014
		c-0.074-0.013-0.162-0.027-0.25-0.027c-0.098,0-0.191,0.017-0.285,0.051c-0.001,0-0.01,0.003-0.032,0.003
		c-0.076,0-0.197-0.034-0.278-0.066c-0.082-0.032-0.176-0.021-0.249,0.026l-0.079,0.052c-0.044-0.135-0.127-0.243-0.247-0.323
		c0.313-0.245,0.639-0.488,0.969-0.722c0.047-0.034,0.099-0.063,0.155-0.087c0.065,0.022,0.13,0.052,0.197,0.083
		c0.076,0.036,0.154,0.072,0.238,0.099c0.122,0.039,0.25,0.072,0.382,0.097c0.026,0.005,0.052,0.008,0.079,0.008
		c0.224,0,0.446-0.18,0.569-0.333c0.125-0.157,0.174-0.316,0.146-0.475l0.387-0.141c0.019,0.022,0.042,0.04,0.068,0.051
		c0.047,0.021,0.105,0.034,0.18,0.041c0.1,0.008,0.204,0.015,0.312,0.019c-0.034,0.048-0.043,0.095-0.024,0.141
		c0.017,0.041,0.059,0.089,0.174,0.089l0,0c0.118-0.002,0.218-0.001,0.332,0.037c0.078,0.026,0.158,0.046,0.238,0.061
		c-0.01,0.015-0.017,0.032-0.021,0.049c-0.026,0.097,0.031,0.196,0.128,0.222l0.087,0.023c-0.003,0.014-0.004,0.028-0.004,0.042
		c0.003,0.062,0.036,0.114,0.089,0.144l-0.283-0.081c-0.108-0.031-0.229,0.014-0.291,0.107l-0.072,0.109
		C144.03,140.847,143.824,140.871,143.636,141.012z M139.827,141.608c0.028-0.017,0.056-0.033,0.085-0.049
		c0.031,0.063,0.055,0.128,0.072,0.196c-0.098-0.007-0.199-0.01-0.301-0.01c-0.034,0-0.068,0-0.104,0.001
		C139.665,141.703,139.747,141.655,139.827,141.608z M144.96,140.83c0.004,0,0.01,0.001,0.012,0l0.018,0
		c0.027,0,0.053,0.003,0.075,0.008c0.008,0.012,0.015,0.024,0.022,0.036c-0.026-0.013-0.054-0.024-0.081-0.031L144.96,140.83z
		 M147.327,137.508c-0.16,0.128-0.312,0.275-0.452,0.438c-0.007-0.244-0.038-0.472-0.095-0.682L147.327,137.508z M141.002,135.588
		l-0.253,0.008c0.049-0.053,0.099-0.113,0.126-0.187c0.003-0.008,0.006-0.016,0.008-0.023
		C140.917,135.461,140.958,135.527,141.002,135.588z M138.229,139.964c-0.211,0.265-0.374,0.569-0.486,0.906
		c-0.082,0.246-0.042,0.473,0.118,0.674c0.107,0.134,0.233,0.234,0.374,0.297c-0.041,0.006-0.082,0.013-0.123,0.02
		c-0.285,0.045-0.504,0.076-0.652,0.092c-0.28,0.029-0.563,0.067-0.842,0.112c0.03-0.088,0.065-0.175,0.106-0.261
		c0.224-0.471,0.452-0.934,0.788-1.415c0.165-0.237,0.33-0.488,0.494-0.75c0,0.083,0.018,0.169,0.065,0.232
		C138.11,139.923,138.165,139.956,138.229,139.964z M143.215,127.86c0.099-0.072,0.213-0.109,0.34-0.109
		c0.213,0,0.474,0.105,0.715,0.289c0.367,0.278,0.689,0.489,0.959,0.628c0.413,0.213,0.86,0.24,1.204,0.24
		c0.063,0,0.127-0.001,0.191-0.002c0.244-0.007,0.507-0.047,0.781-0.12c0.334-0.089,0.662-0.192,0.977-0.308
		c0.195-0.072,0.381-0.097,0.544-0.074c0.201,0.028,0.421,0.284,0.509,0.504c0.139,0.348,0.204,0.738,0.193,1.158
		c-0.026,1.08-0.078,2.496-0.237,3.884c-0.026,0.228-0.047,0.46-0.063,0.693c-0.051-0.05-0.099-0.104-0.143-0.165
		c-0.457-0.63-0.957-1.173-1.487-1.748c-0.094-0.101-0.188-0.203-0.281-0.306c-0.474-0.517-1.131-1.14-1.955-1.851
		c-0.861-0.743-1.835-1.386-2.893-1.911C142.708,128.344,142.926,128.074,143.215,127.86z"/>
	<path d="M135.878,131.769c-0.028-0.07-0.095-0.093-0.169-0.053c-0.044,0.023-0.084,0.049-0.12,0.078
		c-0.221,0.176-0.454,0.373-0.692,0.585c-0.109,0.097-0.188,0.175-0.24,0.238c-0.018,0.021-0.03,0.021-0.034,0.021
		c-0.008,0-0.019-0.003-0.03-0.01l-0.264-0.151c-0.004-0.002-0.008-0.005-0.01-0.006c0.002-0.002,0.004-0.005,0.008-0.009
		l0.036-0.03c0.089-0.077,0.212-0.182,0.226-0.307c0.002-0.017,0-0.033-0.008-0.047c-0.02-0.04-0.072-0.058-0.111-0.038
		c-0.125,0.061-0.232,0.157-0.322,0.286c-0.029,0.041-0.085,0.056-0.13,0.034c-0.11-0.055-0.231-0.091-0.359-0.107
		c-0.065-0.009-0.113,0.021-0.137,0.075c-0.005,0.01-0.009,0.021-0.01,0.029c-0.013,0.053,0.019,0.107,0.071,0.123l0.316,0.096
		c0.001,0,0.002,0,0.003,0.001c0,0-0.001,0.001-0.002,0.002l-0.229,0.269c-0.037,0.043-0.052,0.028-0.076,0.018
		c-0.099-0.042-0.208-0.064-0.322-0.064c-0.045,0-0.079,0.025-0.092,0.068c-0.019,0.06,0.009,0.113,0.076,0.141
		c0.074,0.031,0.148,0.052,0.216,0.057l-0.05,0.118c-0.016,0.035-0.009,0.061,0,0.077s0.026,0.036,0.063,0.042
		c0.104,0.021,0.155-0.05,0.196-0.104c0.048-0.064,0.075-0.085,0.146-0.055c0.08,0.035,0.123,0.025,0.145-0.014
		c0.022-0.04,0-0.085-0.023-0.124c-0.014-0.023-0.027-0.047-0.038-0.072c0.095-0.095,0.171-0.186,0.227-0.271
		c0.005-0.008,0.009-0.01,0.009-0.01c0,0,0.005,0,0.013,0.005l0.306,0.176c-0.146,0.153-0.292,0.325-0.435,0.512
		c-0.024,0.032-0.045,0.065-0.062,0.099c-0.028,0.055-0.019,0.109,0.031,0.153c0.021,0.016,0.046,0.024,0.072,0.024
		c0.038,0,0.073-0.017,0.095-0.047c0.465-0.603,1.031-1.17,1.682-1.686C135.882,131.861,135.896,131.811,135.878,131.769z"/>
</g>
</svg>
