<?xml version="1.0" encoding="utf-8"?>
<!-- Generator: Adobe Illustrator 16.0.0, SVG Export Plug-In . SVG Version: 6.00 Build 0)  -->
<!DOCTYPE svg PUBLIC "-//W3C//DTD SVG 1.1//EN" "http://www.w3.org/Graphics/SVG/1.1/DTD/svg11.dtd">
<svg version="1.1" id="SAO" xmlns="http://www.w3.org/2000/svg" xmlns:xlink="http://www.w3.org/1999/xlink" x="0px" y="0px"
	 width="288px" height="288px" viewBox="0 0 288 288" enable-background="new 0 0 288 288" xml:space="preserve">
<g id="Silver">
	<g>
		<path d="M147.973,157.123c-0.035-0.147-0.072-0.308-0.112-0.478c-0.041-0.171-0.084-0.353-0.131-0.543
			c-0.048-0.191-0.104-0.39-0.162-0.598c-0.059-0.207-0.119-0.424-0.182-0.647c-0.069-0.222-0.14-0.451-0.213-0.688
			c-0.036-0.118-0.073-0.237-0.111-0.358c-0.039-0.12-0.08-0.242-0.12-0.365c-0.081-0.245-0.168-0.495-0.255-0.75
			c-0.179-0.507-0.37-1.029-0.566-1.558c-0.197-0.527-0.39-1.067-0.583-1.607c-0.094-0.265-0.176-0.541-0.264-0.81
			c-0.038-0.136-0.078-0.271-0.117-0.405c-0.09,0.016-0.181,0.03-0.271,0.044c0.039,0.146,0.078,0.293,0.115,0.44
			c0.083,0.276,0.158,0.552,0.247,0.83c0.087,0.262,0.173,0.523,0.258,0.784l-0.939-2.013c-0.027,0.003-0.055,0.005-0.082,0.007
			l0.962,2.062l-0.021,0.003l-1.6-0.497l-0.008-0.011l-0.001,0.001l0.585-1.55c-0.028,0.003-0.056,0.006-0.084,0.008l-0.514,1.362
			c-0.003-0.449-0.006-0.896-0.009-1.339c-0.041,0.001-0.082,0.002-0.123,0.002c-0.042,0-0.083-0.002-0.124-0.003
			c-0.003,0.438-0.005,0.881-0.008,1.325l-0.51-1.35c-0.028-0.002-0.056-0.004-0.084-0.007l0.58,1.536l-0.001-0.001l-0.008,0.011
			l-1.6,0.497l-0.021-0.003l0.957-2.047c-0.027-0.003-0.054-0.005-0.081-0.008l-0.934,1.999c0.086-0.261,0.172-0.522,0.258-0.784
			c0.09-0.278,0.165-0.554,0.248-0.83c0.037-0.143,0.075-0.285,0.112-0.427c-0.091-0.014-0.181-0.03-0.271-0.046
			c-0.038,0.131-0.077,0.262-0.114,0.394c-0.088,0.27-0.17,0.545-0.264,0.81c-0.193,0.54-0.385,1.08-0.583,1.607
			c-0.196,0.528-0.388,1.051-0.566,1.558c-0.087,0.255-0.174,0.504-0.254,0.751c-0.041,0.122-0.081,0.244-0.121,0.364
			c-0.037,0.121-0.074,0.24-0.111,0.358c-0.073,0.236-0.144,0.466-0.212,0.688c-0.063,0.224-0.124,0.44-0.182,0.647
			c-0.058,0.208-0.114,0.407-0.162,0.598c-0.046,0.19-0.09,0.372-0.131,0.543c-0.04,0.17-0.078,0.33-0.112,0.478
			c-0.032,0.148-0.056,0.286-0.081,0.409c-0.094,0.495-0.141,0.778-0.141,0.778l0.037,0.008c0,0,0.04-0.121,0.11-0.343l0.02,0.025
			l2.277-1.855l1.998,4.175l0.067-0.032l0.097,0.047l1.997-4.175l2.277,1.855l0.02-0.025c-0.001-0.003-0.002-0.006-0.003-0.009
			c0.072,0.228,0.113,0.352,0.113,0.352l0.037-0.008c0,0-0.047-0.283-0.141-0.778C148.028,157.409,148.005,157.271,147.973,157.123z
			 M143.536,150.19c0,0.066-0.001,0.134-0.001,0.2c-0.001,0.115-0.002,0.229-0.003,0.345l-0.358-0.062L143.536,150.19z
			 M143.237,153.695l0.262,0.535l0.012-0.006c0,0.034,0,0.068,0.001,0.103l-2.289-0.417L143.237,153.695z M140.956,153.861
			l-0.148-0.027l1.511-2.019l0.882,1.807L140.956,153.861z M143.398,153.678l0.112-0.012c0,0.08,0,0.159-0.001,0.238
			L143.398,153.678z M143.511,153.589l-0.148,0.016l-0.941-1.926l0.649-0.867l0.46,0.079c-0.004,0.449-0.008,0.897-0.012,1.341
			C143.516,152.69,143.514,153.145,143.511,153.589z M143.438,150.066l-0.433,0.579l-0.922-0.158L143.438,150.066z M142.901,150.783
			l-0.555,0.74l-0.446-0.912L142.901,150.783z M141.031,152.813c0.176-0.508,0.352-1.033,0.529-1.57
			c0.063-0.194,0.128-0.39,0.192-0.586l0.491,1.005l-1.52,2.029C140.825,153.405,140.929,153.112,141.031,152.813z M139.4,157.62
			c0.007-0.023,0.014-0.046,0.021-0.069c0.037-0.119,0.075-0.253,0.122-0.396c0.047-0.143,0.098-0.298,0.153-0.464
			c0.054-0.165,0.11-0.342,0.17-0.528c0.063-0.185,0.13-0.379,0.2-0.582c0.136-0.406,0.29-0.845,0.453-1.308
			c0.027-0.08,0.056-0.161,0.084-0.242c-0.002,0.007-0.005,0.014-0.007,0.021l0.893,1.865L139.4,157.62z M140.863,154.077
			l2.647,0.483l-0.292-0.054l-1.546,1.261L140.863,154.077z M141.774,155.98l1.739-1.417c0.001,0.119,0.002,0.236,0.003,0.353
			c0,0.266,0.001,0.525,0.005,0.778c0.003,0.265,0.006,0.522,0.009,0.772c0.004,0.249,0.008,0.489,0.013,0.721
			c0.007,0.463,0.022,0.887,0.031,1.263c0.005,0.188,0.01,0.363,0.014,0.526c0.006,0.162,0.012,0.312,0.017,0.446
			c0.007,0.16,0.012,0.301,0.017,0.418L141.774,155.98z M145.589,150.671c0.064,0.195,0.129,0.392,0.192,0.586
			c0.177,0.537,0.354,1.063,0.529,1.57c0.103,0.3,0.206,0.592,0.307,0.878l-1.52-2.029L145.589,150.671z M143.83,153.604
			c-0.002-0.444-0.005-0.898-0.007-1.357c-0.004-0.443-0.008-0.892-0.012-1.341l0.46-0.079l0.648,0.867l-0.94,1.926L143.83,153.604z
			 M143.943,153.692l-0.111,0.227c0-0.079-0.001-0.158-0.001-0.238L143.943,153.692z M143.831,154.239l0.012,0.006l0.262-0.535
			l2.015,0.215l-2.289,0.417C143.831,154.308,143.831,154.273,143.831,154.239z M144.14,153.637l0.882-1.807l1.512,2.019
			l-0.148,0.027L144.14,153.637z M145.44,150.626l-0.445,0.912l-0.555-0.741L145.44,150.626z M145.259,150.502l-0.922,0.158
			l-0.434-0.579L145.259,150.502z M144.167,150.689l-0.358,0.061c-0.001-0.114-0.002-0.229-0.003-0.344
			c0-0.067-0.001-0.135-0.001-0.201L144.167,150.689z M143.719,159.857c0.005-0.123,0.011-0.274,0.018-0.449
			c0.005-0.135,0.011-0.284,0.017-0.447c0.004-0.162,0.009-0.338,0.014-0.526c0.009-0.376,0.024-0.8,0.031-1.262
			c0.004-0.231,0.008-0.473,0.013-0.722c0.002-0.249,0.005-0.507,0.008-0.771c0.003-0.237,0.004-0.48,0.005-0.728
			c0.001-0.124,0.002-0.248,0.002-0.374l1.739,1.417L143.719,159.857z M145.669,155.782l-1.546-1.261l2.355-0.429L145.669,155.782z
			 M145.852,155.932l0.894-1.866c-0.003-0.007-0.005-0.014-0.008-0.021c0.028,0.081,0.057,0.162,0.085,0.242
			c0.163,0.463,0.316,0.901,0.453,1.308c0.069,0.203,0.136,0.397,0.199,0.583c0.061,0.186,0.117,0.362,0.17,0.527
			c0.055,0.166,0.106,0.321,0.153,0.465s0.085,0.276,0.122,0.396c0.007,0.024,0.014,0.047,0.021,0.069L145.852,155.932z"/>
		<path d="M144.488,145.53c-0.052-0.253-0.1-0.501-0.145-0.743c-0.074-0.367-0.13-0.721-0.193-1.056
			c-0.048,0.007-0.097,0.013-0.146,0.017c0.035,0.22,0.066,0.449,0.101,0.687l-0.208-0.603l0.014-0.077
			c-0.04,0.003-0.079,0.005-0.119,0.006l0.026,0.077l-0.056,0.31c-0.001-0.131-0.002-0.26-0.003-0.386
			c-0.029,0-0.058,0.002-0.088,0.002c-0.029,0-0.059-0.002-0.088-0.003c-0.001,0.122-0.002,0.246-0.003,0.373l-0.056-0.311
			l0.021-0.063c-0.037-0.001-0.075-0.002-0.112-0.004l0.011,0.062l-0.208,0.603c0.034-0.232,0.065-0.458,0.099-0.673
			c-0.049-0.005-0.098-0.009-0.146-0.016c-0.062,0.331-0.117,0.68-0.19,1.042c-0.045,0.241-0.093,0.489-0.145,0.742
			c-0.018,0.088-0.036,0.179-0.054,0.268c0.068,0.011,0.138,0.02,0.207,0.027c0.015-0.086,0.03-0.173,0.045-0.258
			c0.02-0.113,0.04-0.225,0.059-0.336l0.13,0.488l-0.047,0.124c0.027,0.003,0.053,0.005,0.08,0.007l0.001-0.004l0.001,0.004
			c0.027,0.002,0.054,0.005,0.081,0.006l-0.036-0.134l0.238-0.634l0.013,0.004c-0.002,0.251-0.004,0.508-0.006,0.771
			c0.035,0.001,0.07,0.003,0.105,0.003s0.07-0.002,0.105-0.003c-0.002-0.258-0.004-0.51-0.006-0.756l0.014-0.004l0.237,0.634
			l-0.031,0.119c0.051-0.003,0.102-0.008,0.153-0.012l-0.041-0.11l0.13-0.488c0.019,0.111,0.039,0.223,0.059,0.336
			c0.014,0.081,0.029,0.162,0.043,0.244c0.069-0.009,0.139-0.017,0.207-0.027C144.521,145.699,144.505,145.613,144.488,145.53z
			 M143.287,145.58l-0.146-0.549c0.005-0.03,0.009-0.06,0.014-0.089l0.331,0.107L143.287,145.58z M143.574,144.813l-0.062,0.166
			l-0.275-0.09l0.337-0.108C143.574,144.79,143.574,144.802,143.574,144.813z M143.575,144.699l-0.398,0.129l0.295-0.857
			l0.104,0.572C143.576,144.595,143.575,144.646,143.575,144.699z M143.765,144.558l0.104-0.572l0.295,0.857l-0.398-0.129
			C143.766,144.661,143.766,144.609,143.765,144.558z M143.767,144.827c0-0.011,0-0.021,0-0.032l0.336,0.108l-0.274,0.09
			L143.767,144.827z M144.054,145.595l-0.198-0.53l0.331-0.107c0.005,0.029,0.009,0.059,0.014,0.089L144.054,145.595z"/>
		<path d="M143.607,141.1c-0.004,0.063-0.009,0.133-0.014,0.207c0.025,0.002,0.051,0.005,0.077,0.005s0.051-0.002,0.077-0.004
			c-0.005-0.068-0.009-0.133-0.014-0.192c-0.003-0.369-0.005-0.575-0.005-0.575s-0.001-0.01-0.003-0.025
			c0.165-0.026,0.291-0.167,0.291-0.339c0-0.191-0.154-0.345-0.345-0.345c-0.19,0-0.345,0.154-0.345,0.345
			c0,0.171,0.125,0.313,0.289,0.339c0,0.006-0.001,0.011-0.001,0.011S143.611,140.731,143.607,141.1z M143.761,139.901
			c0.073,0,0.133,0.054,0.133,0.122s-0.06,0.122-0.133,0.122c-0.074,0-0.134-0.055-0.134-0.122S143.688,139.901,143.761,139.901z"/>
		<path d="M144.087,143.422c-0.084-0.421-0.162-0.807-0.217-1.151c-0.03-0.171-0.049-0.333-0.072-0.482
			c-0.014-0.127-0.027-0.244-0.04-0.354c-0.029,0.002-0.059,0.005-0.088,0.005c-0.03,0-0.06-0.003-0.089-0.005
			c-0.012,0.105-0.024,0.217-0.039,0.339c-0.022,0.149-0.042,0.311-0.072,0.482c-0.055,0.344-0.133,0.73-0.217,1.151
			c-0.009,0.044-0.018,0.089-0.027,0.134c0.046,0.006,0.093,0.011,0.14,0.016c0.005-0.029,0.009-0.058,0.014-0.086l0.017,0.09
			c0.026,0.002,0.052,0.003,0.078,0.004l-0.043-0.242l0.154,0.02c0,0.022,0,0.043,0,0.065l-0.055,0.16
			c0.046,0.002,0.093,0.005,0.14,0.005c0.045,0,0.09-0.001,0.135-0.003l-0.051-0.146c0-0.021,0-0.043,0-0.064l0.154-0.02
			l-0.041,0.228c0.026-0.001,0.052-0.003,0.078-0.006l0.014-0.075c0.004,0.024,0.008,0.049,0.013,0.073
			c0.046-0.004,0.093-0.009,0.139-0.016C144.104,143.502,144.096,143.461,144.087,143.422z M143.587,143.266l-0.168-0.021
			c0.059-0.351,0.112-0.678,0.149-0.974c0.012-0.085,0.022-0.168,0.03-0.248C143.596,142.385,143.591,142.802,143.587,143.266z
			 M143.754,143.28c-0.004-0.463-0.008-0.881-0.012-1.243c0.009,0.08,0.019,0.163,0.031,0.249c0.038,0.295,0.091,0.622,0.149,0.973
			L143.754,143.28z"/>
		<path d="M145.041,147.906c-0.146-0.542-0.277-1.08-0.391-1.604c-0.02-0.091-0.039-0.18-0.059-0.269
			c-0.07,0.012-0.142,0.021-0.213,0.029c0.018,0.095,0.036,0.188,0.054,0.284c0.036,0.187,0.075,0.376,0.115,0.566l-0.313-0.835
			c-0.026,0.003-0.053,0.004-0.079,0.007l0.382,1.021l-0.723-0.315l0.185-0.693c-0.027,0.001-0.054,0.001-0.08,0.002l-0.138,0.519
			c-0.001-0.174-0.003-0.345-0.004-0.515c-0.036,0.001-0.071,0.003-0.107,0.003c-0.036,0-0.072-0.002-0.107-0.003
			c-0.001,0.165-0.002,0.331-0.004,0.5l-0.134-0.503c-0.026-0.001-0.053-0.002-0.08-0.003l0.181,0.679l-0.723,0.315l0.376-1.007
			c-0.026-0.003-0.053-0.004-0.079-0.007l-0.307,0.82c0.04-0.19,0.079-0.38,0.114-0.566c0.018-0.091,0.035-0.18,0.052-0.27
			c-0.072-0.009-0.143-0.018-0.214-0.028c-0.019,0.084-0.037,0.168-0.055,0.253c-0.113,0.523-0.246,1.062-0.391,1.604
			c-0.01,0.037-0.021,0.074-0.031,0.111c0.087,0.016,0.175,0.03,0.264,0.043c0.007-0.029,0.015-0.059,0.022-0.088
			c0.028-0.119,0.056-0.236,0.083-0.354l0.182,0.48c0.028,0.003,0.056,0.005,0.084,0.008l-0.235-0.623
			c0.007-0.032,0.014-0.064,0.021-0.097l0.523,0.078l-0.3,0.642c0.027,0.003,0.054,0.005,0.082,0.007l0.297-0.637l0.26,0.039
			c-0.001,0.207-0.002,0.415-0.004,0.626c0.041,0,0.081,0.003,0.121,0.003s0.081-0.002,0.121-0.002
			c-0.001-0.206-0.002-0.41-0.003-0.612l0.26-0.039l0.292,0.624c0.027-0.003,0.054-0.005,0.081-0.008l-0.293-0.628l0.523-0.078
			c0.007,0.032,0.015,0.064,0.021,0.097l-0.229,0.607c0.028-0.002,0.056-0.005,0.084-0.008l0.176-0.465
			c0.027,0.117,0.055,0.235,0.083,0.354c0.006,0.025,0.013,0.051,0.02,0.076c0.088-0.013,0.176-0.026,0.264-0.042
			C145.06,147.973,145.05,147.939,145.041,147.906z M142.748,147.115L142.748,147.115L142.748,147.115
			C142.748,147.116,142.748,147.116,142.748,147.115z M143.248,147.378l-0.541-0.081c0.007-0.029,0.013-0.059,0.02-0.088
			l0.753-0.328L143.248,147.378z M143.554,147.424l-0.227-0.034l0.23-0.493C143.556,147.071,143.555,147.246,143.554,147.424z
			 M144.593,147.13C144.594,147.13,144.594,147.131,144.593,147.13L144.593,147.13L144.593,147.13z M143.788,147.438
			c-0.001-0.178-0.002-0.353-0.003-0.527l0.23,0.493L143.788,147.438z M144.093,147.393l-0.232-0.497l0.752,0.328
			c0.007,0.029,0.014,0.059,0.021,0.089L144.093,147.393z"/>
	</g>
	<g id="Lighning">
		<polygon points="140.991,144.583 142.653,141.015 140.543,142.987 139.551,141.926 137.89,145.494 139.999,143.521 		"/>
		<polygon points="138.067,141.315 141.837,140.186 138.961,139.921 139.095,138.474 135.324,139.604 138.2,139.869 		"/>
		<polygon points="139.407,137.839 143.009,139.426 140.993,137.358 142.034,136.344 138.432,134.756 140.448,136.825 		"/>
		<polygon points="144.719,135.108 144.082,138.992 145.58,136.523 146.822,137.278 147.459,133.394 145.961,135.862 		"/>
		<polygon points="148.665,138.564 145.005,140.011 147.893,140.03 147.884,141.483 151.544,140.036 148.656,140.017 		"/>
		<polygon points="148.892,144.547 145.811,142.096 147.235,144.609 145.971,145.325 149.052,147.775 147.627,145.264 		"/>
	</g>
</g>
<g id="Black">
	<g>
		<g id="Outer">
			<path d="M147.602,133.32c2.306,1.323,3.887,3.769,3.99,6.587l0.32,0.002c-0.104-2.98-1.796-5.563-4.256-6.927L147.602,133.32z"/>
			<path d="M137.757,145.475c-1.252-1.402-2.015-3.25-2.015-5.273c0-0.144,0.004-0.287,0.012-0.429l-0.32-0.029
				c-0.008,0.152-0.013,0.304-0.013,0.458c0,2.155,0.832,4.118,2.189,5.589L137.757,145.475z"/>
			<path d="M135.791,139.33c0.203-1.846,1.042-3.504,2.292-4.748l-0.206-0.21l0.292,0.128c1.427-1.377,3.366-2.227,5.501-2.227
				c1.354,0,2.629,0.342,3.747,0.943l0.167-0.275c-1.165-0.63-2.498-0.989-3.914-0.989c-4.288,0-7.821,3.29-8.212,7.478
				L135.791,139.33z"/>
			<path d="M151.598,140.152c0,0.016,0.001,0.033,0.001,0.049c0,2.566-1.226,4.85-3.122,6.299l0.16,0.282
				c1.993-1.507,3.283-3.896,3.283-6.582c0-0.059-0.003-0.117-0.005-0.175L151.598,140.152z"/>
			<path d="M147.815,146.957c-1.207,0.743-2.626,1.173-4.145,1.173c-2.265,0-4.309-0.956-5.755-2.484l-0.234,0.22
				c1.505,1.59,3.632,2.585,5.989,2.585c1.622,0,3.133-0.472,4.411-1.282L147.815,146.957z"/>
		</g>
		<g id="_x33_rd_ring">
			<path d="M140.5,135.528c0.905-0.615,1.996-0.976,3.17-0.976c0.921,0,1.792,0.223,2.561,0.616l0.134-0.22
				c-0.809-0.417-1.725-0.653-2.695-0.653c-1.284,0-2.473,0.413-3.443,1.112L140.5,135.528z"/>
			<path d="M147.196,135.792c1.218,0.976,2.025,2.444,2.115,4.101l0.257,0.001c-0.092-1.789-0.984-3.37-2.324-4.391L147.196,135.792
				z"/>
			<path d="M149.251,141.08c-0.155,0.994-0.572,1.902-1.176,2.653l0.2,0.16c0.661-0.823,1.105-1.825,1.249-2.922L149.251,141.08z"/>
			<path d="M145.866,145.406c-0.675,0.286-1.417,0.444-2.196,0.444c-1.609,0-3.062-0.677-4.092-1.76l-0.187,0.175
				c1.077,1.133,2.596,1.842,4.279,1.842c0.862,0,1.682-0.188,2.421-0.521L145.866,145.406z"/>
			<path d="M138.156,141.423l-0.234,0.07l0.104-1.128c-0.001-0.054-0.004-0.108-0.004-0.163c0-0.074,0.002-0.147,0.005-0.22
				l-0.256-0.023c-0.003,0.081-0.006,0.161-0.006,0.243c0,1.183,0.351,2.286,0.953,3.21l0.128-0.275
				C138.527,142.615,138.292,142.038,138.156,141.423z"/>
			<path d="M138.256,138.591c0.271-0.909,0.764-1.723,1.417-2.377l-0.179-0.184c-0.722,0.723-1.257,1.632-1.529,2.648
				L138.256,138.591z"/>
		</g>
		<g id="Second_ring">
			<path d="M146.443,142.436c0.494-0.612,0.79-1.389,0.79-2.234c0-0.016-0.001-0.032-0.001-0.048l-0.192-0.001
				c0,0.016,0.001,0.032,0.001,0.049c0,0.8-0.281,1.535-0.748,2.114L146.443,142.436z"/>
			<path d="M146.867,139.137l0.18-0.071c-0.286-0.848-0.884-1.555-1.656-1.982l-0.1,0.165
				C146.028,137.653,146.597,138.327,146.867,139.137z"/>
			<path d="M141.464,137.657c0.592-0.514,1.363-0.826,2.207-0.826c0.214,0,0.423,0.021,0.626,0.059l0.031-0.19
				c-0.213-0.04-0.433-0.062-0.657-0.062c-0.896,0-1.714,0.333-2.341,0.88L141.464,137.657z"/>
			<path d="M140.122,139.898l0.191,0.018c0.042-0.489,0.187-0.948,0.415-1.355l-0.177-0.078
				C140.315,138.91,140.165,139.389,140.122,139.898z"/>
			<path d="M145.979,142.653c-0.604,0.569-1.416,0.918-2.309,0.918c-0.669,0-1.293-0.197-1.818-0.535l-0.082,0.176
				c0.55,0.348,1.202,0.551,1.9,0.551c0.927,0,1.772-0.356,2.407-0.938L145.979,142.653z"/>
			<path d="M140.163,140.821c0.108,0.615,0.375,1.176,0.755,1.64l0.141-0.132c-0.361-0.442-0.611-0.977-0.71-1.563L140.163,140.821z
				"/>
		</g>
		<g id="Center">
			<path d="M143.053,139.288c0.176-0.124,0.389-0.196,0.618-0.196c0.09,0,0.176,0.012,0.26,0.032l0.021-0.126
				c-0.09-0.022-0.184-0.034-0.281-0.034c-0.264,0-0.508,0.086-0.708,0.231L143.053,139.288z"/>
			<path d="M144.739,139.978l0.121-0.047c-0.084-0.379-0.34-0.693-0.68-0.854l-0.067,0.111
				C144.43,139.332,144.668,139.624,144.739,139.978z"/>
			<g>
				<path d="M142.732,140.765c-0.097-0.166-0.153-0.357-0.153-0.563c0-0.271,0.096-0.519,0.255-0.712l-0.121-0.053
					c-0.164,0.211-0.262,0.476-0.262,0.765c0,0.24,0.068,0.463,0.185,0.653L142.732,140.765z"/>
				<path d="M144.888,140.138l-0.129,0c0.001,0.021,0.003,0.042,0.003,0.064c0,0.612-0.489,1.11-1.091,1.11
					c-0.333,0-0.631-0.153-0.832-0.393l-0.059,0.126c0.223,0.242,0.539,0.395,0.891,0.395c0.672,0,1.22-0.556,1.22-1.238
					C144.891,140.18,144.888,140.159,144.888,140.138z"/>
			</g>
		</g>
	</g>
</g>
</svg>
