<?xml version="1.0" encoding="utf-8"?>
<!-- Generator: Adobe Illustrator 16.0.0, SVG Export Plug-In . SVG Version: 6.00 Build 0)  -->
<!DOCTYPE svg PUBLIC "-//W3C//DTD SVG 1.1//EN" "http://www.w3.org/Graphics/SVG/1.1/DTD/svg11.dtd">
<svg version="1.1" id="_x32__Color" xmlns="http://www.w3.org/2000/svg" xmlns:xlink="http://www.w3.org/1999/xlink" x="0px"
	 y="0px" width="252px" height="252px" viewBox="0 0 252 252" enable-background="new 0 0 252 252" xml:space="preserve">
<ellipse id="Inner_circle_2_" cx="124.885" cy="115.656" rx="4.227" ry="1.242"/>
<g id="Second_Ring_2_">
	<path d="M124.703,113.646c-2.922,0-5.29,0.917-5.29,2.048c0,0.178,0.035,0.294,0.144,0.458c0.249,0.093,0.562,0.234,0.885,0.31
		c-0.302-0.233-0.472-0.496-0.472-0.772c0-0.98,2.123-1.774,4.742-1.774s4.742,0.794,4.742,1.774c0,0.244-0.132,0.476-0.368,0.687
		c0.264-0.06,0.515-0.125,0.75-0.194c0.002,0,0.004-0.001,0.006-0.002c0.098-0.156,0.15-0.318,0.15-0.486
		C129.992,114.563,127.624,113.646,124.703,113.646z"/>
</g>
<g id="Third_ring_2_">
	<path d="M131.166,115.743c0.017-0.066,0.027-0.133,0.027-0.2c0-1.264-2.935-2.289-6.554-2.289s-6.543,0.896-6.543,2.16
		c0,0.06-0.014,0.158-0.004,0.188c0.211,0.085,0.348,0.185,0.605,0.259c-0.022-0.14-0.031-0.134-0.031-0.306
		c0-1.151,2.678-2.083,5.981-2.083c3.303,0,5.981,0.933,5.981,2.083c0,0.134-0.037,0.264-0.106,0.391
		C130.75,115.882,130.966,115.814,131.166,115.743z"/>
</g>
<g id="forth_ring_2_">
	<path d="M132.222,114.893c-1.025-1.168-4.127-2.017-7.795-2.017c-3.743,0-6.845,1.014-7.2,2.086
		c-0.023,0.044,0.256,0.318,0.471,0.459c0.002-0.038,0.001-0.059,0.001-0.096c0-1.215,3.122-2.195,6.998-2.195
		c3.876,0,7.018,0.985,7.018,2.199c0,0.01-0.002,0.019-0.003,0.028C131.932,115.206,132.103,115.05,132.222,114.893z"/>
</g>
<path d="M132.64,137.274c-0.019-0.028-0.035-0.055-0.052-0.081c-0.135,0.124-0.279,0.257-0.402,0.37
	c-0.005,0.006-0.009,0.009-0.009,0.009c-0.083,0.083-0.17,0.162-0.26,0.239c-0.013,0.012-0.021,0.021-0.021,0.021l-0.001-0.002
	c-2.518,2.134-7.352,1.944-7.352,1.944c-3.74,0.013-5.643-0.942-6.497-1.581l-0.006,0.001c0,0-0.028-0.023-0.076-0.064
	c-0.126-0.099-0.225-0.188-0.301-0.263c-0.215-0.192-0.484-0.444-0.702-0.685c-0.399,0.606,0.164,1.202,0.164,1.202
	c1.369,2.068,7.521,2.161,7.521,2.161c5.916,0.185,7.974-2.366,7.974-2.366C133.103,137.696,132.64,137.274,132.64,137.274z"/>
<circle cx="124.804" cy="128.99" r="2.294"/>
<g>
	<path d="M132.588,137.193c-0.001,0.002-0.002,0.003-0.004,0.004c0.019,0.024,0.037,0.049,0.056,0.077
		C132.621,137.246,132.604,137.22,132.588,137.193z"/>
	<polygon points="132.186,137.563 132.186,137.563 132.186,137.563 	"/>
	<path d="M132.353,136.961v0.449c-0.016,0.014-0.029,0.027-0.045,0.041c0.09-0.083,0.186-0.17,0.276-0.254
		C132.499,137.087,132.417,137.011,132.353,136.961z"/>
</g>
<g>
	<path d="M116.961,137.183c0.007-0.011,0.012-0.021,0.02-0.032c0,0,0.045-0.071,0.107-0.146v0.313L116.961,137.183z"/>
</g>
<path d="M132.989,115.026c0-1.618-3.556-2.839-8.272-2.839c-4.768,0-8.227,1.16-8.227,2.759c0,0.394,0.198,0.758,0.58,1.084
	l0.003,0.206h0.001l0.012,0.623h0v10.167h0.002v10.292c0.078,0.08,0.159,0.161,0.24,0.239v-0.615c1.831,1.264,4.458,2.06,7.387,2.06
	c2.933,0,5.567-0.798,7.398-2.064v0.693c0.021-0.021,0.043-0.038,0.063-0.059c0,0,0.004-0.003,0.01-0.009
	c0.052-0.048,0.108-0.101,0.166-0.153v-10.526h0.005l-0.006-4.216v-3.903c-0.002-0.001-0.004-0.002-0.005-0.004l-0.004-2.114h0.003
	v-0.316c0,0-0.001,0-0.001,0l0.001-0.195C132.755,115.819,132.989,115.451,132.989,115.026z M124.715,138.662
	c-2.928,0-5.556-0.796-7.387-2.059v-9.506c1.148,0.803,2.618,1.417,4.28,1.765c0.034-1.736,1.451-3.134,3.195-3.134
	c1.738,0,3.151,1.388,3.195,3.116c1.589-0.345,2.998-0.934,4.114-1.696v9.449l0,0C130.282,137.864,127.648,138.662,124.715,138.662z
	 M130.718,117.997l0.006,0.006c-1.569,0.52-3.675,0.837-5.99,0.837c-2.426,0-4.622-0.349-6.211-0.914
	c-0.757-0.298-1.204-0.665-1.316-0.763v-0.349l0.005-0.003c0.056,0.083,0.131,0.164,0.212,0.237
	c0.417,0.414,1.939,1.349,7.232,1.506c0,0,5.632,0.085,7.567-1.687l0.001,0.352C131.702,117.656,130.718,117.997,130.718,117.997z
	 M124.661,117.097c-4.195,0-7.601-1.394-7.601-2.303c0-0.883,3.246-2.248,7.56-2.248c4.255,0,7.847,1.398,7.847,2.275
	S128.894,117.097,124.661,117.097z"/>
</svg>
