%TF.GenerationSoftware,KiCad,Pcbnew,7.0.6*%
%TF.CreationDate,2023-07-13T14:25:20-05:00*%
%TF.ProjectId,SAO_AMAMW,53414f5f-414d-4414-9d57-2e6b69636164,rev?*%
%TF.SameCoordinates,Original*%
%TF.FileFunction,Paste,Bot*%
%TF.FilePolarity,Positive*%
%FSLAX46Y46*%
G04 Gerber Fmt 4.6, Leading zero omitted, Abs format (unit mm)*
G04 Created by KiCad (PCBNEW 7.0.6) date 2023-07-13 14:25:20*
%MOMM*%
%LPD*%
G01*
G04 APERTURE LIST*
G04 Aperture macros list*
%AMRoundRect*
0 Rectangle with rounded corners*
0 $1 Rounding radius*
0 $2 $3 $4 $5 $6 $7 $8 $9 X,Y pos of 4 corners*
0 Add a 4 corners polygon primitive as box body*
4,1,4,$2,$3,$4,$5,$6,$7,$8,$9,$2,$3,0*
0 Add four circle primitives for the rounded corners*
1,1,$1+$1,$2,$3*
1,1,$1+$1,$4,$5*
1,1,$1+$1,$6,$7*
1,1,$1+$1,$8,$9*
0 Add four rect primitives between the rounded corners*
20,1,$1+$1,$2,$3,$4,$5,0*
20,1,$1+$1,$4,$5,$6,$7,0*
20,1,$1+$1,$6,$7,$8,$9,0*
20,1,$1+$1,$8,$9,$2,$3,0*%
G04 Aperture macros list end*
%ADD10RoundRect,0.250000X-0.350000X-0.450000X0.350000X-0.450000X0.350000X0.450000X-0.350000X0.450000X0*%
%ADD11R,1.000000X1.570000*%
%ADD12RoundRect,0.250000X-0.337500X-0.475000X0.337500X-0.475000X0.337500X0.475000X-0.337500X0.475000X0*%
%ADD13RoundRect,0.250000X0.350000X0.450000X-0.350000X0.450000X-0.350000X-0.450000X0.350000X-0.450000X0*%
%ADD14R,1.570000X1.000000*%
%ADD15RoundRect,0.250000X-0.475000X0.337500X-0.475000X-0.337500X0.475000X-0.337500X0.475000X0.337500X0*%
%ADD16RoundRect,0.250000X0.450000X-0.350000X0.450000X0.350000X-0.450000X0.350000X-0.450000X-0.350000X0*%
%ADD17R,2.540000X5.500000*%
%ADD18R,0.700000X0.340000*%
G04 APERTURE END LIST*
D10*
%TO.C,R1*%
X133112000Y-68326000D03*
X135112000Y-68326000D03*
%TD*%
D11*
%TO.C,D4*%
X146360000Y-87376000D03*
X148280000Y-87376000D03*
%TD*%
D12*
%TO.C,C1*%
X139932500Y-101803200D03*
X142007500Y-101803200D03*
%TD*%
D13*
%TO.C,R4*%
X144845000Y-87315000D03*
X142845000Y-87315000D03*
%TD*%
D14*
%TO.C,D3*%
X150876000Y-107640000D03*
X150876000Y-105720000D03*
%TD*%
D15*
%TO.C,C3*%
X130810000Y-102035700D03*
X130810000Y-104110700D03*
%TD*%
D12*
%TO.C,C4*%
X136122500Y-95453200D03*
X138197500Y-95453200D03*
%TD*%
D13*
%TO.C,R5*%
X155178000Y-70739000D03*
X153178000Y-70739000D03*
%TD*%
D16*
%TO.C,R8*%
X128778000Y-128000000D03*
X128778000Y-126000000D03*
%TD*%
D10*
%TO.C,R7*%
X139970000Y-99263200D03*
X141970000Y-99263200D03*
%TD*%
D17*
%TO.C,L1*%
X140400000Y-106883200D03*
X136460000Y-106883200D03*
%TD*%
D10*
%TO.C,R6*%
X136160000Y-97993200D03*
X138160000Y-97993200D03*
%TD*%
D11*
%TO.C,D2*%
X122118000Y-91694000D03*
X120198000Y-91694000D03*
%TD*%
%TO.C,D1*%
X133152000Y-65786000D03*
X135072000Y-65786000D03*
%TD*%
D13*
%TO.C,R3*%
X145780000Y-108204000D03*
X143780000Y-108204000D03*
%TD*%
D14*
%TO.C,D5*%
X155194000Y-73716000D03*
X155194000Y-75636000D03*
%TD*%
D18*
%TO.C,U1*%
X137910000Y-101303200D03*
X137910000Y-101803200D03*
X137910000Y-102303200D03*
X136410000Y-102303200D03*
X136410000Y-101803200D03*
X136410000Y-101303200D03*
%TD*%
D10*
%TO.C,R2*%
X124984000Y-91694000D03*
X126984000Y-91694000D03*
%TD*%
D11*
%TO.C,D6*%
X133294000Y-125476000D03*
X131374000Y-125476000D03*
%TD*%
D15*
%TO.C,C2*%
X133350000Y-102035700D03*
X133350000Y-104110700D03*
%TD*%
M02*
