M48
; DRILL file {KiCad 8.0.3} date 2024-07-03T13:17:19-0500
; FORMAT={-:-/ absolute / metric / decimal}
; #@! TF.CreationDate,2024-07-03T13:17:19-05:00
; #@! TF.GenerationSoftware,Kicad,Pcbnew,8.0.3
; #@! TF.FileFunction,Plated,1,2,PTH
FMAT,2
METRIC
; #@! TA.AperFunction,Plated,PTH,ViaDrill
T1C0.400
; #@! TA.AperFunction,Plated,PTH,ComponentDrill
T2C1.016
%
G90
G05
T1
X119.634Y-97.536
X128.27Y-124.968
X130.302Y-101.346
X131.572Y-101.346
X132.588Y-112.014
X132.842Y-101.346
X133.604Y-112.014
X134.62Y-112.014
X135.001Y-93.726
X136.017Y-86.614
X136.398Y-67.818
X139.573Y-92.202
X141.224Y-68.834
X142.367Y-68.072
X142.494Y-108.204
X143.256Y-99.314
X144.145Y-101.473
X151.638Y-70.739
T2
X137.804Y-115.742
X137.804Y-118.282
X140.344Y-115.742
X140.344Y-118.282
X142.884Y-115.742
X142.884Y-118.282
M30
