G04 #@! TF.GenerationSoftware,KiCad,Pcbnew,8.0.3*
G04 #@! TF.CreationDate,2024-07-03T13:17:04-05:00*
G04 #@! TF.ProjectId,SAO_AMAMW,53414f5f-414d-4414-9d57-2e6b69636164,rev?*
G04 #@! TF.SameCoordinates,Original*
G04 #@! TF.FileFunction,Copper,L2,Bot*
G04 #@! TF.FilePolarity,Positive*
%FSLAX46Y46*%
G04 Gerber Fmt 4.6, Leading zero omitted, Abs format (unit mm)*
G04 Created by KiCad (PCBNEW 8.0.3) date 2024-07-03 13:17:04*
%MOMM*%
%LPD*%
G01*
G04 APERTURE LIST*
G04 Aperture macros list*
%AMRoundRect*
0 Rectangle with rounded corners*
0 $1 Rounding radius*
0 $2 $3 $4 $5 $6 $7 $8 $9 X,Y pos of 4 corners*
0 Add a 4 corners polygon primitive as box body*
4,1,4,$2,$3,$4,$5,$6,$7,$8,$9,$2,$3,0*
0 Add four circle primitives for the rounded corners*
1,1,$1+$1,$2,$3*
1,1,$1+$1,$4,$5*
1,1,$1+$1,$6,$7*
1,1,$1+$1,$8,$9*
0 Add four rect primitives between the rounded corners*
20,1,$1+$1,$2,$3,$4,$5,0*
20,1,$1+$1,$4,$5,$6,$7,0*
20,1,$1+$1,$6,$7,$8,$9,0*
20,1,$1+$1,$8,$9,$2,$3,0*%
%AMFreePoly0*
4,1,6,1.000000,0.000000,0.500000,-0.750000,-0.500000,-0.750000,-0.500000,0.750000,0.500000,0.750000,1.000000,0.000000,1.000000,0.000000,$1*%
%AMFreePoly1*
4,1,6,0.500000,-0.750000,-0.650000,-0.750000,-0.150000,0.000000,-0.650000,0.750000,0.500000,0.750000,0.500000,-0.750000,0.500000,-0.750000,$1*%
G04 Aperture macros list end*
G04 #@! TA.AperFunction,ComponentPad*
%ADD10O,1.727200X1.727200*%
G04 #@! TD*
G04 #@! TA.AperFunction,ComponentPad*
%ADD11R,1.727200X1.727200*%
G04 #@! TD*
G04 #@! TA.AperFunction,ComponentPad*
%ADD12C,1.727200*%
G04 #@! TD*
G04 #@! TA.AperFunction,SMDPad,CuDef*
%ADD13RoundRect,0.250000X-0.350000X-0.450000X0.350000X-0.450000X0.350000X0.450000X-0.350000X0.450000X0*%
G04 #@! TD*
G04 #@! TA.AperFunction,SMDPad,CuDef*
%ADD14R,1.000000X1.570000*%
G04 #@! TD*
G04 #@! TA.AperFunction,SMDPad,CuDef*
%ADD15RoundRect,0.250000X-0.412500X-0.650000X0.412500X-0.650000X0.412500X0.650000X-0.412500X0.650000X0*%
G04 #@! TD*
G04 #@! TA.AperFunction,SMDPad,CuDef*
%ADD16RoundRect,0.250000X0.350000X0.450000X-0.350000X0.450000X-0.350000X-0.450000X0.350000X-0.450000X0*%
G04 #@! TD*
G04 #@! TA.AperFunction,SMDPad,CuDef*
%ADD17RoundRect,0.250000X-0.475000X0.337500X-0.475000X-0.337500X0.475000X-0.337500X0.475000X0.337500X0*%
G04 #@! TD*
G04 #@! TA.AperFunction,SMDPad,CuDef*
%ADD18RoundRect,0.237500X-0.300000X-0.237500X0.300000X-0.237500X0.300000X0.237500X-0.300000X0.237500X0*%
G04 #@! TD*
G04 #@! TA.AperFunction,SMDPad,CuDef*
%ADD19FreePoly0,180.000000*%
G04 #@! TD*
G04 #@! TA.AperFunction,SMDPad,CuDef*
%ADD20FreePoly1,180.000000*%
G04 #@! TD*
G04 #@! TA.AperFunction,SMDPad,CuDef*
%ADD21RoundRect,0.250000X0.450000X-0.350000X0.450000X0.350000X-0.450000X0.350000X-0.450000X-0.350000X0*%
G04 #@! TD*
G04 #@! TA.AperFunction,SMDPad,CuDef*
%ADD22R,2.350000X3.500000*%
G04 #@! TD*
G04 #@! TA.AperFunction,SMDPad,CuDef*
%ADD23RoundRect,0.250000X0.475000X-0.337500X0.475000X0.337500X-0.475000X0.337500X-0.475000X-0.337500X0*%
G04 #@! TD*
G04 #@! TA.AperFunction,SMDPad,CuDef*
%ADD24R,0.700000X0.340000*%
G04 #@! TD*
G04 #@! TA.AperFunction,SMDPad,CuDef*
%ADD25RoundRect,0.250000X-0.512936X0.248791X-0.367397X-0.435912X0.512936X-0.248791X0.367397X0.435912X0*%
G04 #@! TD*
G04 #@! TA.AperFunction,ViaPad*
%ADD26C,0.800000*%
G04 #@! TD*
G04 #@! TA.AperFunction,Conductor*
%ADD27C,0.250000*%
G04 #@! TD*
G04 #@! TA.AperFunction,Conductor*
%ADD28C,0.762000*%
G04 #@! TD*
G04 #@! TA.AperFunction,Conductor*
%ADD29C,0.175000*%
G04 #@! TD*
G04 APERTURE END LIST*
D10*
X137804200Y-115742400D03*
D11*
X137804200Y-118282400D03*
D10*
X140344200Y-115742400D03*
X140344200Y-118282400D03*
D12*
X142884200Y-115742400D03*
X142884200Y-118282400D03*
D13*
X133112000Y-68326000D03*
X135112000Y-68326000D03*
D14*
X146360000Y-87376000D03*
X148280000Y-87376000D03*
D15*
X139534500Y-101473000D03*
X142659500Y-101473000D03*
D16*
X139430000Y-86614000D03*
X137430000Y-86614000D03*
D14*
X149916000Y-106680000D03*
X151836000Y-106680000D03*
D17*
X130450000Y-97260500D03*
X130450000Y-99335500D03*
D18*
X135281500Y-99060000D03*
X137006500Y-99060000D03*
D16*
X155178000Y-70739000D03*
X153178000Y-70739000D03*
D19*
X140425000Y-111252000D03*
D20*
X138975000Y-111252000D03*
D21*
X128778000Y-128000000D03*
X128778000Y-126000000D03*
D16*
X137017000Y-95250000D03*
X135017000Y-95250000D03*
X141589000Y-99314000D03*
X139589000Y-99314000D03*
D22*
X139677000Y-106299000D03*
X133627000Y-106299000D03*
D13*
X135017000Y-97282000D03*
X137017000Y-97282000D03*
D14*
X121087000Y-91694000D03*
X123007000Y-91694000D03*
D23*
X139573000Y-95525500D03*
X139573000Y-93450500D03*
D14*
X133152000Y-65786000D03*
X135072000Y-65786000D03*
D16*
X145018000Y-105410000D03*
X143018000Y-105410000D03*
D14*
X154234000Y-74676000D03*
X156154000Y-74676000D03*
D24*
X136894000Y-100719000D03*
X136894000Y-101219000D03*
X136894000Y-101719000D03*
X135394000Y-101719000D03*
X135394000Y-101219000D03*
X135394000Y-100719000D03*
D25*
X119045088Y-94271852D03*
X119460912Y-96228148D03*
D14*
X132390000Y-126873000D03*
X134310000Y-126873000D03*
D17*
X132842000Y-97260500D03*
X132842000Y-99335500D03*
D13*
X139589000Y-97409000D03*
X141589000Y-97409000D03*
D26*
X132588000Y-112014000D03*
X141224000Y-68834000D03*
X132842000Y-101346000D03*
X142494000Y-108204000D03*
X139573000Y-92202000D03*
X151638000Y-70739000D03*
X128270000Y-124968000D03*
X135001000Y-93726000D03*
X136398000Y-67818000D03*
X143256000Y-99314000D03*
X144145000Y-101473000D03*
X119634000Y-97536000D03*
X136017000Y-86614000D03*
X134620000Y-112014000D03*
X133604000Y-112014000D03*
X142367000Y-68072000D03*
X130302000Y-101346000D03*
X131572000Y-101346000D03*
D27*
X133152000Y-68286000D02*
X133112000Y-68326000D01*
X133152000Y-65786000D02*
X133152000Y-68286000D01*
D28*
X137804200Y-115742400D02*
X140425000Y-113121600D01*
X140425000Y-113121600D02*
X140425000Y-111252000D01*
D27*
X119045088Y-94271852D02*
X118745000Y-93971764D01*
X121087000Y-91694000D02*
X118745000Y-91694000D01*
X118745000Y-93971764D02*
X118745000Y-91694000D01*
X147701000Y-106680000D02*
X146431000Y-105410000D01*
X149916000Y-106680000D02*
X147701000Y-106680000D01*
X146431000Y-105410000D02*
X145018000Y-105410000D01*
X146360000Y-87376000D02*
X144906000Y-87376000D01*
X144144000Y-86614000D02*
X144906000Y-87376000D01*
X139430000Y-86614000D02*
X144144000Y-86614000D01*
D29*
X155178000Y-70739000D02*
X155194000Y-70755000D01*
X154903000Y-70464000D02*
X155178000Y-70739000D01*
D27*
X154234000Y-73477000D02*
X155194000Y-72517000D01*
X155178000Y-72120000D02*
X155178000Y-70739000D01*
X155194000Y-72517000D02*
X155194000Y-72136000D01*
X155194000Y-72136000D02*
X155178000Y-72120000D01*
X154234000Y-74676000D02*
X154234000Y-73477000D01*
D29*
X128778000Y-125476000D02*
X128270000Y-124968000D01*
D27*
X141605000Y-68834000D02*
X141224000Y-68834000D01*
X135017000Y-95250000D02*
X135017000Y-93742000D01*
D29*
X153178000Y-70739000D02*
X151638000Y-70739000D01*
D27*
X142659500Y-101473000D02*
X144145000Y-101473000D01*
D28*
X134620000Y-117094000D02*
X134620000Y-112014000D01*
D27*
X142367000Y-68072000D02*
X141605000Y-68834000D01*
X119460912Y-96228148D02*
X119460912Y-97362912D01*
X143256000Y-99076000D02*
X143256000Y-99314000D01*
X119460912Y-97362912D02*
X119634000Y-97536000D01*
X135017000Y-93742000D02*
X135001000Y-93726000D01*
X139573000Y-93450500D02*
X139573000Y-92202000D01*
D29*
X128778000Y-126000000D02*
X128778000Y-125476000D01*
D28*
X137804200Y-118282400D02*
X135808400Y-118282400D01*
D27*
X141626500Y-97371500D02*
X141589000Y-97409000D01*
X143018000Y-105410000D02*
X143018000Y-107680000D01*
D28*
X135808400Y-118282400D02*
X134620000Y-117094000D01*
D27*
X141589000Y-97409000D02*
X143256000Y-99076000D01*
X143018000Y-107680000D02*
X142494000Y-108204000D01*
X137430000Y-86614000D02*
X136017000Y-86614000D01*
X135112000Y-67818000D02*
X136398000Y-67818000D01*
X134310000Y-125039000D02*
X134112000Y-124841000D01*
X151836000Y-106680000D02*
X151836000Y-102179000D01*
X156154000Y-75621000D02*
X154178000Y-77597000D01*
X134112000Y-124841000D02*
X130556000Y-124841000D01*
X156154000Y-74676000D02*
X156154000Y-75621000D01*
X134310000Y-126873000D02*
X134310000Y-125039000D01*
X123007000Y-91694000D02*
X125730000Y-91694000D01*
X151836000Y-102179000D02*
X151511000Y-101854000D01*
X125730000Y-91694000D02*
X125857000Y-91821000D01*
X137017000Y-97282000D02*
X137017000Y-99049500D01*
X136894000Y-99172500D02*
X137006500Y-99060000D01*
X136894000Y-100719000D02*
X136894000Y-99172500D01*
X137017000Y-95250000D02*
X137017000Y-97282000D01*
X137017000Y-99049500D02*
X137006500Y-99060000D01*
X132390000Y-126873000D02*
X131247000Y-128016000D01*
X131247000Y-128016000D02*
X130302000Y-128016000D01*
D29*
X128503000Y-127725000D02*
X128778000Y-128000000D01*
D27*
X130286000Y-128000000D02*
X128778000Y-128000000D01*
X130302000Y-128016000D02*
X130286000Y-128000000D01*
X136894000Y-101219000D02*
X137564000Y-101219000D01*
X139589000Y-99314000D02*
X139589000Y-97409000D01*
X139469000Y-99314000D02*
X139589000Y-99314000D01*
X139551500Y-97371500D02*
X139589000Y-97409000D01*
X139551500Y-95377000D02*
X139551500Y-97371500D01*
X137564000Y-101219000D02*
X139469000Y-99314000D01*
G04 #@! TA.AperFunction,Conductor*
G36*
X140827756Y-98064565D02*
G01*
X140841979Y-98079704D01*
X140916845Y-98181145D01*
X140916852Y-98181152D01*
X141026116Y-98261792D01*
X141026117Y-98261792D01*
X141026118Y-98261793D01*
X141069869Y-98277102D01*
X141116406Y-98315173D01*
X141127585Y-98374251D01*
X141098174Y-98426694D01*
X141069870Y-98443036D01*
X141024841Y-98458792D01*
X140914922Y-98539918D01*
X140914918Y-98539922D01*
X140833792Y-98649842D01*
X140788671Y-98778792D01*
X140788670Y-98778794D01*
X140785800Y-98809407D01*
X140785800Y-99186999D01*
X140785801Y-99187000D01*
X141628100Y-99187000D01*
X141684601Y-99207565D01*
X141714665Y-99259636D01*
X141716000Y-99274900D01*
X141716000Y-100217199D01*
X141716001Y-100217200D01*
X141993590Y-100217200D01*
X141993592Y-100217199D01*
X142024205Y-100214329D01*
X142024207Y-100214328D01*
X142153157Y-100169207D01*
X142263077Y-100088081D01*
X142263081Y-100088077D01*
X142335376Y-99990123D01*
X142385474Y-99956874D01*
X142445223Y-99963607D01*
X142486666Y-100007170D01*
X142494000Y-100042320D01*
X142494000Y-100284600D01*
X142473435Y-100341101D01*
X142421364Y-100371165D01*
X142406100Y-100372500D01*
X142192733Y-100372500D01*
X142162302Y-100375353D01*
X142162297Y-100375354D01*
X142034119Y-100420205D01*
X142034118Y-100420206D01*
X141924852Y-100500847D01*
X141924847Y-100500852D01*
X141844207Y-100610116D01*
X141836158Y-100633119D01*
X141829505Y-100652131D01*
X141791436Y-100698669D01*
X141746539Y-100711000D01*
X141478000Y-100711000D01*
X141478000Y-100711001D01*
X141478000Y-104140000D01*
X138176000Y-104140000D01*
X138176000Y-108331000D01*
X141478000Y-108331000D01*
X141478000Y-112181635D01*
X141457435Y-112238136D01*
X141405364Y-112268200D01*
X141391648Y-112269521D01*
X139861605Y-112296473D01*
X139804751Y-112276907D01*
X139781679Y-112248377D01*
X139776480Y-112238136D01*
X139771356Y-112228043D01*
X139764117Y-112168356D01*
X139774073Y-112143515D01*
X139774179Y-112143335D01*
X139774181Y-112143334D01*
X139820730Y-112064610D01*
X139828512Y-111973486D01*
X139795990Y-111888018D01*
X139795988Y-111888014D01*
X139795986Y-111888009D01*
X139404484Y-111300757D01*
X139390255Y-111242339D01*
X139404485Y-111203242D01*
X139795984Y-110615994D01*
X139795986Y-110615991D01*
X139825348Y-110547728D01*
X139825348Y-110456272D01*
X139785666Y-110373873D01*
X139714163Y-110316851D01*
X139625004Y-110296500D01*
X139625000Y-110296500D01*
X138844782Y-110296500D01*
X138788281Y-110275935D01*
X138766403Y-110248388D01*
X137931521Y-108603755D01*
X137922000Y-108563967D01*
X137922000Y-103251001D01*
X137921999Y-103250999D01*
X136612646Y-102378097D01*
X136577041Y-102329645D01*
X136573506Y-102304651D01*
X136573960Y-102179777D01*
X136594730Y-102123354D01*
X136646911Y-102093480D01*
X136661859Y-102092200D01*
X136766999Y-102092200D01*
X136767000Y-102092199D01*
X136767000Y-101846001D01*
X137021000Y-101846001D01*
X137021000Y-102092199D01*
X137021001Y-102092200D01*
X137264012Y-102092200D01*
X137323282Y-102080410D01*
X137323285Y-102080409D01*
X137390497Y-102035499D01*
X137390499Y-102035497D01*
X137435409Y-101968285D01*
X137435410Y-101968282D01*
X137447200Y-101909012D01*
X137447200Y-101846001D01*
X137447199Y-101846000D01*
X137021001Y-101846000D01*
X137021000Y-101846001D01*
X136767000Y-101846001D01*
X136767000Y-101679900D01*
X136787565Y-101623399D01*
X136828090Y-101600001D01*
X138668800Y-101600001D01*
X138668800Y-102177592D01*
X138671670Y-102208205D01*
X138671671Y-102208207D01*
X138716792Y-102337157D01*
X138797918Y-102447077D01*
X138797922Y-102447081D01*
X138907842Y-102528207D01*
X138907841Y-102528207D01*
X139036792Y-102573328D01*
X139036794Y-102573329D01*
X139067407Y-102576199D01*
X139067410Y-102576200D01*
X139407499Y-102576200D01*
X139407500Y-102576199D01*
X139407500Y-101600001D01*
X139661500Y-101600001D01*
X139661500Y-102576199D01*
X139661501Y-102576200D01*
X140001590Y-102576200D01*
X140001592Y-102576199D01*
X140032205Y-102573329D01*
X140032207Y-102573328D01*
X140161157Y-102528207D01*
X140271077Y-102447081D01*
X140271081Y-102447077D01*
X140352207Y-102337157D01*
X140397328Y-102208207D01*
X140397329Y-102208205D01*
X140400199Y-102177592D01*
X140400200Y-102177590D01*
X140400200Y-101600001D01*
X140400199Y-101600000D01*
X139661501Y-101600000D01*
X139661500Y-101600001D01*
X139407500Y-101600001D01*
X139407499Y-101600000D01*
X138668801Y-101600000D01*
X138668800Y-101600001D01*
X136828090Y-101600001D01*
X136839636Y-101593335D01*
X136854900Y-101592000D01*
X137447199Y-101592000D01*
X137468954Y-101570245D01*
X137523448Y-101544834D01*
X137531109Y-101544500D01*
X137606852Y-101544500D01*
X137606853Y-101544500D01*
X137689639Y-101522318D01*
X137763862Y-101479465D01*
X138518745Y-100724580D01*
X138573239Y-100699170D01*
X138631317Y-100714733D01*
X138665805Y-100763986D01*
X138668800Y-100786736D01*
X138668800Y-101345999D01*
X138668801Y-101346000D01*
X140400199Y-101346000D01*
X140400200Y-101345999D01*
X140400200Y-100768409D01*
X140400199Y-100768407D01*
X140397329Y-100737794D01*
X140397328Y-100737792D01*
X140352207Y-100608842D01*
X140271081Y-100498922D01*
X140271077Y-100498918D01*
X140161157Y-100417792D01*
X140161158Y-100417792D01*
X140034968Y-100373636D01*
X139988430Y-100335564D01*
X139977252Y-100276485D01*
X140006664Y-100224043D01*
X140034962Y-100207704D01*
X140151882Y-100166793D01*
X140261150Y-100086150D01*
X140341793Y-99976882D01*
X140386646Y-99848699D01*
X140388548Y-99828410D01*
X140389500Y-99818267D01*
X140389500Y-99441001D01*
X140785800Y-99441001D01*
X140785800Y-99818592D01*
X140788670Y-99849205D01*
X140788671Y-99849207D01*
X140833792Y-99978157D01*
X140914918Y-100088077D01*
X140914922Y-100088081D01*
X141024842Y-100169207D01*
X141024841Y-100169207D01*
X141153792Y-100214328D01*
X141153794Y-100214329D01*
X141184407Y-100217199D01*
X141184410Y-100217200D01*
X141461999Y-100217200D01*
X141462000Y-100217199D01*
X141462000Y-99441001D01*
X141461999Y-99441000D01*
X140785801Y-99441000D01*
X140785800Y-99441001D01*
X140389500Y-99441001D01*
X140389500Y-98809732D01*
X140386646Y-98779302D01*
X140386645Y-98779297D01*
X140341794Y-98651119D01*
X140341793Y-98651118D01*
X140261152Y-98541852D01*
X140261147Y-98541847D01*
X140151881Y-98461206D01*
X140151879Y-98461205D01*
X140139866Y-98457001D01*
X140093329Y-98418928D01*
X140081000Y-98374035D01*
X140081000Y-98348964D01*
X140101565Y-98292463D01*
X140139870Y-98265996D01*
X140151882Y-98261793D01*
X140261150Y-98181150D01*
X140295363Y-98134793D01*
X140336021Y-98079704D01*
X140386118Y-98046454D01*
X140406745Y-98044000D01*
X140771255Y-98044000D01*
X140827756Y-98064565D01*
G37*
G04 #@! TD.AperFunction*
G04 #@! TA.AperFunction,Conductor*
G36*
X133826601Y-98318565D02*
G01*
X133856665Y-98370636D01*
X133858000Y-98385900D01*
X133858000Y-100075999D01*
X133857999Y-100075999D01*
X133858000Y-100076000D01*
X134798336Y-101120818D01*
X134820847Y-101176571D01*
X134820900Y-101179619D01*
X134820900Y-101260589D01*
X134821681Y-101278513D01*
X134823015Y-101293765D01*
X134823016Y-101293769D01*
X134839432Y-101345833D01*
X134843500Y-101372265D01*
X134843500Y-101408746D01*
X134855133Y-101467232D01*
X134899445Y-101533548D01*
X134899448Y-101533552D01*
X134899451Y-101533554D01*
X134965767Y-101577866D01*
X134965769Y-101577867D01*
X135024252Y-101589500D01*
X135651100Y-101589500D01*
X135707601Y-101610065D01*
X135737665Y-101662136D01*
X135739000Y-101677400D01*
X135739000Y-101796100D01*
X135718435Y-101852601D01*
X135666364Y-101882665D01*
X135651100Y-101884000D01*
X135053147Y-101884000D01*
X135035999Y-101882311D01*
X135010040Y-101877147D01*
X135010013Y-101877140D01*
X135004934Y-101876130D01*
X134997352Y-101874623D01*
X134997348Y-101874622D01*
X134994945Y-101874145D01*
X134994937Y-101874142D01*
X134994937Y-101874143D01*
X134979940Y-101871160D01*
X134977275Y-101871537D01*
X134968781Y-101870040D01*
X134968779Y-101870040D01*
X134968778Y-101870040D01*
X134963997Y-101870468D01*
X134954841Y-101870490D01*
X134949723Y-101870918D01*
X134939687Y-101872646D01*
X134877695Y-101878200D01*
X134877685Y-101878202D01*
X134820508Y-101896756D01*
X134820505Y-101896757D01*
X134757470Y-101930243D01*
X134757469Y-101930244D01*
X134553623Y-102089386D01*
X134499533Y-102108000D01*
X129373900Y-102108000D01*
X129317399Y-102087435D01*
X129287335Y-102035364D01*
X129286000Y-102020100D01*
X129286000Y-98385900D01*
X129306565Y-98329399D01*
X129358636Y-98299335D01*
X129373900Y-98298000D01*
X133770100Y-98298000D01*
X133826601Y-98318565D01*
G37*
G04 #@! TD.AperFunction*
G04 #@! TA.AperFunction,Conductor*
G36*
X135071039Y-111525685D02*
G01*
X135116794Y-111578489D01*
X135128000Y-111630000D01*
X135128000Y-112398000D01*
X135108315Y-112465039D01*
X135055511Y-112510794D01*
X135004000Y-112522000D01*
X131950000Y-112522000D01*
X131882961Y-112502315D01*
X131837206Y-112449511D01*
X131826000Y-112398000D01*
X131826000Y-111630000D01*
X131845685Y-111562961D01*
X131898489Y-111517206D01*
X131950000Y-111506000D01*
X135004000Y-111506000D01*
X135071039Y-111525685D01*
G37*
G04 #@! TD.AperFunction*
G04 #@! TA.AperFunction,Conductor*
G36*
X135401137Y-63441727D02*
G01*
X136049860Y-63470836D01*
X136056421Y-63471421D01*
X136643501Y-63549973D01*
X136653739Y-63552078D01*
X137111481Y-63679916D01*
X137116850Y-63681636D01*
X137538401Y-63834551D01*
X137545425Y-63837511D01*
X137896146Y-64006682D01*
X137900695Y-64009072D01*
X138169848Y-64162537D01*
X138370747Y-64277085D01*
X138381701Y-64284692D01*
X139145769Y-64922770D01*
X139159654Y-64934365D01*
X139169450Y-64944218D01*
X139637688Y-65511572D01*
X139735486Y-65630071D01*
X139742754Y-65640584D01*
X140152287Y-66356232D01*
X140156645Y-66365172D01*
X140368650Y-66884793D01*
X140484595Y-67144185D01*
X141155222Y-67826818D01*
X141164264Y-67837980D01*
X141350720Y-68119360D01*
X141362755Y-68169372D01*
X141339827Y-68215420D01*
X141292665Y-68235956D01*
X141278219Y-68235456D01*
X141224000Y-68228318D01*
X141067236Y-68248956D01*
X140921160Y-68309463D01*
X140921157Y-68309465D01*
X140795717Y-68405717D01*
X140699465Y-68531157D01*
X140699463Y-68531160D01*
X140638956Y-68677236D01*
X140618318Y-68834000D01*
X140638956Y-68990763D01*
X140699463Y-69136839D01*
X140699465Y-69136842D01*
X140795717Y-69262282D01*
X140873801Y-69322197D01*
X140921159Y-69358536D01*
X141067238Y-69419044D01*
X141224000Y-69439682D01*
X141380762Y-69419044D01*
X141526841Y-69358536D01*
X141652282Y-69262282D01*
X141748536Y-69136841D01*
X141748536Y-69136840D01*
X141751537Y-69132930D01*
X141752691Y-69133816D01*
X141774520Y-69111982D01*
X141804862Y-69094465D01*
X141817558Y-69081768D01*
X141864177Y-69060028D01*
X141913864Y-69073340D01*
X141937115Y-69099609D01*
X141986824Y-69193001D01*
X141992865Y-69208087D01*
X142234427Y-70072137D01*
X142236689Y-70083597D01*
X142348431Y-71033397D01*
X142348779Y-71047186D01*
X142321221Y-71460544D01*
X142320138Y-71469194D01*
X142208026Y-72076471D01*
X142207284Y-72080012D01*
X141622650Y-74569417D01*
X141254639Y-76475525D01*
X140886632Y-78513727D01*
X140886629Y-78513745D01*
X140679027Y-80165119D01*
X140528054Y-81533306D01*
X140528051Y-81533349D01*
X140461998Y-82712857D01*
X140461998Y-82712869D01*
X140453192Y-83743247D01*
X140452563Y-83816890D01*
X140460079Y-84157160D01*
X140476407Y-84896372D01*
X140533801Y-86210018D01*
X140518334Y-86259077D01*
X140474951Y-86286717D01*
X140458673Y-86288500D01*
X140305700Y-86288500D01*
X140257362Y-86270907D01*
X140231642Y-86226358D01*
X140230500Y-86213300D01*
X140230500Y-86109726D01*
X140228252Y-86085762D01*
X140227646Y-86079301D01*
X140185847Y-85959846D01*
X140182794Y-85951120D01*
X140182792Y-85951117D01*
X140172116Y-85936651D01*
X140102150Y-85841850D01*
X139992882Y-85761207D01*
X139992879Y-85761205D01*
X139895470Y-85727121D01*
X139864699Y-85716354D01*
X139864694Y-85716353D01*
X139864692Y-85716353D01*
X139834273Y-85713500D01*
X139834266Y-85713500D01*
X139025734Y-85713500D01*
X139025727Y-85713500D01*
X138995307Y-85716353D01*
X138995303Y-85716353D01*
X138995301Y-85716354D01*
X138995298Y-85716354D01*
X138995298Y-85716355D01*
X138867120Y-85761205D01*
X138867117Y-85761207D01*
X138757850Y-85841850D01*
X138677207Y-85951117D01*
X138677205Y-85951120D01*
X138632355Y-86079298D01*
X138632353Y-86079307D01*
X138629500Y-86109726D01*
X138629500Y-87118273D01*
X138632353Y-87148692D01*
X138632354Y-87148699D01*
X138632355Y-87148701D01*
X138677205Y-87276879D01*
X138677207Y-87276882D01*
X138757850Y-87386150D01*
X138840656Y-87447263D01*
X138867117Y-87466792D01*
X138867120Y-87466794D01*
X138897889Y-87477560D01*
X138995301Y-87511646D01*
X139009347Y-87512963D01*
X139025727Y-87514500D01*
X139025734Y-87514500D01*
X139834272Y-87514500D01*
X139848312Y-87513182D01*
X139864699Y-87511646D01*
X139992882Y-87466793D01*
X140102150Y-87386150D01*
X140182793Y-87276882D01*
X140227646Y-87148699D01*
X140229073Y-87133482D01*
X140230500Y-87118273D01*
X140230500Y-87014700D01*
X140248093Y-86966362D01*
X140292642Y-86940642D01*
X140305700Y-86939500D01*
X140768724Y-86939500D01*
X140811370Y-86952762D01*
X141282115Y-87276882D01*
X141323311Y-87305246D01*
X142828910Y-88194346D01*
X143797693Y-88638896D01*
X144489681Y-88856977D01*
X144908800Y-88954666D01*
X145047456Y-88986985D01*
X145047458Y-88986985D01*
X145047466Y-88986987D01*
X145399750Y-89016344D01*
X145735260Y-89007956D01*
X146091738Y-88970211D01*
X146506931Y-88848589D01*
X146506931Y-88848588D01*
X146506934Y-88848588D01*
X147054444Y-88553774D01*
X147106654Y-88525661D01*
X147567980Y-88227897D01*
X147840581Y-87938520D01*
X148145694Y-87509453D01*
X148146075Y-87508923D01*
X148176620Y-87466792D01*
X148362095Y-87210965D01*
X148497963Y-87005826D01*
X148632166Y-86782154D01*
X148768234Y-86539841D01*
X148834312Y-86407683D01*
X148836479Y-86403661D01*
X149019866Y-86086904D01*
X149232355Y-85641422D01*
X149575321Y-84664717D01*
X149720708Y-84224827D01*
X149959742Y-83370910D01*
X150004026Y-83212711D01*
X150037577Y-83085961D01*
X150037578Y-83085959D01*
X150024226Y-83062830D01*
X150024225Y-83062829D01*
X150003474Y-83050972D01*
X149993361Y-83044043D01*
X149881846Y-82953437D01*
X149876093Y-82948248D01*
X149700276Y-82772432D01*
X149689813Y-82759325D01*
X149660563Y-82712869D01*
X149571654Y-82571661D01*
X149564866Y-82557959D01*
X149468092Y-82299306D01*
X149463936Y-82282520D01*
X149446862Y-82149348D01*
X149446289Y-82142184D01*
X149441007Y-81976680D01*
X149441611Y-81964483D01*
X149459220Y-81830661D01*
X149459770Y-81827137D01*
X149479554Y-81717424D01*
X149480484Y-81713022D01*
X149508901Y-81596010D01*
X149517663Y-81574789D01*
X149548921Y-81523215D01*
X149498243Y-81441768D01*
X149495408Y-81436800D01*
X149428658Y-81308712D01*
X149426964Y-81305244D01*
X149359300Y-81157117D01*
X149358314Y-81154859D01*
X149298161Y-81010855D01*
X149296547Y-81006640D01*
X149254857Y-80887008D01*
X149254017Y-80884450D01*
X149215624Y-80760127D01*
X149214963Y-80757857D01*
X149155812Y-80541583D01*
X149155451Y-80540211D01*
X149120217Y-80401132D01*
X149120215Y-80401123D01*
X149069888Y-80227776D01*
X149000973Y-79989368D01*
X149000853Y-79988948D01*
X148963642Y-79856846D01*
X148853674Y-79599636D01*
X148853671Y-79599628D01*
X148749290Y-79392731D01*
X148607642Y-79183984D01*
X148607620Y-79183954D01*
X148566327Y-79129757D01*
X148428693Y-78949113D01*
X148314992Y-78818637D01*
X148314991Y-78818636D01*
X148314987Y-78818633D01*
X148193839Y-78734762D01*
X148193827Y-78734755D01*
X148027950Y-78654612D01*
X148027942Y-78654609D01*
X147888967Y-78625441D01*
X147866383Y-78616719D01*
X147845787Y-78604645D01*
X147813508Y-78566445D01*
X147805596Y-78545587D01*
X147801292Y-78528258D01*
X147794544Y-78474266D01*
X147795250Y-78451094D01*
X147808742Y-78379136D01*
X147811937Y-78367423D01*
X147825665Y-78329469D01*
X147872074Y-78201163D01*
X147874693Y-78194840D01*
X147874931Y-78194334D01*
X147927609Y-78081953D01*
X147931016Y-78075515D01*
X147974768Y-78001732D01*
X147977752Y-77997098D01*
X148097535Y-77825410D01*
X148103880Y-77817512D01*
X148212681Y-77699386D01*
X148220703Y-77691863D01*
X148367100Y-77573500D01*
X148377848Y-77566249D01*
X148612406Y-77435939D01*
X148624467Y-77430566D01*
X148902915Y-77334849D01*
X148917020Y-77331480D01*
X149191297Y-77293430D01*
X149201630Y-77292718D01*
X149315502Y-77292718D01*
X149325847Y-77293433D01*
X149519439Y-77320321D01*
X149538756Y-77325703D01*
X149696821Y-77393552D01*
X149712278Y-77402495D01*
X149834978Y-77494518D01*
X149845914Y-77504550D01*
X149900404Y-77565492D01*
X150016442Y-77695270D01*
X150024522Y-77706135D01*
X150109211Y-77844493D01*
X150111557Y-77848613D01*
X150187838Y-77992939D01*
X150189772Y-77996873D01*
X150275417Y-78184872D01*
X150279140Y-78193044D01*
X150279713Y-78194334D01*
X150299711Y-78240513D01*
X150339815Y-78329469D01*
X150340552Y-78331158D01*
X150381797Y-78428978D01*
X150381798Y-78428979D01*
X150385479Y-78432661D01*
X150385482Y-78432662D01*
X150390732Y-78435799D01*
X150399021Y-78439627D01*
X150399083Y-78439522D01*
X150400188Y-78440167D01*
X150400320Y-78440228D01*
X150400569Y-78440389D01*
X150400575Y-78440393D01*
X150477526Y-78485311D01*
X150552636Y-78498934D01*
X150634741Y-78487889D01*
X150720897Y-78450334D01*
X150775388Y-78414620D01*
X150815889Y-78384797D01*
X150846425Y-78356835D01*
X150846454Y-78356823D01*
X150846447Y-78356816D01*
X150849795Y-78353752D01*
X150897687Y-78309936D01*
X150899047Y-78308724D01*
X150956904Y-78258509D01*
X151004400Y-78212486D01*
X151030173Y-78184872D01*
X151079878Y-78128171D01*
X151138420Y-78059689D01*
X151180393Y-78009983D01*
X151180396Y-78009985D01*
X151180447Y-78009918D01*
X151215002Y-77969115D01*
X151287903Y-77870073D01*
X151346070Y-77789144D01*
X151348369Y-77786113D01*
X151382737Y-77743163D01*
X151429957Y-77677718D01*
X151775254Y-77167636D01*
X151775499Y-77167278D01*
X152084570Y-76721025D01*
X152085948Y-76719104D01*
X152305358Y-76423270D01*
X152307568Y-76420437D01*
X152457983Y-76236866D01*
X152463346Y-76230987D01*
X152520150Y-76174972D01*
X152525299Y-76169462D01*
X152567375Y-76124434D01*
X152599130Y-76083604D01*
X152605681Y-76076234D01*
X152661120Y-76021566D01*
X152662544Y-76020200D01*
X152735455Y-75952149D01*
X152737349Y-75950443D01*
X152816988Y-75881158D01*
X152821577Y-75877471D01*
X152947206Y-75784442D01*
X152953182Y-75780446D01*
X153089616Y-75698428D01*
X153097476Y-75694316D01*
X153220712Y-75638859D01*
X153231515Y-75634960D01*
X153361718Y-75598964D01*
X153372031Y-75596878D01*
X153519561Y-75577668D01*
X153532198Y-75577097D01*
X153533185Y-75577136D01*
X153580791Y-75596615D01*
X153584086Y-75600438D01*
X153584210Y-75600315D01*
X153589446Y-75605551D01*
X153655765Y-75649865D01*
X153655767Y-75649866D01*
X153655769Y-75649867D01*
X153685010Y-75655683D01*
X153714251Y-75661500D01*
X153963936Y-75661500D01*
X154009783Y-75677093D01*
X154038987Y-75699557D01*
X154058088Y-75721267D01*
X154116718Y-75821774D01*
X154237668Y-75709462D01*
X154263130Y-75693901D01*
X154339786Y-75666025D01*
X154365480Y-75661500D01*
X154753749Y-75661500D01*
X154773242Y-75657622D01*
X154812231Y-75649867D01*
X154878552Y-75605552D01*
X154922867Y-75539231D01*
X154922867Y-75539228D01*
X154924640Y-75536576D01*
X154966123Y-75506159D01*
X154991114Y-75503259D01*
X155288772Y-75518926D01*
X155320571Y-75527866D01*
X155647887Y-75704793D01*
X155660821Y-75713642D01*
X155788036Y-75821774D01*
X155836182Y-75862698D01*
X155849085Y-75876872D01*
X156031596Y-76137603D01*
X156044342Y-76169462D01*
X156054087Y-76233785D01*
X156071687Y-76349952D01*
X156088463Y-76361135D01*
X156153439Y-76380086D01*
X156157644Y-76381449D01*
X156226503Y-76406042D01*
X156240502Y-76412743D01*
X156257704Y-76423286D01*
X156313838Y-76457690D01*
X156326219Y-76467175D01*
X156420580Y-76556436D01*
X156426947Y-76563257D01*
X156537141Y-76697064D01*
X156544677Y-76708078D01*
X156603855Y-76813570D01*
X156607216Y-76820336D01*
X156675778Y-76977774D01*
X156681924Y-77003762D01*
X156694524Y-77238119D01*
X156691982Y-77261943D01*
X156653644Y-77402514D01*
X156652769Y-77405481D01*
X156601972Y-77565492D01*
X156587281Y-77591808D01*
X156428105Y-77776657D01*
X156419095Y-77785497D01*
X155854788Y-78252987D01*
X155852354Y-78254919D01*
X155409056Y-78592273D01*
X155165613Y-78818633D01*
X155090320Y-78888642D01*
X154813523Y-79201785D01*
X154659753Y-79442227D01*
X154470018Y-79813326D01*
X154469237Y-79814813D01*
X154205410Y-80303587D01*
X154202425Y-80308635D01*
X153980898Y-80652003D01*
X153979771Y-80653699D01*
X153690966Y-81075797D01*
X153688051Y-81079772D01*
X153426743Y-81412596D01*
X153420770Y-81419331D01*
X153129482Y-81710620D01*
X153125580Y-81714255D01*
X152857864Y-81946457D01*
X152848808Y-81953190D01*
X152632717Y-82089956D01*
X152522237Y-82198780D01*
X152522236Y-82198781D01*
X152588358Y-82358674D01*
X152591949Y-82369695D01*
X152617670Y-82475794D01*
X152619612Y-82498640D01*
X152610912Y-82625888D01*
X152608880Y-82638846D01*
X152578232Y-82762533D01*
X152570334Y-82782098D01*
X152507081Y-82891449D01*
X152495751Y-82906373D01*
X152398558Y-83005751D01*
X152383423Y-83017692D01*
X152206011Y-83123905D01*
X152199576Y-83127345D01*
X152107467Y-83170975D01*
X152087318Y-83215317D01*
X152068862Y-83229101D01*
X152057487Y-83235134D01*
X152022700Y-83255012D01*
X151999520Y-83370910D01*
X151998529Y-83375203D01*
X151902196Y-83743247D01*
X151795612Y-84155948D01*
X151794957Y-84158325D01*
X151536118Y-85040109D01*
X151534969Y-85043689D01*
X151366727Y-85526151D01*
X151366428Y-85526991D01*
X151210339Y-85958092D01*
X151209679Y-85959846D01*
X151077332Y-86298755D01*
X151076765Y-86300164D01*
X150886306Y-86760233D01*
X150885025Y-86763151D01*
X150723313Y-87111263D01*
X150722523Y-87112913D01*
X150557199Y-87447263D01*
X150555509Y-87450481D01*
X150427337Y-87680945D01*
X150427029Y-87681494D01*
X150286353Y-87929527D01*
X150284600Y-87932461D01*
X150134463Y-88171204D01*
X150133326Y-88172956D01*
X149966919Y-88421949D01*
X149965314Y-88424256D01*
X149871824Y-88553420D01*
X149871575Y-88553762D01*
X149675344Y-88821574D01*
X149672823Y-88824824D01*
X149441392Y-89106726D01*
X149439648Y-89108776D01*
X149264360Y-89307353D01*
X149261156Y-89310761D01*
X149097493Y-89474424D01*
X149095103Y-89476712D01*
X148890727Y-89663852D01*
X148889333Y-89665097D01*
X148737511Y-89797330D01*
X148734329Y-89799952D01*
X148478655Y-89999082D01*
X148476265Y-90000868D01*
X148281116Y-90140787D01*
X148278657Y-90142477D01*
X148077805Y-90274744D01*
X148074370Y-90276876D01*
X147922787Y-90365401D01*
X147918729Y-90367607D01*
X147639449Y-90508471D01*
X147635421Y-90510355D01*
X147254905Y-90674836D01*
X147249527Y-90676920D01*
X146905489Y-90795260D01*
X146898054Y-90797396D01*
X146674626Y-90849328D01*
X146669237Y-90850375D01*
X146261772Y-90914195D01*
X146257017Y-90914786D01*
X145802358Y-90956565D01*
X145796851Y-90956867D01*
X145530322Y-90961736D01*
X145524667Y-90961627D01*
X145245917Y-90945733D01*
X145242416Y-90945451D01*
X144816777Y-90901165D01*
X144811687Y-90900459D01*
X144521824Y-90850101D01*
X144520082Y-90849777D01*
X144390828Y-90824170D01*
X144387668Y-90823473D01*
X144160067Y-90768111D01*
X144158640Y-90767749D01*
X143808981Y-90675409D01*
X143803972Y-90673898D01*
X143384720Y-90531278D01*
X143380737Y-90529794D01*
X143187650Y-90451479D01*
X143027330Y-90386454D01*
X142825594Y-90307728D01*
X142821515Y-90305996D01*
X142545812Y-90179221D01*
X142544527Y-90178615D01*
X142037785Y-89933896D01*
X142033695Y-89931764D01*
X141730022Y-89761412D01*
X141730020Y-89761411D01*
X141730018Y-89761410D01*
X141730014Y-89761408D01*
X141730010Y-89761407D01*
X141221006Y-89598775D01*
X141207481Y-89592940D01*
X140926602Y-89437502D01*
X140925336Y-89436785D01*
X140872856Y-89406401D01*
X140872855Y-89406402D01*
X140903610Y-89646850D01*
X141048993Y-90488397D01*
X141048999Y-90488429D01*
X141205564Y-91134257D01*
X141446025Y-92009424D01*
X141650119Y-92688804D01*
X141889508Y-93376349D01*
X141891360Y-93382501D01*
X141926915Y-93521986D01*
X141926920Y-93522000D01*
X142041526Y-93851844D01*
X142276402Y-94494960D01*
X142392942Y-94768779D01*
X142620301Y-95302979D01*
X142620308Y-95302994D01*
X142939009Y-96007496D01*
X143201394Y-96572424D01*
X143213034Y-96597486D01*
X143221750Y-96613301D01*
X143484246Y-97089584D01*
X143875677Y-97760606D01*
X144127285Y-98174361D01*
X144127297Y-98174380D01*
X144392908Y-98549032D01*
X144472397Y-98655361D01*
X144823154Y-99124556D01*
X144823794Y-99125425D01*
X145264343Y-99732723D01*
X145421804Y-99949784D01*
X145518350Y-100069047D01*
X145659456Y-100243355D01*
X145659441Y-100243366D01*
X145659518Y-100243432D01*
X146147732Y-100848151D01*
X146154534Y-100858116D01*
X146453871Y-101382643D01*
X146458144Y-101391407D01*
X146715118Y-102018644D01*
X146717253Y-102024545D01*
X146796497Y-102275939D01*
X146798059Y-102281676D01*
X146886299Y-102664970D01*
X146887256Y-102669866D01*
X146928799Y-102927428D01*
X146928800Y-102927430D01*
X147045258Y-102927630D01*
X147540631Y-102626220D01*
X147542464Y-102625141D01*
X148174807Y-102264999D01*
X148639233Y-101984669D01*
X148641470Y-101983372D01*
X148968886Y-101801014D01*
X148974519Y-101798181D01*
X149445184Y-101585756D01*
X149445852Y-101585459D01*
X149882919Y-101393982D01*
X149888994Y-101391630D01*
X150183670Y-101292022D01*
X150498983Y-101180001D01*
X150505919Y-101177908D01*
X150536923Y-101170157D01*
X150699558Y-101129498D01*
X150707963Y-101127901D01*
X150863076Y-101107492D01*
X150863087Y-101107489D01*
X150863099Y-101107488D01*
X150936829Y-101093306D01*
X151027812Y-101075806D01*
X151031702Y-101075164D01*
X151244230Y-101045850D01*
X151247748Y-101045451D01*
X151456693Y-101026824D01*
X151462751Y-101026530D01*
X151760505Y-101024089D01*
X151765305Y-101024205D01*
X151951990Y-101034756D01*
X151954880Y-101034976D01*
X152166616Y-101055336D01*
X152171062Y-101055899D01*
X152424927Y-101095768D01*
X152429643Y-101096665D01*
X152683359Y-101153406D01*
X152689752Y-101155136D01*
X153006623Y-101256144D01*
X153011029Y-101257701D01*
X153122659Y-101301113D01*
X153260515Y-101354724D01*
X153264165Y-101356256D01*
X153562622Y-101490806D01*
X153568338Y-101493680D01*
X153794959Y-101620034D01*
X153796723Y-101621049D01*
X153976620Y-101727955D01*
X153995938Y-101739435D01*
X153999956Y-101741999D01*
X154208449Y-101884524D01*
X154211611Y-101886809D01*
X154411615Y-102039466D01*
X154414372Y-102041676D01*
X154528957Y-102138122D01*
X154626170Y-102219946D01*
X154628928Y-102222385D01*
X154893382Y-102468066D01*
X154898357Y-102473147D01*
X155331651Y-102959682D01*
X155336476Y-102965693D01*
X155583619Y-103308213D01*
X155586606Y-103312681D01*
X155899237Y-103818553D01*
X155902198Y-103823805D01*
X156160605Y-104328313D01*
X156162779Y-104332938D01*
X156292775Y-104635852D01*
X156294122Y-104639211D01*
X156393521Y-104905504D01*
X156394691Y-104908883D01*
X156522722Y-105308978D01*
X156523909Y-105313084D01*
X156618668Y-105679816D01*
X156619387Y-105682859D01*
X156683645Y-105982463D01*
X156684189Y-105985254D01*
X156734685Y-106273447D01*
X156735062Y-106275822D01*
X156782813Y-106611061D01*
X156783304Y-106615420D01*
X156808706Y-106920243D01*
X156808862Y-106922536D01*
X156824448Y-107218676D01*
X156824551Y-107222224D01*
X156825369Y-107374533D01*
X156829429Y-107505269D01*
X156829406Y-107510573D01*
X156821272Y-107716382D01*
X156821152Y-107718598D01*
X156804343Y-107961738D01*
X156804091Y-107964591D01*
X156779480Y-108193479D01*
X156779293Y-108195063D01*
X156744626Y-108463731D01*
X156744575Y-108464120D01*
X156711180Y-108712728D01*
X156710879Y-108714753D01*
X156681341Y-108896905D01*
X156681102Y-108898298D01*
X156615523Y-109259598D01*
X156615178Y-109261374D01*
X156552005Y-109567328D01*
X156552006Y-109567329D01*
X156496353Y-109839407D01*
X156495739Y-109842146D01*
X156399620Y-110236480D01*
X156398572Y-110240331D01*
X156329788Y-110469017D01*
X156244556Y-110759919D01*
X156243473Y-110763316D01*
X156190158Y-110917746D01*
X156189864Y-110918582D01*
X156119166Y-111115793D01*
X156052649Y-111317191D01*
X156051405Y-111320669D01*
X155952457Y-111577201D01*
X155950167Y-111582518D01*
X155854505Y-111783038D01*
X155743264Y-112029624D01*
X155741977Y-112032330D01*
X155620250Y-112275784D01*
X155618973Y-112278225D01*
X155390654Y-112695881D01*
X155390107Y-112696865D01*
X155216027Y-113004284D01*
X155214227Y-113007296D01*
X155025202Y-113307513D01*
X155024793Y-113308155D01*
X154937898Y-113443117D01*
X154936957Y-113444543D01*
X154808823Y-113633958D01*
X154687658Y-113824095D01*
X154559116Y-114030879D01*
X154559052Y-114030984D01*
X154421088Y-114254552D01*
X154249638Y-114532383D01*
X154249638Y-114532384D01*
X154395130Y-114625135D01*
X154402083Y-114630148D01*
X154621223Y-114808000D01*
X154649868Y-114831248D01*
X154660928Y-114842322D01*
X154808527Y-115024650D01*
X154818339Y-115040417D01*
X154924148Y-115269380D01*
X154929831Y-115287248D01*
X154985813Y-115589904D01*
X154986694Y-115611065D01*
X154940000Y-116077999D01*
X154940000Y-116078000D01*
X155250342Y-115875881D01*
X155263020Y-115869250D01*
X155503804Y-115771306D01*
X155739068Y-115651609D01*
X155746828Y-115648197D01*
X155953019Y-115571114D01*
X155959070Y-115569140D01*
X156192597Y-115503792D01*
X156199055Y-115502288D01*
X156510332Y-115444184D01*
X156806584Y-115390694D01*
X156818086Y-115389521D01*
X157320599Y-115377164D01*
X157327272Y-115377296D01*
X157708416Y-115401886D01*
X157719407Y-115403417D01*
X158140157Y-115494167D01*
X158143329Y-115494923D01*
X158407780Y-115564088D01*
X158420499Y-115568671D01*
X158778090Y-115735277D01*
X158788284Y-115741034D01*
X158978953Y-115869242D01*
X159262407Y-116059840D01*
X159275980Y-116071539D01*
X159619016Y-116447244D01*
X159624889Y-116454541D01*
X159792733Y-116691980D01*
X159795402Y-116696027D01*
X159971182Y-116982180D01*
X159976819Y-116993343D01*
X160123585Y-117356182D01*
X160126686Y-117365589D01*
X160191830Y-117618019D01*
X160193051Y-117623626D01*
X160246868Y-117925831D01*
X160247232Y-117928068D01*
X160273009Y-118103264D01*
X160273765Y-118116804D01*
X160261000Y-118486736D01*
X160260402Y-118493953D01*
X160219461Y-118805116D01*
X160217995Y-118812989D01*
X160156821Y-119065840D01*
X160154949Y-119072299D01*
X160072950Y-119314195D01*
X160071205Y-119318835D01*
X159956893Y-119594761D01*
X159938285Y-119621366D01*
X159751915Y-119792522D01*
X159736808Y-119803289D01*
X159290335Y-120044626D01*
X159267384Y-120052573D01*
X158757055Y-120140780D01*
X158742845Y-120141866D01*
X158342462Y-120134398D01*
X158337704Y-120134158D01*
X157562782Y-120070465D01*
X157424302Y-120059083D01*
X157418978Y-120058454D01*
X156555624Y-119924989D01*
X156551393Y-119924211D01*
X155195121Y-119634239D01*
X155192873Y-119633722D01*
X154909903Y-119564086D01*
X154909105Y-119563885D01*
X154502949Y-119459206D01*
X154502579Y-119459110D01*
X154104292Y-119354298D01*
X154104270Y-119354293D01*
X153859791Y-119305396D01*
X153845907Y-119301192D01*
X153669413Y-119228519D01*
X153567464Y-119186540D01*
X153417411Y-119164135D01*
X153163301Y-119126194D01*
X153160657Y-119125750D01*
X152833597Y-119064928D01*
X152537220Y-119010662D01*
X152534359Y-119010081D01*
X152179870Y-118930842D01*
X152178674Y-118930564D01*
X151954111Y-118876503D01*
X151951585Y-118875849D01*
X151652546Y-118792783D01*
X151649186Y-118791764D01*
X151351938Y-118694038D01*
X151338116Y-118687892D01*
X151109884Y-118557475D01*
X151109858Y-118557460D01*
X150879195Y-118431644D01*
X150653856Y-118321023D01*
X150643683Y-118314993D01*
X150465742Y-118189625D01*
X150462325Y-118187069D01*
X150345210Y-118094185D01*
X150339777Y-118089434D01*
X150229632Y-117983368D01*
X150228620Y-117982374D01*
X150135307Y-117889061D01*
X150130346Y-117883588D01*
X150002942Y-117728315D01*
X149995109Y-117716715D01*
X149881499Y-117509082D01*
X149874518Y-117491233D01*
X149823316Y-117286425D01*
X149821787Y-117278527D01*
X149787434Y-117030421D01*
X149792644Y-116990860D01*
X149864280Y-116821199D01*
X149928907Y-116663667D01*
X149934857Y-116652123D01*
X150053004Y-116464720D01*
X150107674Y-116345762D01*
X150125159Y-116321761D01*
X150220758Y-116234058D01*
X150361803Y-116084567D01*
X150375574Y-116073088D01*
X150476584Y-116007589D01*
X150652727Y-115894354D01*
X150675628Y-115875886D01*
X150775668Y-115795208D01*
X150790951Y-115785656D01*
X150916940Y-115726600D01*
X151084695Y-115642722D01*
X151055338Y-115508519D01*
X150987223Y-115348249D01*
X150982536Y-115332770D01*
X150932713Y-115068324D01*
X150934027Y-115034749D01*
X150980236Y-114864133D01*
X150992820Y-114838463D01*
X151119087Y-114671346D01*
X151137012Y-114654351D01*
X151292632Y-114549308D01*
X151296198Y-114547044D01*
X151484023Y-114435149D01*
X151499797Y-114428067D01*
X151740183Y-114351944D01*
X151746148Y-114350322D01*
X151979092Y-114297195D01*
X151985310Y-114296050D01*
X152279947Y-114254552D01*
X152442558Y-113904311D01*
X152444581Y-113900279D01*
X152640211Y-113538157D01*
X152641042Y-113536663D01*
X152954363Y-112989395D01*
X152956007Y-112986662D01*
X153307445Y-112430220D01*
X153490811Y-112025980D01*
X153493326Y-112020947D01*
X153684186Y-111672420D01*
X153685656Y-111669858D01*
X153709569Y-111630003D01*
X153848453Y-111398529D01*
X153952820Y-111143873D01*
X153953818Y-111141553D01*
X154108473Y-110798806D01*
X154225901Y-110501041D01*
X154343293Y-110115323D01*
X154343369Y-110115078D01*
X154498503Y-109620329D01*
X154611737Y-109096096D01*
X154704002Y-108664127D01*
X154762476Y-108196330D01*
X154763050Y-108192530D01*
X154771895Y-108142678D01*
X154808849Y-107934394D01*
X154804708Y-107694230D01*
X154804855Y-107688066D01*
X154825624Y-107368222D01*
X154817237Y-106961417D01*
X154787880Y-106663653D01*
X154720778Y-106227490D01*
X154603349Y-105778747D01*
X154460758Y-105388717D01*
X154328037Y-105106685D01*
X154326558Y-105103542D01*
X154326553Y-105103533D01*
X154315269Y-105084500D01*
X154115251Y-104747120D01*
X153978470Y-104516404D01*
X153978459Y-104516387D01*
X153676511Y-104088626D01*
X153676509Y-104088623D01*
X153676505Y-104088618D01*
X153353577Y-103723752D01*
X152984517Y-103413406D01*
X152657395Y-103233069D01*
X152657394Y-103233068D01*
X152657391Y-103233067D01*
X152657389Y-103233066D01*
X152191879Y-103082091D01*
X152191876Y-103082090D01*
X152191872Y-103082089D01*
X152191869Y-103082089D01*
X151803015Y-103043841D01*
X151680224Y-103031764D01*
X151680223Y-103031764D01*
X151680220Y-103031764D01*
X151181173Y-103086281D01*
X151181148Y-103086285D01*
X150753379Y-103174354D01*
X150753373Y-103174356D01*
X150321403Y-103329530D01*
X149985911Y-103451145D01*
X149985910Y-103451146D01*
X149605999Y-103631999D01*
X149104418Y-103918079D01*
X148689182Y-104163446D01*
X148356140Y-104377096D01*
X148355391Y-104377570D01*
X148054255Y-104565781D01*
X148053471Y-104566264D01*
X147588313Y-104849130D01*
X147170789Y-105154483D01*
X147162516Y-105159742D01*
X146875017Y-105317181D01*
X146824170Y-105324967D01*
X146785725Y-105304398D01*
X146630862Y-105149535D01*
X146630861Y-105149534D01*
X146630860Y-105149533D01*
X146556646Y-105106685D01*
X146556640Y-105106683D01*
X146556639Y-105106682D01*
X146473853Y-105084500D01*
X146473851Y-105084500D01*
X145893700Y-105084500D01*
X145845362Y-105066907D01*
X145819642Y-105022358D01*
X145818500Y-105009300D01*
X145818500Y-104905726D01*
X145816354Y-104882851D01*
X145815646Y-104875301D01*
X145770793Y-104747118D01*
X145690150Y-104637850D01*
X145580882Y-104557207D01*
X145580879Y-104557205D01*
X145464273Y-104516404D01*
X145452699Y-104512354D01*
X145452694Y-104512353D01*
X145452692Y-104512353D01*
X145422273Y-104509500D01*
X145422266Y-104509500D01*
X144613734Y-104509500D01*
X144613727Y-104509500D01*
X144583307Y-104512353D01*
X144583303Y-104512353D01*
X144583301Y-104512354D01*
X144583298Y-104512354D01*
X144583298Y-104512355D01*
X144455120Y-104557205D01*
X144455117Y-104557207D01*
X144345850Y-104637850D01*
X144265207Y-104747117D01*
X144265205Y-104747120D01*
X144220355Y-104875298D01*
X144220353Y-104875307D01*
X144217500Y-104905726D01*
X144217500Y-105914273D01*
X144220353Y-105944692D01*
X144220354Y-105944699D01*
X144220355Y-105944701D01*
X144265205Y-106072879D01*
X144265207Y-106072882D01*
X144345850Y-106182150D01*
X144455117Y-106262792D01*
X144455120Y-106262794D01*
X144485565Y-106273447D01*
X144583301Y-106307646D01*
X144597347Y-106308963D01*
X144613727Y-106310500D01*
X144613734Y-106310500D01*
X145422272Y-106310500D01*
X145436312Y-106309182D01*
X145452699Y-106307646D01*
X145580882Y-106262793D01*
X145690150Y-106182150D01*
X145770793Y-106072882D01*
X145815646Y-105944699D01*
X145818091Y-105918627D01*
X145818500Y-105914273D01*
X145818500Y-105810700D01*
X145836093Y-105762362D01*
X145880642Y-105736642D01*
X145893700Y-105735500D01*
X146265025Y-105735500D01*
X146313363Y-105753093D01*
X146318199Y-105757526D01*
X146413703Y-105853030D01*
X146435443Y-105899650D01*
X146429692Y-105935726D01*
X146420045Y-105958327D01*
X146415881Y-105966623D01*
X146018983Y-106648790D01*
X146011252Y-106659710D01*
X145515043Y-107242757D01*
X145509306Y-107248787D01*
X145037310Y-107692885D01*
X145030346Y-107698688D01*
X144481046Y-108102850D01*
X144466765Y-108111111D01*
X144160158Y-108246018D01*
X144159495Y-108246306D01*
X143939642Y-108340529D01*
X143889792Y-108546162D01*
X143888740Y-108550046D01*
X143764443Y-108964522D01*
X143763495Y-108967462D01*
X143663931Y-109255848D01*
X143661492Y-109262016D01*
X143452495Y-109729187D01*
X143443722Y-109743980D01*
X143209931Y-110051597D01*
X143209910Y-110051625D01*
X142960439Y-110419595D01*
X142955796Y-110425740D01*
X142664714Y-110772561D01*
X142660287Y-110777391D01*
X142357373Y-111080305D01*
X142351029Y-111085969D01*
X142046604Y-111328266D01*
X142045624Y-111329033D01*
X141804550Y-111514476D01*
X141755510Y-111530003D01*
X141707962Y-111510375D01*
X141684155Y-111464776D01*
X141683500Y-111454871D01*
X141683500Y-108204000D01*
X141888318Y-108204000D01*
X141908956Y-108360763D01*
X141969463Y-108506839D01*
X141969465Y-108506842D01*
X142065717Y-108632282D01*
X142107219Y-108664127D01*
X142191159Y-108728536D01*
X142337238Y-108789044D01*
X142494000Y-108809682D01*
X142650762Y-108789044D01*
X142796841Y-108728536D01*
X142922282Y-108632282D01*
X143018536Y-108506841D01*
X143079044Y-108360762D01*
X143099682Y-108204000D01*
X143087611Y-108112319D01*
X143098745Y-108062102D01*
X143108989Y-108049336D01*
X143278465Y-107879862D01*
X143321318Y-107805639D01*
X143343500Y-107722853D01*
X143343500Y-107637147D01*
X143343500Y-106385700D01*
X143361093Y-106337362D01*
X143405642Y-106311642D01*
X143418700Y-106310500D01*
X143422272Y-106310500D01*
X143436312Y-106309182D01*
X143452699Y-106307646D01*
X143580882Y-106262793D01*
X143690150Y-106182150D01*
X143770793Y-106072882D01*
X143815646Y-105944699D01*
X143818091Y-105918627D01*
X143818500Y-105914273D01*
X143818500Y-104905726D01*
X143816354Y-104882851D01*
X143815646Y-104875301D01*
X143770793Y-104747118D01*
X143690150Y-104637850D01*
X143580882Y-104557207D01*
X143580879Y-104557205D01*
X143464273Y-104516404D01*
X143452699Y-104512354D01*
X143452694Y-104512353D01*
X143452692Y-104512353D01*
X143422273Y-104509500D01*
X143422266Y-104509500D01*
X142613734Y-104509500D01*
X142613727Y-104509500D01*
X142583307Y-104512353D01*
X142583303Y-104512353D01*
X142583301Y-104512354D01*
X142583298Y-104512354D01*
X142583298Y-104512355D01*
X142455120Y-104557205D01*
X142455117Y-104557207D01*
X142345850Y-104637850D01*
X142265207Y-104747117D01*
X142265205Y-104747120D01*
X142220355Y-104875298D01*
X142220353Y-104875307D01*
X142217500Y-104905726D01*
X142217500Y-105914273D01*
X142220353Y-105944692D01*
X142220354Y-105944699D01*
X142220355Y-105944701D01*
X142265205Y-106072879D01*
X142265207Y-106072882D01*
X142345850Y-106182150D01*
X142455117Y-106262792D01*
X142455120Y-106262794D01*
X142485565Y-106273447D01*
X142583301Y-106307646D01*
X142597347Y-106308963D01*
X142613727Y-106310500D01*
X142613734Y-106310500D01*
X142617300Y-106310500D01*
X142665638Y-106328093D01*
X142691358Y-106372642D01*
X142692500Y-106385700D01*
X142692500Y-107514023D01*
X142674907Y-107562361D01*
X142670473Y-107567199D01*
X142648665Y-107589006D01*
X142602044Y-107610744D01*
X142585677Y-107610387D01*
X142494000Y-107598318D01*
X142337236Y-107618956D01*
X142191160Y-107679463D01*
X142191157Y-107679465D01*
X142065717Y-107775717D01*
X141969465Y-107901157D01*
X141969463Y-107901160D01*
X141908956Y-108047236D01*
X141888318Y-108204000D01*
X141683500Y-108204000D01*
X141683500Y-102319203D01*
X141701093Y-102270865D01*
X141745642Y-102245145D01*
X141796300Y-102254078D01*
X141829365Y-102293483D01*
X141829680Y-102294366D01*
X141844205Y-102335879D01*
X141844207Y-102335882D01*
X141924850Y-102445150D01*
X142034117Y-102525792D01*
X142034120Y-102525794D01*
X142040099Y-102527886D01*
X142162301Y-102570646D01*
X142176347Y-102571963D01*
X142192727Y-102573500D01*
X142192734Y-102573500D01*
X143126272Y-102573500D01*
X143140312Y-102572182D01*
X143156699Y-102570646D01*
X143284882Y-102525793D01*
X143394150Y-102445150D01*
X143474793Y-102335882D01*
X143519646Y-102207699D01*
X143522452Y-102177783D01*
X143522500Y-102177273D01*
X143522500Y-101873700D01*
X143540093Y-101825362D01*
X143584642Y-101799642D01*
X143597700Y-101798500D01*
X143600766Y-101798500D01*
X143649104Y-101816093D01*
X143660426Y-101827921D01*
X143716717Y-101901282D01*
X143781581Y-101951053D01*
X143842159Y-101997536D01*
X143988238Y-102058044D01*
X144145000Y-102078682D01*
X144301762Y-102058044D01*
X144447841Y-101997536D01*
X144573282Y-101901282D01*
X144669536Y-101775841D01*
X144730044Y-101629762D01*
X144750682Y-101473000D01*
X144730044Y-101316238D01*
X144669536Y-101170159D01*
X144610565Y-101093306D01*
X144573282Y-101044717D01*
X144447842Y-100948465D01*
X144447841Y-100948464D01*
X144447839Y-100948463D01*
X144301763Y-100887956D01*
X144145000Y-100867318D01*
X143988236Y-100887956D01*
X143842160Y-100948463D01*
X143842157Y-100948465D01*
X143716717Y-101044717D01*
X143660426Y-101118079D01*
X143617042Y-101145717D01*
X143600766Y-101147500D01*
X143597700Y-101147500D01*
X143549362Y-101129907D01*
X143523642Y-101085358D01*
X143522500Y-101072300D01*
X143522500Y-100768726D01*
X143520191Y-100744112D01*
X143519646Y-100738301D01*
X143474793Y-100610118D01*
X143394150Y-100500850D01*
X143284882Y-100420207D01*
X143284879Y-100420205D01*
X143187404Y-100386098D01*
X143156699Y-100375354D01*
X143156694Y-100375353D01*
X143156692Y-100375353D01*
X143126273Y-100372500D01*
X143126266Y-100372500D01*
X142773621Y-100372500D01*
X142725283Y-100354907D01*
X142699563Y-100310358D01*
X142699563Y-100287905D01*
X142699214Y-100287875D01*
X142699500Y-100284604D01*
X142699500Y-100042324D01*
X142699500Y-100042320D01*
X142695168Y-100000347D01*
X142687834Y-99965197D01*
X142682266Y-99944155D01*
X142635554Y-99865528D01*
X142622581Y-99851891D01*
X142594114Y-99821967D01*
X142594111Y-99821964D01*
X142554558Y-99789607D01*
X142554559Y-99789607D01*
X142500986Y-99770860D01*
X142468235Y-99759399D01*
X142465402Y-99759079D01*
X142456276Y-99758051D01*
X142410213Y-99735153D01*
X142389646Y-99688004D01*
X142389500Y-99683324D01*
X142389500Y-98851375D01*
X142407093Y-98803037D01*
X142451642Y-98777317D01*
X142502300Y-98786250D01*
X142517874Y-98798201D01*
X142695748Y-98976075D01*
X142717488Y-99022695D01*
X142712050Y-99058026D01*
X142670957Y-99157234D01*
X142670956Y-99157236D01*
X142670956Y-99157238D01*
X142653309Y-99291283D01*
X142650318Y-99314000D01*
X142670956Y-99470763D01*
X142724033Y-99598902D01*
X142731464Y-99616841D01*
X142743702Y-99632790D01*
X142827717Y-99742282D01*
X142899366Y-99797259D01*
X142953159Y-99838536D01*
X143099238Y-99899044D01*
X143256000Y-99919682D01*
X143412762Y-99899044D01*
X143558841Y-99838536D01*
X143684282Y-99742282D01*
X143780536Y-99616841D01*
X143841044Y-99470762D01*
X143861682Y-99314000D01*
X143841044Y-99157238D01*
X143780536Y-99011159D01*
X143744197Y-98963801D01*
X143684282Y-98885717D01*
X143558842Y-98789465D01*
X143558841Y-98789464D01*
X143534306Y-98779301D01*
X143412760Y-98728955D01*
X143387997Y-98725695D01*
X143344640Y-98704313D01*
X142411526Y-97771199D01*
X142389786Y-97724579D01*
X142389500Y-97718025D01*
X142389500Y-96904726D01*
X142387087Y-96879004D01*
X142386646Y-96874301D01*
X142343361Y-96750598D01*
X142341794Y-96746120D01*
X142341792Y-96746117D01*
X142261150Y-96636850D01*
X142151882Y-96556207D01*
X142151879Y-96556205D01*
X142031409Y-96514052D01*
X142023699Y-96511354D01*
X142023694Y-96511353D01*
X142023692Y-96511353D01*
X141993273Y-96508500D01*
X141993266Y-96508500D01*
X141184734Y-96508500D01*
X141184727Y-96508500D01*
X141154307Y-96511353D01*
X141154303Y-96511353D01*
X141154301Y-96511354D01*
X141154298Y-96511354D01*
X141154298Y-96511355D01*
X141026120Y-96556205D01*
X141026117Y-96556207D01*
X140916850Y-96636850D01*
X140836207Y-96746117D01*
X140836205Y-96746120D01*
X140791355Y-96874298D01*
X140791353Y-96874307D01*
X140788500Y-96904726D01*
X140788500Y-97763300D01*
X140770907Y-97811638D01*
X140726358Y-97837358D01*
X140713300Y-97838500D01*
X140464700Y-97838500D01*
X140416362Y-97820907D01*
X140390642Y-97776358D01*
X140389500Y-97763300D01*
X140389500Y-96904726D01*
X140387087Y-96879004D01*
X140386646Y-96874301D01*
X140343361Y-96750598D01*
X140341794Y-96746120D01*
X140341792Y-96746117D01*
X140261150Y-96636850D01*
X140151882Y-96556207D01*
X140151879Y-96556205D01*
X140031409Y-96514052D01*
X140023699Y-96511354D01*
X140023694Y-96511353D01*
X140023692Y-96511353D01*
X139993273Y-96508500D01*
X139993266Y-96508500D01*
X139952200Y-96508500D01*
X139903862Y-96490907D01*
X139878142Y-96446358D01*
X139877000Y-96433300D01*
X139877000Y-96388700D01*
X139894593Y-96340362D01*
X139939142Y-96314642D01*
X139952200Y-96313500D01*
X140102272Y-96313500D01*
X140116312Y-96312182D01*
X140132699Y-96310646D01*
X140260882Y-96265793D01*
X140370150Y-96185150D01*
X140450793Y-96075882D01*
X140495646Y-95947699D01*
X140497865Y-95924040D01*
X140498500Y-95917273D01*
X140498500Y-95133726D01*
X140496059Y-95107709D01*
X140495646Y-95103301D01*
X140450793Y-94975118D01*
X140370150Y-94865850D01*
X140260882Y-94785207D01*
X140260879Y-94785205D01*
X140148051Y-94745726D01*
X140132699Y-94740354D01*
X140132694Y-94740353D01*
X140132692Y-94740353D01*
X140102273Y-94737500D01*
X140102266Y-94737500D01*
X139043734Y-94737500D01*
X139043727Y-94737500D01*
X139013307Y-94740353D01*
X139013303Y-94740353D01*
X139013301Y-94740354D01*
X139013298Y-94740354D01*
X139013298Y-94740355D01*
X138885120Y-94785205D01*
X138885117Y-94785207D01*
X138775850Y-94865850D01*
X138695207Y-94975117D01*
X138695205Y-94975120D01*
X138650355Y-95103298D01*
X138650353Y-95103307D01*
X138647500Y-95133726D01*
X138647500Y-95917273D01*
X138649649Y-95940185D01*
X138650354Y-95947699D01*
X138650355Y-95947701D01*
X138695205Y-96075879D01*
X138695207Y-96075882D01*
X138775850Y-96185150D01*
X138871391Y-96255662D01*
X138885117Y-96265792D01*
X138885120Y-96265794D01*
X138907286Y-96273550D01*
X139013301Y-96310646D01*
X139027347Y-96311963D01*
X139043727Y-96313500D01*
X139043734Y-96313500D01*
X139150800Y-96313500D01*
X139199138Y-96331093D01*
X139224858Y-96375642D01*
X139226000Y-96388700D01*
X139226000Y-96436152D01*
X139208407Y-96484490D01*
X139163858Y-96510210D01*
X139157827Y-96511023D01*
X139154306Y-96511353D01*
X139154302Y-96511353D01*
X139154301Y-96511354D01*
X139154298Y-96511354D01*
X139154298Y-96511355D01*
X139026120Y-96556205D01*
X139026117Y-96556207D01*
X138916850Y-96636850D01*
X138836207Y-96746117D01*
X138836205Y-96746120D01*
X138791355Y-96874298D01*
X138791353Y-96874307D01*
X138788500Y-96904726D01*
X138788500Y-97913273D01*
X138791353Y-97943692D01*
X138791354Y-97943699D01*
X138791355Y-97943701D01*
X138836205Y-98071879D01*
X138836207Y-98071882D01*
X138916850Y-98181150D01*
X139022487Y-98259113D01*
X139026117Y-98261792D01*
X139026120Y-98261794D01*
X139108215Y-98290520D01*
X139148029Y-98323091D01*
X139157593Y-98373634D01*
X139132430Y-98418499D01*
X139108215Y-98432480D01*
X139026120Y-98461205D01*
X139026117Y-98461207D01*
X138916850Y-98541850D01*
X138836207Y-98651117D01*
X138836205Y-98651120D01*
X138791355Y-98779298D01*
X138791353Y-98779307D01*
X138788500Y-98809726D01*
X138788500Y-99503025D01*
X138770907Y-99551363D01*
X138766474Y-99556199D01*
X137572874Y-100749799D01*
X137526254Y-100771539D01*
X137476567Y-100758225D01*
X137447062Y-100716088D01*
X137444500Y-100696625D01*
X137444500Y-100529251D01*
X137432867Y-100470770D01*
X137432866Y-100470768D01*
X137432857Y-100470754D01*
X137388552Y-100404448D01*
X137322231Y-100360133D01*
X137322229Y-100360132D01*
X137280028Y-100351738D01*
X137236052Y-100325052D01*
X137219500Y-100277983D01*
X137219500Y-99810700D01*
X137237093Y-99762362D01*
X137281642Y-99736642D01*
X137294700Y-99735500D01*
X137359262Y-99735500D01*
X137359263Y-99735499D01*
X137388849Y-99732725D01*
X137513475Y-99689116D01*
X137619711Y-99610711D01*
X137698116Y-99504475D01*
X137741725Y-99379849D01*
X137744499Y-99350263D01*
X137744500Y-99350262D01*
X137744500Y-98769738D01*
X137744499Y-98769735D01*
X137743060Y-98754387D01*
X137741725Y-98740151D01*
X137698116Y-98615525D01*
X137619711Y-98509289D01*
X137513475Y-98430884D01*
X137513472Y-98430882D01*
X137392863Y-98388679D01*
X137353048Y-98356108D01*
X137342500Y-98317699D01*
X137342500Y-98257700D01*
X137360093Y-98209362D01*
X137404642Y-98183642D01*
X137417700Y-98182500D01*
X137421272Y-98182500D01*
X137435672Y-98181149D01*
X137451699Y-98179646D01*
X137579882Y-98134793D01*
X137689150Y-98054150D01*
X137769793Y-97944882D01*
X137814646Y-97816699D01*
X137816073Y-97801482D01*
X137817500Y-97786273D01*
X137817500Y-96777726D01*
X137814792Y-96748860D01*
X137814646Y-96747301D01*
X137772366Y-96626471D01*
X137769794Y-96619120D01*
X137769792Y-96619117D01*
X137762704Y-96609513D01*
X137689150Y-96509850D01*
X137579882Y-96429207D01*
X137579879Y-96429205D01*
X137464119Y-96388700D01*
X137451699Y-96384354D01*
X137451694Y-96384353D01*
X137451692Y-96384353D01*
X137421273Y-96381500D01*
X137421266Y-96381500D01*
X137417700Y-96381500D01*
X137369362Y-96363907D01*
X137343642Y-96319358D01*
X137342500Y-96306300D01*
X137342500Y-96225700D01*
X137360093Y-96177362D01*
X137404642Y-96151642D01*
X137417700Y-96150500D01*
X137421272Y-96150500D01*
X137435312Y-96149182D01*
X137451699Y-96147646D01*
X137579882Y-96102793D01*
X137689150Y-96022150D01*
X137769793Y-95912882D01*
X137814646Y-95784699D01*
X137816505Y-95764876D01*
X137817500Y-95754273D01*
X137817500Y-94745726D01*
X137815869Y-94728343D01*
X137814646Y-94715301D01*
X137769793Y-94587118D01*
X137689150Y-94477850D01*
X137579882Y-94397207D01*
X137579879Y-94397205D01*
X137473007Y-94359810D01*
X137451699Y-94352354D01*
X137451694Y-94352353D01*
X137451692Y-94352353D01*
X137421273Y-94349500D01*
X137421266Y-94349500D01*
X136612734Y-94349500D01*
X136612727Y-94349500D01*
X136582307Y-94352353D01*
X136582303Y-94352353D01*
X136582301Y-94352354D01*
X136582298Y-94352354D01*
X136582298Y-94352355D01*
X136454120Y-94397205D01*
X136454117Y-94397207D01*
X136344850Y-94477850D01*
X136264207Y-94587117D01*
X136264205Y-94587120D01*
X136219355Y-94715298D01*
X136219353Y-94715307D01*
X136216500Y-94745726D01*
X136216500Y-95754273D01*
X136218540Y-95776021D01*
X136219354Y-95784699D01*
X136219355Y-95784701D01*
X136264205Y-95912879D01*
X136264207Y-95912882D01*
X136344850Y-96022150D01*
X136444433Y-96095645D01*
X136454117Y-96102792D01*
X136454120Y-96102794D01*
X136484889Y-96113560D01*
X136582301Y-96147646D01*
X136596347Y-96148963D01*
X136612727Y-96150500D01*
X136612734Y-96150500D01*
X136616300Y-96150500D01*
X136664638Y-96168093D01*
X136690358Y-96212642D01*
X136691500Y-96225700D01*
X136691500Y-96306300D01*
X136673907Y-96354638D01*
X136629358Y-96380358D01*
X136616300Y-96381500D01*
X136612727Y-96381500D01*
X136582307Y-96384353D01*
X136582303Y-96384353D01*
X136582301Y-96384354D01*
X136582298Y-96384354D01*
X136582298Y-96384355D01*
X136454120Y-96429205D01*
X136454117Y-96429207D01*
X136344850Y-96509850D01*
X136264207Y-96619117D01*
X136264205Y-96619120D01*
X136219355Y-96747298D01*
X136219353Y-96747307D01*
X136216500Y-96777726D01*
X136216500Y-97786273D01*
X136218879Y-97811638D01*
X136219354Y-97816699D01*
X136227032Y-97838642D01*
X136264205Y-97944879D01*
X136264207Y-97944882D01*
X136344850Y-98054150D01*
X136441471Y-98125459D01*
X136454117Y-98134792D01*
X136454120Y-98134794D01*
X136484889Y-98145560D01*
X136582301Y-98179646D01*
X136596347Y-98180963D01*
X136612727Y-98182500D01*
X136612734Y-98182500D01*
X136616300Y-98182500D01*
X136664638Y-98200093D01*
X136690358Y-98244642D01*
X136691500Y-98257700D01*
X136691500Y-98312481D01*
X136673907Y-98360819D01*
X136629358Y-98386539D01*
X136624567Y-98387184D01*
X136624153Y-98387274D01*
X136624151Y-98387275D01*
X136624148Y-98387275D01*
X136624148Y-98387276D01*
X136499527Y-98430882D01*
X136499524Y-98430884D01*
X136393289Y-98509289D01*
X136314884Y-98615524D01*
X136314882Y-98615527D01*
X136271276Y-98740148D01*
X136271274Y-98740157D01*
X136268500Y-98769735D01*
X136268500Y-99350264D01*
X136270051Y-99366800D01*
X136271275Y-99379849D01*
X136271276Y-99379851D01*
X136314882Y-99504472D01*
X136314884Y-99504475D01*
X136393289Y-99610711D01*
X136499525Y-99689116D01*
X136518136Y-99695628D01*
X136557950Y-99728197D01*
X136568500Y-99766608D01*
X136568500Y-100277983D01*
X136550907Y-100326321D01*
X136507972Y-100351738D01*
X136465770Y-100360132D01*
X136465768Y-100360133D01*
X136399448Y-100404448D01*
X136355133Y-100470768D01*
X136355132Y-100470770D01*
X136343500Y-100529251D01*
X136343500Y-100761578D01*
X136325907Y-100809916D01*
X136281358Y-100835636D01*
X136258905Y-100835639D01*
X136258875Y-100835986D01*
X136255604Y-100835700D01*
X136255600Y-100835700D01*
X135903771Y-100835700D01*
X135903767Y-100835700D01*
X135844123Y-100844547D01*
X135822444Y-100851123D01*
X135785947Y-100852915D01*
X135763750Y-100848500D01*
X135763748Y-100848500D01*
X135024252Y-100848500D01*
X135024251Y-100848500D01*
X134965770Y-100860132D01*
X134965766Y-100860134D01*
X134941475Y-100876365D01*
X134891509Y-100888591D01*
X134845374Y-100865839D01*
X134843824Y-100864169D01*
X134452788Y-100429684D01*
X134082804Y-100018590D01*
X134063545Y-99970892D01*
X134063500Y-99968284D01*
X134063500Y-98385910D01*
X134063500Y-98385900D01*
X134062719Y-98367995D01*
X134061384Y-98352731D01*
X134034632Y-98267884D01*
X134034631Y-98267883D01*
X134034631Y-98267881D01*
X134034629Y-98267877D01*
X134004571Y-98215818D01*
X134004563Y-98215806D01*
X133978311Y-98181150D01*
X133973712Y-98175078D01*
X133896887Y-98125459D01*
X133884754Y-98121043D01*
X133840384Y-98104893D01*
X133770103Y-98092500D01*
X133770100Y-98092500D01*
X129373900Y-98092500D01*
X129364476Y-98092911D01*
X129355986Y-98093281D01*
X129342257Y-98094482D01*
X129340731Y-98094616D01*
X129319519Y-98101304D01*
X129255881Y-98121368D01*
X129255877Y-98121370D01*
X129203818Y-98151428D01*
X129203806Y-98151436D01*
X129163080Y-98182286D01*
X129163079Y-98182286D01*
X129163078Y-98182288D01*
X129145592Y-98209362D01*
X129113459Y-98259112D01*
X129092893Y-98315615D01*
X129080500Y-98385897D01*
X129080500Y-102020089D01*
X129081281Y-102038013D01*
X129081602Y-102041676D01*
X129082616Y-102053269D01*
X129093073Y-102086433D01*
X129109368Y-102138118D01*
X129109370Y-102138122D01*
X129139428Y-102190181D01*
X129139436Y-102190193D01*
X129154782Y-102210452D01*
X129170288Y-102230922D01*
X129247113Y-102280541D01*
X129303614Y-102301106D01*
X129321185Y-102304204D01*
X129373897Y-102313500D01*
X129373900Y-102313500D01*
X134048032Y-102313500D01*
X134096370Y-102331093D01*
X134122090Y-102375642D01*
X134113157Y-102426300D01*
X134094308Y-102447975D01*
X132038162Y-104053212D01*
X132038127Y-104053241D01*
X132021876Y-104067361D01*
X132021875Y-104067362D01*
X132008706Y-104080076D01*
X132007881Y-104080876D01*
X132007879Y-104080878D01*
X132007878Y-104080880D01*
X131981926Y-104121060D01*
X131958259Y-104157704D01*
X131937693Y-104214207D01*
X131925300Y-104284489D01*
X131925300Y-104284492D01*
X131925300Y-107938300D01*
X131925347Y-107939367D01*
X131926081Y-107956213D01*
X131926131Y-107956781D01*
X131927416Y-107971469D01*
X131931645Y-107984881D01*
X131954168Y-108056318D01*
X131954170Y-108056322D01*
X131984228Y-108108381D01*
X131984236Y-108108393D01*
X132004802Y-108135543D01*
X132015088Y-108149122D01*
X132091913Y-108198741D01*
X132148414Y-108219306D01*
X132165985Y-108222404D01*
X132218697Y-108231700D01*
X132218700Y-108231700D01*
X132343922Y-108231700D01*
X132372701Y-108237425D01*
X132373767Y-108237866D01*
X132373769Y-108237867D01*
X132414747Y-108246018D01*
X132432251Y-108249500D01*
X132432252Y-108249500D01*
X134821749Y-108249500D01*
X134839253Y-108246018D01*
X134880231Y-108237867D01*
X134880233Y-108237865D01*
X134881299Y-108237425D01*
X134910078Y-108231700D01*
X136259631Y-108231700D01*
X136277134Y-108230952D01*
X136277140Y-108230951D01*
X136277151Y-108230951D01*
X136292100Y-108229671D01*
X136376671Y-108203260D01*
X136428851Y-108173386D01*
X136469700Y-108142677D01*
X136519598Y-108066033D01*
X136540368Y-108009607D01*
X136553017Y-107939367D01*
X136571929Y-102738170D01*
X136589699Y-102689897D01*
X136634340Y-102664339D01*
X136684966Y-102673456D01*
X136688828Y-102675865D01*
X137683013Y-103338654D01*
X137713474Y-103380105D01*
X137716500Y-103401224D01*
X137716500Y-108563975D01*
X137722141Y-108611787D01*
X137722144Y-108611801D01*
X137731662Y-108651578D01*
X137731663Y-108651580D01*
X137748280Y-108696776D01*
X138383861Y-109948807D01*
X138583165Y-110341415D01*
X138605478Y-110376190D01*
X138605481Y-110376194D01*
X138627359Y-110403741D01*
X138641170Y-110419422D01*
X138717995Y-110469041D01*
X138774496Y-110489606D01*
X138792067Y-110492704D01*
X138844779Y-110502000D01*
X138844782Y-110502000D01*
X139484487Y-110502000D01*
X139532825Y-110519593D01*
X139558545Y-110564142D01*
X139549612Y-110614800D01*
X139547057Y-110618913D01*
X139233500Y-111089248D01*
X139233499Y-111089250D01*
X139211375Y-111132962D01*
X139197146Y-111172059D01*
X139189264Y-111199523D01*
X139189264Y-111199524D01*
X139190591Y-111290968D01*
X139204819Y-111349382D01*
X139204822Y-111349393D01*
X139233496Y-111414745D01*
X139233497Y-111414747D01*
X139233498Y-111414748D01*
X139595615Y-111957924D01*
X139607789Y-112007901D01*
X139597835Y-112037811D01*
X139596907Y-112039386D01*
X139596849Y-112039483D01*
X139585826Y-112058126D01*
X139585370Y-112062885D01*
X139584978Y-112063695D01*
X139583325Y-112067058D01*
X139583322Y-112067064D01*
X139573366Y-112091905D01*
X139569580Y-112102131D01*
X139569580Y-112102133D01*
X139560112Y-112193098D01*
X139566146Y-112242858D01*
X139554499Y-112292962D01*
X139513371Y-112323857D01*
X139498623Y-112326771D01*
X139021108Y-112372249D01*
X139006785Y-112372243D01*
X137935925Y-112269338D01*
X137909488Y-112261744D01*
X136906000Y-111760000D01*
X135894780Y-112265609D01*
X135884930Y-112269689D01*
X135432480Y-112420505D01*
X135381060Y-112419100D01*
X135342572Y-112384971D01*
X135333500Y-112349164D01*
X135333500Y-111630006D01*
X135333500Y-111630003D01*
X135333500Y-111630000D01*
X135328803Y-111586316D01*
X135317597Y-111534805D01*
X135315110Y-111524627D01*
X135272100Y-111443915D01*
X135240687Y-111407662D01*
X135226343Y-111391108D01*
X135226337Y-111391102D01*
X135208758Y-111373160D01*
X135208755Y-111373158D01*
X135208754Y-111373157D01*
X135166251Y-111349382D01*
X135128937Y-111328509D01*
X135077114Y-111313292D01*
X135061898Y-111308825D01*
X135061895Y-111308824D01*
X135061890Y-111308823D01*
X135004012Y-111300501D01*
X135004003Y-111300500D01*
X135004000Y-111300500D01*
X131950000Y-111300500D01*
X131949995Y-111300500D01*
X131906332Y-111305194D01*
X131906305Y-111305199D01*
X131854828Y-111316397D01*
X131844629Y-111318889D01*
X131844625Y-111318891D01*
X131763914Y-111361900D01*
X131711108Y-111407656D01*
X131711102Y-111407662D01*
X131693160Y-111425241D01*
X131693158Y-111425245D01*
X131648509Y-111505062D01*
X131628825Y-111572102D01*
X131628823Y-111572109D01*
X131620501Y-111629987D01*
X131620500Y-111630003D01*
X131620500Y-112095165D01*
X131602907Y-112143503D01*
X131558358Y-112169223D01*
X131521520Y-112166506D01*
X131064001Y-112014000D01*
X131063999Y-112014000D01*
X130555999Y-112268000D01*
X130555998Y-112268001D01*
X129794000Y-113283999D01*
X129793997Y-113284003D01*
X129286002Y-114553993D01*
X129285999Y-114554003D01*
X129032216Y-115569138D01*
X129032000Y-115570000D01*
X128930400Y-116077999D01*
X128806795Y-116696027D01*
X128778000Y-116840000D01*
X128758012Y-118493953D01*
X128756388Y-118628291D01*
X129166100Y-121328726D01*
X129166102Y-121328735D01*
X129166103Y-121328736D01*
X130087223Y-124375114D01*
X130464490Y-124426196D01*
X130487217Y-124433054D01*
X130508680Y-124443465D01*
X131082852Y-124721955D01*
X131109816Y-124743997D01*
X131434521Y-125169532D01*
X131437203Y-125173046D01*
X131452606Y-125220101D01*
X131447858Y-125468534D01*
X131439063Y-125502413D01*
X131318187Y-125729647D01*
X131317770Y-125730420D01*
X131235025Y-125881682D01*
X131235026Y-125881682D01*
X131235026Y-125881683D01*
X131656889Y-126195294D01*
X131659165Y-126196986D01*
X131687461Y-126239944D01*
X131689500Y-126257337D01*
X131689500Y-127082025D01*
X131671907Y-127130363D01*
X131667474Y-127135199D01*
X131134199Y-127668474D01*
X131087579Y-127690214D01*
X131081025Y-127690500D01*
X130398468Y-127690500D01*
X130379006Y-127687938D01*
X130358280Y-127682384D01*
X130328853Y-127674500D01*
X130328852Y-127674500D01*
X129753700Y-127674500D01*
X129705362Y-127656907D01*
X129679642Y-127612358D01*
X129678500Y-127599300D01*
X129678500Y-127595726D01*
X129676869Y-127578343D01*
X129675646Y-127565301D01*
X129630793Y-127437118D01*
X129550150Y-127327850D01*
X129440882Y-127247207D01*
X129440879Y-127247205D01*
X129343470Y-127213121D01*
X129312699Y-127202354D01*
X129312694Y-127202353D01*
X129312692Y-127202353D01*
X129282273Y-127199500D01*
X129282266Y-127199500D01*
X128273734Y-127199500D01*
X128273727Y-127199500D01*
X128243307Y-127202353D01*
X128243303Y-127202353D01*
X128243301Y-127202354D01*
X128243298Y-127202354D01*
X128243298Y-127202355D01*
X128115120Y-127247205D01*
X128115117Y-127247207D01*
X128005850Y-127327850D01*
X127925207Y-127437117D01*
X127925205Y-127437120D01*
X127880355Y-127565298D01*
X127880353Y-127565307D01*
X127877500Y-127595726D01*
X127877500Y-128404273D01*
X127880353Y-128434692D01*
X127880354Y-128434699D01*
X127880355Y-128434701D01*
X127925205Y-128562879D01*
X127925207Y-128562882D01*
X128005850Y-128672150D01*
X128115117Y-128752792D01*
X128115120Y-128752794D01*
X128145889Y-128763560D01*
X128243301Y-128797646D01*
X128257347Y-128798963D01*
X128273727Y-128800500D01*
X128273734Y-128800500D01*
X129282272Y-128800500D01*
X129296312Y-128799182D01*
X129312699Y-128797646D01*
X129440882Y-128752793D01*
X129550150Y-128672150D01*
X129630793Y-128562882D01*
X129675646Y-128434699D01*
X129677767Y-128412082D01*
X129678500Y-128404273D01*
X129678500Y-128400700D01*
X129696093Y-128352362D01*
X129740642Y-128326642D01*
X129753700Y-128325500D01*
X130189533Y-128325500D01*
X130208995Y-128328062D01*
X130226668Y-128332797D01*
X130259147Y-128341500D01*
X130259148Y-128341500D01*
X131289851Y-128341500D01*
X131289853Y-128341500D01*
X131372639Y-128319318D01*
X131446862Y-128276465D01*
X131842800Y-127880525D01*
X131889420Y-127858786D01*
X131895974Y-127858500D01*
X132096332Y-127858500D01*
X132144670Y-127876093D01*
X132170390Y-127920642D01*
X132162482Y-127969464D01*
X132135147Y-128020021D01*
X132126811Y-128035440D01*
X132115754Y-128050858D01*
X131859039Y-128327183D01*
X131847655Y-128337192D01*
X131456399Y-128616661D01*
X131441398Y-128624972D01*
X130939345Y-128832341D01*
X130930333Y-128835412D01*
X130306923Y-129004598D01*
X130299091Y-129006281D01*
X129675038Y-129105982D01*
X129671032Y-129106512D01*
X129159159Y-129160295D01*
X129158018Y-129160406D01*
X128743342Y-129197597D01*
X128742694Y-129197653D01*
X128282500Y-129234916D01*
X127762010Y-129285998D01*
X127380415Y-129328107D01*
X127024368Y-129376573D01*
X126604703Y-129437852D01*
X126601556Y-129438244D01*
X126133422Y-129486544D01*
X125770858Y-129531167D01*
X125769009Y-129531371D01*
X125484775Y-129559237D01*
X125484768Y-129559238D01*
X125318879Y-129575539D01*
X125165148Y-129590645D01*
X125159437Y-129590987D01*
X124821389Y-129598376D01*
X124821031Y-129598383D01*
X124387313Y-129605798D01*
X124382780Y-129605739D01*
X123741997Y-129578039D01*
X123734535Y-129577342D01*
X122969814Y-129467310D01*
X122952714Y-129462746D01*
X122405641Y-129244997D01*
X122385055Y-129232686D01*
X121955204Y-128871261D01*
X121931346Y-128834543D01*
X121796114Y-128365619D01*
X121793503Y-128351854D01*
X121753702Y-127930332D01*
X121753505Y-127918776D01*
X121780763Y-127464473D01*
X121782387Y-127452808D01*
X121869908Y-127055319D01*
X121871526Y-127049211D01*
X121953210Y-126786004D01*
X121956166Y-126778088D01*
X122054813Y-126553394D01*
X122055450Y-126551984D01*
X122126998Y-126397878D01*
X122128709Y-126394429D01*
X122225922Y-126210609D01*
X122236654Y-126195294D01*
X122427849Y-125984167D01*
X122428062Y-125983931D01*
X122946597Y-125418018D01*
X122971713Y-125400010D01*
X123939474Y-124973519D01*
X123965665Y-124967249D01*
X125087237Y-124905620D01*
X125110269Y-124907924D01*
X126108748Y-125167425D01*
X126173844Y-125184344D01*
X126189269Y-125190225D01*
X126300278Y-125247207D01*
X126743178Y-125474551D01*
X126748695Y-125477685D01*
X126888825Y-125565307D01*
X127084557Y-125687696D01*
X127090732Y-125692001D01*
X127335661Y-125881682D01*
X127335662Y-125881683D01*
X127362769Y-125297960D01*
X127372820Y-125263752D01*
X127531298Y-124990251D01*
X127570753Y-124957250D01*
X127622192Y-124957330D01*
X127661546Y-124990457D01*
X127670919Y-125018139D01*
X127684956Y-125124763D01*
X127745463Y-125270839D01*
X127745465Y-125270842D01*
X127841717Y-125396282D01*
X127875624Y-125422299D01*
X127903262Y-125465682D01*
X127900826Y-125506793D01*
X127880354Y-125565301D01*
X127880353Y-125565303D01*
X127880353Y-125565306D01*
X127877500Y-125595726D01*
X127877500Y-126404273D01*
X127880353Y-126434692D01*
X127880354Y-126434699D01*
X127880355Y-126434701D01*
X127925205Y-126562879D01*
X127925207Y-126562882D01*
X128005850Y-126672150D01*
X128115117Y-126752792D01*
X128115120Y-126752794D01*
X128145889Y-126763560D01*
X128243301Y-126797646D01*
X128257347Y-126798963D01*
X128273727Y-126800500D01*
X128273734Y-126800500D01*
X129282272Y-126800500D01*
X129296312Y-126799182D01*
X129312699Y-126797646D01*
X129440882Y-126752793D01*
X129550150Y-126672150D01*
X129630793Y-126562882D01*
X129675646Y-126434699D01*
X129677073Y-126419482D01*
X129678500Y-126404273D01*
X129678500Y-125595726D01*
X129676869Y-125578343D01*
X129675646Y-125565301D01*
X129630793Y-125437118D01*
X129550150Y-125327850D01*
X129440882Y-125247207D01*
X129440879Y-125247205D01*
X129343470Y-125213121D01*
X129312699Y-125202354D01*
X129312694Y-125202353D01*
X129312692Y-125202353D01*
X129282273Y-125199500D01*
X129282266Y-125199500D01*
X128939941Y-125199500D01*
X128891603Y-125181907D01*
X128886767Y-125177474D01*
X128878825Y-125169532D01*
X128857085Y-125122912D01*
X128857441Y-125106548D01*
X128875682Y-124968000D01*
X128855044Y-124811238D01*
X128794536Y-124665159D01*
X128752526Y-124610410D01*
X128698282Y-124539717D01*
X128572842Y-124443465D01*
X128572841Y-124443464D01*
X128572839Y-124443463D01*
X128426763Y-124382956D01*
X128338772Y-124371372D01*
X128270000Y-124362318D01*
X128269999Y-124362318D01*
X128116653Y-124382506D01*
X128066433Y-124371372D01*
X128035118Y-124330562D01*
X128035017Y-124330238D01*
X127934626Y-124006754D01*
X127933466Y-124002590D01*
X127860463Y-123707786D01*
X127719522Y-123294361D01*
X127718406Y-123290795D01*
X127606110Y-122897758D01*
X127605320Y-122894757D01*
X127473863Y-122350149D01*
X127473324Y-122347740D01*
X127303727Y-121528023D01*
X127258086Y-121328726D01*
X127021643Y-120296257D01*
X127020167Y-120287416D01*
X126870127Y-118871406D01*
X126869715Y-118862596D01*
X126897909Y-116541352D01*
X126898715Y-116531249D01*
X126910079Y-116454541D01*
X127085558Y-115270056D01*
X127089374Y-115255108D01*
X127254000Y-114808000D01*
X127759911Y-113290264D01*
X127765146Y-113278199D01*
X128273572Y-112341003D01*
X128278169Y-112333592D01*
X129443855Y-110677946D01*
X127764459Y-107193103D01*
X127760334Y-107182586D01*
X125731310Y-100588260D01*
X125729200Y-100579602D01*
X125720045Y-100529251D01*
X124714600Y-94999300D01*
X124713696Y-94992656D01*
X124691248Y-94745726D01*
X134216500Y-94745726D01*
X134216500Y-95754273D01*
X134218540Y-95776021D01*
X134219354Y-95784699D01*
X134219355Y-95784701D01*
X134264205Y-95912879D01*
X134264207Y-95912882D01*
X134344850Y-96022150D01*
X134444433Y-96095645D01*
X134454117Y-96102792D01*
X134454120Y-96102794D01*
X134484889Y-96113560D01*
X134582301Y-96147646D01*
X134596347Y-96148963D01*
X134612727Y-96150500D01*
X134612734Y-96150500D01*
X135421272Y-96150500D01*
X135435312Y-96149182D01*
X135451699Y-96147646D01*
X135579882Y-96102793D01*
X135689150Y-96022150D01*
X135769793Y-95912882D01*
X135814646Y-95784699D01*
X135816505Y-95764876D01*
X135817500Y-95754273D01*
X135817500Y-94745726D01*
X135815869Y-94728343D01*
X135814646Y-94715301D01*
X135769793Y-94587118D01*
X135689150Y-94477850D01*
X135579882Y-94397207D01*
X135579879Y-94397205D01*
X135473007Y-94359810D01*
X135451699Y-94352354D01*
X135451694Y-94352353D01*
X135451692Y-94352353D01*
X135421273Y-94349500D01*
X135421266Y-94349500D01*
X135417700Y-94349500D01*
X135369362Y-94331907D01*
X135343642Y-94287358D01*
X135342500Y-94274300D01*
X135342500Y-94257956D01*
X135360093Y-94209618D01*
X135371922Y-94198295D01*
X135429282Y-94154282D01*
X135525536Y-94028841D01*
X135586044Y-93882762D01*
X135606682Y-93726000D01*
X135586044Y-93569238D01*
X135525536Y-93423159D01*
X135473390Y-93355201D01*
X135429282Y-93297717D01*
X135303842Y-93201465D01*
X135303841Y-93201464D01*
X135303839Y-93201463D01*
X135157763Y-93140956D01*
X135001000Y-93120318D01*
X134844236Y-93140956D01*
X134698160Y-93201463D01*
X134698157Y-93201465D01*
X134572717Y-93297717D01*
X134476465Y-93423157D01*
X134476463Y-93423160D01*
X134415956Y-93569236D01*
X134395318Y-93726000D01*
X134415956Y-93882763D01*
X134454926Y-93976844D01*
X134476464Y-94028841D01*
X134494633Y-94052519D01*
X134572717Y-94154282D01*
X134651771Y-94214941D01*
X134679409Y-94258324D01*
X134672695Y-94309324D01*
X134634770Y-94344077D01*
X134613017Y-94349472D01*
X134582306Y-94352353D01*
X134582302Y-94352353D01*
X134582301Y-94352354D01*
X134582298Y-94352354D01*
X134582298Y-94352355D01*
X134454120Y-94397205D01*
X134454117Y-94397207D01*
X134344850Y-94477850D01*
X134264207Y-94587117D01*
X134264205Y-94587120D01*
X134219355Y-94715298D01*
X134219353Y-94715307D01*
X134216500Y-94745726D01*
X124691248Y-94745726D01*
X124648391Y-94274300D01*
X124537884Y-93058726D01*
X138647500Y-93058726D01*
X138647500Y-93842273D01*
X138648398Y-93851844D01*
X138650354Y-93872699D01*
X138650355Y-93872701D01*
X138695205Y-94000879D01*
X138695207Y-94000882D01*
X138775850Y-94110150D01*
X138885117Y-94190792D01*
X138885120Y-94190794D01*
X138915889Y-94201560D01*
X139013301Y-94235646D01*
X139027347Y-94236963D01*
X139043727Y-94238500D01*
X139043734Y-94238500D01*
X140102272Y-94238500D01*
X140116312Y-94237182D01*
X140132699Y-94235646D01*
X140260882Y-94190793D01*
X140370150Y-94110150D01*
X140450793Y-94000882D01*
X140495646Y-93872699D01*
X140497602Y-93851844D01*
X140498500Y-93842273D01*
X140498500Y-93058726D01*
X140496869Y-93041343D01*
X140495646Y-93028301D01*
X140450793Y-92900118D01*
X140370150Y-92790850D01*
X140260882Y-92710207D01*
X140260879Y-92710205D01*
X140155462Y-92673319D01*
X140132699Y-92665354D01*
X140132694Y-92665353D01*
X140132692Y-92665353D01*
X140120464Y-92664206D01*
X140073981Y-92642175D01*
X140052534Y-92595419D01*
X140066160Y-92545816D01*
X140067783Y-92543615D01*
X140097536Y-92504841D01*
X140158044Y-92358762D01*
X140178682Y-92202000D01*
X140158044Y-92045238D01*
X140097536Y-91899159D01*
X140027672Y-91808110D01*
X140001282Y-91773717D01*
X139875842Y-91677465D01*
X139875841Y-91677464D01*
X139870554Y-91675274D01*
X139729763Y-91616956D01*
X139573000Y-91596318D01*
X139416236Y-91616956D01*
X139270160Y-91677463D01*
X139270157Y-91677465D01*
X139144717Y-91773717D01*
X139048465Y-91899157D01*
X139048463Y-91899160D01*
X138987956Y-92045236D01*
X138967318Y-92202000D01*
X138987956Y-92358763D01*
X139048463Y-92504838D01*
X139048464Y-92504841D01*
X139060306Y-92520274D01*
X139078171Y-92543556D01*
X139093639Y-92592615D01*
X139073954Y-92640139D01*
X139028326Y-92663892D01*
X139025536Y-92664206D01*
X139013306Y-92665353D01*
X139013302Y-92665353D01*
X139013301Y-92665354D01*
X139013298Y-92665354D01*
X139013298Y-92665355D01*
X138885120Y-92710205D01*
X138885117Y-92710207D01*
X138775850Y-92790850D01*
X138695207Y-92900117D01*
X138695205Y-92900120D01*
X138650355Y-93028298D01*
X138650353Y-93028307D01*
X138647500Y-93058726D01*
X124537884Y-93058726D01*
X124460000Y-92202000D01*
X123952396Y-88902574D01*
X123951782Y-88897384D01*
X123761500Y-86614000D01*
X135411318Y-86614000D01*
X135431956Y-86770763D01*
X135492463Y-86916839D01*
X135492465Y-86916842D01*
X135588717Y-87042282D01*
X135636885Y-87079242D01*
X135714159Y-87138536D01*
X135860238Y-87199044D01*
X136017000Y-87219682D01*
X136173762Y-87199044D01*
X136319841Y-87138536D01*
X136445282Y-87042282D01*
X136494640Y-86977956D01*
X136538023Y-86950319D01*
X136589023Y-86957033D01*
X136623776Y-86994958D01*
X136629500Y-87023736D01*
X136629500Y-87118273D01*
X136632353Y-87148692D01*
X136632354Y-87148699D01*
X136632355Y-87148701D01*
X136677205Y-87276879D01*
X136677207Y-87276882D01*
X136757850Y-87386150D01*
X136840656Y-87447263D01*
X136867117Y-87466792D01*
X136867120Y-87466794D01*
X136897889Y-87477560D01*
X136995301Y-87511646D01*
X137009347Y-87512963D01*
X137025727Y-87514500D01*
X137025734Y-87514500D01*
X137834272Y-87514500D01*
X137848312Y-87513182D01*
X137864699Y-87511646D01*
X137992882Y-87466793D01*
X138102150Y-87386150D01*
X138182793Y-87276882D01*
X138227646Y-87148699D01*
X138229073Y-87133482D01*
X138230500Y-87118273D01*
X138230500Y-86109726D01*
X138228252Y-86085762D01*
X138227646Y-86079301D01*
X138185847Y-85959846D01*
X138182794Y-85951120D01*
X138182792Y-85951117D01*
X138172116Y-85936651D01*
X138102150Y-85841850D01*
X137992882Y-85761207D01*
X137992879Y-85761205D01*
X137895470Y-85727121D01*
X137864699Y-85716354D01*
X137864694Y-85716353D01*
X137864692Y-85716353D01*
X137834273Y-85713500D01*
X137834266Y-85713500D01*
X137025734Y-85713500D01*
X137025727Y-85713500D01*
X136995307Y-85716353D01*
X136995303Y-85716353D01*
X136995301Y-85716354D01*
X136995298Y-85716354D01*
X136995298Y-85716355D01*
X136867120Y-85761205D01*
X136867117Y-85761207D01*
X136757850Y-85841850D01*
X136677207Y-85951117D01*
X136677205Y-85951120D01*
X136632355Y-86079298D01*
X136632353Y-86079307D01*
X136629500Y-86109726D01*
X136629500Y-86204263D01*
X136611907Y-86252601D01*
X136567358Y-86278321D01*
X136516700Y-86269388D01*
X136494640Y-86250042D01*
X136445282Y-86185717D01*
X136319842Y-86089465D01*
X136319841Y-86089464D01*
X136295320Y-86079307D01*
X136173763Y-86028956D01*
X136017000Y-86008318D01*
X135860236Y-86028956D01*
X135714160Y-86089463D01*
X135714157Y-86089465D01*
X135588717Y-86185717D01*
X135492465Y-86311157D01*
X135492463Y-86311160D01*
X135431956Y-86457236D01*
X135411318Y-86614000D01*
X123761500Y-86614000D01*
X123698000Y-85852000D01*
X123671343Y-85839722D01*
X123443942Y-85780076D01*
X123443935Y-85780075D01*
X122689057Y-85686880D01*
X122689052Y-85686879D01*
X122689046Y-85686879D01*
X122398836Y-85676903D01*
X122092575Y-85666375D01*
X121563236Y-85699926D01*
X121563231Y-85699926D01*
X121563226Y-85699927D01*
X121257143Y-85743257D01*
X120944395Y-85787532D01*
X120522214Y-85899368D01*
X120381487Y-85936647D01*
X120381481Y-85936648D01*
X120381474Y-85936651D01*
X119936006Y-86085762D01*
X119462564Y-86305707D01*
X118920159Y-86697134D01*
X118519409Y-87079242D01*
X118319976Y-87424057D01*
X118319975Y-87424059D01*
X118232365Y-87599278D01*
X118232363Y-87599282D01*
X118232363Y-87599283D01*
X118109343Y-87912425D01*
X118038514Y-88342995D01*
X118027330Y-88766110D01*
X118155942Y-89547101D01*
X118155944Y-89547111D01*
X118325553Y-90117446D01*
X118325558Y-90117461D01*
X118325560Y-90117467D01*
X118398882Y-90328428D01*
X118538047Y-90728833D01*
X118538050Y-90728840D01*
X118766079Y-91263857D01*
X118768846Y-91315222D01*
X118737949Y-91356349D01*
X118706725Y-91367896D01*
X118702157Y-91368497D01*
X118619359Y-91390682D01*
X118545139Y-91433534D01*
X118545133Y-91433538D01*
X118484538Y-91494133D01*
X118484534Y-91494139D01*
X118441682Y-91568359D01*
X118434191Y-91596318D01*
X118419500Y-91651147D01*
X118419500Y-91651149D01*
X118419500Y-93527749D01*
X118401907Y-93576087D01*
X118366738Y-93599523D01*
X118356241Y-93602804D01*
X118356228Y-93602810D01*
X118240177Y-93673329D01*
X118240173Y-93673332D01*
X118150066Y-93774924D01*
X118150060Y-93774934D01*
X118093901Y-93898572D01*
X118090324Y-93926553D01*
X118066741Y-93972268D01*
X118019290Y-93992130D01*
X117970174Y-93976844D01*
X117945385Y-93943592D01*
X117787614Y-93525963D01*
X117785419Y-93521984D01*
X117587587Y-93163414D01*
X117585200Y-93158706D01*
X117443580Y-92853105D01*
X117347746Y-92646305D01*
X117346794Y-92644162D01*
X117345948Y-92642175D01*
X116769138Y-91287926D01*
X116767930Y-91284909D01*
X116392931Y-90284910D01*
X116389907Y-90274696D01*
X116240902Y-89597962D01*
X116239637Y-89590390D01*
X116158896Y-88888567D01*
X116158426Y-88878108D01*
X116164357Y-88638894D01*
X116177071Y-88126102D01*
X116177680Y-88118245D01*
X116201122Y-87938521D01*
X116251840Y-87549679D01*
X116254511Y-87537372D01*
X116421602Y-86992777D01*
X116423659Y-86986947D01*
X116546590Y-86679618D01*
X116550585Y-86671191D01*
X116940876Y-85964950D01*
X116949733Y-85952228D01*
X117412518Y-85415398D01*
X117421070Y-85406951D01*
X118123932Y-84816049D01*
X118131008Y-84810777D01*
X118574039Y-84519604D01*
X118582729Y-84514687D01*
X119263326Y-84187266D01*
X119272680Y-84183516D01*
X120152160Y-83897731D01*
X120161965Y-83895260D01*
X121179550Y-83710581D01*
X121188520Y-83709505D01*
X121844236Y-83670825D01*
X121850923Y-83670731D01*
X122396604Y-83687379D01*
X122398283Y-83687450D01*
X122668383Y-83701855D01*
X122685336Y-83704728D01*
X122848741Y-83752177D01*
X122848742Y-83752177D01*
X122848745Y-83752178D01*
X122848755Y-83752180D01*
X122939294Y-83770173D01*
X123190000Y-83820000D01*
X123348860Y-83752177D01*
X123245124Y-79970523D01*
X123245138Y-79965975D01*
X123336953Y-77238650D01*
X123337402Y-77232601D01*
X123344931Y-77167121D01*
X123544406Y-75432287D01*
X123545024Y-75428016D01*
X123836365Y-73754750D01*
X123837275Y-73750324D01*
X124188584Y-72269808D01*
X124189589Y-72266018D01*
X124578424Y-70942723D01*
X124579847Y-70938381D01*
X124974716Y-69847791D01*
X124976154Y-69844125D01*
X125251761Y-69192690D01*
X125252644Y-69190687D01*
X125742100Y-68123923D01*
X125743705Y-68120640D01*
X125899141Y-67821726D01*
X132311500Y-67821726D01*
X132311500Y-68830273D01*
X132314353Y-68860692D01*
X132314354Y-68860699D01*
X132314355Y-68860701D01*
X132359205Y-68988879D01*
X132359207Y-68988882D01*
X132439850Y-69098150D01*
X132549117Y-69178792D01*
X132549120Y-69178794D01*
X132579889Y-69189560D01*
X132677301Y-69223646D01*
X132691347Y-69224963D01*
X132707727Y-69226500D01*
X132707734Y-69226500D01*
X133516272Y-69226500D01*
X133530312Y-69225182D01*
X133546699Y-69223646D01*
X133674882Y-69178793D01*
X133784150Y-69098150D01*
X133864793Y-68988882D01*
X133909646Y-68860699D01*
X133912150Y-68834000D01*
X133912500Y-68830273D01*
X133912500Y-67821726D01*
X134311500Y-67821726D01*
X134311500Y-68830273D01*
X134314353Y-68860692D01*
X134314354Y-68860699D01*
X134314355Y-68860701D01*
X134359205Y-68988879D01*
X134359207Y-68988882D01*
X134439850Y-69098150D01*
X134549117Y-69178792D01*
X134549120Y-69178794D01*
X134579889Y-69189560D01*
X134677301Y-69223646D01*
X134691347Y-69224963D01*
X134707727Y-69226500D01*
X134707734Y-69226500D01*
X135516272Y-69226500D01*
X135530312Y-69225182D01*
X135546699Y-69223646D01*
X135674882Y-69178793D01*
X135784150Y-69098150D01*
X135864793Y-68988882D01*
X135909646Y-68860699D01*
X135912150Y-68834000D01*
X135912500Y-68830273D01*
X135912500Y-68354867D01*
X135930093Y-68306529D01*
X135974642Y-68280809D01*
X136025300Y-68289742D01*
X136033474Y-68295204D01*
X136095159Y-68342536D01*
X136241238Y-68403044D01*
X136398000Y-68423682D01*
X136554762Y-68403044D01*
X136700841Y-68342536D01*
X136826282Y-68246282D01*
X136922536Y-68120841D01*
X136983044Y-67974762D01*
X137003682Y-67818000D01*
X136983044Y-67661238D01*
X136922536Y-67515159D01*
X136882574Y-67463079D01*
X136826282Y-67389717D01*
X136700842Y-67293465D01*
X136700841Y-67293464D01*
X136700839Y-67293463D01*
X136554763Y-67232956D01*
X136398000Y-67212318D01*
X136241236Y-67232956D01*
X136095160Y-67293463D01*
X136095157Y-67293465D01*
X135969717Y-67389717D01*
X135913426Y-67463079D01*
X135870042Y-67490717D01*
X135853766Y-67492500D01*
X135725768Y-67492500D01*
X135681114Y-67477806D01*
X135674882Y-67473207D01*
X135674879Y-67473206D01*
X135674878Y-67473205D01*
X135674879Y-67473205D01*
X135577470Y-67439121D01*
X135546699Y-67428354D01*
X135546694Y-67428353D01*
X135546692Y-67428353D01*
X135516273Y-67425500D01*
X135516266Y-67425500D01*
X134707734Y-67425500D01*
X134707727Y-67425500D01*
X134677307Y-67428353D01*
X134677303Y-67428353D01*
X134677301Y-67428354D01*
X134677298Y-67428354D01*
X134677298Y-67428355D01*
X134549120Y-67473205D01*
X134549117Y-67473207D01*
X134439850Y-67553850D01*
X134359207Y-67663117D01*
X134359205Y-67663120D01*
X134314355Y-67791298D01*
X134314353Y-67791307D01*
X134311500Y-67821726D01*
X133912500Y-67821726D01*
X133910869Y-67804343D01*
X133909646Y-67791301D01*
X133864793Y-67663118D01*
X133784150Y-67553850D01*
X133674882Y-67473207D01*
X133674879Y-67473205D01*
X133577470Y-67439121D01*
X133546699Y-67428354D01*
X133546695Y-67428353D01*
X133546688Y-67428352D01*
X133545664Y-67428256D01*
X133545165Y-67428019D01*
X133542228Y-67427378D01*
X133542376Y-67426697D01*
X133499185Y-67406217D01*
X133477746Y-67359458D01*
X133477500Y-67353386D01*
X133477500Y-66846700D01*
X133495093Y-66798362D01*
X133539642Y-66772642D01*
X133552700Y-66771500D01*
X133671749Y-66771500D01*
X133691242Y-66767622D01*
X133730231Y-66759867D01*
X133796552Y-66715552D01*
X133840867Y-66649231D01*
X133852500Y-66590748D01*
X133852500Y-64981252D01*
X133840867Y-64922769D01*
X133796552Y-64856448D01*
X133730231Y-64812133D01*
X133730229Y-64812132D01*
X133671749Y-64800500D01*
X133671748Y-64800500D01*
X132632252Y-64800500D01*
X132632251Y-64800500D01*
X132573770Y-64812132D01*
X132573768Y-64812133D01*
X132507448Y-64856448D01*
X132463133Y-64922768D01*
X132463132Y-64922770D01*
X132451500Y-64981251D01*
X132451500Y-66590748D01*
X132463132Y-66649229D01*
X132463133Y-66649231D01*
X132507448Y-66715552D01*
X132573769Y-66759867D01*
X132603010Y-66765683D01*
X132632251Y-66771500D01*
X132632252Y-66771500D01*
X132751300Y-66771500D01*
X132799638Y-66789093D01*
X132825358Y-66833642D01*
X132826500Y-66846700D01*
X132826500Y-67350300D01*
X132808907Y-67398638D01*
X132764358Y-67424358D01*
X132751300Y-67425500D01*
X132707727Y-67425500D01*
X132677307Y-67428353D01*
X132677303Y-67428353D01*
X132677301Y-67428354D01*
X132677298Y-67428354D01*
X132677298Y-67428355D01*
X132549120Y-67473205D01*
X132549117Y-67473207D01*
X132439850Y-67553850D01*
X132359207Y-67663117D01*
X132359205Y-67663120D01*
X132314355Y-67791298D01*
X132314353Y-67791307D01*
X132311500Y-67821726D01*
X125899141Y-67821726D01*
X126149835Y-67339623D01*
X126154106Y-67332422D01*
X126444237Y-66900311D01*
X126451329Y-66891318D01*
X126951980Y-66347401D01*
X126962962Y-66337600D01*
X127188370Y-66173113D01*
X127191168Y-66171170D01*
X128183342Y-65515960D01*
X128197404Y-65508675D01*
X128989245Y-65199361D01*
X129001491Y-65195744D01*
X129757162Y-65040894D01*
X129768321Y-65039468D01*
X130362130Y-65008541D01*
X130371076Y-65008608D01*
X131017731Y-65052134D01*
X131023935Y-65052812D01*
X131513069Y-65127111D01*
X131522434Y-65129150D01*
X131693964Y-65178160D01*
X132161444Y-64704446D01*
X132170758Y-64696438D01*
X132896715Y-64169033D01*
X132907425Y-64162544D01*
X133775560Y-63731143D01*
X133793813Y-63724843D01*
X134737851Y-63530042D01*
X134841119Y-63508733D01*
X134841123Y-63508731D01*
X134841133Y-63508730D01*
X135105938Y-63447621D01*
X135121732Y-63445704D01*
X135396714Y-63441660D01*
X135401137Y-63441727D01*
G37*
G04 #@! TD.AperFunction*
G04 #@! TA.AperFunction,Conductor*
G36*
X136312101Y-101061765D02*
G01*
X136342165Y-101113836D01*
X136343500Y-101129100D01*
X136343500Y-101408746D01*
X136352074Y-101451852D01*
X136352074Y-101486148D01*
X136343500Y-101529253D01*
X136343500Y-101908746D01*
X136355133Y-101967232D01*
X136358446Y-101975230D01*
X136357210Y-101975741D01*
X136369058Y-102015057D01*
X136347518Y-107938620D01*
X136326748Y-107995046D01*
X136274568Y-108024920D01*
X136259619Y-108026200D01*
X132218700Y-108026200D01*
X132162199Y-108005635D01*
X132132135Y-107953564D01*
X132130800Y-107938300D01*
X132130800Y-104284492D01*
X132151365Y-104227991D01*
X132164608Y-104215206D01*
X134883929Y-102092226D01*
X134941117Y-102073669D01*
X134957086Y-102077139D01*
X134957278Y-102076178D01*
X134965768Y-102077866D01*
X134965769Y-102077867D01*
X135024252Y-102089500D01*
X135024254Y-102089500D01*
X135763746Y-102089500D01*
X135763748Y-102089500D01*
X135822231Y-102077867D01*
X135888552Y-102033552D01*
X135932867Y-101967231D01*
X135944500Y-101908748D01*
X135944500Y-101529252D01*
X135932867Y-101470769D01*
X135888552Y-101404448D01*
X135888548Y-101404445D01*
X135822232Y-101360133D01*
X135802736Y-101356255D01*
X135763748Y-101348500D01*
X135114300Y-101348500D01*
X135057799Y-101327935D01*
X135027735Y-101275864D01*
X135026400Y-101260600D01*
X135026400Y-101177400D01*
X135046965Y-101120899D01*
X135099036Y-101090835D01*
X135114300Y-101089500D01*
X135763746Y-101089500D01*
X135763748Y-101089500D01*
X135822231Y-101077867D01*
X135854936Y-101056014D01*
X135903771Y-101041200D01*
X136255600Y-101041200D01*
X136312101Y-101061765D01*
G37*
G04 #@! TD.AperFunction*
G04 #@! TA.AperFunction,Conductor*
G36*
X141478000Y-108331000D02*
G01*
X138176000Y-108331000D01*
X138176000Y-104140000D01*
X141478000Y-104140000D01*
X141478000Y-108331000D01*
G37*
G04 #@! TD.AperFunction*
M02*
