M48
; DRILL file {KiCad 7.0.6} date Thu Jul 13 14:25:26 2023
; FORMAT={-:-/ absolute / metric / decimal}
; #@! TF.CreationDate,2023-07-13T14:25:26-05:00
; #@! TF.GenerationSoftware,Kicad,Pcbnew,7.0.6
; #@! TF.FileFunction,Plated,1,2,PTH
FMAT,2
METRIC
; #@! TA.AperFunction,Plated,PTH,ViaDrill
T1C0.400
; #@! TA.AperFunction,Plated,PTH,ComponentDrill
T2C1.016
%
G90
G05
T1
X124.968Y-126.238
X128.27Y-91.694
X128.27Y-124.968
X130.81Y-105.918
X132.08Y-105.918
X132.588Y-112.014
X133.35Y-105.918
X133.604Y-112.014
X134.62Y-112.014
X135.128Y-103.378
X136.398Y-67.818
X136.398Y-70.612
X139.192Y-84.836
X139.893Y-86.421
X141.224Y-68.834
X142.367Y-68.072
X142.494Y-108.204
X143.256Y-99.314
X143.256Y-103.378
X143.408Y-101.651
X151.638Y-70.739
X151.765Y-68.961
T2
X137.804Y-115.742
X137.804Y-118.282
X140.344Y-115.742
X140.344Y-118.282
X142.884Y-115.742
X142.884Y-118.282
T0
M30
