%TF.GenerationSoftware,KiCad,Pcbnew,7.0.6*%
%TF.CreationDate,2023-07-13T14:25:20-05:00*%
%TF.ProjectId,SAO_AMAMW,53414f5f-414d-4414-9d57-2e6b69636164,rev?*%
%TF.SameCoordinates,Original*%
%TF.FileFunction,Soldermask,Bot*%
%TF.FilePolarity,Negative*%
%FSLAX46Y46*%
G04 Gerber Fmt 4.6, Leading zero omitted, Abs format (unit mm)*
G04 Created by KiCad (PCBNEW 7.0.6) date 2023-07-13 14:25:20*
%MOMM*%
%LPD*%
G01*
G04 APERTURE LIST*
G04 Aperture macros list*
%AMRoundRect*
0 Rectangle with rounded corners*
0 $1 Rounding radius*
0 $2 $3 $4 $5 $6 $7 $8 $9 X,Y pos of 4 corners*
0 Add a 4 corners polygon primitive as box body*
4,1,4,$2,$3,$4,$5,$6,$7,$8,$9,$2,$3,0*
0 Add four circle primitives for the rounded corners*
1,1,$1+$1,$2,$3*
1,1,$1+$1,$4,$5*
1,1,$1+$1,$6,$7*
1,1,$1+$1,$8,$9*
0 Add four rect primitives between the rounded corners*
20,1,$1+$1,$2,$3,$4,$5,0*
20,1,$1+$1,$4,$5,$6,$7,0*
20,1,$1+$1,$6,$7,$8,$9,0*
20,1,$1+$1,$8,$9,$2,$3,0*%
%AMFreePoly0*
4,1,6,1.000000,0.000000,0.500000,-0.750000,-0.500000,-0.750000,-0.500000,0.750000,0.500000,0.750000,1.000000,0.000000,1.000000,0.000000,$1*%
%AMFreePoly1*
4,1,6,0.500000,-0.750000,-0.650000,-0.750000,-0.150000,0.000000,-0.650000,0.750000,0.500000,0.750000,0.500000,-0.750000,0.500000,-0.750000,$1*%
G04 Aperture macros list end*
%ADD10O,1.727200X1.727200*%
%ADD11R,1.727200X1.727200*%
%ADD12C,1.727200*%
%ADD13RoundRect,0.250000X-0.350000X-0.450000X0.350000X-0.450000X0.350000X0.450000X-0.350000X0.450000X0*%
%ADD14R,1.000000X1.570000*%
%ADD15RoundRect,0.250000X-0.337500X-0.475000X0.337500X-0.475000X0.337500X0.475000X-0.337500X0.475000X0*%
%ADD16RoundRect,0.250000X0.350000X0.450000X-0.350000X0.450000X-0.350000X-0.450000X0.350000X-0.450000X0*%
%ADD17FreePoly0,180.000000*%
%ADD18FreePoly1,180.000000*%
%ADD19R,1.570000X1.000000*%
%ADD20RoundRect,0.250000X-0.475000X0.337500X-0.475000X-0.337500X0.475000X-0.337500X0.475000X0.337500X0*%
%ADD21FreePoly0,90.000000*%
%ADD22FreePoly1,90.000000*%
%ADD23RoundRect,0.250000X0.450000X-0.350000X0.450000X0.350000X-0.450000X0.350000X-0.450000X-0.350000X0*%
%ADD24FreePoly0,0.000000*%
%ADD25FreePoly1,0.000000*%
%ADD26R,2.540000X5.500000*%
%ADD27R,0.700000X0.340000*%
G04 APERTURE END LIST*
%TO.C,X1*%
G36*
X129779525Y-111206628D02*
G01*
X129780181Y-111207514D01*
X129779003Y-111205955D01*
X129779525Y-111206628D01*
G37*
G36*
X140780448Y-88798027D02*
G01*
X140746783Y-88525540D01*
X140710387Y-88207819D01*
X140780448Y-88798027D01*
G37*
G36*
X140785008Y-88834938D02*
G01*
X140783621Y-88824762D01*
X140780448Y-88798027D01*
X140785008Y-88834938D01*
G37*
G36*
X140847509Y-89293606D02*
G01*
X140827705Y-89155820D01*
X140785830Y-88841598D01*
X140785008Y-88834938D01*
X140847509Y-89293606D01*
G37*
G36*
X118274224Y-95948782D02*
G01*
X118274197Y-95948829D01*
X118274168Y-95948876D01*
X118274139Y-95948921D01*
X118274108Y-95948964D01*
X118274076Y-95949006D01*
X118274010Y-95949087D01*
X118273940Y-95949163D01*
X118273868Y-95949235D01*
X118273795Y-95949302D01*
X118273721Y-95949367D01*
X118273646Y-95949428D01*
X118273573Y-95949486D01*
X118273432Y-95949596D01*
X118273303Y-95949700D01*
X118273245Y-95949750D01*
X118273192Y-95949800D01*
X118274249Y-95948732D01*
X118274224Y-95948782D01*
G37*
G36*
X155304271Y-59522223D02*
G01*
X155304272Y-59522223D01*
X155304273Y-59522223D01*
X155304274Y-59522223D01*
X155304275Y-59522223D01*
X155304276Y-59522223D01*
X155304278Y-59522224D01*
X155304279Y-59522225D01*
X155304280Y-59522225D01*
X155304282Y-59522226D01*
X156064036Y-59532787D01*
X156812582Y-59564150D01*
X157549073Y-59615834D01*
X158272664Y-59687357D01*
X158982507Y-59778240D01*
X159677758Y-59888002D01*
X160357569Y-60016161D01*
X161021095Y-60162237D01*
X161667490Y-60325749D01*
X162295907Y-60506216D01*
X162905500Y-60703158D01*
X163495423Y-60916094D01*
X164064829Y-61144543D01*
X164612874Y-61388024D01*
X165138710Y-61646057D01*
X165641491Y-61918160D01*
X166120371Y-62203853D01*
X166574504Y-62502655D01*
X167003044Y-62814086D01*
X167405145Y-63137664D01*
X167779960Y-63472908D01*
X168126644Y-63819339D01*
X168444349Y-64176475D01*
X168732230Y-64543835D01*
X168989442Y-64920939D01*
X169215137Y-65307305D01*
X169408469Y-65702454D01*
X169568592Y-66105904D01*
X169694661Y-66517174D01*
X169785829Y-66935784D01*
X169841249Y-67361253D01*
X169860076Y-67793100D01*
X169855877Y-67996911D01*
X169843313Y-68200461D01*
X169822433Y-68403616D01*
X169793289Y-68606240D01*
X169755930Y-68808197D01*
X169710406Y-69009352D01*
X169656767Y-69209568D01*
X169595062Y-69408711D01*
X169525343Y-69606645D01*
X169447658Y-69803234D01*
X169362059Y-69998343D01*
X169268594Y-70191835D01*
X169167314Y-70383576D01*
X169058269Y-70573429D01*
X168941509Y-70761260D01*
X168817084Y-70946932D01*
X168478104Y-71458003D01*
X168082511Y-71950053D01*
X167632747Y-72422101D01*
X167131254Y-72873167D01*
X166580471Y-73302267D01*
X165982842Y-73708422D01*
X165340807Y-74090649D01*
X164656807Y-74447968D01*
X163933284Y-74779396D01*
X163172679Y-75083954D01*
X162377434Y-75360659D01*
X161549990Y-75608530D01*
X160692788Y-75826585D01*
X159808269Y-76013844D01*
X158898875Y-76169326D01*
X157967048Y-76292047D01*
X158028034Y-76445298D01*
X158077181Y-76601667D01*
X158114547Y-76760456D01*
X158140186Y-76920964D01*
X158154154Y-77082491D01*
X158156507Y-77244336D01*
X158147302Y-77405799D01*
X158126593Y-77566179D01*
X158094436Y-77724777D01*
X158050888Y-77880891D01*
X157996005Y-78033822D01*
X157929841Y-78182870D01*
X157852453Y-78327333D01*
X157763897Y-78466511D01*
X157664229Y-78599705D01*
X157553504Y-78726213D01*
X157496299Y-78785383D01*
X157438835Y-78842883D01*
X157323434Y-78953139D01*
X157207909Y-79057509D01*
X157092867Y-79156525D01*
X156978916Y-79250716D01*
X156866664Y-79340613D01*
X156649688Y-79509645D01*
X156512573Y-79616125D01*
X156388625Y-79714580D01*
X156331527Y-79761298D01*
X156277644Y-79806610D01*
X156226953Y-79850716D01*
X156179428Y-79893816D01*
X156135044Y-79936110D01*
X156093775Y-79977798D01*
X156055597Y-80019079D01*
X156020483Y-80060155D01*
X155988410Y-80101224D01*
X155959352Y-80142488D01*
X155933283Y-80184145D01*
X155910178Y-80226397D01*
X155738433Y-80555470D01*
X155551616Y-80894399D01*
X155348545Y-81238432D01*
X155240546Y-81410878D01*
X155128040Y-81582816D01*
X155010880Y-81753654D01*
X154888919Y-81922797D01*
X154762008Y-82089651D01*
X154629999Y-82253622D01*
X154492746Y-82414116D01*
X154350101Y-82570538D01*
X154201915Y-82722295D01*
X154048041Y-82868792D01*
X154041007Y-82910201D01*
X154033181Y-82951474D01*
X154024543Y-82992599D01*
X154015070Y-83033562D01*
X154004741Y-83074351D01*
X153993536Y-83114954D01*
X153981431Y-83155358D01*
X153968406Y-83195551D01*
X153949412Y-83249450D01*
X153928058Y-83304974D01*
X153904203Y-83361963D01*
X153877706Y-83420254D01*
X153848425Y-83479688D01*
X153816222Y-83540103D01*
X153780954Y-83601339D01*
X153742482Y-83663236D01*
X153700664Y-83725631D01*
X153655361Y-83788365D01*
X153606430Y-83851276D01*
X153553732Y-83914204D01*
X153497126Y-83976988D01*
X153436471Y-84039467D01*
X153371626Y-84101480D01*
X153302451Y-84162867D01*
X153184869Y-84599592D01*
X153062382Y-85024694D01*
X152934798Y-85438702D01*
X152801925Y-85842146D01*
X152663569Y-86235556D01*
X152519540Y-86619463D01*
X152369645Y-86994397D01*
X152213691Y-87360888D01*
X152110681Y-87590725D01*
X152005909Y-87813348D01*
X151899178Y-88029105D01*
X151790289Y-88238347D01*
X151679043Y-88441425D01*
X151565243Y-88638689D01*
X151448690Y-88830489D01*
X151329184Y-89017176D01*
X151165138Y-89260695D01*
X151000011Y-89493017D01*
X150833495Y-89714506D01*
X150665280Y-89925524D01*
X150580439Y-90027220D01*
X150495056Y-90126434D01*
X150409094Y-90223212D01*
X150322513Y-90317599D01*
X150235275Y-90409640D01*
X150147341Y-90499381D01*
X150058672Y-90586867D01*
X149969230Y-90672144D01*
X149861646Y-90771163D01*
X149750700Y-90869326D01*
X149636506Y-90966546D01*
X149519174Y-91062737D01*
X149398815Y-91157812D01*
X149275542Y-91251685D01*
X149149465Y-91344267D01*
X149020698Y-91435472D01*
X148937006Y-91492609D01*
X148853328Y-91547285D01*
X148769831Y-91599567D01*
X148686684Y-91649525D01*
X148522111Y-91742743D01*
X148360955Y-91827486D01*
X148204562Y-91904304D01*
X148054278Y-91973747D01*
X147911449Y-92036362D01*
X147777419Y-92092699D01*
X147633283Y-92149593D01*
X147487892Y-92201989D01*
X147341354Y-92249852D01*
X147193778Y-92293149D01*
X147045272Y-92331845D01*
X146895944Y-92365906D01*
X146745904Y-92395297D01*
X146595260Y-92419985D01*
X146442646Y-92441537D01*
X146280627Y-92462026D01*
X146110310Y-92480387D01*
X145932807Y-92495559D01*
X145749227Y-92506476D01*
X145560680Y-92512076D01*
X145368276Y-92511295D01*
X145173125Y-92503069D01*
X144894486Y-92480685D01*
X144616706Y-92448882D01*
X144339976Y-92407691D01*
X144064484Y-92357143D01*
X143790418Y-92297269D01*
X143517967Y-92228100D01*
X143247321Y-92149666D01*
X142978667Y-92061998D01*
X143076685Y-92373744D01*
X143178027Y-92683588D01*
X143282644Y-92991367D01*
X143390486Y-93296916D01*
X143501503Y-93600071D01*
X143615646Y-93900667D01*
X143732865Y-94198539D01*
X143853110Y-94493524D01*
X144002452Y-94846196D01*
X144155266Y-95193413D01*
X144311057Y-95533983D01*
X144469329Y-95866716D01*
X144547226Y-96010026D01*
X144624206Y-96149391D01*
X144700344Y-96285332D01*
X144775718Y-96418367D01*
X144875812Y-96591901D01*
X144974173Y-96759031D01*
X145070929Y-96919979D01*
X145166205Y-97074965D01*
X145260130Y-97224208D01*
X145352830Y-97367929D01*
X145444432Y-97506350D01*
X145535064Y-97639688D01*
X145681012Y-97848624D01*
X145838245Y-98067752D01*
X146009717Y-98301118D01*
X146198379Y-98552767D01*
X146382547Y-98794106D01*
X146573985Y-99041053D01*
X146774006Y-99295343D01*
X146983924Y-99558710D01*
X147265441Y-99916430D01*
X147304748Y-99974818D01*
X147343800Y-100034282D01*
X147382765Y-100095104D01*
X147421810Y-100157567D01*
X147461103Y-100221952D01*
X147500811Y-100288541D01*
X147541103Y-100357616D01*
X147582145Y-100429460D01*
X147623450Y-100503769D01*
X147663937Y-100578649D01*
X147703480Y-100654076D01*
X147741958Y-100730028D01*
X147901118Y-100641576D01*
X148060405Y-100555471D01*
X148219971Y-100471804D01*
X148379968Y-100390663D01*
X148540548Y-100312140D01*
X148701862Y-100236324D01*
X148864064Y-100163304D01*
X149027305Y-100093172D01*
X149201057Y-100022246D01*
X149373313Y-99956006D01*
X149544143Y-99894436D01*
X149713619Y-99837521D01*
X149881814Y-99785247D01*
X150048798Y-99737597D01*
X150214643Y-99694558D01*
X150379421Y-99656113D01*
X150543204Y-99622247D01*
X150706064Y-99592947D01*
X150868072Y-99568195D01*
X151029300Y-99547978D01*
X151189820Y-99532279D01*
X151349703Y-99521085D01*
X151509021Y-99514380D01*
X151667846Y-99512148D01*
X151833715Y-99514655D01*
X151999114Y-99522173D01*
X152164005Y-99534694D01*
X152328354Y-99552212D01*
X152492122Y-99574721D01*
X152655274Y-99602213D01*
X152817773Y-99634683D01*
X152979584Y-99672123D01*
X153140668Y-99714527D01*
X153300991Y-99761889D01*
X153460516Y-99814202D01*
X153619205Y-99871459D01*
X153777024Y-99933653D01*
X153933934Y-100000779D01*
X154089901Y-100072829D01*
X154244887Y-100149797D01*
X154535781Y-100308884D01*
X154818580Y-100482967D01*
X155092947Y-100671651D01*
X155358547Y-100874542D01*
X155615042Y-101091245D01*
X155862095Y-101321364D01*
X156099370Y-101564505D01*
X156326529Y-101820272D01*
X156543237Y-102088272D01*
X156749156Y-102368109D01*
X156943949Y-102659388D01*
X157127279Y-102961714D01*
X157298811Y-103274692D01*
X157458206Y-103597928D01*
X157605129Y-103931026D01*
X157739242Y-104273592D01*
X157826341Y-104521377D01*
X157906055Y-104771171D01*
X157978355Y-105022751D01*
X158043217Y-105275892D01*
X158100614Y-105530371D01*
X158150521Y-105785965D01*
X158192912Y-106042449D01*
X158227759Y-106299601D01*
X158255039Y-106557196D01*
X158274723Y-106815010D01*
X158286788Y-107072821D01*
X158291206Y-107330405D01*
X158287951Y-107587537D01*
X158276999Y-107843995D01*
X158258322Y-108099554D01*
X158231894Y-108353991D01*
X158184517Y-108716396D01*
X158131160Y-109071070D01*
X158071783Y-109418154D01*
X158006346Y-109757785D01*
X157934810Y-110090104D01*
X157857136Y-110415248D01*
X157773285Y-110733358D01*
X157683215Y-111044573D01*
X157586889Y-111349031D01*
X157484265Y-111646872D01*
X157375306Y-111938235D01*
X157259971Y-112223259D01*
X157138221Y-112502084D01*
X157010016Y-112774848D01*
X156875317Y-113041691D01*
X156734084Y-113302752D01*
X156679990Y-113396795D01*
X156624354Y-113490514D01*
X156567626Y-113584082D01*
X156510253Y-113677675D01*
X156496230Y-113700426D01*
X156431374Y-113805436D01*
X156365523Y-113911036D01*
X156476205Y-113894159D01*
X156587150Y-113879463D01*
X156698299Y-113866968D01*
X156809595Y-113856696D01*
X156920978Y-113848669D01*
X157032388Y-113842908D01*
X157143768Y-113839436D01*
X157255057Y-113838274D01*
X157445697Y-113841708D01*
X157634237Y-113851981D01*
X157820528Y-113869046D01*
X158004425Y-113892861D01*
X158185778Y-113923378D01*
X158364442Y-113960555D01*
X158540269Y-114004344D01*
X158713112Y-114054703D01*
X158882823Y-114111585D01*
X159049255Y-114174946D01*
X159212260Y-114244740D01*
X159371692Y-114320924D01*
X159527404Y-114403451D01*
X159679247Y-114492277D01*
X159827075Y-114587357D01*
X159970740Y-114688646D01*
X160128049Y-114810174D01*
X160278508Y-114938220D01*
X160422051Y-115072483D01*
X160558608Y-115212666D01*
X160688110Y-115358469D01*
X160810489Y-115509592D01*
X161033599Y-115826603D01*
X161227389Y-116161307D01*
X161391308Y-116511308D01*
X161524804Y-116874215D01*
X161627328Y-117247632D01*
X161698328Y-117629167D01*
X161737253Y-118016425D01*
X161743554Y-118407014D01*
X161716678Y-118798538D01*
X161656076Y-119188606D01*
X161561196Y-119574822D01*
X161500731Y-119765738D01*
X161431489Y-119954794D01*
X161353402Y-120141691D01*
X161266402Y-120326128D01*
X161236009Y-120383832D01*
X161203695Y-120439944D01*
X161169507Y-120494430D01*
X161133491Y-120547253D01*
X161095691Y-120598379D01*
X161056155Y-120647773D01*
X161014928Y-120695398D01*
X160972054Y-120741220D01*
X160927581Y-120785204D01*
X160881554Y-120827314D01*
X160834019Y-120867514D01*
X160785021Y-120905770D01*
X160734606Y-120942047D01*
X160682820Y-120976308D01*
X160629708Y-121008519D01*
X160575316Y-121038645D01*
X160465950Y-121111350D01*
X160353821Y-121179258D01*
X160238885Y-121242383D01*
X160121093Y-121300740D01*
X160000402Y-121354344D01*
X159876763Y-121403209D01*
X159750132Y-121447351D01*
X159620462Y-121486783D01*
X159487707Y-121521521D01*
X159351821Y-121551580D01*
X159212758Y-121576973D01*
X159070472Y-121597717D01*
X158924915Y-121613825D01*
X158776044Y-121625313D01*
X158623810Y-121632195D01*
X158468169Y-121634485D01*
X158467902Y-121634485D01*
X158355331Y-121633422D01*
X158243557Y-121630396D01*
X158132757Y-121625652D01*
X158023107Y-121619436D01*
X157807963Y-121603567D01*
X157599540Y-121584749D01*
X157081663Y-121525437D01*
X156564493Y-121448253D01*
X156051639Y-121356683D01*
X155546709Y-121254211D01*
X155053313Y-121144324D01*
X154575060Y-121030504D01*
X153678420Y-120805010D01*
X153600000Y-120785722D01*
X153516489Y-120766334D01*
X153336250Y-120727161D01*
X153141823Y-120687293D01*
X152937324Y-120646532D01*
X152764281Y-120611872D01*
X134025435Y-129075624D01*
X134025435Y-113027590D01*
X134213799Y-113013233D01*
X134401320Y-112992132D01*
X134587789Y-112964352D01*
X134772996Y-112929958D01*
X134956733Y-112889016D01*
X135138788Y-112841591D01*
X135318953Y-112787747D01*
X135497017Y-112727550D01*
X135672772Y-112661066D01*
X135846007Y-112588358D01*
X136016512Y-112509493D01*
X136184079Y-112424535D01*
X136348497Y-112333549D01*
X136509556Y-112236602D01*
X136667048Y-112133757D01*
X136820762Y-112025080D01*
X136954151Y-112082764D01*
X137089211Y-112136908D01*
X137225952Y-112187442D01*
X137364382Y-112234300D01*
X137504511Y-112277412D01*
X137646349Y-112316710D01*
X137789904Y-112352126D01*
X137935187Y-112383593D01*
X138057576Y-112405894D01*
X138180586Y-112425181D01*
X138304093Y-112441467D01*
X138427972Y-112454764D01*
X138552099Y-112465085D01*
X138676350Y-112472441D01*
X138800601Y-112476846D01*
X138924727Y-112478312D01*
X139122561Y-112474486D01*
X139319995Y-112463073D01*
X139516755Y-112444168D01*
X139712565Y-112417866D01*
X139907150Y-112384265D01*
X140100236Y-112343459D01*
X140291546Y-112295544D01*
X140480806Y-112240616D01*
X140667741Y-112178770D01*
X140852075Y-112110103D01*
X141033534Y-112034710D01*
X141211842Y-111952687D01*
X141386723Y-111864129D01*
X141557904Y-111769132D01*
X141725108Y-111667792D01*
X141888060Y-111560205D01*
X142083167Y-111417852D01*
X142270952Y-111266687D01*
X142451171Y-111107108D01*
X142623576Y-110939512D01*
X142787923Y-110764297D01*
X142943967Y-110581859D01*
X143091460Y-110392597D01*
X143230158Y-110196906D01*
X143359814Y-109995185D01*
X143480184Y-109787830D01*
X143591021Y-109575240D01*
X143692079Y-109357810D01*
X143783113Y-109135939D01*
X143863877Y-108910024D01*
X143934126Y-108680461D01*
X143993613Y-108447649D01*
X144091402Y-108400878D01*
X144188244Y-108352240D01*
X144284038Y-108301730D01*
X144378681Y-108249340D01*
X144472072Y-108195066D01*
X144564107Y-108138901D01*
X144654686Y-108080840D01*
X144743705Y-108020876D01*
X144906175Y-107903573D01*
X145063596Y-107780113D01*
X145215836Y-107650716D01*
X145362763Y-107515598D01*
X145504246Y-107374978D01*
X145640152Y-107229074D01*
X145770350Y-107078105D01*
X145894709Y-106922289D01*
X146013095Y-106761843D01*
X146125378Y-106596987D01*
X146231425Y-106427938D01*
X146331106Y-106254914D01*
X146424287Y-106078134D01*
X146510838Y-105897815D01*
X146590626Y-105714177D01*
X146663520Y-105527437D01*
X146662289Y-105530909D01*
X146661150Y-105534375D01*
X146659025Y-105541264D01*
X146657978Y-105544673D01*
X146656899Y-105548052D01*
X146655758Y-105551392D01*
X146654525Y-105554689D01*
X146816719Y-105460135D01*
X146978118Y-105364984D01*
X147533841Y-105016880D01*
X148129294Y-104626223D01*
X148756807Y-104224576D01*
X149080189Y-104029495D01*
X149408709Y-103843504D01*
X149741409Y-103670548D01*
X150077330Y-103514571D01*
X150415513Y-103379521D01*
X150754999Y-103269342D01*
X150924931Y-103224813D01*
X151094829Y-103187981D01*
X151264573Y-103159339D01*
X151434044Y-103139381D01*
X151603121Y-103128600D01*
X151771686Y-103127490D01*
X151939617Y-103136543D01*
X152106795Y-103156252D01*
X152203956Y-103173488D01*
X152298909Y-103195412D01*
X152391689Y-103221848D01*
X152482328Y-103252619D01*
X152570862Y-103287549D01*
X152657324Y-103326461D01*
X152741748Y-103369178D01*
X152824168Y-103415525D01*
X152904618Y-103465324D01*
X152983131Y-103518399D01*
X153134487Y-103633671D01*
X153278505Y-103759928D01*
X153415459Y-103895758D01*
X153545619Y-104039748D01*
X153669257Y-104190488D01*
X153786645Y-104346563D01*
X153898055Y-104506562D01*
X154003758Y-104669072D01*
X154104026Y-104832682D01*
X154289344Y-105157549D01*
X154426010Y-105434565D01*
X154538303Y-105720321D01*
X154627639Y-106013656D01*
X154695437Y-106313407D01*
X154743113Y-106618411D01*
X154772086Y-106927507D01*
X154783771Y-107239533D01*
X154779588Y-107553325D01*
X154760952Y-107867721D01*
X154729282Y-108181560D01*
X154685995Y-108493678D01*
X154632508Y-108802914D01*
X154570238Y-109108106D01*
X154500604Y-109408090D01*
X154344909Y-109987787D01*
X154254882Y-110273017D01*
X154153185Y-110552889D01*
X154041169Y-110827926D01*
X153920186Y-111098649D01*
X153791588Y-111365581D01*
X153656727Y-111629241D01*
X153373622Y-112148838D01*
X152791736Y-113171741D01*
X152514584Y-113683394D01*
X152384188Y-113941097D01*
X152261046Y-114200747D01*
X152265014Y-114200480D01*
X152142536Y-114217682D01*
X152021487Y-114239219D01*
X151961651Y-114251657D01*
X151902355Y-114265233D01*
X151843659Y-114279963D01*
X151785624Y-114295866D01*
X151728313Y-114312959D01*
X151671784Y-114331261D01*
X151616099Y-114350789D01*
X151561320Y-114371561D01*
X151507506Y-114393596D01*
X151454720Y-114416909D01*
X151403020Y-114441521D01*
X151352469Y-114467447D01*
X151291828Y-114501036D01*
X151236019Y-114534759D01*
X151184899Y-114568658D01*
X151138328Y-114602773D01*
X151096162Y-114637145D01*
X151058261Y-114671816D01*
X151024482Y-114706826D01*
X151009094Y-114724471D01*
X150994683Y-114742217D01*
X150981232Y-114760068D01*
X150968723Y-114778030D01*
X150957138Y-114796107D01*
X150946460Y-114814305D01*
X150936670Y-114832630D01*
X150927752Y-114851085D01*
X150919686Y-114869676D01*
X150912456Y-114888409D01*
X150906044Y-114907289D01*
X150900432Y-114926320D01*
X150891537Y-114964857D01*
X150885629Y-115004063D01*
X150882567Y-115043978D01*
X150882076Y-115075408D01*
X150883137Y-115107303D01*
X150885687Y-115139682D01*
X150889660Y-115172563D01*
X150894992Y-115205965D01*
X150901616Y-115239907D01*
X150909469Y-115274407D01*
X150918484Y-115309484D01*
X150928596Y-115345155D01*
X150939742Y-115381441D01*
X150964869Y-115455930D01*
X150993346Y-115533097D01*
X151024650Y-115613092D01*
X150919912Y-115663320D01*
X150815535Y-115718475D01*
X150712248Y-115778285D01*
X150610778Y-115842482D01*
X150511851Y-115910794D01*
X150416196Y-115982953D01*
X150324540Y-116058687D01*
X150237611Y-116137727D01*
X150156135Y-116219802D01*
X150080841Y-116304643D01*
X150012456Y-116391978D01*
X149951708Y-116481539D01*
X149924425Y-116527069D01*
X149899324Y-116573055D01*
X149876495Y-116619461D01*
X149856030Y-116666255D01*
X149838020Y-116713403D01*
X149822556Y-116760871D01*
X149809728Y-116808624D01*
X149799628Y-116856630D01*
X149792627Y-116860511D01*
X149785823Y-116864712D01*
X149779234Y-116869236D01*
X149772876Y-116874088D01*
X149766769Y-116879272D01*
X149760928Y-116884791D01*
X149755372Y-116890650D01*
X149750117Y-116896852D01*
X149745182Y-116903400D01*
X149740584Y-116910300D01*
X149736340Y-116917555D01*
X149732468Y-116925169D01*
X149728985Y-116933146D01*
X149725908Y-116941489D01*
X149723256Y-116950203D01*
X149721045Y-116959291D01*
X149720679Y-116961101D01*
X149720369Y-116962956D01*
X149720111Y-116964852D01*
X149719898Y-116966785D01*
X149719587Y-116970744D01*
X149719394Y-116974800D01*
X149719187Y-116983064D01*
X149719087Y-116987205D01*
X149718932Y-116991304D01*
X149718691Y-116993950D01*
X149718388Y-116996550D01*
X149717744Y-117001722D01*
X149717477Y-117004350D01*
X149717297Y-117007044D01*
X149717251Y-117008423D01*
X149717241Y-117009829D01*
X149717270Y-117011266D01*
X149717345Y-117012735D01*
X149717345Y-117013536D01*
X149738735Y-117187306D01*
X149774690Y-117351217D01*
X149824488Y-117505624D01*
X149887404Y-117650882D01*
X149962715Y-117787347D01*
X150049698Y-117915373D01*
X150147629Y-118035315D01*
X150255785Y-118147527D01*
X150373442Y-118252365D01*
X150499877Y-118350184D01*
X150634367Y-118441338D01*
X150776187Y-118526182D01*
X151078927Y-118678361D01*
X151402310Y-118809559D01*
X151740548Y-118922615D01*
X152087853Y-119020370D01*
X152438438Y-119105660D01*
X152786515Y-119181326D01*
X153451996Y-119315139D01*
X154037993Y-119444521D01*
X154946784Y-119672580D01*
X155409338Y-119782349D01*
X155875095Y-119885853D01*
X156342378Y-119980526D01*
X156809508Y-120063800D01*
X157274809Y-120133109D01*
X157736602Y-120185884D01*
X158018619Y-120210168D01*
X158159343Y-120219492D01*
X158299530Y-120225970D01*
X158438923Y-120228876D01*
X158577260Y-120227484D01*
X158714284Y-120221069D01*
X158849735Y-120208906D01*
X158983354Y-120190269D01*
X159114880Y-120164432D01*
X159244056Y-120130670D01*
X159370622Y-120088256D01*
X159494318Y-120036467D01*
X159614885Y-119974575D01*
X159673914Y-119939614D01*
X159732064Y-119901856D01*
X159789302Y-119861209D01*
X159845595Y-119817583D01*
X159854418Y-119815875D01*
X159863116Y-119813713D01*
X159871677Y-119811079D01*
X159880087Y-119807952D01*
X159888335Y-119804314D01*
X159896408Y-119800144D01*
X159904291Y-119795424D01*
X159911974Y-119790134D01*
X159919443Y-119784255D01*
X159926685Y-119777768D01*
X159933687Y-119770652D01*
X159940437Y-119762890D01*
X159946922Y-119754460D01*
X159953130Y-119745344D01*
X159959046Y-119735523D01*
X159964660Y-119724977D01*
X160034824Y-119574416D01*
X160096494Y-119420665D01*
X160149679Y-119264148D01*
X160194387Y-119105284D01*
X160230625Y-118944494D01*
X160258402Y-118782200D01*
X160277726Y-118618822D01*
X160288606Y-118454782D01*
X160291048Y-118290499D01*
X160285063Y-118126396D01*
X160270657Y-117962892D01*
X160247839Y-117800410D01*
X160216617Y-117639369D01*
X160176999Y-117480191D01*
X160128993Y-117323297D01*
X160072608Y-117169107D01*
X160034788Y-117078058D01*
X159993956Y-116988228D01*
X159950115Y-116899708D01*
X159903267Y-116812589D01*
X159853415Y-116726961D01*
X159800560Y-116642915D01*
X159744706Y-116560542D01*
X159685854Y-116479932D01*
X159624007Y-116401176D01*
X159559166Y-116324366D01*
X159491336Y-116249591D01*
X159420517Y-116176942D01*
X159346712Y-116106511D01*
X159269924Y-116038387D01*
X159190154Y-115972662D01*
X159107406Y-115909426D01*
X158996308Y-115831844D01*
X158881928Y-115760278D01*
X158764475Y-115694653D01*
X158644153Y-115634895D01*
X158521171Y-115580928D01*
X158395735Y-115532677D01*
X158138329Y-115453024D01*
X157873590Y-115395338D01*
X157603173Y-115359018D01*
X157328733Y-115343465D01*
X157051925Y-115348080D01*
X156774403Y-115372262D01*
X156497824Y-115415412D01*
X156223841Y-115476931D01*
X155954111Y-115556220D01*
X155690287Y-115652677D01*
X155434024Y-115765705D01*
X155186979Y-115894703D01*
X154950805Y-116039072D01*
X154960766Y-115999777D01*
X154969779Y-115960252D01*
X154977787Y-115920467D01*
X154984735Y-115880390D01*
X154990567Y-115839991D01*
X154995227Y-115799237D01*
X154998659Y-115758100D01*
X155000808Y-115716547D01*
X155001529Y-115674446D01*
X155000863Y-115631859D01*
X154998740Y-115588744D01*
X154995088Y-115545063D01*
X154989835Y-115500774D01*
X154982912Y-115455838D01*
X154974246Y-115410215D01*
X154963767Y-115363863D01*
X154943811Y-115290069D01*
X154920257Y-115219915D01*
X154893249Y-115153277D01*
X154862936Y-115090032D01*
X154829464Y-115030054D01*
X154792978Y-114973221D01*
X154753626Y-114919408D01*
X154711554Y-114868490D01*
X154666908Y-114820345D01*
X154619835Y-114774847D01*
X154570481Y-114731874D01*
X154518993Y-114691300D01*
X154465518Y-114653002D01*
X154410202Y-114616856D01*
X154353190Y-114582738D01*
X154294631Y-114550524D01*
X154435786Y-114300988D01*
X154583787Y-114054460D01*
X154735906Y-113810994D01*
X154889414Y-113570646D01*
X155189683Y-113099530D01*
X155330988Y-112868873D01*
X155462768Y-112641558D01*
X155600317Y-112386020D01*
X155729370Y-112126500D01*
X155850180Y-111863274D01*
X155962999Y-111596621D01*
X156068080Y-111326817D01*
X156165677Y-111054141D01*
X156256043Y-110778869D01*
X156339431Y-110501280D01*
X156416093Y-110221650D01*
X156486283Y-109940258D01*
X156608260Y-109373295D01*
X156707384Y-108802610D01*
X156785682Y-108230425D01*
X156810085Y-107990350D01*
X156826025Y-107748182D01*
X156833543Y-107504319D01*
X156832682Y-107259162D01*
X156805993Y-106766567D01*
X156746297Y-106273597D01*
X156653936Y-105783453D01*
X156529248Y-105299336D01*
X156454888Y-105060538D01*
X156372574Y-104824448D01*
X156282349Y-104591464D01*
X156184254Y-104361988D01*
X156078332Y-104136419D01*
X155964626Y-103915158D01*
X155843179Y-103698605D01*
X155714032Y-103487160D01*
X155577229Y-103281222D01*
X155432811Y-103081193D01*
X155280822Y-102887472D01*
X155121303Y-102700459D01*
X154954298Y-102520554D01*
X154779848Y-102348158D01*
X154597997Y-102183671D01*
X154408786Y-102027492D01*
X154212259Y-101880023D01*
X154008457Y-101741662D01*
X153797423Y-101612810D01*
X153579200Y-101493868D01*
X153357386Y-101387048D01*
X153136911Y-101294730D01*
X152917732Y-101216454D01*
X152699805Y-101151758D01*
X152483086Y-101100182D01*
X152267532Y-101061264D01*
X152053100Y-101034544D01*
X151839745Y-101019561D01*
X151627424Y-101015853D01*
X151416094Y-101022960D01*
X151205710Y-101040420D01*
X150996230Y-101067773D01*
X150787610Y-101104558D01*
X150579805Y-101150314D01*
X150166470Y-101266894D01*
X149755875Y-101413826D01*
X149347673Y-101587422D01*
X148941514Y-101783994D01*
X148537049Y-101999854D01*
X148133930Y-102231315D01*
X147731808Y-102474688D01*
X146929160Y-102982424D01*
X146929163Y-102982573D01*
X146929172Y-102982721D01*
X146929185Y-102982868D01*
X146929202Y-102983015D01*
X146929245Y-102983302D01*
X146929294Y-102983581D01*
X146929343Y-102983846D01*
X146929385Y-102984096D01*
X146929402Y-102984215D01*
X146929416Y-102984328D01*
X146929424Y-102984435D01*
X146929427Y-102984537D01*
X146905574Y-102837128D01*
X146877672Y-102690982D01*
X146845722Y-102546114D01*
X146809723Y-102402543D01*
X146769677Y-102260282D01*
X146725583Y-102119350D01*
X146677442Y-101979761D01*
X146625255Y-101841534D01*
X146569021Y-101704682D01*
X146508741Y-101569224D01*
X146444417Y-101435175D01*
X146376047Y-101302552D01*
X146303632Y-101171370D01*
X146227173Y-101041646D01*
X146146671Y-100913397D01*
X146062125Y-100786638D01*
X145627712Y-100244704D01*
X145189358Y-99683695D01*
X144971345Y-99396773D01*
X144755519Y-99105966D01*
X144542937Y-98811568D01*
X144334655Y-98513872D01*
X144192642Y-98303872D01*
X144050939Y-98086752D01*
X143908914Y-97861521D01*
X143765934Y-97627187D01*
X143621366Y-97382757D01*
X143474579Y-97127240D01*
X143324938Y-96859643D01*
X143171813Y-96578974D01*
X142841029Y-95872770D01*
X142529079Y-95154612D01*
X142236192Y-94425223D01*
X141962598Y-93685326D01*
X141708525Y-92935643D01*
X141474202Y-92176898D01*
X141259860Y-91409813D01*
X141065726Y-90635111D01*
X140960645Y-90039003D01*
X140866825Y-89435355D01*
X140847509Y-89293606D01*
X140872580Y-89468035D01*
X141089111Y-89603366D01*
X141197884Y-89670287D01*
X141252669Y-89703171D01*
X141307822Y-89735521D01*
X141542807Y-89868864D01*
X141780232Y-89997547D01*
X142020082Y-90121449D01*
X142262341Y-90240449D01*
X142506993Y-90354426D01*
X142754023Y-90463259D01*
X143003416Y-90566828D01*
X143255156Y-90665010D01*
X143498302Y-90751732D01*
X143744188Y-90829455D01*
X143992579Y-90898063D01*
X144243239Y-90957437D01*
X144495934Y-91007461D01*
X144750428Y-91048015D01*
X145006485Y-91078982D01*
X145263869Y-91100245D01*
X145404950Y-91106303D01*
X145545332Y-91106991D01*
X145685188Y-91102867D01*
X145824687Y-91094490D01*
X145964000Y-91082417D01*
X146103298Y-91067206D01*
X146242751Y-91049416D01*
X146382529Y-91029604D01*
X146490158Y-91012014D01*
X146597101Y-90991031D01*
X146703293Y-90966713D01*
X146808671Y-90939115D01*
X146913168Y-90908291D01*
X147016719Y-90874299D01*
X147119260Y-90837193D01*
X147220725Y-90797029D01*
X147348228Y-90743311D01*
X147473783Y-90687949D01*
X147597429Y-90630392D01*
X147719202Y-90570087D01*
X147839139Y-90506483D01*
X147957278Y-90439028D01*
X148073655Y-90367168D01*
X148131195Y-90329415D01*
X148188308Y-90290354D01*
X148290917Y-90217749D01*
X148392484Y-90143395D01*
X148492885Y-90067280D01*
X148591996Y-89989391D01*
X148689693Y-89909717D01*
X148785852Y-89828243D01*
X148880349Y-89744960D01*
X148973060Y-89659853D01*
X149054187Y-89582256D01*
X149133875Y-89503014D01*
X149212147Y-89422209D01*
X149289026Y-89339926D01*
X149438701Y-89171264D01*
X149583090Y-88997700D01*
X149722381Y-88819906D01*
X149856765Y-88638556D01*
X149986429Y-88454322D01*
X150111564Y-88267878D01*
X150221529Y-88095508D01*
X150327123Y-87920450D01*
X150428538Y-87742918D01*
X150525966Y-87563127D01*
X150619598Y-87381289D01*
X150709628Y-87197619D01*
X150796246Y-87012332D01*
X150879645Y-86825640D01*
X151059749Y-86398819D01*
X151227866Y-85968198D01*
X151384708Y-85533968D01*
X151530989Y-85096322D01*
X151667421Y-84655451D01*
X151794720Y-84211547D01*
X151913596Y-83764802D01*
X152024764Y-83315409D01*
X152024864Y-83314925D01*
X152024964Y-83314463D01*
X152025165Y-83313591D01*
X152025365Y-83312767D01*
X152025565Y-83311968D01*
X152106771Y-83271299D01*
X152184352Y-83227275D01*
X152257648Y-83179888D01*
X152325999Y-83129130D01*
X152388744Y-83074993D01*
X152417808Y-83046656D01*
X152445223Y-83017472D01*
X152470906Y-82987439D01*
X152494774Y-82956557D01*
X152516747Y-82924825D01*
X152536739Y-82892242D01*
X152554670Y-82858808D01*
X152570457Y-82824520D01*
X152584016Y-82789379D01*
X152595266Y-82753382D01*
X152604124Y-82716531D01*
X152610507Y-82678823D01*
X152614333Y-82640257D01*
X152615519Y-82600833D01*
X152613983Y-82560549D01*
X152609642Y-82519406D01*
X152602414Y-82477401D01*
X152592216Y-82434534D01*
X152578965Y-82390804D01*
X152562579Y-82346210D01*
X152542976Y-82300751D01*
X152520072Y-82254427D01*
X152519805Y-82254427D01*
X152519829Y-82254403D01*
X152519852Y-82254381D01*
X152519893Y-82254341D01*
X152519959Y-82254277D01*
X152520039Y-82254200D01*
X152520042Y-82254197D01*
X152520044Y-82254194D01*
X152520050Y-82254189D01*
X152520058Y-82254181D01*
X152520068Y-82254172D01*
X152520070Y-82254169D01*
X152520071Y-82254168D01*
X152520072Y-82254168D01*
X152520096Y-82254191D01*
X152520119Y-82254213D01*
X152520160Y-82254253D01*
X152520226Y-82254318D01*
X152520306Y-82254395D01*
X152520309Y-82254397D01*
X152520311Y-82254400D01*
X152520317Y-82254405D01*
X152520325Y-82254413D01*
X152520335Y-82254423D01*
X152520336Y-82254424D01*
X152520338Y-82254426D01*
X152520339Y-82254426D01*
X152520339Y-82254427D01*
X152696681Y-82139924D01*
X152866585Y-82012593D01*
X153030125Y-81873742D01*
X153187375Y-81724683D01*
X153338409Y-81566725D01*
X153483299Y-81401178D01*
X153622120Y-81229353D01*
X153754946Y-81052559D01*
X153881849Y-80872106D01*
X154002904Y-80689304D01*
X154118184Y-80505464D01*
X154227764Y-80321895D01*
X154430113Y-79960812D01*
X154610541Y-79616533D01*
X154651659Y-79539289D01*
X154695110Y-79464724D01*
X154740777Y-79392697D01*
X154788539Y-79323067D01*
X154889878Y-79190437D01*
X154998175Y-79065708D01*
X155112482Y-78947751D01*
X155231847Y-78835441D01*
X155355320Y-78727651D01*
X155481951Y-78623254D01*
X156001047Y-78217065D01*
X156129212Y-78112734D01*
X156254834Y-78005036D01*
X156376961Y-77892845D01*
X156494643Y-77775034D01*
X156515672Y-77751772D01*
X156535596Y-77727660D01*
X156572115Y-77677076D01*
X156604169Y-77623672D01*
X156631725Y-77567833D01*
X156654753Y-77509948D01*
X156673221Y-77450404D01*
X156687098Y-77389588D01*
X156696352Y-77327889D01*
X156700952Y-77265694D01*
X156700868Y-77203391D01*
X156696066Y-77141366D01*
X156686517Y-77080008D01*
X156672188Y-77019704D01*
X156653048Y-76960842D01*
X156629066Y-76903809D01*
X156600211Y-76848993D01*
X156571554Y-76801344D01*
X156542252Y-76756685D01*
X156512333Y-76714961D01*
X156481822Y-76676118D01*
X156450745Y-76640101D01*
X156419128Y-76606856D01*
X156386997Y-76576327D01*
X156354378Y-76548461D01*
X156321297Y-76523202D01*
X156287780Y-76500496D01*
X156253853Y-76480289D01*
X156219542Y-76462525D01*
X156184873Y-76447150D01*
X156149873Y-76434109D01*
X156114566Y-76423348D01*
X156078978Y-76414812D01*
X156078978Y-76415079D01*
X156078444Y-76415079D01*
X156078444Y-76414812D01*
X156057671Y-76339362D01*
X156033671Y-76267253D01*
X156006552Y-76198493D01*
X155976420Y-76133093D01*
X155943381Y-76071062D01*
X155907542Y-76012408D01*
X155869010Y-75957142D01*
X155827893Y-75905271D01*
X155784295Y-75856807D01*
X155738324Y-75811757D01*
X155690087Y-75770131D01*
X155639691Y-75731939D01*
X155587241Y-75697189D01*
X155532845Y-75665891D01*
X155476610Y-75638054D01*
X155418641Y-75613687D01*
X155359046Y-75592801D01*
X155297932Y-75575403D01*
X155235405Y-75561503D01*
X155171571Y-75551110D01*
X155106538Y-75544235D01*
X155040412Y-75540885D01*
X154973300Y-75541070D01*
X154905308Y-75544800D01*
X154836544Y-75552083D01*
X154767113Y-75562930D01*
X154697123Y-75577348D01*
X154626680Y-75595348D01*
X154555891Y-75616939D01*
X154484862Y-75642130D01*
X154413701Y-75670930D01*
X154342513Y-75703348D01*
X154314823Y-75716608D01*
X154287139Y-75730550D01*
X154259493Y-75745112D01*
X154231915Y-75760233D01*
X154204437Y-75775850D01*
X154177089Y-75791902D01*
X154149903Y-75808326D01*
X154122909Y-75825060D01*
X154083790Y-75798938D01*
X154044813Y-75774827D01*
X154005979Y-75752696D01*
X153967287Y-75732516D01*
X153928739Y-75714257D01*
X153890332Y-75697889D01*
X153852068Y-75683382D01*
X153813947Y-75670707D01*
X153775968Y-75659833D01*
X153738131Y-75650730D01*
X153700437Y-75643369D01*
X153662886Y-75637720D01*
X153625477Y-75633754D01*
X153588211Y-75631439D01*
X153551087Y-75630747D01*
X153514106Y-75631647D01*
X153394950Y-75645268D01*
X153277355Y-75674370D01*
X153161335Y-75717907D01*
X153046903Y-75774834D01*
X152934075Y-75844104D01*
X152822865Y-75924671D01*
X152713288Y-76015488D01*
X152605358Y-76115511D01*
X152499089Y-76223691D01*
X152394496Y-76338984D01*
X152190397Y-76586722D01*
X151993175Y-76850355D01*
X151802947Y-77121514D01*
X151443936Y-77652933D01*
X151275384Y-77896454D01*
X151114290Y-78114024D01*
X150960770Y-78297273D01*
X150886885Y-78373412D01*
X150814938Y-78437833D01*
X150744942Y-78489489D01*
X150676911Y-78527333D01*
X150610861Y-78550321D01*
X150546805Y-78557405D01*
X150537110Y-78556962D01*
X150527469Y-78556123D01*
X150517883Y-78554883D01*
X150508350Y-78553239D01*
X150498869Y-78551186D01*
X150489440Y-78548718D01*
X150480063Y-78545833D01*
X150470736Y-78542523D01*
X150461458Y-78538786D01*
X150452229Y-78534617D01*
X150443049Y-78530011D01*
X150433915Y-78524963D01*
X150424829Y-78519468D01*
X150415788Y-78513523D01*
X150406793Y-78507122D01*
X150397841Y-78500261D01*
X150396848Y-78499346D01*
X150395851Y-78498482D01*
X150394846Y-78497667D01*
X150393830Y-78496895D01*
X150392798Y-78496164D01*
X150391748Y-78495470D01*
X150390673Y-78494808D01*
X150389572Y-78494174D01*
X150388440Y-78493565D01*
X150387273Y-78492977D01*
X150386066Y-78492407D01*
X150384818Y-78491849D01*
X150382176Y-78490757D01*
X150379317Y-78489672D01*
X150203218Y-78095690D01*
X150156783Y-77999656D01*
X150107824Y-77906544D01*
X150055560Y-77817324D01*
X150027946Y-77774476D01*
X149999212Y-77732964D01*
X149969263Y-77692909D01*
X149937999Y-77654432D01*
X149905324Y-77617656D01*
X149871141Y-77582700D01*
X149835351Y-77549685D01*
X149797857Y-77518734D01*
X149758562Y-77489966D01*
X149717368Y-77463504D01*
X149674178Y-77439467D01*
X149628894Y-77417978D01*
X149581418Y-77399158D01*
X149531653Y-77383127D01*
X149479502Y-77370007D01*
X149424867Y-77359918D01*
X149367650Y-77352983D01*
X149307754Y-77349321D01*
X149307494Y-77349321D01*
X149237899Y-77348698D01*
X149168674Y-77351252D01*
X149099905Y-77356919D01*
X149031680Y-77365636D01*
X148964084Y-77377339D01*
X148897205Y-77391965D01*
X148831128Y-77409450D01*
X148765940Y-77429731D01*
X148701728Y-77452744D01*
X148638578Y-77478426D01*
X148576577Y-77506714D01*
X148515810Y-77537543D01*
X148456365Y-77570852D01*
X148398328Y-77606575D01*
X148341785Y-77644650D01*
X148286823Y-77685013D01*
X148233529Y-77727600D01*
X148181988Y-77772349D01*
X148132288Y-77819196D01*
X148084514Y-77868077D01*
X148038754Y-77918929D01*
X147995094Y-77971688D01*
X147953620Y-78026290D01*
X147914418Y-78082674D01*
X147877576Y-78140774D01*
X147843179Y-78200528D01*
X147811314Y-78261872D01*
X147782068Y-78324742D01*
X147755527Y-78389075D01*
X147731778Y-78454808D01*
X147710907Y-78521878D01*
X147693000Y-78590219D01*
X147691708Y-78595646D01*
X147690703Y-78601010D01*
X147689976Y-78606312D01*
X147689515Y-78611553D01*
X147689310Y-78616731D01*
X147689350Y-78621847D01*
X147689625Y-78626901D01*
X147690124Y-78631893D01*
X147690838Y-78636823D01*
X147691755Y-78641691D01*
X147692865Y-78646497D01*
X147694157Y-78651241D01*
X147695622Y-78655923D01*
X147697248Y-78660542D01*
X147699025Y-78665100D01*
X147700942Y-78669596D01*
X147700942Y-78674883D01*
X147701751Y-78683758D01*
X147703194Y-78692405D01*
X147705278Y-78700793D01*
X147708008Y-78708894D01*
X147709619Y-78712827D01*
X147711394Y-78716677D01*
X147713334Y-78720440D01*
X147715440Y-78724112D01*
X147717714Y-78727690D01*
X147720155Y-78731170D01*
X147722765Y-78734548D01*
X147725545Y-78737821D01*
X147728495Y-78740984D01*
X147731617Y-78744034D01*
X147734911Y-78746967D01*
X147738378Y-78749780D01*
X147742020Y-78752469D01*
X147745836Y-78755030D01*
X147749828Y-78757459D01*
X147753996Y-78759753D01*
X147758342Y-78761908D01*
X147762866Y-78763920D01*
X147767570Y-78765785D01*
X147772454Y-78767500D01*
X147777518Y-78769062D01*
X147782765Y-78770465D01*
X147788194Y-78771707D01*
X147793807Y-78772783D01*
X147832393Y-78780173D01*
X147869795Y-78789394D01*
X147906056Y-78800373D01*
X147941220Y-78813033D01*
X147975328Y-78827299D01*
X148008424Y-78843097D01*
X148040550Y-78860351D01*
X148071749Y-78878986D01*
X148102065Y-78898928D01*
X148131539Y-78920101D01*
X148188134Y-78965839D01*
X148241877Y-79015600D01*
X148293111Y-79068784D01*
X148342177Y-79124789D01*
X148389418Y-79183015D01*
X148435176Y-79242861D01*
X148479794Y-79303727D01*
X148566975Y-79426112D01*
X148653701Y-79545366D01*
X148722825Y-79680293D01*
X148783317Y-79815153D01*
X148836457Y-79949882D01*
X148883530Y-80084413D01*
X148925816Y-80218680D01*
X148964599Y-80352618D01*
X149036786Y-80619242D01*
X149110350Y-80883757D01*
X149150854Y-81015059D01*
X149195550Y-81145637D01*
X149245720Y-81275423D01*
X149302647Y-81404353D01*
X149367613Y-81532361D01*
X149441901Y-81659380D01*
X149439524Y-81661894D01*
X149437252Y-81664476D01*
X149435079Y-81667124D01*
X149432997Y-81669836D01*
X149431001Y-81672612D01*
X149429084Y-81675450D01*
X149427239Y-81678350D01*
X149425460Y-81681310D01*
X149423739Y-81684328D01*
X149422071Y-81687405D01*
X149418866Y-81693726D01*
X149415792Y-81700264D01*
X149412795Y-81707010D01*
X149393564Y-81768907D01*
X149377113Y-81830018D01*
X149363392Y-81890327D01*
X149352351Y-81949819D01*
X149343938Y-82008479D01*
X149338102Y-82066292D01*
X149334794Y-82123241D01*
X149333963Y-82179311D01*
X149335559Y-82234487D01*
X149339530Y-82288754D01*
X149345826Y-82342096D01*
X149354396Y-82394497D01*
X149365191Y-82445942D01*
X149378158Y-82496416D01*
X149393249Y-82545902D01*
X149410412Y-82594387D01*
X149429596Y-82641854D01*
X149450752Y-82688287D01*
X149473827Y-82733672D01*
X149498773Y-82777993D01*
X149525538Y-82821234D01*
X149554072Y-82863381D01*
X149584323Y-82904416D01*
X149616243Y-82944326D01*
X149649779Y-82983095D01*
X149684882Y-83020706D01*
X149721500Y-83057145D01*
X149759584Y-83092397D01*
X149799082Y-83126445D01*
X149839944Y-83159275D01*
X149882120Y-83190870D01*
X149925559Y-83221216D01*
X149825392Y-83604107D01*
X149719546Y-83985435D01*
X149607104Y-84364926D01*
X149548121Y-84553899D01*
X149487144Y-84742311D01*
X149400223Y-84998577D01*
X149309112Y-85253353D01*
X149213485Y-85506541D01*
X149113021Y-85758043D01*
X149005271Y-85998786D01*
X148892120Y-86237130D01*
X148773202Y-86472633D01*
X148648150Y-86704855D01*
X148516600Y-86933357D01*
X148378186Y-87157697D01*
X148232540Y-87377437D01*
X148079299Y-87592134D01*
X147982836Y-87709152D01*
X147883716Y-87823780D01*
X147781887Y-87935883D01*
X147677295Y-88045330D01*
X147569887Y-88151986D01*
X147459612Y-88255719D01*
X147346416Y-88356396D01*
X147230246Y-88453882D01*
X147150919Y-88510619D01*
X147070478Y-88565669D01*
X146988902Y-88618933D01*
X146906169Y-88670312D01*
X146822257Y-88719706D01*
X146737145Y-88767017D01*
X146650810Y-88812145D01*
X146563231Y-88854990D01*
X146483850Y-88883702D01*
X146403876Y-88910506D01*
X146323337Y-88935408D01*
X146242261Y-88958408D01*
X146160677Y-88979511D01*
X146078612Y-88998720D01*
X145996095Y-89016037D01*
X145913154Y-89031466D01*
X145806327Y-89040210D01*
X145699396Y-89046054D01*
X145592402Y-89049077D01*
X145485390Y-89049356D01*
X145378402Y-89046969D01*
X145271482Y-89041993D01*
X145164674Y-89034505D01*
X145058021Y-89024584D01*
X144870419Y-88990764D01*
X144684082Y-88950672D01*
X144499060Y-88904682D01*
X144315403Y-88853169D01*
X144133159Y-88796510D01*
X143952379Y-88735078D01*
X143773111Y-88669249D01*
X143595405Y-88599398D01*
X143395911Y-88509382D01*
X143198320Y-88415498D01*
X142808512Y-88217018D01*
X142425322Y-88005752D01*
X142048087Y-87783491D01*
X141676148Y-87552028D01*
X141308845Y-87313154D01*
X140945516Y-87068662D01*
X140585502Y-86820345D01*
X140550208Y-86272906D01*
X140522576Y-85721264D01*
X140502702Y-85165505D01*
X140490682Y-84605715D01*
X140486612Y-84041981D01*
X140490588Y-83474390D01*
X140502706Y-82903028D01*
X140523063Y-82327982D01*
X140626794Y-81129728D01*
X140761820Y-79914133D01*
X140928502Y-78678961D01*
X141127204Y-77421977D01*
X141358288Y-76140945D01*
X141622118Y-74833629D01*
X141919056Y-73497794D01*
X142249465Y-72131205D01*
X142300233Y-71896160D01*
X142336392Y-71654667D01*
X142358156Y-71407754D01*
X142365735Y-71156452D01*
X142359343Y-70901791D01*
X142339193Y-70644799D01*
X142305495Y-70386508D01*
X142258464Y-70127947D01*
X142198311Y-69870145D01*
X142125248Y-69614133D01*
X142039489Y-69360939D01*
X141941245Y-69111595D01*
X141830729Y-68867130D01*
X141708153Y-68628573D01*
X141573730Y-68396954D01*
X141427672Y-68173304D01*
X141377833Y-68102391D01*
X141326751Y-68032340D01*
X141274441Y-67963159D01*
X141220920Y-67894861D01*
X141166204Y-67827456D01*
X141110308Y-67760955D01*
X141053249Y-67695369D01*
X140995043Y-67630708D01*
X140935705Y-67566984D01*
X140875251Y-67504207D01*
X140813697Y-67442388D01*
X140751059Y-67381537D01*
X140687354Y-67321667D01*
X140622596Y-67262787D01*
X140556803Y-67204909D01*
X140489989Y-67148043D01*
X140433093Y-66974576D01*
X140370309Y-66803251D01*
X140301714Y-66634247D01*
X140227385Y-66467748D01*
X140147398Y-66303934D01*
X140061832Y-66142986D01*
X139970763Y-65985086D01*
X139874268Y-65830416D01*
X139772425Y-65679156D01*
X139665311Y-65531488D01*
X139553002Y-65387594D01*
X139435576Y-65247655D01*
X139313110Y-65111852D01*
X139185682Y-64980366D01*
X139053367Y-64853379D01*
X138916244Y-64731073D01*
X138736665Y-64583537D01*
X138551263Y-64444621D01*
X138360360Y-64314448D01*
X138164277Y-64193143D01*
X137963338Y-64080829D01*
X137757863Y-63977631D01*
X137548176Y-63883673D01*
X137334598Y-63799079D01*
X137117450Y-63723972D01*
X136897057Y-63658477D01*
X136673738Y-63602719D01*
X136447817Y-63556819D01*
X136219616Y-63520904D01*
X135989456Y-63495097D01*
X135757660Y-63479522D01*
X135524550Y-63474302D01*
X135428444Y-63475336D01*
X135379661Y-63476674D01*
X135330180Y-63478601D01*
X135279843Y-63481149D01*
X135228493Y-63484348D01*
X135175971Y-63488229D01*
X135122119Y-63492823D01*
X134024894Y-63725656D01*
X134024894Y-62191072D01*
X134990886Y-61992372D01*
X135058646Y-61986529D01*
X135125876Y-61981495D01*
X135192692Y-61977260D01*
X135259206Y-61973817D01*
X135325534Y-61971155D01*
X135391791Y-61969265D01*
X135458092Y-61968138D01*
X135524550Y-61967764D01*
X135822388Y-61974432D01*
X136118625Y-61994335D01*
X136412845Y-62027317D01*
X136704632Y-62073225D01*
X136993570Y-62131904D01*
X137279242Y-62203201D01*
X137561233Y-62286960D01*
X137839125Y-62383028D01*
X138112502Y-62491249D01*
X138380949Y-62611471D01*
X138644049Y-62743539D01*
X138901386Y-62887299D01*
X139152543Y-63042595D01*
X139397105Y-63209275D01*
X139634654Y-63387183D01*
X139864776Y-63576166D01*
X139974037Y-63672292D01*
X140080949Y-63770737D01*
X140185496Y-63871455D01*
X140287660Y-63974401D01*
X140387425Y-64079533D01*
X140484772Y-64186804D01*
X140579686Y-64296170D01*
X140672149Y-64407587D01*
X140762143Y-64521009D01*
X140849653Y-64636394D01*
X140934661Y-64753695D01*
X141017149Y-64872869D01*
X141097101Y-64993870D01*
X141174500Y-65116655D01*
X141249329Y-65241178D01*
X141321570Y-65367395D01*
X141378033Y-65276115D01*
X141436333Y-65185230D01*
X141496516Y-65094742D01*
X141558631Y-65004652D01*
X141970378Y-64401371D01*
X142460230Y-63825298D01*
X143024232Y-63278050D01*
X143658429Y-62761243D01*
X144358864Y-62276492D01*
X145121584Y-61825415D01*
X145942633Y-61409627D01*
X146818055Y-61030744D01*
X147743896Y-60690383D01*
X148716200Y-60390160D01*
X149731013Y-60131691D01*
X150784379Y-59916592D01*
X151872342Y-59746480D01*
X152990948Y-59622970D01*
X154136241Y-59547679D01*
X155304267Y-59522222D01*
X155304270Y-59522222D01*
X155304271Y-59522223D01*
G37*
G36*
X134025424Y-63726458D02*
G01*
X133775924Y-63779375D01*
X133625018Y-63836636D01*
X133476709Y-63898082D01*
X133331001Y-63963710D01*
X133187898Y-64033511D01*
X133047404Y-64107482D01*
X132909523Y-64185615D01*
X132774260Y-64267906D01*
X132641619Y-64354348D01*
X132511604Y-64444935D01*
X132384220Y-64539662D01*
X132259470Y-64638523D01*
X132137360Y-64741512D01*
X132017892Y-64848623D01*
X131901072Y-64959851D01*
X131786904Y-65075189D01*
X131675391Y-65194632D01*
X131458537Y-65145868D01*
X131239546Y-65106532D01*
X131018824Y-65076621D01*
X130796779Y-65056130D01*
X130573816Y-65045056D01*
X130350341Y-65043394D01*
X130126761Y-65051141D01*
X129903481Y-65068293D01*
X129680909Y-65094845D01*
X129459449Y-65130795D01*
X129239508Y-65176138D01*
X129021493Y-65230870D01*
X128805810Y-65294988D01*
X128592864Y-65368487D01*
X128383062Y-65451364D01*
X128176810Y-65543615D01*
X127058944Y-66265928D01*
X126932433Y-66377482D01*
X126810093Y-66492243D01*
X126691954Y-66610161D01*
X126578044Y-66731189D01*
X126468393Y-66855277D01*
X126363030Y-66982377D01*
X126261983Y-67112439D01*
X126165282Y-67245415D01*
X126072956Y-67381256D01*
X125985034Y-67519913D01*
X125901545Y-67661337D01*
X125822518Y-67805480D01*
X125747982Y-67952292D01*
X125677967Y-68101725D01*
X125612500Y-68253730D01*
X125551612Y-68408258D01*
X125321390Y-68870125D01*
X125103912Y-69342024D01*
X124899345Y-69823522D01*
X124707856Y-70314186D01*
X124529613Y-70813581D01*
X124364784Y-71321273D01*
X124213535Y-71836828D01*
X124076034Y-72359812D01*
X123898239Y-73101870D01*
X123740173Y-73815505D01*
X123601349Y-74503621D01*
X123481282Y-75169125D01*
X123379483Y-75814921D01*
X123295466Y-76443915D01*
X123228745Y-77059012D01*
X123178832Y-77663118D01*
X123149993Y-78130845D01*
X123127957Y-78609836D01*
X123112705Y-79102377D01*
X123104218Y-79610752D01*
X123102479Y-80137247D01*
X123107468Y-80684146D01*
X123119167Y-81253735D01*
X123137557Y-81848299D01*
X123176185Y-82833941D01*
X123219573Y-83797747D01*
X122720101Y-83742190D01*
X122214818Y-83717059D01*
X121707079Y-83722886D01*
X121200237Y-83760199D01*
X120697648Y-83829531D01*
X120448997Y-83876369D01*
X120202666Y-83931411D01*
X119959076Y-83994723D01*
X119718645Y-84066371D01*
X119481794Y-84146421D01*
X119248940Y-84234941D01*
X119020505Y-84331995D01*
X118796906Y-84437650D01*
X118578563Y-84551974D01*
X118365895Y-84675032D01*
X118159323Y-84806890D01*
X117959264Y-84947614D01*
X117766139Y-85097272D01*
X117580367Y-85255930D01*
X117402367Y-85423653D01*
X117232557Y-85600508D01*
X117071359Y-85786561D01*
X116919190Y-85981879D01*
X116776471Y-86186529D01*
X116643620Y-86400575D01*
X116521057Y-86624086D01*
X116409202Y-86857126D01*
X116286193Y-87162555D01*
X116188550Y-87469978D01*
X116114958Y-87779017D01*
X116064106Y-88089291D01*
X116034680Y-88400421D01*
X116025369Y-88712027D01*
X116034858Y-89023729D01*
X116061836Y-89335148D01*
X116104990Y-89645903D01*
X116163007Y-89955614D01*
X116234574Y-90263902D01*
X116318379Y-90570387D01*
X116413109Y-90874689D01*
X116517451Y-91176429D01*
X116630092Y-91475226D01*
X116749721Y-91770700D01*
X117675166Y-93778791D01*
X117788197Y-94048009D01*
X117894172Y-94319130D01*
X117991151Y-94591510D01*
X118077193Y-94864506D01*
X118150358Y-95137477D01*
X118208707Y-95409778D01*
X118250298Y-95680767D01*
X118273192Y-95949800D01*
X118241983Y-95981319D01*
X118211196Y-96014777D01*
X118181935Y-96049098D01*
X118154248Y-96084273D01*
X118128181Y-96120292D01*
X118103780Y-96157148D01*
X118081094Y-96194830D01*
X118060168Y-96233331D01*
X118041050Y-96272641D01*
X118023787Y-96312751D01*
X118008425Y-96353652D01*
X117995011Y-96395336D01*
X117983592Y-96437794D01*
X117974215Y-96481016D01*
X117966928Y-96524994D01*
X117961776Y-96569719D01*
X117961115Y-96576169D01*
X117960354Y-96582621D01*
X117958734Y-96595547D01*
X117957973Y-96602026D01*
X117957312Y-96608521D01*
X117956799Y-96615034D01*
X117956485Y-96621569D01*
X117956485Y-96622103D01*
X117956473Y-96622815D01*
X117956486Y-96623512D01*
X117956582Y-96624865D01*
X117956760Y-96626169D01*
X117957010Y-96627429D01*
X117957321Y-96628652D01*
X117957680Y-96629844D01*
X117958078Y-96631011D01*
X117958502Y-96632159D01*
X117959386Y-96634425D01*
X117960243Y-96636691D01*
X117960632Y-96637839D01*
X117960981Y-96639006D01*
X117961278Y-96640198D01*
X117961512Y-96641420D01*
X117962650Y-96648200D01*
X117964074Y-96654748D01*
X117965781Y-96661060D01*
X117967767Y-96667133D01*
X117970027Y-96672965D01*
X117972558Y-96678552D01*
X117975354Y-96683891D01*
X117978412Y-96688978D01*
X117981727Y-96693812D01*
X117985296Y-96698387D01*
X117989113Y-96702703D01*
X117993175Y-96706755D01*
X117997477Y-96710540D01*
X118002015Y-96714055D01*
X118006785Y-96717297D01*
X118011783Y-96720263D01*
X117950254Y-96756587D01*
X117890632Y-96794192D01*
X117832841Y-96833188D01*
X117776802Y-96873683D01*
X117722440Y-96915788D01*
X117669676Y-96959611D01*
X117618434Y-97005262D01*
X117568637Y-97052850D01*
X117520207Y-97102484D01*
X117473067Y-97154273D01*
X117427140Y-97208328D01*
X117382350Y-97264756D01*
X117338618Y-97323668D01*
X117295868Y-97385173D01*
X117254022Y-97449380D01*
X117213004Y-97516397D01*
X117182831Y-97570046D01*
X117155670Y-97624302D01*
X117131308Y-97679119D01*
X117109533Y-97734452D01*
X117072891Y-97846483D01*
X117044044Y-97960029D01*
X117021289Y-98074725D01*
X117002925Y-98190207D01*
X116972565Y-98422065D01*
X116957166Y-98537711D01*
X116939353Y-98652683D01*
X116917423Y-98766615D01*
X116889676Y-98879141D01*
X116854410Y-98989897D01*
X116833426Y-99044497D01*
X116809924Y-99098518D01*
X116783691Y-99151914D01*
X116754516Y-99204639D01*
X116722184Y-99256647D01*
X116686484Y-99307894D01*
X116686018Y-99308631D01*
X116685606Y-99309358D01*
X116685243Y-99310074D01*
X116684921Y-99310782D01*
X116684633Y-99311481D01*
X116684372Y-99312174D01*
X116683903Y-99313545D01*
X116683460Y-99314904D01*
X116682985Y-99316260D01*
X116682719Y-99316940D01*
X116682424Y-99317623D01*
X116682093Y-99318310D01*
X116681720Y-99319002D01*
X116679271Y-99323082D01*
X116676909Y-99327179D01*
X116674670Y-99331289D01*
X116672593Y-99335405D01*
X116671626Y-99337464D01*
X116670714Y-99339521D01*
X116669861Y-99341577D01*
X116669071Y-99343631D01*
X116668349Y-99345682D01*
X116667700Y-99347729D01*
X116667129Y-99349771D01*
X116666640Y-99351809D01*
X116644649Y-99389845D01*
X116623811Y-99428141D01*
X116604113Y-99466683D01*
X116585542Y-99505457D01*
X116568086Y-99544449D01*
X116551732Y-99583646D01*
X116536466Y-99623034D01*
X116522278Y-99662601D01*
X116509152Y-99702331D01*
X116497077Y-99742212D01*
X116486041Y-99782230D01*
X116476029Y-99822372D01*
X116467029Y-99862624D01*
X116459029Y-99902972D01*
X116452016Y-99943403D01*
X116445977Y-99983904D01*
X116436938Y-100064884D01*
X116432051Y-100146028D01*
X116431328Y-100227234D01*
X116434778Y-100308400D01*
X116442413Y-100389423D01*
X116454242Y-100470201D01*
X116470277Y-100550631D01*
X116490527Y-100630612D01*
X116515003Y-100710041D01*
X116543716Y-100788816D01*
X116576676Y-100866835D01*
X116613894Y-100943994D01*
X116655379Y-101020193D01*
X116701143Y-101095328D01*
X116751195Y-101169297D01*
X116805547Y-101241999D01*
X116843352Y-101288305D01*
X116881558Y-101331069D01*
X116920312Y-101370269D01*
X116959762Y-101405886D01*
X117000053Y-101437899D01*
X117041332Y-101466286D01*
X117083748Y-101491028D01*
X117127445Y-101512104D01*
X117172573Y-101529493D01*
X117219276Y-101543176D01*
X117267702Y-101553130D01*
X117317999Y-101559336D01*
X117370313Y-101561773D01*
X117424790Y-101560421D01*
X117481578Y-101555259D01*
X117540824Y-101546267D01*
X117560521Y-101541987D01*
X117579538Y-101536811D01*
X117597890Y-101530769D01*
X117615589Y-101523894D01*
X117632652Y-101516220D01*
X117649092Y-101507778D01*
X117664923Y-101498601D01*
X117680160Y-101488722D01*
X117694817Y-101478173D01*
X117708909Y-101466986D01*
X117722449Y-101455195D01*
X117735453Y-101442832D01*
X117747934Y-101429929D01*
X117759907Y-101416519D01*
X117771386Y-101402634D01*
X117782386Y-101388308D01*
X117782838Y-101387721D01*
X117783301Y-101387151D01*
X117783772Y-101386596D01*
X117784250Y-101386051D01*
X117785219Y-101384988D01*
X117786190Y-101383944D01*
X117787149Y-101382899D01*
X117787619Y-101382371D01*
X117788080Y-101381836D01*
X117788530Y-101381292D01*
X117788967Y-101380736D01*
X117789389Y-101380166D01*
X117789794Y-101379580D01*
X117803864Y-101451090D01*
X117820372Y-101521700D01*
X117839461Y-101591182D01*
X117861274Y-101659305D01*
X117885956Y-101725838D01*
X117913649Y-101790553D01*
X117944496Y-101853219D01*
X117978642Y-101913607D01*
X117996997Y-101942874D01*
X118016230Y-101971486D01*
X118036359Y-101999413D01*
X118057403Y-102026627D01*
X118079378Y-102053098D01*
X118102304Y-102078799D01*
X118126197Y-102103701D01*
X118151077Y-102127774D01*
X118176960Y-102150991D01*
X118203865Y-102173321D01*
X118231810Y-102194737D01*
X118260812Y-102215210D01*
X118290890Y-102234711D01*
X118322061Y-102253212D01*
X118354343Y-102270683D01*
X118387755Y-102287096D01*
X118443648Y-102311329D01*
X118501359Y-102332736D01*
X118560694Y-102351324D01*
X118621456Y-102367102D01*
X118683449Y-102380076D01*
X118746477Y-102390255D01*
X118810343Y-102397646D01*
X118874852Y-102402258D01*
X118939808Y-102404098D01*
X119005014Y-102403173D01*
X119070274Y-102399492D01*
X119135392Y-102393063D01*
X119200173Y-102383892D01*
X119264419Y-102371989D01*
X119327935Y-102357360D01*
X119390525Y-102340013D01*
X119422354Y-102330218D01*
X119453914Y-102319854D01*
X119485157Y-102308870D01*
X119516037Y-102297216D01*
X119546508Y-102284843D01*
X119576524Y-102271701D01*
X119606037Y-102257739D01*
X119635001Y-102242907D01*
X119637592Y-102242253D01*
X119640201Y-102241498D01*
X119642823Y-102240662D01*
X119645451Y-102239767D01*
X119655902Y-102236032D01*
X119656841Y-102235801D01*
X119657776Y-102235599D01*
X119659638Y-102235253D01*
X119661500Y-102234932D01*
X119663375Y-102234575D01*
X119664321Y-102234363D01*
X119665275Y-102234119D01*
X119666238Y-102233835D01*
X119667212Y-102233503D01*
X119668199Y-102233115D01*
X119669199Y-102232663D01*
X119670215Y-102232140D01*
X119671248Y-102231539D01*
X119731837Y-102189196D01*
X119733402Y-102187741D01*
X119735015Y-102186350D01*
X119736669Y-102185016D01*
X119738357Y-102183736D01*
X119740071Y-102182504D01*
X119741804Y-102181314D01*
X119745298Y-102179044D01*
X119752190Y-102174796D01*
X119755469Y-102172739D01*
X119758559Y-102170671D01*
X119765412Y-102164856D01*
X119772256Y-102159256D01*
X119785779Y-102148384D01*
X119792390Y-102142951D01*
X119798856Y-102137412D01*
X119802023Y-102134578D01*
X119805141Y-102131687D01*
X119808206Y-102128730D01*
X119811213Y-102125696D01*
X119854538Y-102090972D01*
X119865138Y-102082213D01*
X119875582Y-102073237D01*
X119885840Y-102063952D01*
X119890889Y-102059163D01*
X119895881Y-102054262D01*
X119897335Y-102052744D01*
X119898727Y-102051167D01*
X119900060Y-102049536D01*
X119901340Y-102047855D01*
X119902573Y-102046127D01*
X119903762Y-102044356D01*
X119904913Y-102042546D01*
X119906032Y-102040702D01*
X119908191Y-102036924D01*
X119910278Y-102033052D01*
X119914401Y-102025156D01*
X120017585Y-101914034D01*
X120090758Y-101954421D01*
X120165028Y-101991085D01*
X120240407Y-102023780D01*
X120316908Y-102052263D01*
X120394542Y-102076290D01*
X120473321Y-102095614D01*
X120553257Y-102109993D01*
X120634363Y-102119181D01*
X120716650Y-102122933D01*
X120800130Y-102121006D01*
X120884815Y-102113155D01*
X120970718Y-102099134D01*
X121057850Y-102078700D01*
X121146224Y-102051609D01*
X121235851Y-102017614D01*
X121326743Y-101976473D01*
X121328728Y-101975614D01*
X121330714Y-101974807D01*
X121334683Y-101973266D01*
X121336667Y-101972487D01*
X121338652Y-101971674D01*
X121340636Y-101970805D01*
X121342620Y-101969858D01*
X121342708Y-101969858D01*
X121342744Y-101969856D01*
X121342774Y-101969854D01*
X121342788Y-101969852D01*
X121342800Y-101969850D01*
X121342811Y-101969847D01*
X121342822Y-101969844D01*
X121342831Y-101969840D01*
X121342839Y-101969836D01*
X121342847Y-101969831D01*
X121342853Y-101969825D01*
X121342859Y-101969818D01*
X121342865Y-101969811D01*
X121342869Y-101969802D01*
X121342873Y-101969793D01*
X121342876Y-101969783D01*
X121342879Y-101969771D01*
X121342881Y-101969759D01*
X121342883Y-101969746D01*
X121342885Y-101969715D01*
X121342886Y-101969679D01*
X121342887Y-101969591D01*
X121343146Y-101969591D01*
X121407675Y-101935961D01*
X121469127Y-101900869D01*
X121527542Y-101864341D01*
X121582961Y-101826402D01*
X121635423Y-101787077D01*
X121684969Y-101746392D01*
X121731637Y-101704372D01*
X121775467Y-101661041D01*
X121816501Y-101616425D01*
X121854776Y-101570550D01*
X121890334Y-101523441D01*
X121923214Y-101475122D01*
X121953456Y-101425620D01*
X121981099Y-101374959D01*
X122006184Y-101323165D01*
X122028749Y-101270263D01*
X122048836Y-101216277D01*
X122066484Y-101161235D01*
X122094622Y-101048077D01*
X122113481Y-100930992D01*
X122123380Y-100810181D01*
X122124638Y-100685846D01*
X122117573Y-100558189D01*
X122102504Y-100427413D01*
X122079749Y-100293718D01*
X122076918Y-100279079D01*
X122074310Y-100264505D01*
X122069365Y-100235414D01*
X122066830Y-100220830D01*
X122064122Y-100206175D01*
X122061141Y-100191415D01*
X122057788Y-100176516D01*
X122057525Y-100175982D01*
X122057525Y-100175714D01*
X122057513Y-100175273D01*
X122057480Y-100174840D01*
X122057426Y-100174415D01*
X122057353Y-100173996D01*
X122057153Y-100173174D01*
X122056892Y-100172366D01*
X122056580Y-100171566D01*
X122056228Y-100170766D01*
X122055442Y-100169138D01*
X122054619Y-100167422D01*
X122054220Y-100166513D01*
X122053843Y-100165561D01*
X122053498Y-100164557D01*
X122053196Y-100163495D01*
X122052948Y-100162366D01*
X122052847Y-100161775D01*
X122052764Y-100161165D01*
X122071181Y-100164769D01*
X122089524Y-100167947D01*
X122107794Y-100170706D01*
X122125990Y-100173054D01*
X122144114Y-100174999D01*
X122162165Y-100176549D01*
X122180144Y-100177712D01*
X122198051Y-100178494D01*
X122233652Y-100178952D01*
X122268971Y-100177983D01*
X122304011Y-100175650D01*
X122338775Y-100172014D01*
X122390853Y-100164179D01*
X122442133Y-100153294D01*
X122492574Y-100139466D01*
X122542131Y-100122801D01*
X122590760Y-100103404D01*
X122638418Y-100081381D01*
X122685062Y-100056837D01*
X122730647Y-100029880D01*
X122775132Y-100000613D01*
X122818471Y-99969143D01*
X122901540Y-99900018D01*
X122979508Y-99823350D01*
X123052026Y-99739985D01*
X123118745Y-99650769D01*
X123179319Y-99556548D01*
X123233398Y-99458169D01*
X123280636Y-99356477D01*
X123320683Y-99252318D01*
X123353191Y-99146539D01*
X123377814Y-99039986D01*
X123394202Y-98933504D01*
X123396177Y-98916832D01*
X123398301Y-98900164D01*
X123399311Y-98891829D01*
X123400228Y-98883495D01*
X123401009Y-98875160D01*
X123401610Y-98866823D01*
X123401610Y-98861528D01*
X123404333Y-98796019D01*
X123404353Y-98730358D01*
X123401723Y-98664613D01*
X123396500Y-98598851D01*
X123388737Y-98533140D01*
X123378488Y-98467549D01*
X123365810Y-98402145D01*
X123350756Y-98336995D01*
X123333380Y-98272169D01*
X123313738Y-98207733D01*
X123267873Y-98080306D01*
X123213596Y-97955256D01*
X123151346Y-97833126D01*
X123081557Y-97714460D01*
X123004668Y-97599800D01*
X122921116Y-97489690D01*
X122831336Y-97384672D01*
X122735765Y-97285289D01*
X122634842Y-97192085D01*
X122529001Y-97105603D01*
X122418681Y-97026384D01*
X122380950Y-97001619D01*
X122342777Y-96977742D01*
X122304179Y-96954772D01*
X122265174Y-96932731D01*
X122225778Y-96911636D01*
X122186008Y-96891509D01*
X122145881Y-96872368D01*
X122105415Y-96854235D01*
X122064627Y-96837127D01*
X122023533Y-96821066D01*
X121982151Y-96806071D01*
X121940497Y-96792161D01*
X121898589Y-96779357D01*
X121856444Y-96767678D01*
X121814078Y-96757144D01*
X121771510Y-96747774D01*
X121770552Y-96747303D01*
X121769566Y-96746878D01*
X121768553Y-96746496D01*
X121767516Y-96746152D01*
X121766457Y-96745844D01*
X121765379Y-96745568D01*
X121764284Y-96745320D01*
X121763175Y-96745098D01*
X121760920Y-96744715D01*
X121758635Y-96744390D01*
X121754046Y-96743807D01*
X121742934Y-96740633D01*
X121721894Y-96737384D01*
X121700664Y-96734538D01*
X121679279Y-96732027D01*
X121657772Y-96729783D01*
X121614533Y-96725822D01*
X121571219Y-96722109D01*
X121562213Y-96721260D01*
X121553244Y-96720165D01*
X121535369Y-96717649D01*
X121526438Y-96716433D01*
X121517494Y-96715380D01*
X121508525Y-96714593D01*
X121504027Y-96714331D01*
X121499518Y-96714174D01*
X121499273Y-96714180D01*
X121499033Y-96714198D01*
X121498798Y-96714225D01*
X121498567Y-96714262D01*
X121498339Y-96714306D01*
X121498114Y-96714357D01*
X121497666Y-96714474D01*
X121496765Y-96714734D01*
X121496299Y-96714859D01*
X121496059Y-96714916D01*
X121495814Y-96714968D01*
X121494685Y-96715080D01*
X121493578Y-96715212D01*
X121491412Y-96715524D01*
X121487183Y-96716228D01*
X121485063Y-96716558D01*
X121482903Y-96716832D01*
X121481799Y-96716939D01*
X121480675Y-96717019D01*
X121479527Y-96717071D01*
X121478351Y-96717089D01*
X121477052Y-96716159D01*
X121475734Y-96715163D01*
X121473043Y-96713005D01*
X121467437Y-96708254D01*
X121464522Y-96705790D01*
X121461533Y-96703354D01*
X121460011Y-96702166D01*
X121458470Y-96701010D01*
X121456911Y-96699893D01*
X121455333Y-96698824D01*
X121455211Y-96698749D01*
X121455094Y-96698672D01*
X121454871Y-96698516D01*
X121454663Y-96698355D01*
X121454469Y-96698192D01*
X121454285Y-96698028D01*
X121454110Y-96697863D01*
X121453779Y-96697536D01*
X121453460Y-96697222D01*
X121453300Y-96697072D01*
X121453138Y-96696929D01*
X121452971Y-96696794D01*
X121452797Y-96696667D01*
X121452707Y-96696607D01*
X121452615Y-96696550D01*
X121452520Y-96696495D01*
X121452422Y-96696444D01*
X121452334Y-96696443D01*
X121452298Y-96696442D01*
X121452268Y-96696439D01*
X121452254Y-96696438D01*
X121452242Y-96696436D01*
X121452231Y-96696433D01*
X121452220Y-96696430D01*
X121452211Y-96696426D01*
X121452203Y-96696422D01*
X121452195Y-96696417D01*
X121452188Y-96696411D01*
X121452183Y-96696405D01*
X121452177Y-96696397D01*
X121452173Y-96696389D01*
X121452169Y-96696380D01*
X121452166Y-96696370D01*
X121452163Y-96696359D01*
X121452161Y-96696347D01*
X121452159Y-96696334D01*
X121452157Y-96696304D01*
X121452156Y-96696270D01*
X121452155Y-96696184D01*
X121452130Y-96696183D01*
X121452106Y-96696181D01*
X121452081Y-96696177D01*
X121452057Y-96696172D01*
X121452033Y-96696166D01*
X121452009Y-96696159D01*
X121451985Y-96696150D01*
X121451962Y-96696141D01*
X121451939Y-96696131D01*
X121451916Y-96696120D01*
X121451894Y-96696109D01*
X121451873Y-96696097D01*
X121451852Y-96696085D01*
X121451832Y-96696072D01*
X121451793Y-96696047D01*
X121451758Y-96696021D01*
X121451726Y-96695996D01*
X121451698Y-96695973D01*
X121451674Y-96695952D01*
X121451640Y-96695921D01*
X121451629Y-96695910D01*
X121443237Y-96691498D01*
X121434749Y-96687336D01*
X121426192Y-96683353D01*
X121417596Y-96679479D01*
X121400394Y-96671769D01*
X121391845Y-96667791D01*
X121383368Y-96663637D01*
X121326369Y-96635518D01*
X121268889Y-96608494D01*
X121210945Y-96582541D01*
X121152551Y-96557640D01*
X121093722Y-96533768D01*
X121034475Y-96510904D01*
X120974825Y-96489025D01*
X120914786Y-96468111D01*
X120922000Y-96418987D01*
X120927049Y-96371127D01*
X120929979Y-96324524D01*
X120930832Y-96279173D01*
X120929652Y-96235066D01*
X120926485Y-96192195D01*
X120921372Y-96150555D01*
X120914358Y-96110139D01*
X120905487Y-96070939D01*
X120894802Y-96032949D01*
X120882348Y-95996162D01*
X120868168Y-95960571D01*
X120852306Y-95926169D01*
X120834805Y-95892950D01*
X120815711Y-95860906D01*
X120795065Y-95830031D01*
X120772912Y-95800319D01*
X120749297Y-95771761D01*
X120724262Y-95744351D01*
X120697852Y-95718083D01*
X120670109Y-95692950D01*
X120641080Y-95668944D01*
X120610805Y-95646060D01*
X120579331Y-95624289D01*
X120546700Y-95603626D01*
X120512956Y-95584063D01*
X120478144Y-95565594D01*
X120442306Y-95548211D01*
X120367731Y-95516679D01*
X120289580Y-95489412D01*
X120217670Y-95104444D01*
X120123125Y-94719210D01*
X120008985Y-94333901D01*
X119878290Y-93948711D01*
X119734077Y-93563830D01*
X119579387Y-93179451D01*
X119250727Y-92412971D01*
X118916623Y-91650806D01*
X118601386Y-90894495D01*
X118458439Y-90519016D01*
X118329327Y-90145577D01*
X118217087Y-89774370D01*
X118124759Y-89405588D01*
X118073654Y-89126800D01*
X118045861Y-88860681D01*
X118040429Y-88607065D01*
X118056408Y-88365784D01*
X118092846Y-88136670D01*
X118148791Y-87919554D01*
X118223292Y-87714271D01*
X118315399Y-87520650D01*
X118424160Y-87338526D01*
X118548623Y-87167729D01*
X118687838Y-87008093D01*
X118840854Y-86859450D01*
X119006719Y-86721631D01*
X119184482Y-86594469D01*
X119373191Y-86477796D01*
X119571897Y-86371445D01*
X119779646Y-86275247D01*
X119995489Y-86189035D01*
X120447650Y-86045898D01*
X120920769Y-85940691D01*
X121407236Y-85872072D01*
X121899443Y-85838699D01*
X122389780Y-85839229D01*
X122870636Y-85872321D01*
X123334403Y-85936632D01*
X123388048Y-86779101D01*
X123446059Y-87613039D01*
X123547527Y-88900249D01*
X123660408Y-90151824D01*
X123784953Y-91369833D01*
X123921415Y-92556344D01*
X124070043Y-93713424D01*
X124231089Y-94843143D01*
X124404803Y-95947567D01*
X124591437Y-97028765D01*
X124816116Y-98208595D01*
X125061705Y-99374459D01*
X125327284Y-100522315D01*
X125611938Y-101648119D01*
X125762350Y-102204402D01*
X125921864Y-102767010D01*
X126089862Y-103333935D01*
X126265723Y-103903170D01*
X126406218Y-104351107D01*
X126635172Y-105078553D01*
X126876379Y-105810613D01*
X127004199Y-106175907D01*
X127138226Y-106539398D01*
X127279509Y-106900097D01*
X127429095Y-107257021D01*
X127641569Y-107723901D01*
X127875902Y-108196236D01*
X128132597Y-108674891D01*
X128412155Y-109160729D01*
X128715079Y-109654617D01*
X129041872Y-110157419D01*
X129393035Y-110670000D01*
X129769072Y-111193224D01*
X129769723Y-111194159D01*
X129770385Y-111195077D01*
X129771738Y-111196874D01*
X129773122Y-111198632D01*
X129774528Y-111200372D01*
X129777368Y-111203868D01*
X129778782Y-111205663D01*
X129779003Y-111205955D01*
X129778846Y-111205753D01*
X129777437Y-111204025D01*
X129775978Y-111202314D01*
X129774495Y-111200606D01*
X129773011Y-111198886D01*
X129771551Y-111197138D01*
X129770838Y-111196249D01*
X129770141Y-111195347D01*
X129769463Y-111194431D01*
X129768805Y-111193499D01*
X129686417Y-111080713D01*
X129605393Y-110968500D01*
X129446544Y-110745287D01*
X129320087Y-110872435D01*
X129196793Y-111001609D01*
X129076798Y-111132723D01*
X128960238Y-111265694D01*
X128847251Y-111400438D01*
X128737972Y-111536871D01*
X128632538Y-111674910D01*
X128531085Y-111814470D01*
X128292359Y-112168557D01*
X128073035Y-112528908D01*
X127872614Y-112895169D01*
X127690598Y-113266989D01*
X127526488Y-113644013D01*
X127379788Y-114025890D01*
X127136620Y-114802789D01*
X126957108Y-115594863D01*
X126837268Y-116399287D01*
X126773113Y-117213240D01*
X126760659Y-118033898D01*
X126795920Y-118858438D01*
X126874910Y-119684037D01*
X126993644Y-120507872D01*
X127148137Y-121327119D01*
X127334403Y-122138955D01*
X127548457Y-122940559D01*
X127786313Y-123729105D01*
X128043986Y-124501772D01*
X128005067Y-124523515D01*
X127966703Y-124546295D01*
X127928907Y-124570130D01*
X127891695Y-124595039D01*
X127855081Y-124621041D01*
X127819080Y-124648155D01*
X127783707Y-124676401D01*
X127748976Y-124705796D01*
X127714903Y-124736361D01*
X127681502Y-124768113D01*
X127648787Y-124801072D01*
X127616774Y-124835257D01*
X127585477Y-124870687D01*
X127554912Y-124907381D01*
X127525091Y-124945358D01*
X127496032Y-124984636D01*
X127459954Y-125037967D01*
X127427916Y-125091491D01*
X127399767Y-125145197D01*
X127375355Y-125199072D01*
X127354529Y-125253105D01*
X127337138Y-125307285D01*
X127323029Y-125361599D01*
X127312051Y-125416037D01*
X127304052Y-125470586D01*
X127298882Y-125525235D01*
X127296388Y-125579972D01*
X127296420Y-125634787D01*
X127298824Y-125689666D01*
X127303451Y-125744599D01*
X127310147Y-125799573D01*
X127318763Y-125854578D01*
X127314649Y-125851165D01*
X127310457Y-125847850D01*
X127306210Y-125844610D01*
X127301929Y-125841418D01*
X127293352Y-125835085D01*
X127289098Y-125831894D01*
X127284896Y-125828653D01*
X127239799Y-125792706D01*
X127194180Y-125757182D01*
X127148015Y-125722203D01*
X127101279Y-125687891D01*
X127078322Y-125671799D01*
X127055140Y-125655977D01*
X127008407Y-125624659D01*
X126971589Y-125599619D01*
X126934523Y-125574949D01*
X126897159Y-125550726D01*
X126859446Y-125527025D01*
X126834194Y-125511484D01*
X126808844Y-125496168D01*
X126757846Y-125465906D01*
X126719047Y-125443594D01*
X126680025Y-125421556D01*
X126640754Y-125399865D01*
X126601211Y-125378595D01*
X126551439Y-125352236D01*
X126526538Y-125339193D01*
X126501464Y-125326471D01*
X126454485Y-125303391D01*
X126407206Y-125280929D01*
X126359631Y-125259012D01*
X126311759Y-125237566D01*
X126274914Y-125220569D01*
X126256394Y-125212118D01*
X126247067Y-125207992D01*
X126237678Y-125203966D01*
X126171795Y-125176621D01*
X126105516Y-125150489D01*
X126038841Y-125125496D01*
X125971770Y-125101572D01*
X125960933Y-125097871D01*
X125950057Y-125094288D01*
X125928245Y-125087352D01*
X125906432Y-125080515D01*
X125884719Y-125073526D01*
X125837285Y-125058335D01*
X125789801Y-125043465D01*
X125742217Y-125029141D01*
X125694488Y-125015589D01*
X125666944Y-125008229D01*
X125639451Y-125001168D01*
X125584418Y-124987543D01*
X125540799Y-124977029D01*
X125497204Y-124966936D01*
X125453560Y-124957290D01*
X125409793Y-124948114D01*
X125353435Y-124936771D01*
X125325257Y-124931412D01*
X125297080Y-124926424D01*
X125250845Y-124918668D01*
X125204609Y-124911608D01*
X125158373Y-124905142D01*
X125112136Y-124899172D01*
X125062164Y-124892523D01*
X125037239Y-124889310D01*
X125012389Y-124886469D01*
X124943821Y-124880127D01*
X124875401Y-124875026D01*
X124807081Y-124871214D01*
X124738811Y-124868738D01*
X124728701Y-124868547D01*
X124718606Y-124868532D01*
X124698428Y-124868844D01*
X124678200Y-124869304D01*
X124657847Y-124869539D01*
X124608131Y-124869567D01*
X124558563Y-124870166D01*
X124509094Y-124871510D01*
X124459674Y-124873774D01*
X124431496Y-124875628D01*
X124403317Y-124877907D01*
X124346961Y-124883036D01*
X124305778Y-124886858D01*
X124264744Y-124891201D01*
X124223808Y-124896090D01*
X124182921Y-124901552D01*
X124153600Y-124905714D01*
X124124379Y-124910222D01*
X124095258Y-124915026D01*
X124066237Y-124920076D01*
X124046143Y-124923758D01*
X124026132Y-124927643D01*
X123986300Y-124935953D01*
X123946617Y-124944858D01*
X123906959Y-124954210D01*
X123851463Y-124967339D01*
X123823839Y-124974114D01*
X123810079Y-124977697D01*
X123796363Y-124981462D01*
X123772699Y-124988266D01*
X123749124Y-124995364D01*
X123725629Y-125002729D01*
X123702206Y-125010334D01*
X123655535Y-125026148D01*
X123609038Y-125042582D01*
X123600868Y-125045455D01*
X123592641Y-125048165D01*
X123576097Y-125053327D01*
X123559553Y-125058539D01*
X123551328Y-125061311D01*
X123543158Y-125064272D01*
X123406917Y-125121942D01*
X123275460Y-125186841D01*
X123148857Y-125258649D01*
X123027182Y-125337046D01*
X122910506Y-125421715D01*
X122798901Y-125512337D01*
X122692438Y-125608592D01*
X122591191Y-125710161D01*
X122495231Y-125816727D01*
X122404629Y-125927969D01*
X122319459Y-126043570D01*
X122239791Y-126163210D01*
X122165697Y-126286570D01*
X122097251Y-126413331D01*
X121977585Y-126675783D01*
X121881369Y-126948014D01*
X121809178Y-127227474D01*
X121761588Y-127511611D01*
X121739174Y-127797874D01*
X121742513Y-128083713D01*
X121754019Y-128225676D01*
X121772179Y-128366576D01*
X121797064Y-128506095D01*
X121828748Y-128643913D01*
X121867301Y-128779711D01*
X121912795Y-128913172D01*
X121913057Y-128913753D01*
X121913347Y-128914308D01*
X121913660Y-128914840D01*
X121913992Y-128915353D01*
X121914340Y-128915853D01*
X121914700Y-128916342D01*
X121915439Y-128917309D01*
X121916178Y-128918288D01*
X121916538Y-128918792D01*
X121916886Y-128919313D01*
X121917219Y-128919854D01*
X121917533Y-128920419D01*
X121917823Y-128921013D01*
X121918086Y-128921640D01*
X121919549Y-128925218D01*
X121921063Y-128928711D01*
X121922626Y-128932121D01*
X121924241Y-128935451D01*
X121925906Y-128938701D01*
X121927624Y-128941875D01*
X121929393Y-128944974D01*
X121931214Y-128947999D01*
X121933089Y-128950953D01*
X121935016Y-128953838D01*
X121936997Y-128956655D01*
X121939032Y-128959407D01*
X121941121Y-128962095D01*
X121943265Y-128964722D01*
X121945464Y-128967288D01*
X121947719Y-128969797D01*
X121949470Y-128971948D01*
X121951251Y-128974041D01*
X121953061Y-128976077D01*
X121954899Y-128978061D01*
X121956763Y-128979996D01*
X121958652Y-128981884D01*
X121960565Y-128983729D01*
X121962502Y-128985534D01*
X121966438Y-128989035D01*
X121970452Y-128992412D01*
X121974534Y-128995691D01*
X121978675Y-128998896D01*
X122063330Y-129087943D01*
X122151406Y-129167583D01*
X122242755Y-129238439D01*
X122337234Y-129301138D01*
X122434695Y-129356303D01*
X122534993Y-129404561D01*
X122637983Y-129446536D01*
X122743518Y-129482854D01*
X122851454Y-129514139D01*
X122961643Y-129541018D01*
X123073941Y-129564114D01*
X123188201Y-129584054D01*
X123422028Y-129616963D01*
X123661956Y-129644747D01*
X123677018Y-129646174D01*
X123692213Y-129647335D01*
X123722843Y-129649178D01*
X123753522Y-129650923D01*
X123768779Y-129651961D01*
X123783927Y-129653215D01*
X124028651Y-129671006D01*
X124276533Y-129680336D01*
X124527096Y-129681965D01*
X124779864Y-129676655D01*
X125290109Y-129648256D01*
X125803458Y-129601222D01*
X126316100Y-129541638D01*
X126824224Y-129475586D01*
X127811679Y-129348413D01*
X128406231Y-129294062D01*
X129084531Y-129240573D01*
X129441104Y-129205886D01*
X129801836Y-129161496D01*
X130161134Y-129104099D01*
X130513405Y-129030386D01*
X130853057Y-128937053D01*
X131016403Y-128881996D01*
X131174497Y-128820793D01*
X131326639Y-128753033D01*
X131472132Y-128678301D01*
X131610275Y-128596185D01*
X131740369Y-128506271D01*
X131861717Y-128408145D01*
X131973617Y-128301396D01*
X132075372Y-128185608D01*
X132166282Y-128060370D01*
X132245648Y-127925268D01*
X132312771Y-127779888D01*
X132366953Y-127623818D01*
X132407493Y-127456644D01*
X132408498Y-127451667D01*
X132409337Y-127446755D01*
X132410015Y-127441908D01*
X132410540Y-127437121D01*
X132410917Y-127432394D01*
X132411153Y-127427723D01*
X132411255Y-127423106D01*
X132411230Y-127418542D01*
X132411084Y-127414027D01*
X132410823Y-127409559D01*
X132410455Y-127405137D01*
X132409985Y-127400756D01*
X132408768Y-127392115D01*
X132407226Y-127383615D01*
X132406816Y-127381038D01*
X132406379Y-127378467D01*
X132405910Y-127375907D01*
X132405407Y-127373366D01*
X132404867Y-127370850D01*
X132404286Y-127368364D01*
X132403662Y-127365916D01*
X132402991Y-127363512D01*
X132402328Y-127361441D01*
X132401630Y-127359394D01*
X132400132Y-127355365D01*
X132398510Y-127351416D01*
X132396777Y-127347538D01*
X132394943Y-127343722D01*
X132393023Y-127339960D01*
X132391027Y-127336242D01*
X132388968Y-127332560D01*
X132387108Y-127329014D01*
X132385196Y-127325524D01*
X132383232Y-127322088D01*
X132381214Y-127318705D01*
X132379139Y-127315376D01*
X132377007Y-127312098D01*
X132374817Y-127308872D01*
X132372566Y-127305696D01*
X132370253Y-127302570D01*
X132367876Y-127299493D01*
X132365434Y-127296465D01*
X132362926Y-127293483D01*
X132360349Y-127290548D01*
X132357703Y-127287659D01*
X132354985Y-127284815D01*
X132352195Y-127282015D01*
X132350001Y-127257019D01*
X132347101Y-127232040D01*
X132343506Y-127207081D01*
X132339229Y-127182148D01*
X132334283Y-127157244D01*
X132328679Y-127132373D01*
X132322430Y-127107541D01*
X132315549Y-127082750D01*
X132308048Y-127058006D01*
X132299939Y-127033313D01*
X132291235Y-127008675D01*
X132281948Y-126984097D01*
X132272091Y-126959581D01*
X132261675Y-126935134D01*
X132239219Y-126886461D01*
X132233657Y-126875345D01*
X132209732Y-126829100D01*
X132184040Y-126783246D01*
X132156648Y-126737802D01*
X132127625Y-126692785D01*
X132097040Y-126648215D01*
X132064960Y-126604110D01*
X132031453Y-126560487D01*
X131996589Y-126517366D01*
X131974894Y-126491434D01*
X131957243Y-126471047D01*
X131939402Y-126450771D01*
X131921357Y-126430620D01*
X131903092Y-126410604D01*
X131884591Y-126390738D01*
X131865840Y-126371033D01*
X131846821Y-126351501D01*
X131827521Y-126332155D01*
X131826343Y-126331162D01*
X131825187Y-126330166D01*
X131824049Y-126329163D01*
X131822926Y-126328152D01*
X131821816Y-126327128D01*
X131820715Y-126326089D01*
X131819619Y-126325032D01*
X131818526Y-126323954D01*
X131799589Y-126305598D01*
X131780485Y-126287434D01*
X131761219Y-126269457D01*
X131741799Y-126251658D01*
X131722229Y-126234034D01*
X131702517Y-126216576D01*
X131662688Y-126182138D01*
X131650748Y-126171686D01*
X131644716Y-126166436D01*
X131638610Y-126161234D01*
X131617229Y-126143487D01*
X131595752Y-126125967D01*
X131574181Y-126108677D01*
X131552521Y-126091618D01*
X131530774Y-126074796D01*
X131508944Y-126058212D01*
X131487033Y-126041871D01*
X131465045Y-126025774D01*
X131463965Y-126025078D01*
X131462903Y-126024379D01*
X131460811Y-126022961D01*
X131458720Y-126021493D01*
X131456580Y-126019953D01*
X131433824Y-126003519D01*
X131411012Y-125987361D01*
X131365295Y-125955888D01*
X131319580Y-125925557D01*
X131274016Y-125896395D01*
X131323261Y-125808729D01*
X131369083Y-125724644D01*
X131390284Y-125683722D01*
X131410118Y-125643429D01*
X131428414Y-125603677D01*
X131445001Y-125564376D01*
X131459710Y-125525438D01*
X131472369Y-125486773D01*
X131482808Y-125448294D01*
X131490856Y-125409912D01*
X131496344Y-125371537D01*
X131499100Y-125333081D01*
X131498953Y-125294455D01*
X131495734Y-125255571D01*
X131494147Y-125241816D01*
X131491740Y-125227600D01*
X131488880Y-125213333D01*
X131485562Y-125199010D01*
X131481778Y-125184628D01*
X131477523Y-125170185D01*
X131472790Y-125155677D01*
X131467574Y-125141100D01*
X131461867Y-125126452D01*
X131457869Y-125117060D01*
X131455806Y-125112313D01*
X131454747Y-125109971D01*
X131453666Y-125107668D01*
X131446990Y-125092946D01*
X131439847Y-125078140D01*
X131432213Y-125063240D01*
X131424068Y-125048238D01*
X131415389Y-125033123D01*
X131406156Y-125017888D01*
X131396345Y-125002522D01*
X131385936Y-124987017D01*
X131384401Y-124984900D01*
X131382788Y-124982727D01*
X131379418Y-124978289D01*
X131372703Y-124969561D01*
X131360652Y-124953235D01*
X131348088Y-124936795D01*
X131334965Y-124920226D01*
X131321241Y-124903511D01*
X131306873Y-124886635D01*
X131291816Y-124869583D01*
X131276027Y-124852339D01*
X131259463Y-124834887D01*
X131259439Y-124834886D01*
X131259417Y-124834884D01*
X131259396Y-124834880D01*
X131259376Y-124834875D01*
X131259358Y-124834869D01*
X131259341Y-124834862D01*
X131259326Y-124834854D01*
X131259311Y-124834845D01*
X131259298Y-124834835D01*
X131259286Y-124834825D01*
X131259274Y-124834814D01*
X131259264Y-124834802D01*
X131259255Y-124834790D01*
X131259247Y-124834778D01*
X131259240Y-124834766D01*
X131259233Y-124834753D01*
X131259227Y-124834741D01*
X131259222Y-124834728D01*
X131259214Y-124834704D01*
X131259208Y-124834681D01*
X131259204Y-124834661D01*
X131259202Y-124834644D01*
X131259201Y-124834631D01*
X131259200Y-124834620D01*
X131259176Y-124834619D01*
X131259153Y-124834616D01*
X131259132Y-124834613D01*
X131259112Y-124834608D01*
X131259093Y-124834602D01*
X131259076Y-124834595D01*
X131259060Y-124834587D01*
X131259046Y-124834578D01*
X131259032Y-124834568D01*
X131259020Y-124834558D01*
X131259008Y-124834547D01*
X131258998Y-124834535D01*
X131258989Y-124834523D01*
X131258981Y-124834511D01*
X131258973Y-124834498D01*
X131258966Y-124834486D01*
X131258961Y-124834473D01*
X131258955Y-124834461D01*
X131258947Y-124834437D01*
X131258941Y-124834414D01*
X131258937Y-124834394D01*
X131258935Y-124834377D01*
X131258934Y-124834364D01*
X131258933Y-124834352D01*
X131244502Y-124819821D01*
X131229697Y-124805588D01*
X131214531Y-124791642D01*
X131199021Y-124777971D01*
X131183183Y-124764563D01*
X131167031Y-124751408D01*
X131133851Y-124725805D01*
X131099604Y-124701071D01*
X131064415Y-124677113D01*
X131028407Y-124653837D01*
X130991706Y-124631151D01*
X130946305Y-124604550D01*
X130899743Y-124579107D01*
X130852087Y-124554801D01*
X130803403Y-124531612D01*
X130753758Y-124509518D01*
X130703219Y-124488501D01*
X130651852Y-124468539D01*
X130599723Y-124449611D01*
X130493450Y-124414776D01*
X130384932Y-124383833D01*
X130274702Y-124356617D01*
X130163295Y-124332964D01*
X129730717Y-123068411D01*
X129535383Y-122427086D01*
X129357817Y-121780886D01*
X129200868Y-121130679D01*
X129067385Y-120477332D01*
X128960218Y-119821714D01*
X128882215Y-119164691D01*
X128836226Y-118507132D01*
X128825100Y-117849904D01*
X128851685Y-117193876D01*
X128918830Y-116539914D01*
X129029386Y-115888887D01*
X129186200Y-115241662D01*
X129392122Y-114599108D01*
X129650001Y-113962091D01*
X129703555Y-113847028D01*
X129760676Y-113732195D01*
X129821277Y-113617699D01*
X129885270Y-113503647D01*
X129952571Y-113390145D01*
X130023091Y-113277300D01*
X130096746Y-113165219D01*
X130173448Y-113054008D01*
X130253110Y-112943773D01*
X130335648Y-112834622D01*
X130420973Y-112726661D01*
X130509001Y-112619997D01*
X130599643Y-112514735D01*
X130692814Y-112410984D01*
X130788428Y-112308849D01*
X130886397Y-112208437D01*
X130878730Y-112202875D01*
X131008967Y-112283110D01*
X131142473Y-112359931D01*
X131279048Y-112433230D01*
X131418494Y-112502900D01*
X131560613Y-112568832D01*
X131705206Y-112630918D01*
X131852075Y-112689050D01*
X132001022Y-112743120D01*
X132151847Y-112793020D01*
X132304354Y-112838641D01*
X132458342Y-112879875D01*
X132613614Y-112916615D01*
X132769972Y-112948752D01*
X132927216Y-112976179D01*
X133085149Y-112998786D01*
X133243571Y-113016466D01*
X133303740Y-113021926D01*
X133364153Y-113026608D01*
X133424757Y-113030527D01*
X133485502Y-113033699D01*
X133546333Y-113036140D01*
X133607198Y-113037864D01*
X133668044Y-113038887D01*
X133728820Y-113039225D01*
X133728824Y-113039225D01*
X133765907Y-113038952D01*
X133802943Y-113038183D01*
X133876889Y-113035456D01*
X133950686Y-113031635D01*
X134024360Y-113027315D01*
X134024360Y-129076433D01*
X131958232Y-130009623D01*
X131903948Y-130036680D01*
X131855144Y-130060189D01*
X131809664Y-130081168D01*
X131765349Y-130100634D01*
X131712364Y-130122245D01*
X131658361Y-130143163D01*
X131603613Y-130163587D01*
X131548392Y-130183718D01*
X131493361Y-130203821D01*
X131452849Y-130219017D01*
X131412164Y-130233916D01*
X131371132Y-130248319D01*
X131350432Y-130255272D01*
X131329581Y-130262026D01*
X131275135Y-130279072D01*
X131220242Y-130295372D01*
X131165051Y-130311074D01*
X131109710Y-130326326D01*
X131045421Y-130344049D01*
X130969583Y-130364912D01*
X130931305Y-130375036D01*
X130892753Y-130384790D01*
X130839176Y-130397473D01*
X130783614Y-130409860D01*
X130668914Y-130434534D01*
X130621291Y-130444849D01*
X130548134Y-130460430D01*
X130511307Y-130467884D01*
X130474181Y-130475016D01*
X130416367Y-130485478D01*
X130359717Y-130495222D01*
X130248229Y-130513643D01*
X130193198Y-130522638D01*
X130123018Y-130534021D01*
X130087828Y-130539461D01*
X130052440Y-130544603D01*
X129993200Y-130552890D01*
X129931159Y-130561104D01*
X129802146Y-130577410D01*
X129661651Y-130594072D01*
X129516692Y-130609720D01*
X129371139Y-130623972D01*
X129287795Y-130631906D01*
X129133645Y-130645595D01*
X128979520Y-130658266D01*
X128675811Y-130681650D01*
X128310885Y-130710191D01*
X128141295Y-130725442D01*
X127982074Y-130742502D01*
X127776663Y-130767206D01*
X127569292Y-130793472D01*
X127149165Y-130849398D01*
X126488795Y-130935593D01*
X126154869Y-130975649D01*
X125818676Y-131011718D01*
X125480387Y-131042329D01*
X125140172Y-131066014D01*
X124798203Y-131081302D01*
X124454650Y-131086725D01*
X124347483Y-131086142D01*
X124241349Y-131084397D01*
X124136337Y-131081491D01*
X124032538Y-131077429D01*
X123930041Y-131072214D01*
X123828936Y-131065849D01*
X123729313Y-131058338D01*
X123631263Y-131049685D01*
X123596054Y-131047516D01*
X123562705Y-131045221D01*
X123530695Y-131042578D01*
X123515029Y-131041055D01*
X123499503Y-131039362D01*
X123326081Y-131019370D01*
X123156900Y-130998088D01*
X123073272Y-130986498D01*
X122989952Y-130974027D01*
X122906686Y-130960488D01*
X122823226Y-130945696D01*
X122631667Y-130945696D01*
X122463393Y-130863680D01*
X122433860Y-130855348D01*
X122404922Y-130847010D01*
X122383758Y-130841513D01*
X122363017Y-130835768D01*
X122342523Y-130829822D01*
X122322104Y-130823725D01*
X122288020Y-130812812D01*
X122254753Y-130801706D01*
X122222206Y-130790415D01*
X122190278Y-130778943D01*
X122127886Y-130755486D01*
X122066783Y-130731386D01*
X122038845Y-130721003D01*
X122011353Y-130710421D01*
X121984258Y-130699541D01*
X121957511Y-130688265D01*
X121918546Y-130670851D01*
X121880885Y-130653242D01*
X121844620Y-130635591D01*
X121809840Y-130618048D01*
X121776635Y-130600765D01*
X121745095Y-130583895D01*
X121687369Y-130551996D01*
X121665497Y-130540314D01*
X121643945Y-130528583D01*
X121622740Y-130516652D01*
X121612276Y-130510566D01*
X121601909Y-130504373D01*
X121562176Y-130480115D01*
X121523258Y-130455508D01*
X121485028Y-130430480D01*
X121447360Y-130404956D01*
X121410126Y-130378861D01*
X121373199Y-130352122D01*
X121336452Y-130324663D01*
X121299758Y-130296411D01*
X121239959Y-130249308D01*
X121208419Y-130223277D01*
X121177103Y-130196590D01*
X121146010Y-130169257D01*
X121115140Y-130141293D01*
X121084494Y-130112708D01*
X121054071Y-130083515D01*
X121023872Y-130053727D01*
X120993895Y-130023355D01*
X120952094Y-129988436D01*
X120874835Y-129904825D01*
X120850540Y-129877381D01*
X120826871Y-129849424D01*
X120803835Y-129820965D01*
X120781437Y-129792013D01*
X120759684Y-129762578D01*
X120738582Y-129732668D01*
X120718137Y-129702294D01*
X120698356Y-129671465D01*
X120618186Y-129567751D01*
X120543311Y-129354761D01*
X120472935Y-129146365D01*
X120413888Y-128935743D01*
X120365988Y-128723314D01*
X120329057Y-128509496D01*
X120302912Y-128294706D01*
X120287373Y-128079363D01*
X120282261Y-127863884D01*
X120287393Y-127648688D01*
X120302590Y-127434192D01*
X120327671Y-127220815D01*
X120362455Y-127008973D01*
X120406761Y-126799086D01*
X120460410Y-126591571D01*
X120523220Y-126386847D01*
X120595011Y-126185330D01*
X120675602Y-125987439D01*
X120764813Y-125793592D01*
X120862463Y-125604207D01*
X120968371Y-125419702D01*
X121082358Y-125240495D01*
X121204241Y-125067004D01*
X121333841Y-124899646D01*
X121470977Y-124738839D01*
X121615468Y-124585003D01*
X121767134Y-124438554D01*
X121925794Y-124299910D01*
X122091268Y-124169489D01*
X122263374Y-124047711D01*
X122441933Y-123934991D01*
X122626764Y-123831748D01*
X122817686Y-123738401D01*
X123014518Y-123655367D01*
X123115058Y-123619913D01*
X123188598Y-123594303D01*
X123261442Y-123570206D01*
X123333987Y-123547547D01*
X123406630Y-123526255D01*
X123440274Y-123517146D01*
X123472776Y-123508758D01*
X123504485Y-123500917D01*
X123535747Y-123493448D01*
X123610884Y-123475690D01*
X123681434Y-123459942D01*
X123749056Y-123445930D01*
X123815413Y-123433382D01*
X123851068Y-123427119D01*
X123888932Y-123420782D01*
X123928334Y-123414594D01*
X123968604Y-123408777D01*
X124033400Y-123399943D01*
X124098417Y-123392075D01*
X124163682Y-123385151D01*
X124229220Y-123379145D01*
X124273273Y-123375092D01*
X124311175Y-123371933D01*
X124345009Y-123369469D01*
X124376857Y-123367502D01*
X124442030Y-123364570D01*
X124508321Y-123362507D01*
X124575355Y-123361288D01*
X124642760Y-123360887D01*
X124773997Y-123360887D01*
X124870235Y-123364414D01*
X124967440Y-123369849D01*
X125065289Y-123377220D01*
X125163463Y-123386553D01*
X125185064Y-123388715D01*
X125209866Y-123391547D01*
X125236800Y-123394924D01*
X125264800Y-123398722D01*
X125341742Y-123408761D01*
X125414419Y-123418899D01*
X125484320Y-123429533D01*
X125552932Y-123441057D01*
X125622880Y-123454253D01*
X125689452Y-123467249D01*
X125754341Y-123481025D01*
X125818239Y-123495099D01*
X125881442Y-123509670D01*
X125944247Y-123524935D01*
X126070983Y-123557741D01*
X126114293Y-123569831D01*
X126157305Y-123582245D01*
X126200018Y-123594908D01*
X126242431Y-123607744D01*
X125994508Y-122719307D01*
X125784636Y-121849451D01*
X125612814Y-120998317D01*
X125479043Y-120166043D01*
X125383321Y-119352770D01*
X125325651Y-118558637D01*
X125306030Y-117783783D01*
X125324460Y-117028348D01*
X125380940Y-116292472D01*
X125475471Y-115576294D01*
X125608052Y-114879953D01*
X125778683Y-114203590D01*
X125987365Y-113547344D01*
X126234097Y-112911354D01*
X126518879Y-112295759D01*
X126841712Y-111700701D01*
X126901880Y-111599175D01*
X126962885Y-111498648D01*
X127024671Y-111399201D01*
X127087182Y-111300913D01*
X127150364Y-111203865D01*
X127214159Y-111108139D01*
X127278512Y-111013813D01*
X127343368Y-110920969D01*
X127407015Y-110832235D01*
X127472152Y-110743897D01*
X127538778Y-110656056D01*
X127606891Y-110568811D01*
X127596067Y-110552293D01*
X127585392Y-110535702D01*
X127564292Y-110502397D01*
X127519448Y-110432741D01*
X127474630Y-110361870D01*
X127385169Y-110218767D01*
X127313069Y-110101652D01*
X127242556Y-109985933D01*
X127169069Y-109863226D01*
X127097567Y-109742510D01*
X127055787Y-109671129D01*
X127014553Y-109599870D01*
X126933524Y-109457819D01*
X126824515Y-109262819D01*
X126775605Y-109173530D01*
X126727314Y-109084263D01*
X126679668Y-108995045D01*
X126632693Y-108905901D01*
X126565753Y-108778635D01*
X126437966Y-108526016D01*
X126316184Y-108275531D01*
X126201049Y-108028617D01*
X126093207Y-107786715D01*
X125968610Y-107490581D01*
X125843342Y-107174829D01*
X125715147Y-106833432D01*
X125581767Y-106460360D01*
X125427085Y-106010225D01*
X125280738Y-105566764D01*
X125143617Y-105138433D01*
X125016616Y-104733690D01*
X124876388Y-104286272D01*
X124695623Y-103701423D01*
X124522871Y-103118406D01*
X124358801Y-102539555D01*
X124204081Y-101967203D01*
X124144157Y-101737131D01*
X124085250Y-101505572D01*
X123969398Y-101039576D01*
X123929973Y-100878710D01*
X123883592Y-100921943D01*
X123836344Y-100963933D01*
X123788252Y-101004676D01*
X123739341Y-101044170D01*
X123689637Y-101082412D01*
X123639164Y-101119398D01*
X123587946Y-101155126D01*
X123536010Y-101189592D01*
X123507339Y-101336419D01*
X123471374Y-101479958D01*
X123428177Y-101620090D01*
X123377808Y-101756694D01*
X123320327Y-101889652D01*
X123255796Y-102018845D01*
X123184276Y-102144152D01*
X123105828Y-102265455D01*
X123020511Y-102382634D01*
X122928388Y-102495571D01*
X122829519Y-102604144D01*
X122723964Y-102708235D01*
X122611785Y-102807726D01*
X122493042Y-102902495D01*
X122367797Y-102992425D01*
X122236110Y-103077394D01*
X122174499Y-103116440D01*
X122144483Y-103134845D01*
X122114700Y-103152605D01*
X122084929Y-103169794D01*
X122054950Y-103186487D01*
X122024542Y-103202759D01*
X121993487Y-103218683D01*
X121954947Y-103237481D01*
X121916692Y-103255425D01*
X121878684Y-103272576D01*
X121840888Y-103288995D01*
X121803265Y-103304744D01*
X121765780Y-103319885D01*
X121728393Y-103334480D01*
X121691070Y-103348589D01*
X121606895Y-103378556D01*
X121522188Y-103405748D01*
X121437007Y-103430161D01*
X121351407Y-103451792D01*
X121265445Y-103470636D01*
X121179180Y-103486692D01*
X121092667Y-103499954D01*
X121005964Y-103510420D01*
X120919127Y-103518086D01*
X120832214Y-103522949D01*
X120745282Y-103525004D01*
X120658387Y-103524250D01*
X120571587Y-103520682D01*
X120484939Y-103514296D01*
X120398498Y-103505090D01*
X120312324Y-103493059D01*
X120186648Y-103571108D01*
X120075522Y-103588564D01*
X120024479Y-103609028D01*
X119972770Y-103628544D01*
X119920421Y-103647104D01*
X119867461Y-103664703D01*
X119813919Y-103681334D01*
X119759821Y-103696992D01*
X119705196Y-103711669D01*
X119650073Y-103725359D01*
X119533153Y-103751018D01*
X119414589Y-103771750D01*
X119294715Y-103787570D01*
X119173865Y-103798491D01*
X119052373Y-103804528D01*
X118930573Y-103805697D01*
X118808799Y-103802013D01*
X118687386Y-103793488D01*
X118566668Y-103780140D01*
X118446978Y-103761982D01*
X118328651Y-103739028D01*
X118212021Y-103711295D01*
X118097421Y-103678795D01*
X117985187Y-103641545D01*
X117875651Y-103599559D01*
X117769149Y-103552851D01*
X117681315Y-103509307D01*
X117634741Y-103484295D01*
X117586629Y-103457013D01*
X117537156Y-103427378D01*
X117486498Y-103395306D01*
X117434830Y-103360715D01*
X117382330Y-103323523D01*
X117329172Y-103283645D01*
X117275532Y-103240999D01*
X117221587Y-103195502D01*
X117167513Y-103147071D01*
X117113485Y-103095623D01*
X117059680Y-103041076D01*
X117006273Y-102983346D01*
X116953441Y-102922350D01*
X116897844Y-102910227D01*
X116842687Y-102896587D01*
X116787988Y-102881438D01*
X116733766Y-102864786D01*
X116680038Y-102846639D01*
X116626823Y-102827006D01*
X116574139Y-102805895D01*
X116522004Y-102783312D01*
X116470437Y-102759265D01*
X116419455Y-102733764D01*
X116369077Y-102706814D01*
X116319321Y-102678423D01*
X116270205Y-102648601D01*
X116221748Y-102617353D01*
X116173967Y-102584689D01*
X116126882Y-102550615D01*
X116108361Y-102539232D01*
X115948287Y-102401651D01*
X115910490Y-102366072D01*
X115873121Y-102329399D01*
X115836211Y-102291653D01*
X115799791Y-102252856D01*
X115763891Y-102213030D01*
X115728544Y-102172195D01*
X115693779Y-102130374D01*
X115659629Y-102087587D01*
X115601684Y-102010332D01*
X115514061Y-101886091D01*
X115432803Y-101758967D01*
X115357966Y-101629160D01*
X115289607Y-101496871D01*
X115227785Y-101362297D01*
X115172556Y-101225640D01*
X115123978Y-101087098D01*
X115082107Y-100946872D01*
X115047003Y-100805160D01*
X115018721Y-100662163D01*
X114997320Y-100518080D01*
X114982856Y-100373111D01*
X114975387Y-100227455D01*
X114974971Y-100081312D01*
X114981664Y-99934881D01*
X114995524Y-99788362D01*
X115004804Y-99716974D01*
X115015674Y-99645988D01*
X115028133Y-99575417D01*
X115042177Y-99505272D01*
X115057804Y-99435566D01*
X115075011Y-99366311D01*
X115093796Y-99297518D01*
X115114156Y-99229200D01*
X115136087Y-99161369D01*
X115159588Y-99094037D01*
X115184655Y-99027215D01*
X115211286Y-98960916D01*
X115239479Y-98895152D01*
X115269230Y-98829935D01*
X115300536Y-98765276D01*
X115333396Y-98701189D01*
X115356416Y-98627901D01*
X115489766Y-98425493D01*
X115495723Y-98399822D01*
X115501656Y-98368842D01*
X115507514Y-98333743D01*
X115513248Y-98295717D01*
X115524145Y-98215646D01*
X115533950Y-98138155D01*
X115552907Y-97991423D01*
X115576271Y-97833158D01*
X115606760Y-97664772D01*
X115625526Y-97577226D01*
X115647093Y-97487680D01*
X115671801Y-97396311D01*
X115699990Y-97303296D01*
X115731999Y-97208810D01*
X115768169Y-97113032D01*
X115808840Y-97016137D01*
X115854351Y-96918303D01*
X115905042Y-96819705D01*
X115961253Y-96720522D01*
X115996609Y-96662083D01*
X116032538Y-96604726D01*
X116069058Y-96548439D01*
X116106183Y-96493207D01*
X116143930Y-96439014D01*
X116182315Y-96385848D01*
X116221352Y-96333693D01*
X116261060Y-96282536D01*
X116301452Y-96232361D01*
X116342546Y-96183155D01*
X116384356Y-96134903D01*
X116426900Y-96087591D01*
X116470192Y-96041205D01*
X116514249Y-95995730D01*
X116559086Y-95951153D01*
X116604720Y-95907457D01*
X116620244Y-95859091D01*
X116636842Y-95811034D01*
X116654493Y-95763300D01*
X116673181Y-95715900D01*
X116692885Y-95668848D01*
X116713588Y-95622154D01*
X116735270Y-95575832D01*
X116757914Y-95529894D01*
X116727824Y-95400298D01*
X116692684Y-95268468D01*
X116652889Y-95134674D01*
X116608834Y-94999187D01*
X116509525Y-94724220D01*
X116397916Y-94445733D01*
X116277166Y-94165894D01*
X116150436Y-93886870D01*
X115891669Y-93339937D01*
X115761886Y-93068024D01*
X115636841Y-92801940D01*
X115517700Y-92539874D01*
X115460707Y-92409782D01*
X115405627Y-92280016D01*
X115168938Y-91679635D01*
X115054135Y-91355402D01*
X114945274Y-91016597D01*
X114845040Y-90664310D01*
X114756119Y-90299634D01*
X114681196Y-89923659D01*
X114622958Y-89537477D01*
X114584088Y-89142179D01*
X114567274Y-88738857D01*
X114575200Y-88328602D01*
X114610551Y-87912505D01*
X114676014Y-87491659D01*
X114774274Y-87067154D01*
X114908016Y-86640082D01*
X115079926Y-86211534D01*
X115295953Y-85776228D01*
X115544663Y-85362011D01*
X115824695Y-84969666D01*
X116134688Y-84599975D01*
X116473281Y-84253717D01*
X116839112Y-83931675D01*
X117230821Y-83634630D01*
X117647046Y-83363363D01*
X118086427Y-83118656D01*
X118547601Y-82901290D01*
X119029208Y-82712046D01*
X119529887Y-82551705D01*
X120048277Y-82421050D01*
X120583016Y-82320861D01*
X121132743Y-82251919D01*
X121696097Y-82215006D01*
X121682342Y-81848818D01*
X121654022Y-80819160D01*
X121647505Y-80332968D01*
X121646092Y-79863121D01*
X121649789Y-79407562D01*
X121658602Y-78964231D01*
X121672537Y-78531070D01*
X121691600Y-78106020D01*
X121708004Y-77805951D01*
X121726790Y-77509653D01*
X121779363Y-76873688D01*
X121849324Y-76227218D01*
X121937195Y-75567204D01*
X122043495Y-74890609D01*
X122168746Y-74194393D01*
X122313468Y-73475517D01*
X122478184Y-72730945D01*
X122663413Y-71957636D01*
X122809053Y-71403709D01*
X122969048Y-70857247D01*
X123143244Y-70318690D01*
X123331486Y-69788484D01*
X123533618Y-69267071D01*
X123749486Y-68754894D01*
X123978934Y-68252397D01*
X124221808Y-67760023D01*
X124268247Y-67645116D01*
X124317233Y-67530439D01*
X124368713Y-67416072D01*
X124422629Y-67302095D01*
X124478927Y-67188590D01*
X124537549Y-67075637D01*
X124598442Y-66963317D01*
X124661548Y-66851709D01*
X124730746Y-66734632D01*
X124802301Y-66619061D01*
X124876191Y-66505023D01*
X124952399Y-66392541D01*
X125030904Y-66281640D01*
X125111688Y-66172345D01*
X125194730Y-66064681D01*
X125280012Y-65958673D01*
X125367513Y-65854346D01*
X125457216Y-65751724D01*
X125549099Y-65650831D01*
X125643144Y-65551694D01*
X125739332Y-65454336D01*
X125837643Y-65358783D01*
X125938058Y-65265059D01*
X126040557Y-65173189D01*
X126056868Y-65157965D01*
X126075215Y-65141275D01*
X126094952Y-65123742D01*
X126115432Y-65105986D01*
X126269156Y-64991686D01*
X127553180Y-64178095D01*
X127606423Y-64153099D01*
X127660531Y-64128447D01*
X127715724Y-64104037D01*
X127772222Y-64079767D01*
X127890015Y-64031236D01*
X128015670Y-63982035D01*
X128031819Y-63975194D01*
X128047818Y-63968575D01*
X128063816Y-63962205D01*
X128071861Y-63959120D01*
X128079963Y-63956106D01*
X128111497Y-63944633D01*
X128142277Y-63933771D01*
X128202036Y-63913543D01*
X128260158Y-63894754D01*
X128317561Y-63876734D01*
X128421805Y-63843397D01*
X128477541Y-63824933D01*
X128533327Y-63807015D01*
X128589311Y-63789891D01*
X128617425Y-63781705D01*
X128645644Y-63773809D01*
X128671282Y-63766856D01*
X128696808Y-63760253D01*
X128747574Y-63747913D01*
X128798042Y-63736416D01*
X128848311Y-63725389D01*
X128948062Y-63702639D01*
X129014196Y-63686961D01*
X129080453Y-63671879D01*
X129146859Y-63657691D01*
X129213439Y-63644693D01*
X129267351Y-63635333D01*
X129321486Y-63626965D01*
X129375771Y-63619392D01*
X129430129Y-63612413D01*
X129537288Y-63597334D01*
X129598378Y-63588395D01*
X129659493Y-63580003D01*
X129720757Y-63572404D01*
X129782294Y-63565847D01*
X129842570Y-63560543D01*
X129903142Y-63556356D01*
X129964012Y-63553012D01*
X130025180Y-63550238D01*
X130131804Y-63544680D01*
X130187963Y-63541601D01*
X130244122Y-63538893D01*
X130300280Y-63536830D01*
X130356437Y-63535685D01*
X130392158Y-63535421D01*
X130447479Y-63535880D01*
X130502752Y-63537107D01*
X130558025Y-63538880D01*
X130613349Y-63540976D01*
X130718390Y-63544680D01*
X130825017Y-63548153D01*
X130878306Y-63550671D01*
X130904966Y-63552288D01*
X130931643Y-63554205D01*
X130963920Y-63556702D01*
X130996433Y-63559593D01*
X131062016Y-63566345D01*
X131128098Y-63574040D01*
X131194381Y-63582258D01*
X131257354Y-63528814D01*
X131310009Y-63484806D01*
X131362888Y-63441072D01*
X131416115Y-63397883D01*
X131469813Y-63355513D01*
X131484278Y-63344189D01*
X131499069Y-63332841D01*
X131529441Y-63310071D01*
X131592048Y-63264231D01*
X131641261Y-63228247D01*
X131680527Y-63199585D01*
X131719842Y-63171196D01*
X131759356Y-63143155D01*
X131799216Y-63115534D01*
X131838974Y-63088857D01*
X131880146Y-63062055D01*
X131922261Y-63035204D01*
X131964847Y-63008379D01*
X132019614Y-62973719D01*
X132050431Y-62953982D01*
X132081397Y-62934494D01*
X132112560Y-62915303D01*
X132143970Y-62896460D01*
X132204237Y-62861229D01*
X132264753Y-62827139D01*
X132325467Y-62793843D01*
X132386329Y-62760992D01*
X132423622Y-62740388D01*
X132455087Y-62723157D01*
X132482732Y-62708308D01*
X132508567Y-62694849D01*
X132580777Y-62658899D01*
X132653657Y-62623940D01*
X132727083Y-62589776D01*
X132800933Y-62556208D01*
X132822218Y-62545806D01*
X132844621Y-62535305D01*
X132867867Y-62524804D01*
X132891685Y-62514402D01*
X132986471Y-62474143D01*
X133083243Y-62434827D01*
X133181602Y-62396604D01*
X133281150Y-62359621D01*
X133375609Y-62325491D01*
X134025424Y-62191874D01*
X134025424Y-63726458D01*
G37*
%TD*%
D10*
%TO.C,J1*%
X137804200Y-115742400D03*
D11*
X137804200Y-118282400D03*
D10*
X140344200Y-115742400D03*
X140344200Y-118282400D03*
D12*
X142884200Y-115742400D03*
X142884200Y-118282400D03*
%TD*%
D13*
%TO.C,R1*%
X133112000Y-68326000D03*
X135112000Y-68326000D03*
%TD*%
D14*
%TO.C,D4*%
X146360000Y-87376000D03*
X148280000Y-87376000D03*
%TD*%
D15*
%TO.C,C1*%
X139932500Y-101803200D03*
X142007500Y-101803200D03*
%TD*%
D16*
%TO.C,R4*%
X144845000Y-87315000D03*
X142845000Y-87315000D03*
%TD*%
D17*
%TO.C,JP4*%
X144489000Y-84836000D03*
D18*
X143039000Y-84836000D03*
%TD*%
D17*
%TO.C,JP3*%
X145251000Y-105410000D03*
D18*
X143801000Y-105410000D03*
%TD*%
D19*
%TO.C,D3*%
X150876000Y-107640000D03*
X150876000Y-105720000D03*
%TD*%
D20*
%TO.C,C3*%
X130810000Y-102035700D03*
X130810000Y-104110700D03*
%TD*%
D15*
%TO.C,C4*%
X136122500Y-95453200D03*
X138197500Y-95453200D03*
%TD*%
D17*
%TO.C,JP5*%
X154903000Y-68453000D03*
D18*
X153453000Y-68453000D03*
%TD*%
D16*
%TO.C,R5*%
X155178000Y-70739000D03*
X153178000Y-70739000D03*
%TD*%
D17*
%TO.C,JP6*%
X140425000Y-111252000D03*
D18*
X138975000Y-111252000D03*
%TD*%
D21*
%TO.C,JP7*%
X126492000Y-127725000D03*
D22*
X126492000Y-126275000D03*
%TD*%
D23*
%TO.C,R8*%
X128778000Y-128000000D03*
X128778000Y-126000000D03*
%TD*%
D13*
%TO.C,R7*%
X139970000Y-99263200D03*
X141970000Y-99263200D03*
%TD*%
D24*
%TO.C,JP1*%
X133387000Y-70612000D03*
D25*
X134837000Y-70612000D03*
%TD*%
D26*
%TO.C,L1*%
X140400000Y-106883200D03*
X136460000Y-106883200D03*
%TD*%
D13*
%TO.C,R6*%
X136160000Y-97993200D03*
X138160000Y-97993200D03*
%TD*%
D14*
%TO.C,D2*%
X122118000Y-91694000D03*
X120198000Y-91694000D03*
%TD*%
%TO.C,D1*%
X133152000Y-65786000D03*
X135072000Y-65786000D03*
%TD*%
D16*
%TO.C,R3*%
X145780000Y-108204000D03*
X143780000Y-108204000D03*
%TD*%
D24*
%TO.C,JP2*%
X125513000Y-94234000D03*
D25*
X126963000Y-94234000D03*
%TD*%
D19*
%TO.C,D5*%
X155194000Y-73716000D03*
X155194000Y-75636000D03*
%TD*%
D27*
%TO.C,U1*%
X137910000Y-101303200D03*
X137910000Y-101803200D03*
X137910000Y-102303200D03*
X136410000Y-102303200D03*
X136410000Y-101803200D03*
X136410000Y-101303200D03*
%TD*%
D13*
%TO.C,R2*%
X124984000Y-91694000D03*
X126984000Y-91694000D03*
%TD*%
D14*
%TO.C,D6*%
X133294000Y-125476000D03*
X131374000Y-125476000D03*
%TD*%
D20*
%TO.C,C2*%
X133350000Y-102035700D03*
X133350000Y-104110700D03*
%TD*%
M02*
