G04 #@! TF.GenerationSoftware,KiCad,Pcbnew,8.0.3*
G04 #@! TF.CreationDate,2024-07-04T10:33:08-05:00*
G04 #@! TF.ProjectId,SAO_AMAMW,53414f5f-414d-4414-9d57-2e6b69636164,rev?*
G04 #@! TF.SameCoordinates,Original*
G04 #@! TF.FileFunction,Profile,NP*
%FSLAX46Y46*%
G04 Gerber Fmt 4.6, Leading zero omitted, Abs format (unit mm)*
G04 Created by KiCad (PCBNEW 8.0.3) date 2024-07-04 10:33:08*
%MOMM*%
%LPD*%
G01*
G04 APERTURE LIST*
G04 #@! TA.AperFunction,Profile*
%ADD10C,0.100000*%
G04 #@! TD*
G04 APERTURE END LIST*
D10*
X114721410Y-88871054D02*
X114726861Y-89073725D01*
X114722098Y-88666796D02*
X114721410Y-88871054D01*
X114726861Y-89073725D02*
X114738185Y-89274279D01*
X114729348Y-88460686D02*
X114722098Y-88666796D01*
X114738185Y-89274279D02*
X114755039Y-89472981D01*
X114743424Y-88253253D02*
X114729348Y-88460686D01*
X114755039Y-89472981D02*
X114777052Y-89669566D01*
X114764696Y-88044497D02*
X114743424Y-88253253D01*
X114777052Y-89669566D02*
X114803907Y-89864034D01*
X114793509Y-87834683D02*
X114764696Y-88044497D01*
X114803907Y-89864034D02*
X114835287Y-90055857D01*
X114830180Y-87623810D02*
X114793509Y-87834683D01*
X114835287Y-90055857D02*
X114870820Y-90245034D01*
X114870820Y-90245034D02*
X114910190Y-90431830D01*
X114875054Y-87411879D02*
X114830180Y-87623810D01*
X114910190Y-90431830D02*
X114999117Y-90796425D01*
X114928446Y-87199154D02*
X114875054Y-87411879D01*
X114990729Y-86985901D02*
X114928446Y-87199154D01*
X114999117Y-90796425D02*
X115099367Y-91148585D01*
X115062220Y-86772117D02*
X114990729Y-86985901D01*
X115099367Y-91148585D02*
X115208243Y-91487516D01*
X115129239Y-100213463D02*
X115129688Y-100359777D01*
X115129688Y-100359777D02*
X115137150Y-100505298D01*
X115135906Y-100067149D02*
X115129239Y-100213463D01*
X115137150Y-100505298D02*
X115151622Y-100650290D01*
X115143235Y-86557805D02*
X115062220Y-86772117D01*
X115149717Y-99920570D02*
X115135906Y-100067149D01*
X115151622Y-100650290D02*
X115173027Y-100794487D01*
X115169878Y-99778224D02*
X115149717Y-99920570D01*
X115173027Y-100794487D02*
X115201311Y-100937362D01*
X115196416Y-99637466D02*
X115169878Y-99778224D01*
X115201311Y-100937362D02*
X115236395Y-101079179D01*
X115208243Y-91487516D02*
X115323046Y-91811630D01*
X115229277Y-99498560D02*
X115196416Y-99637466D01*
X115234119Y-86343493D02*
X115143235Y-86557805D01*
X115236395Y-101079179D02*
X115278252Y-101219408D01*
X115268489Y-99361506D02*
X115229277Y-99498560D01*
X115278252Y-101219408D02*
X115326829Y-101357785D01*
X115313970Y-99226304D02*
X115268489Y-99361506D01*
X115323046Y-91811630D02*
X115441155Y-92120134D01*
X115326829Y-101357785D02*
X115382021Y-101494574D01*
X115337968Y-86123360D02*
X115234119Y-86343493D01*
X115365696Y-99093219D02*
X115313970Y-99226304D01*
X115382021Y-101494574D02*
X115443828Y-101628982D01*
X115423666Y-98962250D02*
X115365696Y-99093219D01*
X115441155Y-92120134D02*
X115559821Y-92411969D01*
X115443828Y-101628982D02*
X115512170Y-101761274D01*
X115450151Y-85908254D02*
X115337968Y-86123360D01*
X115487854Y-98833398D02*
X115423666Y-98962250D01*
X115510873Y-98759844D02*
X115487854Y-98833398D01*
X115512170Y-101761274D02*
X115587020Y-101891184D01*
X115559821Y-92411969D02*
X115671898Y-92671789D01*
X115570510Y-85698466D02*
X115450151Y-85908254D01*
X115587020Y-101891184D02*
X115668247Y-102018184D01*
X115644223Y-98557703D02*
X115510873Y-98759844D01*
X115667612Y-98427792D02*
X115644223Y-98557703D01*
X115668247Y-102018184D02*
X115755877Y-102142538D01*
X115671898Y-92671789D02*
X115791040Y-92933991D01*
X115688408Y-98270365D02*
X115667612Y-98427792D01*
X115698859Y-85494049D02*
X115570510Y-85698466D01*
X115730689Y-97965301D02*
X115688408Y-98270365D01*
X115755877Y-102142538D02*
X115813821Y-102219796D01*
X115761142Y-97797026D02*
X115730689Y-97965301D01*
X115791040Y-92933991D02*
X116045860Y-93471888D01*
X115801465Y-97619756D02*
X115761142Y-97797026D01*
X115813821Y-102219796D02*
X115882744Y-102304462D01*
X115835040Y-85295109D02*
X115698859Y-85494049D01*
X115854328Y-97435342D02*
X115801465Y-97619756D01*
X115882744Y-102304462D02*
X115953970Y-102385160D01*
X115922511Y-97245106D02*
X115854328Y-97435342D01*
X115953970Y-102385160D02*
X116027313Y-102461625D01*
X115963204Y-97148004D02*
X115922511Y-97245106D01*
X115978894Y-85101752D02*
X115835040Y-85295109D01*
X116008739Y-97050373D02*
X115963204Y-97148004D01*
X116027313Y-102461625D02*
X116102481Y-102533856D01*
X116045860Y-93471888D02*
X116304622Y-94018781D01*
X116059459Y-96951684D02*
X116008739Y-97050373D01*
X116102481Y-102533856D02*
X116262818Y-102671175D01*
X116115710Y-96852465D02*
X116059459Y-96951684D01*
X116130235Y-84914030D02*
X115978894Y-85101752D01*
X116186988Y-96736578D02*
X116115710Y-96852465D01*
X116260648Y-96625188D02*
X116186988Y-96736578D01*
X116262818Y-102671175D02*
X116281339Y-102682552D01*
X116281339Y-102682552D02*
X116376192Y-102749491D01*
X116288879Y-84732077D02*
X116130235Y-84914030D01*
X116304622Y-94018781D02*
X116431384Y-94297916D01*
X116336769Y-96517768D02*
X116260648Y-96625188D01*
X116376192Y-102749491D02*
X116473770Y-102810610D01*
X116415482Y-96414580D02*
X116336769Y-96517768D01*
X116431384Y-94297916D02*
X116552139Y-94577581D01*
X116454694Y-84555997D02*
X116288879Y-84732077D01*
X116473770Y-102810610D02*
X116573915Y-102865908D01*
X116496947Y-96315097D02*
X116415482Y-96414580D01*
X116552139Y-94577581D02*
X116663767Y-94856186D01*
X116573915Y-102865908D02*
X116676467Y-102915385D01*
X116581244Y-96219583D02*
X116496947Y-96315097D01*
X116627466Y-84385843D02*
X116454694Y-84555997D01*
X116663767Y-94856186D02*
X116763144Y-95131088D01*
X116668530Y-96127772D02*
X116581244Y-96219583D01*
X116676467Y-102915385D02*
X116781268Y-102959041D01*
X116758911Y-96039402D02*
X116668530Y-96127772D01*
X116763144Y-95131088D02*
X116847044Y-95400434D01*
X116781268Y-102959041D02*
X116888213Y-102996876D01*
X116791137Y-95943093D02*
X116758911Y-96039402D01*
X116807065Y-84221775D02*
X116627466Y-84385843D01*
X116827517Y-95847844D02*
X116791137Y-95943093D01*
X116847044Y-95400434D02*
X116882233Y-95532196D01*
X116867919Y-95754181D02*
X116827517Y-95847844D01*
X116882233Y-95532196D02*
X116912369Y-95661842D01*
X116888213Y-102996876D02*
X116997142Y-103028626D01*
X116912369Y-95661842D02*
X116867919Y-95754181D01*
X116993305Y-84063846D02*
X116807065Y-84221775D01*
X116997142Y-103028626D02*
X117107896Y-103054555D01*
X117107896Y-103054555D02*
X117214047Y-103173088D01*
X117186001Y-83912160D02*
X116993305Y-84063846D01*
X117214047Y-103173088D02*
X117321864Y-103279186D01*
X117321864Y-103279186D02*
X117429867Y-103373113D01*
X117385020Y-83766799D02*
X117186001Y-83912160D01*
X117429867Y-103373113D02*
X117536679Y-103455663D01*
X117536679Y-103455663D02*
X117640872Y-103527365D01*
X117590151Y-83627919D02*
X117385020Y-83766799D01*
X117640872Y-103527365D02*
X117741043Y-103589013D01*
X117741043Y-103589013D02*
X117835764Y-103641400D01*
X117801236Y-83495548D02*
X117590151Y-83627919D01*
X117835764Y-103641400D02*
X117923605Y-103684792D01*
X117923605Y-103684792D02*
X118030100Y-103731623D01*
X118018114Y-83369845D02*
X117801236Y-83495548D01*
X118030100Y-103731623D02*
X118139637Y-103773692D01*
X118139637Y-103773692D02*
X118251874Y-103810733D01*
X118240629Y-83250862D02*
X118018114Y-83369845D01*
X118251874Y-103810733D02*
X118366464Y-103843277D01*
X118366464Y-103843277D02*
X118483119Y-103871058D01*
X118468567Y-83138705D02*
X118240629Y-83250862D01*
X118483119Y-103871058D02*
X118601441Y-103894077D01*
X118601441Y-103894077D02*
X118721112Y-103912333D01*
X118701797Y-83033507D02*
X118468567Y-83138705D01*
X118721112Y-103912333D02*
X118841841Y-103925563D01*
X118841841Y-103925563D02*
X118963258Y-103934029D01*
X118940133Y-82935320D02*
X118701797Y-83033507D01*
X118963258Y-103934029D02*
X119085019Y-103937733D01*
X119085019Y-103937733D02*
X119206833Y-103936675D01*
X119183391Y-82844251D02*
X118940133Y-82935320D01*
X119206833Y-103936675D02*
X119328329Y-103930590D01*
X119328329Y-103930590D02*
X119449165Y-103919742D01*
X119431437Y-82760431D02*
X119183391Y-82844251D01*
X119449165Y-103919742D02*
X119569047Y-103903867D01*
X119569047Y-103903867D02*
X119687607Y-103883229D01*
X119684061Y-82683913D02*
X119431437Y-82760431D01*
X119687607Y-103883229D02*
X119804526Y-103857565D01*
X119804526Y-103857565D02*
X119914275Y-103829254D01*
X119914275Y-103829254D02*
X120021934Y-103796975D01*
X119941130Y-82614831D02*
X119684061Y-82683913D01*
X120021934Y-103796975D02*
X120127344Y-103760727D01*
X120127344Y-103760727D02*
X120230240Y-103720775D01*
X120202459Y-82553262D02*
X119941130Y-82614831D01*
X120230240Y-103720775D02*
X120341365Y-103703313D01*
X120341365Y-103703313D02*
X120466777Y-103625261D01*
X120437250Y-127996530D02*
X120442356Y-128212165D01*
X120442356Y-128212165D02*
X120457887Y-128427536D01*
X120442383Y-127781424D02*
X120437250Y-127996530D01*
X120457570Y-127566847D02*
X120442383Y-127781424D01*
X120457887Y-128427536D02*
X120484028Y-128642113D01*
X120466777Y-103625261D02*
X120639471Y-103646427D01*
X120467862Y-82499314D02*
X120202459Y-82553262D01*
X120482652Y-127353593D02*
X120457570Y-127566847D01*
X120484028Y-128642113D02*
X120520964Y-128855896D01*
X120517418Y-127141662D02*
X120482652Y-127353593D01*
X120520964Y-128855896D02*
X120568853Y-129068356D01*
X120561736Y-126931848D02*
X120517418Y-127141662D01*
X120568853Y-129068356D02*
X120627908Y-129278964D01*
X120615393Y-126724150D02*
X120561736Y-126931848D01*
X120627908Y-129278964D02*
X120698287Y-129487455D01*
X120639471Y-103646427D02*
X120812958Y-103656482D01*
X120678205Y-126519628D02*
X120615393Y-126724150D01*
X120698287Y-129487455D02*
X120773164Y-129700445D01*
X120737208Y-82453091D02*
X120467862Y-82499314D01*
X120749987Y-126318016D02*
X120678205Y-126519628D01*
X120773164Y-129700445D02*
X120853333Y-129803897D01*
X120812958Y-103656482D02*
X120986789Y-103655159D01*
X120830579Y-126120107D02*
X120749987Y-126318016D01*
X120853333Y-129803897D02*
X120936412Y-129924546D01*
X120919796Y-125926168D02*
X120830579Y-126120107D01*
X120936412Y-129924546D02*
X121029810Y-130037259D01*
X120986789Y-103655159D02*
X121160514Y-103642723D01*
X121010284Y-82414647D02*
X120737208Y-82453091D01*
X121017427Y-125736991D02*
X120919796Y-125926168D01*
X121029810Y-130037259D02*
X121107068Y-130121132D01*
X121107068Y-130121132D02*
X121148872Y-130155792D01*
X121123340Y-125552312D02*
X121017427Y-125736991D01*
X121148872Y-130155792D02*
X121270210Y-130273796D01*
X121160514Y-103642723D02*
X121333710Y-103618911D01*
X121237322Y-125373190D02*
X121123340Y-125552312D01*
X121270210Y-130273796D02*
X121394934Y-130382010D01*
X121286932Y-82384141D02*
X121010284Y-82414647D01*
X121333710Y-103618911D02*
X121505900Y-103583986D01*
X121359216Y-125199623D02*
X121237322Y-125373190D01*
X121394934Y-130382010D02*
X121454730Y-130429106D01*
X121454730Y-130429106D02*
X121602315Y-130537585D01*
X121488808Y-125032407D02*
X121359216Y-125199623D01*
X121505900Y-103583986D02*
X121676662Y-103537948D01*
X121566993Y-82361625D02*
X121286932Y-82384141D01*
X121602315Y-130537585D02*
X121756619Y-130637068D01*
X121625942Y-124871540D02*
X121488808Y-125032407D01*
X121676662Y-103537948D02*
X121845519Y-103480798D01*
X121756619Y-130637068D02*
X121842080Y-130684429D01*
X121770457Y-124717818D02*
X121625942Y-124871540D01*
X121800276Y-79995353D02*
X121801678Y-80465200D01*
X121801678Y-80465200D02*
X121808213Y-80951397D01*
X121803980Y-79539794D02*
X121800276Y-79995353D01*
X121808213Y-80951397D02*
X121819828Y-81455984D01*
X121812790Y-79096459D02*
X121803980Y-79539794D01*
X121819828Y-81455984D02*
X121836523Y-81981048D01*
X121826707Y-78663310D02*
X121812790Y-79096459D01*
X121836523Y-81981048D02*
X121850282Y-82347231D01*
X121842080Y-130684429D02*
X121964661Y-130750575D01*
X121845519Y-103480798D02*
X121995326Y-103421267D01*
X121845784Y-78238257D02*
X121826707Y-78663310D01*
X121850282Y-82347231D02*
X121566993Y-82361625D01*
X121880973Y-77641887D02*
X121845784Y-78238257D01*
X121905130Y-77325023D02*
X121880973Y-77641887D01*
X121922116Y-124571239D02*
X121770457Y-124717818D01*
X121933546Y-77005909D02*
X121905130Y-77325023D01*
X121964661Y-130750575D02*
X122112219Y-130820689D01*
X121966328Y-76684176D02*
X121933546Y-77005909D01*
X121995326Y-103421267D02*
X122147938Y-103350888D01*
X122003502Y-76359453D02*
X121966328Y-76684176D01*
X122045174Y-76031318D02*
X122003502Y-76359453D01*
X122080760Y-124432597D02*
X121922116Y-124571239D01*
X122091370Y-75699425D02*
X122045174Y-76031318D01*
X122112219Y-130820689D02*
X122221492Y-130863816D01*
X122147938Y-103350888D02*
X122269037Y-103284742D01*
X122197679Y-75022807D02*
X122091370Y-75699425D01*
X122221492Y-130863816D02*
X122344999Y-130911441D01*
X122246230Y-124302158D02*
X122080760Y-124432597D01*
X122269037Y-103284742D02*
X122390560Y-103209601D01*
X122322933Y-74326556D02*
X122197679Y-75022807D01*
X122344999Y-130911441D02*
X122476814Y-130956156D01*
X122390560Y-103209601D02*
X122522217Y-103124670D01*
X122418341Y-124180450D02*
X122246230Y-124302158D01*
X122467660Y-73607658D02*
X122322933Y-74326556D01*
X122476814Y-130956156D02*
X122559629Y-130979439D01*
X122522217Y-103124670D02*
X122647417Y-103034712D01*
X122559629Y-130979439D02*
X122618102Y-130996108D01*
X122596908Y-124067737D02*
X122418341Y-124180450D01*
X122618102Y-130996108D02*
X122786376Y-131078128D01*
X122632363Y-72863016D02*
X122467660Y-73607658D01*
X122647417Y-103034712D02*
X122766136Y-102939726D01*
X122766136Y-102939726D02*
X122878293Y-102840243D01*
X122781746Y-123964550D02*
X122596908Y-124067737D01*
X122786376Y-131078128D02*
X122977670Y-131078128D01*
X122817597Y-72089613D02*
X122632363Y-72863016D01*
X122878293Y-102840243D02*
X122983861Y-102736262D01*
X122963171Y-71535682D02*
X122817597Y-72089613D01*
X122972669Y-123871152D02*
X122781746Y-123964550D01*
X122977670Y-131078128D02*
X123144384Y-131106439D01*
X122983861Y-102736262D02*
X123082709Y-102627783D01*
X123041355Y-71261495D02*
X122963171Y-71535682D01*
X123082709Y-102627783D02*
X123174864Y-102514806D01*
X123123111Y-70989212D02*
X123041355Y-71261495D01*
X123144384Y-131106439D02*
X123311336Y-131130516D01*
X123169493Y-123788073D02*
X122972669Y-123871152D01*
X123174864Y-102514806D02*
X123260192Y-102397596D01*
X123208439Y-70718941D02*
X123123111Y-70989212D01*
X123260192Y-102397596D02*
X123338640Y-102276152D01*
X123270034Y-123752619D02*
X123169493Y-123788073D01*
X123297313Y-70450680D02*
X123208439Y-70718941D01*
X123311336Y-131130516D02*
X123653944Y-131171526D01*
X123338640Y-102276152D02*
X123410184Y-102151004D01*
X123389705Y-70184483D02*
X123297313Y-70450680D01*
X123410184Y-102151004D02*
X123474716Y-102021888D01*
X123416190Y-123702613D02*
X123270034Y-123752619D01*
X123474716Y-102021888D02*
X123532209Y-101888803D01*
X123485563Y-69920456D02*
X123389705Y-70184483D01*
X123532209Y-101888803D02*
X123582612Y-101752278D01*
X123561340Y-123658956D02*
X123416190Y-123702613D01*
X123582612Y-101752278D02*
X123625819Y-101612049D01*
X123584914Y-69658624D02*
X123485563Y-69920456D01*
X123625819Y-101612049D02*
X123661776Y-101468645D01*
X123653944Y-131171526D02*
X123785706Y-131181845D01*
X123661776Y-101468645D02*
X123690456Y-101321801D01*
X123687731Y-69399042D02*
X123584914Y-69658624D01*
X123690456Y-101321801D02*
X123793617Y-101251687D01*
X123690721Y-123626148D02*
X123561340Y-123658956D01*
X123785706Y-131181845D02*
X123983482Y-131197984D01*
X123793617Y-101251687D02*
X123893789Y-101176281D01*
X123793988Y-69141788D02*
X123687731Y-69399042D01*
X123836189Y-123592546D02*
X123690721Y-123626148D01*
X123893789Y-101176281D02*
X123990785Y-101096112D01*
X123903631Y-68886862D02*
X123793988Y-69141788D01*
X123970121Y-123566088D02*
X123836189Y-123592546D01*
X123983482Y-131197984D02*
X124187079Y-131209626D01*
X123990785Y-101096112D02*
X124084421Y-101010916D01*
X124016687Y-68634397D02*
X123903631Y-68886862D01*
X124084421Y-101010916D02*
X124123843Y-101171783D01*
X124123314Y-123541482D02*
X123970121Y-123566088D01*
X124123843Y-101171783D02*
X124239704Y-101637713D01*
X124133104Y-68384366D02*
X124016687Y-68634397D01*
X124187079Y-131209626D02*
X124395835Y-131216505D01*
X124239704Y-101637713D02*
X124358529Y-102099411D01*
X124252881Y-68136902D02*
X124133104Y-68384366D01*
X124358529Y-102099411D02*
X124513257Y-102671968D01*
X124375991Y-67892004D02*
X124252881Y-68136902D01*
X124384193Y-123511848D02*
X124123314Y-123541482D01*
X124395835Y-131216505D02*
X124609089Y-131218886D01*
X124471373Y-67662584D02*
X124375991Y-67892004D01*
X124513257Y-102671968D02*
X124677325Y-103250876D01*
X124531566Y-123500207D02*
X124384193Y-123511848D01*
X124576704Y-67434302D02*
X124471373Y-67662584D01*
X124609089Y-131218886D02*
X124952650Y-131213595D01*
X124677325Y-103250876D02*
X124850071Y-103833752D01*
X124691612Y-67207871D02*
X124576704Y-67434302D01*
X124797472Y-123493592D02*
X124531566Y-123500207D01*
X124815728Y-66983955D02*
X124691612Y-67207871D01*
X124850071Y-103833752D02*
X125030834Y-104418481D01*
X124928705Y-123493592D02*
X124797472Y-123493592D01*
X124952650Y-131213595D02*
X125294623Y-131198249D01*
X124956486Y-66751307D02*
X124815728Y-66983955D01*
X125030834Y-104418481D02*
X125171063Y-104865891D01*
X125106584Y-66524798D02*
X124956486Y-66751307D01*
X125122142Y-123502323D02*
X124928705Y-123493592D01*
X125171063Y-104865891D02*
X125435276Y-105699062D01*
X125265863Y-66304585D02*
X125106584Y-66524798D01*
X125294623Y-131198249D02*
X125634824Y-131174437D01*
X125318171Y-123518992D02*
X125122142Y-123502323D01*
X125419506Y-123531163D02*
X125318171Y-123518992D01*
X125434191Y-66090934D02*
X125265863Y-66304585D01*
X125435276Y-105699062D02*
X125581563Y-106142503D01*
X125460358Y-117916447D02*
X125465412Y-118301415D01*
X125464829Y-117536241D02*
X125460358Y-117916447D01*
X125465412Y-118301415D02*
X125479990Y-118691146D01*
X125478799Y-117160798D02*
X125464829Y-117536241D01*
X125479990Y-118691146D02*
X125504067Y-119085904D01*
X125502294Y-116790382D02*
X125478799Y-117160798D01*
X125504067Y-119085904D02*
X125537643Y-119485424D01*
X125535288Y-116424993D02*
X125502294Y-116790382D01*
X125537643Y-119485424D02*
X125580743Y-119889707D01*
X125577806Y-116064366D02*
X125535288Y-116424993D01*
X125580743Y-119889707D02*
X125633369Y-120298488D01*
X125581563Y-106142503D02*
X125736212Y-106592824D01*
X125611382Y-65883978D02*
X125434191Y-66090934D01*
X125629850Y-115708766D02*
X125577806Y-116064366D01*
X125633369Y-120298488D02*
X125695519Y-120712296D01*
X125634824Y-131174437D02*
X125973120Y-131143745D01*
X125691392Y-115358194D02*
X125629850Y-115708766D01*
X125695519Y-120712296D02*
X125767168Y-121130866D01*
X125707637Y-123573496D02*
X125419506Y-123531163D01*
X125736212Y-106592824D02*
X125869694Y-106965621D01*
X125762432Y-115012384D02*
X125691392Y-115358194D01*
X125767168Y-121130866D02*
X125848316Y-121553934D01*
X125797331Y-65683953D02*
X125611382Y-65883978D01*
X125842998Y-114671866D02*
X125762432Y-115012384D01*
X125843898Y-123599690D02*
X125707637Y-123573496D01*
X125848316Y-121553934D02*
X125939015Y-121982029D01*
X125869694Y-106965621D02*
X125997885Y-107307198D01*
X125933088Y-114336110D02*
X125842998Y-114671866D01*
X125939015Y-121982029D02*
X126039213Y-122414623D01*
X125973120Y-131143745D02*
X126309299Y-131107762D01*
X125991826Y-65491045D02*
X125797331Y-65683953D01*
X125997885Y-107307198D02*
X126123086Y-107622845D01*
X126032678Y-114005381D02*
X125933088Y-114336110D01*
X126039213Y-122414623D02*
X126148909Y-122851714D01*
X126098691Y-123657369D02*
X125843898Y-123599690D01*
X126123086Y-107622845D02*
X126247651Y-107918914D01*
X126141792Y-113679944D02*
X126032678Y-114005381D01*
X126148909Y-122851714D02*
X126268130Y-123293567D01*
X126194735Y-65305440D02*
X125991826Y-65491045D01*
X126225426Y-123690177D02*
X126098691Y-123657369D01*
X126247651Y-107918914D02*
X126355495Y-108161007D01*
X126260404Y-113359269D02*
X126141792Y-113679944D01*
X126268130Y-123293567D02*
X126396876Y-123740183D01*
X126269612Y-65238236D02*
X126194735Y-65305440D01*
X126309299Y-131107762D02*
X126643229Y-131067545D01*
X126355495Y-108161007D02*
X126470642Y-108407863D01*
X126388542Y-113043886D02*
X126260404Y-113359269D01*
X126396876Y-123740183D02*
X126225426Y-123690177D01*
X126423334Y-65123936D02*
X126269612Y-65238236D01*
X126470642Y-108407863D02*
X126592403Y-108658159D01*
X126526178Y-112733531D02*
X126388542Y-113043886D01*
X126592403Y-108658159D02*
X126720196Y-108910835D01*
X126643229Y-131067545D02*
X127303602Y-130981291D01*
X126673312Y-112428202D02*
X126526178Y-112733531D01*
X126720196Y-108910835D02*
X126787136Y-109038364D01*
X126787136Y-109038364D02*
X126978694Y-109395287D01*
X126829972Y-112128165D02*
X126673312Y-112428202D01*
X126978694Y-109395287D02*
X127087967Y-109590285D01*
X126996156Y-111833155D02*
X126829972Y-112128165D01*
X127087967Y-109590285D02*
X127252008Y-109874976D01*
X127117177Y-111631013D02*
X126996156Y-111833155D01*
X127241398Y-111433370D02*
X127117177Y-111631013D01*
X127252008Y-109874976D02*
X127397000Y-110118392D01*
X127303602Y-130981291D02*
X127723733Y-130925464D01*
X127368345Y-111240489D02*
X127241398Y-111433370D01*
X127397000Y-110118392D02*
X127539610Y-110351225D01*
X127497541Y-111053429D02*
X127368345Y-111240489D01*
X127539610Y-110351225D02*
X127718468Y-110634858D01*
X127626525Y-110876423D02*
X127497541Y-111053429D01*
X127707091Y-64309285D02*
X126423334Y-65123936D01*
X127718468Y-110634858D02*
X127761066Y-110701269D01*
X127723733Y-130925464D02*
X128136509Y-130874399D01*
X127761066Y-110701269D02*
X127626525Y-110876423D01*
X127926219Y-64210966D02*
X127707091Y-64309285D01*
X128136509Y-130874399D02*
X128465412Y-130842120D01*
X128169582Y-64113229D02*
X127926219Y-64210966D01*
X128234140Y-64087300D02*
X128169582Y-64113229D01*
X128356219Y-64044782D02*
X128234140Y-64087300D01*
X128465412Y-130842120D02*
X128830246Y-130813545D01*
X128471736Y-64008190D02*
X128356219Y-64044782D01*
X128575982Y-63974852D02*
X128471736Y-64008190D01*
X128687265Y-63938472D02*
X128575982Y-63974852D01*
X128799554Y-63905267D02*
X128687265Y-63938472D01*
X128830246Y-130813545D02*
X129442226Y-130763804D01*
X129002225Y-63856848D02*
X128799554Y-63905267D01*
X129101973Y-63834094D02*
X129002225Y-63856848D01*
X129234370Y-63803376D02*
X129101973Y-63834094D01*
X129367349Y-63776415D02*
X129234370Y-63803376D01*
X129442226Y-130763804D02*
X129525570Y-130755866D01*
X129525570Y-130755866D02*
X129816082Y-130725968D01*
X129584043Y-63743871D02*
X129367349Y-63776415D01*
X129691199Y-63729055D02*
X129584043Y-63743871D01*
X129816082Y-130725968D02*
X129956576Y-130709035D01*
X129936203Y-63697569D02*
X129691199Y-63729055D01*
X129956576Y-130709035D02*
X130207136Y-130676227D01*
X130057144Y-63688071D02*
X129936203Y-63697569D01*
X130179090Y-63681959D02*
X130057144Y-63688071D01*
X130207136Y-130676227D02*
X130347894Y-130654266D01*
X130285717Y-63676403D02*
X130179090Y-63681959D01*
X130347894Y-130654266D02*
X130402927Y-130645271D01*
X130402927Y-130645271D02*
X130628617Y-130606641D01*
X130510348Y-63667142D02*
X130285717Y-63676403D01*
X130546067Y-63666878D02*
X130510348Y-63667142D01*
X130628617Y-130606641D02*
X130775725Y-130576479D01*
X130767258Y-63672434D02*
X130546067Y-63666878D01*
X130775725Y-130576479D02*
X130823350Y-130566160D01*
X130823350Y-130566160D02*
X131046922Y-130516419D01*
X130872297Y-63676138D02*
X130767258Y-63672434D01*
X131046922Y-130516419D02*
X131199851Y-130475408D01*
X131085551Y-63685663D02*
X130872297Y-63676138D01*
X131199851Y-130475408D02*
X131264145Y-130457681D01*
X131215938Y-63697808D02*
X131085551Y-63685663D01*
X131264145Y-130457681D02*
X131484013Y-130393388D01*
X131348282Y-63713709D02*
X131215938Y-63697808D01*
X131411253Y-63660263D02*
X131348282Y-63713709D01*
X131484013Y-130393388D02*
X131647790Y-130335179D01*
X131623713Y-63486961D02*
X131411253Y-63660263D01*
X131647790Y-130335179D02*
X131702823Y-130315071D01*
X131702823Y-130315071D02*
X131919782Y-130231727D01*
X131745951Y-63395680D02*
X131623713Y-63486961D01*
X131795163Y-63359697D02*
X131745951Y-63395680D01*
X131919782Y-130231727D02*
X132112927Y-130140975D01*
X131952854Y-63247249D02*
X131795163Y-63359697D01*
X132112927Y-130140975D02*
X152917882Y-120743781D01*
X132118483Y-63139828D02*
X131952854Y-63247249D01*
X132173252Y-63105168D02*
X132118483Y-63139828D01*
X132297606Y-63027910D02*
X132173252Y-63105168D01*
X132539964Y-62892708D02*
X132297606Y-63027910D01*
X132662201Y-62826562D02*
X132539964Y-62892708D01*
X132807193Y-62755416D02*
X132662201Y-62826562D01*
X132954566Y-62687656D02*
X132807193Y-62755416D01*
X133045318Y-62645852D02*
X132954566Y-62687656D01*
X133236876Y-62566265D02*
X133045318Y-62645852D01*
X133434784Y-62491071D02*
X133236876Y-62566265D01*
X133529240Y-62456940D02*
X133434784Y-62491071D01*
X135145048Y-62124624D02*
X133529240Y-62456940D01*
X135413071Y-62106288D02*
X135145048Y-62124624D01*
X135678448Y-62100282D02*
X135413071Y-62106288D01*
X135976368Y-62106949D02*
X135678448Y-62100282D01*
X136272701Y-62126846D02*
X135976368Y-62106949D01*
X136566917Y-62159840D02*
X136272701Y-62126846D01*
X136858752Y-62205745D02*
X136566917Y-62159840D01*
X137147677Y-62264429D02*
X136858752Y-62205745D01*
X137433427Y-62335708D02*
X137147677Y-62264429D01*
X137715472Y-62419475D02*
X137433427Y-62335708D01*
X137993284Y-62515545D02*
X137715472Y-62419475D01*
X138266599Y-62623759D02*
X137993284Y-62515545D01*
X138535150Y-62743986D02*
X138266599Y-62623759D01*
X138798146Y-62876066D02*
X138535150Y-62743986D01*
X139055585Y-63019814D02*
X138798146Y-62876066D01*
X139306674Y-63175124D02*
X139055585Y-63019814D01*
X139551149Y-63341785D02*
X139306674Y-63175124D01*
X139788745Y-63519690D02*
X139551149Y-63341785D01*
X140018932Y-63708682D02*
X139788745Y-63519690D01*
X140235096Y-63903177D02*
X140018932Y-63708682D01*
X140441735Y-64106800D02*
X140235096Y-63903177D01*
X140638850Y-64319181D02*
X140441735Y-64106800D01*
X140826174Y-64539975D02*
X140638850Y-64319181D01*
X141003710Y-64768787D02*
X140826174Y-64539975D01*
X141171191Y-65005244D02*
X141003710Y-64768787D01*
X141328353Y-65248978D02*
X141171191Y-65005244D01*
X141475461Y-65499644D02*
X141328353Y-65248978D01*
X141590555Y-65317479D02*
X141475461Y-65499644D01*
X141712792Y-65136901D02*
X141590555Y-65317479D01*
X141808307Y-64983628D02*
X141712792Y-65136901D01*
X141908584Y-64831969D02*
X141808307Y-64983628D01*
X142014152Y-64681951D02*
X141908584Y-64831969D01*
X142124483Y-64533625D02*
X142014152Y-64681951D01*
X142239841Y-64386993D02*
X142124483Y-64533625D01*
X142359962Y-64242081D02*
X142239841Y-64386993D01*
X142484845Y-64098915D02*
X142359962Y-64242081D01*
X142614491Y-63957549D02*
X142484845Y-64098915D01*
X142748635Y-63817981D02*
X142614491Y-63957549D01*
X142887276Y-63680213D02*
X142748635Y-63817981D01*
X143030680Y-63544323D02*
X142887276Y-63680213D01*
X143131486Y-92194217D02*
X143400038Y-92281794D01*
X143178317Y-63410312D02*
X143030680Y-63544323D01*
X143330453Y-63278179D02*
X143178317Y-63410312D01*
X143330982Y-92815722D02*
X143131486Y-92194217D01*
X143400038Y-92281794D02*
X143670706Y-92360110D01*
X143487086Y-63147978D02*
X143330453Y-63278179D01*
X143543442Y-93429026D02*
X143330982Y-92815722D01*
X143647688Y-63019761D02*
X143487086Y-63147978D01*
X143670706Y-92360110D02*
X143943227Y-92429431D01*
X143768602Y-94032804D02*
X143543442Y-93429026D01*
X143812523Y-62893502D02*
X143647688Y-63019761D01*
X143943227Y-92429431D02*
X144217335Y-92489227D01*
X143981591Y-62769227D02*
X143812523Y-62893502D01*
X144005933Y-94625735D02*
X143768602Y-94032804D01*
X144154893Y-62647016D02*
X143981591Y-62769227D01*
X144155158Y-94978424D02*
X144005933Y-94625735D01*
X144217335Y-92489227D02*
X144493030Y-92539762D01*
X144308087Y-95325557D02*
X144155158Y-94978424D01*
X144463926Y-95666340D02*
X144308087Y-95325557D01*
X144493030Y-92539762D02*
X144769520Y-92581037D01*
X144513139Y-62408733D02*
X144154893Y-62647016D01*
X144622147Y-95999185D02*
X144463926Y-95666340D01*
X144769520Y-92581037D02*
X145047332Y-92612787D01*
X144886730Y-62178889D02*
X144513139Y-62408733D01*
X144928534Y-96550841D02*
X144622147Y-95999185D01*
X145047332Y-92612787D02*
X145325938Y-92635277D01*
X145127236Y-96891359D02*
X144928534Y-96550841D01*
X145275667Y-61957666D02*
X144886730Y-62178889D01*
X145319058Y-97207271D02*
X145127236Y-96891359D01*
X145325938Y-92635277D02*
X145521200Y-92643479D01*
X145505589Y-97500164D02*
X145319058Y-97207271D01*
X145521200Y-92643479D02*
X145713552Y-92644273D01*
X145679156Y-61745262D02*
X145275667Y-61957666D01*
X145687887Y-97772156D02*
X145505589Y-97500164D01*
X145713552Y-92644273D02*
X145901935Y-92638716D01*
X145901935Y-92638716D02*
X146085555Y-92627604D01*
X145991099Y-98200251D02*
X145687887Y-97772156D01*
X146085555Y-92627604D02*
X146263091Y-92612523D01*
X146096668Y-61541879D02*
X145679156Y-61745262D01*
X146263091Y-92612523D02*
X146433482Y-92594002D01*
X146351197Y-98685232D02*
X145991099Y-98200251D01*
X146433482Y-92594002D02*
X146748071Y-92551933D01*
X146527938Y-61347723D02*
X146096668Y-61541879D01*
X146726905Y-99173387D02*
X146351197Y-98685232D01*
X146748071Y-92551933D02*
X146898619Y-92527327D01*
X146898619Y-92527327D02*
X147048902Y-92497958D01*
X146972173Y-61162997D02*
X146527938Y-61347723D01*
X147048902Y-92497958D02*
X147198127Y-92464092D01*
X147136744Y-99691176D02*
X146726905Y-99173387D01*
X147198127Y-92464092D02*
X147346823Y-92425198D01*
X147346823Y-92425198D02*
X147494195Y-92382071D01*
X147418260Y-100048628D02*
X147136744Y-99691176D01*
X147429108Y-60987901D02*
X146972173Y-61162997D01*
X147494195Y-92382071D02*
X147640774Y-92334181D01*
X147574893Y-100289663D02*
X147418260Y-100048628D01*
X147640774Y-92334181D02*
X147786295Y-92281529D01*
X147735230Y-100561919D02*
X147574893Y-100289663D01*
X147786295Y-92281529D02*
X147930228Y-92224644D01*
X147817251Y-100711144D02*
X147735230Y-100561919D01*
X147895038Y-100862221D02*
X147817251Y-100711144D01*
X147897949Y-60822637D02*
X147429108Y-60987901D01*
X147930228Y-92224644D02*
X148206982Y-92105582D01*
X148206982Y-92105582D02*
X148357265Y-92036261D01*
X148213596Y-100687596D02*
X147895038Y-100862221D01*
X148357265Y-92036261D02*
X148513898Y-91959532D01*
X148378696Y-60667406D02*
X147897949Y-60822637D01*
X148513898Y-91959532D02*
X148675029Y-91874601D01*
X148533213Y-100523025D02*
X148213596Y-100687596D01*
X148675029Y-91874601D02*
X148839600Y-91781467D01*
X148839600Y-91781467D02*
X149006023Y-91679338D01*
X148855210Y-100368509D02*
X148533213Y-100523025D01*
X148870291Y-60522412D02*
X148378696Y-60667406D01*
X149006023Y-91679338D02*
X149173504Y-91567420D01*
X149173504Y-91567420D02*
X149428297Y-91383535D01*
X149180647Y-100225369D02*
X148855210Y-100368509D01*
X149372735Y-60387858D02*
X148870291Y-60522412D01*
X149428297Y-91383535D02*
X149671978Y-91194622D01*
X149526722Y-100088315D02*
X149180647Y-100225369D01*
X149671978Y-91194622D02*
X149903488Y-91001212D01*
X149866976Y-99969782D02*
X149526722Y-100088315D01*
X149885232Y-60263944D02*
X149372735Y-60387858D01*
X149903488Y-91001212D02*
X150122034Y-90804098D01*
X150035250Y-99917395D02*
X149866976Y-99969782D01*
X150122034Y-90804098D02*
X150300098Y-90631325D01*
X150202202Y-99869770D02*
X150035250Y-99917395D01*
X150300098Y-90631325D02*
X150475252Y-90449557D01*
X150368096Y-99826643D02*
X150202202Y-99869770D01*
X150407254Y-60150874D02*
X149885232Y-60263944D01*
X150475252Y-90449557D02*
X150647760Y-90258263D01*
X150532666Y-99788278D02*
X150368096Y-99826643D01*
X150647760Y-90258263D02*
X150818151Y-90057445D01*
X150696443Y-99754412D02*
X150532666Y-99788278D01*
X150818151Y-90057445D02*
X150986426Y-89846572D01*
X150859426Y-99725043D02*
X150696443Y-99754412D01*
X150938537Y-60048846D02*
X150407254Y-60150874D01*
X150986426Y-89846572D02*
X151152849Y-89624851D01*
X151021351Y-99700437D02*
X150859426Y-99725043D01*
X151152849Y-89624851D02*
X151317949Y-89392547D01*
X151182747Y-99680064D02*
X151021351Y-99700437D01*
X151317949Y-89392547D02*
X151481990Y-89149131D01*
X151343084Y-99664453D02*
X151182747Y-99680064D01*
X151478551Y-59958064D02*
X150938537Y-60048846D01*
X151481990Y-89149131D02*
X151601317Y-88962336D01*
X151503157Y-99653341D02*
X151343084Y-99664453D01*
X151601317Y-88962336D02*
X151717998Y-88770513D01*
X151662436Y-99646462D02*
X151503157Y-99653341D01*
X151717998Y-88770513D02*
X151831769Y-88573399D01*
X151821186Y-99644345D02*
X151662436Y-99646462D01*
X151831769Y-88573399D02*
X151942894Y-88370199D01*
X151942894Y-88370199D02*
X152051902Y-88161178D01*
X151987079Y-99646726D02*
X151821186Y-99644345D01*
X152026502Y-59878735D02*
X151478551Y-59958064D01*
X152051902Y-88161178D02*
X152158794Y-87945278D01*
X152152444Y-99654399D02*
X151987079Y-99646726D01*
X152158794Y-87945278D02*
X152263568Y-87722764D01*
X152263568Y-87722764D02*
X152366491Y-87492842D01*
X152317543Y-99666835D02*
X152152444Y-99654399D01*
X152366491Y-87492842D02*
X152522331Y-87126394D01*
X152481849Y-99684562D02*
X152317543Y-99666835D01*
X152522331Y-87126394D02*
X152672349Y-86751480D01*
X152582126Y-59811052D02*
X152026502Y-59878735D01*
X152645626Y-99707051D02*
X152481849Y-99684562D01*
X152672349Y-86751480D02*
X152816282Y-86367570D01*
X152808609Y-99734568D02*
X152645626Y-99707051D01*
X152816282Y-86367570D02*
X152954659Y-85974135D01*
X152917882Y-120743781D02*
X153090919Y-120778441D01*
X152954659Y-85974135D02*
X153087480Y-85570646D01*
X152971328Y-99766847D02*
X152808609Y-99734568D01*
X153087480Y-85570646D02*
X153215273Y-85156653D01*
X153090919Y-120778441D02*
X153489911Y-120859139D01*
X153132988Y-99804418D02*
X152971328Y-99766847D01*
X153145159Y-59755225D02*
X152582126Y-59811052D01*
X153215273Y-85156653D02*
X153337775Y-84731548D01*
X153294119Y-99846751D02*
X153132988Y-99804418D01*
X153337775Y-84731548D02*
X153455250Y-84294827D01*
X153454456Y-99894111D02*
X153294119Y-99846751D01*
X153455250Y-84294827D02*
X153589394Y-84171425D01*
X153489911Y-120859139D02*
X153832016Y-120936927D01*
X153589394Y-84171425D02*
X153706604Y-84046172D01*
X153614000Y-99946499D02*
X153454456Y-99894111D01*
X153706604Y-84046172D02*
X153808204Y-83920336D01*
X153714542Y-59711449D02*
X153145159Y-59755225D01*
X153772485Y-100003649D02*
X153614000Y-99946499D01*
X153808204Y-83920336D02*
X153895252Y-83795188D01*
X153832016Y-120936927D02*
X154728688Y-121162351D01*
X153895252Y-83795188D02*
X153969070Y-83672051D01*
X153930441Y-100065826D02*
X153772485Y-100003649D01*
X153969070Y-83672051D02*
X154030454Y-83552222D01*
X154030454Y-83552222D02*
X154080724Y-83436943D01*
X154080724Y-83436943D02*
X154120941Y-83327511D01*
X154087339Y-100133030D02*
X153930441Y-100065826D01*
X154120941Y-83327511D02*
X154167772Y-83165507D01*
X154167772Y-83165507D02*
X154200581Y-83000751D01*
X154200581Y-83000751D02*
X154354568Y-82854199D01*
X154243178Y-100204996D02*
X154087339Y-100133030D01*
X154290274Y-59679932D02*
X153714542Y-59711449D01*
X154354568Y-82854199D02*
X154502734Y-82702408D01*
X154398224Y-100281990D02*
X154243178Y-100204996D01*
X154502734Y-82702408D02*
X154645345Y-82545960D01*
X154544803Y-100359513D02*
X154398224Y-100281990D01*
X154645345Y-82545960D02*
X154782663Y-82385437D01*
X154689265Y-100441004D02*
X154544803Y-100359513D01*
X154728688Y-121162351D02*
X155206790Y-121276122D01*
X154782663Y-82385437D02*
X154914425Y-82221422D01*
X154831611Y-100526200D02*
X154689265Y-100441004D01*
X154871828Y-59660874D02*
X154290274Y-59679932D01*
X154914425Y-82221422D02*
X155041425Y-82054550D01*
X154972105Y-100615100D02*
X154831611Y-100526200D01*
X155041425Y-82054550D02*
X155163398Y-81885402D01*
X155110217Y-100707704D02*
X154972105Y-100615100D01*
X155163398Y-81885402D02*
X155280608Y-81714534D01*
X155206790Y-121276122D02*
X155700237Y-121385924D01*
X155246477Y-100803748D02*
X155110217Y-100707704D01*
X155280608Y-81714534D02*
X155393056Y-81542608D01*
X155380356Y-100903495D02*
X155246477Y-100803748D01*
X155393056Y-81542608D02*
X155501006Y-81370153D01*
X155458408Y-59654477D02*
X154871828Y-59660874D01*
X155458408Y-59654477D02*
X155458408Y-59654477D01*
X155458408Y-59654477D02*
X155458408Y-59654477D01*
X155501006Y-81370153D02*
X155704206Y-81026089D01*
X155512118Y-101006683D02*
X155380356Y-100903495D01*
X155641500Y-101113310D02*
X155512118Y-101006683D01*
X155700237Y-121385924D02*
X156205326Y-121488582D01*
X155704206Y-81026089D02*
X155891001Y-80687158D01*
X155768499Y-101223376D02*
X155641500Y-101113310D01*
X155839672Y-59657128D02*
X155458408Y-59654477D01*
X155891001Y-80687158D02*
X156062716Y-80358096D01*
X155893118Y-101336882D02*
X155768499Y-101223376D01*
X156015620Y-101453564D02*
X155893118Y-101336882D01*
X156062716Y-80358096D02*
X156111928Y-80274197D01*
X156111928Y-80274197D02*
X156173047Y-80191885D01*
X156135476Y-101573420D02*
X156015620Y-101453564D01*
X156173047Y-80191885D02*
X156246336Y-80109574D01*
X156205326Y-121488582D02*
X156718088Y-121580128D01*
X156218291Y-59665039D02*
X155839672Y-59657128D01*
X156246336Y-80109574D02*
X156332061Y-80025621D01*
X156252686Y-101696715D02*
X156135476Y-101573420D01*
X156332061Y-80025621D02*
X156430221Y-79938415D01*
X156367780Y-101822921D02*
X156252686Y-101696715D01*
X156430221Y-79938415D02*
X156541082Y-79846393D01*
X156479963Y-101952567D02*
X156367780Y-101822921D01*
X156519121Y-114043216D02*
X156649825Y-113832608D01*
X156541082Y-79846393D02*
X156802225Y-79641341D01*
X156593998Y-59678149D02*
X156218291Y-59665039D01*
X156649825Y-113832608D02*
X156663848Y-113809854D01*
X156663848Y-113809854D02*
X156777884Y-113622794D01*
X156696657Y-102220590D02*
X156479963Y-101952567D01*
X156718088Y-121580128D02*
X156976321Y-121620874D01*
X156740842Y-114011466D02*
X156519121Y-114043216D01*
X156777884Y-113622794D02*
X156887421Y-113434940D01*
X156802225Y-79641341D02*
X157019183Y-79472299D01*
X156887421Y-113434940D02*
X157028708Y-113173797D01*
X156902502Y-102500254D02*
X156696657Y-102220590D01*
X156963092Y-113988712D02*
X156740842Y-114011466D01*
X156966796Y-59696400D02*
X156593998Y-59678149D01*
X156976321Y-121620874D02*
X157235348Y-121657386D01*
X157019183Y-79472299D02*
X157245402Y-79288229D01*
X157028708Y-113173797D02*
X157163381Y-112907097D01*
X157097235Y-102791560D02*
X156902502Y-102500254D01*
X157163381Y-112907097D02*
X157291704Y-112634312D01*
X157185871Y-113974954D02*
X156963092Y-113988712D01*
X157235348Y-121657386D02*
X157494374Y-121689401D01*
X157245402Y-79288229D02*
X157475854Y-79084844D01*
X157280591Y-103093978D02*
X157097235Y-102791560D01*
X157291704Y-112634312D02*
X157413412Y-112355441D01*
X157336418Y-59719731D02*
X156966796Y-59696400D01*
X157408649Y-113970192D02*
X157185871Y-113974954D01*
X157413412Y-112355441D02*
X157528770Y-112070486D01*
X157452041Y-103406980D02*
X157280591Y-103093978D01*
X157475854Y-79084844D02*
X157591476Y-78974592D01*
X157494374Y-121689401D02*
X157753136Y-121716653D01*
X157528770Y-112070486D02*
X157637778Y-111779180D01*
X157591476Y-78974592D02*
X157706041Y-78857911D01*
X157599149Y-113973631D02*
X157408649Y-113970192D01*
X157611585Y-103730036D02*
X157452041Y-103406980D01*
X157637778Y-111779180D02*
X157740437Y-111481259D01*
X157703130Y-59748083D02*
X157336418Y-59719731D01*
X157706041Y-78857911D02*
X157816636Y-78731440D01*
X157740437Y-111481259D02*
X157836745Y-111176724D01*
X157753136Y-121716653D02*
X157961628Y-121735438D01*
X157758428Y-104063146D02*
X157611585Y-103730036D01*
X157787797Y-113983950D02*
X157599149Y-113973631D01*
X157816636Y-78731440D02*
X157916384Y-78598275D01*
X157836745Y-111176724D02*
X157926703Y-110865575D01*
X157892572Y-104405781D02*
X157758428Y-104063146D01*
X157916384Y-78598275D02*
X158005020Y-78459131D01*
X157926703Y-110865575D02*
X158010576Y-110547546D01*
X157961628Y-121735438D02*
X158176734Y-121751313D01*
X157974063Y-114000883D02*
X157787797Y-113983950D01*
X157979620Y-104653695D02*
X157892572Y-104405781D01*
X158005020Y-78459131D02*
X158082278Y-78314669D01*
X158010576Y-110547546D02*
X158088363Y-110222373D01*
X158059524Y-104903461D02*
X157979620Y-104653695D01*
X158066667Y-59781394D02*
X157703130Y-59748083D01*
X158082278Y-78314669D02*
X158148423Y-78165629D01*
X158088363Y-110222373D02*
X158159801Y-109890057D01*
X158119584Y-76423747D02*
X158588160Y-76366571D01*
X158131755Y-105154815D02*
X158059524Y-104903461D01*
X158148423Y-78165629D02*
X158203457Y-78012700D01*
X158157948Y-114024696D02*
X157974063Y-114000883D01*
X158159801Y-109890057D02*
X158225153Y-109550333D01*
X158176734Y-121751313D02*
X158397132Y-121762161D01*
X158180438Y-76576994D02*
X158119584Y-76423747D01*
X158196578Y-105408021D02*
X158131755Y-105154815D01*
X158203457Y-78012700D02*
X158246848Y-77856596D01*
X158225153Y-109550333D02*
X158284684Y-109203200D01*
X158229650Y-76733389D02*
X158180438Y-76576994D01*
X158246848Y-77856596D02*
X158279128Y-77697979D01*
X158253992Y-105662550D02*
X158196578Y-105408021D01*
X158266957Y-76892191D02*
X158229650Y-76733389D01*
X158279128Y-77697979D02*
X158299765Y-77537589D01*
X158284684Y-109203200D02*
X158338130Y-108848658D01*
X158292621Y-77052714D02*
X158266957Y-76892191D01*
X158299765Y-77537589D02*
X158309025Y-77376114D01*
X158303998Y-105918137D02*
X158253992Y-105662550D01*
X158306644Y-77214242D02*
X158292621Y-77052714D01*
X158309025Y-77376114D02*
X158306644Y-77214242D01*
X158338130Y-108848658D02*
X158385490Y-108486180D01*
X158339188Y-114055387D02*
X158157948Y-114024696D01*
X158346332Y-106174518D02*
X158303998Y-105918137D01*
X158381257Y-106431693D02*
X158346332Y-106174518D01*
X158385490Y-108486180D02*
X158411948Y-108231651D01*
X158397132Y-121762161D02*
X158621498Y-121766394D01*
X158408509Y-106689397D02*
X158381257Y-106431693D01*
X158411948Y-108231651D02*
X158430469Y-107976064D01*
X158426765Y-59819606D02*
X158066667Y-59781394D01*
X158428352Y-106947100D02*
X158408509Y-106689397D01*
X158430469Y-107976064D02*
X158441581Y-107719683D01*
X158440259Y-107205069D02*
X158428352Y-106947100D01*
X158441581Y-107719683D02*
X158444756Y-107462508D01*
X158444756Y-107462508D02*
X158440259Y-107205069D01*
X158518046Y-114092429D02*
X158339188Y-114055387D01*
X158588160Y-76366571D02*
X159051445Y-76301060D01*
X158621498Y-121766394D02*
X158621762Y-121766394D01*
X158621762Y-121766394D02*
X158777337Y-121764013D01*
X158693729Y-114136350D02*
X158518046Y-114092429D01*
X158777337Y-121764013D02*
X158929737Y-121757134D01*
X158783423Y-59862658D02*
X158426765Y-59819606D01*
X158866502Y-114186620D02*
X158693729Y-114136350D01*
X158929737Y-121757134D02*
X159078433Y-121745757D01*
X159036364Y-114243506D02*
X158866502Y-114186620D01*
X159051445Y-76301060D02*
X159509174Y-76227374D01*
X159078433Y-121745757D02*
X159223953Y-121729617D01*
X159136641Y-59910487D02*
X158783423Y-59862658D01*
X159202787Y-114307006D02*
X159036364Y-114243506D01*
X159223953Y-121729617D02*
X159366299Y-121708980D01*
X159365770Y-114376856D02*
X159202787Y-114307006D01*
X159366299Y-121708980D02*
X159505470Y-121683580D01*
X159486155Y-59963039D02*
X159136641Y-59910487D01*
X159505470Y-121683580D02*
X159641201Y-121653417D01*
X159509174Y-76227374D02*
X159960817Y-76145618D01*
X159525313Y-114453056D02*
X159365770Y-114376856D01*
X159641201Y-121653417D02*
X159774021Y-121618757D01*
X159680888Y-114535341D02*
X159525313Y-114453056D01*
X159774021Y-121618757D02*
X159903667Y-121579334D01*
X159831965Y-60020247D02*
X159486155Y-59963039D01*
X159832759Y-114624241D02*
X159680888Y-114535341D01*
X159903667Y-121579334D02*
X160030402Y-121535149D01*
X159960817Y-76145618D02*
X160406375Y-76055924D01*
X159980661Y-114719226D02*
X159832759Y-114624241D01*
X160030402Y-121535149D02*
X160153963Y-121486201D01*
X160124329Y-114820561D02*
X159980661Y-114719226D01*
X160153963Y-121486201D02*
X160274612Y-121432755D01*
X160173806Y-60082056D02*
X159831965Y-60020247D01*
X160274612Y-121432755D02*
X160392352Y-121374282D01*
X160281756Y-114942005D02*
X160124329Y-114820561D01*
X160392352Y-121374282D02*
X160507446Y-121311047D01*
X160406375Y-76055924D02*
X160845318Y-75958372D01*
X160432039Y-115070063D02*
X160281756Y-114942005D01*
X160507446Y-121311047D02*
X160619629Y-121243314D01*
X160511679Y-60148405D02*
X160173806Y-60082056D01*
X160575708Y-115204471D02*
X160432039Y-115070063D01*
X160619629Y-121243314D02*
X160728901Y-121170553D01*
X160712233Y-115344700D02*
X160575708Y-115204471D01*
X160728901Y-121170553D02*
X160836322Y-121108112D01*
X160836322Y-121108112D02*
X160938716Y-121037733D01*
X160841614Y-115490485D02*
X160712233Y-115344700D01*
X160845318Y-75958372D02*
X161277382Y-75853147D01*
X160845583Y-60219232D02*
X160511679Y-60148405D01*
X160938716Y-121037733D02*
X161035024Y-120959416D01*
X160964116Y-115641562D02*
X160841614Y-115490485D01*
X161035024Y-120959416D02*
X161125776Y-120873162D01*
X161079209Y-115797666D02*
X160964116Y-115641562D01*
X161125776Y-120873162D02*
X161209649Y-120779764D01*
X161175253Y-60294479D02*
X160845583Y-60219232D01*
X161187159Y-115958533D02*
X161079209Y-115797666D01*
X161209649Y-120779764D02*
X161287172Y-120679223D01*
X161277382Y-75853147D02*
X161702567Y-75740329D01*
X161287172Y-120679223D02*
X161357286Y-120571802D01*
X161287701Y-116123897D02*
X161187159Y-115958533D01*
X161357286Y-120571802D02*
X161419992Y-120458031D01*
X161381099Y-116293230D02*
X161287701Y-116123897D01*
X161419992Y-120458031D02*
X161507040Y-120273617D01*
X161466823Y-116466532D02*
X161381099Y-116293230D01*
X161500690Y-60374084D02*
X161175253Y-60294479D01*
X161507040Y-120273617D02*
X161585092Y-120086821D01*
X161544875Y-116643274D02*
X161466823Y-116466532D01*
X161585092Y-120086821D02*
X161654413Y-119897644D01*
X161615519Y-116823190D02*
X161544875Y-116643274D01*
X161654413Y-119897644D02*
X161714738Y-119706616D01*
X161678490Y-117006017D02*
X161615519Y-116823190D01*
X161702567Y-75740329D02*
X162120079Y-75620076D01*
X161714738Y-119706616D02*
X161766596Y-119514264D01*
X161733523Y-117191754D02*
X161678490Y-117006017D01*
X161766596Y-119514264D02*
X161809723Y-119320589D01*
X161781148Y-117379608D02*
X161733523Y-117191754D01*
X161809723Y-119320589D02*
X161844383Y-119125856D01*
X161820571Y-117569314D02*
X161781148Y-117379608D01*
X161821629Y-60457986D02*
X161500690Y-60374084D01*
X161844383Y-119125856D02*
X161870313Y-118930329D01*
X161852056Y-117761137D02*
X161820571Y-117569314D01*
X161870313Y-118930329D02*
X161888040Y-118734802D01*
X161875604Y-117954018D02*
X161852056Y-117761137D01*
X161888040Y-118734802D02*
X161897300Y-118539011D01*
X161890950Y-118148222D02*
X161875604Y-117954018D01*
X161897300Y-118539011D02*
X161898094Y-118343484D01*
X161898094Y-118343484D02*
X161890950Y-118148222D01*
X162120079Y-75620076D02*
X162529918Y-75492468D01*
X162138071Y-60546129D02*
X161821629Y-60457986D01*
X162450014Y-60638450D02*
X162138071Y-60546129D01*
X162529918Y-75492468D02*
X162931820Y-75357663D01*
X162757195Y-60734888D02*
X162450014Y-60638450D01*
X162931820Y-75357663D02*
X163325254Y-75215767D01*
X163059613Y-60835387D02*
X162757195Y-60734888D01*
X163325254Y-75215767D02*
X163709958Y-75066913D01*
X163357004Y-60939882D02*
X163059613Y-60835387D01*
X163649369Y-61048316D02*
X163357004Y-60939882D01*
X163709958Y-75066913D02*
X164085666Y-74911206D01*
X163936706Y-61160626D02*
X163649369Y-61048316D01*
X164085666Y-74911206D02*
X164452113Y-74748778D01*
X164218751Y-61276757D02*
X163936706Y-61160626D01*
X164452113Y-74748778D02*
X164809301Y-74579762D01*
X164495505Y-61396645D02*
X164218751Y-61276757D01*
X164766967Y-61520229D02*
X164495505Y-61396645D01*
X164809301Y-74579762D02*
X165156169Y-74404291D01*
X165032609Y-61647451D02*
X164766967Y-61520229D01*
X165156169Y-74404291D02*
X165493248Y-74222443D01*
X165292694Y-61778250D02*
X165032609Y-61647451D01*
X165493248Y-74222443D02*
X165819478Y-74034377D01*
X165546958Y-61912568D02*
X165292694Y-61778250D01*
X165795401Y-62050329D02*
X165546958Y-61912568D01*
X165819478Y-74034377D02*
X166135126Y-73840200D01*
X166037759Y-62191510D02*
X165795401Y-62050329D01*
X166135126Y-73840200D02*
X166439661Y-73640043D01*
X166274297Y-62336025D02*
X166037759Y-62191510D01*
X166439661Y-73640043D02*
X166732819Y-73434012D01*
X166504484Y-62483795D02*
X166274297Y-62336025D01*
X166728321Y-62634819D02*
X166504484Y-62483795D01*
X166732819Y-73434012D02*
X167014071Y-73222266D01*
X166945808Y-62788965D02*
X166728321Y-62634819D01*
X167014071Y-73222266D02*
X167283681Y-73004911D01*
X167156945Y-62946233D02*
X166945808Y-62788965D01*
X167283681Y-73004911D02*
X167540591Y-72782053D01*
X167361204Y-63106517D02*
X167156945Y-62946233D01*
X167540591Y-72782053D02*
X167785066Y-72553824D01*
X167558847Y-63269792D02*
X167361204Y-63106517D01*
X167749611Y-63435976D02*
X167558847Y-63269792D01*
X167785066Y-72553824D02*
X168016576Y-72320356D01*
X167933497Y-63604992D02*
X167749611Y-63435976D01*
X168016576Y-72320356D02*
X168234857Y-72081781D01*
X168110503Y-63776839D02*
X167933497Y-63604992D01*
X168234857Y-72081781D02*
X168439379Y-71838180D01*
X168280100Y-63951410D02*
X168110503Y-63776839D01*
X168439379Y-71838180D02*
X168630408Y-71589710D01*
X168442819Y-64128655D02*
X168280100Y-63951410D01*
X168597865Y-64308518D02*
X168442819Y-64128655D01*
X168630408Y-71589710D02*
X168807150Y-71336504D01*
X168745502Y-64490948D02*
X168597865Y-64308518D01*
X168807150Y-71336504D02*
X168969339Y-71078641D01*
X168885731Y-64675865D02*
X168745502Y-64490948D01*
X168969339Y-71078641D02*
X169093693Y-70892984D01*
X169018022Y-64863216D02*
X168885731Y-64675865D01*
X169093693Y-70892984D02*
X169210639Y-70705156D01*
X169142905Y-65052922D02*
X169018022Y-64863216D01*
X169210639Y-70705156D02*
X169319647Y-70515318D01*
X169259587Y-65244983D02*
X169142905Y-65052922D01*
X169319647Y-70515318D02*
X169420982Y-70323574D01*
X169368330Y-65439266D02*
X169259587Y-65244983D01*
X169420982Y-70323574D02*
X169514380Y-70130111D01*
X169469136Y-65635746D02*
X169368330Y-65439266D01*
X169514380Y-70130111D02*
X169600105Y-69935008D01*
X169561740Y-65834368D02*
X169469136Y-65635746D01*
X169600105Y-69935008D02*
X169677628Y-69738449D01*
X169645878Y-66035081D02*
X169561740Y-65834368D01*
X169677628Y-69738449D02*
X169747478Y-69540515D01*
X169721549Y-66237804D02*
X169645878Y-66035081D01*
X169747478Y-69540515D02*
X169809125Y-69341389D01*
X169789017Y-66442459D02*
X169721549Y-66237804D01*
X169809125Y-69341389D02*
X169862836Y-69141179D01*
X169847490Y-66649019D02*
X169789017Y-66442459D01*
X169862836Y-69141179D02*
X169908344Y-68940017D01*
X169897496Y-66857431D02*
X169847490Y-66649019D01*
X169908344Y-68940017D02*
X169945650Y-68738061D01*
X169938507Y-67067590D02*
X169897496Y-66857431D01*
X169945650Y-68738061D02*
X169975019Y-68535417D01*
X169970786Y-67279468D02*
X169938507Y-67067590D01*
X169975019Y-68535417D02*
X169995921Y-68332243D01*
X169993804Y-67493013D02*
X169970786Y-67279468D01*
X169995921Y-68332243D02*
X170008356Y-68128673D01*
X170007827Y-67708145D02*
X169993804Y-67493013D01*
X170008356Y-68128673D02*
X170012590Y-67924812D01*
X170012590Y-67924812D02*
X170007827Y-67708145D01*
M02*
