<?xml version="1.0" encoding="UTF-8" standalone="no"?>
<!-- Created with Inkscape (http://www.inkscape.org/) -->

<svg
   width="210mm"
   height="297mm"
   viewBox="0 0 210 297"
   version="1.1"
   id="svg1793"
   inkscape:version="1.2.2 (732a01da63, 2022-12-09)"
   sodipodi:docname="AMAMW_F.Mask.svg"
   xmlns:inkscape="http://www.inkscape.org/namespaces/inkscape"
   xmlns:sodipodi="http://sodipodi.sourceforge.net/DTD/sodipodi-0.dtd"
   xmlns="http://www.w3.org/2000/svg"
   xmlns:svg="http://www.w3.org/2000/svg">
  <sodipodi:namedview
     id="namedview1795"
     pagecolor="#ffffff"
     bordercolor="#000000"
     borderopacity="0.25"
     inkscape:showpageshadow="2"
     inkscape:pageopacity="0.0"
     inkscape:pagecheckerboard="0"
     inkscape:deskcolor="#d1d1d1"
     inkscape:document-units="mm"
     showgrid="false"
     inkscape:zoom="0.72515432"
     inkscape:cx="397.15684"
     inkscape:cy="563.32837"
     inkscape:window-width="2400"
     inkscape:window-height="1271"
     inkscape:window-x="2391"
     inkscape:window-y="-9"
     inkscape:window-maximized="1"
     inkscape:current-layer="layer1" />
  <defs
     id="defs1790" />
  <g
     inkscape:label="Layer 1"
     inkscape:groupmode="layer"
     id="layer1">
    <g
       id="White_2_"
       inkscape:label="F.Mask"
       style="display:inline"
       transform="matrix(0.26458333,0,0,0.26458333,55.174246,79.584638)">
	<g
   id="g844">
		<path
   fill="#ffffff"
   d="m 162.644,27.196 c 0.115,0 0.301,0.072 0.373,0.101 l 0.172,0.086 -0.015,-0.201 c 0,-0.387 -0.458,-0.559 -0.788,-0.559 -0.674,0 -1.203,0.602 -1.203,1.261 0,1.046 0.988,1.633 1.934,1.633 1.118,0 1.992,-0.745 1.992,-1.877 -0.015,-1.118 -1.004,-1.891 -1.834,-2.464 -0.616,-0.473 -0.917,-0.874 -0.917,-1.189 0,-0.416 0.401,-0.602 0.759,-0.602 0.387,0 1.075,0.516 1.305,0.702 l 0.2,0.172 v -1.476 l -0.172,0.086 c -0.043,0.015 -0.086,0.043 -0.114,0.043 -0.029,0 -0.072,-0.028 -0.158,-0.071 -0.33,-0.172 -0.745,-0.315 -1.117,-0.315 -0.875,0 -1.662,0.501 -1.662,1.447 0,0.559 0.329,1.075 0.744,1.418 0.431,0.373 0.875,0.731 1.318,1.075 0.373,0.301 0.674,0.759 0.674,1.247 0,0.602 -0.444,0.945 -1.018,0.945 -0.501,0 -1.002,-0.287 -1.002,-0.845 0,-0.172 0.057,-0.315 0.156,-0.444 0.115,-0.13 0.23,-0.187 0.373,-0.173 z"
   id="path786" />

		<path
   fill="#ffffff"
   d="m 205.935,29.546 h 2.736 c 1.834,0 3.354,-0.917 3.354,-2.895 0,-0.888 -0.258,-1.562 -0.917,-2.121 -0.731,-0.63 -3.797,-1.705 -3.797,-1.705 v -3.31 h -1.376 c 0,0 0.344,0.401 0.344,0.673 v 8.683 c -0.001,0.259 -0.344,0.675 -0.344,0.675 z m 1.376,-5.76 c 0,0 1.834,0.788 3.081,1.404 0.443,0.229 0.587,0.802 0.587,1.433 0,1.433 -1.003,1.963 -2.321,1.963 h -1.347 z"
   id="path788" />

		<path
   fill="#ffffff"
   d="m 193.626,46.746 h 4.943 l 0.244,-1.275 c 0,0 -0.373,0.315 -0.674,0.315 H 195 v -4.943 h 1.72 c 0.243,0 0.674,0.301 0.674,0.301 v -1.562 c 0,0 -0.431,0.301 -0.674,0.301 H 195 v -2.207 h 2.723 c 0.301,0 0.688,0.315 0.688,0.315 l -0.229,-1.275 h -4.557 c 0,0 0.344,0.358 0.344,0.674 v 8.683 c 0.001,0.357 -0.343,0.673 -0.343,0.673 z"
   id="path790" />

		<path
   fill="#ffffff"
   d="m 201.798,29.56 c 0.717,0 1.304,-0.158 1.734,-0.544 -0.086,0.244 -0.316,0.53 -0.316,0.53 h 1.72 c 0,0 -0.344,-0.416 -0.344,-0.673 V 23.17 c 0,-0.272 0.344,-0.673 0.344,-0.673 h -1.376 c 0,0 0,0.215 0,0.444 -0.113,-0.043 -0.344,-0.143 -0.615,-0.258 -0.373,-0.158 -0.76,-0.186 -1.16,-0.186 -1.906,0 -3.253,1.647 -3.253,3.496 -0.001,1.891 1.289,3.567 3.266,3.567 z m 0.072,-6.075 c 0.572,0 1.26,0.258 1.689,0.645 v 4.069 c -0.486,0.287 -0.888,0.416 -1.475,0.416 -1.563,0 -2.508,-1.103 -2.508,-2.622 0.001,-1.347 0.89,-2.508 2.294,-2.508 z"
   id="path792" />

		<path
   fill="#ffffff"
   d="m 165.118,43.049 c 0,-1.948 -0.875,-3.367 -2.967,-3.367 -0.615,0 -1.232,0.387 -1.604,1.06 -0.559,-0.788 -1.39,-1.06 -2.335,-1.06 -0.473,0 -0.945,0.229 -1.305,0.63 v -0.63 h -1.375 c 0,0 0.344,0.401 0.344,0.673 v 5.703 c 0,0.258 -0.344,0.673 -0.344,0.673 h 1.719 c 0,0 -0.344,-0.416 -0.344,-0.673 v -4.915 c 0.316,-0.33 0.76,-0.501 1.305,-0.501 1.461,0 1.92,1.132 1.92,2.421 v 2.995 c 0,0.272 -0.344,0.673 -0.344,0.673 h 1.733 c 0,0 -0.345,-0.401 -0.345,-0.673 v -3.009 c 0,-0.73 -0.129,-1.361 -0.371,-1.862 0.328,-0.358 0.773,-0.544 1.346,-0.544 1.462,0 1.92,1.132 1.92,2.421 v 2.995 c 0,0.272 -0.344,0.673 -0.344,0.673 h 1.734 c 0,0 -0.344,-0.401 -0.344,-0.673 v -3.01 z"
   id="path794" />

		<path
   fill="#ffffff"
   d="m 166.037,29.546 h 1.72 c 0,0 -0.344,-0.416 -0.344,-0.673 v -2.751 l 2.221,2.607 c 0.271,0.33 0.329,0.43 0.329,0.458 0,0.129 -0.071,0.201 -0.071,0.201 l -0.158,0.158 h 2.049 l -0.172,-0.158 c 0,0 -0.271,-0.258 -0.631,-0.616 l -2.449,-2.866 2.32,-2.693 c 0.201,-0.287 0.588,-0.544 0.588,-0.559 l 0.244,-0.157 h -2.221 l 0.186,0.157 c 0.072,0.058 0.158,0.158 0.158,0.201 0.014,0.043 0.014,0.086 -0.158,0.258 l -2.234,2.594 v -6.19 h -1.376 c 0,0 0.344,0.401 0.344,0.673 v 8.683 c -0.001,0.257 -0.345,0.673 -0.345,0.673 z"
   id="path796" />

		<path
   fill="#ffffff"
   d="m 155.554,28.873 0.316,-1.519 h 3.008 l 0.301,1.519 c 0.059,0.272 -0.271,0.688 -0.271,0.688 h 1.719 c 0,0 -0.387,-0.416 -0.443,-0.688 l -1.863,-8.654 c -0.057,-0.272 0.272,-0.688 0.272,-0.688 h -2.45 c 0,0 0.344,0.401 0.272,0.688 l -1.862,8.654 c -0.058,0.243 -0.444,0.688 -0.444,0.688 h 1.72 c -0.002,-0.001 -0.346,-0.402 -0.275,-0.688 z m 1.806,-8.368 h 0.014 l 1.304,5.989 h -2.622 z"
   id="path798" />

		<path
   fill="#ffffff"
   d="m 152.776,19.559 c -0.028,-0.63 0.401,-1.175 0.401,-1.175 0,0 -0.458,0.229 -0.688,0.602 -0.2,0.344 -0.315,0.717 -0.315,1.061 0,0.387 0.229,0.773 0.659,0.773 0.358,0 0.645,-0.272 0.645,-0.63 0,-0.201 -0.071,-0.358 -0.2,-0.473 -0.143,-0.129 -0.3,-0.187 -0.502,-0.158 z"
   id="path800" />

		<path
   fill="#ffffff"
   d="m 118.21,198.461 c -0.307,-0.177 -0.608,-0.362 -0.907,-0.556 -0.037,-0.024 -0.075,-0.047 -0.111,-0.07 -0.698,-0.46 -1.373,-0.962 -2.017,-1.512 l -2.518,-2.791 -0.808,-0.893 c -6.4,-8.21 -11.77,-17.939 -16.45,-29.76 -4.19,-10.6 -7.56,-22.48 -10.6,-37.39 -0.619,-3.042 -1.167,-6.055 -1.653,-9.038 -1.371,-8.398 -2.215,-16.546 -2.51,-24.315 -0.08,-2.109 -0.088,-4.288 -0.063,-6.496 0.047,-4.341 0.276,-8.841 0.727,-13.48 0.174,-1.783 0.41,-3.527 0.674,-5.25 0.163,-1.06 0.339,-2.108 0.535,-3.143 0.38,-2.008 0.809,-3.975 1.311,-5.867 0.872,-3.266 1.837,-6.395 2.885,-9.371 1.077,-3.066 2.243,-5.97 3.49,-8.687 0.706,-1.537 1.464,-3.042 2.258,-4.521 0.018,-0.033 0.036,-0.065 0.054,-0.098 0.375,-0.697 0.758,-1.388 1.148,-2.072 0.073,-0.127 0.148,-0.252 0.221,-0.379 0.339,-0.589 0.68,-1.175 1.027,-1.755 0.1,-0.167 0.201,-0.33 0.301,-0.495 0.324,-0.536 0.649,-1.071 0.978,-1.599 0.124,-0.199 0.249,-0.394 0.373,-0.591 0.306,-0.487 0.611,-0.973 0.919,-1.453 0.174,-0.272 0.349,-0.54 0.523,-0.81 0.25,-0.386 0.499,-0.771 0.749,-1.153 0.377,-0.577 0.754,-1.148 1.13,-1.716 0.005,-0.008 0.011,-0.017 0.017,-0.025 -1.342,-0.301 -2.721,-0.454 -4.109,-0.454 -2.77,0 -5.541,0.618 -8.012,1.787 l -4.119,2.661 c -2.416,2.071 -4.249,4.682 -5.395,7.721 -2.373,4.588 -4.223,9.542 -5.521,14.776 -1.879,7.577 -2.949,13.894 -3.366,19.881 -0.322,4.631 -0.371,9.626 -0.154,15.718 0.275,7.698 0.657,14.814 1.166,21.754 0.963,13.126 2.375,24.735 4.316,35.488 1.074,5.949 2.366,11.799 3.84,17.385 0.73,2.771 1.558,5.623 2.458,8.48 l 0.532,1.696 c 1.13,3.618 2.299,7.359 3.832,10.888 2.004,4.614 4.862,9.421 8.736,14.693 2.551,3.472 7.439,6.024 12.454,6.504 0.575,0.055 1.162,0.083 1.743,0.083 v 0 c 3.816,0 7.585,-1.182 10.701,-3.342 -0.175,-0.091 -0.346,-0.191 -0.519,-0.287 -0.088,-0.047 -0.178,-0.095 -0.266,-0.146 z"
   id="path802" />

		<path
   fill="#ffffff"
   d="m 211.357,37.676 c 0.302,0 0.688,0.315 0.688,0.315 l -0.23,-1.275 h -4.556 c 0,0 0.344,0.358 0.344,0.674 v 8.683 c 0,0.358 -0.344,0.673 -0.344,0.673 h 4.943 l 0.243,-1.275 c 0,0 -0.372,0.315 -0.674,0.315 h -3.137 v -4.943 h 1.719 c 0.244,0 0.674,0.301 0.674,0.301 v -1.562 c 0,0 -0.43,0.301 -0.674,0.301 h -1.719 v -2.207 z"
   id="path804" />

		<path
   fill="#ffffff"
   d="m 86.3,253.939 c 0.05,0.061 0.1,0.13 0.15,0.2 0.33,0.45 0.02,0.88 -0.4,1 -0.36,0.141 -0.85,0.04 -1.02,-0.43 -0.02,-0.05 -0.04,-0.11 -0.06,-0.16 -2.67,-3.33 -9.53,-6.57 -13.51,-5.03 -5.23,2.04 -8.31,7.4 -6.61,12.78 6.17,-1.57 12.41,-1.9 18.74,-2.44 5.53,-0.46 12.77,-0.63 18.07,-2.77 -0.1,-1.74 -2.11,-3.5 -3.96,-4.43 -0.57,-0.29 -1.13,-0.49 -1.61,-0.591 -3.35,-0.699 -6.75,0.171 -9.95,1.2 0.05,0.232 0.1,0.452 0.16,0.671 z"
   id="path806" />

		<path
   fill="#ffffff"
   d="m 176.18,213.63 c -1.91,0.37 -5.26,2.1 -5.75,4.29 5.44,2.939 13.22,4.01 19.18,5.149 5.7,1.08 11.341,2.19 16.771,4.271 2.229,-5.07 -0.26,-12.66 -6.29,-13.88 -3.98,-0.811 -9.81,0.96 -12.81,3.91 -0.04,0.069 -0.07,0.13 -0.11,0.199 -0.16,0.32 -0.44,0.4 -0.71,0.341 -0.53,-0.021 -0.99,-0.721 -0.521,-1.23 0.051,-0.06 0.11,-0.11 0.16,-0.16 0.08,-0.17 0.17,-0.359 0.271,-0.56 -3.021,-1.38 -6.802,-2.99 -10.191,-2.33 z"
   id="path808" />

		<path
   fill="#ffffff"
   d="m 216.291,29.517 c 1.978,0 3.438,-1.519 3.438,-3.496 0,-1.963 -1.461,-3.496 -3.438,-3.496 -1.991,0 -3.438,1.533 -3.438,3.496 0,1.978 1.447,3.496 3.438,3.496 z m 0,-6.046 c 1.476,0 2.45,1.103 2.45,2.55 0,1.447 -0.988,2.55 -2.45,2.55 -1.49,0 -2.437,-1.103 -2.437,-2.55 0,-1.433 0.961,-2.55 2.437,-2.55 z"
   id="path810" />

		<path
   fill="#ffffff"
   d="m 133.021,87.063 c 0.896,-12.068 3.038,-24.727 6.552,-38.716 1.107,-4.412 -0.057,-9.979 -2.965,-14.184 -0.674,-0.976 -1.445,-1.887 -2.301,-2.723 0.029,0.136 0.047,0.273 0.073,0.41 0.032,0.166 0.062,0.332 0.089,0.498 0.083,0.505 0.149,1.011 0.191,1.518 0.004,0.052 0.016,0.102 0.02,0.154 0.111,1.564 0.034,3.1 -0.208,4.605 -0.031,0.188 -0.054,0.378 -0.089,0.565 -0.02,0.104 -0.048,0.206 -0.07,0.31 -0.066,0.316 -0.132,0.631 -0.213,0.944 -0.325,1.247 -0.775,2.466 -1.349,3.656 l -0.348,0.53 -0.092,0.142 c -3.382,5.177 -6.189,10.526 -8.367,15.929 -0.28,0.696 -0.553,1.393 -0.813,2.09 -0.005,0.019 -0.01,0.038 -0.016,0.056 -1.682,5.615 -2.811,11.622 -3.347,17.829 -0.002,0.025 -0.005,0.05 -0.007,0.075 -0.013,0.404 -0.019,0.816 -0.027,1.225 -0.082,3.938 0.037,8.09 0.374,12.726 0.132,1.803 0.295,3.674 0.493,5.639 0.71,7.09 1.77,14.19 3.15,21.12 0.485,2.154 1.013,4.278 1.559,6.384 0.644,2.481 1.323,4.928 2.044,7.322 0.534,1.771 1.083,3.521 1.657,5.233 1.212,3.62 2.392,6.871 3.588,9.878 0.752,1.891 1.512,3.681 2.288,5.402 0.383,0.851 0.77,1.69 1.164,2.51 0.252,0.456 0.531,0.91 0.795,1.365 1.052,1.813 2.191,3.623 3.434,5.441 1.19,1.739 2.455,3.487 3.842,5.264 0.294,0.378 0.558,0.791 0.816,1.209 0.054,0.087 0.118,0.164 0.171,0.254 0.161,0.272 0.297,0.568 0.442,0.854 0.137,0.266 0.283,0.521 0.406,0.799 0.111,0.249 0.199,0.515 0.299,0.771 0.131,0.335 0.269,0.665 0.38,1.013 0.081,0.251 0.141,0.512 0.212,0.769 0.102,0.368 0.209,0.733 0.29,1.11 0.058,0.267 0.094,0.538 0.141,0.808 0.065,0.379 0.135,0.755 0.18,1.139 0.033,0.284 0.046,0.57 0.067,0.856 0.027,0.375 0.059,0.749 0.066,1.127 0.007,0.299 -0.007,0.596 -0.014,0.895 -0.009,0.367 -0.015,0.733 -0.043,1.101 -0.023,0.304 -0.065,0.604 -0.103,0.905 -0.033,0.265 -0.048,0.532 -0.091,0.795 0.709,-0.364 1.393,-0.773 2.041,-1.222 3.981,-2.755 6.796,-7.047 7.721,-11.775 l 0.291,-5.064 c -0.261,-3.283 -1.355,-6.382 -3.251,-9.146 -2.156,-2.664 -4.46,-5.576 -6.553,-8.619 -1.453,-2.113 -2.869,-4.471 -4.456,-7.417 -3.468,-7.137 -6.171,-14.77 -8.044,-22.703 -1.847,-9.864 -2.542,-20.507 -2.069,-31.656 z"
   id="path812" />

		<path
   fill="#ffffff"
   d="m 222.183,36.716 h -1.719 c 0,0 0.344,0.401 0.344,0.674 v 6.375 h 1.375 c 0,0 -0.344,-0.415 -0.344,-0.673 V 37.39 c 0,-0.273 0.344,-0.674 0.344,-0.674 z"
   id="path814" />

		<path
   fill="#ffffff"
   d="m 151.272,19.559 c -0.029,-0.63 0.4,-1.175 0.4,-1.175 0,0 -0.458,0.229 -0.688,0.602 -0.2,0.344 -0.314,0.717 -0.314,1.061 0,0.387 0.229,0.773 0.658,0.773 0.358,0 0.645,-0.272 0.645,-0.63 0,-0.201 -0.07,-0.358 -0.2,-0.473 -0.143,-0.129 -0.315,-0.187 -0.501,-0.158 z"
   id="path816" />

		<path
   fill="#ffffff"
   d="m 224.101,36.716 c -0.357,0 -0.645,0.272 -0.645,0.63 0,0.187 0.072,0.344 0.215,0.473 0.129,0.129 0.301,0.172 0.487,0.158 0.028,0.63 -0.401,1.175 -0.401,1.175 0,0 0.459,-0.244 0.688,-0.602 0.215,-0.344 0.316,-0.716 0.316,-1.06 0,-0.402 -0.231,-0.774 -0.66,-0.774 z"
   id="path818" />

		<path
   fill="#ffffff"
   d="m 225.605,36.716 c -0.344,0 -0.645,0.272 -0.645,0.63 0,0.187 0.071,0.344 0.215,0.473 0.129,0.129 0.301,0.172 0.487,0.158 0.028,0.63 -0.401,1.175 -0.401,1.175 0,0 0.473,-0.244 0.688,-0.602 0.215,-0.344 0.315,-0.716 0.315,-1.06 10e-4,-0.402 -0.214,-0.774 -0.659,-0.774 z"
   id="path820" />

		<path
   fill="#ffffff"
   d="m 221.968,46.101 c 0,-0.358 -0.301,-0.631 -0.645,-0.631 -0.373,0 -0.631,0.272 -0.631,0.631 0,0.372 0.258,0.645 0.631,0.645 0.358,0 0.645,-0.287 0.645,-0.645 z"
   id="path822" />

		<path
   fill="#ffffff"
   d="m 226.56,22.497 h -1.719 c 0,0 0.344,0.401 0.344,0.673 v 4.915 c -0.314,0.329 -0.745,0.501 -1.304,0.501 -1.462,0 -1.92,-1.132 -1.92,-2.421 V 23.17 c 0,-0.272 0.344,-0.673 0.344,-0.673 h -1.733 c 0,0 0.344,0.401 0.344,0.673 v 3.009 c 0,1.949 0.874,3.367 2.966,3.367 0.473,0 0.946,-0.229 1.304,-0.63 v 0.63 h 1.375 c 0,0 -0.344,-0.416 -0.344,-0.673 V 23.17 c -0.001,-0.273 0.343,-0.673 0.343,-0.673 z"
   id="path824" />

		<path
   fill="#ffffff"
   d="m 171.402,40.355 v 3.869 c -0.2,0.96 -0.788,1.547 -1.819,1.547 -1.462,0 -1.92,-1.132 -1.92,-2.421 v -2.995 c 0,-0.272 0.344,-0.673 0.344,-0.673 h -1.734 c 0,0 0.344,0.401 0.344,0.673 v 3.009 c 0,1.949 0.875,3.367 2.967,3.367 0.773,0 1.547,-0.587 1.819,-1.619 v 1.433 c 0,1.447 -0.345,2.708 -2.063,2.708 -0.745,0 -1.347,-0.487 -1.891,-0.946 0,0 0.043,0.659 0.529,1.218 0.387,0.416 0.932,0.602 1.576,0.602 2.25,0 2.88,-1.604 2.88,-3.582 v -6.189 c 0,-0.272 0.345,-0.673 0.345,-0.673 h -1.376 c -0.001,-10e-4 -0.001,0.4 -0.001,0.672 z"
   id="path826" />

		<path
   fill="#ffffff"
   d="m 231.542,22.195 c 0,0 -0.43,0.301 -0.673,0.301 h -0.96 v -2.321 h -1.375 c 0,0 0.344,0.401 0.344,0.673 v 1.648 h -0.961 c -0.243,0 -0.673,-0.301 -0.673,-0.301 v 1.562 c 0,0 0.43,-0.301 0.673,-0.301 h 0.961 v 5.416 c 0,0.258 -0.344,0.673 -0.344,0.673 h 1.719 c 0,0 -0.344,-0.416 -0.344,-0.673 v -5.416 h 0.96 c 0.243,0 0.673,0.301 0.673,0.301 z"
   id="path828" />

		<path
   fill="#ffffff"
   d="m 219.35,39.61 c 0,-1.978 -1.519,-2.895 -3.353,-2.895 h -2.736 c 0,0 0.344,0.401 0.344,0.674 v 8.683 c 0,0.272 -0.344,0.673 -0.344,0.673 h 1.719 c 0,0 -0.344,-0.401 -0.344,-0.673 v -3.138 c 0,0 0.187,-0.029 0.473,-0.101 l 2.407,3.109 c 0.258,0.373 0.015,0.802 0.015,0.802 h 1.819 c 0,0 -0.344,-0.344 -0.53,-0.63 l -2.607,-3.539 c 1.718,-0.429 3.137,-0.873 3.137,-2.965 z m -1.634,1.448 c -1.246,0.63 -3.08,0.917 -3.08,0.917 v -4.299 h 1.347 c 1.318,0 2.321,0.53 2.321,1.963 0,0.631 -0.143,1.189 -0.588,1.419 z"
   id="path830" />

		<path
   fill="#ffffff"
   d="m 189.839,1.116 c -23.747,0 -44.466,8.297 -51.952,20.721 -0.318,0.453 -0.616,0.91 -0.897,1.371 -1.429,-2.56 -3.28,-4.856 -5.505,-6.769 -4.561,-3.92 -10.387,-6.079 -16.405,-6.079 -0.671,0 -1.331,0.03 -2.016,0.092 l -6.107,1.256 -0.357,0.129 c -0.504,0.183 -1,0.38 -1.472,0.585 -0.121,0.052 -0.239,0.107 -0.343,0.158 -0.373,0.168 -0.743,0.34 -1.105,0.525 -0.129,0.066 -0.256,0.135 -0.462,0.25 -0.307,0.165 -0.613,0.331 -0.916,0.511 -0.159,0.094 -0.315,0.193 -0.47,0.292 l -0.207,0.131 c -0.215,0.135 -0.429,0.271 -0.626,0.406 -0.202,0.137 -0.399,0.281 -0.596,0.425 l -0.186,0.136 c -0.159,0.116 -0.318,0.232 -0.462,0.345 -0.272,0.211 -0.538,0.432 -0.803,0.655 l -0.238,0.202 C 98.38,16.416 98.045,16.375 97.721,16.352 97.452,16.331 97.184,16.323 96.915,16.316 l -0.397,-0.014 c -0.279,-0.011 -0.557,-0.021 -0.836,-0.021 l -0.135,0.001 c -0.283,0.003 -0.566,0.018 -0.849,0.035 l -0.403,0.021 c -0.308,0.013 -0.615,0.029 -0.918,0.059 -0.31,0.03 -0.618,0.073 -0.926,0.119 l -0.405,0.056 c -0.274,0.035 -0.548,0.073 -0.819,0.123 -0.336,0.061 -0.67,0.138 -1.003,0.218 l -0.377,0.086 c -0.253,0.055 -0.507,0.112 -0.766,0.183 -0.285,0.078 -0.565,0.169 -0.845,0.263 l -0.394,0.126 c -0.289,0.089 -0.576,0.18 -0.898,0.299 -0.082,0.031 -0.162,0.063 -0.244,0.098 -0.656,0.251 -1.214,0.487 -1.748,0.741 L 80.1,21.788 79.519,22.22 c -0.105,0.089 -0.207,0.182 -0.283,0.254 -2.087,1.833 -3.841,3.969 -5.212,6.344 -0.648,1.121 -1.207,2.274 -1.662,3.432 -2.515,4.91 -4.496,10.246 -5.89,15.865 -1.972,7.95 -3.096,14.618 -3.54,20.985 -0.051,0.741 -0.094,1.494 -0.133,2.254 -0.218,4.25 -0.229,8.744 -0.035,14.146 0.017,0.464 0.034,0.925 0.052,1.384 -11.484,0.416 -20.99,6.123 -25.006,15.104 -3.868,8.647 -1.149,17.231 1.231,22.936 0.545,1.307 1.173,2.618 1.837,4.006 1.29,2.697 2.721,5.689 3.275,8.277 -0.234,0.461 -0.428,0.938 -0.58,1.427 -0.927,0.872 -1.724,1.884 -2.431,3.073 -1.192,2.004 -1.437,3.943 -1.615,5.359 -0.046,0.368 -0.108,0.858 -0.167,1.086 l -0.504,0.764 -0.087,0.278 c -0.678,1.286 -1.107,2.666 -1.278,4.109 -0.351,2.953 0.461,5.924 2.291,8.398 l 0.219,0.292 c 0.341,0.436 0.708,0.834 1.091,1.187 l 0.606,0.519 0.07,0.043 c 0.942,0.702 1.999,1.176 3.124,1.406 1.057,1.262 2.237,1.986 3.083,2.382 2.114,0.99 4.771,1.219 7.109,0.653 0.558,-0.133 1.097,-0.306 1.609,-0.517 l 0.42,-0.066 0.474,-0.295 c 1.735,0.271 3.52,0.086 5.211,-0.546 0.376,-0.14 0.753,-0.297 1.143,-0.491 0.317,-0.159 0.598,-0.329 0.917,-0.534 2.718,-1.663 4.409,-4.143 4.913,-7.135 0.527,-0.341 1.026,-0.734 1.489,-1.175 0.05,0.204 0.1,0.407 0.149,0.608 0.29,1.177 0.582,2.351 0.887,3.506 0.755,2.865 1.611,5.818 2.541,8.765 l 0.53,1.691 c 0.614,1.966 1.337,4.255 2.136,6.527 0.69,1.969 1.303,3.559 1.933,5.012 0.524,1.205 1.128,2.473 1.786,3.749 l 0.253,0.482 c 0.235,0.449 0.476,0.899 0.724,1.349 l 0.413,0.737 c 0.202,0.357 0.408,0.716 0.62,1.076 0.178,0.303 0.359,0.607 0.548,0.92 0.175,0.29 0.355,0.583 0.539,0.88 0.224,0.36 0.451,0.724 0.676,1.072 0.053,0.084 0.107,0.168 0.161,0.251 -0.346,0.439 -0.678,0.883 -0.996,1.331 -0.656,0.928 -1.294,1.919 -1.895,2.947 -6.891,11.787 -7.647,26.909 -2.265,45.003 -0.213,-0.065 -0.428,-0.129 -0.648,-0.189 l -0.479,-0.124 c -0.316,-0.079 -0.633,-0.15 -0.963,-0.218 -0.167,-0.033 -0.332,-0.065 -0.515,-0.099 -0.345,-0.06 -0.689,-0.109 -1.089,-0.16 -0.142,-0.019 -0.284,-0.037 -0.383,-0.046 -0.495,-0.051 -0.99,-0.084 -1.472,-0.096 h -0.496 c -0.34,0 -0.679,0.007 -1.005,0.025 -0.159,0.009 -0.317,0.021 -0.557,0.044 -0.331,0.028 -0.659,0.065 -0.986,0.112 -0.204,0.029 -0.406,0.062 -0.579,0.093 -0.334,0.06 -0.664,0.132 -1.056,0.227 -0.158,0.037 -0.316,0.076 -0.489,0.124 -0.367,0.103 -0.729,0.22 -1.101,0.354 l -0.38,0.134 c -8.052,3.134 -12.408,13.19 -9.34,21.541 l 0.283,0.805 0.303,0.391 c 0.196,0.314 0.419,0.609 0.667,0.882 l 0.292,0.317 0.158,0.131 c 0.301,0.309 0.612,0.595 0.93,0.855 l 0.226,0.178 c 0.37,0.289 0.737,0.543 1.141,0.786 0.105,0.063 0.212,0.121 0.323,0.179 0.273,0.154 0.622,0.341 1.021,0.515 0.134,0.058 0.27,0.111 0.413,0.163 0.306,0.123 0.617,0.24 0.965,0.349 0.102,0.031 0.205,0.06 0.313,0.088 0.073,0.021 0.147,0.042 0.221,0.063 l 0.636,0.31 h 0.723 c 0.843,0.156 1.668,0.254 2.556,0.353 0.156,0.018 0.315,0.029 0.498,0.039 0.981,0.093 2.027,0.14 3.112,0.14 3.47,0 6.883,-0.457 10.184,-0.898 1.067,-0.144 2.118,-0.284 3.148,-0.404 0.775,-0.092 1.666,-0.157 2.622,-0.23 0.752,-0.057 1.539,-0.117 2.313,-0.188 l 0.315,-0.03 c 0.368,-0.034 0.735,-0.072 1.098,-0.113 l 0.531,-0.064 c 0.329,-0.041 0.657,-0.082 0.947,-0.124 0.178,-0.025 0.355,-0.054 0.532,-0.083 l 0.208,-0.034 c 0.28,-0.046 0.558,-0.091 0.853,-0.146 0.188,-0.035 0.372,-0.074 0.556,-0.114 l 0.18,-0.039 c 0.292,-0.062 0.582,-0.123 0.845,-0.188 0.196,-0.048 0.387,-0.101 0.578,-0.155 l 0.243,-0.067 c 0.279,-0.076 0.557,-0.155 0.831,-0.243 0.211,-0.068 0.415,-0.143 0.619,-0.22 l 0.208,-0.076 c 0.279,-0.101 0.556,-0.203 0.82,-0.315 0.224,-0.095 0.439,-0.197 0.73,-0.343 l 78.633,-35.517 c 0.224,0.045 0.443,0.089 0.654,0.131 1.049,0.208 2.038,0.405 2.801,0.599 4.281,1.093 9.609,2.451 14.82,2.947 1.031,0.098 2.143,0.188 3.282,0.188 10e-4,0 10e-4,0 10e-4,0 3.172,0 5.787,-0.738 7.964,-2.252 1.109,-0.586 2.019,-1.513 2.612,-2.693 3.689,-7.382 1.582,-16.543 -4.897,-21.307 -2.853,-2.103 -6.402,-3.214 -10.264,-3.214 -1.121,0 -2.248,0.094 -3.362,0.276 0.167,-0.267 0.332,-0.532 0.494,-0.796 l 0.053,-0.086 c 0.29,-0.472 0.578,-0.942 0.845,-1.417 2.914,-5.205 4.766,-11.32 5.662,-18.704 0.611,-5.116 -0.033,-10.449 -1.863,-15.422 -2.572,-6.998 -7.263,-12.533 -13.207,-15.586 -3.114,-1.6 -6.391,-2.41 -9.74,-2.41 -3.197,0 -6.462,0.719 -9.98,2.196 -1.652,0.693 -3.254,1.504 -4.859,2.407 -0.191,-0.383 -0.393,-0.762 -0.604,-1.135 -0.418,-0.74 -0.799,-1.356 -1.198,-1.94 l -1.064,-1.351 c -1.085,-1.353 -2.057,-2.597 -2.969,-3.802 -0.999,-1.321 -1.795,-2.417 -2.507,-3.451 -0.909,-1.32 -1.851,-2.834 -2.87,-4.616 -0.378,-0.664 -0.762,-1.352 -1.158,-2.085 -0.803,-1.656 -1.586,-3.402 -2.329,-5.191 -1.227,-2.958 -2.334,-6.039 -3.305,-9.19 2.697,0.929 5.483,1.489 8.294,1.667 1.977,0.124 3.888,-0.095 5.375,-0.315 1.521,-0.224 3.023,-0.64 4.468,-1.237 1.302,-0.538 3.013,-1.307 4.699,-2.484 1.311,-0.912 2.518,-1.883 3.585,-2.885 1.811,-1.697 3.491,-3.743 5.14,-6.255 1.219,-1.857 2.313,-3.906 3.343,-6.26 1.602,-3.653 2.954,-7.625 4.115,-12.087 1.439,-1.23 2.157,-2.587 2.516,-3.656 0.136,-0.404 0.235,-0.817 0.301,-1.235 3.16,-2.897 5.379,-6.737 7.038,-9.988 0.436,-0.859 1.346,-1.589 2.795,-2.709 1.062,-0.821 2.266,-1.751 3.416,-2.961 2.343,-2.477 2.912,-6.147 1.563,-9.2 18.993,-2.136 34.761,-9.715 41.007,-20.202 2.585,-3.72 3.943,-7.809 3.943,-11.92 C 244.843,14.844 220.683,1.116 189.839,1.116 Z m 4.495,68.796 c -2.319,2.44 -5.51,3.79 -7.119,6.96 -1.71,3.35 -4.28,7.8 -7.9,9.97 0.991,1.885 -0.201,3.211 -1.871,3.998 -10e-4,0.004 -0.002,0.008 -0.003,0.012 -1.084,4.542 -2.451,8.985 -4.328,13.266 -0.826,1.887 -1.773,3.728 -2.904,5.452 -1.238,1.887 -2.652,3.712 -4.303,5.26 -0.924,0.867 -1.926,1.66 -2.965,2.383 -1.148,0.801 -2.363,1.38 -3.658,1.915 -1.016,0.42 -2.08,0.719 -3.168,0.879 -1.41,0.208 -2.801,0.357 -4.227,0.267 -2.6,-0.164 -5.156,-0.726 -7.592,-1.645 -2.549,-0.962 -5.004,-2.146 -7.36,-3.513 -0.557,-0.323 -1.098,-0.671 -1.645,-1.01 0.222,1.487 0.46,2.962 0.732,4.414 1.853,7.844 4.532,15.41 7.96,22.465 1.562,2.898 2.96,5.228 4.394,7.312 2.074,3.016 4.364,5.911 6.53,8.59 1.743,2.538 2.835,5.317 3.276,8.298 0,-0.001 0,-0.002 0,-0.002 8.086,-5.184 16.164,-10.232 25.134,-5.626 8.941,4.591 13.273,15.83 12.118,25.462 -0.692,5.766 -2.14,11.562 -5,16.672 -1.272,2.273 -3.036,4.685 -4.416,7.215 1.196,0.631 2.165,1.549 2.53,3.074 0.23,0.94 0.16,1.761 -0.05,2.551 4.64,-3.061 11.3,-3.74 15.71,-0.49 4.53,3.33 5.64,9.62 3.24,14.42 -0.11,0.22 -0.271,0.32 -0.45,0.35 -2.25,1.82 -5.13,1.66 -7.97,1.391 -4.631,-0.44 -9.471,-1.65 -13.98,-2.801 -5.35,-1.359 -15.77,-1.979 -16.33,-9.189 -0.02,-0.3 0.12,-0.49 0.311,-0.59 0.35,-1.94 2.52,-3.74 4.63,-4.7 -0.75,-1.88 -1.021,-3.13 1.239,-4.33 1.005,-0.535 2.204,-0.855 3.441,-1.009 -0.003,0.001 -0.005,0.001 -0.007,0.001 2.401,-5.257 6.188,-10.116 7.876,-15.923 1.652,-5.682 2.8,-12.767 -0.21,-18.255 -1.771,-3.231 -4.287,-6.967 -8.249,-7.565 -6.722,-1.017 -14.009,5.16 -19.384,8.348 -0.405,0.24 -0.813,0.479 -1.222,0.717 -1.407,3.753 -3.925,7.043 -7.221,9.324 -0.89,0.615 -1.847,1.152 -2.839,1.615 -1.09,4.721 -3.953,8.98 -7.956,11.757 -3.24,2.23 -7.21,3.47 -11.2,3.47 -1.25,0 -2.51,-0.119 -3.74,-0.359 -1.473,-0.297 -2.876,-0.756 -4.213,-1.355 -3.357,2.472 -7.491,3.837 -11.683,3.837 v 0 c -0.611,0 -1.228,-0.028 -1.833,-0.086 -3.187,-0.305 -6.326,-1.417 -8.912,-3.059 0.002,10e-4 0.003,0.002 0.005,0.003 -1.998,2.006 -3.63,4.307 -4.673,6.628 -5.742,12.779 -2.643,26.591 1.941,39.197 1.593,0.313 3.157,0.883 4.142,1.896 0.173,0.178 0.312,0.348 0.431,0.513 0.014,0.021 0.031,0.041 0.045,0.061 0.109,0.158 0.193,0.311 0.259,0.46 0.01,0.022 0.02,0.045 0.029,0.067 0.06,0.149 0.101,0.296 0.123,0.439 0.002,0.016 0.003,0.031 0.005,0.048 0.098,0.788 -0.329,1.519 -0.839,2.425 0.007,0.004 0.014,0.01 0.021,0.015 0.207,0.13 0.415,0.27 0.622,0.418 0.035,0.024 0.069,0.048 0.103,0.073 0.207,0.151 0.412,0.312 0.613,0.479 0.047,0.039 0.092,0.079 0.139,0.119 0.178,0.153 0.353,0.312 0.521,0.476 0.028,0.026 0.056,0.052 0.083,0.079 0.188,0.186 0.365,0.379 0.534,0.576 0.036,0.042 0.07,0.083 0.105,0.125 0.352,0.425 0.652,0.871 0.881,1.33 0.009,0.019 0.019,0.037 0.028,0.057 0.236,0.487 0.387,0.986 0.424,1.488 0.061,0.059 0.108,0.127 0.146,0.204 0.017,0.033 0.034,0.066 0.046,0.103 0.008,0.026 0.013,0.054 0.018,0.082 0.015,0.081 0.02,0.166 10e-4,0.26 0,0.004 0,0.006 0,0.009 0,10e-4 0,0.002 -10e-4,0.003 v 0.001 c -1.35,6.97 -11.95,6.51 -17.37,7.15 -4.878,0.567 -10.412,1.62 -15.338,1.145 -0.114,-0.011 -0.231,-0.012 -0.345,-0.024 -2.442,-0.271 -4.686,-0.547 -6.357,-2.437 -0.045,-0.034 -0.086,-0.07 -0.124,-0.116 -0.044,-0.049 -0.081,-0.107 -0.109,-0.178 -0.006,-0.014 -0.016,-0.021 -0.021,-0.034 -1.976,-5.329 0.574,-12.372 6.162,-14.547 0.055,-0.021 0.112,-0.034 0.167,-0.055 0.264,-0.098 0.531,-0.187 0.803,-0.263 0.124,-0.034 0.249,-0.062 0.374,-0.092 0.216,-0.053 0.433,-0.101 0.652,-0.14 0.133,-0.024 0.267,-0.045 0.402,-0.064 0.223,-0.032 0.446,-0.057 0.672,-0.076 0.126,-0.011 0.252,-0.024 0.379,-0.031 0.279,-0.016 0.559,-0.02 0.84,-0.018 0.073,0.001 0.145,-0.004 0.218,-0.002 0.353,0.009 0.708,0.033 1.062,0.069 0.104,0.01 0.208,0.026 0.311,0.039 0.257,0.032 0.514,0.068 0.771,0.113 0.126,0.022 0.251,0.047 0.377,0.072 0.24,0.049 0.479,0.103 0.717,0.162 0.123,0.031 0.245,0.062 0.367,0.095 0.267,0.073 0.531,0.155 0.794,0.242 0.086,0.028 0.173,0.053 0.259,0.083 0.348,0.121 0.692,0.253 1.032,0.397 0.069,0.029 0.137,0.063 0.206,0.093 0.268,0.118 0.534,0.241 0.795,0.373 0.112,0.056 0.221,0.115 0.332,0.174 0.218,0.115 0.433,0.234 0.645,0.359 0.114,0.067 0.228,0.135 0.341,0.205 0.212,0.131 0.418,0.268 0.623,0.408 0.099,0.067 0.199,0.133 0.295,0.202 0.287,0.206 0.568,0.419 0.838,0.642 -0.192,-1.11 -0.1,-2.216 0.67,-3.289 0.578,-0.805 1.281,-1.397 2.07,-1.825 -5.366,-15.396 -8.181,-33.809 1.842,-47.952 1.002,-1.414 2.17,-2.771 3.459,-4.041 -3.303,-4.673 -5.81,-9.003 -7.625,-13.183 -1.553,-3.575 -2.729,-7.342 -3.867,-10.983 l -0.531,-1.694 c -0.905,-2.871 -1.737,-5.739 -2.471,-8.523 -1.481,-5.611 -2.779,-11.485 -3.857,-17.459 -1.947,-10.787 -3.363,-22.427 -4.329,-35.587 -0.154,-2.105 -0.293,-4.237 -0.425,-6.386 0.001,0.017 0.002,0.034 0.003,0.051 -9.125,-1.603 -22.234,1.612 -19.691,13.112 1.638,7.408 6.979,15.237 8.18,22.993 1.61,0.507 2.699,1.693 2.364,3.699 0.562,0.191 1.109,0.419 1.642,0.679 0.128,0.062 0.261,0.114 0.387,0.183 0.04,0.02 0.07,0.06 0.1,0.08 0.024,0 0.042,-0.005 0.064,-0.008 0.006,-0.001 0.01,-0.003 0.016,-0.003 0.083,0.002 0.165,0.021 0.248,0.027 0.226,0.019 0.453,0.037 0.672,0.073 0.016,0.004 0.028,0.009 0.043,0.012 0.022,0.004 0.046,0.006 0.065,0.015 0.86,0.177 1.69,0.545 2.446,1.054 2.157,1.446 3.714,4.032 3.719,6.55 0,0.135 0.005,0.271 -0.003,0.404 -0.025,0.396 -0.105,0.8 -0.224,1.199 -0.498,1.674 -1.761,3.242 -3.362,3.654 -0.478,0.124 -0.986,0.147 -1.513,0.038 0.003,0.021 0.014,0.034 0.016,0.049 10e-4,0.003 0.003,0.005 0.004,0.008 0.142,0.595 0.214,1.164 0.242,1.716 0.098,1.974 -0.599,3.632 -2.433,4.754 -0.169,0.104 -0.323,0.215 -0.512,0.31 -0.201,0.101 -0.399,0.181 -0.596,0.254 -1.628,0.608 -3.092,0.302 -4.413,-0.466 -0.13,0.141 -0.26,0.28 -0.39,0.42 -0.02,0.04 -0.04,0.08 -0.07,0.11 -10e-4,10e-4 -10e-4,10e-4 -0.002,0.002 0,0 0,0.001 0,0.001 -0.085,0.088 -0.187,0.161 -0.283,0.238 -0.012,0.009 -0.022,0.019 -0.034,0.028 -0.06,0.061 -0.13,0.11 -0.2,0.17 -0.03,0.021 -0.07,0.04 -0.1,0.07 -0.08,0.05 -0.15,0.11 -0.23,0.16 -0.011,0.007 -0.021,0.005 -0.031,0.009 -0.035,0.016 -0.07,0.026 -0.105,0.035 -0.375,0.2 -0.786,0.348 -1.212,0.449 -1.179,0.285 -2.48,0.195 -3.502,-0.283 -1.369,-0.64 -2,-1.979 -2.259,-3.429 -0.164,0.227 -0.366,0.413 -0.625,0.528 -0.008,0.003 -0.014,0.009 -0.022,0.012 -0.018,0.008 -0.039,0.011 -0.057,0.018 -0.075,0.028 -0.151,0.056 -0.235,0.071 -0.912,0.164 -1.589,-0.019 -2.191,-0.526 -0.002,-0.002 -0.004,-0.003 -0.005,-0.004 -0.006,-0.005 -0.011,-0.011 -0.016,-0.016 -0.195,-0.167 -0.382,-0.367 -0.566,-0.602 -0.008,-0.01 -0.013,-0.021 -0.021,-0.031 -1.098,-1.414 -1.545,-3.033 -1.357,-4.618 0.101,-0.854 0.377,-1.7 0.853,-2.497 0.009,-0.041 0.032,-0.082 0.057,-0.124 0.008,-0.014 0.008,-0.027 0.018,-0.042 1.51,-2.05 0.71,-4.62 1.99,-6.771 0.82,-1.38 1.76,-2.289 3.019,-3.009 -0.123,-0.067 -0.215,-0.187 -0.209,-0.373 0.031,-0.991 0.486,-1.846 1.196,-2.539 -0.261,-5.399 -3.847,-11.216 -5.758,-15.794 -2.471,-5.92 -4.03,-12.437 -1.287,-18.571 4.288,-9.588 15.753,-12.987 25.741,-11.564 0.001,0.035 0.003,0.068 0.005,0.103 -0.116,-2.442 -0.224,-4.916 -0.315,-7.472 -0.219,-6.126 -0.169,-11.153 0.156,-15.818 0.42,-6.043 1.498,-12.412 3.391,-20.044 1.316,-5.307 3.193,-10.332 5.577,-14.935 1.181,-3.14 3.105,-5.881 5.697,-8.097 l 4.225,-2.73 c 4.119,-1.955 8.876,-2.397 13.223,-1.319 2.221,-2.448 4.87,-4.236 7.938,-5.348 l 5.09,-1.08 c 0.55,-0.05 1.04,-0.07 1.52,-0.07 4.71,0 9.26,1.69 12.82,4.75 2.812,2.417 4.86,5.617 5.948,9.134 1.358,1.137 2.552,2.439 3.545,3.876 3.059,4.421 4.278,10.293 3.106,14.959 -3.5,13.936 -5.635,26.542 -6.525,38.539 -0.247,5.814 -0.157,11.483 0.238,16.979 3.615,2.515 7.334,4.948 11.373,6.722 1.783,0.722 3.631,1.298 5.529,1.607 1.074,0.112 2.156,0.129 3.232,0.026 0.838,-0.146 1.66,-0.368 2.457,-0.667 0.889,-0.42 1.727,-0.936 2.52,-1.515 1.186,-0.966 2.25,-2.067 3.209,-3.257 1.584,-2.137 2.848,-4.495 3.908,-6.932 0.518,-1.262 0.986,-2.544 1.414,-3.839 0.625,-1.895 1.165,-3.815 1.657,-5.749 -1.776,-1.198 -2.769,-3.212 -1.938,-5.723 0.03,-0.07 0.061,-0.13 0.11,-0.18 -1.601,-2.55 -1.49,-5.27 -2.98,-7.99 -0.88,-1.17 -1.67,-2.66 -3.25,-2.92 -0.229,-0.04 -0.34,-0.19 -0.35,-0.37 0,-0.01 0,-0.01 0,-0.02 -0.04,-0.09 -0.06,-0.19 -0.03,-0.3 0.66,-2.78 3.29,-4.78 6.101,-4.69 2.47,0.08 3.149,2.35 4.05,4.31 0.03,0.01 0.05,0.02 0.07,0.04 2.88,2.29 7.76,-14.5 14.079,-10.11 0.271,-0.17 0.551,-0.33 0.83,-0.46 2.87,-1.38 5.79,-0.42 6.561,2.69 0.72,0.15 1.399,0.65 1.97,1.64 0.627,1.079 0.467,2.579 -0.403,3.499 z M 235.55,42.265 c 0.248,-0.309 0.485,-0.621 0.71,-0.936 -6.161,10.575 -25.037,18.274 -47.376,18.274 -3.021,0 -5.979,-0.141 -8.852,-0.411 l -28.197,8.23 3.669,-2.272 25.483,-7.437 -28.199,8.229 16.404,-10.16 -1.977,1.224 c -16.479,-4.181 -27.834,-12.978 -27.834,-23.157 0,-3.148 1.09,-6.163 3.076,-8.951 -0.057,0.097 -0.105,0.196 -0.16,0.294 5.976,-10.729 24.991,-18.576 47.541,-18.576 27.34,0 49.504,11.53 49.504,25.753 10e-4,3.507 -1.352,6.849 -3.792,9.896 z"
   id="path832" />

		<path
   fill="#ffffff"
   d="m 192.132,28.385 c -0.315,0.158 -0.688,0.229 -1.117,0.229 -1.548,0 -2.479,-1.074 -2.508,-2.593 0.057,0.072 0.114,0.144 0.186,0.201 0.445,0.43 1.061,0.587 1.807,0.587 0.931,-0.014 1.646,-0.416 2.307,-1.046 0.988,-0.931 0.529,-2.808 -0.932,-3.138 -0.401,-0.086 -0.76,-0.129 -1.16,-0.129 -1.906,0 -3.253,1.647 -3.253,3.496 0,1.892 1.29,3.568 3.267,3.568 0.745,0 1.375,-0.172 1.805,-0.602 0.56,-0.545 0.603,-1.218 0.603,-1.218 0,0 -0.433,0.387 -1.005,0.645 z m -1.332,-4.9 c 0.344,0 0.544,0.072 0.845,0.187 0.587,0.215 0.802,0.96 0.387,1.433 -0.487,0.53 -1.117,0.745 -1.834,0.759 -0.702,0 -1.046,-0.143 -1.619,-0.487 0.215,-1.104 1.074,-1.892 2.221,-1.892 z"
   id="path834" />

		<path
   fill="#ffffff"
   d="m 204.369,46.746 h 1.72 c 0,0 -0.344,-0.401 -0.344,-0.673 V 37.39 c 0,-0.272 0.344,-0.674 0.344,-0.674 h -1.72 c 0,0 0.344,0.401 0.344,0.674 v 6.161 c -0.157,-0.501 -0.688,-1.204 -1.017,-1.619 -0.215,-0.243 -0.474,-0.544 -0.803,-0.931 -0.33,-0.387 -0.588,-0.673 -0.745,-0.874 -0.76,-0.96 -1.146,-1.863 -1.146,-2.708 V 37.39 c 0,-0.272 0.344,-0.674 0.344,-0.674 h -1.72 c 0,0 0.344,0.401 0.344,0.674 v 8.683 c 0,0.272 -0.344,0.673 -0.344,0.673 h 1.72 c 0,0 -0.344,-0.401 -0.344,-0.673 v -6.204 c 0.157,0.473 0.659,1.218 1.533,2.235 0.946,1.06 2.178,2.45 2.178,3.94 v 0.029 c 0,0.271 -0.344,0.673 -0.344,0.673 z"
   id="path836" />

		<path
   fill="#ffffff"
   d="m 192.452,36.716 h -1.719 c 0,0 0.344,0.401 0.344,0.674 v 8.683 c 0,0.272 -0.344,0.673 -0.344,0.673 h 1.719 c 0,0 -0.344,-0.401 -0.344,-0.673 V 37.39 c 0,-0.273 0.344,-0.674 0.344,-0.674 z"
   id="path838" />

		<path
   fill="#ffffff"
   d="m 188.332,36.716 c 0,0 0.286,0.387 0.187,0.659 l -2.594,8.067 -1.533,-4.083 1.29,-2.507 c 0.101,-0.301 0.501,-0.659 0.501,-0.659 h -1.748 c 0,0 0.287,0.373 0.187,0.659 l -0.745,1.719 -0.76,-1.719 c -0.1,-0.287 0.172,-0.659 0.172,-0.659 h -1.748 c 0,0 0.402,0.344 0.502,0.659 l 1.289,2.536 -1.518,4.055 -2.594,-8.067 c -0.101,-0.272 0.186,-0.659 0.186,-0.659 h -1.762 c 0,0 0.387,0.358 0.502,0.659 l 2.822,8.711 c 0.086,0.272 -0.187,0.659 -0.187,0.659 h 2.021 c 0,0 -0.272,-0.373 -0.172,-0.659 l 1.232,-3.195 1.231,3.195 c 0.114,0.272 -0.157,0.659 -0.157,0.659 h 2.02 c 0,0 -0.286,-0.387 -0.2,-0.659 l 2.837,-8.711 c 0.086,-0.272 0.487,-0.659 0.487,-0.659 h -1.748 z"
   id="path840" />

		<path
   fill="#ffffff"
   d="m 176.677,29.546 h 1.72 c 0,0 -0.344,-0.416 -0.344,-0.673 v -4.915 c 0.315,-0.33 0.759,-0.501 1.304,-0.501 1.461,0 1.92,1.132 1.92,2.421 v 2.995 c 0,0.272 -0.344,0.673 -0.344,0.673 h 1.734 c 0,0 -0.345,-0.401 -0.345,-0.673 v -3.009 c 0,-0.73 -0.129,-1.361 -0.372,-1.862 0.329,-0.358 0.773,-0.544 1.347,-0.544 1.462,0 1.92,1.132 1.92,2.421 v 2.995 c 0,0.272 -0.344,0.673 -0.344,0.673 h 1.733 c 0,0 -0.344,-0.401 -0.344,-0.673 v -3.009 c 0,-1.948 -0.874,-3.367 -2.966,-3.367 -0.616,0 -1.232,0.387 -1.604,1.06 -0.559,-0.788 -1.391,-1.06 -2.336,-1.06 -0.473,0 -0.945,0.229 -1.304,0.63 v -0.63 h -1.376 c 0,0 0.344,0.401 0.344,0.673 v 5.703 c 10e-4,0.256 -0.343,0.672 -0.343,0.672 z"
   id="path842" />

	</g>

	<path
   fill="#ffffff"
   d="m 123.373,178.533 c 0.652,0.239 1.658,0.095 2.376,-0.325 0.699,-0.41 1.223,-1.092 1.437,-1.87 0.223,-0.809 0.108,-1.687 -0.315,-2.409 -0.393,-0.67 -0.961,-1.103 -1.902,-1.448 -0.241,-0.087 -0.483,-0.18 -0.723,-0.275 -0.836,-0.375 -1.522,-0.751 -2.116,-1.158 -0.181,-0.155 -0.315,-0.284 -0.443,-0.418 l -0.169,-0.176 0.064,-0.235 c 0.026,-0.096 0.055,-0.191 0.087,-0.285 0.306,-0.62 0.671,-1.195 1.171,-1.866 0.466,-0.587 0.94,-1.149 1.414,-1.712 0.824,-0.979 1.676,-1.99 2.418,-3.051 0.729,-1.046 2.332,-3.768 1.441,-6.448 -0.766,-2.305 -2.75,-4.076 -5.444,-4.86 -1.572,-0.457 -3.266,-0.551 -4.904,-0.642 -0.811,-0.045 -1.621,-0.09 -2.422,-0.176 -0.709,-0.116 -1.31,-0.265 -1.861,-0.456 -0.26,-0.128 -0.46,-0.24 -0.654,-0.366 -0.161,-0.141 -0.259,-0.237 -0.354,-0.338 l -0.142,-0.249 -0.058,-0.268 0.001,-0.119 c 0.051,-0.249 0.098,-0.406 0.15,-0.563 0.341,-0.689 0.748,-1.325 1.344,-2.117 l 0.605,-0.755 c 0.908,-1.122 1.846,-2.282 2.499,-3.563 0.853,-1.672 1.265,-3.06 1.336,-4.5 0.117,-2.371 -1.426,-4.716 -3.752,-5.704 -1.116,-0.474 -2.015,-0.776 -2.916,-0.977 -0.76,-0.169 -1.529,-0.302 -2.296,-0.434 l -0.467,-0.081 c -1.455,-0.251 -2.958,-0.51 -4.377,-1.035 -0.29,-0.139 -0.533,-0.273 -0.768,-0.423 l -0.341,-0.418 -0.044,-0.167 c -0.018,-0.275 -0.016,-0.464 -0.005,-0.654 0.071,-0.354 0.151,-0.637 0.247,-0.916 0.237,-0.483 0.5,-0.92 0.805,-1.35 1.291,-1.549 2.86,-2.792 4.377,-3.995 l 0.342,-0.271 c 0.761,-0.604 1.549,-1.229 2.259,-1.917 0.643,-0.623 1.432,-1.459 1.841,-2.409 0.414,-0.962 0.612,-1.522 0.647,-2.5 0.032,-0.895 -0.237,-1.594 -0.621,-2.483 -0.526,-1.221 -1.711,-2.168 -2.913,-3.01 -1.059,-0.742 -2.275,-1.289 -3.451,-1.817 l -0.426,-0.192 c -0.897,-0.407 -1.84,-0.762 -2.752,-1.106 -0.408,-0.154 -0.817,-0.308 -1.224,-0.467 l -0.616,-0.247 c -1.157,-0.507 -2.003,-0.956 -2.754,-1.461 l -0.594,-0.4 0.632,-0.336 c 0.141,-0.075 0.284,-0.146 0.428,-0.213 2.425,-0.935 4.992,-1.336 7.416,-1.668 0.399,-0.051 0.796,-0.099 1.194,-0.146 1.06,-0.125 2.155,-0.256 3.207,-0.463 0.701,-0.138 1.319,-0.59 1.741,-1.271 0.485,-0.785 0.639,-1.745 0.413,-2.568 -0.214,-0.777 -0.738,-1.458 -1.438,-1.868 -0.465,-0.272 -0.966,-0.405 -1.53,-0.405 -0.281,0 -0.579,0.032 -0.91,0.097 -0.32,0.063 -0.643,0.112 -0.966,0.157 l -1.04,0.135 c -2.339,0.301 -4.758,0.613 -7.081,1.166 -1.622,0.386 -3.125,0.919 -4.47,1.586 -1.49,0.739 -2.677,1.823 -3.256,2.974 -0.923,1.831 -0.884,3.838 0.108,5.652 0.643,1.174 1.78,2.248 3.477,3.282 1.57,0.957 3.336,1.623 5.043,2.267 0.672,0.253 1.345,0.507 2.008,0.777 1.156,0.5 2.372,1.06 3.478,1.794 l 0.432,0.287 -0.362,0.372 c -0.816,0.836 -1.758,1.562 -2.668,2.264 -0.371,0.286 -0.739,0.57 -1.096,0.859 -1.751,1.419 -3.705,3.172 -4.919,5.414 -1.229,2.27 -1.951,5.699 -0.292,8.52 1.083,1.841 3.098,3.171 5.989,3.952 1.029,0.277 2.124,0.454 3.182,0.625 1.475,0.238 2.999,0.485 4.433,1.009 l 0.092,0.042 0.3,0.163 -0.092,0.33 c -0.053,0.189 -0.114,0.375 -0.181,0.561 -0.383,0.803 -0.86,1.575 -1.477,2.404 l -0.602,0.748 c -0.931,1.149 -1.894,2.338 -2.552,3.65 -0.621,1.238 -0.938,2.369 -1.03,3.668 -0.078,1.112 0.231,2.354 0.918,3.691 0.617,1.201 1.716,2.082 2.604,2.716 0.855,0.611 1.926,0.981 2.657,1.207 1.644,0.502 3.443,0.607 5.183,0.709 l 0.274,0.017 c 0.724,0.043 1.446,0.087 2.166,0.164 0.599,0.1 1.101,0.222 1.559,0.375 0.195,0.097 0.322,0.17 0.446,0.247 l 0.272,0.219 -0.109,0.347 c -0.261,0.513 -0.595,1.038 -1.051,1.653 -0.421,0.526 -0.861,1.045 -1.308,1.571 -2.514,2.961 -5.113,6.022 -4.126,9.877 0.903,3.516 4.678,5.306 7.867,6.472 z"
   id="path846" />

</g>
  </g>
</svg>
