<?xml version="1.0" encoding="UTF-8" standalone="no"?>
<!-- Created with Inkscape (http://www.inkscape.org/) -->

<svg
   width="210mm"
   height="297mm"
   viewBox="0 0 210 297"
   version="1.1"
   id="svg2013"
   inkscape:version="1.2.2 (732a01da63, 2022-12-09)"
   sodipodi:docname="AMAMW_F.Cu.svg"
   xmlns:inkscape="http://www.inkscape.org/namespaces/inkscape"
   xmlns:sodipodi="http://sodipodi.sourceforge.net/DTD/sodipodi-0.dtd"
   xmlns="http://www.w3.org/2000/svg"
   xmlns:svg="http://www.w3.org/2000/svg">
  <sodipodi:namedview
     id="namedview2015"
     pagecolor="#ffffff"
     bordercolor="#000000"
     borderopacity="0.25"
     inkscape:showpageshadow="2"
     inkscape:pageopacity="0.0"
     inkscape:pagecheckerboard="0"
     inkscape:deskcolor="#d1d1d1"
     inkscape:document-units="mm"
     showgrid="false"
     inkscape:zoom="0.72515432"
     inkscape:cx="397.15684"
     inkscape:cy="561.94935"
     inkscape:window-width="2400"
     inkscape:window-height="1271"
     inkscape:window-x="2391"
     inkscape:window-y="-9"
     inkscape:window-maximized="1"
     inkscape:current-layer="layer1" />
  <defs
     id="defs2010" />
  <g
     inkscape:label="Layer 1"
     inkscape:groupmode="layer"
     id="layer1">
    <g
       id="Silver_1_"
       inkscape:label="F.Cu"
       style="display:inline"
       transform="matrix(0.26458333,0,0,0.26458333,54.078831,158.3942)">
	<g
   id="g775">
		<g
   id="g682">
			<path
   fill="#c4c6c8"
   d="m 191.895,65.202 c -0.03,-0.15 -0.07,-0.29 -0.11,-0.43 0.33,-0.07 0.66,-0.07 0.98,0 0.02,0.06 0.04,0.12 0.05,0.18 0.129,0.6 -0.791,0.85 -0.92,0.25 z"
   id="path638" />

			<path
   fill="#c4c6c8"
   d="m 184.505,63.112 c 0.279,-0.21 0.569,-0.4 0.869,-0.57 0.021,0.01 0.03,0.02 0.051,0.03 0.5,0.35 0.02,1.18 -0.48,0.82 -0.15,-0.11 -0.3,-0.2 -0.44,-0.28 z"
   id="path640" />

			<path
   fill="#c4c6c8"
   d="m 185.484,72.412 c -0.27,0.55 -1.1,0.06 -0.82,-0.48 0.011,-0.03 0.03,-0.05 0.04,-0.08 0.32,0.05 0.62,0.17 0.88,0.36 -0.029,0.07 -0.069,0.14 -0.1,0.2 z"
   id="path642" />

			<path
   fill="#c4c6c8"
   d="m 184.664,71.932 c -0.279,0.54 0.551,1.03 0.82,0.48 0.03,-0.06 0.07,-0.13 0.1,-0.2 0.24,0.17 0.45,0.38 0.631,0.63 0.369,0.49 -0.46,0.97 -0.82,0.48 -0.3,-0.41 -0.71,-0.57 -1.21,-0.53 -0.61,0.05 -0.61,-0.91 0,-0.96 0.18,-0.01 0.35,-0.01 0.52,0.02 -0.011,0.03 -0.03,0.05 -0.041,0.08 z"
   id="path644" />

			<path
   fill="#c4c6c8"
   d="m 182.055,76.762 c -0.08,0.3 -0.16,0.59 -0.24,0.89 -0.37,-0.25 -0.75,-0.47 -1.14,-0.68 0.609,-0.11 1.109,-0.18 1.38,-0.21 z"
   id="path646" />

			<path
   fill="#c4c6c8"
   d="m 191.784,64.771 c -1.109,-3.62 -5.18,-2.4 -7.37,-0.31 -1.71,1.64 -3.369,3.61 -3.949,5.96 -0.29,-0.15 -0.61,-0.22 -0.931,-0.19 0.62,-2.67 2.63,-5.4 4.971,-7.12 0.14,0.08 0.29,0.17 0.439,0.28 0.5,0.36 0.98,-0.47 0.48,-0.82 -0.021,-0.01 -0.03,-0.02 -0.051,-0.03 0.271,-0.17 0.551,-0.33 0.83,-0.46 2.87,-1.38 5.79,-0.42 6.561,2.69 -0.32,-0.069 -0.65,-0.069 -0.98,0 z"
   id="path648" />

			<path
   fill="#c4c6c8"
   d="m 180.404,70.692 c -0.12,0.6 -1.04,0.34 -0.92,-0.26 0.01,-0.07 0.03,-0.13 0.05,-0.2 0.32,-0.03 0.641,0.04 0.931,0.19 -0.021,0.09 -0.04,0.18 -0.061,0.27 z"
   id="path650" />

			<path
   fill="#c4c6c8"
   d="m 181.145,70.902 c 0.43,0.44 -0.24,1.11 -0.68,0.68 -0.311,-0.32 -0.73,-0.56 -1.17,-0.35 -0.551,0.26 -1.04,-0.56 -0.48,-0.82 0.24,-0.11 0.48,-0.18 0.72,-0.18 -0.02,0.07 -0.04,0.13 -0.05,0.2 -0.12,0.6 0.8,0.86 0.92,0.26 0.021,-0.09 0.04,-0.18 0.061,-0.27 0.249,0.11 0.469,0.27 0.679,0.48 z"
   id="path652" />

			<path
   fill="#c4c6c8"
   d="m 179.104,86.481 c 0.08,0.12 0.15,0.24 0.21,0.36 -0.27,0.17 -0.56,0.32 -0.85,0.46 -0.051,-0.11 -0.12,-0.22 -0.19,-0.34 -0.33,-0.519 0.5,-0.999 0.83,-0.48 z"
   id="path654" />

			<path
   fill="#c4c6c8"
   d="m 176.904,74.521 c 1.851,0.48 3.59,1.14 5.19,2.18 l -0.04,0.06 c -0.271,0.03 -0.771,0.1 -1.38,0.21 -1.271,-0.68 -2.61,-1.16 -4.021,-1.53 -0.598,-0.159 -0.348,-1.079 0.251,-0.92 z"
   id="path656" />

			<path
   fill="#c4c6c8"
   d="m 182.295,76.832 c 0.42,0.27 0.229,0.83 -0.24,0.89 -0.971,0.1 -8.01,1.51 -6.87,2.8 0.399,0.46 -0.271,1.14 -0.68,0.67 -2.131,-2.42 3.319,-3.74 6.17,-4.22 0.39,0.21 0.77,0.43 1.14,0.68 0.08,-0.3 0.16,-0.59 0.24,-0.89 l 0.04,-0.06 c 0.069,0.04 0.13,0.09 0.2,0.13 z"
   id="path658" />

			<path
   fill="#c4c6c8"
   d="m 185.374,62.542 c -0.3,0.17 -0.59,0.36 -0.869,0.57 -5.641,-3.18 -8.25,11.36 -12.57,10.82 -0.271,-0.4 -0.5,-0.85 -0.71,-1.32 0.03,0.01 0.05,0.02 0.07,0.04 2.88,2.29 7.76,-14.5 14.079,-10.11 z"
   id="path660" />

			<path
   fill="#c4c6c8"
   d="m 171.225,72.612 c 0.21,0.47 0.439,0.92 0.71,1.32 -0.42,-0.04 -0.86,-0.24 -1.311,-0.6 -0.029,-0.02 -0.05,-0.04 -0.069,-0.07 h -0.01 c -0.011,-0.04 -0.03,-0.08 -0.051,-0.12 -0.01,-0.01 -0.01,-0.03 -0.02,-0.04 v -0.01 c -0.079,-0.341 0.38,-0.71 0.751,-0.48 z"
   id="path662" />

			<path
   fill="#c4c6c8"
   d="m 174.734,75.481 c 0.62,-0.01 0.62,0.94 0,0.96 -2.25,0.05 -3.32,-1.25 -4.18,-3.18 0.02,0.03 0.04,0.05 0.069,0.07 0.45,0.36 0.891,0.56 1.311,0.6 0.611,0.931 1.43,1.581 2.8,1.55 z"
   id="path664" />

			<path
   fill="#c4c6c8"
   d="m 170.494,73.142 c 0.021,0.04 0.04,0.08 0.051,0.12 -0.04,-0.05 -0.061,-0.1 -0.07,-0.16 0.009,0.01 0.009,0.03 0.019,0.04 z"
   id="path666" />

			<path
   fill="#c4c6c8"
   d="m 167.685,84.592 c 0.3,-0.33 0.979,-0.08 0.81,0.44 -0.05,0.16 -0.1,0.32 -0.13,0.48 -0.1,-0.1 -0.18,-0.2 -0.26,-0.31 -0.151,-0.201 -0.291,-0.41 -0.42,-0.61 z"
   id="path668" />

			<path
   fill="#c4c6c8"
   d="m 179.314,86.842 c 1.64,3.12 -2.69,4.72 -5.29,4.85 -4.04,0.19 -7.86,-2.66 -6.45,-6.92 0.03,-0.07 0.061,-0.13 0.11,-0.18 0.13,0.2 0.27,0.41 0.42,0.61 0.08,0.11 0.16,0.21 0.26,0.31 -0.76,3.31 2.431,5.51 5.66,5.22 1.82,-0.16 5.64,-1.02 4.44,-3.43 0.291,-0.14 0.581,-0.29 0.85,-0.46 z"
   id="path670" />

			<path
   fill="#c4c6c8"
   d="m 187.215,76.872 c -1.71,3.35 -4.28,7.8 -7.9,9.97 -0.06,-0.12 -0.13,-0.24 -0.21,-0.36 -0.33,-0.52 -1.16,-0.04 -0.83,0.48 0.07,0.12 0.14,0.23 0.19,0.34 -0.98,0.47 -2.03,0.77 -3.16,0.84 -2.65,0.16 -5.21,-0.53 -6.94,-2.63 0.03,-0.16 0.08,-0.32 0.13,-0.48 0.17,-0.52 -0.51,-0.77 -0.81,-0.44 -1.601,-2.55 -1.49,-5.27 -2.98,-7.99 0.33,0.45 1.051,0.1 0.891,-0.35 2.05,3.91 1.63,11.44 8.34,11.02 5.06,-0.32 8.93,-4.08 11.18,-8.41 1.79,-3.45 3.65,-5.88 6.84,-8.15 1.16,-0.82 3.24,-2.96 1.641,-4.22 -3.49,-2.74 -6.771,3.28 -8.011,5.72 -0.26,-0.19 -0.56,-0.31 -0.88,-0.36 0.92,-1.79 4.2,-6.57 7.08,-7.08 0.04,0.14 0.08,0.28 0.11,0.43 0.13,0.6 1.05,0.35 0.92,-0.25 -0.01,-0.06 -0.03,-0.12 -0.05,-0.18 0.72,0.15 1.399,0.65 1.97,1.64 0.63,1.08 0.47,2.58 -0.4,3.5 -2.321,2.44 -5.512,3.79 -7.121,6.96 z"
   id="path672" />

			<path
   fill="#c4c6c8"
   d="m 165.595,76.251 c 0.16,0.45 -0.561,0.8 -0.891,0.35 -0.279,-0.5 0.41,-0.95 0.74,-0.59 0.03,0.04 0.05,0.07 0.08,0.11 0.03,0.04 0.05,0.091 0.071,0.13 z"
   id="path674" />

			<path
   fill="#c4c6c8"
   d="m 165.444,76.012 c -0.33,-0.36 -1.02,0.09 -0.74,0.59 -0.88,-1.17 -1.67,-2.66 -3.25,-2.92 -0.229,-0.04 -0.34,-0.19 -0.35,-0.37 0.17,0.35 0.78,0.41 0.89,-0.07 0.03,-0.13 0.07,-0.27 0.11,-0.39 1.55,0.45 2.42,1.91 3.34,3.16 z"
   id="path676" />

			<path
   fill="#c4c6c8"
   d="m 162.104,72.852 c -0.04,0.12 -0.08,0.26 -0.11,0.39 -0.109,0.48 -0.72,0.42 -0.89,0.07 0,-0.01 0,-0.01 0,-0.02 0,-0.27 0.24,-0.58 0.6,-0.53 0.141,0.02 0.271,0.05 0.4,0.09 z"
   id="path678" />

			<path
   fill="#c4c6c8"
   d="m 165.654,69.362 c -1.6,0.61 -3,1.83 -3.55,3.49 -0.13,-0.04 -0.26,-0.07 -0.4,-0.09 -0.359,-0.05 -0.6,0.26 -0.6,0.53 -0.04,-0.09 -0.06,-0.19 -0.03,-0.3 0.66,-2.78 3.29,-4.78 6.101,-4.69 2.47,0.08 3.149,2.35 4.05,4.31 -0.37,-0.23 -0.83,0.14 -0.75,0.48 -0.84,-1.9 -1.901,-4.85 -4.821,-3.73 z"
   id="path680" />

		</g>

		<path
   fill="#c4c6c8"
   d="m 172.44,91.216 c -1.057,-0.23 -2.035,-0.593 -2.828,-1.097 -0.518,2.061 -1.092,4.106 -1.758,6.124 -0.428,1.295 -0.896,2.577 -1.414,3.839 -1.061,2.437 -2.324,4.795 -3.908,6.932 -0.959,1.19 -2.023,2.291 -3.209,3.257 -0.793,0.58 -1.631,1.095 -2.52,1.515 -0.797,0.299 -1.619,0.521 -2.457,0.667 -1.076,0.103 -2.158,0.086 -3.232,-0.026 -1.898,-0.309 -3.746,-0.885 -5.529,-1.607 -4.044,-1.776 -7.767,-4.212 -11.385,-6.731 0.242,3.413 0.606,6.755 1.092,10.017 0.547,0.339 1.087,0.687 1.645,1.01 2.356,1.367 4.811,2.551 7.36,3.513 2.436,0.919 4.992,1.48 7.592,1.645 1.426,0.09 2.816,-0.059 4.227,-0.267 1.088,-0.16 2.152,-0.459 3.168,-0.879 1.295,-0.535 2.51,-1.114 3.658,-1.915 1.039,-0.723 2.041,-1.516 2.965,-2.383 1.65,-1.547 3.064,-3.373 4.303,-5.26 1.131,-1.724 2.078,-3.564 2.904,-5.452 1.877,-4.281 3.244,-8.724 4.328,-13.266 0.039,-0.16 0.076,-0.321 0.113,-0.481 -1.618,0.825 -3.98,1.105 -5.115,0.845 z"
   id="path684" />

		<path
   fill="#c4c6c8"
   d="m 69.008,100.755 c -0.162,-2.645 -0.306,-5.338 -0.436,-8.086 -9.988,-1.423 -21.453,1.976 -25.741,11.564 -2.744,6.134 -1.185,12.651 1.287,18.571 1.911,4.578 5.498,10.395 5.758,15.795 1.809,-1.766 5.272,-2.478 7.622,-1.737 -1.2,-7.756 -6.542,-15.587 -8.181,-22.996 -2.543,-11.498 10.566,-14.713 19.691,-13.111 z"
   id="path686" />

		<path
   fill="#c4c6c8"
   d="m 183.09,207.85 c 2.36,0.62 4.82,1.46 5.46,4.13 0.23,0.94 0.16,1.761 -0.05,2.551 4.64,-3.061 11.3,-3.74 15.71,-0.49 4.53,3.33 5.64,9.62 3.24,14.42 -0.11,0.22 -0.271,0.32 -0.45,0.35 -2.25,1.82 -5.13,1.66 -7.97,1.391 -4.631,-0.44 -9.471,-1.65 -13.98,-2.801 -5.35,-1.359 -15.77,-1.979 -16.33,-9.189 -0.02,-0.3 0.12,-0.49 0.311,-0.59 0.35,-1.94 2.52,-3.74 4.63,-4.7 -0.75,-1.88 -1.021,-3.13 1.239,-4.33 2.329,-1.242 5.69,-1.392 8.19,-0.742 z m 4.08,4.509 c -0.771,-2 -2.49,-2.75 -4.46,-3.13 -2.28,-0.439 -8.58,-0.64 -7.66,3.181 0.26,-0.07 0.51,-0.13 0.75,-0.16 3.89,-0.561 7.62,0.81 11.12,2.399 0.3,-0.849 0.479,-1.699 0.25,-2.29 z m -3.351,13.391 c 0.011,0.01 0.021,0.03 0.03,0.04 1.3,0.25 2.44,0.45 3.3,0.64 4.351,0.93 13.21,4.22 17.891,1.95 -6.271,-2.25 -12.78,-3.21 -19.29,-4.63 -4.811,-1.04 -10.72,-2 -15.26,-4.22 1.04,2.449 4.35,3.97 7.869,4.989 0.04,-0.029 0.061,-0.06 0.11,-0.09 0.94,-0.52 1.97,-0.93 3.04,-0.54 0.93,0.34 1.611,1.201 2.31,1.861 z m -13.389,-7.83 c 5.44,2.939 13.22,4.01 19.18,5.149 5.7,1.08 11.341,2.19 16.771,4.271 2.229,-5.07 -0.26,-12.66 -6.29,-13.88 -3.98,-0.811 -9.81,0.96 -12.81,3.91 -0.04,0.069 -0.07,0.13 -0.11,0.199 -0.16,0.32 -0.44,0.4 -0.71,0.341 -0.53,-0.021 -0.99,-0.721 -0.521,-1.23 0.051,-0.06 0.11,-0.11 0.16,-0.16 0.08,-0.17 0.17,-0.359 0.271,-0.56 -3.021,-1.38 -6.801,-2.99 -10.19,-2.33 -1.911,0.37 -5.261,2.099 -5.751,4.29 z"
   id="path688" />

		<path
   fill="#c4c6c8"
   d="m 183.317,159.557 c -8.97,-4.606 -17.048,0.442 -25.134,5.626 0.069,0.466 0.125,0.936 0.162,1.41 l -0.298,5.193 c -0.208,1.068 -0.523,2.106 -0.902,3.117 0.409,-0.237 0.816,-0.477 1.222,-0.717 5.375,-3.188 12.662,-9.364 19.384,-8.348 3.962,0.599 6.478,4.334 8.249,7.565 3.01,5.488 1.862,12.573 0.21,18.255 -1.688,5.807 -5.475,10.666 -7.876,15.923 1.633,-0.202 3.332,-0.103 4.756,0.268 1.012,0.266 2.032,0.582 2.93,1.056 1.38,-2.53 3.144,-4.941 4.416,-7.215 2.86,-5.11 4.308,-10.906 5,-16.672 1.155,-9.631 -3.177,-20.871 -12.119,-25.461 z"
   id="path690" />

		<path
   fill="#c4c6c8"
   d="m 92.879,206.678 c 1.043,-2.321 2.675,-4.622 4.673,-6.628 -1.695,-1.076 -3.154,-2.377 -4.226,-3.835 -0.419,-0.57 -0.821,-1.134 -1.217,-1.694 -1.29,1.271 -2.458,2.627 -3.46,4.041 -10.023,14.144 -7.208,32.557 -1.841,47.953 1.321,-0.716 2.888,-0.969 4.521,-0.975 1.015,0 2.262,0.093 3.491,0.335 -4.584,-12.606 -7.682,-26.418 -1.941,-39.197 z"
   id="path692" />

		<g
   id="g696">
			<path
   fill="#c4c6c8"
   d="m 129.01,140.399 c 2.35,7.021 4.58,12.67 7.04,17.79 2.22,4.011 4.87,7.971 8.07,12.07 2.93,3.771 4.16,9.65 3.12,14.96 -0.971,4.97 -3.931,9.48 -8.11,12.38 -3.24,2.23 -7.21,3.47 -11.2,3.47 -1.25,0 -2.51,-0.119 -3.74,-0.359 -3.37,-0.68 -6.4,-2.16 -9.01,-4.391 l -3.33,-3.68 c -6.4,-8.21 -11.77,-17.939 -16.45,-29.76 -4.19,-10.6 -7.56,-22.48 -10.6,-37.39 -2.36,-11.6 -3.76,-22.82 -4.16,-33.35 -0.24,-6.26 -0.02,-12.98 0.66,-19.98 0.49,-5.01 1.34,-9.81 2.52,-14.26 1.77,-6.63 3.92,-12.7 6.38,-18.06 2.82,-6.15 6.48,-11.82 9.98,-17.1 2.29,-2.65 5.06,-4.56 8.29,-5.73 l 5.09,-1.08 c 0.55,-0.05 1.04,-0.07 1.52,-0.07 4.71,0 9.26,1.69 12.82,4.75 3.92,3.37 6.39,8.25 6.78,13.41 0.25,3.52 -0.4,6.91 -1.93,10.08 l -0.44,0.67 c -3.82,5.85 -6.91,11.91 -9.18,18.02 -1.7,5.65 -2.84,11.71 -3.37,17.96 -0.19,5.82 0.08,12.05 0.84,19.59 0.71,7.09 1.77,14.19 3.15,21.12 1.48,6.571 3.25,12.951 5.26,18.94 z m 6.19,18.221 c -2.48,-5.17 -4.73,-10.86 -7.1,-17.91 -2.01,-6.03 -3.79,-12.44 -5.29,-19.05 -1.38,-6.97 -2.45,-14.1 -3.16,-21.22 -0.76,-7.59 -1.03,-13.86 -0.84,-19.75 0.54,-6.34 1.69,-12.46 3.41,-18.2 2.31,-6.21 5.43,-12.34 9.29,-18.24 l 0.41,-0.62 c 1.43,-2.97 2.05,-6.19 1.8,-9.54 -0.36,-4.9 -2.71,-9.55 -6.44,-12.76 -3.39,-2.91 -7.72,-4.51 -12.2,-4.51 -0.46,0 -0.92,0.01 -1.38,0.05 l -4.96,1.05 c -3.02,1.1 -5.66,2.92 -7.8,5.4 -3.45,5.2 -7.08,10.83 -9.88,16.92 -2.43,5.31 -4.56,11.33 -6.31,17.91 -1.18,4.4 -2.02,9.14 -2.5,14.1 -0.67,6.96 -0.89,13.64 -0.66,19.85 0.4,10.48 1.79,21.65 4.15,33.2 3.03,14.86 6.38,26.69 10.55,37.23 4.64,11.729 9.97,21.38 16.29,29.5 l 3.26,3.609 c 2.44,2.08 5.33,3.48 8.54,4.13 4.84,0.95 10.16,-0.16 14.21,-2.96 3.979,-2.75 6.79,-7.05 7.71,-11.77 0.99,-5.061 -0.16,-10.63 -2.94,-14.19 -3.23,-4.149 -5.9,-8.139 -8.16,-12.229 z"
   id="path694" />

		</g>

		<path
   fill="#c4c6c8"
   d="m 146.028,186.332 0.207,-0.959 c 0.023,-0.111 0.047,-0.221 0.067,-0.332 0.989,-5.061 -0.165,-10.629 -2.94,-14.192 -3.229,-4.145 -5.899,-8.144 -8.164,-12.226 -2.482,-5.175 -4.732,-10.859 -7.095,-17.916 -2.017,-6.025 -3.796,-12.434 -5.289,-19.048 -1.389,-6.969 -2.454,-14.104 -3.167,-21.219 -0.76,-7.586 -1.028,-13.86 -0.841,-19.746 0.542,-6.345 1.691,-12.462 3.418,-18.208 2.308,-6.208 5.429,-12.334 9.287,-18.24 l 0.41,-0.621 c 1.428,-2.963 2.045,-6.191 1.803,-9.539 -0.099,-1.316 -0.343,-2.634 -0.726,-3.916 l -0.45,-1.507 1.211,1.002 c 1.396,1.154 2.618,2.484 3.633,3.953 3.059,4.421 4.278,10.293 3.106,14.959 -3.5,13.936 -5.635,26.542 -6.525,38.539 -0.469,11.062 0.22,21.632 2.049,31.401 1.853,7.844 4.532,15.41 7.96,22.465 1.562,2.898 2.96,5.228 4.394,7.312 2.074,3.016 4.364,5.911 6.53,8.59 2.015,2.934 3.164,6.189 3.438,9.706 l -0.298,5.193 c -0.98,5.035 -3.938,9.546 -8.123,12.441 -0.949,0.656 -1.97,1.232 -3.033,1.714 z M 134.307,31.44 c 0.181,0.853 0.305,1.714 0.37,2.577 0.254,3.518 -0.395,6.909 -1.927,10.08 l -0.44,0.674 c -3.818,5.845 -6.907,11.908 -9.181,18.02 -1.698,5.653 -2.835,11.706 -3.37,17.959 -0.184,5.817 0.082,12.052 0.838,19.594 0.71,7.085 1.771,14.189 3.151,21.116 1.482,6.571 3.253,12.949 5.26,18.944 2.35,7.018 4.586,12.668 7.038,17.781 2.227,4.013 4.871,7.972 8.07,12.077 2.835,3.64 4.076,9.237 3.225,14.401 0.709,-0.364 1.393,-0.773 2.041,-1.222 3.981,-2.755 6.796,-7.047 7.721,-11.775 l 0.291,-5.064 c -0.261,-3.283 -1.355,-6.382 -3.251,-9.146 -2.156,-2.664 -4.46,-5.576 -6.553,-8.619 -1.453,-2.113 -2.869,-4.471 -4.456,-7.417 -3.468,-7.137 -6.171,-14.77 -8.044,-22.703 -1.847,-9.863 -2.541,-20.505 -2.068,-31.654 0.896,-12.068 3.038,-24.727 6.552,-38.716 1.107,-4.412 -0.057,-9.979 -2.965,-14.184 -0.675,-0.975 -1.446,-1.887 -2.302,-2.723 z"
   id="path698" />

		<path
   id="Left_Bun_2_"
   fill="#c4c6c8"
   d="m 108.294,203.191 v 0 c -0.612,0 -1.229,-0.028 -1.834,-0.086 -5.273,-0.505 -10.428,-3.209 -13.133,-6.891 -3.917,-5.33 -6.81,-10.196 -8.843,-14.877 -1.553,-3.575 -2.729,-7.342 -3.867,-10.983 l -0.531,-1.694 c -0.905,-2.871 -1.737,-5.739 -2.471,-8.523 -1.481,-5.611 -2.779,-11.485 -3.857,-17.459 -1.947,-10.787 -3.363,-22.427 -4.329,-35.587 -0.51,-6.953 -0.892,-14.08 -1.167,-21.79 -0.219,-6.126 -0.169,-11.153 0.156,-15.818 0.42,-6.043 1.498,-12.412 3.391,-20.044 1.316,-5.307 3.193,-10.332 5.577,-14.935 1.181,-3.14 3.105,-5.881 5.697,-8.097 l 4.225,-2.73 c 4.207,-1.996 9.083,-2.427 13.504,-1.258 l 0.748,0.198 -0.512,0.58 -0.398,-0.163 -0.004,0.016 0.331,0.22 c -3.482,5.248 -7.116,10.88 -9.914,16.973 -2.436,5.305 -4.561,11.33 -6.315,17.908 -1.174,4.399 -2.013,9.143 -2.494,14.099 -0.675,6.961 -0.898,13.641 -0.663,19.853 0.397,10.477 1.793,21.646 4.147,33.197 3.029,14.859 6.383,26.689 10.553,37.231 4.643,11.736 9.972,21.386 16.293,29.5 l 3.256,3.612 c 1.28,1.089 2.735,2.025 4.279,2.742 l 0.72,0.333 -0.632,0.479 c -3.396,2.575 -7.627,3.994 -11.913,3.994 z M 95.783,22.722 c -2.77,0 -5.541,0.618 -8.012,1.787 l -4.119,2.661 c -2.416,2.071 -4.249,4.682 -5.395,7.721 -2.373,4.588 -4.223,9.542 -5.521,14.776 -1.879,7.577 -2.949,13.894 -3.366,19.881 -0.322,4.631 -0.371,9.626 -0.154,15.718 0.275,7.698 0.657,14.814 1.166,21.754 0.963,13.126 2.375,24.735 4.316,35.488 1.074,5.949 2.366,11.799 3.84,17.385 0.73,2.771 1.558,5.623 2.458,8.48 l 0.532,1.696 c 1.13,3.618 2.299,7.359 3.832,10.888 2.004,4.614 4.862,9.421 8.736,14.693 2.551,3.472 7.439,6.024 12.454,6.504 0.575,0.055 1.162,0.083 1.743,0.083 v 0 c 3.816,0 7.585,-1.182 10.701,-3.342 -1.355,-0.699 -2.637,-1.562 -3.82,-2.572 l -3.322,-3.683 c -6.399,-8.213 -11.773,-17.939 -16.45,-29.761 -4.191,-10.596 -7.56,-22.477 -10.601,-37.392 -2.365,-11.602 -3.767,-22.823 -4.166,-33.352 -0.237,-6.255 -0.013,-12.978 0.667,-19.981 0.486,-5.008 1.334,-9.804 2.521,-14.253 1.769,-6.63 3.912,-12.706 6.371,-18.06 2.748,-5.985 6.282,-11.512 9.697,-16.667 -1.341,-0.299 -2.72,-0.452 -4.108,-0.452 z" />

		<g
   id="g719">
			<path
   fill="#c4c6c8"
   d="m 106.818,55.972 c 1.232,-0.606 2.179,-1.597 3.329,-2.332 2.108,-1.347 4.497,0.322 5.362,2.249 0.189,0.42 0.806,0.056 0.618,-0.361 -0.702,-1.563 -1.998,-2.845 -3.795,-2.984 -2.583,-0.2 -3.744,1.76 -5.875,2.81 -0.414,0.204 -0.051,0.821 0.361,0.618 z"
   id="path701" />

			<path
   fill="#c4c6c8"
   d="m 90.798,54.577 c 1.232,-0.607 2.179,-1.597 3.329,-2.332 2.107,-1.346 4.496,0.322 5.361,2.248 0.189,0.42 0.806,0.056 0.618,-0.361 -0.702,-1.563 -1.998,-2.845 -3.794,-2.984 -2.583,-0.199 -3.744,1.76 -5.875,2.811 -0.415,0.204 -0.052,0.821 0.361,0.618 z"
   id="path703" />

			<path
   fill="#c4c6c8"
   d="m 103.374,80.005 c -0.146,-0.436 -0.837,-0.249 -0.69,0.19 0.213,0.637 0.435,1.25 0.683,1.844 -1.349,1.216 -3.718,1.127 -5.187,0.418 -0.126,-0.061 -1.257,-0.883 -1.864,-1.059 0.252,-0.457 0.469,-0.93 0.643,-1.41 0.158,-0.435 -0.534,-0.621 -0.69,-0.19 -0.63,1.74 -1.917,3.54 -3.671,4.276 -0.419,0.176 -0.235,0.869 0.19,0.69 0.305,-0.128 0.593,-0.289 0.871,-0.463 0.557,1.136 1.602,2.212 2.401,3.112 0.871,0.979 2.04,1.954 3.418,1.797 0.879,-0.1 1.681,-0.942 1.949,-1.734 0.403,-1.189 0.671,-2.227 1.5,-3.227 0.191,-0.23 0.771,-0.498 1.101,-0.818 0.374,0.688 0.812,1.346 1.359,1.973 0.304,0.349 0.808,-0.16 0.506,-0.506 -1.268,-1.451 -1.914,-3.086 -2.519,-4.893 z m -7.695,4.391 c 0.412,-0.723 1.017,-0.188 1.318,0.302 0.136,0.221 0.389,0.354 0.597,0.492 0.733,0.486 1.888,-0.404 2.275,0.745 0.131,0.389 0.09,0.78 0.076,1.18 -0.042,1.208 -1.778,0.596 -2.275,0.337 -1.056,-0.549 -2.219,-1.758 -1.991,-3.056 z m 4.658,4.309 c -0.143,0.113 -0.304,0.202 -0.485,0.26 0.16,-0.069 0.32,-0.152 0.485,-0.26 z"
   id="path705" />

			<path
   fill="#c4c6c8"
   d="m 106.26,72.544 c -2.132,-0.982 -2.532,2.348 -4.232,2.582 -0.456,0.063 -0.261,0.752 0.19,0.69 1.259,-0.173 1.798,-1.544 2.597,-2.355 0.283,-0.288 0.604,-0.411 1,-0.321 0.86,0.194 0.951,1.054 0.817,1.772 -0.24,1.284 -1.12,1.709 -2.08,2.41 -0.369,0.269 -0.012,0.891 0.361,0.618 1.087,-0.793 1.934,-1.246 2.35,-2.601 0.343,-1.118 0.12,-2.277 -1.003,-2.795 z"
   id="path707" />

			<path
   fill="#c4c6c8"
   d="m 112,55.896 c -2.083,0 -3.859,2.537 -4.541,6.093 l 4.986,2.854 -5.092,2.966 c 0.229,1.525 0.655,2.889 1.222,3.982 1.035,-0.349 2.234,-0.549 3.515,-0.549 1.217,0 2.362,0.181 3.36,0.499 0.858,-1.681 1.387,-3.986 1.387,-6.529 10e-4,-5.146 -2.165,-9.316 -4.837,-9.316 z"
   id="path709" />

			<path
   fill="#c4c6c8"
   d="m 99.328,71.81 c 0.839,-1.675 1.355,-3.954 1.355,-6.464 0,-5.145 -2.166,-9.315 -4.838,-9.315 -2.083,0 -3.859,2.536 -4.541,6.092 l 4.986,2.854 -5.093,2.966 c 0.218,1.448 0.613,2.751 1.138,3.815 1.013,-0.329 2.178,-0.517 3.419,-0.517 1.305,0 2.526,0.208 3.574,0.569 z"
   id="path711" />

			<path
   fill="#c4c6c8"
   d="m 103.636,89.56 c -1.621,0.734 -3.328,1.378 -5.126,1.432 -1.817,0.055 -3.594,-0.498 -5.292,-1.086 -0.438,-0.152 -0.624,0.541 -0.19,0.69 1.783,0.618 3.639,1.167 5.545,1.11 1.904,-0.057 3.709,-0.751 5.424,-1.528 0.178,-0.081 0.219,-0.335 0.128,-0.49 -0.105,-0.181 -0.312,-0.209 -0.489,-0.128 z"
   id="path713" />

			<path
   fill="#c4c6c8"
   d="m 91.5,75.202 c -1.249,0.271 -2.5,0.694 -3.476,1.548 -1.035,0.905 -1.471,2.234 -1.561,3.571 -0.031,0.461 0.685,0.458 0.716,0 0.078,-1.168 0.464,-2.27 1.351,-3.064 0.864,-0.775 2.05,-1.124 3.16,-1.364 0.452,-0.098 0.261,-0.789 -0.19,-0.691 z"
   id="path715" />

			<path
   fill="#c4c6c8"
   d="m 110.396,76.818 c -0.153,-0.121 -0.355,-0.15 -0.506,0 -0.125,0.125 -0.153,0.386 0,0.506 1.561,1.223 2.756,2.884 2.951,4.902 0.044,0.455 0.76,0.459 0.716,0 -0.214,-2.207 -1.44,-4.059 -3.161,-5.408 z"
   id="path717" />

		</g>

		<path
   fill="#c4c6c8"
   d="m 115.782,28.167 c 0.678,-3.525 4.172,-4.748 7.518,-4.572 0.461,0.024 0.459,-0.692 0,-0.716 -3.771,-0.199 -7.477,1.333 -8.222,5.206 -1.436,-2.312 -3.745,-5.479 -0.112,-6.956 0.422,-0.171 0.238,-0.864 -0.19,-0.69 -4.145,1.685 -2.08,5.078 -0.402,7.856 -2.172,-0.249 -5.64,-0.91 -5.139,-3.653 0.083,-0.451 -0.607,-0.644 -0.69,-0.19 -0.644,3.527 3.566,4.326 6.213,4.6 -0.599,2.968 -3.432,4.742 -6.409,4.398 -0.458,-0.053 -0.453,0.664 0,0.716 3.213,0.371 6.355,-1.604 7.069,-4.773 0.762,0.72 1.481,1.476 2.042,2.374 1.061,1.699 0.028,3.126 -1.371,4.162 -0.367,0.271 -0.01,0.894 0.361,0.618 1.168,-0.865 2.482,-2.111 2.154,-3.732 -0.327,-1.607 -1.513,-2.85 -2.697,-3.948 3.017,-0.429 7.1,-0.191 6.989,3.747 -0.013,0.462 0.703,0.461 0.716,0 0.124,-4.444 -4.356,-4.925 -7.83,-4.447 z"
   id="path721" />

		<g
   id="g735">
			<path
   fill="#c4c6c8"
   d="m 138.586,189.752 c -1.841,-1.672 -4.281,-1.264 -5.983,0.393 -0.332,0.322 0.175,0.828 0.506,0.506 1.411,-1.373 3.42,-1.801 4.971,-0.393 0.341,0.309 0.849,-0.195 0.506,-0.506 z"
   id="path723" />

			<path
   fill="#c4c6c8"
   d="m 132.498,190.918 c 0.813,0.521 3.604,2.325 2.546,3.527 -0.304,0.345 0.201,0.854 0.506,0.506 1.555,-1.768 -1.401,-3.825 -2.691,-4.652 -0.39,-0.25 -0.748,0.37 -0.361,0.619 z"
   id="path725" />

			<path
   fill="#c4c6c8"
   d="m 132.315,190.965 c 0.182,0.749 0.35,1.634 0.031,2.372 -0.383,0.888 -1.495,0.818 -2.284,0.674 -0.451,-0.082 -0.644,0.607 -0.19,0.691 0.998,0.183 2.248,0.227 2.909,-0.701 0.661,-0.928 0.476,-2.189 0.225,-3.226 -0.11,-0.449 -0.8,-0.258 -0.691,0.19 z"
   id="path727" />

			<path
   fill="#c4c6c8"
   d="m 132.354,190.709 c -1.376,1.18 -3.375,0.776 -4.563,-0.465 -0.319,-0.334 -0.825,0.173 -0.506,0.506 1.475,1.542 3.907,1.896 5.574,0.465 0.353,-0.301 -0.156,-0.805 -0.505,-0.506 z"
   id="path729" />

			<path
   fill="#c4c6c8"
   d="m 132.409,190.412 c -0.911,-0.812 -2.709,-2.594 -1.212,-3.674 0.371,-0.268 0.014,-0.89 -0.361,-0.619 -1.988,1.436 -0.28,3.6 1.068,4.799 0.342,0.307 0.85,-0.198 0.505,-0.506 z"
   id="path731" />

			<path
   fill="#c4c6c8"
   d="m 132.653,190.73 c 0.392,-0.771 0.525,-1.64 0.765,-2.465 0.343,-1.179 0.965,-1.778 2.228,-1.394 0.443,0.135 0.631,-0.557 0.19,-0.691 -1.094,-0.332 -2.08,-0.154 -2.694,0.867 -0.609,1.014 -0.577,2.277 -1.107,3.321 -0.209,0.411 0.409,0.775 0.618,0.362 z"
   id="path733" />

		</g>

		<g
   id="g751">
			<g
   id="g747">
				<path
   fill="#c4c6c8"
   d="m 86.452,254.14 c -3.513,-4.845 -11.049,-7.683 -16.655,-5.501 -5.588,2.175 -8.137,9.218 -6.162,14.547 0.318,0.858 1.703,0.487 1.381,-0.381 -2.054,-5.54 1.052,-11.186 6.446,-13.285 4.093,-1.593 11.264,1.91 13.753,5.343 0.536,0.74 1.78,0.026 1.237,-0.723 z"
   id="path737" />

				<path
   fill="#c4c6c8"
   d="m 86.414,254.326 c -0.253,-0.707 -0.292,-1.505 -0.624,-2.179 -1.447,-2.949 1.436,-4.508 3.787,-4.987 2.852,-0.582 10.228,0.063 7.89,4.468 -0.433,0.815 0.803,1.539 1.236,0.723 0.953,-1.795 1.943,-2.847 0.259,-4.579 -1.746,-1.796 -5.305,-2.232 -7.633,-2.229 -2.608,0.004 -5.047,0.644 -6.592,2.796 -1.485,2.069 -0.461,4.258 0.295,6.368 0.31,0.862 1.695,0.49 1.382,-0.381 z"
   id="path739" />

				<path
   fill="#c4c6c8"
   d="m 85.683,253.424 c 3.326,-1.092 6.897,-2.086 10.407,-1.353 2.046,0.428 5.493,2.774 5.581,5.064 0.036,0.921 1.468,0.924 1.433,0 -0.1,-2.59 -3.306,-5.173 -5.478,-6.085 -3.845,-1.613 -8.607,-0.228 -12.323,0.992 -0.874,0.287 -0.5,1.671 0.38,1.382 z"
   id="path741" />

				<path
   fill="#c4c6c8"
   d="m 64.813,263.777 c 7.415,-1.937 15.031,-2.087 22.617,-2.834 4.892,-0.481 10.808,-0.835 15.309,-2.758 0.847,-0.361 0.117,-1.595 -0.723,-1.236 -5.321,2.272 -12.776,2.438 -18.42,2.912 -6.474,0.545 -12.85,0.887 -19.163,2.535 -0.894,0.234 -0.515,1.615 0.38,1.381 z"
   id="path743" />

				<path
   fill="#c4c6c8"
   d="m 101.92,257.295 c -1.176,6.056 -13.235,5.776 -17.741,6.305 -4.839,0.566 -15.701,3.05 -19.329,-1.149 -0.605,-0.7 -1.613,0.317 -1.013,1.012 1.676,1.941 3.943,2.215 6.409,2.488 5.015,0.556 10.696,-0.539 15.682,-1.124 5.421,-0.635 16.018,-0.181 17.372,-7.15 0.176,-0.904 -1.204,-1.288 -1.38,-0.382 z"
   id="path745" />

			</g>

			<path
   fill="#c4c6c8"
   d="m 91.302,262.73 c -0.792,-0.573 -1.77,-1.112 -2.786,-0.873 -0.988,0.233 -1.734,0.953 -2.532,1.536 -0.729,0.534 -0.023,1.766 0.716,1.225 0.552,-0.404 1.073,-0.853 1.663,-1.201 0.797,-0.471 1.569,0.064 2.223,0.538 0.743,0.537 1.449,-0.693 0.716,-1.225 z"
   id="path749" />

		</g>

		<g
   id="g761">
			<path
   fill="#c4c6c8"
   d="m 63.099,141.616 c -0.031,-0.015 -0.069,-0.018 -0.106,-0.023 -0.305,-0.057 -0.612,-0.098 -0.922,-0.104 -0.03,-0.001 -0.053,0.011 -0.08,0.015 -0.029,-0.028 -0.056,-0.06 -0.098,-0.082 -0.649,-0.351 -1.333,-0.626 -2.031,-0.863 1.013,-6.081 -11.017,-4.671 -11.182,0.579 -0.006,0.187 0.086,0.306 0.209,0.373 -1.257,0.723 -2.199,1.63 -3.021,3.014 -1.274,2.144 -0.475,4.713 -1.987,6.768 -0.041,0.056 -0.063,0.11 -0.075,0.164 -1.363,2.286 -1.186,4.96 0.526,7.146 0.756,0.966 1.562,1.363 2.774,1.146 0.423,-0.076 0.72,-0.316 0.945,-0.629 0.256,1.446 0.89,2.789 2.261,3.429 1.387,0.647 3.298,0.588 4.712,-0.165 0.043,-0.011 0.086,-0.019 0.131,-0.044 0.085,-0.049 0.159,-0.108 0.236,-0.164 0.032,-0.021 0.063,-0.043 0.095,-0.065 0.072,-0.056 0.14,-0.114 0.207,-0.174 0.106,-0.087 0.219,-0.166 0.313,-0.264 0.036,-0.037 0.055,-0.077 0.075,-0.117 0.129,-0.139 0.259,-0.278 0.39,-0.42 1.48,0.862 3.141,1.149 5.007,0.216 2.81,-1.406 3.399,-3.859 2.703,-6.779 -0.005,-0.023 -0.019,-0.037 -0.026,-0.058 2.717,0.57 4.942,-2.338 5.105,-4.891 0.225,-3.527 -2.72,-7.302 -6.161,-8.008 z m -13.513,-0.478 c 0.126,-4.014 10.077,-5.324 9.404,-0.86 -2.895,-0.772 -6.048,-0.598 -8.84,0.606 -0.197,0.085 -0.382,0.173 -0.566,0.262 10e-4,-0.003 0.002,-0.005 0.002,-0.008 z m 18.223,10.708 c -0.615,1.312 -2.962,2.202 -4.272,1.488 -0.061,-0.033 -0.12,-0.049 -0.177,-0.055 -0.052,-0.028 -0.103,-0.045 -0.155,-0.051 0.437,-0.692 0.688,-1.489 0.495,-2.319 -0.042,-0.18 -0.193,-0.311 -0.384,-0.281 -0.171,0.027 -0.322,0.205 -0.281,0.383 0.11,0.475 0.062,0.902 -0.121,1.352 -0.184,0.451 -0.504,0.865 -0.84,1.238 -0.689,0.766 -1.55,1.377 -2.329,2.053 -0.327,0.283 0.101,0.801 0.429,0.518 0.838,-0.729 1.73,-1.383 2.476,-2.211 0.03,-0.033 0.057,-0.069 0.086,-0.103 0.022,0.045 0.047,0.09 0.09,0.132 0.252,0.245 0.353,0.54 0.477,0.86 0.004,0.011 0.012,0.017 0.017,0.026 0.52,2.237 0.285,4.179 -1.825,5.455 -2.846,1.722 -5.226,-0.093 -7.13,-2.166 -0.396,-0.432 -1.036,0.211 -0.642,0.641 0.619,0.674 1.28,1.307 1.984,1.827 -0.176,0.197 -0.353,0.391 -0.545,0.568 -0.073,0.063 -0.144,0.129 -0.222,0.185 -0.038,0.028 -0.077,0.055 -0.116,0.082 -1.241,0.797 -3.05,0.767 -4.335,0.167 -1.682,-0.785 -1.744,-3.56 -1.66,-5.136 0.031,-0.585 -0.876,-0.582 -0.907,0 -0.003,0.055 -0.002,0.113 -0.004,0.169 -0.127,0.574 -0.223,1.165 -0.457,1.709 -1.342,0.575 -2.246,0.316 -2.709,-0.776 -0.254,-0.42 -0.472,-0.86 -0.652,-1.318 -0.733,-1.768 -0.248,-3.441 0.83,-4.92 0.021,-0.028 0.025,-0.056 0.038,-0.083 1.087,-1.767 0.77,-3.17 1.33,-5.396 1.4,-5.563 9.479,-5.94 14.056,-4.164 0.03,0.04 0.062,0.08 0.109,0.112 0.337,0.233 0.786,0.488 1.184,0.6 0.406,0.113 0.796,0.082 1.21,0.056 2.484,0.419 4.151,2.529 5.063,4.83 0.584,1.483 0.567,3.078 -0.111,4.528 z"
   id="path753" />

			<path
   fill="#c4c6c8"
   d="m 59.074,146.394 c -1.162,-0.705 -2.643,-1.396 -3.088,-2.793 -0.048,-0.15 -0.251,-0.203 -0.383,-0.145 -0.156,0.07 -0.193,0.232 -0.145,0.383 0.479,1.502 2.028,2.266 3.28,3.027 0.317,0.192 0.656,-0.277 0.336,-0.472 z"
   id="path755" />

			<path
   fill="#c4c6c8"
   d="m 53.825,143.681 c -0.196,1.594 -0.221,3.191 -0.078,4.789 0.033,0.373 0.605,0.281 0.572,-0.088 -0.139,-1.551 -0.108,-3.096 0.082,-4.641 0.046,-0.373 -0.53,-0.431 -0.576,-0.06 z"
   id="path757" />

			<path
   fill="#c4c6c8"
   d="m 51.824,143.95 c -0.21,0.551 -0.444,1.102 -0.836,1.553 -0.369,0.424 -0.914,0.627 -1.468,0.639 -0.158,0.004 -0.3,0.086 -0.318,0.258 -0.015,0.143 0.1,0.322 0.257,0.318 0.719,-0.016 1.388,-0.234 1.894,-0.764 0.483,-0.504 0.768,-1.156 1.013,-1.799 0.132,-0.349 -0.409,-0.554 -0.542,-0.205 z"
   id="path759" />

		</g>

		<path
   fill="#c4c6c8"
   d="m 124.116,179.513 v 0 c -0.375,0 -0.724,-0.058 -1.038,-0.173 -3.386,-1.238 -7.401,-3.16 -8.402,-7.068 -1.098,-4.285 1.771,-7.664 4.303,-10.646 0.442,-0.521 0.877,-1.033 1.283,-1.54 0.313,-0.421 0.564,-0.799 0.771,-1.159 -0.348,-0.109 -0.802,-0.219 -1.324,-0.307 -0.68,-0.072 -1.39,-0.114 -2.099,-0.157 l -0.274,-0.016 c -1.791,-0.105 -3.643,-0.213 -5.385,-0.746 -0.789,-0.243 -1.948,-0.645 -2.904,-1.329 -0.967,-0.689 -2.167,-1.656 -2.869,-3.022 -0.76,-1.479 -1.1,-2.873 -1.011,-4.145 0.1,-1.417 0.445,-2.648 1.119,-3.992 0.7,-1.396 1.693,-2.622 2.652,-3.807 l 0.588,-0.731 c 0.575,-0.772 1.024,-1.499 1.366,-2.211 0.009,-0.025 0.018,-0.053 0.027,-0.081 -1.246,-0.411 -2.606,-0.631 -3.925,-0.844 -1.08,-0.175 -2.196,-0.355 -3.269,-0.644 -3.116,-0.841 -5.305,-2.303 -6.506,-4.346 -1.541,-2.618 -1.435,-6.206 0.276,-9.365 1.286,-2.375 3.317,-4.2 5.134,-5.673 0.362,-0.293 0.736,-0.582 1.113,-0.872 0.746,-0.575 1.512,-1.166 2.198,-1.811 -0.929,-0.563 -1.93,-1.02 -2.886,-1.432 -0.648,-0.265 -1.313,-0.515 -1.978,-0.766 -1.745,-0.658 -3.549,-1.338 -5.188,-2.337 -1.829,-1.115 -3.067,-2.293 -3.784,-3.604 -1.132,-2.07 -1.175,-4.361 -0.122,-6.451 0.662,-1.313 1.989,-2.537 3.642,-3.356 1.402,-0.696 2.968,-1.252 4.652,-1.652 2.367,-0.563 4.809,-0.878 7.17,-1.182 l 1.035,-0.134 c 0.303,-0.042 0.61,-0.089 0.915,-0.149 1.21,-0.24 2.159,-0.107 3.041,0.409 0.891,0.521 1.558,1.39 1.831,2.381 0.289,1.05 0.098,2.264 -0.511,3.248 -0.548,0.887 -1.367,1.478 -2.305,1.663 -1.084,0.214 -2.196,0.346 -3.271,0.474 -0.395,0.047 -0.789,0.094 -1.182,0.145 -2.25,0.309 -4.626,0.677 -6.839,1.475 0.545,0.317 1.167,0.625 1.931,0.96 l 0.595,0.238 c 0.404,0.158 0.809,0.311 1.214,0.463 0.925,0.349 1.881,0.709 2.803,1.127 l 0.424,0.191 c 1.212,0.545 2.466,1.109 3.592,1.897 1.306,0.915 2.598,1.957 3.208,3.374 0.415,0.961 0.729,1.782 0.69,2.854 -0.041,1.159 -0.311,1.865 -0.717,2.81 -0.468,1.089 -1.332,2.008 -2.032,2.686 -0.74,0.717 -1.544,1.356 -2.322,1.973 l -0.343,0.272 c -1.483,1.175 -3.017,2.39 -4.23,3.845 -0.259,0.366 -0.499,0.765 -0.694,1.157 -0.063,0.194 -0.134,0.444 -0.189,0.698 0,0.09 -0.002,0.237 0.002,0.388 l 0.066,0.064 c 0.143,0.083 0.357,0.201 0.578,0.308 1.305,0.48 2.77,0.733 4.186,0.977 l 0.467,0.081 c 0.781,0.135 1.563,0.27 2.337,0.442 0.954,0.213 1.899,0.53 3.064,1.025 2.651,1.126 4.408,3.814 4.274,6.538 -0.077,1.546 -0.531,3.086 -1.429,4.848 -0.694,1.36 -1.661,2.557 -2.596,3.714 l -0.594,0.738 c -0.557,0.741 -0.938,1.337 -1.232,1.922 -0.019,0.067 -0.052,0.18 -0.082,0.298 l 0.008,0.027 c 0.068,0.071 0.139,0.14 0.211,0.207 0.109,0.063 0.284,0.161 0.462,0.252 0.452,0.152 1.007,0.289 1.643,0.395 0.762,0.081 1.557,0.125 2.353,0.169 1.687,0.093 3.431,0.189 5.097,0.675 2.969,0.863 5.163,2.837 6.019,5.413 0.713,2.148 0.147,4.776 -1.552,7.212 -0.764,1.093 -1.629,2.119 -2.465,3.112 -0.468,0.557 -0.937,1.112 -1.39,1.683 -0.447,0.599 -0.779,1.119 -1.036,1.621 0.056,0.054 0.114,0.106 0.172,0.158 0.509,0.346 1.152,0.697 1.923,1.044 0.214,0.084 0.448,0.175 0.682,0.259 1.131,0.415 1.855,0.977 2.35,1.822 0.54,0.921 0.686,2.04 0.402,3.071 -0.272,0.991 -0.939,1.86 -1.831,2.383 -0.61,0.357 -1.363,0.562 -2.063,0.562 z M 110.473,94.511 c -0.281,0 -0.579,0.032 -0.91,0.097 -0.32,0.063 -0.643,0.112 -0.966,0.157 l -1.04,0.135 c -2.339,0.301 -4.758,0.613 -7.081,1.166 -1.622,0.386 -3.125,0.919 -4.47,1.586 -1.49,0.739 -2.677,1.823 -3.256,2.974 -0.923,1.831 -0.884,3.838 0.108,5.652 0.643,1.174 1.78,2.248 3.477,3.282 1.57,0.957 3.336,1.623 5.043,2.267 0.672,0.253 1.345,0.507 2.008,0.777 1.156,0.5 2.372,1.06 3.478,1.794 l 0.432,0.287 -0.362,0.372 c -0.816,0.836 -1.758,1.562 -2.668,2.264 -0.371,0.286 -0.739,0.57 -1.096,0.859 -1.751,1.419 -3.705,3.172 -4.919,5.414 -1.229,2.27 -1.951,5.699 -0.292,8.52 1.083,1.841 3.098,3.171 5.989,3.952 1.029,0.277 2.124,0.454 3.182,0.625 1.475,0.238 2.999,0.485 4.433,1.009 l 0.092,0.042 0.3,0.163 -0.092,0.33 c -0.053,0.189 -0.114,0.375 -0.181,0.561 -0.383,0.803 -0.86,1.575 -1.477,2.404 l -0.602,0.748 c -0.931,1.149 -1.894,2.338 -2.552,3.65 -0.621,1.238 -0.938,2.369 -1.03,3.668 -0.078,1.112 0.231,2.354 0.918,3.691 0.617,1.201 1.716,2.082 2.604,2.716 0.855,0.611 1.926,0.981 2.657,1.207 1.644,0.502 3.443,0.607 5.183,0.709 l 0.274,0.017 c 0.724,0.043 1.446,0.087 2.166,0.164 0.599,0.1 1.101,0.222 1.559,0.375 0.195,0.097 0.322,0.17 0.446,0.247 l 0.272,0.219 -0.109,0.347 c -0.261,0.513 -0.595,1.038 -1.051,1.653 -0.421,0.526 -0.861,1.045 -1.308,1.571 -2.514,2.961 -5.113,6.022 -4.126,9.877 0.902,3.519 4.677,5.309 7.865,6.475 0.652,0.239 1.658,0.095 2.376,-0.325 0.699,-0.41 1.223,-1.092 1.437,-1.87 0.223,-0.809 0.108,-1.687 -0.315,-2.409 -0.393,-0.67 -0.961,-1.103 -1.902,-1.448 -0.241,-0.087 -0.483,-0.18 -0.723,-0.275 -0.836,-0.375 -1.522,-0.751 -2.116,-1.158 -0.181,-0.155 -0.315,-0.284 -0.443,-0.418 l -0.169,-0.176 0.064,-0.235 c 0.026,-0.096 0.055,-0.191 0.087,-0.285 0.306,-0.62 0.671,-1.195 1.171,-1.866 0.466,-0.587 0.94,-1.149 1.414,-1.712 0.824,-0.979 1.676,-1.99 2.418,-3.051 0.729,-1.046 2.332,-3.768 1.441,-6.448 -0.766,-2.305 -2.75,-4.076 -5.444,-4.86 -1.572,-0.457 -3.266,-0.551 -4.904,-0.642 -0.811,-0.045 -1.621,-0.09 -2.422,-0.176 -0.709,-0.116 -1.31,-0.265 -1.861,-0.456 -0.26,-0.128 -0.46,-0.24 -0.654,-0.366 -0.161,-0.141 -0.259,-0.237 -0.354,-0.338 l -0.142,-0.249 -0.058,-0.268 10e-4,-0.119 c 0.051,-0.249 0.098,-0.406 0.15,-0.563 0.341,-0.689 0.748,-1.325 1.344,-2.117 l 0.605,-0.755 c 0.908,-1.122 1.846,-2.282 2.499,-3.563 0.853,-1.672 1.265,-3.06 1.336,-4.5 0.117,-2.371 -1.426,-4.716 -3.752,-5.704 -1.116,-0.474 -2.015,-0.776 -2.916,-0.977 -0.76,-0.169 -1.529,-0.302 -2.296,-0.434 l -0.467,-0.081 c -1.455,-0.251 -2.958,-0.51 -4.377,-1.035 -0.29,-0.139 -0.533,-0.273 -0.768,-0.423 l -0.341,-0.418 -0.044,-0.167 c -0.018,-0.275 -0.016,-0.464 -0.005,-0.654 0.071,-0.354 0.151,-0.637 0.247,-0.916 0.237,-0.483 0.5,-0.92 0.805,-1.35 1.291,-1.549 2.86,-2.792 4.377,-3.995 l 0.342,-0.271 c 0.761,-0.604 1.549,-1.229 2.259,-1.917 0.643,-0.623 1.432,-1.459 1.841,-2.409 0.414,-0.962 0.612,-1.522 0.647,-2.5 0.032,-0.895 -0.237,-1.594 -0.621,-2.483 -0.526,-1.221 -1.711,-2.168 -2.913,-3.01 -1.059,-0.742 -2.275,-1.289 -3.451,-1.817 l -0.426,-0.192 c -0.897,-0.407 -1.84,-0.762 -2.752,-1.106 -0.408,-0.154 -0.817,-0.308 -1.224,-0.467 l -0.616,-0.247 c -1.157,-0.507 -2.003,-0.956 -2.754,-1.461 l -0.594,-0.4 0.632,-0.336 c 0.141,-0.075 0.284,-0.146 0.428,-0.213 2.425,-0.935 4.992,-1.336 7.416,-1.668 0.399,-0.051 0.796,-0.099 1.194,-0.146 1.06,-0.125 2.155,-0.256 3.207,-0.463 0.701,-0.138 1.319,-0.59 1.741,-1.271 0.485,-0.785 0.639,-1.745 0.413,-2.568 -0.214,-0.777 -0.738,-1.458 -1.438,-1.868 -0.463,-0.276 -0.964,-0.408 -1.528,-0.408 z"
   id="path763" />

		<path
   fill="#c4c6c8"
   d="m 194.734,66.412 c -0.57,-0.99 -1.25,-1.49 -1.97,-1.64 -0.771,-3.11 -3.69,-4.07 -6.561,-2.69 -0.279,0.13 -0.56,0.29 -0.83,0.46 -6.319,-4.39 -11.199,12.4 -14.079,10.11 -0.021,-0.02 -0.04,-0.03 -0.07,-0.04 -0.9,-1.96 -1.58,-4.23 -4.05,-4.31 -2.811,-0.09 -5.44,1.91 -6.101,4.69 -0.029,0.11 -0.01,0.21 0.03,0.3 0,0.01 0,0.01 0,0.02 0.01,0.18 0.12,0.33 0.35,0.37 1.58,0.26 2.37,1.75 3.25,2.92 1.49,2.72 1.38,5.44 2.98,7.99 -0.05,0.05 -0.08,0.11 -0.11,0.18 -1.41,4.26 2.41,7.11 6.45,6.92 2.6,-0.13 6.93,-1.73 5.29,-4.85 3.62,-2.17 6.19,-6.62 7.9,-9.97 1.609,-3.17 4.8,-4.52 7.119,-6.96 0.872,-0.92 1.032,-2.42 0.402,-3.5 z"
   id="path765" />

		<path
   fill="#c4c6c8"
   d="m 63.1,141.62 c -0.03,-0.021 -0.07,-0.021 -0.11,-0.03 -0.3,-0.05 -0.61,-0.09 -0.92,-0.1 -0.03,0 -0.05,0.01 -0.08,0.01 -0.03,-0.021 -0.06,-0.061 -0.1,-0.08 -0.65,-0.351 -1.33,-0.62 -2.03,-0.86 1.01,-6.08 -11.02,-4.67 -11.18,0.58 -0.01,0.18 0.09,0.3 0.21,0.37 -1.26,0.72 -2.2,1.63 -3.02,3.01 -1.28,2.15 -0.48,4.721 -1.99,6.771 -0.04,0.06 -0.06,0.109 -0.07,0.17 -1.37,2.28 -1.19,4.96 0.52,7.14 0.76,0.97 1.56,1.37 2.78,1.15 0.42,-0.08 0.72,-0.32 0.94,-0.63 0.26,1.449 0.89,2.79 2.26,3.43 1.39,0.65 3.3,0.59 4.71,-0.17 0.05,-0.01 0.09,-0.01 0.14,-0.04 0.08,-0.05 0.15,-0.11 0.23,-0.16 0.03,-0.03 0.07,-0.05 0.1,-0.07 0.07,-0.06 0.14,-0.109 0.2,-0.17 0.11,-0.09 0.22,-0.17 0.32,-0.27 0.03,-0.03 0.05,-0.07 0.07,-0.11 0.13,-0.14 0.26,-0.279 0.39,-0.42 1.48,0.86 3.14,1.15 5.01,0.21 2.81,-1.399 3.4,-3.859 2.7,-6.78 0,-0.02 -0.02,-0.029 -0.02,-0.06 2.71,0.58 4.94,-2.33 5.1,-4.89 0.23,-3.521 -2.72,-7.302 -6.16,-8.001 z"
   id="path767" />

		<path
   fill="#c4c6c8"
   d="m 204.21,214.04 c -4.41,-3.25 -11.07,-2.57 -15.71,0.49 0.21,-0.79 0.28,-1.61 0.05,-2.551 -0.64,-2.67 -3.1,-3.51 -5.46,-4.13 -2.5,-0.649 -5.86,-0.5 -8.19,0.74 -2.26,1.2 -1.989,2.45 -1.239,4.33 -2.11,0.96 -4.28,2.76 -4.63,4.7 -0.19,0.1 -0.33,0.29 -0.311,0.59 0.561,7.21 10.98,7.83 16.33,9.189 4.51,1.15 9.35,2.36 13.98,2.801 2.84,0.27 5.72,0.43 7.97,-1.391 0.18,-0.029 0.34,-0.13 0.45,-0.35 2.4,-4.798 1.29,-11.088 -3.24,-14.418 z"
   id="path769" />

		<path
   fill="#c4c6c8"
   d="m 103.09,257.02 c -0.15,-2.04 -2.17,-4.05 -4.08,-5.239 0.83,-1.461 1.45,-2.471 -0.05,-4.011 -1.74,-1.79 -5.3,-2.229 -7.63,-2.229 -2.61,0.01 -5.05,0.649 -6.59,2.8 -0.77,1.07 -0.86,2.18 -0.67,3.29 -3.91,-3.23 -9.73,-4.76 -14.27,-2.99 -5.59,2.17 -8.14,9.22 -6.16,14.55 0.05,0.15 0.14,0.24 0.25,0.32 1.67,1.89 3.92,2.17 6.36,2.44 5.01,0.56 10.69,-0.54 15.68,-1.12 5.42,-0.641 16.02,-0.181 17.37,-7.15 0.06,-0.282 -0.05,-0.501 -0.21,-0.661 z"
   id="path771" />

		<path
   fill="#c4c6c8"
   d="m 144.12,170.26 c -3.2,-4.1 -5.851,-8.06 -8.07,-12.07 -2.46,-5.12 -4.69,-10.77 -7.04,-17.79 -2.01,-5.99 -3.78,-12.37 -5.26,-18.939 -1.38,-6.93 -2.44,-14.03 -3.15,-21.12 -0.76,-7.54 -1.03,-13.77 -0.84,-19.59 0.53,-6.25 1.67,-12.31 3.37,-17.96 2.27,-6.11 5.36,-12.17 9.18,-18.02 l 0.44,-0.67 c 1.53,-3.17 2.18,-6.56 1.93,-10.08 -0.39,-5.16 -2.86,-10.04 -6.78,-13.41 -3.56,-3.06 -8.11,-4.75 -12.82,-4.75 -0.48,0 -0.97,0.02 -1.52,0.07 l -5.09,1.08 c -3.23,1.17 -6,3.08 -8.29,5.73 -3.5,5.28 -7.16,10.95 -9.98,17.1 -2.46,5.36 -4.61,11.43 -6.38,18.06 -1.18,4.45 -2.03,9.25 -2.52,14.26 -0.68,7 -0.9,13.72 -0.66,19.98 0.4,10.53 1.8,21.75 4.16,33.35 3.04,14.91 6.41,26.791 10.6,37.39 4.68,11.82 10.05,21.55 16.45,29.76 l 3.33,3.68 c 2.61,2.23 5.64,3.711 9.01,4.391 1.23,0.24 2.49,0.359 3.74,0.359 3.99,0 7.96,-1.239 11.2,-3.47 4.18,-2.899 7.14,-7.41 8.11,-12.38 1.04,-5.311 -0.19,-11.191 -3.12,-14.961 z"
   id="path773" />

	</g>

	<g
   id="Speech_bubble_copy_2">
		<path
   fill="#c4c6c8"
   d="m 189.839,6.616 c -27.34,0 -49.504,11.53 -49.504,25.753 0,10.39 11.826,19.342 28.857,23.413 l -16.404,10.16 28.199,-8.229 c 2.873,0.27 5.83,0.411 8.852,0.411 27.34,0 49.504,-11.53 49.504,-25.754 0,-14.224 -22.164,-25.754 -49.504,-25.754 z"
   id="path777" />

	</g>

	<g
   id="Hot_dog_No_Night_1_">
		<path
   fill="#c4c6c8"
   d="m 149.38,183.439 c -0.65,0.45 -1.33,0.86 -2.04,1.221 0.85,-5.16 -0.39,-10.761 -3.22,-14.4 -3.2,-4.1 -5.851,-8.06 -8.07,-12.07 -2.46,-5.12 -4.69,-10.77 -7.04,-17.79 -2.01,-5.99 -3.78,-12.37 -5.26,-18.939 -1.38,-6.93 -2.44,-14.03 -3.15,-21.12 -0.76,-7.54 -1.03,-13.77 -0.84,-19.59 0.53,-6.25 1.67,-12.31 3.37,-17.96 2.27,-6.11 5.36,-12.17 9.18,-18.02 l 0.44,-0.67 c 1.53,-3.17 2.18,-6.56 1.93,-10.08 -0.07,-0.87 -0.19,-1.73 -0.37,-2.58 0.85,0.84 1.62,1.75 2.3,2.72 2.91,4.21 4.07,9.78 2.959,14.19 -3.51,13.99 -5.649,26.65 -6.549,38.71 -0.47,11.15 0.22,21.8 2.07,31.66 1.87,7.93 4.58,15.56 8.04,22.7 1.59,2.95 3.01,5.3 4.46,7.42 2.09,3.04 4.4,5.95 6.55,8.62 1.9,2.76 2.99,5.859 3.25,9.14 l -0.29,5.07 c -0.92,4.728 -3.741,9.018 -7.72,11.768 z"
   id="path780" />

		<path
   fill="#c4c6c8"
   d="m 119,198.899 c -1.56,1.08 -3.28,1.92 -5.09,2.48 -1.81,0.56 -3.71,0.86 -5.62,0.86 -0.58,0 -1.16,-0.03 -1.74,-0.091 -5.01,-0.47 -9.9,-3.029 -12.45,-6.5 -3.88,-5.27 -6.74,-10.08 -8.74,-14.689 -1.53,-3.53 -2.7,-7.271 -3.83,-10.891 L 81,168.37 c -0.9,-2.851 -1.73,-5.71 -2.46,-8.48 -1.48,-5.58 -2.77,-11.43 -3.84,-17.38 -1.94,-10.75 -3.35,-22.36 -4.32,-35.49 -0.51,-6.94 -0.89,-14.06 -1.16,-21.75 -0.22,-6.1 -0.17,-11.09 0.15,-15.72 0.42,-5.99 1.49,-12.31 3.37,-19.88 1.29,-5.24 3.14,-10.19 5.52,-14.78 1.14,-3.04 2.98,-5.65 5.39,-7.72 l 4.12,-2.66 c 2.47,-1.17 5.24,-1.79 8.01,-1.79 1.39,0 2.77,0.15 4.11,0.46 -0.34,0.52 -0.68,1.03 -1.03,1.56 -0.08,0.13 -0.17,0.26 -0.25,0.39 -1.24,1.89 -2.48,3.83 -3.67,5.83 -0.3,0.5 -0.6,1 -0.89,1.51 -1.38,2.38 -2.69,4.83 -3.85,7.37 -2.46,5.36 -4.61,11.43 -6.38,18.06 -1.18,4.45 -2.03,9.25 -2.52,14.26 -0.68,7 -0.9,13.72 -0.66,19.98 0.4,10.53 1.8,21.75 4.16,33.35 3.04,14.91 6.41,26.791 10.6,37.39 4.68,11.82 10.05,21.55 16.45,29.76 l 3.33,3.68 c 0.02,0.021 0.05,0.04 0.07,0.061 0.3,0.26 0.61,0.5 0.93,0.74 0.34,0.26 0.68,0.5 1.04,0.729 0.26,0.181 0.52,0.34 0.79,0.49 0.09,0.07 0.18,0.12 0.28,0.17 0.09,0.06 0.18,0.11 0.27,0.14 0.15,0.1 0.29,0.169 0.44,0.249 z"
   id="path782" />

	</g>

</g>
  </g>
</svg>
