<?xml version="1.0" encoding="UTF-8" standalone="no"?>
<!-- Created with Inkscape (http://www.inkscape.org/) -->

<svg
   width="210mm"
   height="297mm"
   viewBox="0 0 210 297"
   version="1.1"
   id="svg2497"
   inkscape:version="1.2.2 (732a01da63, 2022-12-09)"
   sodipodi:docname="AMAMW_B.Mask.svg"
   xmlns:inkscape="http://www.inkscape.org/namespaces/inkscape"
   xmlns:sodipodi="http://sodipodi.sourceforge.net/DTD/sodipodi-0.dtd"
   xmlns="http://www.w3.org/2000/svg"
   xmlns:svg="http://www.w3.org/2000/svg">
  <sodipodi:namedview
     id="namedview2499"
     pagecolor="#ffffff"
     bordercolor="#000000"
     borderopacity="0.25"
     inkscape:showpageshadow="2"
     inkscape:pageopacity="0.0"
     inkscape:pagecheckerboard="0"
     inkscape:deskcolor="#d1d1d1"
     inkscape:document-units="mm"
     showgrid="false"
     inkscape:zoom="0.72515432"
     inkscape:cx="397.15684"
     inkscape:cy="563.32837"
     inkscape:window-width="2400"
     inkscape:window-height="1271"
     inkscape:window-x="2391"
     inkscape:window-y="-9"
     inkscape:window-maximized="1"
     inkscape:current-layer="layer1" />
  <defs
     id="defs2494" />
  <g
     inkscape:label="Layer 1"
     inkscape:groupmode="layer"
     id="layer1">
    <g
       id="PCB"
       inkscape:label="Edge.Cuts"
       style="display:inline"
       transform="matrix(0.26458333,0,0,0.26458333,45.322894,158.76031)">
	<path
   id="PCB_2_"
   fill="#f9ed32"
   d="m 189.839,1.116 c -23.747,0 -44.466,8.297 -51.952,20.721 -0.318,0.453 -0.616,0.91 -0.897,1.371 -1.429,-2.56 -3.28,-4.856 -5.505,-6.769 -4.561,-3.92 -10.387,-6.079 -16.405,-6.079 -0.671,0 -1.331,0.03 -2.016,0.092 l -6.107,1.256 -0.357,0.129 c -0.504,0.183 -1,0.38 -1.472,0.585 -0.121,0.052 -0.239,0.107 -0.343,0.158 -0.373,0.168 -0.743,0.34 -1.105,0.525 -0.129,0.066 -0.256,0.135 -0.462,0.25 -0.307,0.165 -0.613,0.331 -0.916,0.511 -0.159,0.094 -0.315,0.193 -0.47,0.292 l -0.207,0.131 c -0.215,0.135 -0.429,0.271 -0.626,0.406 -0.202,0.137 -0.399,0.281 -0.596,0.425 l -0.186,0.136 c -0.159,0.116 -0.318,0.232 -0.462,0.345 -0.272,0.211 -0.538,0.432 -0.803,0.655 l -0.238,0.202 C 98.38,16.416 98.045,16.375 97.721,16.352 97.452,16.331 97.184,16.323 96.915,16.316 l -0.397,-0.014 c -0.279,-0.011 -0.557,-0.021 -0.836,-0.021 l -0.135,0.001 c -0.283,0.003 -0.566,0.018 -0.849,0.035 l -0.403,0.021 c -0.308,0.013 -0.615,0.029 -0.918,0.059 -0.31,0.03 -0.618,0.073 -0.926,0.119 l -0.405,0.056 c -0.274,0.035 -0.548,0.073 -0.819,0.123 -0.336,0.061 -0.67,0.138 -1.003,0.218 l -0.377,0.086 c -0.253,0.055 -0.507,0.112 -0.766,0.183 -0.285,0.078 -0.565,0.169 -0.845,0.263 l -0.394,0.126 c -0.289,0.089 -0.576,0.18 -0.898,0.299 -0.082,0.031 -0.162,0.063 -0.244,0.098 -0.656,0.251 -1.214,0.487 -1.748,0.741 L 80.1,21.788 79.519,22.22 c -0.105,0.089 -0.207,0.182 -0.283,0.254 -2.087,1.833 -3.841,3.969 -5.212,6.344 -0.648,1.121 -1.207,2.274 -1.662,3.432 -2.515,4.91 -4.496,10.246 -5.89,15.865 -1.972,7.95 -3.096,14.618 -3.54,20.985 -0.051,0.741 -0.094,1.494 -0.133,2.254 -0.218,4.25 -0.229,8.744 -0.035,14.146 0.017,0.464 0.034,0.925 0.052,1.384 -11.484,0.416 -20.99,6.123 -25.006,15.104 -3.868,8.647 -1.149,17.231 1.231,22.936 0.545,1.307 1.173,2.618 1.837,4.006 1.29,2.697 2.721,5.689 3.275,8.277 -0.234,0.461 -0.428,0.938 -0.58,1.427 -0.927,0.872 -1.724,1.884 -2.431,3.073 -1.192,2.004 -1.437,3.943 -1.615,5.359 -0.046,0.368 -0.108,0.858 -0.167,1.086 l -0.504,0.764 -0.087,0.278 c -0.678,1.286 -1.107,2.666 -1.278,4.109 -0.351,2.953 0.461,5.924 2.291,8.398 l 0.219,0.292 c 0.341,0.436 0.708,0.834 1.091,1.187 l 0.606,0.519 0.07,0.043 c 0.942,0.702 1.999,1.176 3.124,1.406 1.057,1.262 2.237,1.986 3.083,2.382 2.114,0.99 4.771,1.219 7.109,0.653 0.558,-0.133 1.097,-0.306 1.609,-0.517 l 0.42,-0.066 0.474,-0.295 c 1.735,0.271 3.52,0.086 5.211,-0.546 0.376,-0.14 0.753,-0.297 1.143,-0.491 0.317,-0.159 0.598,-0.329 0.917,-0.534 2.718,-1.663 4.409,-4.143 4.913,-7.135 0.527,-0.341 1.026,-0.734 1.489,-1.175 0.05,0.204 0.1,0.407 0.149,0.608 0.29,1.177 0.582,2.351 0.887,3.506 0.755,2.865 1.611,5.818 2.541,8.765 l 0.53,1.691 c 0.614,1.966 1.337,4.255 2.136,6.527 0.69,1.969 1.303,3.559 1.933,5.012 0.524,1.205 1.128,2.473 1.786,3.749 l 0.253,0.482 c 0.235,0.449 0.476,0.899 0.724,1.349 l 0.413,0.737 c 0.202,0.357 0.408,0.716 0.62,1.076 0.178,0.303 0.359,0.607 0.548,0.92 0.175,0.29 0.355,0.583 0.539,0.88 0.224,0.36 0.451,0.724 0.676,1.072 0.053,0.084 0.107,0.168 0.161,0.251 -0.346,0.439 -0.678,0.883 -0.996,1.331 -0.656,0.928 -1.294,1.919 -1.895,2.947 -6.891,11.787 -7.647,26.909 -2.265,45.003 -0.213,-0.065 -0.428,-0.129 -0.648,-0.189 l -0.479,-0.124 c -0.316,-0.079 -0.633,-0.15 -0.963,-0.218 -0.167,-0.033 -0.332,-0.065 -0.515,-0.099 -0.345,-0.06 -0.689,-0.109 -1.089,-0.16 -0.142,-0.019 -0.284,-0.037 -0.383,-0.046 -0.495,-0.051 -0.99,-0.084 -1.472,-0.096 h -0.496 c -0.34,0 -0.679,0.007 -1.005,0.025 -0.159,0.009 -0.317,0.021 -0.557,0.044 -0.331,0.028 -0.659,0.065 -0.986,0.112 -0.204,0.029 -0.406,0.062 -0.579,0.093 -0.334,0.06 -0.664,0.132 -1.056,0.227 -0.158,0.037 -0.316,0.076 -0.489,0.124 -0.367,0.103 -0.729,0.22 -1.101,0.354 l -0.38,0.134 c -8.052,3.134 -12.408,13.19 -9.34,21.541 l 0.283,0.805 0.303,0.391 c 0.196,0.314 0.419,0.609 0.667,0.882 l 0.292,0.317 0.158,0.131 c 0.301,0.309 0.612,0.595 0.93,0.855 l 0.226,0.178 c 0.37,0.289 0.737,0.543 1.141,0.786 0.105,0.063 0.212,0.121 0.323,0.179 0.273,0.154 0.622,0.341 1.021,0.515 0.134,0.058 0.27,0.111 0.413,0.163 0.306,0.123 0.617,0.24 0.965,0.349 0.102,0.031 0.205,0.06 0.313,0.088 0.073,0.021 0.147,0.042 0.221,0.063 l 0.636,0.31 h 0.723 c 0.843,0.156 1.668,0.254 2.556,0.353 0.156,0.018 0.315,0.029 0.498,0.039 0.981,0.093 2.027,0.14 3.112,0.14 3.47,0 6.883,-0.457 10.184,-0.898 1.067,-0.144 2.118,-0.284 3.148,-0.404 0.775,-0.092 1.666,-0.157 2.622,-0.23 0.752,-0.057 1.539,-0.117 2.313,-0.188 l 0.315,-0.03 c 0.368,-0.034 0.735,-0.072 1.098,-0.113 l 0.531,-0.064 c 0.329,-0.041 0.657,-0.082 0.947,-0.124 0.178,-0.025 0.355,-0.054 0.532,-0.083 l 0.208,-0.034 c 0.28,-0.046 0.558,-0.091 0.853,-0.146 0.188,-0.035 0.372,-0.074 0.556,-0.114 l 0.18,-0.039 c 0.292,-0.062 0.582,-0.123 0.845,-0.188 0.196,-0.048 0.387,-0.101 0.578,-0.155 l 0.243,-0.067 c 0.279,-0.076 0.557,-0.155 0.831,-0.243 0.211,-0.068 0.415,-0.143 0.619,-0.22 l 0.208,-0.076 c 0.279,-0.101 0.556,-0.203 0.82,-0.315 0.224,-0.095 0.439,-0.197 0.73,-0.343 l 78.633,-35.517 c 0.224,0.045 0.443,0.089 0.654,0.131 1.049,0.208 2.038,0.405 2.801,0.599 4.281,1.093 9.609,2.451 14.82,2.947 1.031,0.098 2.143,0.188 3.282,0.188 10e-4,0 10e-4,0 10e-4,0 3.172,0 5.787,-0.738 7.964,-2.252 1.109,-0.586 2.019,-1.513 2.612,-2.693 3.689,-7.382 1.582,-16.543 -4.897,-21.307 -2.853,-2.103 -6.402,-3.214 -10.264,-3.214 -1.121,0 -2.248,0.094 -3.362,0.276 0.167,-0.267 0.332,-0.532 0.494,-0.796 l 0.053,-0.086 c 0.29,-0.472 0.578,-0.942 0.845,-1.417 2.914,-5.205 4.766,-11.32 5.662,-18.704 0.611,-5.116 -0.033,-10.449 -1.863,-15.422 -2.572,-6.998 -7.263,-12.533 -13.207,-15.586 -3.114,-1.6 -6.391,-2.41 -9.74,-2.41 -3.197,0 -6.462,0.719 -9.98,2.196 -1.652,0.693 -3.254,1.504 -4.859,2.407 -0.191,-0.383 -0.393,-0.762 -0.604,-1.135 -0.418,-0.74 -0.799,-1.356 -1.198,-1.94 l -1.064,-1.351 c -1.085,-1.353 -2.057,-2.597 -2.969,-3.802 -0.999,-1.321 -1.795,-2.417 -2.507,-3.451 -0.909,-1.32 -1.851,-2.834 -2.87,-4.616 -0.378,-0.664 -0.762,-1.352 -1.158,-2.085 -0.803,-1.656 -1.586,-3.402 -2.329,-5.191 -1.227,-2.958 -2.334,-6.039 -3.305,-9.19 2.697,0.929 5.483,1.489 8.294,1.667 1.977,0.124 3.888,-0.095 5.375,-0.315 1.521,-0.224 3.023,-0.64 4.468,-1.237 1.302,-0.538 3.013,-1.307 4.699,-2.484 1.311,-0.912 2.518,-1.883 3.585,-2.885 1.811,-1.697 3.491,-3.743 5.14,-6.255 1.219,-1.857 2.313,-3.906 3.343,-6.26 1.602,-3.653 2.954,-7.625 4.115,-12.087 1.439,-1.23 2.157,-2.587 2.516,-3.656 0.136,-0.404 0.235,-0.817 0.301,-1.235 3.16,-2.897 5.379,-6.737 7.038,-9.988 0.436,-0.859 1.346,-1.589 2.795,-2.709 1.062,-0.821 2.266,-1.751 3.416,-2.961 2.343,-2.477 2.912,-6.147 1.563,-9.2 18.993,-2.136 34.761,-9.715 41.007,-20.202 2.585,-3.72 3.943,-7.809 3.943,-11.92 C 244.843,14.844 220.683,1.116 189.839,1.116 Z" />

</g>
  </g>
</svg>
