<?xml version="1.0" encoding="UTF-8" standalone="no"?>
<!-- Created with Inkscape (http://www.inkscape.org/) -->

<svg
   width="210mm"
   height="297mm"
   viewBox="0 0 210 297"
   version="1.1"
   id="svg3103"
   inkscape:version="1.2.2 (732a01da63, 2022-12-09)"
   sodipodi:docname="AMAMW_F.SilkS.svg"
   xmlns:inkscape="http://www.inkscape.org/namespaces/inkscape"
   xmlns:sodipodi="http://sodipodi.sourceforge.net/DTD/sodipodi-0.dtd"
   xmlns="http://www.w3.org/2000/svg"
   xmlns:svg="http://www.w3.org/2000/svg">
  <sodipodi:namedview
     id="namedview3105"
     pagecolor="#ffffff"
     bordercolor="#000000"
     borderopacity="0.25"
     inkscape:showpageshadow="2"
     inkscape:pageopacity="0.0"
     inkscape:pagecheckerboard="0"
     inkscape:deskcolor="#d1d1d1"
     inkscape:document-units="mm"
     showgrid="false"
     inkscape:zoom="0.72515432"
     inkscape:cx="397.84635"
     inkscape:cy="561.94935"
     inkscape:window-width="1920"
     inkscape:window-height="1001"
     inkscape:window-x="-9"
     inkscape:window-y="379"
     inkscape:window-maximized="1"
     inkscape:current-layer="layer1" />
  <defs
     id="defs3100" />
  <g
     inkscape:label="Layer 1"
     inkscape:groupmode="layer"
     id="layer1">
    <g
       id="Black"
       inkscape:label="F.SilkS"
       transform="matrix(0.26458333,0,0,0.26458333,35.148848,62.671299)">
	<g
   id="g1178">
		<g
   id="g938">
			<g
   id="g770">
				<path
   d="m 152.834,20.82 c -0.43,0 -0.659,-0.387 -0.659,-0.773 0,-0.344 0.115,-0.716 0.315,-1.061 0.063,-0.102 0.143,-0.19 0.226,-0.269 0.011,-0.015 0.032,-0.046 0.032,-0.046 0,0 -0.458,0.229 -0.688,0.602 -0.099,0.17 -0.176,0.347 -0.229,0.523 0.086,0.105 0.143,0.231 0.143,0.394 0,0.174 -0.069,0.327 -0.181,0.438 0.088,0.266 0.294,0.479 0.611,0.479 0.236,0 0.433,-0.125 0.545,-0.309 -0.039,0.007 -0.074,0.022 -0.115,0.022 z"
   id="path766" />

				<path
   d="m 151.329,20.82 c -0.43,0 -0.658,-0.387 -0.658,-0.773 0,-0.344 0.114,-0.716 0.314,-1.061 0.063,-0.102 0.143,-0.19 0.226,-0.269 0.011,-0.015 0.032,-0.046 0.032,-0.046 0,0 -0.458,0.229 -0.688,0.602 -0.2,0.344 -0.314,0.717 -0.314,1.061 0,0.387 0.229,0.773 0.658,0.773 0.236,0 0.433,-0.125 0.545,-0.309 -0.039,0.007 -0.074,0.022 -0.115,0.022 z"
   id="path768" />

			</g>

			<g
   id="g778">
				<polygon
   points="157.36,20.505 157.121,21.604 158.186,26.494 158.678,26.494 157.374,20.505 "
   id="polygon772" />

				<path
   d="m 154.107,29.56 c 0,0 0.387,-0.444 0.444,-0.688 l 1.862,-8.654 c 0.031,-0.127 -0.022,-0.274 -0.088,-0.401 h -0.614 c 0,0 0.344,0.401 0.272,0.688 l -1.862,8.654 c -0.058,0.243 -0.444,0.688 -0.444,0.688 h 1.72 c 0,0 -0.103,-0.127 -0.185,-0.287 z"
   id="path774" />

				<path
   d="m 158.907,29.56 c 0,0 0.33,-0.416 0.271,-0.688 l -0.301,-1.519 h -3.008 l -0.06,0.287 h 2.638 l 0.301,1.519 c 0.059,0.272 -0.271,0.688 -0.271,0.688 h 1.719 c 0,0 -0.115,-0.128 -0.23,-0.287 z"
   id="path776" />

			</g>

			<g
   id="g788">
				<path
   d="m 162.438,23.704 c 0.082,-0.021 0.167,-0.033 0.249,-0.033 0.387,0 1.075,0.516 1.305,0.702 l 0.2,0.172 v -0.634 c -0.309,-0.226 -0.778,-0.526 -1.075,-0.526 -0.263,0 -0.546,0.102 -0.679,0.319 z"
   id="path780" />

				<path
   d="m 161.712,25.677 c 0.431,0.373 0.875,0.731 1.318,1.075 0.373,0.301 0.674,0.759 0.674,1.247 0,0.251 -0.091,0.446 -0.224,0.601 0.386,-0.117 0.653,-0.423 0.653,-0.888 0,-0.487 -0.301,-0.946 -0.674,-1.247 -0.443,-0.344 -0.888,-0.702 -1.318,-1.075 -0.415,-0.344 -0.744,-0.86 -0.744,-1.418 0,-0.421 0.162,-0.75 0.412,-0.989 -0.49,0.219 -0.842,0.647 -0.842,1.276 10e-4,0.558 0.33,1.074 0.745,1.418 z"
   id="path782" />

				<path
   d="m 162.214,27.482 c 0.115,0 0.301,0.072 0.373,0.101 l 0.172,0.086 -0.015,-0.201 c 0,-0.109 -0.042,-0.197 -0.102,-0.272 -0.142,-0.014 -0.257,0.043 -0.372,0.172 -0.028,0.036 -0.044,0.077 -0.065,0.116 0.003,0 0.006,-0.002 0.009,-0.002 z"
   id="path784" />

				<path
   d="m 163.116,29.517 c -0.945,0 -1.934,-0.587 -1.934,-1.633 0,-0.332 0.135,-0.648 0.354,-0.881 -0.46,0.187 -0.784,0.655 -0.784,1.168 0,1.046 0.988,1.633 1.934,1.633 0.563,0 1.062,-0.189 1.42,-0.52 -0.291,0.147 -0.625,0.233 -0.99,0.233 z"
   id="path786" />

			</g>

			<g
   id="g796">
				<path
   d="m 169.376,23.141 c 0.014,0.043 0.014,0.086 -0.158,0.258 l -1.805,2.095 v 0.212 l 2.234,-2.594 c 0.172,-0.172 0.172,-0.215 0.158,-0.258 0,-0.016 -0.021,-0.044 -0.039,-0.071 h -0.734 l 0.186,0.157 c 0.072,0.058 0.158,0.158 0.158,0.201 z"
   id="path790" />

				<path
   d="m 166.037,29.546 c 0,0 0.344,-0.416 0.344,-0.673 V 20.19 c 0,-0.12 -0.069,-0.262 -0.144,-0.387 h -0.63 c 0,0 0.344,0.401 0.344,0.673 v 8.683 c 0,0.258 -0.344,0.673 -0.344,0.673 h 1.72 c 0,0 -0.104,-0.129 -0.197,-0.287 h -1.093 z"
   id="path792" />

				<path
   d="m 171.047,29.546 h -1.313 l 0.158,-0.158 c 0,0 0.071,-0.072 0.071,-0.201 0,-0.029 -0.058,-0.129 -0.329,-0.458 l -2.221,-2.607 v 0.791 l 1.791,2.103 c 0.271,0.33 0.329,0.43 0.329,0.458 0,0.129 -0.071,0.201 -0.071,0.201 l -0.158,0.158 h 2.049 l -0.172,-0.158 c 0,0 -0.055,-0.052 -0.134,-0.129 z"
   id="path794" />

			</g>

			<g
   id="g808">
				<path
   d="m 178.053,23.059 v 0.068 c 0.063,-0.07 0.133,-0.128 0.201,-0.187 -0.069,0.033 -0.135,0.077 -0.201,0.119 z"
   id="path798" />

				<path
   d="m 181.692,23.557 c 0.134,-0.243 0.307,-0.433 0.493,-0.596 -0.226,0.107 -0.438,0.254 -0.621,0.46 0.041,0.049 0.09,0.082 0.128,0.136 z"
   id="path800" />

				<path
   d="m 184.873,29.546 c 0,0 0.344,-0.401 0.344,-0.673 v -2.995 c 0,-1.29 -0.458,-2.421 -1.92,-2.421 -0.514,0 -0.919,0.158 -1.235,0.447 0.234,-0.104 0.5,-0.16 0.806,-0.16 1.462,0 1.92,1.132 1.92,2.421 v 2.995 c 0,0.272 -0.344,0.673 -0.344,0.673 h 1.733 c 0,0 -0.105,-0.128 -0.2,-0.287 z"
   id="path802" />

				<path
   d="m 180.933,29.546 c 0,0 0.344,-0.401 0.344,-0.673 v -2.995 c 0,-1.29 -0.459,-2.421 -1.92,-2.421 -0.516,0 -0.937,0.159 -1.248,0.455 0.238,-0.107 0.51,-0.168 0.818,-0.168 1.461,0 1.92,1.132 1.92,2.421 v 2.995 c 0,0.272 -0.344,0.673 -0.344,0.673 h 1.734 c 0,0 -0.105,-0.128 -0.2,-0.287 z"
   id="path804" />

				<path
   d="m 176.677,29.546 c 0,0 0.344,-0.416 0.344,-0.673 V 23.17 c 0,-0.12 -0.069,-0.262 -0.144,-0.387 h -0.63 c 0,0 0.344,0.401 0.344,0.673 v 5.703 c 0,0.258 -0.344,0.673 -0.344,0.673 h 1.72 c 0,0 -0.103,-0.129 -0.197,-0.287 h -1.093 z"
   id="path806" />

			</g>

			<g
   id="g818">
				<path
   d="m 188.692,26.222 c -0.071,-0.057 -0.129,-0.129 -0.186,-0.201 0.005,0.267 0.048,0.514 0.106,0.75 0.398,0.232 0.889,0.325 1.456,0.325 0.752,-0.012 1.361,-0.284 1.917,-0.718 -0.442,0.258 -0.923,0.423 -1.487,0.432 -0.745,-10e-4 -1.36,-0.159 -1.806,-0.588 z"
   id="path810" />

				<path
   d="m 191.645,23.671 c -0.301,-0.115 -0.501,-0.187 -0.845,-0.187 -0.578,0 -1.082,0.201 -1.469,0.541 0.307,-0.159 0.654,-0.254 1.039,-0.254 0.344,0 0.544,0.072 0.845,0.187 0.587,0.215 0.802,0.96 0.387,1.433 -0.067,0.074 -0.145,0.127 -0.218,0.189 0.234,-0.118 0.455,-0.266 0.647,-0.476 0.415,-0.473 0.2,-1.218 -0.386,-1.433 z"
   id="path812" />

				<path
   d="m 192.494,28.195 c 0.077,-0.046 0.141,-0.088 0.207,-0.132 0.003,-0.022 0.004,-0.036 0.004,-0.036 0,0 -0.086,0.073 -0.211,0.168 z"
   id="path814" />

				<path
   d="m 190.728,29.56 c -1.977,0 -3.267,-1.676 -3.267,-3.568 0,-1.111 0.493,-2.142 1.295,-2.793 -1.053,0.6 -1.725,1.784 -1.725,3.08 0,1.892 1.29,3.568 3.267,3.568 0.714,0 1.316,-0.164 1.744,-0.555 -0.371,0.181 -0.813,0.268 -1.314,0.268 z"
   id="path816" />

			</g>

			<g
   id="g826">
				<path
   d="m 203.56,22.783 h -0.378 c 0.16,0.068 0.301,0.128 0.378,0.157 0,-0.054 0,-0.107 0,-0.157 z"
   id="path820" />

				<path
   d="M 203.56,28.199 V 24.13 c -0.43,-0.387 -1.117,-0.645 -1.689,-0.645 -0.57,0 -1.051,0.198 -1.426,0.516 0.292,-0.144 0.625,-0.229 0.996,-0.229 0.572,0 1.26,0.258 1.689,0.645 v 3.997 c 0.141,-0.06 0.281,-0.128 0.43,-0.215 z"
   id="path822" />

				<path
   d="m 203.216,29.546 c 0,0 0.23,-0.287 0.316,-0.53 -0.431,0.387 -1.018,0.544 -1.734,0.544 -1.977,0 -3.267,-1.676 -3.267,-3.568 0,-1.111 0.493,-2.142 1.295,-2.793 -1.053,0.6 -1.725,1.784 -1.725,3.08 0,1.892 1.29,3.568 3.267,3.568 0.717,0 1.304,-0.158 1.734,-0.544 -0.086,0.244 -0.316,0.53 -0.316,0.53 h 1.72 c 0,0 -0.103,-0.129 -0.197,-0.287 z"
   id="path824" />

			</g>

			<g
   id="g832">
				<path
   d="m 209.974,28.341 c 0.614,-0.282 1.005,-0.824 1.005,-1.718 0,-0.631 -0.144,-1.204 -0.587,-1.433 -1.247,-0.616 -3.081,-1.404 -3.081,-1.404 v 0.474 c 0.614,0.269 1.772,0.783 2.651,1.217 0.443,0.229 0.587,0.802 0.587,1.433 0,0.658 -0.219,1.118 -0.575,1.431 z"
   id="path828" />

				<path
   d="m 208.671,29.546 h -2.736 c 0,0 0.344,-0.416 0.344,-0.673 V 20.19 c 0,-0.12 -0.069,-0.262 -0.144,-0.387 h -0.63 c 0,0 0.344,0.401 0.344,0.673 v 8.683 c 0,0.258 -0.344,0.673 -0.344,0.673 h 2.736 c 0.945,0 1.801,-0.249 2.414,-0.755 -0.558,0.311 -1.242,0.469 -1.984,0.469 z"
   id="path830" />

			</g>

			<g
   id="g838">
				<path
   d="m 216.291,29.517 c -1.991,0 -3.438,-1.519 -3.438,-3.496 0,-1.14 0.498,-2.124 1.298,-2.758 -1.052,0.591 -1.728,1.712 -1.728,3.044 0,1.978 1.447,3.496 3.438,3.496 0.831,0 1.562,-0.28 2.141,-0.738 -0.499,0.281 -1.073,0.452 -1.711,0.452 z"
   id="path834" />

				<path
   d="m 217.438,28.295 c 0.804,-0.412 1.303,-1.252 1.303,-2.274 0,-1.447 -0.975,-2.55 -2.45,-2.55 -0.631,0 -1.159,0.213 -1.566,0.558 0.33,-0.168 0.709,-0.271 1.137,-0.271 1.476,0 2.45,1.103 2.45,2.55 0,0.823 -0.329,1.526 -0.874,1.987 z"
   id="path836" />

			</g>

			<g
   id="g846">
				<path
   d="m 225.185,29.546 v -0.63 c -0.129,0.145 -0.276,0.258 -0.43,0.355 v 0.562 h 1.375 c 0,0 -0.104,-0.129 -0.197,-0.287 z"
   id="path840" />

				<path
   d="m 224.755,28.371 c -0.019,0.02 -0.042,0.033 -0.061,0.051 0.186,-0.083 0.352,-0.192 0.49,-0.338 V 23.17 c 0,-0.12 -0.069,-0.262 -0.144,-0.387 h -0.63 c 0,0 0.344,0.401 0.344,0.673 v 4.915 z"
   id="path842" />

				<path
   d="m 223.881,29.546 c -2.092,0 -2.966,-1.418 -2.966,-3.367 V 23.17 c 0,-0.12 -0.069,-0.262 -0.144,-0.387 h -0.63 c 0,0 0.344,0.401 0.344,0.673 v 3.009 c 0,1.949 0.874,3.367 2.966,3.367 0.391,0 0.777,-0.164 1.103,-0.443 -0.216,0.101 -0.445,0.157 -0.673,0.157 z"
   id="path844" />

			</g>

			<g
   id="g854">
				<path
   d="m 228.448,22.497 h 0.43 v -1.648 c 0,-0.12 -0.069,-0.262 -0.144,-0.387 h -0.63 c 0,0 0.344,0.401 0.344,0.673 z"
   id="path848" />

				<path
   d="m 230.869,23.457 h -0.96 v 0.287 h 0.53 c 0.243,0 0.673,0.301 0.673,0.301 V 23.52 c -0.087,-0.036 -0.173,-0.063 -0.243,-0.063 z"
   id="path850" />

				<path
   d="m 228.534,29.546 c 0,0 0.344,-0.416 0.344,-0.673 v -5.416 h -0.961 c -0.243,0 -0.673,0.301 -0.673,0.301 V 22.72 c -0.213,-0.088 -0.43,-0.237 -0.43,-0.237 v 1.562 c 0,0 0.43,-0.301 0.673,-0.301 h 0.961 v 5.416 c 0,0.258 -0.344,0.673 -0.344,0.673 h 1.719 c 0,0 -0.104,-0.129 -0.197,-0.287 z"
   id="path852" />

			</g>

			<g
   id="g866">
				<path
   d="m 156.907,40.245 v 0.068 c 0.063,-0.07 0.133,-0.127 0.201,-0.187 -0.069,0.032 -0.134,0.077 -0.201,0.119 z"
   id="path856" />

				<path
   d="m 160.547,40.742 c 0.134,-0.242 0.307,-0.433 0.493,-0.596 -0.225,0.107 -0.438,0.254 -0.621,0.46 0.041,0.049 0.09,0.082 0.128,0.136 z"
   id="path858" />

				<path
   d="m 159.788,46.731 c 0,0 0.344,-0.401 0.344,-0.673 v -2.995 c 0,-1.29 -0.459,-2.421 -1.92,-2.421 -0.517,0 -0.938,0.159 -1.25,0.456 0.239,-0.108 0.511,-0.169 0.82,-0.169 1.461,0 1.92,1.132 1.92,2.421 v 2.995 c 0,0.272 -0.344,0.673 -0.344,0.673 h 1.733 c 0,0 -0.105,-0.128 -0.2,-0.287 z"
   id="path860" />

				<path
   d="m 155.532,46.731 c 0,0 0.344,-0.416 0.344,-0.673 v -5.703 c 0,-0.12 -0.069,-0.262 -0.144,-0.387 h -0.63 c 0,0 0.344,0.401 0.344,0.673 v 5.703 c 0,0.258 -0.344,0.673 -0.344,0.673 h 1.719 c 0,0 -0.104,-0.129 -0.197,-0.287 h -1.092 z"
   id="path862" />

				<path
   d="m 163.728,46.731 c 0,0 0.344,-0.401 0.344,-0.673 v -2.995 c 0,-1.29 -0.458,-2.421 -1.92,-2.421 -0.513,0 -0.918,0.157 -1.234,0.446 0.234,-0.103 0.5,-0.16 0.805,-0.16 1.462,0 1.92,1.132 1.92,2.421 v 2.995 c 0,0.272 -0.344,0.673 -0.344,0.673 h 1.734 c 0,0 -0.105,-0.128 -0.2,-0.287 h -1.105 z"
   id="path864" />

			</g>

			<g
   id="g876">
				<path
   d="m 171.402,44.224 v -3.869 c 0,-0.12 0,-0.262 0,-0.387 h -0.43 c 0,0 0,0.401 0,0.673 v 3.869 c -0.093,0.446 -0.279,0.802 -0.546,1.065 0.511,-0.24 0.841,-0.7 0.976,-1.351 z"
   id="path868" />

				<path
   d="m 171.402,46.545 v -1.433 c -0.09,0.341 -0.248,0.613 -0.43,0.853 v 0.867 c 0,0.899 -0.135,1.726 -0.647,2.223 0.868,-0.407 1.077,-1.401 1.077,-2.51 z"
   id="path870" />

				<path
   d="m 170.301,46.536 c -0.23,0.115 -0.471,0.195 -0.718,0.195 -2.092,0 -2.967,-1.418 -2.967,-3.367 v -3.009 c 0,-0.12 -0.069,-0.262 -0.144,-0.387 h -0.63 c 0,0 0.344,0.401 0.344,0.673 v 3.009 c 0,1.949 0.875,3.367 2.967,3.367 0.41,10e-4 0.813,-0.173 1.148,-0.481 z"
   id="path872" />

				<path
   d="m 169.554,50.127 c -0.645,0 -1.189,-0.186 -1.576,-0.602 -0.119,-0.137 -0.211,-0.28 -0.283,-0.417 -0.236,-0.158 -0.462,-0.334 -0.676,-0.514 0,0 0.043,0.659 0.529,1.218 0.387,0.416 0.932,0.602 1.576,0.602 0.849,0 1.466,-0.229 1.906,-0.62 -0.389,0.209 -0.87,0.333 -1.476,0.333 z"
   id="path874" />

			</g>

			<g
   id="g888">
				<path
   d="m 181.612,39.138 1.289,2.536 -1.237,3.305 0.149,0.463 1.518,-4.055 -1.289,-2.536 c -0.041,-0.13 -0.135,-0.259 -0.229,-0.373 h -0.703 c 0,10e-4 0.403,0.344 0.502,0.66 z"
   id="path878" />

				<path
   d="m 188.089,37.662 -2.346,7.296 0.182,0.484 2.594,-8.067 c 0.043,-0.117 0.01,-0.253 -0.037,-0.373 h -0.579 c -0.001,0 0.285,0.388 0.186,0.66 z"
   id="path880" />

				<path
   d="m 184.191,39.138 -0.47,1.083 0.154,0.349 0.745,-1.719 c 0.043,-0.122 0.011,-0.255 -0.035,-0.373 h -0.581 c 0.001,10e-4 0.288,0.373 0.187,0.66 z"
   id="path882" />

				<path
   d="m 180.781,46.746 c 0,0 0.272,-0.387 0.187,-0.659 l -2.822,-8.711 c -0.048,-0.125 -0.145,-0.257 -0.239,-0.373 h -0.692 c 0,0 0.387,0.358 0.502,0.659 l 2.822,8.711 c 0.086,0.272 -0.187,0.659 -0.187,0.659 h 2.021 c 0,0 -0.086,-0.127 -0.143,-0.287 h -1.449 z"
   id="path884" />

				<path
   d="m 184.937,46.746 c 0,0 0.271,-0.387 0.157,-0.659 l -1.231,-3.195 -0.271,0.7 1.072,2.781 c 0.114,0.272 -0.157,0.659 -0.157,0.659 h 2.02 c 0,0 -0.089,-0.128 -0.152,-0.287 h -1.438 z"
   id="path886" />

			</g>

			<path
   d="m 190.733,46.746 c 0,0 0.344,-0.401 0.344,-0.673 V 37.39 c 0,-0.12 -0.069,-0.263 -0.144,-0.387 h -0.63 c 0,0 0.344,0.401 0.344,0.674 v 8.683 c 0,0.272 -0.344,0.673 -0.344,0.673 h 1.719 c 0,0 -0.105,-0.128 -0.2,-0.287 z"
   id="path890" />

			<g
   id="g898">
				<path
   d="m 195.001,37.676 v 0.287 h 2.293 c 0.301,0 0.688,0.315 0.688,0.315 l -0.102,-0.569 c -0.053,-0.015 -0.106,-0.033 -0.156,-0.033 z"
   id="path892" />

				<path
   d="m 196.965,41.43 v -0.524 c -0.087,-0.036 -0.173,-0.064 -0.244,-0.064 h -1.72 v 0.287 h 1.29 c 0.243,0 0.674,0.301 0.674,0.301 z"
   id="path894" />

				<path
   d="m 193.626,46.746 c 0,0 0.344,-0.315 0.344,-0.673 V 37.39 c 0,-0.133 -0.064,-0.269 -0.135,-0.387 h -0.639 c 0,0 0.344,0.358 0.344,0.674 v 8.683 c 0,0.358 -0.344,0.673 -0.344,0.673 h 4.943 l 0.055,-0.287 z"
   id="path896" />

			</g>

			<g
   id="g906">
				<path
   d="m 204.283,42.732 c 0.187,0.283 0.354,0.574 0.43,0.818 v -6.16 c 0,-0.12 -0.069,-0.263 -0.144,-0.387 h -0.63 c 0,0 0.344,0.401 0.344,0.674 z"
   id="path900" />

				<path
   d="m 199.626,46.746 c 0,0 0.344,-0.401 0.344,-0.673 V 37.39 c 0,-0.12 -0.069,-0.263 -0.144,-0.387 h -0.63 c 0,0 0.344,0.401 0.344,0.674 v 8.683 c 0,0.272 -0.344,0.673 -0.344,0.673 h 1.72 c 0,0 -0.105,-0.128 -0.2,-0.287 z"
   id="path902" />

				<path
   d="m 204.369,46.746 c 0,0 0.344,-0.401 0.344,-0.673 v -0.029 c 0,-1.49 -1.231,-2.88 -2.178,-3.94 -0.874,-1.018 -1.376,-1.763 -1.533,-2.235 v 1.09 c 0.261,0.397 0.619,0.868 1.104,1.432 0.946,1.06 2.178,2.45 2.178,3.94 v 0.029 c 0,0.272 -0.344,0.673 -0.344,0.673 h 1.72 c 0,0 -0.105,-0.128 -0.2,-0.287 z"
   id="path904" />

			</g>

			<g
   id="g914">
				<path
   d="m 208.636,37.676 v 0.287 h 2.292 c 0.302,0 0.688,0.315 0.688,0.315 l -0.103,-0.569 c -0.053,-0.015 -0.106,-0.033 -0.156,-0.033 z"
   id="path908" />

				<path
   d="m 207.26,46.746 c 0,0 0.344,-0.315 0.344,-0.673 V 37.39 c 0,-0.133 -0.064,-0.269 -0.135,-0.387 h -0.639 c 0,0 0.344,0.358 0.344,0.674 v 8.683 c 0,0.358 -0.344,0.673 -0.344,0.673 h 4.943 l 0.055,-0.287 z"
   id="path910" />

				<path
   d="m 210.599,41.43 v -0.524 c -0.087,-0.036 -0.173,-0.064 -0.244,-0.064 h -1.719 v 0.287 h 1.289 c 0.244,0 0.674,0.301 0.674,0.301 z"
   id="path912" />

			</g>

			<g
   id="g924">
				<path
   d="m 217.53,46.746 c 0,0 0.243,-0.43 -0.015,-0.802 l -2.407,-3.109 c -0.286,0.072 -0.473,0.101 -0.473,0.101 v 0.196 c 0.016,-0.004 0.027,-0.006 0.043,-0.01 l 2.407,3.109 c 0.258,0.373 0.015,0.802 0.015,0.802 h 1.819 c 0,0 -0.124,-0.127 -0.263,-0.287 z"
   id="path916" />

				<path
   d="m 217.537,41.138 c 0.06,-0.027 0.122,-0.051 0.179,-0.08 0.445,-0.229 0.588,-0.788 0.588,-1.418 0,-1.433 -1.003,-1.963 -2.321,-1.963 h -1.347 v 0.287 h 0.917 c 1.318,0 2.321,0.53 2.321,1.963 0,0.488 -0.091,0.928 -0.337,1.211 z"
   id="path918" />

				<path
   d="m 216.212,42.576 0.107,0.146 c 0.685,-0.188 1.292,-0.415 1.75,-0.788 -0.522,0.286 -1.162,0.468 -1.857,0.642 z"
   id="path920" />

				<path
   d="m 213.261,46.746 c 0,0 0.344,-0.401 0.344,-0.673 V 37.39 c 0,-0.12 -0.069,-0.263 -0.144,-0.387 h -0.63 c 0,0 0.344,0.401 0.344,0.674 v 8.683 c 0,0.272 -0.344,0.673 -0.344,0.673 h 1.719 c 0,0 -0.105,-0.128 -0.2,-0.287 z"
   id="path922" />

			</g>

			<g
   id="g930">
				<path
   d="m 220.378,44.052 h 1.375 c 0,0 -0.104,-0.129 -0.197,-0.287 h -0.748 V 37.39 c 0,-0.12 -0.069,-0.263 -0.144,-0.387 h -0.63 c 0,0 0.344,0.401 0.344,0.674 z"
   id="path926" />

				<path
   d="m 221.323,46.746 c -0.373,0 -0.631,-0.272 -0.631,-0.645 0,-0.123 0.039,-0.229 0.094,-0.324 -0.311,0.049 -0.523,0.29 -0.523,0.611 0,0.372 0.258,0.645 0.631,0.645 0.231,0 0.424,-0.126 0.537,-0.308 -0.036,0.005 -0.07,0.021 -0.108,0.021 z"
   id="path928" />

			</g>

			<g
   id="g936">
				<path
   d="m 223.8,39.091 c 0.096,-0.136 0.382,-0.584 0.358,-1.114 -0.187,0.014 -0.358,-0.029 -0.487,-0.158 -0.143,-0.129 -0.215,-0.287 -0.215,-0.473 0,-0.122 0.042,-0.227 0.101,-0.322 -0.301,0.053 -0.53,0.291 -0.53,0.608 0,0.187 0.072,0.344 0.215,0.473 0.129,0.129 0.301,0.172 0.487,0.158 0.028,0.63 -0.401,1.175 -0.401,1.175 0,0 0.249,-0.133 0.472,-0.347 z"
   id="path932" />

				<path
   d="m 225.296,39.103 c 0.084,-0.115 0.392,-0.577 0.367,-1.126 -0.187,0.014 -0.358,-0.029 -0.487,-0.158 -0.144,-0.129 -0.215,-0.287 -0.215,-0.473 0,-0.122 0.044,-0.227 0.104,-0.322 -0.133,0.024 -0.256,0.078 -0.349,0.171 0.029,0.093 0.045,0.192 0.045,0.294 0,0.172 -0.025,0.352 -0.078,0.531 0.022,0.028 0.035,0.06 0.063,0.085 0.129,0.129 0.301,0.172 0.487,0.158 0.028,0.63 -0.401,1.175 -0.401,1.175 0,0 0.246,-0.129 0.464,-0.335 z"
   id="path934" />

			</g>

		</g>

		<g
   id="g944">
			<path
   d="m 169.192,55.782 c -17.031,-4.071 -28.857,-13.023 -28.857,-23.413 0,-2.599 0.747,-5.106 2.123,-7.471 -1.986,2.789 -3.076,5.803 -3.076,8.951 0,10.18 11.355,18.977 27.834,23.157 z"
   id="path940" />

			<path
   d="m 189.839,58.123 c -3.021,0 -5.979,-0.141 -8.852,-0.411 l -25.483,7.437 -3.669,2.272 28.197,-8.23 c 2.873,0.27 5.83,0.411 8.852,0.411 22.339,0 41.215,-7.699 47.376,-18.274 -6.996,9.807 -25.138,16.795 -46.421,16.795 z"
   id="path942" />

		</g>

		<g
   id="g990">
			<path
   d="m 191.895,65.202 c -0.03,-0.15 -0.07,-0.29 -0.11,-0.43 0.33,-0.07 0.66,-0.07 0.98,0 0.02,0.06 0.04,0.12 0.05,0.18 0.129,0.6 -0.791,0.85 -0.92,0.25 z"
   id="path946" />

			<path
   d="m 184.505,63.112 c 0.279,-0.21 0.569,-0.4 0.869,-0.57 0.021,0.01 0.03,0.02 0.051,0.03 0.5,0.35 0.02,1.18 -0.48,0.82 -0.15,-0.11 -0.3,-0.2 -0.44,-0.28 z"
   id="path948" />

			<path
   d="m 185.484,72.412 c -0.27,0.55 -1.1,0.06 -0.82,-0.48 0.011,-0.03 0.03,-0.05 0.04,-0.08 0.32,0.05 0.62,0.17 0.88,0.36 -0.029,0.07 -0.069,0.14 -0.1,0.2 z"
   id="path950" />

			<path
   d="m 184.664,71.932 c -0.279,0.54 0.551,1.03 0.82,0.48 0.03,-0.06 0.07,-0.13 0.1,-0.2 0.24,0.17 0.45,0.38 0.631,0.63 0.369,0.49 -0.46,0.97 -0.82,0.48 -0.3,-0.41 -0.71,-0.57 -1.21,-0.53 -0.61,0.05 -0.61,-0.91 0,-0.96 0.18,-0.01 0.35,-0.01 0.52,0.02 -0.011,0.03 -0.03,0.05 -0.041,0.08 z"
   id="path952" />

			<path
   d="m 182.055,76.762 c -0.08,0.3 -0.16,0.59 -0.24,0.89 -0.37,-0.25 -0.75,-0.47 -1.14,-0.68 0.609,-0.11 1.109,-0.18 1.38,-0.21 z"
   id="path954" />

			<path
   d="m 191.784,64.771 c -1.109,-3.62 -5.18,-2.4 -7.37,-0.31 -1.71,1.64 -3.369,3.61 -3.949,5.96 -0.29,-0.15 -0.61,-0.22 -0.931,-0.19 0.62,-2.67 2.63,-5.4 4.971,-7.12 0.14,0.08 0.29,0.17 0.439,0.28 0.5,0.36 0.98,-0.47 0.48,-0.82 -0.021,-0.01 -0.03,-0.02 -0.051,-0.03 0.271,-0.17 0.551,-0.33 0.83,-0.46 2.87,-1.38 5.79,-0.42 6.561,2.69 -0.32,-0.069 -0.65,-0.069 -0.98,0 z"
   id="path956" />

			<path
   d="m 180.404,70.692 c -0.12,0.6 -1.04,0.34 -0.92,-0.26 0.01,-0.07 0.03,-0.13 0.05,-0.2 0.32,-0.03 0.641,0.04 0.931,0.19 -0.021,0.09 -0.04,0.18 -0.061,0.27 z"
   id="path958" />

			<path
   d="m 181.145,70.902 c 0.43,0.44 -0.24,1.11 -0.68,0.68 -0.311,-0.32 -0.73,-0.56 -1.17,-0.35 -0.551,0.26 -1.04,-0.56 -0.48,-0.82 0.24,-0.11 0.48,-0.18 0.72,-0.18 -0.02,0.07 -0.04,0.13 -0.05,0.2 -0.12,0.6 0.8,0.86 0.92,0.26 0.021,-0.09 0.04,-0.18 0.061,-0.27 0.249,0.11 0.469,0.27 0.679,0.48 z"
   id="path960" />

			<path
   d="m 179.104,86.481 c 0.08,0.12 0.15,0.24 0.21,0.36 -0.27,0.17 -0.56,0.32 -0.85,0.46 -0.051,-0.11 -0.12,-0.22 -0.19,-0.34 -0.33,-0.519 0.5,-0.999 0.83,-0.48 z"
   id="path962" />

			<path
   d="m 176.904,74.521 c 1.851,0.48 3.59,1.14 5.19,2.18 l -0.04,0.06 c -0.271,0.03 -0.771,0.1 -1.38,0.21 -1.271,-0.68 -2.61,-1.16 -4.021,-1.53 -0.598,-0.159 -0.348,-1.079 0.251,-0.92 z"
   id="path964" />

			<path
   d="m 182.295,76.832 c 0.42,0.27 0.229,0.83 -0.24,0.89 -0.971,0.1 -8.01,1.51 -6.87,2.8 0.399,0.46 -0.271,1.14 -0.68,0.67 -2.131,-2.42 3.319,-3.74 6.17,-4.22 0.39,0.21 0.77,0.43 1.14,0.68 0.08,-0.3 0.16,-0.59 0.24,-0.89 l 0.04,-0.06 c 0.069,0.04 0.13,0.09 0.2,0.13 z"
   id="path966" />

			<path
   d="m 185.374,62.542 c -0.3,0.17 -0.59,0.36 -0.869,0.57 -5.641,-3.18 -8.25,11.36 -12.57,10.82 -0.271,-0.4 -0.5,-0.85 -0.71,-1.32 0.03,0.01 0.05,0.02 0.07,0.04 2.88,2.29 7.76,-14.5 14.079,-10.11 z"
   id="path968" />

			<path
   d="m 171.225,72.612 c 0.21,0.47 0.439,0.92 0.71,1.32 -0.42,-0.04 -0.86,-0.24 -1.311,-0.6 -0.029,-0.02 -0.05,-0.04 -0.069,-0.07 h -0.01 c -0.011,-0.04 -0.03,-0.08 -0.051,-0.12 -0.01,-0.01 -0.01,-0.03 -0.02,-0.04 v -0.01 c -0.079,-0.341 0.38,-0.71 0.751,-0.48 z"
   id="path970" />

			<path
   d="m 174.734,75.481 c 0.62,-0.01 0.62,0.94 0,0.96 -2.25,0.05 -3.32,-1.25 -4.18,-3.18 0.02,0.03 0.04,0.05 0.069,0.07 0.45,0.36 0.891,0.56 1.311,0.6 0.611,0.931 1.43,1.581 2.8,1.55 z"
   id="path972" />

			<path
   d="m 170.494,73.142 c 0.021,0.04 0.04,0.08 0.051,0.12 -0.04,-0.05 -0.061,-0.1 -0.07,-0.16 0.009,0.01 0.009,0.03 0.019,0.04 z"
   id="path974" />

			<path
   d="m 167.685,84.592 c 0.3,-0.33 0.979,-0.08 0.81,0.44 -0.05,0.16 -0.1,0.32 -0.13,0.48 -0.1,-0.1 -0.18,-0.2 -0.26,-0.31 -0.151,-0.201 -0.291,-0.41 -0.42,-0.61 z"
   id="path976" />

			<path
   d="m 179.314,86.842 c 1.64,3.12 -2.69,4.72 -5.29,4.85 -4.04,0.19 -7.86,-2.66 -6.45,-6.92 0.03,-0.07 0.061,-0.13 0.11,-0.18 0.13,0.2 0.27,0.41 0.42,0.61 0.08,0.11 0.16,0.21 0.26,0.31 -0.76,3.31 2.431,5.51 5.66,5.22 1.82,-0.16 5.64,-1.02 4.44,-3.43 0.291,-0.14 0.581,-0.29 0.85,-0.46 z"
   id="path978" />

			<path
   d="m 187.215,76.872 c -1.71,3.35 -4.28,7.8 -7.9,9.97 -0.06,-0.12 -0.13,-0.24 -0.21,-0.36 -0.33,-0.52 -1.16,-0.04 -0.83,0.48 0.07,0.12 0.14,0.23 0.19,0.34 -0.98,0.47 -2.03,0.77 -3.16,0.84 -2.65,0.16 -5.21,-0.53 -6.94,-2.63 0.03,-0.16 0.08,-0.32 0.13,-0.48 0.17,-0.52 -0.51,-0.77 -0.81,-0.44 -1.601,-2.55 -1.49,-5.27 -2.98,-7.99 0.33,0.45 1.051,0.1 0.891,-0.35 2.05,3.91 1.63,11.44 8.34,11.02 5.06,-0.32 8.93,-4.08 11.18,-8.41 1.79,-3.45 3.65,-5.88 6.84,-8.15 1.16,-0.82 3.24,-2.96 1.641,-4.22 -3.49,-2.74 -6.771,3.28 -8.011,5.72 -0.26,-0.19 -0.56,-0.31 -0.88,-0.36 0.92,-1.79 4.2,-6.57 7.08,-7.08 0.04,0.14 0.08,0.28 0.11,0.43 0.13,0.6 1.05,0.35 0.92,-0.25 -0.01,-0.06 -0.03,-0.12 -0.05,-0.18 0.72,0.15 1.399,0.65 1.97,1.64 0.63,1.08 0.47,2.58 -0.4,3.5 -2.321,2.44 -5.512,3.79 -7.121,6.96 z"
   id="path980" />

			<path
   d="m 165.595,76.251 c 0.16,0.45 -0.561,0.8 -0.891,0.35 -0.279,-0.5 0.41,-0.95 0.74,-0.59 0.03,0.04 0.05,0.07 0.08,0.11 0.03,0.04 0.05,0.091 0.071,0.13 z"
   id="path982" />

			<path
   d="m 165.444,76.012 c -0.33,-0.36 -1.02,0.09 -0.74,0.59 -0.88,-1.17 -1.67,-2.66 -3.25,-2.92 -0.229,-0.04 -0.34,-0.19 -0.35,-0.37 0.17,0.35 0.78,0.41 0.89,-0.07 0.03,-0.13 0.07,-0.27 0.11,-0.39 1.55,0.45 2.42,1.91 3.34,3.16 z"
   id="path984" />

			<path
   d="m 162.104,72.852 c -0.04,0.12 -0.08,0.26 -0.11,0.39 -0.109,0.48 -0.72,0.42 -0.89,0.07 0,-0.01 0,-0.01 0,-0.02 0,-0.27 0.24,-0.58 0.6,-0.53 0.141,0.02 0.271,0.05 0.4,0.09 z"
   id="path986" />

			<path
   d="m 165.654,69.362 c -1.6,0.61 -3,1.83 -3.55,3.49 -0.13,-0.04 -0.26,-0.07 -0.4,-0.09 -0.359,-0.05 -0.6,0.26 -0.6,0.53 -0.04,-0.09 -0.06,-0.19 -0.03,-0.3 0.66,-2.78 3.29,-4.78 6.101,-4.69 2.47,0.08 3.149,2.35 4.05,4.31 -0.37,-0.23 -0.83,0.14 -0.75,0.48 -0.84,-1.9 -1.901,-4.85 -4.821,-3.73 z"
   id="path988" />

		</g>

		<path
   d="m 172.44,91.216 c -1.057,-0.23 -2.035,-0.593 -2.828,-1.097 -0.518,2.061 -1.092,4.106 -1.758,6.124 -0.428,1.295 -0.896,2.577 -1.414,3.839 -1.061,2.437 -2.324,4.795 -3.908,6.932 -0.959,1.19 -2.023,2.291 -3.209,3.257 -0.793,0.58 -1.631,1.095 -2.52,1.515 -0.797,0.299 -1.619,0.521 -2.457,0.667 -1.076,0.103 -2.158,0.086 -3.232,-0.026 -1.898,-0.309 -3.746,-0.885 -5.529,-1.607 -4.044,-1.776 -7.767,-4.212 -11.385,-6.731 0.242,3.413 0.606,6.755 1.092,10.017 0.547,0.339 1.087,0.687 1.645,1.01 2.356,1.367 4.811,2.551 7.36,3.513 2.436,0.919 4.992,1.48 7.592,1.645 1.426,0.09 2.816,-0.059 4.227,-0.267 1.088,-0.16 2.152,-0.459 3.168,-0.879 1.295,-0.535 2.51,-1.114 3.658,-1.915 1.039,-0.723 2.041,-1.516 2.965,-2.383 1.65,-1.547 3.064,-3.373 4.303,-5.26 1.131,-1.724 2.078,-3.564 2.904,-5.452 1.877,-4.281 3.244,-8.724 4.328,-13.266 0.039,-0.16 0.076,-0.321 0.113,-0.481 -1.618,0.825 -3.98,1.105 -5.115,0.845 z"
   id="path992" />

		<path
   d="m 69.008,100.755 c -0.162,-2.645 -0.306,-5.338 -0.436,-8.086 -9.988,-1.423 -21.453,1.976 -25.741,11.564 -2.744,6.134 -1.185,12.651 1.287,18.571 1.911,4.578 5.498,10.395 5.758,15.795 1.809,-1.766 5.272,-2.478 7.622,-1.737 -1.2,-7.756 -6.542,-15.587 -8.181,-22.996 -2.543,-11.498 10.566,-14.713 19.691,-13.111 z"
   id="path994" />

		<g
   id="XMLID_2_">
			<g
   id="g998">
				<path
   d="m 157.39,166.6 c -0.26,-3.28 -1.35,-6.38 -3.25,-9.14 -2.149,-2.67 -4.46,-5.58 -6.55,-8.62 -1.45,-2.12 -2.87,-4.47 -4.46,-7.42 -3.46,-7.14 -6.17,-14.77 -8.04,-22.7 -1.85,-9.86 -2.54,-20.51 -2.07,-31.66 0.9,-12.06 3.04,-24.72 6.549,-38.71 1.11,-4.41 -0.05,-9.98 -2.959,-14.19 -0.68,-0.97 -1.45,-1.88 -2.3,-2.72 0.18,0.85 0.3,1.71 0.37,2.58 0.25,3.52 -0.4,6.91 -1.93,10.08 l -0.44,0.67 c -3.82,5.85 -6.91,11.91 -9.18,18.02 -1.7,5.65 -2.84,11.71 -3.37,17.96 -0.19,5.82 0.08,12.05 0.84,19.59 0.71,7.09 1.77,14.19 3.15,21.12 1.48,6.57 3.25,12.95 5.26,18.939 2.35,7.021 4.58,12.67 7.04,17.79 2.22,4.011 4.87,7.971 8.07,12.07 2.83,3.64 4.069,9.24 3.22,14.4 0.71,-0.36 1.39,-0.771 2.04,-1.221 3.979,-2.75 6.8,-7.04 7.72,-11.77 z m -2.48,-9.71 c 2.01,2.93 3.159,6.19 3.439,9.7 l -0.3,5.2 c -0.98,5.029 -3.94,9.54 -8.13,12.439 -0.94,0.65 -1.96,1.23 -3.03,1.71 l -0.859,0.391 0.21,-0.96 c 0.02,-0.11 0.04,-0.221 0.06,-0.33 0.99,-5.061 -0.16,-10.63 -2.94,-14.19 -3.229,-4.149 -5.899,-8.14 -8.16,-12.229 -2.48,-5.17 -4.73,-10.86 -7.1,-17.91 -2.01,-6.03 -3.79,-12.44 -5.29,-19.05 -1.38,-6.97 -2.45,-14.11 -3.16,-21.22 -0.76,-7.59 -1.03,-13.86 -0.84,-19.75 0.54,-6.34 1.69,-12.46 3.41,-18.2 2.31,-6.21 5.43,-12.34 9.29,-18.24 l 0.41,-0.62 c 1.43,-2.97 2.05,-6.19 1.8,-9.54 -0.09,-1.32 -0.34,-2.64 -0.72,-3.92 l -0.45,-1.51 1.21,1.01 c 1.4,1.15 2.62,2.48 3.63,3.95 3.061,4.42 4.28,10.29 3.11,14.96 -3.5,13.94 -5.64,26.54 -6.53,38.54 -0.46,11.06 0.22,21.63 2.05,31.4 1.86,7.84 4.54,15.41 7.959,22.47 1.57,2.89 2.96,5.22 4.4,7.31 2.071,3.009 4.361,5.909 6.531,8.589 z"
   id="path996" />

			</g>

		</g>

		<g
   id="g1019">
			<path
   d="m 106.818,55.972 c 1.232,-0.606 2.179,-1.597 3.329,-2.332 2.108,-1.347 4.497,0.322 5.362,2.249 0.189,0.42 0.806,0.056 0.618,-0.361 -0.702,-1.563 -1.998,-2.845 -3.795,-2.984 -2.583,-0.2 -3.744,1.76 -5.875,2.81 -0.414,0.204 -0.051,0.821 0.361,0.618 z"
   id="path1001" />

			<path
   d="m 90.798,54.577 c 1.232,-0.607 2.179,-1.597 3.329,-2.332 2.107,-1.346 4.496,0.322 5.361,2.248 0.189,0.42 0.806,0.056 0.618,-0.361 -0.702,-1.563 -1.998,-2.845 -3.794,-2.984 -2.583,-0.199 -3.744,1.76 -5.875,2.811 -0.415,0.204 -0.052,0.821 0.361,0.618 z"
   id="path1003" />

			<path
   d="m 103.374,80.005 c -0.146,-0.436 -0.837,-0.249 -0.69,0.19 0.213,0.637 0.435,1.25 0.683,1.844 -1.349,1.216 -3.718,1.127 -5.187,0.418 -0.126,-0.061 -1.257,-0.883 -1.864,-1.059 0.252,-0.457 0.469,-0.93 0.643,-1.41 0.158,-0.435 -0.534,-0.621 -0.69,-0.19 -0.63,1.74 -1.917,3.54 -3.671,4.276 -0.419,0.176 -0.235,0.869 0.19,0.69 0.305,-0.128 0.593,-0.289 0.871,-0.463 0.557,1.136 1.602,2.212 2.401,3.112 0.871,0.979 2.04,1.954 3.418,1.797 0.879,-0.1 1.681,-0.942 1.949,-1.734 0.403,-1.189 0.671,-2.227 1.5,-3.227 0.191,-0.23 0.771,-0.498 1.101,-0.818 0.374,0.688 0.812,1.346 1.359,1.973 0.304,0.349 0.808,-0.16 0.506,-0.506 -1.268,-1.451 -1.914,-3.086 -2.519,-4.893 z m -7.695,4.391 c 0.412,-0.723 1.017,-0.188 1.318,0.302 0.136,0.221 0.389,0.354 0.597,0.492 0.733,0.486 1.888,-0.404 2.275,0.745 0.131,0.389 0.09,0.78 0.076,1.18 -0.042,1.208 -1.778,0.596 -2.275,0.337 -1.056,-0.549 -2.219,-1.758 -1.991,-3.056 z m 4.658,4.309 c -0.143,0.113 -0.304,0.202 -0.485,0.26 0.16,-0.069 0.32,-0.152 0.485,-0.26 z"
   id="path1005" />

			<path
   d="m 106.26,72.544 c -2.132,-0.982 -2.532,2.348 -4.232,2.582 -0.456,0.063 -0.261,0.752 0.19,0.69 1.259,-0.173 1.798,-1.544 2.597,-2.355 0.283,-0.288 0.604,-0.411 1,-0.321 0.86,0.194 0.951,1.054 0.817,1.772 -0.24,1.284 -1.12,1.709 -2.08,2.41 -0.369,0.269 -0.012,0.891 0.361,0.618 1.087,-0.793 1.934,-1.246 2.35,-2.601 0.343,-1.118 0.12,-2.277 -1.003,-2.795 z"
   id="path1007" />

			<path
   d="m 112,55.896 c -2.083,0 -3.859,2.537 -4.541,6.093 l 4.986,2.854 -5.092,2.966 c 0.229,1.525 0.655,2.889 1.222,3.982 1.035,-0.349 2.234,-0.549 3.515,-0.549 1.217,0 2.362,0.181 3.36,0.499 0.858,-1.681 1.387,-3.986 1.387,-6.529 10e-4,-5.146 -2.165,-9.316 -4.837,-9.316 z"
   id="path1009" />

			<path
   d="m 99.328,71.81 c 0.839,-1.675 1.355,-3.954 1.355,-6.464 0,-5.145 -2.166,-9.315 -4.838,-9.315 -2.083,0 -3.859,2.536 -4.541,6.092 l 4.986,2.854 -5.093,2.966 c 0.218,1.448 0.613,2.751 1.138,3.815 1.013,-0.329 2.178,-0.517 3.419,-0.517 1.305,0 2.526,0.208 3.574,0.569 z"
   id="path1011" />

			<path
   d="m 103.636,89.56 c -1.621,0.734 -3.328,1.378 -5.126,1.432 -1.817,0.055 -3.594,-0.498 -5.292,-1.086 -0.438,-0.152 -0.624,0.541 -0.19,0.69 1.783,0.618 3.639,1.167 5.545,1.11 1.904,-0.057 3.709,-0.751 5.424,-1.528 0.178,-0.081 0.219,-0.335 0.128,-0.49 -0.105,-0.181 -0.312,-0.209 -0.489,-0.128 z"
   id="path1013" />

			<path
   d="m 91.5,75.202 c -1.249,0.271 -2.5,0.694 -3.476,1.548 -1.035,0.905 -1.471,2.234 -1.561,3.571 -0.031,0.461 0.685,0.458 0.716,0 0.078,-1.168 0.464,-2.27 1.351,-3.064 0.864,-0.775 2.05,-1.124 3.16,-1.364 0.452,-0.098 0.261,-0.789 -0.19,-0.691 z"
   id="path1015" />

			<path
   d="m 110.396,76.818 c -0.153,-0.121 -0.355,-0.15 -0.506,0 -0.125,0.125 -0.153,0.386 0,0.506 1.561,1.223 2.756,2.884 2.951,4.902 0.044,0.455 0.76,0.459 0.716,0 -0.214,-2.207 -1.44,-4.059 -3.161,-5.408 z"
   id="path1017" />

		</g>

		<path
   d="m 115.782,28.167 c 0.678,-3.525 4.172,-4.748 7.518,-4.572 0.461,0.024 0.459,-0.692 0,-0.716 -3.771,-0.199 -7.477,1.333 -8.222,5.206 -1.436,-2.312 -3.745,-5.479 -0.112,-6.956 0.422,-0.171 0.238,-0.864 -0.19,-0.69 -4.145,1.685 -2.08,5.078 -0.402,7.856 -2.172,-0.249 -5.64,-0.91 -5.139,-3.653 0.083,-0.451 -0.607,-0.644 -0.69,-0.19 -0.644,3.527 3.566,4.326 6.213,4.6 -0.599,2.968 -3.432,4.742 -6.409,4.398 -0.458,-0.053 -0.453,0.664 0,0.716 3.213,0.371 6.355,-1.604 7.069,-4.773 0.762,0.72 1.481,1.476 2.042,2.374 1.061,1.699 0.028,3.126 -1.371,4.162 -0.367,0.271 -0.01,0.894 0.361,0.618 1.168,-0.865 2.482,-2.111 2.154,-3.732 -0.327,-1.607 -1.513,-2.85 -2.697,-3.948 3.017,-0.429 7.1,-0.191 6.989,3.747 -0.013,0.462 0.703,0.461 0.716,0 0.124,-4.444 -4.356,-4.925 -7.83,-4.447 z"
   id="path1021" />

		<g
   id="g1164">
			<g
   id="XMLID_1_">
				<g
   id="g1161">
					<path
   d="m 186.03,208.899 c -0.011,0 -0.011,0.011 -0.011,0.011 -0.479,-0.25 -0.989,-0.46 -1.51,-0.641 0.531,0.17 1.051,0.371 1.521,0.63 z"
   id="path1023" />

					<path
   d="m 182.069,207.649 c -0.92,-0.159 -1.909,-0.21 -2.899,-0.149 -0.28,0.01 -0.57,0.04 -0.84,0.08 2.41,-5.25 6.189,-10.11 7.88,-15.92 1.649,-5.681 2.8,-12.771 -0.21,-18.261 -1.771,-3.229 -4.29,-6.96 -8.25,-7.56 -6.72,-1.021 -14.01,5.16 -19.38,8.35 -0.41,0.24 -0.82,0.48 -1.221,0.71 0.37,-1.01 0.69,-2.05 0.9,-3.109 l 0.3,-5.2 c -0.04,-0.47 -0.1,-0.94 -0.17,-1.41 8.09,-5.18 16.17,-10.229 25.14,-5.62 8.94,4.59 13.271,15.83 12.12,25.46 -0.699,5.761 -2.14,11.561 -5,16.67 -1.279,2.271 -3.04,4.681 -4.409,7.21 -0.471,-0.26 -0.99,-0.46 -1.521,-0.63 -0.18,-0.06 -0.35,-0.109 -0.53,-0.17 -0.3,-0.09 -0.59,-0.17 -0.89,-0.25 -0.329,-0.09 -0.669,-0.161 -1.02,-0.201 z"
   id="path1025" />

					<path
   d="m 178.33,207.58 c 0.27,-0.04 0.56,-0.07 0.84,-0.08 -0.28,0.02 -0.561,0.05 -0.84,0.08 z"
   id="path1027" />

					<path
   d="m 170.49,219.53 c 1.04,2.449 4.35,3.97 7.869,4.989 0.04,-0.029 0.061,-0.06 0.11,-0.09 0.94,-0.52 1.97,-0.93 3.04,-0.54 0.93,0.34 1.61,1.2 2.31,1.86 0.011,0.01 0.021,0.03 0.03,0.04 1.3,0.25 2.44,0.45 3.3,0.64 4.351,0.93 13.21,4.22 17.891,1.95 -6.271,-2.25 -12.78,-3.21 -19.29,-4.63 -4.811,-1.039 -10.72,-1.999 -15.26,-4.219 z m 15.88,-3.57 c -3.021,-1.38 -6.801,-2.99 -10.19,-2.33 -1.91,0.37 -5.26,2.1 -5.75,4.29 5.44,2.939 13.22,4.01 19.18,5.149 5.7,1.08 11.341,2.19 16.771,4.271 2.229,-5.07 -0.26,-12.66 -6.29,-13.88 -3.98,-0.811 -9.81,0.96 -12.81,3.91 -0.04,0.069 -0.07,0.13 -0.11,0.199 -0.16,0.32 -0.44,0.4 -0.71,0.341 -0.53,-0.021 -0.99,-0.721 -0.521,-1.23 0.051,-0.06 0.11,-0.11 0.16,-0.16 0.08,-0.17 0.17,-0.36 0.27,-0.56 z m -3.66,-6.731 c -2.28,-0.439 -8.58,-0.64 -7.66,3.181 0.26,-0.07 0.51,-0.13 0.75,-0.16 3.89,-0.561 7.62,0.81 11.12,2.399 0.3,-0.85 0.479,-1.699 0.25,-2.29 -0.771,-2 -2.49,-2.75 -4.46,-3.13 z m 2.34,18.17 c -5.35,-1.359 -15.77,-1.979 -16.33,-9.189 -0.02,-0.3 0.12,-0.49 0.311,-0.59 0.35,-1.94 2.52,-3.74 4.63,-4.7 -0.75,-1.88 -1.021,-3.13 1.239,-4.33 1,-0.53 2.2,-0.87 3.431,-1.01 0.279,-0.03 0.56,-0.061 0.84,-0.08 0.99,-0.061 1.979,-0.01 2.899,0.149 0.351,0.04 0.69,0.11 1.021,0.2 0.3,0.08 0.59,0.16 0.89,0.25 0.181,0.061 0.351,0.11 0.53,0.17 0.521,0.181 1.03,0.391 1.51,0.641 0,0 0,-0.011 0.011,-0.011 1.199,0.631 2.149,1.561 2.52,3.08 0.23,0.94 0.16,1.761 -0.05,2.551 4.64,-3.061 11.3,-3.74 15.71,-0.49 4.53,3.33 5.64,9.62 3.24,14.42 -0.11,0.22 -0.271,0.32 -0.45,0.35 -2.25,1.82 -5.13,1.66 -7.97,1.391 -4.633,-0.441 -9.472,-1.651 -13.982,-2.802 z"
   id="path1029" />

					<path
   d="m 133.13,191.34 c -0.03,-0.19 -0.08,-0.38 -0.12,-0.56 0,-0.021 -0.01,-0.04 -0.02,-0.051 0.05,-0.02 0.09,-0.05 0.12,-0.08 0.04,-0.04 0.08,-0.069 0.12,-0.109 1.4,0.939 3.74,2.79 2.32,4.41 -0.3,0.35 -0.81,-0.16 -0.51,-0.5 0.86,-0.98 -0.82,-2.35 -1.91,-3.11 z"
   id="path1031" />

					<path
   d="m 132.85,190.29 c 0.07,-0.17 0.12,-0.351 0.18,-0.521 1.66,-1.33 3.86,-1.55 5.56,-0.02 0.34,0.31 -0.17,0.819 -0.51,0.51 -1.51,-1.37 -3.45,-1 -4.85,0.28 -0.13,-0.09 -0.26,-0.17 -0.37,-0.24 h -0.01 c 0,-0.009 0,-0.009 0,-0.009 z"
   id="path1033" />

					<path
   d="m 132.89,191.18 c 0.13,-0.14 0.1,-0.32 -0.01,-0.43 0.04,0 0.08,-0.01 0.11,-0.021 0.01,0.011 0.02,0.03 0.02,0.051 0.04,0.18 0.09,0.369 0.12,0.56 -0.08,-0.06 -0.16,-0.111 -0.24,-0.16 z"
   id="path1035" />

					<path
   d="m 132.99,190.729 c -0.04,-0.12 -0.14,-0.18 -0.24,-0.199 0.03,-0.08 0.06,-0.15 0.1,-0.23 h 0.01 c 0.11,0.07 0.24,0.15 0.37,0.24 -0.04,0.04 -0.08,0.069 -0.12,0.109 -0.03,0.031 -0.07,0.061 -0.12,0.08 z"
   id="path1037" />

					<path
   d="m 132.69,190.64 c 0.02,-0.04 0.04,-0.07 0.06,-0.109 0.1,0.02 0.2,0.079 0.24,0.199 -0.03,0.011 -0.07,0.021 -0.11,0.021 h -0.01 c -0.04,-0.062 -0.11,-0.102 -0.18,-0.111 z"
   id="path1039" />

					<path
   d="m 132.69,190.64 c 0.07,0.01 0.14,0.05 0.18,0.11 -0.07,0 -0.14,-0.021 -0.2,-0.07 0.01,-0.01 0.02,-0.031 0.02,-0.04 z"
   id="path1041" />

					<path
   d="m 132.61,190.63 c 0.03,-0.01 0.06,-0.01 0.08,0.01 0,0.01 -0.01,0.03 -0.02,0.04 -0.02,-0.01 -0.05,-0.02 -0.06,-0.05 z"
   id="path1043" />

					<path
   d="m 132.59,190.62 c 0.01,0 0.01,0 0.02,0.01 -0.01,0 -0.01,0 -0.02,-0.01 z"
   id="path1045" />

					<path
   d="m 132.75,190.53 c -0.07,-0.011 -0.14,-0.011 -0.21,0.02 -0.04,-0.08 -0.06,-0.17 -0.03,-0.26 0.09,-0.061 0.21,-0.07 0.34,0 0,0 0,0 0,0.01 -0.04,0.08 -0.07,0.15 -0.1,0.23 z"
   id="path1047" />

					<path
   d="m 132.69,190.64 c -0.02,-0.02 -0.05,-0.02 -0.08,-0.01 -0.01,-0.01 -0.01,-0.01 -0.02,-0.01 -0.02,-0.021 -0.03,-0.04 -0.05,-0.07 0.07,-0.03 0.14,-0.03 0.21,-0.02 -0.02,0.039 -0.04,0.07 -0.06,0.11 z"
   id="path1049" />

					<path
   d="m 132.65,190.729 c 0.01,-0.02 0.02,-0.029 0.02,-0.05 0.06,0.05 0.13,0.07 0.2,0.07 h 0.01 c 0.11,0.109 0.14,0.29 0.01,0.43 -0.15,-0.11 -0.29,-0.189 -0.39,-0.26 -0.01,-0.01 -0.02,-0.021 -0.03,-0.03 0.07,-0.019 0.14,-0.07 0.18,-0.16 z"
   id="path1051" />

					<path
   d="m 132.85,190.29 c -0.13,-0.07 -0.25,-0.061 -0.34,0 0.01,-0.05 0.04,-0.101 0.09,-0.15 0.14,-0.13 0.28,-0.26 0.43,-0.37 -0.06,0.169 -0.11,0.35 -0.18,0.52 z"
   id="path1053" />

					<path
   d="m 132.54,190.55 c 0.02,0.03 0.03,0.05 0.05,0.07 -0.02,0 -0.05,0 -0.07,0.01 0,-0.021 0,-0.04 -0.01,-0.061 0.01,-0.009 0.02,-0.019 0.03,-0.019 z"
   id="path1055" />

					<path
   d="m 132.61,190.63 c 0.01,0.03 0.04,0.04 0.06,0.05 0,0.021 -0.01,0.03 -0.02,0.05 -0.04,0.09 -0.11,0.141 -0.18,0.16 -0.02,0 -0.03,-0.02 -0.04,-0.02 v -0.011 c 0.07,-0.069 0.1,-0.149 0.09,-0.229 0.02,-0.01 0.05,-0.01 0.07,-0.01 0.01,0.01 0.01,0.01 0.02,0.01 z"
   id="path1057" />

					<path
   d="m 132.38,190.68 c 0.03,-0.05 0.08,-0.08 0.13,-0.11 0.01,0.021 0.01,0.04 0.01,0.061 -0.05,0.009 -0.1,0.029 -0.14,0.049 z"
   id="path1059" />

					<path
   d="m 132.51,190.29 c -0.03,0.09 -0.01,0.18 0.03,0.26 -0.01,0 -0.02,0.01 -0.03,0.02 -0.01,-0.06 -0.05,-0.109 -0.1,-0.159 H 132.4 V 190.4 c 0.03,-0.041 0.07,-0.081 0.11,-0.11 z"
   id="path1061" />

					<path
   d="m 132.5,190.92 c 0.1,0.07 0.24,0.149 0.39,0.26 0,0.021 -0.02,0.03 -0.03,0.04 -0.13,0.12 -0.27,0.22 -0.42,0.311 -0.03,-0.19 -0.08,-0.381 -0.12,-0.561 0,-0.01 0,-0.01 0,-0.02 0.03,0 0.05,-0.021 0.07,-0.04 0.03,0 0.06,-0.011 0.08,-0.021 0.01,0.01 0.02,0.021 0.03,0.031 z"
   id="path1063" />

					<path
   d="m 132.36,190.7 c 0,-0.011 0.01,-0.011 0.02,-0.021 0.04,-0.02 0.09,-0.04 0.14,-0.05 0.01,0.08 -0.02,0.16 -0.09,0.229 -0.04,-0.04 -0.07,-0.079 -0.08,-0.14 v -0.01 z"
   id="path1065" />

					<path
   d="m 132.43,190.87 c 0.01,0 0.02,0.02 0.04,0.02 -0.02,0.01 -0.05,0.021 -0.08,0.021 0.02,-0.012 0.03,-0.021 0.04,-0.041 z"
   id="path1067" />

					<path
   d="m 133.03,189.77 c -0.15,0.11 -0.29,0.24 -0.43,0.37 -0.05,0.05 -0.08,0.101 -0.09,0.15 -0.04,0.029 -0.08,0.069 -0.11,0.109 -0.08,-0.069 -0.17,-0.149 -0.27,-0.239 0.44,-1 0.44,-2.17 1.01,-3.11 0.62,-1.02 1.6,-1.2 2.7,-0.87 0.44,0.14 0.25,0.83 -0.19,0.69 -1.27,-0.38 -1.89,0.22 -2.23,1.399 -0.14,0.491 -0.25,1.001 -0.39,1.501 z"
   id="path1069" />

					<path
   d="m 132.34,190.71 c -0.02,-0.101 0,-0.21 0.06,-0.3 h 0.01 c 0.05,0.05 0.09,0.1 0.1,0.159 -0.05,0.03 -0.1,0.061 -0.13,0.11 -0.01,0.01 -0.02,0.01 -0.02,0.021 l -0.01,0.01 z"
   id="path1071" />

					<path
   d="m 132.39,190.91 c -0.02,0 -0.05,0 -0.08,-0.011 0,-0.069 0.01,-0.13 0.04,-0.18 0.01,0.061 0.04,0.1 0.08,0.14 v 0.011 c -0.01,0.02 -0.02,0.029 -0.04,0.04 z"
   id="path1073" />

					<path
   d="m 132.32,190.95 c -0.01,-0.021 -0.01,-0.04 -0.01,-0.051 0.03,0.011 0.06,0.011 0.08,0.011 -0.02,0.02 -0.04,0.04 -0.07,0.04 z"
   id="path1075" />

					<path
   d="m 132.18,190.84 c 0.06,-0.04 0.11,-0.08 0.16,-0.13 h 0.01 v 0.01 c -0.03,0.05 -0.04,0.11 -0.04,0.18 -0.04,-0.001 -0.09,-0.02 -0.13,-0.06 z"
   id="path1077" />

					<path
   d="m 131.99,190.97 c 0.07,-0.04 0.13,-0.08 0.19,-0.13 0.04,0.04 0.09,0.06 0.13,0.06 0,0.011 0,0.03 0.01,0.051 -0.1,0.069 -0.22,0.079 -0.33,0.019 z"
   id="path1079" />

					<path
   d="m 132.18,190.84 c -0.15,-0.08 -0.25,-0.271 -0.15,-0.47 0.04,-0.07 0.07,-0.141 0.1,-0.21 0.1,0.09 0.19,0.17 0.27,0.239 v 0.011 c -0.06,0.09 -0.08,0.199 -0.06,0.3 -0.05,0.05 -0.1,0.09 -0.16,0.13 z"
   id="path1081" />

					<path
   d="m 131.9,190.92 c -1.34,-1.2 -3.05,-3.37 -1.06,-4.8 0.37,-0.271 0.73,0.35 0.36,0.62 -1.36,0.979 -0.01,2.529 0.93,3.42 -0.03,0.069 -0.06,0.14 -0.1,0.21 -0.1,0.199 0,0.39 0.15,0.47 -0.06,0.05 -0.12,0.09 -0.19,0.13 -0.03,-0.01 -0.06,-0.031 -0.09,-0.05 z"
   id="path1083" />

					<path
   d="m 132.44,191.53 c 0.15,-0.091 0.29,-0.19 0.42,-0.311 0.01,-0.01 0.03,-0.02 0.03,-0.04 0.08,0.05 0.16,0.101 0.24,0.16 0.17,0.9 0.19,1.89 -0.35,2.66 -0.66,0.93 -1.91,0.88 -2.91,0.7 -0.45,-0.08 -0.26,-0.771 0.19,-0.69 0.79,0.15 1.9,0.21 2.29,-0.67 0.24,-0.559 0.2,-1.209 0.09,-1.809 z"
   id="path1085" />

					<path
   d="m 127.79,190.24 c 1.09,1.14 2.86,1.579 4.2,0.729 0.11,0.061 0.23,0.05 0.33,-0.02 0,0.01 0,0.01 0,0.02 0.04,0.18 0.09,0.37 0.12,0.561 -1.64,1.05 -3.8,0.64 -5.15,-0.78 -0.32,-0.33 0.18,-0.84 0.5,-0.51 z"
   id="path1087" />

					<path
   d="m 118.56,198.649 c -0.09,-0.029 -0.18,-0.08 -0.27,-0.14 0.09,0.051 0.18,0.1 0.27,0.14 z"
   id="path1089" />

					<path
   d="m 117.22,197.85 c 0.26,0.17 0.52,0.34 0.79,0.49 -0.27,-0.151 -0.53,-0.31 -0.79,-0.49 z"
   id="path1091" />

					<path
   d="m 102.14,256.91 c 0.26,-0.21 0.69,-0.16 0.95,0.09 0.01,0.05 0.01,0.09 0.01,0.14 0,0.09 -0.01,0.17 -0.04,0.24 -0.15,-0.32 -0.51,-0.57 -0.92,-0.47 z"
   id="path1093" />

					<path
   d="m 103.06,257.39 c -0.15,0.51 -0.87,0.58 -1.21,0.2 0.03,-0.09 0.05,-0.19 0.07,-0.29 0.03,-0.18 0.12,-0.3 0.22,-0.39 0.41,-0.101 0.77,0.149 0.92,0.47 0,0.01 0,0.01 0,0.01 z"
   id="path1095" />

					<path
   d="m 102.74,258.189 c -0.43,0.181 -0.88,0.351 -1.34,0.511 0.19,-0.341 0.35,-0.71 0.45,-1.11 0.34,0.38 1.06,0.31 1.21,-0.2 0.12,0.29 0.06,0.63 -0.32,0.799 z"
   id="path1097" />

					<path
   d="m 127.9,20.61 c 3.92,3.37 6.39,8.25 6.78,13.41 0.25,3.52 -0.4,6.91 -1.93,10.08 l -0.44,0.67 c -3.82,5.85 -6.91,11.91 -9.18,18.02 -1.7,5.65 -2.84,11.71 -3.37,17.96 -0.19,5.82 0.08,12.05 0.84,19.59 0.71,7.09 1.77,14.19 3.15,21.12 1.48,6.57 3.25,12.95 5.26,18.939 2.35,7.021 4.58,12.67 7.04,17.79 2.22,4.011 4.87,7.971 8.07,12.07 2.93,3.771 4.16,9.65 3.12,14.96 -0.971,4.97 -3.931,9.48 -8.11,12.38 -3.24,2.23 -7.21,3.47 -11.2,3.47 -1.25,0 -2.51,-0.119 -3.74,-0.359 -1.47,-0.3 -2.87,-0.74 -4.2,-1.351 0.08,-0.05 0.15,-0.109 0.22,-0.159 l 0.63,-0.48 -0.72,-0.34 c 1.34,0.62 2.77,1.09 4.26,1.39 4.84,0.95 10.16,-0.16 14.21,-2.96 3.979,-2.75 6.79,-7.05 7.71,-11.77 0.99,-5.061 -0.16,-10.63 -2.94,-14.19 -3.229,-4.149 -5.899,-8.14 -8.16,-12.229 -2.48,-5.17 -4.73,-10.86 -7.1,-17.91 -2.01,-6.03 -3.79,-12.44 -5.29,-19.05 -1.38,-6.97 -2.45,-14.1 -3.16,-21.22 -0.76,-7.59 -1.03,-13.86 -0.84,-19.75 0.54,-6.34 1.69,-12.46 3.41,-18.2 2.31,-6.21 5.43,-12.34 9.29,-18.24 l 0.41,-0.62 c 1.43,-2.97 2.05,-6.19 1.8,-9.54 -0.36,-4.9 -2.71,-9.55 -6.44,-12.76 -3.39,-2.91 -7.72,-4.51 -12.2,-4.51 -0.46,0 -0.92,0.01 -1.38,0.05 l -4.96,1.05 c -2.97,1.08 -5.57,2.86 -7.69,5.28 l 0.51,-0.58 -0.75,-0.2 c -0.09,-0.02 -0.18,-0.05 -0.27,-0.07 2.21,-2.45 4.86,-4.23 7.93,-5.34 l 5.09,-1.08 c 0.55,-0.05 1.04,-0.07 1.52,-0.07 4.71,-0.001 9.26,1.689 12.82,4.749 z"
   id="path1099" />

					<path
   d="m 102.14,256.91 c -0.1,0.09 -0.19,0.21 -0.22,0.39 -0.02,0.1 -0.04,0.2 -0.07,0.29 -0.1,-0.11 -0.17,-0.26 -0.18,-0.45 0,-0.02 0,-0.03 -0.01,-0.05 0.12,-0.04 0.24,-0.09 0.36,-0.14 0.04,-0.02 0.08,-0.04 0.12,-0.04 z"
   id="path1101" />

					<path
   d="m 101.05,23.2 c -0.02,0.02 -0.04,0.04 -0.07,0.07 l -0.33,-0.22 v -0.02 z"
   id="path1103" />

					<path
   d="m 99.41,25.64 c 0.25,-0.39 0.51,-0.78 0.76,-1.16 -0.24,0.39 -0.5,0.77 -0.76,1.16 z"
   id="path1105" />

					<path
   d="m 103.09,257 c -0.26,-0.25 -0.69,-0.3 -0.95,-0.09 -0.04,0 -0.08,0.02 -0.12,0.04 -0.12,0.05 -0.24,0.1 -0.36,0.14 -0.1,-1.74 -2.11,-3.5 -3.96,-4.43 l 0.03,-0.07 c 0.31,0.19 0.75,0.18 0.97,-0.24 0.11,-0.2 0.21,-0.39 0.31,-0.569 1.89,1.179 3.92,3.189 4.08,5.219 z"
   id="path1107" />

					<path
   d="m 98.7,252.35 c -0.22,0.42 -0.66,0.431 -0.97,0.24 -0.29,-0.19 -0.47,-0.57 -0.26,-0.96 0.1,-0.19 0.18,-0.37 0.24,-0.54 0.41,0.17 0.85,0.41 1.3,0.69 -0.1,0.18 -0.2,0.369 -0.31,0.57 z"
   id="path1109" />

					<path
   d="m 97.49,200.01 c -0.58,-0.37 -1.13,-0.76 -1.65,-1.18 0.52,0.41 1.07,0.8 1.65,1.18 z"
   id="path1111" />

					<path
   d="m 94.27,197.35 c 0.07,0.08 0.14,0.15 0.21,0.22 -0.07,-0.06 -0.14,-0.14 -0.21,-0.22 z"
   id="path1113" />

					<path
   d="m 94.81,245.87 0.01,0.01 c -0.31,-0.061 -0.62,-0.12 -0.92,-0.16 0.31,0.03 0.61,0.08 0.91,0.15 z"
   id="path1115" />

					<path
   d="m 86.81,246.51 c -5.37,-15.39 -8.18,-33.8 1.84,-47.95 1,-1.41 2.17,-2.77 3.46,-4.04 0.39,0.561 0.8,1.13 1.22,1.7 0.14,0.19 0.28,0.37 0.43,0.55 0.11,0.13 0.22,0.261 0.34,0.391 0.05,0.069 0.11,0.13 0.17,0.189 0.07,0.08 0.14,0.16 0.21,0.22 0.07,0.07 0.14,0.141 0.21,0.211 0.33,0.34 0.69,0.659 1.06,0.97 0.01,0.01 0.02,0.02 0.03,0.03 0.02,0.02 0.04,0.029 0.06,0.05 0.52,0.42 1.07,0.81 1.65,1.18 0.02,0.021 0.04,0.04 0.06,0.04 -2,2.01 -3.63,4.31 -4.67,6.63 -5.74,12.78 -2.64,26.58 1.93,39.19 -0.3,-0.07 -0.6,-0.12 -0.91,-0.15 -0.04,-0.01 -0.08,-0.02 -0.12,-0.02 -0.1,-0.011 -0.19,-0.021 -0.29,-0.03 -0.08,-0.021 -0.15,-0.03 -0.23,-0.03 -0.24,-0.02 -0.48,-0.04 -0.71,-0.06 -0.14,-0.011 -0.28,-0.021 -0.42,-0.021 -0.28,-0.01 -0.55,-0.02 -0.8,-0.02 -0.1,0 -0.19,0 -0.29,0.01 -0.11,0 -0.21,0 -0.32,0.01 -0.2,0 -0.4,0.021 -0.6,0.04 -0.73,0.061 -1.44,0.19 -2.11,0.41 -0.12,0.04 -0.24,0.08 -0.36,0.12 -0.29,0.11 -0.57,0.24 -0.84,0.38 z"
   id="path1117" />

					<path
   d="m 91.51,262.96 c 0.35,0.58 -0.27,1.46 -0.92,1 -0.48,-0.351 -1.02,-0.72 -1.58,-0.72 v -0.021 c 0.8,-0.07 1.64,-0.15 2.5,-0.259 z"
   id="path1119" />

					<path
   d="m 101.4,258.7 c 0.46,-0.16 0.91,-0.33 1.34,-0.511 0.38,-0.17 0.44,-0.51 0.32,-0.8 0,0 0,0 0,-0.01 0.03,-0.07 0.04,-0.15 0.04,-0.24 0,-0.05 0,-0.09 -0.01,-0.14 0.17,0.149 0.27,0.39 0.21,0.68 -1.32,6.8 -11.45,6.53 -16.97,7.101 v -0.03 c 0.11,0 0.24,-0.04 0.37,-0.13 0.55,-0.41 1.07,-0.851 1.66,-1.2 0.22,-0.13 0.44,-0.18 0.65,-0.18 0.56,0 1.1,0.369 1.58,0.72 0.65,0.46 1.27,-0.42 0.92,-1 4.08,-0.5 8.33,-1.55 9.89,-4.26 z"
   id="path1121" />

					<path
   d="m 85.69,251.92 c 3.66,-1.19 8.22,-2.42 11.94,-0.87 0.03,0.01 0.05,0.02 0.08,0.04 -0.06,0.17 -0.14,0.35 -0.24,0.54 -0.21,0.39 -0.03,0.77 0.26,0.96 l -0.03,0.07 c -0.57,-0.29 -1.13,-0.49 -1.61,-0.591 -3.35,-0.699 -6.75,0.171 -9.95,1.2 -0.08,-0.38 -0.18,-0.77 -0.35,-1.12 -0.04,-0.08 -0.07,-0.159 -0.1,-0.229 z"
   id="path1123" />

					<path
   d="m 86.05,255.14 c 0.3,-0.13 0.5,-0.42 0.36,-0.81 -0.04,-0.13 -0.08,-0.261 -0.11,-0.391 0.05,0.061 0.1,0.13 0.15,0.2 0.33,0.451 0.02,0.881 -0.4,1.001 z"
   id="path1125" />

					<path
   d="m 86.3,253.939 c -0.15,-0.199 -0.3,-0.39 -0.46,-0.569 0.1,-0.03 0.2,-0.07 0.3,-0.101 0.05,0.231 0.1,0.451 0.16,0.67 z"
   id="path1127" />

					<path
   d="m 85.93,263.45 c 0.02,-0.03 0.04,-0.04 0.06,-0.061 0.79,-0.58 1.54,-1.3 2.53,-1.53 1.01,-0.239 1.99,0.301 2.78,0.87 0.09,0.07 0.16,0.141 0.21,0.23 -0.86,0.109 -1.7,0.189 -2.5,0.26 -1.12,0.091 -2.17,0.161 -3.08,0.231 z"
   id="path1129" />

					<path
   d="m 86.33,264.75 c -0.55,0 -0.92,-0.851 -0.4,-1.3 0.91,-0.07 1.96,-0.141 3.08,-0.23 v 0.021 c -0.21,0 -0.43,0.05 -0.65,0.18 -0.59,0.35 -1.11,0.79 -1.66,1.2 -0.13,0.089 -0.26,0.129 -0.37,0.129 z"
   id="path1131" />

					<path
   d="m 85.84,253.37 c -0.3,-0.351 -0.61,-0.69 -0.95,-0.99 0.07,-0.15 0.21,-0.271 0.41,-0.34 0.13,-0.04 0.26,-0.08 0.39,-0.12 0.03,0.07 0.06,0.149 0.1,0.229 0.17,0.351 0.27,0.74 0.35,1.12 -0.1,0.031 -0.2,0.071 -0.3,0.101 z"
   id="path1133" />

					<path
   d="m 84.89,252.38 c 0.34,0.3 0.65,0.64 0.95,0.99 -0.05,0.02 -0.11,0.029 -0.16,0.05 -0.68,0.22 -1.05,-0.55 -0.79,-1.04 z"
   id="path1135" />

					<path
   d="m 85.22,254.859 c 0.21,0.301 0.55,0.36 0.83,0.28 -0.36,0.141 -0.85,0.04 -1.02,-0.43 -0.02,-0.05 -0.04,-0.11 -0.06,-0.16 0.09,0.1 0.17,0.211 0.25,0.31 z"
   id="path1137" />

					<path
   d="m 84.89,252.38 c -0.26,-0.271 -0.54,-0.51 -0.82,-0.74 -0.2,-1.109 -0.11,-2.22 0.67,-3.3 0.58,-0.81 1.28,-1.4 2.07,-1.83 0.27,-0.14 0.55,-0.27 0.84,-0.38 0.12,-0.04 0.24,-0.08 0.36,-0.12 0.67,-0.22 1.38,-0.35 2.11,-0.41 0.2,-0.02 0.4,-0.04 0.6,-0.04 0.11,-0.01 0.21,-0.01 0.32,-0.01 0.1,-0.01 0.19,-0.01 0.29,-0.01 0.25,0 0.52,0.01 0.8,0.02 0.14,0 0.28,0.01 0.42,0.021 0.23,0.02 0.47,0.04 0.71,0.06 0.08,0 0.15,0.01 0.23,0.03 0.1,0.01 0.19,0.02 0.29,0.03 0.04,0 0.08,0.01 0.12,0.02 0.3,0.04 0.61,0.1 0.92,0.16 l -0.01,-0.01 c 1.6,0.31 3.17,0.89 4.15,1.899 1.5,1.54 0.89,2.55 0.05,4.011 -0.45,-0.28 -0.89,-0.521 -1.3,-0.69 1.47,-3.92 -5.4,-4.49 -8.13,-3.93 -2.29,0.47 -5.09,1.96 -3.89,4.76 -0.13,0.04 -0.26,0.08 -0.39,0.12 -0.2,0.068 -0.34,0.188 -0.41,0.339 z"
   id="path1139" />

					<path
   d="m 84.07,251.64 c 0.28,0.23 0.56,0.47 0.82,0.74 -0.26,0.49 0.11,1.26 0.79,1.04 0.05,-0.021 0.11,-0.03 0.16,-0.05 0.16,0.18 0.31,0.37 0.46,0.569 0.03,0.13 0.07,0.261 0.11,0.391 0.14,0.39 -0.06,0.68 -0.36,0.81 -0.28,0.08 -0.62,0.021 -0.83,-0.28 -0.08,-0.1 -0.16,-0.21 -0.25,-0.31 -0.34,-0.96 -0.73,-1.941 -0.9,-2.91 z"
   id="path1141" />

					<path
   d="m 82.25,72.25 c -0.67,6.96 -0.89,13.64 -0.66,19.85 0.4,10.48 1.79,21.65 4.15,33.2 3.03,14.86 6.38,26.69 10.55,37.23 4.64,11.729 9.97,21.38 16.29,29.5 l 3.26,3.609 c 0.3,0.26 0.62,0.51 0.94,0.75 0.02,0.01 0.03,0.03 0.05,0.04 0.25,0.19 0.51,0.37 0.78,0.54 0.09,0.061 0.18,0.12 0.27,0.18 0.29,0.19 0.59,0.37 0.89,0.54 0.25,0.141 0.51,0.28 0.77,0.41 0.19,0.101 0.39,0.19 0.58,0.28 l 0.72,0.34 -0.63,0.48 c -0.07,0.05 -0.14,0.109 -0.22,0.159 -0.49,-0.21 -0.97,-0.439 -1.43,-0.71 -0.09,-0.04 -0.18,-0.09 -0.27,-0.14 -0.1,-0.05 -0.19,-0.1 -0.28,-0.17 -0.27,-0.15 -0.53,-0.32 -0.79,-0.49 -0.36,-0.229 -0.7,-0.47 -1.04,-0.729 -0.32,-0.24 -0.63,-0.48 -0.93,-0.74 -0.02,-0.021 -0.05,-0.04 -0.07,-0.061 l -3.33,-3.68 c -6.4,-8.21 -11.77,-17.939 -16.45,-29.76 -4.19,-10.6 -7.56,-22.48 -10.6,-37.39 -2.36,-11.6 -3.76,-22.82 -4.16,-33.35 -0.24,-6.26 -0.02,-12.98 0.66,-19.98 0.49,-5.01 1.34,-9.81 2.52,-14.26 1.77,-6.63 3.92,-12.7 6.38,-18.06 1.16,-2.54 2.47,-4.99 3.85,-7.37 0.29,-0.51 0.59,-1.01 0.89,-1.51 1.19,-2 2.43,-3.94 3.67,-5.83 0.08,-0.13 0.17,-0.26 0.25,-0.39 0.35,-0.53 0.69,-1.04 1.03,-1.56 0.1,-0.15 0.19,-0.29 0.29,-0.44 0.11,-0.13 0.23,-0.26 0.36,-0.39 0.09,0.02 0.18,0.05 0.27,0.07 l 0.75,0.2 -0.51,0.58 -0.4,-0.17 v 0.02 l 0.33,0.22 c -0.01,0.02 -0.02,0.03 -0.04,0.05 -0.26,0.38 -0.51,0.77 -0.77,1.16 -0.25,0.38 -0.51,0.77 -0.76,1.16 -0.36,0.54 -0.71,1.09 -1.06,1.64 -2.62,4.08 -5.19,8.39 -7.29,12.96 -2.43,5.31 -4.56,11.33 -6.31,17.91 -1.18,4.402 -2.02,9.142 -2.5,14.102 z"
   id="path1143" />

					<path
   d="m 72.74,49.67 c -1.88,7.57 -2.95,13.89 -3.37,19.88 -0.32,4.63 -0.37,9.62 -0.15,15.72 0.27,7.69 0.65,14.81 1.16,21.75 0.97,13.13 2.38,24.74 4.32,35.49 1.07,5.95 2.36,11.8 3.84,17.38 0.73,2.771 1.56,5.63 2.46,8.48 l 0.53,1.699 c 1.13,3.62 2.3,7.36 3.83,10.891 2,4.609 4.86,9.42 8.74,14.689 2.55,3.471 7.44,6.03 12.45,6.5 0.58,0.061 1.16,0.091 1.74,0.091 1.91,0 3.81,-0.301 5.62,-0.86 1.81,-0.561 3.53,-1.4 5.09,-2.48 -0.15,-0.08 -0.29,-0.149 -0.44,-0.25 0.46,0.271 0.94,0.5 1.43,0.71 -3.36,2.471 -7.5,3.83 -11.7,3.83 -0.61,0 -1.22,-0.029 -1.83,-0.08 -3.18,-0.31 -6.32,-1.409 -8.91,-3.06 -0.02,0 -0.04,-0.02 -0.06,-0.04 -0.58,-0.38 -1.13,-0.77 -1.65,-1.18 -0.02,-0.021 -0.04,-0.03 -0.06,-0.05 -0.01,-0.011 -0.02,-0.021 -0.03,-0.03 -0.37,-0.311 -0.73,-0.63 -1.06,-0.97 -0.07,-0.07 -0.14,-0.141 -0.21,-0.211 -0.07,-0.069 -0.14,-0.14 -0.21,-0.22 -0.06,-0.06 -0.12,-0.12 -0.17,-0.189 -0.12,-0.13 -0.23,-0.261 -0.34,-0.391 -0.15,-0.18 -0.29,-0.359 -0.43,-0.55 -0.42,-0.57 -0.83,-1.14 -1.22,-1.7 -3.31,-4.68 -5.81,-9 -7.63,-13.18 -1.55,-3.58 -2.72,-7.34 -3.86,-10.99 l -0.53,-1.689 c -0.91,-2.87 -1.74,-5.74 -2.47,-8.521 -1.49,-5.609 -2.78,-11.49 -3.86,-17.46 -1.95,-10.79 -3.36,-22.43 -4.33,-35.59 -0.51,-6.95 -0.89,-14.08 -1.17,-21.79 -0.22,-6.13 -0.17,-11.15 0.16,-15.82 0.42,-6.04 1.5,-12.41 3.39,-20.04 1.32,-5.31 3.19,-10.33 5.58,-14.94 1.18,-3.14 3.1,-5.88 5.69,-8.09 l 4.23,-2.73 c 4.11,-1.96 8.88,-2.41 13.23,-1.33 -0.13,0.13 -0.25,0.26 -0.36,0.39 -0.1,0.15 -0.19,0.29 -0.29,0.44 -1.34,-0.31 -2.72,-0.46 -4.11,-0.46 -2.77,0 -5.54,0.62 -8.01,1.79 l -4.12,2.66 c -2.41,2.07 -4.25,4.68 -5.39,7.72 -2.38,4.591 -4.23,9.541 -5.52,14.781 z"
   id="path1145" />

					<path
   d="m 64.85,262.3 c 6.17,-1.57 12.41,-1.9 18.74,-2.44 5.53,-0.46 12.77,-0.63 18.07,-2.77 0.01,0.02 0.01,0.03 0.01,0.05 0.01,0.19 0.08,0.34 0.18,0.45 -0.1,0.4 -0.26,0.77 -0.45,1.11 -4.29,1.479 -9.55,1.81 -13.97,2.239 -7.16,0.71 -14.34,0.88 -21.36,2.53 -0.43,-0.26 -0.82,-0.57 -1.14,-0.939 -0.03,-0.08 -0.06,-0.15 -0.08,-0.23 z"
   id="path1147" />

					<path
   d="m 64.85,262.3 c 0.02,0.08 0.05,0.15 0.08,0.23 -0.03,-0.021 -0.06,-0.051 -0.08,-0.08 -0.04,-0.051 -0.08,-0.091 -0.13,-0.12 0.04,-0.02 0.09,-0.03 0.13,-0.03 z"
   id="path1149" />

					<path
   d="m 65.02,262.8 c 0.22,0.59 -0.35,0.95 -0.83,0.85 -0.38,-0.34 -0.39,-1.09 0.24,-1.25 0.1,-0.029 0.19,-0.05 0.29,-0.069 0.05,0.029 0.09,0.069 0.13,0.12 0.02,0.029 0.05,0.06 0.08,0.08 0.02,0.089 0.06,0.179 0.09,0.269 z"
   id="path1151" />

					<path
   d="m 66.07,263.47 c -0.42,0.1 -0.84,0.2 -1.26,0.311 -0.26,0.069 -0.47,0 -0.62,-0.131 0.48,0.101 1.05,-0.26 0.83,-0.85 -0.03,-0.09 -0.07,-0.18 -0.09,-0.27 0.32,0.369 0.71,0.68 1.14,0.94 z"
   id="path1153" />

					<path
   d="m 85.93,264.83 c -4.99,0.58 -10.67,1.68 -15.68,1.12 -2.43,-0.271 -4.66,-0.54 -6.31,-2.391 0.07,0.05 0.16,0.08 0.25,0.09 0.15,0.131 0.36,0.2 0.62,0.131 0.42,-0.11 0.84,-0.211 1.26,-0.311 4.42,2.73 13.73,0.65 18.11,0.13 0.5,-0.06 1.09,-0.109 1.75,-0.149 -0.52,0.449 -0.15,1.3 0.4,1.3 v 0.03 c -0.14,0.02 -0.27,0.03 -0.4,0.05 z"
   id="path1155" />

					<path
   d="m 63.84,263.46 c -0.56,-0.641 0.28,-1.57 0.88,-1.13 -0.1,0.02 -0.19,0.04 -0.29,0.069 -0.63,0.16 -0.62,0.91 -0.24,1.25 -0.09,-0.01 -0.18,-0.04 -0.25,-0.09 H 63.93 C 63.9,263.53 63.87,263.49 63.84,263.46 Z"
   id="path1157" />

					<path
   d="m 71.46,249.52 c -5.23,2.04 -8.31,7.4 -6.61,12.78 -0.04,0 -0.09,0.01 -0.13,0.03 -0.6,-0.44 -1.44,0.489 -0.88,1.13 0.03,0.03 0.06,0.07 0.09,0.1 -0.13,-0.08 -0.23,-0.2 -0.29,-0.37 -1.98,-5.33 0.57,-12.38 6.16,-14.55 4.54,-1.77 10.36,-0.229 14.27,3 0.17,0.97 0.56,1.95 0.9,2.91 -2.67,-3.33 -9.53,-6.571 -13.51,-5.03 z"
   id="path1159" />

				</g>

			</g>

		</g>

		<g
   id="g1174">
			<path
   d="m 63.099,141.616 c -0.031,-0.015 -0.069,-0.018 -0.106,-0.023 -0.305,-0.057 -0.612,-0.098 -0.922,-0.104 -0.03,-0.001 -0.053,0.011 -0.08,0.015 -0.029,-0.028 -0.056,-0.06 -0.098,-0.082 -0.649,-0.351 -1.333,-0.626 -2.031,-0.863 1.013,-6.081 -11.017,-4.671 -11.182,0.579 -0.006,0.187 0.086,0.306 0.209,0.373 -1.257,0.723 -2.199,1.63 -3.021,3.014 -1.274,2.144 -0.475,4.713 -1.987,6.768 -0.041,0.056 -0.063,0.11 -0.075,0.164 -1.363,2.286 -1.186,4.96 0.526,7.146 0.756,0.966 1.562,1.363 2.774,1.146 0.423,-0.076 0.72,-0.316 0.945,-0.629 0.256,1.446 0.89,2.789 2.261,3.429 1.387,0.647 3.298,0.588 4.712,-0.165 0.043,-0.011 0.086,-0.019 0.131,-0.044 0.085,-0.049 0.159,-0.108 0.236,-0.164 0.032,-0.021 0.063,-0.043 0.095,-0.065 0.072,-0.056 0.14,-0.114 0.207,-0.174 0.106,-0.087 0.219,-0.166 0.313,-0.264 0.036,-0.037 0.055,-0.077 0.075,-0.117 0.129,-0.139 0.259,-0.278 0.39,-0.42 1.48,0.862 3.141,1.149 5.007,0.216 2.81,-1.406 3.399,-3.859 2.703,-6.779 -0.005,-0.023 -0.019,-0.037 -0.026,-0.058 2.717,0.57 4.942,-2.338 5.105,-4.891 0.225,-3.527 -2.72,-7.302 -6.161,-8.008 z m -13.513,-0.478 c 0.126,-4.014 10.077,-5.324 9.404,-0.86 -2.895,-0.772 -6.048,-0.598 -8.84,0.606 -0.197,0.085 -0.382,0.173 -0.566,0.262 10e-4,-0.003 0.002,-0.005 0.002,-0.008 z m 18.223,10.708 c -0.615,1.312 -2.962,2.202 -4.272,1.488 -0.061,-0.033 -0.12,-0.049 -0.177,-0.055 -0.052,-0.028 -0.103,-0.045 -0.155,-0.051 0.437,-0.692 0.688,-1.489 0.495,-2.319 -0.042,-0.18 -0.193,-0.311 -0.384,-0.281 -0.171,0.027 -0.322,0.205 -0.281,0.383 0.11,0.475 0.062,0.902 -0.121,1.352 -0.184,0.451 -0.504,0.865 -0.84,1.238 -0.689,0.766 -1.55,1.377 -2.329,2.053 -0.327,0.283 0.101,0.801 0.429,0.518 0.838,-0.729 1.73,-1.383 2.476,-2.211 0.03,-0.033 0.057,-0.069 0.086,-0.103 0.022,0.045 0.047,0.09 0.09,0.132 0.252,0.245 0.353,0.54 0.477,0.86 0.004,0.011 0.012,0.017 0.017,0.026 0.52,2.237 0.285,4.179 -1.825,5.455 -2.846,1.722 -5.226,-0.093 -7.13,-2.166 -0.396,-0.432 -1.036,0.211 -0.642,0.641 0.619,0.674 1.28,1.307 1.984,1.827 -0.176,0.197 -0.353,0.391 -0.545,0.568 -0.073,0.063 -0.144,0.129 -0.222,0.185 -0.038,0.028 -0.077,0.055 -0.116,0.082 -1.241,0.797 -3.05,0.767 -4.335,0.167 -1.682,-0.785 -1.744,-3.56 -1.66,-5.136 0.031,-0.585 -0.876,-0.582 -0.907,0 -0.003,0.055 -0.002,0.113 -0.004,0.169 -0.127,0.574 -0.223,1.165 -0.457,1.709 -1.342,0.575 -2.246,0.316 -2.709,-0.776 -0.254,-0.42 -0.472,-0.86 -0.652,-1.318 -0.733,-1.768 -0.248,-3.441 0.83,-4.92 0.021,-0.028 0.025,-0.056 0.038,-0.083 1.087,-1.767 0.77,-3.17 1.33,-5.396 1.4,-5.563 9.479,-5.94 14.056,-4.164 0.03,0.04 0.062,0.08 0.109,0.112 0.337,0.233 0.786,0.488 1.184,0.6 0.406,0.113 0.796,0.082 1.21,0.056 2.484,0.419 4.151,2.529 5.063,4.83 0.584,1.483 0.567,3.078 -0.111,4.528 z"
   id="path1166" />

			<path
   d="m 59.074,146.394 c -1.162,-0.705 -2.643,-1.396 -3.088,-2.793 -0.048,-0.15 -0.251,-0.203 -0.383,-0.145 -0.156,0.07 -0.193,0.232 -0.145,0.383 0.479,1.502 2.028,2.266 3.28,3.027 0.317,0.192 0.656,-0.277 0.336,-0.472 z"
   id="path1168" />

			<path
   d="m 53.825,143.681 c -0.196,1.594 -0.221,3.191 -0.078,4.789 0.033,0.373 0.605,0.281 0.572,-0.088 -0.139,-1.551 -0.108,-3.096 0.082,-4.641 0.046,-0.373 -0.53,-0.431 -0.576,-0.06 z"
   id="path1170" />

			<path
   d="m 51.824,143.95 c -0.21,0.551 -0.444,1.102 -0.836,1.553 -0.369,0.424 -0.914,0.627 -1.468,0.639 -0.158,0.004 -0.3,0.086 -0.318,0.258 -0.015,0.143 0.1,0.322 0.257,0.318 0.719,-0.016 1.388,-0.234 1.894,-0.764 0.483,-0.504 0.768,-1.156 1.013,-1.799 0.132,-0.349 -0.409,-0.554 -0.542,-0.205 z"
   id="path1172" />

		</g>

		<path
   d="m 124.116,179.513 v 0 c -0.375,0 -0.724,-0.058 -1.038,-0.173 -3.386,-1.238 -7.401,-3.16 -8.402,-7.068 -1.098,-4.285 1.771,-7.664 4.303,-10.646 0.442,-0.521 0.877,-1.033 1.283,-1.54 0.313,-0.421 0.564,-0.799 0.771,-1.159 -0.348,-0.109 -0.802,-0.219 -1.324,-0.307 -0.68,-0.072 -1.39,-0.114 -2.099,-0.157 l -0.274,-0.016 c -1.791,-0.105 -3.643,-0.213 -5.385,-0.746 -0.789,-0.243 -1.948,-0.645 -2.904,-1.329 -0.967,-0.689 -2.167,-1.656 -2.869,-3.022 -0.76,-1.479 -1.1,-2.873 -1.011,-4.145 0.1,-1.417 0.445,-2.648 1.119,-3.992 0.7,-1.396 1.693,-2.622 2.652,-3.807 l 0.588,-0.731 c 0.575,-0.772 1.024,-1.499 1.366,-2.211 0.009,-0.025 0.018,-0.053 0.027,-0.081 -1.246,-0.411 -2.606,-0.631 -3.925,-0.844 -1.08,-0.175 -2.196,-0.355 -3.269,-0.644 -3.116,-0.841 -5.305,-2.303 -6.506,-4.346 -1.541,-2.618 -1.435,-6.206 0.276,-9.365 1.286,-2.375 3.317,-4.2 5.134,-5.673 0.362,-0.293 0.736,-0.582 1.113,-0.872 0.746,-0.575 1.512,-1.166 2.198,-1.811 -0.929,-0.563 -1.93,-1.02 -2.886,-1.432 -0.648,-0.265 -1.313,-0.515 -1.978,-0.766 -1.745,-0.658 -3.549,-1.338 -5.188,-2.337 -1.829,-1.115 -3.067,-2.293 -3.784,-3.604 -1.132,-2.07 -1.175,-4.361 -0.122,-6.451 0.662,-1.313 1.989,-2.537 3.642,-3.356 1.402,-0.696 2.968,-1.252 4.652,-1.652 2.367,-0.563 4.809,-0.878 7.17,-1.182 l 1.035,-0.134 c 0.303,-0.042 0.61,-0.089 0.915,-0.149 1.21,-0.24 2.159,-0.107 3.041,0.409 0.891,0.521 1.558,1.39 1.831,2.381 0.289,1.05 0.098,2.264 -0.511,3.248 -0.548,0.887 -1.367,1.478 -2.305,1.663 -1.084,0.214 -2.196,0.346 -3.271,0.474 -0.395,0.047 -0.789,0.094 -1.182,0.145 -2.25,0.309 -4.626,0.677 -6.839,1.475 0.545,0.317 1.167,0.625 1.931,0.96 l 0.595,0.238 c 0.404,0.158 0.809,0.311 1.214,0.463 0.925,0.349 1.881,0.709 2.803,1.127 l 0.424,0.191 c 1.212,0.545 2.466,1.109 3.592,1.897 1.306,0.915 2.598,1.957 3.208,3.374 0.415,0.961 0.729,1.782 0.69,2.854 -0.041,1.159 -0.311,1.865 -0.717,2.81 -0.468,1.089 -1.332,2.008 -2.032,2.686 -0.74,0.717 -1.544,1.356 -2.322,1.973 l -0.343,0.272 c -1.483,1.175 -3.017,2.39 -4.23,3.845 -0.259,0.366 -0.499,0.765 -0.694,1.157 -0.063,0.194 -0.134,0.444 -0.189,0.698 0,0.09 -0.002,0.237 0.002,0.388 l 0.066,0.064 c 0.143,0.083 0.357,0.201 0.578,0.308 1.305,0.48 2.77,0.733 4.186,0.977 l 0.467,0.081 c 0.781,0.135 1.563,0.27 2.337,0.442 0.954,0.213 1.899,0.53 3.064,1.025 2.651,1.126 4.408,3.814 4.274,6.538 -0.077,1.546 -0.531,3.086 -1.429,4.848 -0.694,1.36 -1.661,2.557 -2.596,3.714 l -0.594,0.738 c -0.557,0.741 -0.938,1.337 -1.232,1.922 -0.019,0.067 -0.052,0.18 -0.082,0.298 l 0.008,0.027 c 0.068,0.071 0.139,0.14 0.211,0.207 0.109,0.063 0.284,0.161 0.462,0.252 0.452,0.152 1.007,0.289 1.643,0.395 0.762,0.081 1.557,0.125 2.353,0.169 1.687,0.093 3.431,0.189 5.097,0.675 2.969,0.863 5.163,2.837 6.019,5.413 0.713,2.148 0.147,4.776 -1.552,7.212 -0.764,1.093 -1.629,2.119 -2.465,3.112 -0.468,0.557 -0.937,1.112 -1.39,1.683 -0.447,0.599 -0.779,1.119 -1.036,1.621 0.056,0.054 0.114,0.106 0.172,0.158 0.509,0.346 1.152,0.697 1.923,1.044 0.214,0.084 0.448,0.175 0.682,0.259 1.131,0.415 1.855,0.977 2.35,1.822 0.54,0.921 0.686,2.04 0.402,3.071 -0.272,0.991 -0.939,1.86 -1.831,2.383 -0.61,0.357 -1.363,0.562 -2.063,0.562 z M 110.473,94.511 c -0.281,0 -0.579,0.032 -0.91,0.097 -0.32,0.063 -0.643,0.112 -0.966,0.157 l -1.04,0.135 c -2.339,0.301 -4.758,0.613 -7.081,1.166 -1.622,0.386 -3.125,0.919 -4.47,1.586 -1.49,0.739 -2.677,1.823 -3.256,2.974 -0.923,1.831 -0.884,3.838 0.108,5.652 0.643,1.174 1.78,2.248 3.477,3.282 1.57,0.957 3.336,1.623 5.043,2.267 0.672,0.253 1.345,0.507 2.008,0.777 1.156,0.5 2.372,1.06 3.478,1.794 l 0.432,0.287 -0.362,0.372 c -0.816,0.836 -1.758,1.562 -2.668,2.264 -0.371,0.286 -0.739,0.57 -1.096,0.859 -1.751,1.419 -3.705,3.172 -4.919,5.414 -1.229,2.27 -1.951,5.699 -0.292,8.52 1.083,1.841 3.098,3.171 5.989,3.952 1.029,0.277 2.124,0.454 3.182,0.625 1.475,0.238 2.999,0.485 4.433,1.009 l 0.092,0.042 0.3,0.163 -0.092,0.33 c -0.053,0.189 -0.114,0.375 -0.181,0.561 -0.383,0.803 -0.86,1.575 -1.477,2.404 l -0.602,0.748 c -0.931,1.149 -1.894,2.338 -2.552,3.65 -0.621,1.238 -0.938,2.369 -1.03,3.668 -0.078,1.112 0.231,2.354 0.918,3.691 0.617,1.201 1.716,2.082 2.604,2.716 0.855,0.611 1.926,0.981 2.657,1.207 1.644,0.502 3.443,0.607 5.183,0.709 l 0.274,0.017 c 0.724,0.043 1.446,0.087 2.166,0.164 0.599,0.1 1.101,0.222 1.559,0.375 0.195,0.097 0.322,0.17 0.446,0.247 l 0.272,0.219 -0.109,0.347 c -0.261,0.513 -0.595,1.038 -1.051,1.653 -0.421,0.526 -0.861,1.045 -1.308,1.571 -2.514,2.961 -5.113,6.022 -4.126,9.877 0.902,3.519 4.677,5.309 7.865,6.475 0.652,0.239 1.658,0.095 2.376,-0.325 0.699,-0.41 1.223,-1.092 1.437,-1.87 0.223,-0.809 0.108,-1.687 -0.315,-2.409 -0.393,-0.67 -0.961,-1.103 -1.902,-1.448 -0.241,-0.087 -0.483,-0.18 -0.723,-0.275 -0.836,-0.375 -1.522,-0.751 -2.116,-1.158 -0.181,-0.155 -0.315,-0.284 -0.443,-0.418 l -0.169,-0.176 0.064,-0.235 c 0.026,-0.096 0.055,-0.191 0.087,-0.285 0.306,-0.62 0.671,-1.195 1.171,-1.866 0.466,-0.587 0.94,-1.149 1.414,-1.712 0.824,-0.979 1.676,-1.99 2.418,-3.051 0.729,-1.046 2.332,-3.768 1.441,-6.448 -0.766,-2.305 -2.75,-4.076 -5.444,-4.86 -1.572,-0.457 -3.266,-0.551 -4.904,-0.642 -0.811,-0.045 -1.621,-0.09 -2.422,-0.176 -0.709,-0.116 -1.31,-0.265 -1.861,-0.456 -0.26,-0.128 -0.46,-0.24 -0.654,-0.366 -0.161,-0.141 -0.259,-0.237 -0.354,-0.338 l -0.142,-0.249 -0.058,-0.268 10e-4,-0.119 c 0.051,-0.249 0.098,-0.406 0.15,-0.563 0.341,-0.689 0.748,-1.325 1.344,-2.117 l 0.605,-0.755 c 0.908,-1.122 1.846,-2.282 2.499,-3.563 0.853,-1.672 1.265,-3.06 1.336,-4.5 0.117,-2.371 -1.426,-4.716 -3.752,-5.704 -1.116,-0.474 -2.015,-0.776 -2.916,-0.977 -0.76,-0.169 -1.529,-0.302 -2.296,-0.434 l -0.467,-0.081 c -1.455,-0.251 -2.958,-0.51 -4.377,-1.035 -0.29,-0.139 -0.533,-0.273 -0.768,-0.423 l -0.341,-0.418 -0.044,-0.167 c -0.018,-0.275 -0.016,-0.464 -0.005,-0.654 0.071,-0.354 0.151,-0.637 0.247,-0.916 0.237,-0.483 0.5,-0.92 0.805,-1.35 1.291,-1.549 2.86,-2.792 4.377,-3.995 l 0.342,-0.271 c 0.761,-0.604 1.549,-1.229 2.259,-1.917 0.643,-0.623 1.432,-1.459 1.841,-2.409 0.414,-0.962 0.612,-1.522 0.647,-2.5 0.032,-0.895 -0.237,-1.594 -0.621,-2.483 -0.526,-1.221 -1.711,-2.168 -2.913,-3.01 -1.059,-0.742 -2.275,-1.289 -3.451,-1.817 l -0.426,-0.192 c -0.897,-0.407 -1.84,-0.762 -2.752,-1.106 -0.408,-0.154 -0.817,-0.308 -1.224,-0.467 l -0.616,-0.247 c -1.157,-0.507 -2.003,-0.956 -2.754,-1.461 l -0.594,-0.4 0.632,-0.336 c 0.141,-0.075 0.284,-0.146 0.428,-0.213 2.425,-0.935 4.992,-1.336 7.416,-1.668 0.399,-0.051 0.796,-0.099 1.194,-0.146 1.06,-0.125 2.155,-0.256 3.207,-0.463 0.701,-0.138 1.319,-0.59 1.741,-1.271 0.485,-0.785 0.639,-1.745 0.413,-2.568 -0.214,-0.777 -0.738,-1.458 -1.438,-1.868 -0.463,-0.276 -0.964,-0.408 -1.528,-0.408 z"
   id="path1176" />

	</g>

</g>
  </g>
</svg>
